<?xml version="1.0" encoding="UTF-8" standalone="no"?>
<!-- Created with Inkscape (http://www.inkscape.org/) -->

<svg
   xmlns:dc="http://purl.org/dc/elements/1.1/"
   xmlns:cc="http://creativecommons.org/ns#"
   xmlns:rdf="http://www.w3.org/1999/02/22-rdf-syntax-ns#"
   xmlns:svg="http://www.w3.org/2000/svg"
   xmlns="http://www.w3.org/2000/svg"
   xmlns:sodipodi="http://sodipodi.sourceforge.net/DTD/sodipodi-0.dtd"
   xmlns:inkscape="http://www.inkscape.org/namespaces/inkscape"
   version="1.1"
   width="60"
   height="60"
   id="svg2"
   inkscape:version="0.48.3.1 r9886"
   sodipodi:docname="core2.svg">
  <sodipodi:namedview
     pagecolor="#ffffff"
     bordercolor="#666666"
     borderopacity="1"
     objecttolerance="10"
     gridtolerance="10"
     guidetolerance="10"
     inkscape:pageopacity="0"
     inkscape:pageshadow="2"
     inkscape:window-width="1311"
     inkscape:window-height="744"
     id="namedview13"
     showgrid="false"
     inkscape:zoom="3.9333333"
     inkscape:cx="30"
     inkscape:cy="30"
     inkscape:window-x="55"
     inkscape:window-y="24"
     inkscape:window-maximized="1"
     inkscape:current-layer="layer1" />
  <defs
     id="defs4" />
  <metadata
     id="metadata7">
    <rdf:RDF>
      <cc:Work
         rdf:about="">
        <dc:format>image/svg+xml</dc:format>
        <dc:type
           rdf:resource="http://purl.org/dc/dcmitype/StillImage" />
        <dc:title></dc:title>
      </cc:Work>
    </rdf:RDF>
  </metadata>
  <g
     transform="matrix(0.7318965,0,0,0.73035568,-108.01477,-72.931664)"
     id="layer1">
    <path
       d="m 162.41209,133.59951 c 0.4286,-5.08754 6.70988,-8.10299 9.79285,-10.15249 6.80933,-3.5741 14.50369,-4.96511 21.86135,-2.76852 1.57982,0.47166 3.07565,1.24956 4.61349,1.87432 1.41734,0.91967 2.91326,1.699 4.25203,2.75897 3.80773,3.01477 6.95047,7.19738 8.79458,12.04435 1.49053,3.91764 1.30757,4.97589 1.66657,9.09469 -0.15657,1.4689 -0.16987,2.96662 -0.4697,4.40668 -0.96119,4.61642 -3.37388,8.67184 -6.45569,11.82197 -3.6436,3.72435 -7.97051,5.94172 -12.23695,8.68417 -1.72479,0.73773 -3.40948,1.60927 -5.17438,2.21315 -6.94435,2.37614 -14.77071,2.9901 -21.64388,-0.0719 -1.57777,-0.7029 -3.00134,-1.78714 -4.50202,-2.68071 -1.25062,-1.21217 -2.63848,-2.26339 -3.7519,-3.63651 -3.21015,-3.95893 -5.06625,-9.13813 -5.14797,-14.5097 -0.0699,-4.588 0.65767,-5.851 1.91255,-10.1381 0.81235,-1.55076 1.48976,-3.20301 2.43702,-4.65228 3.0903,-4.72799 7.41117,-8.19121 11.92329,-10.96268 9.11006,-5.59564 6.79899,-4.39961 14.19641,-7.27274 0,0 -3.8448,3.39388 -3.8448,3.39388 l 0,0 c -1.67782,0.68215 -3.32,1.48948 -5.03348,2.04645 -0.2292,0.0745 -0.48159,-0.30035 -0.6967,-0.18385 -4.63002,2.50775 -9.22134,6.31796 -12.41248,10.91022 -0.99196,1.42749 -1.7168,3.06899 -2.5752,4.6035 -1.35266,4.2211 -2.12302,5.4101 -2.06595,9.96503 0.0659,5.25332 1.97539,10.27794 5.20341,14.04017 1.13213,1.31948 2.52935,2.30958 3.79404,3.46438 1.51975,0.83252 2.96886,1.85625 4.55926,2.49761 6.87122,2.77097 14.68193,2.08332 21.55249,-0.27618 1.69949,-0.58365 3.3212,-1.42582 4.9818,-2.13873 2.03274,-0.61656 1.31554,-0.32018 4.55666,-3.42278 3.21838,-3.08085 5.90108,-7.05255 6.95012,-11.74953 0.31201,-1.397 0.31361,-2.86002 0.47042,-4.29003 -0.46949,-4.02801 -0.3057,-4.94602 -1.88671,-8.74377 -1.95465,-4.69529 -5.15869,-8.71767 -8.92951,-11.63662 -1.3289,-1.02867 -2.80509,-1.78905 -4.20764,-2.68357 -1.51785,-0.60508 -2.9972,-1.35235 -4.55356,-1.81525 -6.9561,-2.06884 -14.27929,-1.03763 -20.78848,2.2448 -0.85586,-0.56114 -0.1712,-0.13793 -2.31291,1.80902 -1.5236,1.38505 -2.89383,3.07415 -3.53049,5.19979 0,0 -1.29794,0.71279 -1.29794,0.71279 z"
       id="path3081"
       style="fill:#000000"
       inkscape:connector-curvature="0"
       inkscape:export-filename="/home/sade/Desktop/net-game/images/maps/core.png"
       inkscape:export-xdpi="90"
       inkscape:export-ydpi="90" />
    <path
       d="m 157.25209,130.64527 c 0.49305,-6.22397 7.71868,-9.91297 11.26515,-12.4203 7.83308,-4.37247 16.68427,-6.07418 25.14812,-3.38692 1.81732,0.577 3.53806,1.52867 5.30711,2.293 1.63042,1.12507 3.35125,2.0785 4.8913,3.37522 4.3802,3.6882 7.99542,8.8051 10.1168,14.73477 1.71462,4.79274 1.50415,6.08736 1.91712,11.12621 -0.18011,1.797 -0.19541,3.62928 -0.54032,5.39103 -1.10569,5.64761 -3.88111,10.6089 -7.42628,14.46267 -4.19137,4.5563 -9.16883,7.26897 -14.0767,10.62403 -1.9841,0.9025 -3.92207,1.96872 -5.95232,2.7075 -7.9884,2.9069 -16.99143,3.65802 -24.89795,-0.088 -1.81498,-0.85991 -3.45258,-2.18635 -5.17888,-3.27953 -1.43863,-1.48292 -3.03516,-2.76896 -4.31597,-4.4488 -3.69278,-4.84325 -5.82794,-11.17936 -5.92194,-17.7508 -0.0804,-5.61284 0.75656,-7.15796 2.20009,-12.40267 0.93447,-1.89718 1.71375,-3.9185 2.80342,-5.6915 3.5549,-5.78411 8.5254,-10.02091 13.71589,-13.41147 10.47973,-6.84556 7.82119,-5.38237 16.33079,-8.89729 0,0 -4.42285,4.152 -4.42285,4.152 l 0,0 c -1.93009,0.83452 -3.81914,1.82219 -5.79025,2.50357 -0.26366,0.0911 -0.55399,-0.36745 -0.80145,-0.22492 -5.3261,3.0679 -10.60773,7.72923 -14.27864,13.34728 -1.14109,1.74636 -1.97491,3.75453 -2.96236,5.63181 -1.55603,5.164 -2.4422,6.61859 -2.37655,12.19097 0.0757,6.42678 2.27237,12.57377 5.98571,17.1764 1.30234,1.6142 2.90964,2.82547 4.36446,4.23821 1.74823,1.01851 3.41523,2.2709 5.24473,3.05553 7.90426,3.38993 16.88927,2.54866 24.7928,-0.33789 1.955,-0.714 3.82052,-1.7443 5.73079,-2.61645 2.33835,-0.75429 1.51333,-0.3917 5.24173,-4.18734 3.70225,-3.76903 6.78827,-8.62791 7.99503,-14.37409 0.35892,-1.70905 0.36077,-3.49887 0.54115,-5.24831 -0.54006,-4.92776 -0.35165,-6.05084 -2.17036,-10.69691 -2.24852,-5.74409 -5.93428,-10.66498 -10.27203,-14.23593 -1.52869,-1.25848 -3.22682,-2.1887 -4.84024,-3.28304 -1.74605,-0.74022 -3.4478,-1.65442 -5.23817,-2.22071 -8.00191,-2.53098 -16.42611,-1.2694 -23.91393,2.74622 -0.98452,-0.68647 -0.19692,-0.16873 -2.66065,2.2131 -1.75265,1.69445 -3.32888,3.76085 -4.06127,6.3613 0,0 -1.49308,0.872 -1.49308,0.872 z"
       id="path3081-5"
       style="fill:#000000"
       inkscape:connector-curvature="0"
       inkscape:export-filename="/home/sade/Desktop/net-game/images/maps/core.png"
       inkscape:export-xdpi="90"
       inkscape:export-ydpi="90" />
    <path
       style="fill:#666666;fill-opacity:1"
       d="m 175.71882,171.57647 c -2.573,-0.60209 -3.75773,-1.04902 -6.4756,-2.44294 -4.68721,-2.40393 -8.3733,-6.77109 -10.21319,-12.10027 -0.73826,-2.13838 -0.80211,-2.67385 -0.81276,-6.81696 -0.0113,-4.33366 0.0226,-4.59657 0.93426,-7.268 1.75906,-5.1548 5.01361,-9.86925 9.25239,-13.40278 2.8919,-2.41072 6.14526,-4.49111 7.04431,-4.50452 0.75446,-0.0112 4.72976,-1.58808 5.39184,-2.13873 0.59362,-0.4937 6.16499,-0.0893 8.754,0.63557 4.67341,1.30828 8.64529,3.65925 12.19934,7.22078 4.50531,4.51483 7.08253,9.60418 7.77547,15.35454 0.81376,6.75308 -1.37061,12.38019 -7.11055,18.31724 -2.63281,2.72323 -2.70696,2.77373 -6.2718,4.27179 -5.74189,2.41293 -8.43454,3.01254 -14.0993,3.13964 -3.22642,0.0724 -5.29294,-0.0137 -6.36841,-0.26536 l 0,0 z"
       id="path2990"
       inkscape:connector-curvature="0"
       inkscape:export-filename="/home/sade/Desktop/net-game/images/maps/core.png"
       inkscape:export-xdpi="90"
       inkscape:export-ydpi="90" />
  </g>
</svg>
