<?xml version="1.0" encoding="UTF-8" standalone="no"?>
<!-- Created with Inkscape (http://www.inkscape.org/) -->

<svg
   xmlns:dc="http://purl.org/dc/elements/1.1/"
   xmlns:cc="http://creativecommons.org/ns#"
   xmlns:rdf="http://www.w3.org/1999/02/22-rdf-syntax-ns#"
   xmlns:svg="http://www.w3.org/2000/svg"
   xmlns="http://www.w3.org/2000/svg"
   xmlns:sodipodi="http://sodipodi.sourceforge.net/DTD/sodipodi-0.dtd"
   xmlns:inkscape="http://www.inkscape.org/namespaces/inkscape"
   version="1.1"
   width="60"
   height="60"
   id="svg2"
   inkscape:version="0.48.3.1 r9886"
   sodipodi:docname="vertex.svg">
  <sodipodi:namedview
     pagecolor="#ffffff"
     bordercolor="#666666"
     borderopacity="1"
     objecttolerance="10"
     gridtolerance="10"
     guidetolerance="10"
     inkscape:pageopacity="0"
     inkscape:pageshadow="2"
     inkscape:window-width="1084"
     inkscape:window-height="603"
     id="namedview9"
     showgrid="false"
     fit-margin-top="0"
     fit-margin-left="0"
     fit-margin-right="0"
     fit-margin-bottom="0"
     inkscape:zoom="3.2749148"
     inkscape:cx="48.557147"
     inkscape:cy="30.445772"
     inkscape:window-x="198"
     inkscape:window-y="77"
     inkscape:window-maximized="0"
     inkscape:current-layer="layer1" />
  <defs
     id="defs4" />
  <metadata
     id="metadata7">
    <rdf:RDF>
      <cc:Work
         rdf:about="">
        <dc:format>image/svg+xml</dc:format>
        <dc:type
           rdf:resource="http://purl.org/dc/dcmitype/StillImage" />
        <dc:title></dc:title>
      </cc:Work>
    </rdf:RDF>
  </metadata>
  <g
     transform="matrix(0.7318965,0,0,0.73035568,-108.01477,-72.931664)"
     id="layer1"
     style="fill:#d45500">
    <path
       d="m 224.15444,141.47291 a 36.664335,38.561033 0 1 1 -0.41015,-5.7517"
       id="path8545"
       style="fill:#ffe680;fill-opacity:1"
       inkscape:connector-curvature="0" />
    <path
       d="m 158.71049,120.37243 c 0.59167,-7.46876 9.26241,-11.89557 13.51819,-14.90435 9.39969,-5.24697 20.02111,-7.289032 30.17773,-4.06432 2.18079,0.69241 4.24568,1.83441 6.36853,2.7516 1.95651,1.35009 4.0215,2.4942 5.86956,4.05028 5.25624,4.42584 9.59452,10.56612 12.14016,17.68171 2.05755,5.75129 1.80498,7.30483 2.30056,13.35145 -0.21614,2.15641 -0.2345,4.35514 -0.64839,6.46923 -1.32683,6.77714 -4.65734,12.73069 -8.91153,17.35522 -5.02966,5.46755 -11.00261,8.72275 -16.89205,12.74882 -2.38092,1.083 -4.70648,2.36247 -7.14279,3.24901 -9.58607,3.48828 -20.3897,4.38962 -29.87753,-0.10557 -2.17798,-1.0319 -4.14309,-2.62362 -6.21465,-3.93543 -1.72637,-1.77951 -3.6422,-3.32276 -5.17917,-5.33857 -4.43133,-5.8119 -6.99353,-13.41523 -7.10633,-21.30095 -0.0964,-6.73541 0.90787,-8.58956 2.6401,-14.88322 1.12138,-2.2766 2.0565,-4.70219 3.36411,-6.8298 4.26589,-6.94092 10.23048,-12.02508 16.45907,-16.09375 12.57567,-8.21468 9.38543,-6.45885 19.59695,-10.676752 0,0 -5.30742,4.982402 -5.30742,4.982402 l 0,0 c -2.31611,1.00142 -4.58297,2.18663 -6.94831,3.00428 -0.31639,0.10937 -0.66478,-0.44094 -0.96173,-0.26989 -6.39133,3.68148 -12.72928,9.27506 -17.13437,16.01673 -1.36931,2.09563 -2.36989,4.50543 -3.55483,6.75817 -1.86723,6.1968 -2.93065,7.9423 -2.85187,14.62916 0.0909,7.71214 2.72685,15.08852 7.18286,20.61167 1.5628,1.93704 3.49156,3.39057 5.23735,5.08586 2.09788,1.22221 4.09827,2.72508 6.29367,3.66663 9.48512,4.06792 20.26714,3.05839 29.75136,-0.40546 2.346,-0.85681 4.58464,-2.09316 6.87695,-3.13974 2.80602,-0.90515 1.816,-0.47004 6.29008,-5.02481 4.4427,-4.52283 8.14592,-10.35349 9.59404,-17.24891 0.4307,-2.05086 0.43293,-4.19864 0.64938,-6.29797 -0.64808,-5.91331 -0.42199,-7.26101 -2.60444,-12.83629 -2.69822,-6.89291 -7.12113,-12.79797 -12.32643,-17.08312 -1.83443,-1.51016 -3.87219,-2.62643 -5.80829,-3.93964 -2.09526,-0.88827 -4.13736,-1.98531 -6.2858,-2.66486 -9.6023,-3.03716 -19.71134,-1.52328 -28.69671,3.29548 -1.18144,-0.82378 -0.23632,-0.20249 -3.19279,2.65572 -2.10318,2.03334 -3.99466,4.51301 -4.87352,7.63356 0,0 -1.7917,1.0464 -1.7917,1.0464 z"
       id="path3081-5"
       style="fill:#ffcc00"
       inkscape:connector-curvature="0" />
    <path
       sodipodi:type="arc"
       style="fill:#fff6d5;fill-opacity:1"
       id="path3083"
       sodipodi:cx="8.8551922"
       sodipodi:cy="15.418688"
       sodipodi:rx="2.4428117"
       sodipodi:ry="2.4428117"
       d="m 11.298004,15.418688 a 2.4428117,2.4428117 0 1 1 -0.02733,-0.364366"
       transform="matrix(1.3663134,0,0,1.3691959,165.52188,94.422618)"
       sodipodi:start="0"
       sodipodi:end="6.1334682"
       sodipodi:open="true" />
    <path
       sodipodi:type="arc"
       style="fill:#fff6d5;fill-opacity:1"
       id="path3083-4"
       sodipodi:cx="8.8551922"
       sodipodi:cy="15.418688"
       sodipodi:rx="2.4428117"
       sodipodi:ry="2.4428117"
       d="m 11.298004,15.418688 a 2.4428117,2.4428117 0 1 1 -0.02733,-0.364366"
       transform="matrix(1.3663134,0,0,1.3691959,180.54129,104.87477)"
       sodipodi:start="0"
       sodipodi:end="6.1334682"
       sodipodi:open="true" />
    <path
       sodipodi:type="arc"
       style="fill:#fff6d5;fill-opacity:1"
       id="path3083-8"
       sodipodi:cx="8.8551922"
       sodipodi:cy="15.418688"
       sodipodi:rx="2.4428117"
       sodipodi:ry="2.4428117"
       d="m 11.298004,15.418688 a 2.4428117,2.4428117 0 1 1 -0.02733,-0.364366"
       transform="matrix(2.2202592,0,0,2.310518,160.88046,90.987941)"
       sodipodi:start="0"
       sodipodi:end="6.1334682"
       sodipodi:open="true" />
    <path
       sodipodi:type="arc"
       style="fill:#fff6d5;fill-opacity:1"
       id="path3083-87"
       sodipodi:cx="8.8551922"
       sodipodi:cy="15.418688"
       sodipodi:rx="2.4428117"
       sodipodi:ry="2.4428117"
       d="m 11.298004,15.418688 a 2.4428117,2.4428117 0 1 1 -0.02733,-0.364366"
       transform="matrix(1.3663134,0,0,1.3691959,149.66806,111.56414)"
       sodipodi:start="0"
       sodipodi:end="6.1334682"
       sodipodi:open="true" />
    <path
       sodipodi:type="arc"
       style="fill:#fff6d5;fill-opacity:1"
       id="path3083-5"
       sodipodi:cx="8.8551922"
       sodipodi:cy="15.418688"
       sodipodi:rx="2.4428117"
       sodipodi:ry="2.4428117"
       d="m 11.298004,15.418688 a 2.4428117,2.4428117 0 1 1 -0.02733,-0.364366"
       transform="matrix(0.68315676,0,0,0.77017272,183.67032,100.94121)"
       sodipodi:start="0"
       sodipodi:end="6.1334682"
       sodipodi:open="true" />
    <path
       sodipodi:type="arc"
       style="fill:#fff6d5;fill-opacity:1"
       id="path3083-5-1"
       sodipodi:cx="8.8551922"
       sodipodi:cy="15.418688"
       sodipodi:rx="2.4428117"
       sodipodi:ry="2.4428117"
       d="m 11.298004,15.418688 a 2.4428117,2.4428117 0 1 1 -0.02733,-0.364366"
       transform="matrix(0.68315676,0,0,0.77017272,165.31327,137.52373)"
       sodipodi:start="0"
       sodipodi:end="6.1334682"
       sodipodi:open="true" />
    <path
       sodipodi:type="arc"
       style="fill:#fff6d5;fill-opacity:1"
       id="path3083-5-3"
       sodipodi:cx="8.8551922"
       sodipodi:cy="15.418688"
       sodipodi:rx="2.4428117"
       sodipodi:ry="2.4428117"
       d="m 11.298004,15.418688 a 2.4428117,2.4428117 0 1 1 -0.02733,-0.364366"
       transform="matrix(0.68315676,0,0,0.77017272,177.41224,155.08334)"
       sodipodi:start="0"
       sodipodi:end="6.1334682"
       sodipodi:open="true" />
    <path
       sodipodi:type="arc"
       style="fill:#fff6d5;fill-opacity:1"
       id="path3083-5-9"
       sodipodi:cx="8.8551922"
       sodipodi:cy="15.418688"
       sodipodi:rx="2.4428117"
       sodipodi:ry="2.4428117"
       d="m 11.298004,15.418688 a 2.4428117,2.4428117 0 1 1 -0.02733,-0.364366"
       transform="matrix(0.68315676,0,0,0.77017272,187.00798,152.99292)"
       sodipodi:start="0"
       sodipodi:end="6.1334682"
       sodipodi:open="true" />
    <path
       sodipodi:type="arc"
       style="fill:#fff6d5;fill-opacity:1"
       id="path3083-5-4"
       sodipodi:cx="8.8551922"
       sodipodi:cy="15.418688"
       sodipodi:rx="2.4428117"
       sodipodi:ry="2.4428117"
       d="m 11.298004,15.418688 a 2.4428117,2.4428117 0 1 1 -0.02733,-0.364366"
       transform="matrix(0.68315676,0,0,0.77017272,156.13475,119.96412)"
       sodipodi:start="0"
       sodipodi:end="6.1334682"
       sodipodi:open="true" />
    <path
       sodipodi:type="arc"
       style="fill:#fff6d5;fill-opacity:1"
       id="path3083-8-6"
       sodipodi:cx="8.8551922"
       sodipodi:cy="15.418688"
       sodipodi:rx="2.4428117"
       sodipodi:ry="2.4428117"
       d="m 11.298004,15.418688 a 2.4428117,2.4428117 0 1 1 -0.02733,-0.364366"
       transform="matrix(2.2202591,0,0,2.3105179,170.8934,108.33852)"
       sodipodi:start="0"
       sodipodi:end="6.1334682"
       sodipodi:open="true" />
    <path
       sodipodi:type="arc"
       style="fill:#fff6d5;fill-opacity:1"
       id="path3083-8-4"
       sodipodi:cx="8.8551922"
       sodipodi:cy="15.418688"
       sodipodi:rx="2.4428117"
       sodipodi:ry="2.4428117"
       d="m 11.298004,15.418688 a 2.4428117,2.4428117 0 1 1 -0.02733,-0.364366"
       transform="matrix(2.2202591,0,0,2.3105179,187.16443,121.71726)"
       sodipodi:start="0"
       sodipodi:end="6.1334682"
       sodipodi:open="true" />
    <path
       sodipodi:type="arc"
       style="fill:#fff6d5;fill-opacity:1"
       id="path3083-8-9"
       sodipodi:cx="8.8551922"
       sodipodi:cy="15.418688"
       sodipodi:rx="2.4428117"
       sodipodi:ry="2.4428117"
       d="m 11.298004,15.418688 a 2.4428117,2.4428117 0 1 1 -0.02733,-0.364366"
       transform="matrix(2.2202591,0,0,2.3105179,183.82678,95.795935)"
       sodipodi:start="0"
       sodipodi:end="6.1334682"
       sodipodi:open="true" />
    <path
       sodipodi:type="arc"
       style="fill:#fff6d5;fill-opacity:1"
       id="path3083-8-1"
       sodipodi:cx="8.8551922"
       sodipodi:cy="15.418688"
       sodipodi:rx="2.4428117"
       sodipodi:ry="2.4428117"
       d="m 11.298004,15.418688 a 2.4428117,2.4428117 0 1 1 -0.02733,-0.364366"
       transform="matrix(2.2202591,0,0,2.3105179,192.17089,106.66617)"
       sodipodi:start="0"
       sodipodi:end="6.1334682"
       sodipodi:open="true" />
    <path
       sodipodi:type="arc"
       style="fill:#fff6d5;fill-opacity:1"
       id="path3083-8-7"
       sodipodi:cx="8.8551922"
       sodipodi:cy="15.418688"
       sodipodi:rx="2.4428117"
       sodipodi:ry="2.4428117"
       d="m 11.298004,15.418688 a 2.4428117,2.4428117 0 1 1 -0.02733,-0.364366"
       transform="matrix(2.2202591,0,0,2.3105179,147.52988,127.57046)"
       sodipodi:start="0"
       sodipodi:end="6.1334682"
       sodipodi:open="true" />
    <path
       sodipodi:type="arc"
       style="fill:#fff6d5;fill-opacity:1"
       id="path3083-8-99"
       sodipodi:cx="8.8551922"
       sodipodi:cy="15.418688"
       sodipodi:rx="2.4428117"
       sodipodi:ry="2.4428117"
       d="m 11.298004,15.418688 a 2.4428117,2.4428117 0 1 1 -0.02733,-0.364366"
       transform="matrix(2.2202591,0,0,2.3105179,140.85459,110.01085)"
       sodipodi:start="0"
       sodipodi:end="6.1334682"
       sodipodi:open="true" />
    <path
       sodipodi:type="arc"
       style="fill:#fff6d5;fill-opacity:1"
       id="path3083-8-13"
       sodipodi:cx="8.8551922"
       sodipodi:cy="15.418688"
       sodipodi:rx="2.4428117"
       sodipodi:ry="2.4428117"
       d="m 11.298004,15.418688 a 2.4428117,2.4428117 0 1 1 -0.02733,-0.364366"
       transform="matrix(2.2202591,0,0,2.3105179,181.74075,79.072497)"
       sodipodi:start="0"
       sodipodi:end="6.1334682"
       sodipodi:open="true" />
    <path
       sodipodi:type="arc"
       style="fill:#fff6d5;fill-opacity:1"
       id="path3083-4-5"
       sodipodi:cx="8.8551922"
       sodipodi:cy="15.418688"
       sodipodi:rx="2.4428117"
       sodipodi:ry="2.4428117"
       d="m 11.298004,15.418688 a 2.4428117,2.4428117 0 1 1 -0.02733,-0.364366"
       transform="matrix(1.3663134,0,0,1.3691959,189.71981,122.85246)"
       sodipodi:start="0"
       sodipodi:end="6.1334682"
       sodipodi:open="true" />
    <path
       sodipodi:type="arc"
       style="fill:#fff6d5;fill-opacity:1"
       id="path3083-4-6"
       sodipodi:cx="8.8551922"
       sodipodi:cy="15.418688"
       sodipodi:rx="2.4428117"
       sodipodi:ry="2.4428117"
       d="m 11.298004,15.418688 a 2.4428117,2.4428117 0 1 1 -0.02733,-0.364366"
       transform="matrix(1.3663134,0,0,1.3691959,203.0704,109.05562)"
       sodipodi:start="0"
       sodipodi:end="6.1334682"
       sodipodi:open="true" />
    <path
       sodipodi:type="arc"
       style="fill:#fff6d5;fill-opacity:1"
       id="path3083-4-1"
       sodipodi:cx="8.8551922"
       sodipodi:cy="15.418688"
       sodipodi:rx="2.4428117"
       sodipodi:ry="2.4428117"
       d="m 11.298004,15.418688 a 2.4428117,2.4428117 0 1 1 -0.02733,-0.364366"
       transform="matrix(1.3663134,0,0,1.3691959,198.89834,100.27582)"
       sodipodi:start="0"
       sodipodi:end="6.1334682"
       sodipodi:open="true" />
    <path
       sodipodi:type="arc"
       style="fill:#fff6d5;fill-opacity:1"
       id="path3083-4-1-6"
       sodipodi:cx="8.8551922"
       sodipodi:cy="15.418688"
       sodipodi:rx="2.4428117"
       sodipodi:ry="2.4428117"
       d="m 11.298004,15.418688 a 2.4428117,2.4428117 0 1 1 -0.02733,-0.364366"
       transform="matrix(1.3663134,0,0,1.3691959,203.90481,130.37801)"
       sodipodi:start="0"
       sodipodi:end="6.1334682"
       sodipodi:open="true" />
    <path
       sodipodi:type="arc"
       style="fill:#fff6d5;fill-opacity:1"
       id="path3083-4-1-1"
       sodipodi:cx="8.8551922"
       sodipodi:cy="15.418688"
       sodipodi:rx="2.4428117"
       sodipodi:ry="2.4428117"
       d="m 11.298004,15.418688 a 2.4428117,2.4428117 0 1 1 -0.02733,-0.364366"
       transform="matrix(1.3663134,0,0,1.3691959,173.03158,134.14078)"
       sodipodi:start="0"
       sodipodi:end="6.1334682"
       sodipodi:open="true" />
    <path
       sodipodi:type="arc"
       style="fill:#fff6d5;fill-opacity:1"
       id="path3083-4-1-5"
       sodipodi:cx="8.8551922"
       sodipodi:cy="15.418688"
       sodipodi:rx="2.4428117"
       sodipodi:ry="2.4428117"
       d="m 11.298004,15.418688 a 2.4428117,2.4428117 0 1 1 -0.02733,-0.364366"
       transform="matrix(1.3663134,0,0,1.3691959,165.10467,117.83543)"
       sodipodi:start="0"
       sodipodi:end="6.1334682"
       sodipodi:open="true" />
    <path
       sodipodi:type="arc"
       style="fill:#fff6d5;fill-opacity:1"
       id="path3083-4-1-8"
       sodipodi:cx="8.8551922"
       sodipodi:cy="15.418688"
       sodipodi:rx="2.4428117"
       sodipodi:ry="2.4428117"
       d="m 11.298004,15.418688 a 2.4428117,2.4428117 0 1 1 -0.02733,-0.364366"
       transform="matrix(1.3663134,0,0,1.3691959,176.36923,112.8184)"
       sodipodi:start="0"
       sodipodi:end="6.1334682"
       sodipodi:open="true" />
    <path
       sodipodi:type="arc"
       style="fill:#fff6d5;fill-opacity:1"
       id="path3083-4-1-7"
       sodipodi:cx="8.8551922"
       sodipodi:cy="15.418688"
       sodipodi:rx="2.4428117"
       sodipodi:ry="2.4428117"
       d="m 11.298004,15.418688 a 2.4428117,2.4428117 0 1 1 -0.02733,-0.364366"
       transform="matrix(1.3663134,0,0,1.3691959,157.59497,105.71094)"
       sodipodi:start="0"
       sodipodi:end="6.1334682"
       sodipodi:open="true" />
    <path
       sodipodi:type="arc"
       style="fill:#fff6d5;fill-opacity:1"
       id="path3083-4-1-61"
       sodipodi:cx="8.8551922"
       sodipodi:cy="15.418688"
       sodipodi:rx="2.4428117"
       sodipodi:ry="2.4428117"
       d="m 11.298004,15.418688 a 2.4428117,2.4428117 0 1 1 -0.02733,-0.364366"
       transform="matrix(1.3663134,0,0,1.3691959,183.04452,133.30461)"
       sodipodi:start="0"
       sodipodi:end="6.1334682"
       sodipodi:open="true" />
    <path
       sodipodi:type="arc"
       style="fill:#fff6d5;fill-opacity:1"
       id="path3083-4-1-0"
       sodipodi:cx="8.8551922"
       sodipodi:cy="15.418688"
       sodipodi:rx="2.4428117"
       sodipodi:ry="2.4428117"
       d="m 11.298004,15.418688 a 2.4428117,2.4428117 0 1 1 -0.02733,-0.364366"
       transform="matrix(1.3663134,0,0,1.3691959,165.10468,137.48547)"
       sodipodi:start="0"
       sodipodi:end="6.1334682"
       sodipodi:open="true" />
    <path
       sodipodi:type="arc"
       style="fill:#fff6d5;fill-opacity:1"
       id="path3083-4-1-4"
       sodipodi:cx="8.8551922"
       sodipodi:cy="15.418688"
       sodipodi:rx="2.4428117"
       sodipodi:ry="2.4428117"
       d="m 11.298004,15.418688 a 2.4428117,2.4428117 0 1 1 -0.02733,-0.364366"
       transform="matrix(1.3663134,0,0,1.3691959,166.35629,125.77906)"
       sodipodi:start="0"
       sodipodi:end="6.1334682"
       sodipodi:open="true" />
    <path
       sodipodi:type="arc"
       style="fill:#fff6d5;fill-opacity:1"
       id="path3083-5-9-9"
       sodipodi:cx="8.8551922"
       sodipodi:cy="15.418688"
       sodipodi:rx="2.4428117"
       sodipodi:ry="2.4428117"
       d="m 11.298004,15.418688 a 2.4428117,2.4428117 0 1 1 -0.02733,-0.364366"
       transform="matrix(0.68315676,0,0,0.77017272,193.68327,152.99292)"
       sodipodi:start="0"
       sodipodi:end="6.1334682"
       sodipodi:open="true" />
    <path
       sodipodi:type="arc"
       style="fill:#fff6d5;fill-opacity:1"
       id="path3083-5-9-6"
       sodipodi:cx="8.8551922"
       sodipodi:cy="15.418688"
       sodipodi:rx="2.4428117"
       sodipodi:ry="2.4428117"
       d="m 11.298004,15.418688 a 2.4428117,2.4428117 0 1 1 -0.02733,-0.364366"
       transform="matrix(0.68315676,0,0,0.77017272,191.59724,158.00994)"
       sodipodi:start="0"
       sodipodi:end="6.1334682"
       sodipodi:open="true" />
    <path
       sodipodi:type="arc"
       style="fill:#fff6d5;fill-opacity:1"
       id="path3083-5-9-6-4"
       sodipodi:cx="8.8551922"
       sodipodi:cy="15.418688"
       sodipodi:rx="2.4428117"
       sodipodi:ry="2.4428117"
       d="m 11.298004,15.418688 a 2.4428117,2.4428117 0 1 1 -0.02733,-0.364366"
       transform="matrix(0.68315676,0,0,0.77017272,197.85533,155.91951)"
       sodipodi:start="0"
       sodipodi:end="6.1334682"
       sodipodi:open="true" />
    <path
       sodipodi:type="arc"
       style="fill:#fff6d5;fill-opacity:1"
       id="path3083-5-9-6-4-5"
       sodipodi:cx="8.8551922"
       sodipodi:cy="15.418688"
       sodipodi:rx="2.4428117"
       sodipodi:ry="2.4428117"
       d="m 11.298004,15.418688 a 2.4428117,2.4428117 0 1 1 -0.02733,-0.364366"
       transform="matrix(0.68315676,0,0,0.77017272,153.63151,142.54077)"
       sodipodi:start="0"
       sodipodi:end="6.1334682"
       sodipodi:open="true" />
    <path
       sodipodi:type="arc"
       style="fill:#fff6d5;fill-opacity:1"
       id="path3083-5-9-6-4-5-8"
       sodipodi:cx="8.8551922"
       sodipodi:cy="15.418688"
       sodipodi:rx="2.4428117"
       sodipodi:ry="2.4428117"
       d="m 11.298004,15.418688 a 2.4428117,2.4428117 0 1 1 -0.02733,-0.364366"
       transform="matrix(0.68315676,0,0,0.77017272,162.39284,127.48967)"
       sodipodi:start="0"
       sodipodi:end="6.1334682"
       sodipodi:open="true" />
    <path
       sodipodi:type="arc"
       style="fill:#fff6d5;fill-opacity:1"
       id="path3083-5-9-6-4-5-8-7"
       sodipodi:cx="8.8551922"
       sodipodi:cy="15.418688"
       sodipodi:rx="2.4428117"
       sodipodi:ry="2.4428117"
       d="m 11.298004,15.418688 a 2.4428117,2.4428117 0 1 1 -0.02733,-0.364366"
       transform="matrix(0.68315676,0,0,0.77017272,182.0015,107.42154)"
       sodipodi:start="0"
       sodipodi:end="6.1334682"
       sodipodi:open="true" />
    <path
       sodipodi:type="arc"
       style="fill:#fff6d5;fill-opacity:1"
       id="path3083-5-9-6-4-5-8-7-5"
       sodipodi:cx="8.8551922"
       sodipodi:cy="15.418688"
       sodipodi:rx="2.4428117"
       sodipodi:ry="2.4428117"
       d="m 11.298004,15.418688 a 2.4428117,2.4428117 0 1 1 -0.02733,-0.364366"
       transform="matrix(0.68315676,0,0,0.77017272,166.9821,158.42803)"
       sodipodi:start="0"
       sodipodi:end="6.1334682"
       sodipodi:open="true" />
    <path
       sodipodi:type="arc"
       style="fill:#fff6d5;fill-opacity:1"
       id="path3083-5-9-6-4-5-8-7-5-8"
       sodipodi:cx="8.8551922"
       sodipodi:cy="15.418688"
       sodipodi:rx="2.4428117"
       sodipodi:ry="2.4428117"
       d="m 11.298004,15.418688 a 2.4428117,2.4428117 0 1 1 -0.02733,-0.364366"
       transform="matrix(0.68315676,0,0,0.77017272,174.07459,160.51846)"
       sodipodi:start="0"
       sodipodi:end="6.1334682"
       sodipodi:open="true" />
    <path
       sodipodi:type="arc"
       style="fill:#fff6d5;fill-opacity:1"
       id="path3083-5-9-6-4-5-8-7-5-6"
       sodipodi:cx="8.8551922"
       sodipodi:cy="15.418688"
       sodipodi:rx="2.4428117"
       sodipodi:ry="2.4428117"
       d="m 11.298004,15.418688 a 2.4428117,2.4428117 0 1 1 -0.02733,-0.364366"
       transform="matrix(0.68315676,0,0,0.77017272,182.83591,160.10038)"
       sodipodi:start="0"
       sodipodi:end="6.1334682"
       sodipodi:open="true" />
  </g>
</svg>
