<?xml version="1.0" encoding="UTF-8" standalone="no"?>
<!-- Created with Inkscape (http://www.inkscape.org/) -->

<svg
   xmlns:dc="http://purl.org/dc/elements/1.1/"
   xmlns:cc="http://creativecommons.org/ns#"
   xmlns:rdf="http://www.w3.org/1999/02/22-rdf-syntax-ns#"
   xmlns:svg="http://www.w3.org/2000/svg"
   xmlns="http://www.w3.org/2000/svg"
   xmlns:sodipodi="http://sodipodi.sourceforge.net/DTD/sodipodi-0.dtd"
   xmlns:inkscape="http://www.inkscape.org/namespaces/inkscape"
   width="45.000004"
   height="44.999992"
   id="svg2"
   version="1.1"
   inkscape:version="0.48.3.1 r9886"
   sodipodi:docname="empty_slot.svg">
  <defs
     id="defs4" />
  <sodipodi:namedview
     id="base"
     pagecolor="#ffffff"
     bordercolor="#666666"
     borderopacity="1.0"
     inkscape:pageopacity="0.0"
     inkscape:pageshadow="2"
     inkscape:zoom="1.4"
     inkscape:cx="117.44396"
     inkscape:cy="-30.548645"
     inkscape:document-units="px"
     inkscape:current-layer="layer1"
     showgrid="false"
     fit-margin-top="0"
     fit-margin-left="0"
     fit-margin-right="0"
     fit-margin-bottom="0"
     inkscape:window-width="1311"
     inkscape:window-height="744"
     inkscape:window-x="55"
     inkscape:window-y="24"
     inkscape:window-maximized="1" />
  <metadata
     id="metadata7">
    <rdf:RDF>
      <cc:Work
         rdf:about="">
        <dc:format>image/svg+xml</dc:format>
        <dc:type
           rdf:resource="http://purl.org/dc/dcmitype/StillImage" />
        <dc:title />
      </cc:Work>
    </rdf:RDF>
  </metadata>
  <g
     inkscape:label="Layer 1"
     inkscape:groupmode="layer"
     id="layer1"
     transform="translate(-311.15346,-335.58092)">
    <path
       inkscape:connector-curvature="0"
       d="m 324.37869,345.10182 c 0.25465,-3.00126 3.98621,-4.78013 5.81776,-5.98919 4.04529,-2.10846 8.61635,-2.92904 12.9874,-1.63321 0.93853,0.27823 1.82718,0.73713 2.74079,1.1057 0.842,0.54253 1.73071,1.00228 2.52604,1.62758 2.26212,1.77849 4.12915,4.24591 5.22469,7.10525 0.8855,2.31111 0.77682,2.93538 0.99008,5.36517 -0.093,0.86655 -0.1009,1.7501 -0.27904,2.59961 -0.57102,2.72335 -2.00436,5.11574 -3.83521,6.97408 -2.16458,2.19708 -4.73511,3.50517 -7.26972,5.12301 -1.02466,0.43518 -2.0255,0.94933 -3.074,1.30558 -4.12549,1.40174 -8.77499,1.76393 -12.85821,-0.0425 -0.93733,-0.41467 -1.78305,-1.05429 -2.67457,-1.58143 -0.74297,-0.71508 -1.56748,-1.33521 -2.22892,-2.14525 -1.90709,-2.33548 -3.00977,-5.39081 -3.05832,-8.55963 -0.0414,-2.70658 0.39071,-3.45164 1.13621,-5.9807 0.4826,-0.91484 0.88504,-1.88955 1.44778,-2.74451 1.83589,-2.78915 4.40283,-4.83218 7.0834,-6.46714 5.41212,-3.30101 4.03916,-2.59543 8.43382,-4.29037 0,0 -2.28412,2.00213 -2.28412,2.00213 l 0,0 c -0.99677,0.40242 -1.97235,0.87868 -2.99031,1.20726 -0.13614,0.0439 -0.28608,-0.1772 -0.41389,-0.10851 -2.75059,1.47937 -5.47822,3.72711 -7.37401,6.4362 -0.5893,0.8421 -1.01991,1.81048 -1.52987,2.71571 -0.8036,2.49014 -1.26126,3.19156 -1.22734,5.87863 0.0391,3.09905 1.17353,6.0632 3.09124,8.28263 0.67257,0.77839 1.50263,1.36248 2.25396,2.04371 0.90286,0.49115 1.76376,1.09505 2.70858,1.4734 4.08205,1.63467 8.72224,1.229 12.80392,-0.16292 1.00963,-0.34431 1.97306,-0.84113 2.95958,-1.26169 1.20761,-0.36372 0.78154,-0.18887 2.70701,-2.01918 1.912,-1.81747 3.50572,-4.16046 4.12894,-6.93134 0.18536,-0.82411 0.18633,-1.68718 0.27947,-2.53079 -0.2789,-2.37622 -0.18161,-2.91777 -1.12085,-5.15816 -1.16122,-2.76986 -3.06468,-5.14276 -5.30485,-6.86471 -0.78947,-0.60686 -1.66645,-1.05542 -2.49969,-1.58311 -0.90173,-0.35696 -1.78057,-0.7978 -2.70517,-1.07086 -4.13249,-1.22045 -8.48306,-0.61212 -12.35004,1.32427 -0.50844,-0.33103 -0.10168,-0.0814 -1.37406,1.06718 -0.90514,0.81708 -1.71916,1.81351 -2.09739,3.06748 0,0 -0.77109,0.4205 -0.77109,0.4205 z"
       id="path3081-1-2-1"
       style="fill:#000000"
       inkscape:export-filename="/home/sade/Desktop/net-game/images/maps/empty_slot.png"
       inkscape:export-xdpi="90"
       inkscape:export-ydpi="90" />
    <path
       inkscape:connector-curvature="0"
       d="m 317.52321,346.81817 c 0.32478,-4.09114 5.08434,-6.516 7.42042,-8.16411 5.1597,-2.87409 10.99003,-3.99266 16.56525,-2.22629 1.19707,0.37928 2.33055,1.00484 3.49582,1.50723 1.07398,0.73953 2.2075,1.36624 3.22194,2.21861 2.88526,2.42433 5.26664,5.78778 6.664,9.68545 1.12943,3.15036 0.9908,4.00134 1.26282,7.31349 -0.11851,1.18122 -0.12872,2.38559 -0.35591,3.54363 -0.72832,3.7123 -2.55653,6.97344 -4.89173,9.50661 -2.7609,2.99495 -6.03958,4.77804 -9.27243,6.98336 -1.30693,0.59324 -2.58349,1.2941 -3.92084,1.77972 -5.26201,1.91076 -11.19236,2.40449 -16.40044,-0.0578 -1.19554,-0.56522 -2.27422,-1.43713 -3.41135,-2.1557 -0.94765,-0.97476 -1.99929,-1.82009 -2.84298,-2.9243 -2.43244,-3.18357 -3.8389,-7.34841 -3.90082,-11.66794 -0.053,-3.68944 0.49835,-4.70507 1.44922,-8.15254 0.61555,-1.24704 1.12886,-2.5757 1.84663,-3.74113 2.34165,-3.80202 5.61572,-6.58694 9.03474,-8.81562 6.90307,-4.49974 5.15189,-3.53794 10.75721,-5.84838 0,0 -2.91335,2.7292 -2.91335,2.7292 l 0,0 c -1.27136,0.54853 -2.5157,1.19776 -3.8141,1.64565 -0.17366,0.0599 -0.3649,-0.24154 -0.52791,-0.14792 -3.50833,2.01659 -6.98739,5.08055 -9.40544,8.77342 -0.75164,1.14791 -1.30087,2.46792 -1.95132,3.7019 -1.02497,3.39441 -1.6087,4.35054 -1.56545,8.01338 0.0499,4.22446 1.49683,8.26498 3.94282,11.29038 0.85786,1.06104 1.9166,1.85725 2.87491,2.78587 1.15157,0.6695 2.24962,1.49269 3.45474,2.00845 5.20658,2.22828 11.12507,1.67529 16.33117,-0.22209 1.28778,-0.46934 2.51661,-1.14655 3.77491,-1.71985 1.54029,-0.49581 0.99687,-0.25748 3.45278,-2.75244 2.43868,-2.47744 4.47148,-5.67129 5.26638,-9.44835 0.23642,-1.1234 0.23765,-2.2999 0.35646,-3.44983 -0.35576,-3.23913 -0.23163,-3.97734 -1.42964,-7.03131 -1.48111,-3.7757 -3.90895,-7.01028 -6.76625,-9.35755 -1.00697,-0.8272 -2.12554,-1.43868 -3.18829,-2.15801 -1.15016,-0.48655 -2.2711,-1.0875 -3.45043,-1.45972 -5.27091,-1.66366 -10.81998,-0.83441 -15.75225,1.80514 -0.64852,-0.45122 -0.12965,-0.11078 -1.7526,1.45474 -1.15448,1.11378 -2.19276,2.47206 -2.67518,4.1814 0,0 -0.98351,0.57319 -0.98351,0.57319 z"
       id="path3081-5-3-3-6"
       style="fill:#000000" />
  </g>
</svg>
