<?xml version="1.0" encoding="UTF-8" standalone="no"?>
<!-- Created with Inkscape (http://www.inkscape.org/) -->

<svg
   xmlns:dc="http://purl.org/dc/elements/1.1/"
   xmlns:cc="http://creativecommons.org/ns#"
   xmlns:rdf="http://www.w3.org/1999/02/22-rdf-syntax-ns#"
   xmlns:svg="http://www.w3.org/2000/svg"
   xmlns="http://www.w3.org/2000/svg"
   xmlns:sodipodi="http://sodipodi.sourceforge.net/DTD/sodipodi-0.dtd"
   xmlns:inkscape="http://www.inkscape.org/namespaces/inkscape"
   width="60"
   height="60"
   id="svg2"
   version="1.1"
   inkscape:version="0.48.3.1 r9886"
   sodipodi:docname="empty_building_slot.svg">
  <defs
     id="defs4" />
  <sodipodi:namedview
     id="base"
     pagecolor="#ffffff"
     bordercolor="#666666"
     borderopacity="1.0"
     inkscape:pageopacity="0.0"
     inkscape:pageshadow="2"
     inkscape:zoom="0.35"
     inkscape:cx="176.95793"
     inkscape:cy="-123.86204"
     inkscape:document-units="px"
     inkscape:current-layer="layer1"
     showgrid="false"
     inkscape:window-width="1225"
     inkscape:window-height="663"
     inkscape:window-x="211"
     inkscape:window-y="76"
     inkscape:window-maximized="0"
     fit-margin-top="0"
     fit-margin-left="0"
     fit-margin-right="0"
     fit-margin-bottom="0" />
  <metadata
     id="metadata7">
    <rdf:RDF>
      <cc:Work
         rdf:about="">
        <dc:format>image/svg+xml</dc:format>
        <dc:type
           rdf:resource="http://purl.org/dc/dcmitype/StillImage" />
        <dc:title></dc:title>
      </cc:Work>
    </rdf:RDF>
  </metadata>
  <g
     inkscape:label="Layer 1"
     inkscape:groupmode="layer"
     id="layer1"
     transform="translate(-198.04207,-348.50014)">
    <path
       style="fill:#000000;fill-opacity:1"
       id="path3067"
       d="m 200.441,356.09606 c 0.6865,1.75294 1.16344,3.57636 1.54936,5.42734 0.3857,1.7908 -1.98388,2.37378 -2.3696,0.58298 l 0,0 c -0.38304,-1.71828 -0.87892,-3.4019 -1.26774,-5.1177 -0.59056,-1.57796 1.4974,-2.4706 2.08798,-0.89262 z"
       inkscape:connector-curvature="0"
       inkscape:export-filename="/home/sade/Desktop/net-game/images/maps/empty_building_slot.png"
       inkscape:export-xdpi="60"
       inkscape:export-ydpi="60" />
    <path
       style="fill:#000000;fill-opacity:1"
       id="path3069"
       d="m 201.09214,366.69954 c 0.45308,1.66574 0.56658,3.4062 0.65368,5.1297 0.016,1.49712 0.34924,2.9521 0.40062,4.44616 0.0562,1.76388 -2.2777,1.84892 -2.33396,0.085 l 0,0 c -0.0414,-1.47354 -0.4971,-2.90572 -0.4434,-4.39284 -0.0808,-1.57088 -0.1694,-3.14186 -0.42754,-4.69344 -0.38018,-1.6253 1.77042,-2.19992 2.1506,-0.57462 z"
       inkscape:connector-curvature="0"
       inkscape:export-filename="/home/sade/Desktop/net-game/images/maps/empty_building_slot.png"
       inkscape:export-xdpi="60"
       inkscape:export-ydpi="60" />
    <path
       style="fill:#000000;fill-opacity:1"
       id="path3071"
       d="m 201.79618,379.4914 c 0.30486,1.05356 0.40368,2.14092 0.73788,3.18338 0.40332,1.04866 0.39128,2.09672 0.109,3.17072 0.014,-0.0628 0.0262,-0.1256 0.0394,-0.1884 0.1532,1.63532 -2.01072,1.86688 -2.16392,0.23154 l 0,0 c -8e-4,-0.21008 -0.001,-0.42018 -0.002,-0.63028 0.1386,-0.66498 0.1514,-1.1445 -0.1268,-1.80114 -0.35292,-1.10836 -0.54988,-2.23986 -0.74428,-3.39112 -0.38018,-1.62528 1.77042,-2.19992 2.15058,-0.57462 z"
       inkscape:connector-curvature="0"
       inkscape:export-filename="/home/sade/Desktop/net-game/images/maps/empty_building_slot.png"
       inkscape:export-xdpi="60"
       inkscape:export-ydpi="60" />
    <path
       style="fill:#000000;fill-opacity:1"
       id="path3073"
       d="m 203.15156,391.06564 c 0.33208,1.27546 0.50068,2.5913 0.62384,3.90606 0.105,0.86942 0.0954,1.71764 0.029,2.58794 -0.1386,1.75796 -2.4648,1.54842 -2.32616,-0.20954 l 0,0 c 0.0592,-0.71442 0.0652,-1.42456 -0.012,-2.1394 -0.1216,-1.39284 -0.386,-2.75734 -0.52908,-4.14506 0,-1.67294 2.21366,-1.67294 2.21366,0 z"
       inkscape:connector-curvature="0"
       inkscape:export-filename="/home/sade/Desktop/net-game/images/maps/empty_building_slot.png"
       inkscape:export-xdpi="60"
       inkscape:export-ydpi="60" />
    <path
       style="fill:#000000;fill-opacity:1"
       id="path3077"
       d="m 202.50022,401.3128 c 0.32194,1.08326 0.47964,2.21148 0.57364,3.34056 0.008,0.1142 0.014,0.2283 0.0212,0.34244 0.1704,1.6564 -2.02132,1.91398 -2.19174,0.2576 l 0,0 c -0.016,-0.104 -0.0308,-0.20802 -0.0462,-0.31204 -0.1502,-1.02178 -0.29964,-2.04316 -0.5076,-3.05392 -0.38016,-1.62528 1.77042,-2.1999 2.1506,-0.57464 z"
       inkscape:connector-curvature="0"
       inkscape:export-filename="/home/sade/Desktop/net-game/images/maps/empty_building_slot.png"
       inkscape:export-xdpi="60"
       inkscape:export-ydpi="60" />
    <path
       style="fill:#000000;fill-opacity:1"
       id="path3079"
       d="m 206.17065,405.4481 c 1.25736,0.2665 2.54286,0.21322 3.79628,-0.0504 0.96744,-0.22982 0.4774,-0.1154 1.47018,-0.34298 1.61884,-0.37566 2.1159,2.07118 0.49708,2.44684 l 0,0 c -1.0093,0.2371 -0.49462,0.1156 -1.54406,0.3646 -1.57794,0.29286 -3.2094,0.41816 -4.75714,-0.1196 -1.5207,-0.40632 -0.98304,-2.70482 0.53766,-2.2985 z"
       inkscape:connector-curvature="0"
       inkscape:export-filename="/home/sade/Desktop/net-game/images/maps/empty_building_slot.png"
       inkscape:export-xdpi="60"
       inkscape:export-ydpi="60" />
    <path
       style="fill:#000000;fill-opacity:1"
       id="path3085"
       d="m 215.75839,406.07684 c 1.20674,-0.1126 2.4252,0.048 3.62474,-0.1374 0.83946,-0.155 0.42858,-0.079 1.23264,-0.22778 1.59766,-0.32862 2.03248,2.08624 0.43482,2.41486 l 0,0 c -0.88606,0.1992 -0.42502,0.1064 -1.38392,0.2737 -1.29684,0.1512 -2.60598,0.101 -3.90828,0.0426 -1.56528,0 -1.56528,-2.3659 0,-2.3659 z"
       inkscape:connector-curvature="0"
       inkscape:export-filename="/home/sade/Desktop/net-game/images/maps/empty_building_slot.png"
       inkscape:export-xdpi="60"
       inkscape:export-ydpi="60" />
    <path
       style="fill:#000000;fill-opacity:1"
       id="path3087"
       d="m 226.31901,404.57192 c 1.23254,-0.0572 2.46678,-0.055 3.70026,-0.059 1.08266,-0.014 2.16496,0.002 3.24598,0.0674 1.5544,0 1.5544,2.34942 0,2.34942 l 0,0 c -1.08102,0.0652 -2.16332,0.0822 -3.24598,0.0674 -1.23348,-0.004 -2.46772,-0.002 -3.70026,-0.059 -1.56528,0 -1.56528,-2.36592 0,-2.36592 z"
       inkscape:connector-curvature="0"
       inkscape:export-filename="/home/sade/Desktop/net-game/images/maps/empty_building_slot.png"
       inkscape:export-xdpi="60"
       inkscape:export-ydpi="60" />
    <path
       style="fill:#000000;fill-opacity:1"
       id="path3089"
       d="m 238.72293,404.51562 c 1.4784,-0.2301 2.95276,-0.46652 4.442,-0.60606 0.26126,-0.018 0.52252,-0.0368 0.78378,-0.0552 1.65194,-0.1198 1.81044,2.3771 0.1586,2.49688 l 0,0 c -0.24508,0.018 -0.49014,0.0366 -0.73522,0.055 -1.3692,0.1312 -2.7411,0.40062 -4.11142,0.40794 -1.5207,0.40632 -2.05834,-1.89218 -0.53764,-2.2985 z"
       inkscape:connector-curvature="0"
       inkscape:export-filename="/home/sade/Desktop/net-game/images/maps/empty_building_slot.png"
       inkscape:export-xdpi="60"
       inkscape:export-ydpi="60" />
    <path
       style="fill:#000000;fill-opacity:1"
       id="path3091"
       d="m 249.28355,405.26808 c 1.22764,-0.41992 2.51464,-0.56916 3.79534,-0.6536 0.62254,0.008 1.2013,-0.0468 1.79722,-0.22404 1.52372,-0.47708 2.15498,1.82598 0.63126,2.30306 l 0,0 c -0.73624,0.23786 -1.47796,0.36748 -2.24944,0.37108 -1.1515,0.1178 -2.30814,0.2139 -3.43674,0.502 -1.5207,0.40632 -2.05834,-1.89218 -0.53764,-2.2985 z"
       inkscape:connector-curvature="0"
       inkscape:export-filename="/home/sade/Desktop/net-game/images/maps/empty_building_slot.png"
       inkscape:export-xdpi="60"
       inkscape:export-ydpi="60" />
    <path
       style="fill:#000000;fill-opacity:1"
       id="path3067-4"
       d="m 254.62871,351.56406 c 0.6865,1.75298 1.16344,3.57638 1.54934,5.42734 0.38572,1.7908 -1.98388,2.3738 -2.36958,0.583 l 0,0 c -0.38304,-1.71828 -0.87892,-3.4019 -1.26774,-5.1177 -0.59058,-1.57796 1.4974,-2.4706 2.08798,-0.89264 z"
       inkscape:connector-curvature="0"
       inkscape:export-filename="/home/sade/Desktop/net-game/images/maps/empty_building_slot.png"
       inkscape:export-xdpi="60"
       inkscape:export-ydpi="60" />
    <path
       style="fill:#000000;fill-opacity:1"
       id="path3069-1"
       d="m 255.27983,362.16754 c 0.45308,1.66574 0.56658,3.40622 0.6537,5.12974 0.016,1.4971 0.34924,2.95208 0.40062,4.44612 0.0562,1.76388 -2.2777,1.84894 -2.33398,0.085 l 0,0 c -0.0414,-1.47354 -0.49708,-2.9057 -0.4434,-4.39282 -0.0808,-1.5709 -0.1694,-3.1419 -0.42754,-4.69348 -0.38016,-1.62528 1.77042,-2.19992 2.1506,-0.57462 z"
       inkscape:connector-curvature="0"
       inkscape:export-filename="/home/sade/Desktop/net-game/images/maps/empty_building_slot.png"
       inkscape:export-xdpi="60"
       inkscape:export-ydpi="60" />
    <path
       style="fill:#000000;fill-opacity:1"
       id="path3071-2"
       d="m 255.98387,374.9594 c 0.30486,1.05358 0.4037,2.14094 0.73788,3.18338 0.40332,1.04868 0.3913,2.09672 0.109,3.17074 0.014,-0.0628 0.0262,-0.1256 0.0394,-0.1884 0.1532,1.63536 -2.01072,1.8669 -2.1639,0.23156 l 0,0 c -8e-4,-0.2101 -0.001,-0.4202 -0.002,-0.63028 0.1386,-0.66498 0.1514,-1.14452 -0.1268,-1.80114 -0.35292,-1.10838 -0.54988,-2.23988 -0.7443,-3.39112 -0.38016,-1.6253 1.77044,-2.19992 2.1506,-0.57464 z"
       inkscape:connector-curvature="0"
       inkscape:export-filename="/home/sade/Desktop/net-game/images/maps/empty_building_slot.png"
       inkscape:export-xdpi="60"
       inkscape:export-ydpi="60" />
    <path
       style="fill:#000000;fill-opacity:1"
       id="path3073-8"
       d="m 257.33927,386.53366 c 0.33208,1.27544 0.50068,2.59128 0.62382,3.90606 0.105,0.8694 0.0954,1.71764 0.029,2.58792 -0.1386,1.75796 -2.4648,1.54842 -2.32616,-0.20954 l 0,0 c 0.0592,-0.7144 0.0652,-1.42454 -0.012,-2.1394 -0.1216,-1.39284 -0.386,-2.75734 -0.52908,-4.14504 0,-1.67294 2.21366,-1.67294 2.21366,0 z"
       inkscape:connector-curvature="0"
       inkscape:export-filename="/home/sade/Desktop/net-game/images/maps/empty_building_slot.png"
       inkscape:export-xdpi="60"
       inkscape:export-ydpi="60" />
    <path
       style="fill:#000000;fill-opacity:1"
       id="path3077-3"
       d="m 256.68791,396.78084 c 0.32196,1.08326 0.47966,2.21146 0.57366,3.34054 0.008,0.1142 0.014,0.2283 0.0212,0.34244 0.1704,1.65638 -2.02134,1.91398 -2.19174,0.2576 l 0,0 c -0.016,-0.104 -0.0308,-0.20802 -0.0462,-0.31202 -0.1502,-1.0218 -0.29962,-2.04318 -0.50758,-3.05394 -0.38018,-1.6253 1.77042,-2.19992 2.1506,-0.57462 z"
       inkscape:connector-curvature="0"
       inkscape:export-filename="/home/sade/Desktop/net-game/images/maps/empty_building_slot.png"
       inkscape:export-xdpi="60"
       inkscape:export-ydpi="60" />
    <path
       style="fill:#000000;fill-opacity:1"
       id="path3079-6"
       d="m 199.48636,350.09806 c 1.25738,0.2665 2.54286,0.21322 3.79628,-0.0504 0.96745,-0.22982 0.4774,-0.1154 1.47021,-0.34298 1.61882,-0.37566 2.1159,2.07118 0.49706,2.44684 l 0,0 c -1.0093,0.2371 -0.49462,0.1156 -1.54407,0.3646 -1.57792,0.29286 -3.2094,0.41818 -4.75714,-0.1196 -1.5207,-0.40632 -0.98304,-2.70482 0.53766,-2.2985 z"
       inkscape:connector-curvature="0"
       inkscape:export-filename="/home/sade/Desktop/net-game/images/maps/empty_building_slot.png"
       inkscape:export-xdpi="60"
       inkscape:export-ydpi="60" />
    <path
       style="fill:#000000;fill-opacity:1"
       id="path3085-6"
       d="m 209.07411,350.72682 c 1.20674,-0.1126 2.4252,0.048 3.62474,-0.1374 0.83946,-0.155 0.42858,-0.079 1.23264,-0.22778 1.59766,-0.32862 2.0325,2.08622 0.43482,2.41484 l 0,0 c -0.88606,0.1992 -0.42502,0.1064 -1.38392,0.2737 -1.29684,0.1512 -2.60598,0.101 -3.90828,0.0426 -1.56528,0 -1.56528,-2.36592 0,-2.36592 z"
       inkscape:connector-curvature="0"
       inkscape:export-filename="/home/sade/Desktop/net-game/images/maps/empty_building_slot.png"
       inkscape:export-xdpi="60"
       inkscape:export-ydpi="60" />
    <path
       style="fill:#000000;fill-opacity:1"
       id="path3087-6"
       d="m 219.63473,349.22188 c 1.23254,-0.0572 2.4668,-0.055 3.70026,-0.059 1.08268,-0.014 2.16496,0.002 3.246,0.0674 1.55438,0 1.55438,2.34944 0,2.34944 l 0,0 c -1.08104,0.0652 -2.16332,0.0822 -3.246,0.0674 -1.23346,-0.004 -2.46772,-0.002 -3.70026,-0.059 -1.56528,0 -1.56528,-2.36592 0,-2.36592 z"
       inkscape:connector-curvature="0"
       inkscape:export-filename="/home/sade/Desktop/net-game/images/maps/empty_building_slot.png"
       inkscape:export-xdpi="60"
       inkscape:export-ydpi="60" />
    <path
       style="fill:#000000;fill-opacity:1"
       id="path3089-2"
       d="m 232.03865,349.16558 c 1.4784,-0.23008 2.95276,-0.4665 4.442,-0.60606 0.26126,-0.018 0.52252,-0.0368 0.78378,-0.0552 1.65194,-0.1198 1.81044,2.3771 0.1584,2.49688 l 0,0 c -0.24506,0.018 -0.49014,0.0366 -0.7352,0.055 -1.3692,0.1312 -2.7411,0.40062 -4.11144,0.40794 -1.5207,0.40634 -2.05834,-1.89218 -0.53764,-2.2985 z"
       inkscape:connector-curvature="0"
       inkscape:export-filename="/home/sade/Desktop/net-game/images/maps/empty_building_slot.png"
       inkscape:export-xdpi="60"
       inkscape:export-ydpi="60" />
    <path
       style="fill:#000000;fill-opacity:1"
       id="path3091-2"
       d="m 242.59927,349.91804 c 1.22764,-0.4199 2.51464,-0.56916 3.79534,-0.6536 0.62254,0.008 1.20132,-0.0468 1.79722,-0.22404 1.52372,-0.47708 2.15498,1.826 0.63126,2.30306 l 0,0 c -0.73622,0.23786 -1.47796,0.36748 -2.24944,0.3711 -1.15148,0.1178 -2.30814,0.21388 -3.43674,0.50198 -1.5207,0.40634 -2.05834,-1.89218 -0.53764,-2.2985 z"
       inkscape:connector-curvature="0"
       inkscape:export-filename="/home/sade/Desktop/net-game/images/maps/empty_building_slot.png"
       inkscape:export-xdpi="60"
       inkscape:export-ydpi="60" />
  </g>
</svg>
