<?xml version="1.0" encoding="UTF-8" standalone="no"?>
<!-- Created with Inkscape (http://www.inkscape.org/) -->

<svg
   xmlns:dc="http://purl.org/dc/elements/1.1/"
   xmlns:cc="http://creativecommons.org/ns#"
   xmlns:rdf="http://www.w3.org/1999/02/22-rdf-syntax-ns#"
   xmlns:svg="http://www.w3.org/2000/svg"
   xmlns="http://www.w3.org/2000/svg"
   xmlns:sodipodi="http://sodipodi.sourceforge.net/DTD/sodipodi-0.dtd"
   xmlns:inkscape="http://www.inkscape.org/namespaces/inkscape"
   width="744.09448819"
   height="1052.3622047"
   id="svg2995"
   version="1.1"
   inkscape:version="0.48.3.1 r9886"
   sodipodi:docname="New document 1">
  <defs
     id="defs2997" />
  <sodipodi:namedview
     id="base"
     pagecolor="#ffffff"
     bordercolor="#666666"
     borderopacity="1.0"
     inkscape:pageopacity="0.0"
     inkscape:pageshadow="2"
     inkscape:zoom="0.88631416"
     inkscape:cx="332.79215"
     inkscape:cy="203.9218"
     inkscape:document-units="px"
     inkscape:current-layer="layer1"
     showgrid="false"
     inkscape:window-width="1311"
     inkscape:window-height="744"
     inkscape:window-x="55"
     inkscape:window-y="24"
     inkscape:window-maximized="1" />
  <metadata
     id="metadata3000">
    <rdf:RDF>
      <cc:Work
         rdf:about="">
        <dc:format>image/svg+xml</dc:format>
        <dc:type
           rdf:resource="http://purl.org/dc/dcmitype/StillImage" />
        <dc:title></dc:title>
      </cc:Work>
    </rdf:RDF>
  </metadata>
  <g
     inkscape:label="Layer 1"
     inkscape:groupmode="layer"
     id="layer1">
    <path
       style="fill:#000000;fill-opacity:1"
       id="path3032"
       d="m 255.69802,811.26228 c -0.19644,-1.12141 -0.39646,-2.12154 0.074,-3.19524 0.66241,-1.07738 1.93041,-1.39117 3.09613,-1.67407 1.80667,-0.32551 3.65142,-0.33367 5.48175,-0.35988 6.75798,-0.006 13.58517,-0.71998 20.28372,0.19871 1.14879,0.15755 2.27567,0.46791 3.41442,0.68312 2.65378,0.50311 5.2565,1.21842 7.88478,1.83125 2.63148,0.602 5.17626,1.50899 7.67794,2.50562 2.16952,0.9134 4.31398,1.89324 6.39024,3.00006 1.84157,1.09667 3.52274,2.39967 5.14853,3.7843 1.60344,1.35382 2.95096,2.95046 4.35486,4.49624 1.67173,1.73485 3.01725,3.73583 4.29035,5.76598 1.53448,2.18049 2.60105,4.62916 3.73493,7.02508 1.38675,2.82724 2.34016,5.81259 3.15996,8.84014 0.76825,2.52546 1.09879,5.13403 1.48166,7.73281 0.33138,2.04299 0.46195,4.10748 0.53425,6.1729 0.0477,1.88069 0.0707,3.76138 0.0654,5.64262 0.0376,1.85074 -0.21904,3.6868 -0.51327,5.50902 -0.27416,1.76298 -0.53531,3.53282 -0.99849,5.25814 -0.4777,1.65616 -1.05691,3.28074 -1.70491,4.87834 -0.99187,2.09572 -2.08924,4.14054 -3.15633,6.19922 -0.97666,2.14288 -2.23546,4.10374 -3.67832,5.96238 -1.54167,1.81401 -3.07275,3.63383 -4.52354,5.52031 -1.27523,1.92686 -2.91587,3.52646 -4.64369,5.04734 -2.06942,1.79281 -4.15791,3.56553 -6.13279,5.46101 -1.06552,1.18223 -2.28158,2.17773 -3.55318,3.12939 -1.73641,1.24536 -3.39868,2.58352 -5.17487,3.77454 -1.19208,0.88831 -2.56509,1.44678 -3.90195,2.06772 -1.32264,0.58787 -2.74696,0.91262 -4.12346,1.3576 -2.40725,0.84702 -4.80255,1.7259 -7.21951,2.546 -2.63503,0.85832 -5.32044,1.54715 -8.01178,2.20626 -1.85979,0.43593 -3.69305,0.97403 -5.56327,1.36552 -1.28406,0.27628 -2.59658,0.31636 -3.90487,0.33455 -7.69667,0.0763 -15.39316,-0.002 -23.08969,-0.0186 -2.31116,0.014 -4.62002,-0.30839 -6.87392,-0.80009 -0.35931,-0.10311 -0.72864,-0.17669 -1.07794,-0.30936 -0.58203,-0.22106 -1.41557,-0.71376 -1.96775,-0.99998 -0.86009,-0.44584 -1.72221,-0.86383 -2.5636,-1.34492 -1.72077,-1.09066 -3.23581,-2.45941 -4.7941,-3.7601 -2.39038,-1.91611 -4.68359,-3.94637 -7.09905,-5.83246 -1.42384,-1.2027 -2.98492,-2.26869 -4.30992,-3.58522 -0.64239,-0.63828 -1.22042,-1.33719 -1.83976,-1.99746 -1.9879,-2.43109 -3.71106,-5.06424 -5.41182,-7.69725 -1.26823,-1.89992 -2.38037,-3.92015 -3.34586,-5.98843 -1.08105,-2.17014 -2.02629,-4.39689 -2.91552,-6.64987 -0.67054,-2.00206 -1.10197,-4.07585 -1.31265,-6.17304 -0.17991,-2.33165 -0.16855,-4.6741 -0.19849,-7.01145 -0.0254,-2.10468 -0.0304,-4.20954 -0.0334,-6.31437 0.0221,-1.97106 0.16165,-3.95226 0.40252,-5.90966 0.17478,-1.76519 0.76261,-3.45514 1.45432,-5.08004 0.82822,-1.90689 1.87899,-3.70553 2.80696,-5.56518 0.82265,-1.75428 1.83006,-3.40535 2.91361,-5.01051 1.13046,-1.72012 2.20507,-3.47228 3.3613,-5.17588 1.05041,-1.7127 2.20573,-3.34753 3.50385,-4.88363 1.24679,-1.50642 2.62146,-2.90101 3.85339,-4.41947 0.88076,-1.10888 1.884,-2.11075 2.9033,-3.09299 1.22243,-1.07598 2.4317,-2.16779 3.69284,-3.19937 1.20799,-0.9899 2.39833,-1.99922 3.6151,-2.97865 0.92979,-0.85699 2.01434,-1.4902 3.08161,-2.15042 0.82379,-0.54023 1.78131,-0.7837 2.70024,-1.12366 1.28566,-0.54246 2.46561,-1.29213 3.71749,-1.90691 1.06297,-0.51837 2.10133,-1.0748 3.14603,-1.62552 1.11118,-0.48199 2.26558,-0.85605 3.38643,-1.313 1.18463,-0.48326 2.39938,-0.87763 3.60177,-1.31285 1.17185,-0.35438 2.38582,-0.54824 3.58537,-0.80018 1.29939,-0.24808 2.6237,-0.28763 3.94256,-0.3181 7.14516,-0.10574 14.29523,0.37159 21.43573,0.0699 1.51296,0.32526 3.06647,0.26989 4.59095,0.49606 1.68874,0.24019 3.39236,0.34458 5.09597,0.40501 0.78653,0.024 1.57329,0.0115 2.35981,-0.003 -5.77451,-7.9e-4 -11.54902,-0.002 -17.32351,-0.002 -0.10305,0 0.20598,0.002 0.30898,0.002 0.27895,4e-4 0.55845,-0.007 0.83735,-0.003 5.9536,0.092 11.90715,0.18795 17.86072,0.28193 0.59353,0.53165 0.42469,1.2757 0.30951,1.9794 0,0 -17.80319,-0.53541 -17.80319,-0.53541 l 0,0 c 0.0781,0.34111 0.24102,0.75918 -0.1867,0.86611 45.55437,0.43106 -0.67019,-0.0396 -1.60035,0.16735 -0.73436,-0.0196 -1.46784,-0.0591 -2.19995,-0.12026 -1.65107,-0.13775 -3.29635,-0.3266 -4.94328,-0.50529 -1.5748,-0.0915 -3.14549,-0.29945 -4.72165,-0.3019 -8.92851,-0.42944 24.10411,-0.0397 13.37161,-0.0883 -1.28968,0.002 -2.58152,-0.009 -3.86851,0.0851 -1.20195,0.1045 -2.32975,0.50153 -3.53533,0.56123 -1.23115,0.28176 -2.42282,0.74036 -3.60514,1.17307 -1.12622,0.40296 -2.23504,0.85758 -3.34759,1.2954 -1.15151,0.30338 -2.08177,1.03187 -3.19628,1.44962 -1.23591,0.66098 -2.5495,1.16983 -3.68186,2.00858 -0.85083,0.44772 -1.69021,0.82904 -2.63452,1.00136 -0.61356,0.27996 -0.30367,0.11466 -0.92378,0.50656 -0.17176,0.0852 -0.3647,0.12192 -0.53916,0.20159 -0.62927,0.28736 -1.14257,0.74133 -1.73088,1.09568 -1.21107,0.99397 -2.44477,1.95698 -3.62765,2.98456 -1.25751,0.99904 -2.47051,2.04441 -3.68525,3.09473 -1.0329,0.8828 -1.91654,1.91485 -2.85073,2.8976 -1.35516,1.45103 -2.75152,2.86865 -4.02659,4.38758 -1.27073,1.47419 -2.42761,3.01991 -3.44042,4.68072 -1.12369,1.72539 -2.35658,3.38165 -3.37695,5.1765 -1.0263,1.56369 -2.04377,3.13182 -2.89679,4.79794 -0.9165,1.83116 -1.98313,3.59158 -2.77009,5.48248 -0.66598,1.45684 -1.1387,3.02481 -1.42998,4.59619 -0.27269,1.8796 -0.43012,3.78592 -0.44687,5.68426 -0.009,2.10082 -0.0267,4.20158 -0.0409,6.30238 -0.004,2.27609 0.009,4.55552 0.25552,6.82147 0.26292,1.94646 0.63679,3.8831 1.24661,5.75489 0.81166,2.24346 1.84942,4.37525 2.96087,6.48671 1.00794,1.95512 1.94895,3.94972 3.13162,5.81007 1.61905,2.58534 3.29115,5.16698 5.43976,7.35977 1.88166,1.93024 3.91557,3.69158 6.03152,5.36732 2.39418,1.97542 4.77755,3.96547 7.26672,5.82375 1.57327,1.23343 3.1511,2.48332 4.91971,3.43609 1.73435,0.90498 3.46547,1.8626 5.4425,2.11763 2.25882,0.34246 4.53004,0.56797 6.81957,0.48851 1.09249,4.4e-4 2.18499,7.9e-4 3.27748,-0.002 0.3253,-4.4e-4 1.30121,-0.003 0.9759,-0.003 -20.16792,-0.005 -21.82033,-0.008 -15.71488,-2.8e-4 1.29047,0.002 2.58433,0.0385 3.87164,-0.0699 1.97519,-0.2194 3.87871,-0.72467 5.80692,-1.18247 2.6911,-0.67367 5.41635,-1.21885 8.055,-2.0871 2.37695,-0.70599 4.69191,-1.59697 6.98941,-2.52394 1.28692,-0.48834 2.57523,-0.99399 3.92345,-1.26917 0.38348,-0.14759 0.74578,-0.346 1.12989,-0.49192 1.00108,-0.38029 2.04179,-0.66032 2.95209,-1.25827 1.79593,-1.10049 3.53837,-2.24948 5.10021,-3.67024 1.27468,-0.91862 2.53054,-1.87674 3.67156,-2.95653 2.12341,-1.75599 4.17623,-3.60087 6.20715,-5.46082 1.63913,-1.45434 3.2905,-2.90634 4.54297,-4.71868 1.44419,-1.90553 2.9947,-3.73026 4.5456,-5.55088 1.42428,-1.75565 2.75654,-3.55049 3.65982,-5.63572 1.04266,-1.99672 2.12207,-3.97853 3.04064,-6.03539 0.61458,-1.55021 1.13622,-3.13408 1.63688,-4.72233 0.54115,-1.6249 0.77295,-3.3426 1.05069,-5.0261 0.26369,-1.73479 0.52549,-3.48425 0.50302,-5.24246 -0.005,-1.86136 0.0224,-3.72294 -0.0274,-5.58384 -0.0667,-2.00784 -0.19081,-4.01354 -0.47045,-6.00489 -0.30322,-2.52725 -0.53503,-5.06963 -1.27184,-7.52266 -0.76093,-2.94616 -1.79573,-5.80447 -3.20506,-8.51271 -1.15777,-2.33763 -2.29624,-4.6888 -3.82468,-6.81956 -1.27586,-1.95665 -2.6954,-3.80372 -4.3408,-5.474 -1.36871,-1.51196 -2.80416,-2.96317 -4.38841,-4.25668 -1.57177,-1.2956 -3.24296,-2.47366 -5.06115,-3.40992 -2.0487,-1.02877 -4.13319,-1.99197 -6.27316,-2.82091 -2.47718,-0.91947 -4.99705,-1.72128 -7.58204,-2.29059 -2.63374,-0.65769 -5.28625,-1.22776 -7.95493,-1.72925 -1.15798,-0.21187 -2.29844,-0.40104 -3.47384,-0.48756 -0.35696,-0.0263 -1.42989,-0.0614 -1.07195,-0.0632 1.78201,-0.009 22.57022,-0.0118 15.26839,-0.0107 -1.77013,0.005 -3.54203,0.003 -5.30952,0.11109 -0.37673,0.0302 -0.87315,0.0597 -1.25141,0.12656 -0.16991,0.03 -0.33581,0.0791 -0.50372,0.11867 -0.14348,0.0437 -0.28268,0.10484 -0.43042,0.13116 -0.19374,0.0345 -0.39613,-0.0219 -0.59044,0.009 -0.10044,0.006 -0.23872,-0.0841 -0.30195,-0.006 -0.25988,0.31905 0.18323,1.15234 0.23609,1.48073 0,0 -17.75173,0.56608 -17.75173,0.56608 z"
       inkscape:connector-curvature="0"
       inkscape:export-filename="/home/sade/Desktop/comps/images/maps/transtimer.png"
       inkscape:export-xdpi="90"
       inkscape:export-ydpi="90" />
    <path
       style="fill:#000000;fill-opacity:1"
       id="path3097"
       d="m 264.17543,846.13187 c 0.70632,3.75154 1.34571,7.51365 1.87659,11.2906 0.63356,5.44614 1.19173,10.89913 1.99275,16.32645 0,0 -13.98694,0.15483 -13.98694,0.15483 l 0,0 c -0.56294,-5.43118 -0.93797,-10.88266 -1.78239,-16.28527 -0.68696,-3.74619 -1.41299,-7.52757 -2.83151,-11.1006 0,0 14.7315,-0.38601 14.7315,-0.38601 z"
       inkscape:connector-curvature="0"
       inkscape:export-filename="/home/sade/Desktop/comps/images/maps/transtimer.png"
       inkscape:export-xdpi="90"
       inkscape:export-ydpi="90" />
    <path
       style="fill:#000000;fill-opacity:1"
       id="path3097-0"
       d="m 283.43846,879.20445 c -3.97506,-0.56522 -7.93673,-1.17972 -11.87439,-1.87344 -5.63076,-1.09159 -11.24139,-2.23725 -16.91327,-3.20769 0,0 4.84025,-9.71898 4.84025,-9.71898 l 0,0 c 5.59069,1.13624 11.13445,2.40816 16.79729,3.34165 3.96285,0.57711 7.97458,1.1371 12.02679,1.15952 0,0 -4.87667,10.29894 -4.87667,10.29894 z"
       inkscape:connector-curvature="0"
       inkscape:export-filename="/home/sade/Desktop/comps/images/maps/transtimer.png"
       inkscape:export-xdpi="90"
       inkscape:export-ydpi="90" />
  </g>
</svg>
