<?xml version="1.0" encoding="UTF-8" standalone="no"?>
<!-- Created with Inkscape (http://www.inkscape.org/) -->

<svg
   xmlns:dc="http://purl.org/dc/elements/1.1/"
   xmlns:cc="http://creativecommons.org/ns#"
   xmlns:rdf="http://www.w3.org/1999/02/22-rdf-syntax-ns#"
   xmlns:svg="http://www.w3.org/2000/svg"
   xmlns="http://www.w3.org/2000/svg"
   xmlns:sodipodi="http://sodipodi.sourceforge.net/DTD/sodipodi-0.dtd"
   xmlns:inkscape="http://www.inkscape.org/namespaces/inkscape"
   width="29"
   height="28.999994"
   id="svg2"
   version="1.1"
   inkscape:version="0.48.3.1 r9886"
   sodipodi:docname="contructor.svg">
  <defs
     id="defs4" />
  <sodipodi:namedview
     id="base"
     pagecolor="#ffffff"
     bordercolor="#666666"
     borderopacity="1.0"
     inkscape:pageopacity="0.0"
     inkscape:pageshadow="2"
     inkscape:zoom="10.24"
     inkscape:cx="44.614588"
     inkscape:cy="12.670771"
     inkscape:document-units="px"
     inkscape:current-layer="layer1"
     showgrid="false"
     showguides="true"
     inkscape:guide-bbox="true"
     fit-margin-top="0"
     fit-margin-left="0"
     fit-margin-right="0"
     fit-margin-bottom="0"
     inkscape:window-width="1311"
     inkscape:window-height="744"
     inkscape:window-x="55"
     inkscape:window-y="24"
     inkscape:window-maximized="1" />
  <metadata
     id="metadata7">
    <rdf:RDF>
      <cc:Work
         rdf:about="">
        <dc:format>image/svg+xml</dc:format>
        <dc:type
           rdf:resource="http://purl.org/dc/dcmitype/StillImage" />
        <dc:title></dc:title>
      </cc:Work>
    </rdf:RDF>
  </metadata>
  <g
     inkscape:label="Layer 1"
     inkscape:groupmode="layer"
     id="layer1"
     transform="translate(-152.67438,-668.59106)">
    <path
       style="fill:#ffd42a;fill-opacity:1"
       d="m 164.14382,694.6338 c -1.45364,-1.62739 -4.62893,-4.81227 -7.05621,-7.07754 -2.42728,-2.26528 -4.41323,-4.21078 -4.41323,-4.32333 0,-0.25633 6.89738,-7.82534 10.68183,-11.72198 l 2.83584,-2.9199 4.95357,5.04159 c 2.72447,2.77288 6.20799,6.37372 7.74117,8.00187 l 2.78759,2.96028 -2.81783,2.16134 c -1.54981,1.18873 -4.88751,4.11252 -7.41711,6.49731 -2.52961,2.38479 -4.61129,4.33672 -4.62597,4.33761 -0.0147,8.7e-4 -1.21602,-1.32987 -2.66965,-2.95725 l 0,0 z"
       id="path5917"
       inkscape:connector-curvature="0"
       inkscape:export-filename="/home/sade/Desktop/net-game/images/troops/constructor.png"
       inkscape:export-xdpi="90"
       inkscape:export-ydpi="90" />
    <path
       style="fill:#ffffff"
       id="path5212-5"
       d="m 1301.8679,182.50083 c 1.1952,-1.01491 2.519,-2.69902 4.3838,-2.558 1.5705,0.11877 3.8003,2.17594 4.6748,3.02694 2.7886,2.71367 4.0978,4.69691 6.5197,7.8625 7.0033,10.30175 12.0598,21.85844 15.2556,33.88891 0.6427,2.41972 1.1225,4.87983 1.6838,7.31975 1.1158,6.08447 1.5689,12.25147 1.0538,18.42089 -0.1277,1.53007 -0.2752,3.0645 -0.5776,4.5698 -0.238,1.18421 -0.6921,2.31448 -1.0382,3.47172 11.3718,23.7677 -22.2408,39.84981 -33.6126,16.08212 l 0,0 c -3.4886,-1.9843 -4.613,-2.40548 -7.7722,-5.20535 -5.41,-4.79455 -9.7731,-10.60709 -13.4468,-16.80087 -3.5233,-7.0188 -4.823,-8.97732 -7.3128,-16.58294 -2.9171,-8.9108 -4.5662,-18.32343 -4.4616,-27.71666 0.031,-2.77822 0.426,-5.54045 0.6389,-8.31067 0.4079,-2.50718 0.6938,-5.03726 1.2235,-7.52155 1.8837,-8.83469 5.558,-17.27338 11.2919,-24.27726 10.1333,-15.19997 31.6293,-0.8693 21.496,14.33067 z"
       inkscape:connector-curvature="0" />
    <path
       style="fill:#000000;fill-opacity:1"
       id="path5837-1"
       d="m 154.02137,683.50082 c 0.7124,-1.16324 1.60077,-2.2162 2.47727,-3.2684 1.25251,-1.56684 2.66339,-3.00498 4.04519,-4.46593 1.2079,-1.25732 2.46784,-2.47196 3.76168,-3.64895 0.6108,-0.55289 1.27543,-1.04584 1.86946,-1.61534 0.68622,-0.67105 0.59677,-0.32804 1.44302,0.43721 -0.12089,0.94368 -1.51875,0.78046 -1.39786,-0.16321 l 0,0 c 0.30335,0.20673 0.57091,0.47264 0.91006,0.62018 0.13344,0.0581 0.43101,-0.37785 0.18832,-0.011 -0.50847,0.70691 -1.16842,1.28651 -1.79382,1.89709 -1.20979,1.21404 -2.39219,2.455 -3.57942,3.68888 -1.36062,1.44588 -2.74963,2.86866 -4.03726,4.37562 -0.91999,1.0167 -1.81018,2.05838 -2.74308,3.06343 -0.67385,0.77201 -1.81741,-0.1378 -1.14356,-0.90979 z"
       inkscape:connector-curvature="0"
       inkscape:export-filename="/home/sade/Desktop/net-game/images/troops/constructor.png"
       inkscape:export-xdpi="90"
       inkscape:export-ydpi="90" />
    <path
       style="fill:#000000;fill-opacity:1"
       id="path5837-6-8"
       d="m 166.87878,670.76405 c 1.15314,0.77697 2.17618,1.71191 3.19944,2.63548 1.52825,1.32518 2.90865,2.79003 4.31535,4.22917 1.20904,1.25632 2.36909,2.5585 3.48695,3.88971 0.52486,0.62822 0.98257,1.30251 1.52619,1.9162 0.64173,0.71002 0.2914,0.59566 -0.57947,1.33531 -0.97451,-0.19557 -0.68483,-1.51131 0.28967,-1.31575 l 0,0 c -0.24164,0.27091 -0.54199,0.50271 -0.72493,0.81273 -0.072,0.12197 0.35753,0.44224 -0.005,0.18005 -0.69433,-0.54402 -1.24287,-1.22128 -1.82669,-1.8683 -1.1637,-1.25442 -2.35784,-2.48509 -3.54418,-3.71976 -1.39278,-1.41769 -2.75902,-2.86042 -4.22178,-4.2139 -0.98251,-0.96192 -1.99361,-1.89762 -2.96286,-2.87082 -0.74813,-0.7069 0.29898,-1.717 1.04711,-1.01012 z"
       inkscape:connector-curvature="0"
       inkscape:transform-center-y="4.1536738"
       inkscape:transform-center-x="9.8611888e-05"
       inkscape:export-filename="/home/sade/Desktop/net-game/images/troops/constructor.png"
       inkscape:export-xdpi="90"
       inkscape:export-ydpi="90" />
    <path
       style="fill:#000000;fill-opacity:1"
       id="path5837-8-0"
       d="m 166.50912,694.87156 c 0.74205,-1.00172 1.62125,-1.88027 2.49023,-2.7595 1.24912,-1.31537 2.61824,-2.49246 3.96524,-3.69418 1.17518,-1.03206 2.38974,-2.0183 3.62883,-2.96555 0.58463,-0.44462 1.20817,-0.82714 1.78044,-1.28916 0.6626,-0.54602 0.54657,-0.23669 1.17882,0.57447 -0.21254,0.86552 -1.3847,0.55164 -1.17215,-0.31389 l 0,0 c 0.23449,0.22778 0.4316,0.50658 0.70346,0.68335 0.10696,0.0695 0.41112,-0.30229 0.16172,0.0122 -0.51531,0.60001 -1.14493,1.06384 -1.7487,1.56053 -1.17176,0.99151 -2.32331,2.01125 -3.47816,3.02386 -1.32719,1.19012 -2.6759,2.35542 -3.94799,3.61092 -0.90193,0.84113 -1.78136,1.70895 -2.69294,2.53772 -0.66379,0.64153 -1.53259,-0.33876 -0.8688,-0.98029 z"
       inkscape:connector-curvature="0"
       inkscape:export-filename="/home/sade/Desktop/net-game/images/troops/constructor.png"
       inkscape:export-xdpi="90"
       inkscape:export-ydpi="90" />
    <path
       style="fill:#000000;fill-opacity:1"
       id="path5837-6-4-5"
       d="m 155.37692,682.94861 c 1.08672,0.70617 2.05083,1.55593 3.01515,2.39535 1.44022,1.20444 2.7411,2.53581 4.06678,3.84383 1.13939,1.14185 2.23261,2.32539 3.28609,3.53531 0.49463,0.57096 0.92597,1.18383 1.43827,1.74159 0.60476,0.64533 0.27462,0.54139 -0.54609,1.21364 -0.91837,-0.17774 -0.64538,-1.3736 0.27299,-1.19585 l 0,0 c -0.22773,0.24622 -0.51077,0.4569 -0.68318,0.73866 -0.0678,0.11084 0.33695,0.40195 -0.005,0.16365 -0.65434,-0.49444 -1.17129,-1.10999 -1.72147,-1.69805 -1.09668,-1.14013 -2.22202,-2.25868 -3.34003,-3.38084 -1.31254,-1.28852 -2.60009,-2.5998 -3.9786,-3.82996 -0.92591,-0.87427 -1.87877,-1.72472 -2.79219,-2.60925 -0.70504,-0.64248 0.28176,-1.56055 0.9868,-0.91808 z"
       inkscape:connector-curvature="0"
       inkscape:transform-center-y="3.7752104"
       inkscape:transform-center-x="0.00022836528"
       inkscape:export-filename="/home/sade/Desktop/net-game/images/troops/constructor.png"
       inkscape:export-xdpi="90"
       inkscape:export-ydpi="90" />
    <path
       style="fill:#000000;fill-opacity:1"
       id="path5978"
       d="m 164.36692,682.68601 c 1.08756,0.15714 2.06008,0.63689 3.01218,1.09918 1.42068,0.70647 2.70206,1.59363 3.91099,2.55209 0.52152,0.42044 0.27366,0.22149 0.74328,0.59714 0.46072,0.32882 -0.0676,0.90225 -0.52837,0.57344 l 0,0 c -0.52773,-0.3366 -0.25477,-0.15688 -0.81705,-0.5413 -1.23321,-0.85171 -2.49605,-1.67114 -3.82079,-2.41023 -0.58699,-0.31981 -1.1699,-0.64735 -1.77856,-0.93492 -0.72918,-0.34451 -0.0998,-0.035 -0.69359,-0.29977 -0.0466,-0.0208 -0.0902,-0.0465 -0.13524,-0.0699 -0.45462,-0.0667 -0.34747,-0.63252 0.10715,-0.56584 z"
       inkscape:connector-curvature="0"
       inkscape:export-filename="/home/sade/Desktop/net-game/images/troops/constructor.png"
       inkscape:export-xdpi="90"
       inkscape:export-ydpi="90" />
    <path
       style="fill:#000000;fill-opacity:1"
       id="path5978-5"
       d="m 164.99526,681.67393 c 1.08755,0.15715 2.06007,0.63689 3.01218,1.09918 1.42067,0.70649 2.70206,1.59363 3.91098,2.55211 0.52152,0.42042 0.27367,0.22147 0.74328,0.59713 0.46073,0.32882 -0.0676,0.90225 -0.52836,0.57344 l 0,0 c -0.52773,-0.3366 -0.25478,-0.15687 -0.81705,-0.54129 -1.23321,-0.85172 -2.49606,-1.67116 -3.8208,-2.41024 -0.58699,-0.31981 -1.1699,-0.64735 -1.77856,-0.93493 -0.72918,-0.34451 -0.0998,-0.035 -0.69358,-0.29975 -0.0466,-0.0208 -0.0902,-0.0465 -0.13525,-0.0699 -0.45462,-0.0667 -0.34746,-0.63253 0.10716,-0.56584 z"
       inkscape:connector-curvature="0"
       inkscape:export-filename="/home/sade/Desktop/net-game/images/troops/constructor.png"
       inkscape:export-xdpi="90"
       inkscape:export-ydpi="90" />
    <path
       style="fill:#000000;fill-opacity:1"
       id="path6302"
       d="m 164.41832,677.71209 c 0.18601,0.17905 0.33719,0.38884 0.46247,0.60472 0.0958,0.11928 0.10896,0.29666 0.20963,0.41163 0.0779,0.10949 0.12809,0.22972 0.15583,0.35602 0.0169,0.0836 0.0733,0.16488 0.12096,0.24906 0.0798,0.14167 0.1222,0.29489 0.1393,0.45156 0.0777,0.10105 0.0699,0.23911 0.0427,0.3531 4.7e-4,-0.0953 -0.0221,0.0881 -0.0189,0.0657 0.005,-0.0326 -0.002,-0.13066 0.004,-0.0982 0.0262,0.14361 0.0241,0.0745 0.0153,0.19788 -0.0235,0.0635 -0.0263,0.12699 -0.032,0.19263 -0.001,0.074 -0.006,0.14759 -0.007,0.22151 -0.0209,0.10484 -0.0726,0.19668 -0.10949,0.2958 -1.2e-4,0.006 -0.001,0.022 -4.1e-4,0.0166 0.004,-0.0284 -0.0136,-0.11133 0.001,-0.0859 0.0586,0.1002 0.0317,0.0467 0.0597,0.2074 -0.008,0.0842 -0.0471,0.16162 -0.0628,0.24318 -8.9e-4,0.009 -0.007,0.14592 -0.006,0.12953 0.004,-0.0528 -0.009,-0.0664 0.0161,-0.0176 0.0368,0.12426 0.0212,0.25038 -0.0122,0.37332 -0.002,0.007 -0.005,0.0155 -0.007,0.0232 -0.0826,0.37822 -0.69036,0.27542 -0.60776,-0.10276 l 0,0 c 5.9e-4,-0.006 0.001,-0.011 0.002,-0.0172 0.002,-0.0204 0.006,-0.1509 0.0285,-0.0834 -0.0483,-0.13104 -0.062,-0.26013 -0.0326,-0.39553 0.002,-0.0122 0.0708,-0.29022 0.057,-0.15856 0.0823,0.25953 -0.11817,-0.20321 -0.0416,-0.27835 0.0113,-0.0413 0.13242,-0.36323 0.0889,-0.15162 -0.001,-0.0866 -0.003,-0.1735 0.005,-0.25986 0.006,-0.0779 0.0183,-0.15578 0.0429,-0.23108 0.051,0.2489 -0.0544,-0.14311 0.006,-0.20884 0.0929,0.19337 -0.0844,-0.12112 -0.0644,-0.16623 -0.015,-0.0905 -0.0345,-0.17784 -0.0827,-0.26027 -0.0675,-0.1172 -0.12338,-0.24246 -0.15106,-0.37096 -0.0285,-0.0712 -0.0541,-0.14151 -0.10226,-0.20498 -0.0851,-0.13469 -0.16332,-0.27309 -0.23588,-0.41361 -0.1246,-0.17978 -0.25734,-0.35471 -0.39318,-0.52809 -0.28896,-0.31789 0.22185,-0.67753 0.51081,-0.35965 z"
       inkscape:connector-curvature="0"
       inkscape:export-filename="/home/sade/Desktop/net-game/images/troops/constructor.png"
       inkscape:export-xdpi="90"
       inkscape:export-ydpi="90" />
    <path
       style="fill:#000000;fill-opacity:1"
       id="path6304"
       d="m 164.47934,683.01837 c -0.18448,0.16433 -0.37886,0.31471 -0.60905,0.42732 -0.17417,0.0636 -0.35245,0.12185 -0.53336,0.17015 -0.12919,0.0143 -0.24171,0.0434 -0.36159,0.0822 -0.11291,0.0464 -0.24182,0.08 -0.34968,0.13558 -0.14144,0.0656 -0.29211,0.10791 -0.44828,0.13504 -0.12383,-7.7e-4 -0.22789,0.0253 -0.34286,0.0544 -0.16553,0.0595 -0.32675,0.0399 -0.49562,0.006 -0.13298,-0.0257 -0.26355,-0.048 -0.38793,-0.0995 -0.11603,-0.0818 -0.23865,-0.15024 -0.36259,-0.22216 -0.071,-0.0432 -0.15484,-0.12619 -0.22588,-0.1484 -0.0358,-0.0181 -0.0733,-0.0336 -0.10725,-0.0542 -0.0632,-0.0383 -0.11001,-0.0948 -0.14894,-0.1517 -0.0153,-0.0223 -0.0245,-0.0473 -0.0346,-0.0718 -0.007,-0.0179 -0.0388,-0.059 -0.0178,-0.0547 0.0221,0.005 0.0162,0.0373 0.0244,0.056 -0.0353,-0.0466 -0.0365,-0.0316 -0.0982,-0.0752 -0.0964,-0.0894 -0.0462,-0.5396 0.18688,-0.5265 0.43961,-0.006 0.449,0.54132 0.009,0.54715 l 0,0 c -0.24228,0.0259 -0.0935,-0.65053 0.13251,-0.48397 0.10908,0.0531 0.21869,0.12013 0.27907,0.21911 0.12058,0.19551 0.0803,0.0974 -0.0107,0.0738 0.12568,0.0401 0.25996,0.10264 0.35177,0.19037 0.0133,0.007 0.42377,0.24461 0.29663,0.19819 0.0701,0.0313 0.19329,0.0333 0.28752,0.0633 0.0266,0.007 0.15186,0.0411 -0.005,0.0306 -0.0138,-9.3e-4 0.12109,-0.0237 0.13486,-0.0356 0.14014,-0.041 0.28149,-0.0667 0.42896,-0.0678 0.10031,-0.007 0.1815,-0.0648 0.27396,-0.0948 0.13784,-0.0549 0.27901,-0.10142 0.41755,-0.15599 0.12973,-0.0371 0.2576,-0.075 0.39253,-0.0941 0.12848,-0.0308 0.24838,-0.0872 0.37625,-0.11879 0.19185,-0.11537 0.34599,-0.26942 0.53846,-0.38382 0.3612,-0.25431 0.76986,0.19526 0.40866,0.44957 z"
       inkscape:connector-curvature="0"
       inkscape:export-filename="/home/sade/Desktop/net-game/images/troops/constructor.png"
       inkscape:export-xdpi="90"
       inkscape:export-ydpi="90" />
    <path
       style="fill:#000000;fill-opacity:1"
       id="path6306"
       d="m 160.9828,681.07311 c 0.28926,0.16757 0.56046,0.35691 0.85097,0.52274 0.20869,0.12677 0.40978,0.26108 0.60763,0.40042 0.34528,0.1757 0.33323,0.13799 -0.29621,0.18276 0.0352,-0.11818 0.11073,-0.22277 0.15843,-0.33724 0.051,-0.13764 0.1447,-0.25764 0.22829,-0.38106 0.11662,-0.20213 0.23232,-0.4014 0.39197,-0.58002 0.13914,-0.14184 0.28225,-0.28139 0.42574,-0.42011 0.0386,-0.0845 0.15673,-0.1428 0.19877,-0.20934 0.25705,-0.2536 0.0201,-0.0735 0.0402,0.037 0.0654,0.10876 -0.0233,0.0223 -0.0749,-0.0165 -0.23404,-0.21164 -0.43899,-0.44811 -0.62871,-0.69125 -0.12188,-0.12425 -0.19822,-0.28535 -0.33137,-0.39668 -0.0821,-0.034 -0.051,-0.0148 -0.20094,-0.0557 -0.08,-0.0492 -0.16884,-0.0807 -0.2528,-0.13283 -0.1173,-0.0729 -0.18486,-0.18018 -0.22384,-0.29835 -0.0658,-0.2339 0.0554,-0.15892 0.418,-0.3754 0.0573,-0.0153 0.1496,-0.0568 0.21645,-0.0982 0.1908,-0.13818 0.38675,-0.27038 0.58051,-0.40543 0.11736,-0.0812 0.24761,-0.1444 0.36398,-0.22653 0.0491,-0.0356 0.0872,-0.0809 0.1332,-0.12002 0.0125,-0.011 0.0258,-0.0207 0.0389,-0.0308 0.29594,-0.27865 0.74371,0.0897 0.44777,0.36835 l 0,0 c -0.0102,0.0122 -0.0203,0.0239 -0.0312,0.0352 -0.049,0.0517 -0.10487,0.0971 -0.15213,0.15017 -0.1174,0.10828 -0.26049,0.18668 -0.38547,0.28766 -0.21848,0.15041 -0.424,0.31592 -0.66079,0.44472 -0.22899,0.10717 -0.46727,0.1845 -0.72892,0.12722 0.29394,-0.23942 0.35532,-0.16882 0.34649,-0.32787 0.0386,0.0603 -0.0653,-0.0388 0.006,0.0187 0.0181,0.0122 0.25151,0.1367 0.14878,0.085 -0.247,-0.0389 0.2556,0.0247 0.29424,0.0831 0.2222,0.13945 0.37885,0.32747 0.54439,0.51647 0.17255,0.2132 0.35105,0.42271 0.51519,0.64099 0.0867,0.0888 0.18351,0.17618 0.21991,0.29225 0.019,0.0752 0.0349,0.1607 -9.1e-4,0.23533 -0.025,0.052 -0.12591,0.19604 -0.10234,0.14351 0.003,-0.007 0.007,-0.0143 0.0112,-0.0214 -0.0713,0.11341 -0.17655,0.20237 -0.25547,0.31136 -0.1286,0.14225 -0.26461,0.27876 -0.39361,0.42046 -0.14996,0.15944 -0.2428,0.35042 -0.37001,0.52349 -0.0634,0.0772 -0.14404,0.15207 -0.16997,0.24453 -0.0419,0.11769 -0.10979,0.22281 -0.16153,0.33263 -0.1853,0.0432 -0.37759,0.0677 -0.5559,0.12955 -0.0467,0.0163 0.0638,0.0407 0.0688,0.0571 0.005,0.0179 -0.20376,-0.0909 -0.19426,-0.0779 -0.20497,-0.11439 -0.40725,-0.23145 -0.61395,-0.34373 -0.31104,-0.17407 -0.61126,-0.37252 -0.87937,-0.59479 -0.3612,-0.25431 0.0474,-0.70387 0.40865,-0.44957 z"
       inkscape:connector-curvature="0"
       inkscape:export-filename="/home/sade/Desktop/net-game/images/troops/constructor.png"
       inkscape:export-xdpi="90"
       inkscape:export-ydpi="90" />
    <path
       style="fill:#000000;fill-opacity:1"
       id="path6308"
       d="m 161.19865,681.02528 c -0.11219,0.28042 -0.2249,0.55871 -0.30294,0.84819 -0.0826,0.31507 -0.17588,0.62868 -0.29578,0.93447 -0.0651,0.13291 -0.12197,0.26875 -0.18906,0.40095 -0.0392,0.0949 -0.10832,0.17244 -0.19125,0.24025 -0.30121,0.27632 -0.74522,-0.0986 -0.44402,-0.37489 l 0,0 c 0.01,-0.0128 0.0532,-0.0788 0.038,-0.0295 0.0334,-0.14474 0.0838,-0.2854 0.13697,-0.42534 0.10231,-0.29078 0.17153,-0.5905 0.25839,-0.88507 0.0857,-0.33623 0.2101,-0.66601 0.40258,-0.96746 0.20758,-0.36537 0.79469,-0.10705 0.58712,0.25836 z"
       inkscape:connector-curvature="0"
       inkscape:export-filename="/home/sade/Desktop/net-game/images/troops/constructor.png"
       inkscape:export-xdpi="90"
       inkscape:export-ydpi="90" />
    <path
       style="fill:#000000;fill-opacity:1"
       id="path6310"
       d="m 172.71594,686.15859 c -0.0876,0.19524 -0.17978,0.38968 -0.23051,0.59531 -0.0361,0.12826 -0.039,0.26101 -0.0542,0.39197 -0.002,0.0225 -0.005,0.0449 -0.01,0.067 0.0172,0.38087 -0.59485,0.40222 -0.61201,0.0214 l 0,0 c -0.005,-0.0325 -0.01,-0.0651 -0.0118,-0.0979 -0.0104,-0.16815 0.003,-0.33577 0.0325,-0.50215 0.0616,-0.27047 0.14766,-0.54054 0.32878,-0.76995 0.23645,-0.34684 0.79377,-0.0526 0.55732,0.29429 z"
       inkscape:connector-curvature="0"
       inkscape:export-filename="/home/sade/Desktop/net-game/images/troops/constructor.png"
       inkscape:export-xdpi="90"
       inkscape:export-ydpi="90" />
    <path
       style="fill:#000000;fill-opacity:1"
       d="m 166.63588,683.37034 c -0.36721,-0.17065 -0.94078,-0.3909 -1.27461,-0.48945 -0.33383,-0.0985 -0.6932,-0.24509 -0.7986,-0.32569 -0.25646,-0.19608 -0.30821,-0.18842 -0.75724,0.11206 -0.4206,0.28145 -1.77505,0.72965 -2.20496,0.72965 -0.35188,0 -0.91277,-0.32817 -0.91277,-0.53406 0,-0.0893 0.0622,-0.34494 0.13818,-0.5682 l 0.13819,-0.40591 0.59854,0.35475 c 0.51943,0.30786 0.64273,0.34007 0.9329,0.24366 0.1839,-0.061 0.40395,-0.24941 0.48899,-0.4185 0.085,-0.16909 0.39513,-0.58902 0.68909,-0.93318 0.29395,-0.34415 0.53446,-0.74173 0.53446,-0.88351 0,-0.1493 -0.25228,-0.53332 -0.59946,-0.9125 l -0.59946,-0.65473 0.40927,-0.27474 c 0.2251,-0.15111 0.43206,-0.27473 0.45991,-0.27473 0.0279,0 0.23634,0.32183 0.46332,0.71519 0.44571,0.77244 0.50851,1.29173 0.32361,2.67591 l -0.0891,0.66681 0.63533,0.28131 c 0.77177,0.34171 2.27412,1.11795 2.27412,1.17499 0,0.0877 -0.20629,0.0199 -0.84974,-0.27912 z"
       id="path6312"
       inkscape:connector-curvature="0"
       inkscape:export-filename="/home/sade/Desktop/net-game/images/troops/constructor.png"
       inkscape:export-xdpi="90"
       inkscape:export-ydpi="90" />
    <path
       style="fill:#000000;fill-opacity:1"
       d="m 161.20361,683.19336 c -0.40529,-0.175 -0.45046,-0.29814 -0.32,-0.87221 l 0.0745,-0.32791 0.63992,0.31784 c 0.53427,0.26537 0.68732,0.29874 0.92697,0.20214 0.37868,-0.15264 1.68304,-1.90573 1.68304,-2.26203 0,-0.1591 -0.22988,-0.55106 -0.5421,-0.92434 l -0.54211,-0.64809 0.34637,-0.21706 c 0.39461,-0.2473 0.41966,-0.23218 0.87489,0.52823 0.26382,0.44067 0.28628,0.597 0.26933,1.87484 l -0.0185,1.39408 0.7703,0.36586 c 1.02127,0.48506 0.88509,0.56096 -0.18729,0.10436 l -0.84562,-0.36004 -0.88204,0.38311 c -0.48512,0.21071 -1.0186,0.41574 -1.18551,0.45564 -0.16691,0.0399 -0.38542,0.0913 -0.48557,0.11426 -0.10015,0.0229 -0.35962,-0.035 -0.57661,-0.12865 z"
       id="path6314"
       inkscape:connector-curvature="0"
       inkscape:export-filename="/home/sade/Desktop/net-game/images/troops/constructor.png"
       inkscape:export-xdpi="90"
       inkscape:export-ydpi="90" />
    <path
       style="fill:#000000;fill-opacity:1"
       d="m 171.00597,686.04109 c -0.36721,-0.29005 -0.62434,-0.5289 -0.5714,-0.53077 0.18684,-0.006 1.4177,0.87658 1.35202,0.97011 -0.0869,0.12379 -0.0201,0.16139 -0.78062,-0.43934 z"
       id="path6316"
       inkscape:connector-curvature="0"
       inkscape:export-filename="/home/sade/Desktop/net-game/images/troops/constructor.png"
       inkscape:export-xdpi="90"
       inkscape:export-ydpi="90" />
    <path
       style="fill:#000000;fill-opacity:1"
       d=""
       id="path6318"
       inkscape:connector-curvature="0" />
    <path
       style="fill:#000000;fill-opacity:1"
       d=""
       id="path6320"
       inkscape:connector-curvature="0" />
    <path
       style="fill:#000000;fill-opacity:1"
       d=""
       id="path6322"
       inkscape:connector-curvature="0" />
    <path
       style="fill:#000000;fill-opacity:1"
       d=""
       id="path6324"
       inkscape:connector-curvature="0" />
    <path
       style="fill:#000000;fill-opacity:1"
       d=""
       id="path6326"
       inkscape:connector-curvature="0" />
    <path
       style="fill:#000000;fill-opacity:1"
       d=""
       id="path6328"
       inkscape:connector-curvature="0" />
    <path
       style="fill:#000000;fill-opacity:1"
       d=""
       id="path6330"
       inkscape:connector-curvature="0" />
    <path
       style="fill:#000000;fill-opacity:1"
       d="m 170.45971,686.72445 c -1.64037,-1.0903 -3.18884,-2.02668 -4.43079,-2.67936 -1.56213,-0.82095 -1.81342,-0.92016 -1.99485,-0.78764 -0.0861,0.0629 -0.64087,0.26202 -1.23282,0.44255 -1.18326,0.36082 -1.53245,0.35513 -2.15411,-0.0351 -0.21137,-0.13268 -0.49356,-0.24125 -0.62709,-0.24125 -0.1544,0 -0.2268,-0.0584 -0.19888,-0.16025 0.20705,-0.75574 0.6338,-2.03926 0.75739,-2.27798 0.17825,-0.3443 0.53401,-0.34196 0.53401,0.004 0,0.15635 0.19615,0.35512 0.60059,0.60857 l 0.60058,0.37639 0.34569,-0.55635 c 0.19013,-0.30599 0.4851,-0.68441 0.65549,-0.84093 l 0.3098,-0.28459 -0.51044,-0.57089 c -0.28075,-0.314 -0.63466,-0.62955 -0.78647,-0.70122 -0.43119,-0.20359 -0.4646,-0.43397 -0.0882,-0.6081 0.1813,-0.0839 0.62342,-0.3468 0.98247,-0.58424 l 0.65283,-0.43173 0.40901,0.33953 c 0.47124,0.3912 1.15927,1.74595 1.17702,2.31758 0.006,0.20862 -0.0263,0.64372 -0.0728,0.9669 -0.0465,0.32318 -0.0443,0.64073 0.005,0.70566 0.0492,0.065 0.3038,0.17958 0.5657,0.25476 1.26207,0.36229 3.37064,1.5313 5.28992,2.93277 1.65082,1.20546 1.61987,1.1671 1.32827,1.64593 -0.12966,0.21291 -0.23575,0.49039 -0.23575,0.61661 0,0.19614 -0.28517,0.3639 -0.60696,0.35705 -0.0334,-7e-4 -0.60695,-0.36437 -1.27461,-0.80813 z m 1.46058,-0.15993 c 0.0947,-0.26271 0.19754,-0.17189 -1.35188,-1.19413 -1.564,-1.03187 -3.72462,-2.28159 -4.94327,-2.85925 -0.85957,-0.40744 -0.943,-0.47501 -0.87611,-0.70958 0.0407,-0.14259 0.10557,-0.64426 0.14423,-1.11481 0.0772,-0.93908 -0.0727,-1.4465 -0.68365,-2.31474 l -0.32204,-0.45765 -0.47707,0.33337 c -0.26238,0.18336 -0.49407,0.34818 -0.51485,0.36628 -0.0208,0.0181 0.23868,0.3664 0.57661,0.77401 0.33792,0.40762 0.61387,0.80931 0.61322,0.89266 -6.5e-4,0.0833 -0.18118,0.35076 -0.40119,0.59428 -0.22,0.24351 -0.53357,0.66591 -0.69682,0.93866 -0.39535,0.66055 -0.70215,0.72361 -1.40356,0.28849 -0.29652,-0.18395 -0.58317,-0.33445 -0.637,-0.33445 -0.0538,0 -0.18252,0.26769 -0.28599,0.59486 -0.18258,0.57731 -0.18048,0.60126 0.0711,0.81153 0.53103,0.4439 0.84632,0.44801 2.20146,0.0286 0.33383,-0.10325 0.7771,-0.30093 0.98506,-0.43916 0.33313,-0.22145 0.39625,-0.23209 0.53077,-0.0894 0.084,0.0891 0.24643,0.1619 0.36102,0.1619 0.33765,0 2.5994,1.0161 3.67961,1.65308 0.54927,0.3239 1.49031,0.97031 2.0912,1.43648 0.60089,0.46617 1.12981,0.85114 1.17539,0.85547 0.0456,0.005 0.11928,-0.0931 0.1638,-0.21653 l 0,0 z"
       id="path6332"
       inkscape:connector-curvature="0"
       inkscape:export-filename="/home/sade/Desktop/net-game/images/troops/constructor.png"
       inkscape:export-xdpi="90"
       inkscape:export-ydpi="90" />
    <path
       style="fill:#000000;fill-opacity:1"
       d="m 170.45971,686.72357 c -1.55565,-1.04101 -3.74146,-2.33608 -5.09921,-3.02125 -0.87395,-0.44102 -1.10772,-0.5172 -1.3038,-0.42485 -0.1314,0.0619 -0.70979,0.25612 -1.28531,0.43163 -1.12542,0.34319 -1.50871,0.34193 -2.06515,-0.007 -0.17886,-0.11206 -0.46105,-0.22179 -0.62709,-0.24379 -0.19232,-0.0254 -0.28595,-0.0973 -0.25798,-0.19771 0.22446,-0.80631 0.63438,-2.03783 0.75739,-2.27544 0.1853,-0.35791 0.51875,-0.33732 0.57215,0.0354 0.0252,0.17587 0.22927,0.38229 0.6014,0.60836 l 0.56324,0.34218 0.34489,-0.55505 c 0.18968,-0.30528 0.48429,-0.68311 0.65468,-0.83965 l 0.3098,-0.28458 -0.51044,-0.57089 c -0.28075,-0.314 -0.63466,-0.62956 -0.78647,-0.70122 -0.43119,-0.20359 -0.4646,-0.43397 -0.0882,-0.60811 0.1813,-0.0839 0.62675,-0.34897 0.98988,-0.5891 l 0.66023,-0.43659 0.35236,0.29446 c 0.41833,0.34958 0.70892,0.8235 1.04782,1.70887 0.21416,0.5595 0.23382,0.7598 0.13948,1.42101 -0.0604,0.42333 -0.0839,0.82907 -0.0523,0.90166 0.0316,0.0725 0.28684,0.19234 0.5671,0.26614 1.19121,0.31368 3.35276,1.50958 5.30453,2.93478 1.65083,1.20546 1.61987,1.16711 1.32827,1.64594 -0.12966,0.21291 -0.23574,0.49039 -0.23574,0.61661 0,0.1964 -0.26571,0.35371 -0.60696,0.35935 -0.0334,5.8e-4 -0.60696,-0.36454 -1.27461,-0.81132 l 0,0 z m 1.51553,-0.31181 c 0.004,-0.25771 -4.48683,-3.01607 -6.35083,-3.90051 -0.81612,-0.38724 -0.94069,-0.48319 -0.87958,-0.67748 0.0392,-0.12451 0.10312,-0.65905 0.14213,-1.18789 l 0.0709,-0.96152 -0.50463,-0.88277 -0.50463,-0.88278 -0.53794,0.34 c -0.29587,0.187 -0.53794,0.35486 -0.53794,0.37303 0,0.0182 0.27313,0.36251 0.60695,0.76516 0.33383,0.40268 0.60696,0.78646 0.60696,0.85284 0,0.10436 -1.11525,1.64676 -1.46446,2.0253 -0.19759,0.21418 -0.52693,0.15638 -1.0655,-0.18698 -0.2765,-0.17628 -0.55134,-0.3205 -0.61076,-0.3205 -0.11418,0 -0.38229,0.81497 -0.37582,1.14238 0.005,0.27585 0.58306,0.60984 1.03518,0.59857 0.52062,-0.013 1.84798,-0.44215 2.3132,-0.74792 0.33326,-0.21902 0.3962,-0.22929 0.53077,-0.0866 0.084,0.0891 0.24643,0.1619 0.36102,0.1619 0.31236,0 2.5393,0.98495 3.54391,1.56743 0.48528,0.28137 1.45335,0.93522 2.15127,1.45301 1.21847,0.90398 1.46233,0.99611 1.46977,0.55531 l 0,0 z"
       id="path6334"
       inkscape:connector-curvature="0"
       inkscape:export-filename="/home/sade/Desktop/net-game/images/troops/constructor.png"
       inkscape:export-xdpi="90"
       inkscape:export-ydpi="90" />
    <path
       style="fill:#000000;fill-opacity:1"
       d="m 170.09531,686.50196 c -1.62898,-1.06835 -3.72144,-2.29789 -4.95334,-2.91061 -0.78928,-0.39257 -0.76064,-0.39378 -2.31873,0.0984 -1.17262,0.37035 -1.54571,0.37068 -2.13415,0.002 -0.18829,-0.11806 -0.44772,-0.21455 -0.57651,-0.21455 -0.12879,0 -0.26217,-0.0247 -0.29642,-0.0548 -0.0673,-0.0592 0.38571,-1.52688 0.70206,-2.27459 0.21148,-0.49987 0.56282,-0.58701 0.63263,-0.1569 0.038,0.23391 0.84651,0.88375 1.09959,0.88375 0.0725,0 0.2425,-0.19097 0.3778,-0.42438 0.1353,-0.2334 0.41416,-0.59293 0.6197,-0.79895 l 0.3737,-0.3746 -0.4254,-0.45635 c -0.23398,-0.25101 -0.63464,-0.61929 -0.89037,-0.81841 -0.43438,-0.33825 -0.44971,-0.36985 -0.23319,-0.48076 0.12747,-0.0653 0.58538,-0.34997 1.01756,-0.63261 l 0.7858,-0.5139 0.36456,0.30022 c 0.38426,0.31645 0.94762,1.29075 1.162,2.0096 0.0795,0.26659 0.0902,0.68858 0.0284,1.12178 -0.11859,0.83189 -0.0324,1.01115 0.5666,1.17922 1.19003,0.33386 3.34233,1.53382 5.25111,2.92765 1.65083,1.20544 1.61987,1.16709 1.32827,1.64593 -0.12966,0.2129 -0.23574,0.49038 -0.23574,0.61661 0,0.19653 -0.26156,0.35152 -0.60719,0.35979 -0.0335,8.1e-4 -0.77095,-0.46421 -1.63878,-1.03337 l 0,0 z m 1.85151,-0.0423 c 0.0543,-0.27034 -3.93785,-2.76834 -6.20234,-3.88095 -0.90403,-0.44419 -1.05783,-0.5587 -1.00447,-0.74786 0.0346,-0.12285 0.0984,-0.65605 0.14172,-1.18489 l 0.0787,-0.96152 -0.50619,-0.88328 -0.5062,-0.88327 -0.32522,0.21389 c -0.84244,0.55408 -0.82864,0.43842 -0.14997,1.25706 0.33759,0.40721 0.6138,0.7947 0.6138,0.86108 0,0.10436 -1.11525,1.64676 -1.46446,2.0253 -0.19386,0.21013 -0.49494,0.15813 -1.08476,-0.18734 -0.48708,-0.2853 -0.56175,-0.30155 -0.68922,-0.14994 -0.0786,0.0935 -0.1796,0.36089 -0.22439,0.59418 -0.0926,0.48233 0.10144,0.7543 0.6605,0.92582 0.40642,0.12469 1.84814,-0.24824 2.55801,-0.66169 0.40154,-0.23385 0.48639,-0.24989 0.61284,-0.11585 0.0807,0.0856 0.24125,0.15564 0.35673,0.15564 0.32889,0 2.76496,1.09026 3.70493,1.65814 0.46702,0.28214 1.36124,0.89195 1.98715,1.3551 1.09938,0.81352 1.37831,0.93152 1.44283,0.61032 z"
       id="path6336"
       inkscape:connector-curvature="0"
       inkscape:export-filename="/home/sade/Desktop/net-game/images/troops/constructor.png"
       inkscape:export-xdpi="90"
       inkscape:export-ydpi="90" />
    <path
       style="fill:#000000;fill-opacity:1"
       d="m 170.34461,686.66715 c -3.07208,-2.00867 -5.48916,-3.33681 -6.0688,-3.33469 -0.20418,7.5e-4 -0.85784,0.15828 -1.45257,0.35005 -1.17287,0.37819 -1.54264,0.37975 -2.13415,0.009 -0.18829,-0.11806 -0.44772,-0.21455 -0.57651,-0.21455 -0.12879,0 -0.26217,-0.0247 -0.29642,-0.0548 -0.0673,-0.0592 0.38571,-1.52688 0.70206,-2.27459 0.21148,-0.49987 0.56282,-0.58701 0.63263,-0.1569 0.038,0.23391 0.84651,0.88375 1.09959,0.88375 0.0725,0 0.2425,-0.19097 0.3778,-0.42437 0.1353,-0.23341 0.41706,-0.59585 0.62615,-0.80543 l 0.38015,-0.38106 -0.28111,-0.28964 c -0.15461,-0.1593 -0.55818,-0.52114 -0.89681,-0.80409 -0.56774,-0.47439 -0.59816,-0.52433 -0.39049,-0.64102 0.12386,-0.0696 0.57967,-0.35996 1.01291,-0.64523 l 0.78771,-0.51867 0.41106,0.35064 c 0.23176,0.19769 0.58091,0.70356 0.80043,1.15969 0.35963,0.74728 0.38727,0.88888 0.36198,1.85486 l -0.0274,1.0458 0.39908,0.12087 c 1.30799,0.3963 3.52928,1.62166 5.38831,2.97243 1.60984,1.1697 1.6801,1.24424 1.45619,1.54501 -0.0969,0.13009 -0.21252,0.4074 -0.25704,0.61625 -0.0722,0.33893 -0.28109,0.49733 -0.66507,0.50442 -0.0334,6.1e-4 -0.65875,-0.38992 -1.38971,-0.86786 z m 1.60115,-0.16938 c 0.0909,-0.24006 -3.12903,-2.31156 -5.55266,-3.57221 -0.7678,-0.39937 -1.45871,-0.76318 -1.53535,-0.80847 -0.10409,-0.0615 -0.10613,-0.37183 -0.008,-1.22644 l 0.13132,-1.14409 -0.51771,-0.91952 -0.51772,-0.91951 -0.37803,0.25658 c -0.65056,0.44153 -0.65251,0.50235 -0.0409,1.2724 0.30798,0.38774 0.55996,0.75857 0.55996,0.82407 0,0.10815 -1.14899,1.69558 -1.4582,2.01456 -0.20274,0.20914 -0.50013,0.15867 -1.08813,-0.18463 -0.29886,-0.17449 -0.58245,-0.28246 -0.63021,-0.23992 -0.0478,0.0426 -0.15744,0.3105 -0.24375,0.59549 -0.15421,0.50925 -0.15108,0.52261 0.18176,0.77457 0.20897,0.15819 0.49152,0.25638 0.73777,0.25638 0.51751,0 1.71122,-0.36331 2.27765,-0.69321 0.38367,-0.22345 0.46505,-0.23769 0.59163,-0.1035 0.0807,0.0856 0.24052,0.15564 0.35511,0.15564 0.30549,0 2.60905,1.01342 3.5359,1.55557 0.43993,0.25733 1.36822,0.87807 2.06287,1.37942 1.2148,0.87678 1.43961,0.9831 1.5367,0.72676 l 0,0 z"
       id="path6338"
       inkscape:connector-curvature="0"
       inkscape:export-filename="/home/sade/Desktop/net-game/images/troops/constructor.png"
       inkscape:export-xdpi="90"
       inkscape:export-ydpi="90" />
    <path
       style="fill:#000000;fill-opacity:1"
       d="m 170.09554,686.51086 c -1.9981,-1.29365 -3.68131,-2.27638 -4.84584,-2.8292 l -0.91159,-0.43274 -1.26747,0.38115 c -0.69711,0.20963 -1.36277,0.38114 -1.47925,0.38114 -0.11648,0 -0.49037,-0.11696 -0.83087,-0.25995 -0.34049,-0.14298 -0.70941,-0.28392 -0.8198,-0.3132 -0.18208,-0.0483 -0.17376,-0.13576 0.0896,-0.94195 0.46776,-1.43191 0.65697,-1.8125 0.88234,-1.77472 0.10996,0.0185 0.21772,0.14354 0.23949,0.27801 0.0343,0.21199 0.87503,0.8751 1.10951,0.8751 0.0444,0 0.20688,-0.1974 0.36095,-0.43866 0.15406,-0.24125 0.44168,-0.60059 0.63915,-0.79852 l 0.35904,-0.35989 -0.49476,-0.5164 c -0.27211,-0.28402 -0.66214,-0.62531 -0.86673,-0.75843 -0.20459,-0.13313 -0.3551,-0.28225 -0.33448,-0.33138 0.0206,-0.0492 0.46861,-0.36092 0.99553,-0.69283 l 0.95804,-0.60348 0.40524,0.34569 c 0.22571,0.19252 0.57774,0.7041 0.79461,1.15472 0.35963,0.74728 0.38727,0.88888 0.36198,1.85485 l -0.0274,1.04581 0.39908,0.12038 c 1.31508,0.39664 3.50702,1.60604 5.38831,2.97298 1.70165,1.23641 1.66218,1.1867 1.37879,1.73612 -0.12783,0.24783 -0.23362,0.52911 -0.23509,0.62509 -0.002,0.1425 -0.33086,0.30569 -0.60962,0.30268 -0.0334,-4e-4 -0.77084,-0.46043 -1.63878,-1.02236 z m 1.82625,-0.14159 c -0.26816,-0.38187 -4.67617,-3.06615 -6.42205,-3.91074 -0.69046,-0.33402 -0.81415,-0.43551 -0.76163,-0.62496 0.0345,-0.12439 0.10107,-0.65063 0.14797,-1.16941 l 0.0853,-0.94325 -0.51735,-0.89798 -0.51735,-0.89798 -0.33029,0.207 c -0.69485,0.43545 -0.697,0.4724 -0.0753,1.2952 0.31343,0.41484 0.55302,0.81338 0.53241,0.88563 -0.0206,0.0723 -0.33791,0.54848 -0.70512,1.05829 -0.80299,1.1148 -0.98922,1.19153 -1.78545,0.73569 -0.31287,-0.17912 -0.60723,-0.3048 -0.65412,-0.27929 -0.0469,0.0255 -0.15316,0.2955 -0.23616,0.59999 -0.14778,0.54215 -0.14412,0.55876 0.17666,0.8016 0.19945,0.151 0.48412,0.24797 0.72784,0.24797 0.49111,0 1.87128,-0.43018 2.35723,-0.73471 0.31323,-0.1963 0.37651,-0.20443 0.50773,-0.0653 0.0824,0.0875 0.25105,0.15897 0.37466,0.15897 0.44224,0 3.34096,1.39829 4.4191,2.13168 0.60088,0.40877 1.41518,0.9638 1.80954,1.23343 0.45611,0.31184 0.75926,0.45306 0.83309,0.38807 0.0638,-0.0562 0.0789,-0.15515 0.0334,-0.21993 l 0,0 z"
       id="path6340"
       inkscape:connector-curvature="0"
       inkscape:export-filename="/home/sade/Desktop/net-game/images/troops/constructor.png"
       inkscape:export-xdpi="90"
       inkscape:export-ydpi="90" />
    <path
       style="fill:#000000;fill-opacity:1"
       d="m 170.33832,686.66777 c -1.711,-1.10665 -4.14127,-2.52584 -5.18454,-3.02756 l -0.81444,-0.39167 -1.26808,0.38133 c -0.69745,0.20974 -1.36339,0.38134 -1.47987,0.38134 -0.11648,0 -0.49037,-0.11696 -0.83087,-0.25995 -0.34049,-0.14298 -0.70941,-0.28392 -0.8198,-0.3132 -0.18208,-0.0483 -0.17376,-0.13576 0.0896,-0.94195 0.5927,-1.8144 0.88074,-2.18422 1.15734,-1.48591 0.10903,0.27526 1.01585,0.96338 1.1247,0.85346 0.0232,-0.0234 0.19267,-0.25892 0.37662,-0.52334 0.18395,-0.26443 0.47266,-0.61115 0.64158,-0.7705 l 0.30713,-0.28974 -0.45863,-0.45811 c -0.25225,-0.25196 -0.65652,-0.60988 -0.89838,-0.79538 -0.24187,-0.18549 -0.41244,-0.36121 -0.37906,-0.39048 0.0334,-0.0292 0.49157,-0.32485 1.0182,-0.65686 l 0.95749,-0.60365 0.35878,0.29969 c 0.82344,0.68783 1.29908,1.94625 1.21394,3.21174 l -0.0593,0.88214 0.41017,0.12378 c 1.32716,0.40046 3.58422,1.64523 5.43524,2.99753 1.66333,1.21517 1.6256,1.167 1.34295,1.71497 -0.12783,0.24783 -0.23362,0.52958 -0.23509,0.62612 -0.003,0.17092 -0.24199,0.30796 -0.52851,0.30256 -0.078,-0.001 -0.74269,-0.39133 -1.47711,-0.86636 z m 1.20349,-0.59358 c -0.81286,-0.63237 -3.4987,-2.26534 -5.18537,-3.15268 -1.40637,-0.73988 -1.66619,-0.91617 -1.61791,-1.09776 0.0316,-0.11904 0.0955,-0.63594 0.14183,-1.14876 l 0.0843,-0.93244 -0.51251,-0.91054 -0.51251,-0.91053 -0.47971,0.33438 c -0.28527,0.19884 -0.45346,0.39459 -0.41494,0.48293 0.0356,0.0817 0.28814,0.43804 0.56115,0.79186 0.27301,0.35382 0.47916,0.70411 0.45811,0.7784 -0.10475,0.36964 -1.40089,1.99563 -1.63711,2.05373 -0.16995,0.0418 -0.45392,-0.0334 -0.79971,-0.21173 -0.29491,-0.15211 -0.59423,-0.27655 -0.66516,-0.27655 -0.0709,0 -0.19685,0.24903 -0.27982,0.55342 -0.14965,0.54901 -0.14804,0.5554 0.20033,0.80074 0.19315,0.13602 0.50119,0.24755 0.68452,0.24785 0.45245,7.1e-4 1.75975,-0.40453 2.257,-0.69964 0.35747,-0.21215 0.44342,-0.22431 0.72835,-0.10301 2.78837,1.18645 3.7453,1.64924 4.58822,2.219 0.54318,0.36714 1.35862,0.92098 1.81209,1.23073 0.609,0.41601 0.85095,0.52769 0.92573,0.42735 0.0676,-0.0908 -0.0443,-0.24906 -0.33688,-0.47669 z"
       id="path6342"
       inkscape:connector-curvature="0"
       inkscape:export-filename="/home/sade/Desktop/net-game/images/troops/constructor.png"
       inkscape:export-xdpi="90"
       inkscape:export-ydpi="90" />
    <path
       style="fill:#000000;fill-opacity:1"
       d="m 169.91345,686.40557 c -1.82231,-1.16452 -4.16606,-2.51271 -5.0731,-2.91817 l -0.52091,-0.23287 -1.25814,0.37834 c -0.69197,0.20809 -1.35811,0.37834 -1.4803,0.37834 -0.12219,0 -0.49608,-0.11598 -0.83086,-0.25765 -0.33479,-0.14171 -0.69903,-0.28264 -0.80942,-0.31319 -0.18218,-0.0504 -0.17391,-0.13762 0.0896,-0.94426 0.43122,-1.32007 0.65742,-1.7968 0.85252,-1.7968 0.0963,0 0.22307,0.11108 0.28175,0.24698 0.10621,0.24585 0.90241,0.92821 1.08308,0.92821 0.0522,0 0.22087,-0.1974 0.37494,-0.43866 0.15406,-0.24125 0.44354,-0.60245 0.64329,-0.80267 l 0.36317,-0.36404 -0.52144,-0.50606 c -0.28679,-0.27832 -0.68912,-0.63431 -0.89407,-0.79106 -0.42496,-0.32504 -0.46681,-0.26791 0.76291,-1.04156 l 0.89276,-0.56167 0.36282,0.3031 c 0.82753,0.69132 1.30329,1.9472 1.21798,3.21515 l -0.0593,0.88214 0.41017,0.12378 c 0.61762,0.18636 2.30936,0.98066 3.16891,1.48786 0.83747,0.49417 2.68757,1.78247 3.4021,2.36902 l 0.45545,0.37387 -0.24035,0.46617 c -0.13219,0.2564 -0.24154,0.54516 -0.24301,0.6417 -0.003,0.17111 -0.24296,0.30848 -0.52851,0.30203 -0.078,-0.001 -0.93388,-0.50938 -1.90198,-1.12803 z m 1.94226,0.0228 c 0,-0.28634 -3.6822,-2.59921 -6.06446,-3.80924 -0.9364,-0.47564 -1.10454,-0.60139 -1.0546,-0.7888 0.0327,-0.1226 0.0965,-0.6339 0.1419,-1.13618 0.0781,-0.86521 0.0634,-0.94952 -0.27974,-1.60254 -0.19922,-0.37911 -0.44291,-0.7815 -0.54152,-0.89421 -0.17582,-0.20095 -0.18672,-0.20029 -0.56053,0.034 -0.20968,0.13139 -0.38123,0.28699 -0.38123,0.34573 0,0.0587 0.15773,0.009 0.35052,-0.11279 0.39909,-0.25011 0.42332,-0.23562 0.87905,0.52562 0.26382,0.44067 0.28628,0.597 0.26933,1.87484 l -0.0185,1.39408 0.7703,0.36586 c 1.02127,0.48506 0.88509,0.56096 -0.18729,0.10436 l -0.84562,-0.36004 -0.88204,0.38481 c -1.24856,0.54472 -1.7282,0.64283 -2.23379,0.45692 -0.42621,-0.15673 -0.47246,-0.27994 -0.3339,-0.88964 l 0.0745,-0.3279 0.65578,0.32571 c 0.62328,0.30958 0.67056,0.3172 0.95407,0.15371 0.41517,-0.23942 1.52348,-1.71497 1.59785,-2.12734 0.05,-0.27704 -0.0331,-0.45617 -0.44608,-0.96172 -0.66842,-0.81825 -0.77017,-0.70387 -0.12159,0.13668 0.27741,0.35952 0.48715,0.71447 0.4661,0.78877 -0.10475,0.36964 -1.40089,1.99563 -1.63711,2.05373 -0.17204,0.0423 -0.46222,-0.0377 -0.83588,-0.23039 -0.53304,-0.27493 -0.58287,-0.28254 -0.72564,-0.11072 -0.0843,0.10142 -0.19092,0.36104 -0.23691,0.5768 -0.0739,0.34649 -0.0434,0.42064 0.26081,0.63489 0.18944,0.13342 0.48406,0.24283 0.6547,0.24312 0.42393,7.2e-4 1.65069,-0.37424 2.22698,-0.68068 0.41717,-0.22183 0.51116,-0.23543 0.78905,-0.11414 0.1735,0.0757 0.91383,0.38461 1.64517,0.68646 1.55328,0.64109 2.49112,1.1719 4.14495,2.34604 1.19438,0.84793 1.50534,0.99547 1.50534,0.71421 z"
       id="path6344"
       inkscape:connector-curvature="0"
       inkscape:export-filename="/home/sade/Desktop/net-game/images/troops/constructor.png"
       inkscape:export-xdpi="90"
       inkscape:export-ydpi="90" />
    <path
       style="fill:#000000;fill-opacity:1"
       id="path6346"
       d="m 168.95161,684.44549 c 0.32621,0.14065 0.64229,0.30872 0.93879,0.49476 0.20319,0.15066 0.43716,0.25743 0.66503,0.3736 0.13012,0.0689 0.25824,0.14977 0.39673,0.20512 0.11549,0.0442 0.21689,0.11157 0.32016,0.17402 0.0913,0.0588 0.1628,0.13595 0.24253,0.20585 0.0596,0.0439 0.11709,0.0896 0.17015,0.13973 0.004,0.004 0.0185,0.0159 0.013,0.0128 -0.24821,-0.13915 -0.0363,-0.14135 -0.33721,0.41855 -0.13561,-0.075 -0.27515,-0.14085 -0.40463,-0.2252 -0.17792,-0.10693 -0.33852,-0.23257 -0.5048,-0.35248 -0.10695,-0.0821 -0.21293,-0.16434 -0.31965,-0.24664 -0.15219,-0.0782 -0.30245,-0.1598 -0.45296,-0.2408 -0.12755,-0.0599 -0.21003,-0.18377 -0.35277,-0.21931 -0.19566,-0.0591 -0.36284,-0.16551 -0.49914,-0.30076 -0.0806,-0.0966 -0.16867,-0.16241 -0.25527,-0.24962 -0.0835,-0.0542 -0.15511,-0.13748 -0.22596,-0.21054 -0.0485,-0.001 -0.12093,-0.0717 -0.18065,-0.0872 -0.0748,-0.045 -0.15815,-0.0828 -0.23555,-0.1285 -0.10992,-0.0564 -0.19624,-0.13729 -0.2795,-0.21807 0.002,0.002 -0.12273,-0.0335 -0.19707,-0.0725 -0.0796,-0.0276 -0.37246,-0.24976 -0.10718,-0.064 0.0102,0.004 0.0408,0.0133 0.0306,0.01 -0.0674,-0.0232 -0.14756,-0.0434 -0.20335,-0.0886 -0.12033,-0.0971 -0.0537,-0.0664 -0.10798,-0.0904 -0.0411,0.0394 -0.28765,-0.11794 -0.34366,-0.14849 -0.12878,-0.0827 -0.26307,-0.15577 -0.39444,-0.23473 -0.10661,-0.0914 -0.0865,-0.0848 -0.20202,-0.15465 -0.0836,-0.0831 -0.16869,-0.11097 -0.27189,-0.16691 -0.10037,-0.0683 -0.19873,-0.13226 -0.27098,-0.22787 0.01,0.0122 0.0195,0.0241 0.0292,0.0361 0.12246,-0.0426 0.26839,-0.0513 0.36739,-0.12763 0.0613,-0.0472 -0.0254,-0.28252 0.054,-0.10717 0.0324,0.0715 0.004,0.034 0.0388,0.0746 0.0564,0.10117 0.15743,0.16915 0.247,0.24565 0.14777,0.0785 0.23132,0.20478 0.33424,0.3197 0.0649,0.0765 0.11916,0.16644 0.19953,0.23022 0.0959,0.0424 0.15993,0.14701 0.25929,0.18039 0.12098,0.0624 0.23787,0.13296 0.34616,0.21145 0.0858,0.0256 0.16994,0.0565 0.25323,0.0922 0.10368,0.0355 0.1931,0.0942 0.29034,0.1411 0.11233,0.0535 0.21077,0.12075 0.32175,0.17554 0.11088,0.0656 0.20559,0.14842 0.30175,0.22953 0.0925,0.0559 0.18253,0.11329 0.27649,0.16772 0.13053,0.0623 0.24958,0.1401 0.37869,0.20581 0.15852,0.0634 0.30534,0.14544 0.4546,0.22359 0.13448,0.0828 0.24666,0.18582 0.38963,0.25654 0.12602,0.0646 0.23422,0.14869 0.34954,0.22559 0.089,0.0625 0.17669,0.12363 0.27312,0.17705 0.0546,0.0368 0.11988,0.0529 0.18633,0.0628 0.13,0.006 0.25718,0.0548 0.37408,0.10363 0.0229,0.0127 0.0653,0.007 0.1255,0.006 0.16907,-0.001 0.31159,0.0781 0.4433,0.1604 0.0514,0.0499 0.0583,0.0517 0.0959,0.10387 0.01,0.0132 -0.045,-0.0481 -0.0315,-0.0379 0.10332,0.0781 0.0677,0.0445 0.13492,0.12062 0.01,0.0137 0.0442,0.0498 0.0289,0.041 -0.0203,-0.011 -0.0282,-0.0345 -0.0423,-0.0516 0.4049,0.14616 0.17003,0.65012 -0.23487,0.50395 l 0,0 c -0.10398,-0.0356 -0.18818,-0.0828 -0.2548,-0.16584 0.12346,0.0608 -0.12876,-0.0626 -0.1094,-0.096 0.12217,0.049 -0.0582,-0.0259 -0.0625,-0.0284 -0.006,-0.004 0.0127,0.005 0.0195,0.005 0.0173,0.002 0.0644,-0.009 0.0523,0.002 -0.0127,0.011 -0.0364,-1.7e-4 -0.0546,-2.3e-4 -0.11639,-0.006 -0.23273,-0.0122 -0.34268,-0.0505 -0.10884,-0.0307 -0.15901,-0.0628 -0.23259,-0.0658 -0.16497,-0.0197 -0.32372,-0.0642 -0.46225,-0.14776 -0.10889,-0.0698 -0.21589,-0.1412 -0.31824,-0.21846 -0.0559,-0.0442 -0.1202,-0.078 -0.24025,-0.14633 -0.15729,-0.071 -0.28869,-0.1679 -0.42175,-0.26855 -0.15038,-0.08 -0.30408,-0.15392 -0.45603,-0.23181 -0.13339,-0.079 -0.28003,-0.14257 -0.41466,-0.2205 -0.12687,-0.0811 -0.25287,-0.16374 -0.3676,-0.25812 0.0408,0.0148 0.002,0.001 -0.0443,-0.0314 -0.0945,-0.068 -0.0507,-0.0591 -0.13567,-0.10044 -0.0891,-0.0526 -0.18129,-0.10019 -0.2707,-0.15565 -0.103,-0.0454 -0.1847,-0.10656 -0.29307,-0.13976 -0.0711,-0.0345 -0.24222,-0.0725 -0.3592,-0.15337 -0.0936,-0.0645 -0.19792,-0.1128 -0.2944,-0.17458 -0.11429,-0.0705 -0.21953,-0.15062 -0.32722,-0.2286 -0.12194,-0.0913 -0.22054,-0.20606 -0.30341,-0.32615 -0.075,-0.0949 -0.15327,-0.16945 -0.2742,-0.2386 -0.14032,-0.12503 -0.28195,-0.24719 -0.36601,-0.41044 -0.0446,-0.0942 -0.1702,-0.34295 -0.0869,-0.42509 0.097,-0.0957 0.25984,-0.1161 0.38976,-0.17411 0.1201,0.0296 0.22345,0.0817 0.30266,0.16948 0.004,0.005 -0.0265,-0.006 -0.0207,-0.002 0.046,0.0264 0.0986,0.0436 0.13588,0.0814 -0.0482,-0.006 0.34968,0.15961 0.2699,0.16606 0.0904,0.0547 0.14041,0.10314 0.2205,0.16309 0.11687,0.0526 0.25462,0.12461 0.36633,0.20321 0.1452,0.0832 0.29989,0.14865 0.44084,0.23699 0.0194,0.0187 0.0471,0.0328 0.0582,0.0562 0.007,0.0147 -0.03,-0.0179 -0.0445,-0.0275 -0.008,-0.005 0.0431,0.0247 0.0399,0.0248 -0.0189,5.9e-4 -0.0693,-0.0213 -0.0556,-0.01 0.0159,0.0133 0.0422,0.011 0.0632,0.0161 0.0466,0.0292 0.0891,0.0645 0.13974,0.0878 0.0364,0.0169 -0.13475,-0.0778 -0.0946,-0.0697 0.0584,0.0122 0.1081,0.0472 0.16024,0.0706 0.0995,0.0536 0.25363,0.0745 0.33586,0.17386 0.0622,0.0648 0.0377,0.0437 0.1636,0.13364 0.14166,0.0822 0.0791,0.0912 0.0354,0.0368 -0.0518,-0.0642 0.0778,0.0396 0.14646,0.0555 0.12817,0.0643 0.25668,0.1322 0.36648,0.21922 0.0695,0.07 0.13001,0.14612 0.2165,0.20139 0.0881,0.0807 0.18644,0.15274 0.26049,0.24495 0.0741,0.0688 0.15194,0.11781 0.25483,0.15019 0.17558,0.0639 0.32099,0.15654 0.47055,0.25606 0.17673,0.0993 0.35819,0.19083 0.52402,0.30502 0.10528,0.0788 0.19135,0.16733 0.31244,0.2271 0.15855,0.11243 0.31675,0.22457 0.48,0.33171 0.12735,0.0803 0.25181,0.16412 0.38144,0.24086 -0.13704,0.40737 -0.0659,0.68247 -0.4625,0.422 -0.0572,-0.0398 -0.1089,-0.0844 -0.16496,-0.12491 -0.10374,-0.0749 -0.12425,-0.12075 -0.21206,-0.17421 -0.12761,-0.10253 -0.073,-0.0553 -0.22031,-0.11403 -0.14555,-0.0661 -0.28784,-0.13593 -0.435,-0.19942 -0.24878,-0.11525 -0.49761,-0.22865 -0.72299,-0.37892 -0.28785,-0.15543 -0.57746,-0.30928 -0.85011,-0.48486 -0.41515,-0.18267 -0.1216,-0.69939 0.29356,-0.51671 z"
       inkscape:connector-curvature="0"
       inkscape:export-filename="/home/sade/Desktop/net-game/images/troops/constructor.png"
       inkscape:export-xdpi="90"
       inkscape:export-ydpi="90" />
    <path
       style="fill:#000000;fill-opacity:1"
       id="path6348"
       d="m 165.44312,683.16305 c -0.26341,-0.0889 -0.49904,-0.23017 -0.73853,-0.35949 -0.14472,-0.041 -0.25839,-0.15555 -0.40328,-0.19379 -0.13819,-0.0229 -0.25822,-0.0817 -0.37517,-0.14819 -0.0307,0.005 -0.29264,-0.27836 -0.21922,-0.19743 0.30604,-0.45425 0.16365,-0.56458 0.42877,-0.38548 0.12028,0.0732 0.21901,0.16096 0.30978,0.26089 0.019,-0.002 0.0636,0.0294 0.1431,0.0683 0.0592,0.0179 0.28612,0.21004 0.22586,0.24655 -0.55107,0.33379 -0.51954,0.31275 -0.63649,0.0805 -0.038,-0.097 -0.0259,-0.1981 -0.0279,-0.29804 -0.009,-0.0203 -0.0225,-0.1348 -0.0104,-0.25318 0.004,-0.0623 0.0179,-0.12548 0.0153,-0.18799 10e-4,-0.0626 0.003,-0.12538 -3e-5,-0.18795 0.004,-0.0612 1.2e-4,-0.12222 0.003,-0.18336 -0.0162,-0.115 0.0299,-0.22625 0.0946,-0.32474 0.0221,-0.0264 0.0164,-0.0396 0.0216,-0.0876 -0.002,-0.10533 0.071,-0.18765 0.1085,-0.27961 0.15874,-0.31899 0.0448,-0.001 0.0311,-0.0774 -0.008,-0.0711 -0.009,-0.14247 -0.014,-0.21367 -0.001,-0.0884 -0.004,-0.0161 0.0354,-0.17558 0.004,-0.0175 -0.007,0.0354 -0.0115,0.0529 -0.0128,0.0476 0.0151,-0.097 0.0247,-0.14517 0.0313,-0.12173 0.20388,-0.17477 0.0168,0.0122 -0.12592,0.12579 0.024,-0.11219 0.0502,-0.16754 -0.004,-0.007 0.002,-0.0697 0.005,-0.0957 0.009,-0.0395 -0.0252,-0.13983 0.008,0.011 0.02,0.0904 -0.0372,-0.0484 -0.047,-0.0656 -0.0546,-0.0968 -0.0739,-0.20268 -0.0807,-0.30935 0.0305,0.12269 -0.0326,-0.24879 -0.002,-0.13589 0.0337,0.12274 0.0262,0.10424 -0.003,0.0613 -0.0499,-0.0794 -0.0863,-0.16324 -0.10325,-0.25281 0.002,0.11072 -0.10341,-0.20056 -0.10915,-0.21851 5.9e-4,0.006 0.007,0.0252 0.002,0.0201 -0.0633,-0.0673 -0.0973,-0.18682 -0.12091,-0.2683 0.0596,0.12704 -0.10635,-0.2676 -0.0261,-0.15869 0.009,0.0122 0.0158,0.0661 0.0291,0.0876 -0.0663,-0.0535 -0.11581,-0.14893 -0.13648,-0.24164 -0.057,-0.15895 0.33321,0.18589 0.16163,0.18398 -0.0738,-5.4e-4 -0.14762,0.002 -0.22146,0.002 -0.0653,-0.004 -0.13028,4.1e-4 -0.19562,-0.002 0.46303,-0.19718 -0.0748,0.12026 0.13151,-0.0237 -9.9e-4,0.002 -0.006,0.002 -0.008,0.005 -0.0216,0.0442 -0.0433,0.0882 -0.0649,0.13232 0.0149,-0.0254 0.0566,-0.10301 0.0448,-0.0763 -0.10885,0.24588 -0.0247,0.0553 -0.0234,-0.005 -0.004,-0.0831 0.0647,0.28208 0.0352,0.10913 -0.0111,0.006 0.093,0.13146 0.0662,0.1235 -0.0189,-0.006 -0.042,-0.059 -0.0277,-0.0467 0.0236,0.0202 0.0461,0.0412 0.0692,0.0619 0.0821,0.0875 0.13195,0.19023 0.14829,0.30253 -0.0283,-0.13656 0.10671,0.17855 0.0643,0.0592 0.0768,0.0935 0.13401,0.1976 0.16532,0.3096 -0.0659,-0.15674 0.068,0.0823 0.0805,0.10668 -0.0253,-0.0275 -0.0566,-0.0516 -0.0758,-0.0827 -0.0106,-0.0171 0.069,0.0309 0.0491,0.0394 -0.55429,0.2338 -0.54309,-0.007 -0.50993,0.24153 -0.0878,-0.11084 -0.1177,-0.24058 -0.14102,-0.3712 -0.0339,-0.20004 0.0452,0.0457 -0.0603,-0.15501 -0.0284,-0.0429 -0.0469,-0.20232 -0.055,-0.1369 -0.0429,-0.0609 -0.0502,-0.0641 -0.0767,-0.12372 -0.007,-0.0162 0.0388,0.0598 0.0254,0.0471 -0.0743,-0.071 -0.0537,-0.0486 -0.10425,-0.11622 -0.0657,-0.081 -0.0671,-0.17577 -0.0939,-0.26728 -0.003,-0.01 4.1e-4,0.0212 5.9e-4,0.0318 -0.0926,-0.13774 -0.12345,-0.28388 -0.0563,-0.43974 0.0455,-0.0806 0.10481,-0.15424 0.17463,-0.21986 -0.0531,0.0511 0.0968,-0.11965 0.11537,-0.14661 0.22256,-0.31329 0.52621,-0.16965 0.67884,0.08 0.0315,0.069 0.10382,0.17096 0.14578,0.29847 0.0315,0.0291 0.0354,0.29593 0.0417,0.18329 0.0595,0.12839 0.0797,0.11023 0.16774,0.26281 0.10688,0.11855 0.15034,0.26835 0.18391,0.41484 0.0221,0.1349 0.0785,0.26337 0.10721,0.39836 0.0223,0.0964 0.0295,0.19483 0.026,0.29296 -6.5e-4,0.0137 -0.002,0.0274 -0.003,0.0411 -0.002,0.37932 -0.6114,0.37696 -0.60951,-0.002 l 0,0 c -0.001,-0.002 -0.004,-0.005 -0.004,-0.007 -0.0154,-0.0678 -0.0274,-0.13616 -0.0387,-0.20453 -0.0403,-0.14007 -0.0923,-0.278 -0.11682,-0.42118 -0.0134,-0.10399 -0.0558,-0.19457 -0.12455,-0.2808 -0.003,-0.078 -0.13758,-0.13802 -0.13666,-0.22276 -0.0528,-0.0881 -0.082,-0.18326 -0.0971,-0.28169 -0.037,-0.0861 -0.07,-0.17309 -0.12322,-0.25281 0.12391,0.0917 0.23988,0.0826 0.38888,0.0135 0.0393,-0.0182 0.0528,-0.0636 0.0859,-0.0898 0.0108,-0.009 -0.0114,0.0236 -0.0171,0.0354 -0.0567,0.10118 -0.13721,0.17495 -0.20431,0.25803 -0.0314,0.0325 -0.0579,0.047 -0.0772,0.0869 0.0124,-0.18323 -0.0392,-0.22417 0.0356,-0.0762 0.0156,0.0246 0.12378,0.24509 0.0776,0.21624 0.013,0.0197 0.1692,0.16027 0.11972,0.15157 0.0729,0.0801 0.11802,0.16771 0.14678,0.26532 0.0519,0.093 0.10154,0.19036 0.10468,0.29766 0.002,0.0451 0.0193,0.0885 0.0323,0.1308 0.0327,0.0464 0.11611,0.23113 0.0927,0.2429 -0.55784,0.28074 -0.38008,0.3442 -0.61844,0.13012 -0.0573,-0.0761 -0.10697,-0.15558 -0.14669,-0.24022 -0.001,-0.006 -0.0378,-0.0724 -0.0642,-0.11133 -0.0606,-0.0882 -0.1276,-0.16551 -0.17175,-0.30946 -0.007,-0.036 0.0411,0.0515 -0.005,-0.0127 0.0436,0.0152 -0.0126,-0.004 -0.0589,-0.0491 -0.0655,-0.0651 -0.10991,-0.13761 -0.14448,-0.21787 -0.0332,-0.0847 -0.0554,-0.16559 -0.0807,-0.25187 -0.0124,-0.11524 -0.0228,-0.10448 0.0278,-0.23511 0.008,-0.0196 0.029,-0.0719 0.0371,-0.0526 0.01,0.0235 -0.0423,0.0929 -0.0296,0.0705 0.0471,-0.0833 0.0896,-0.20913 0.0207,-0.0207 0.0101,-0.0604 0.0287,-0.11941 0.0599,-0.17422 0.10591,-0.15734 0.22131,-0.20619 0.41729,-0.25959 0.064,-0.004 0.12771,-2.5e-4 0.19164,-0.005 0.0807,-0.001 0.1613,1.9e-4 0.24198,5e-5 0.22147,0.006 0.23299,0.0433 0.42216,0.24417 -0.0182,-0.0154 -0.0416,-0.027 -0.0545,-0.0461 -0.009,-0.014 0.0279,0.021 0.0419,0.0316 0.0926,0.0887 0.14448,0.1893 0.15731,0.30867 0.0284,0.0899 0.0915,0.16895 0.12323,0.25935 -10e-4,0.0871 0.11422,0.15861 0.10691,0.24761 0.007,0.0268 0.0113,0.0451 0.0535,0.10473 0.047,0.0939 0.07,0.18914 0.0689,0.29035 0.003,0.0426 -1.7e-4,0.073 0.0132,0.0919 0.0607,0.10399 0.12894,0.21005 0.10312,0.3327 -0.002,0.092 -0.0165,0.18423 -0.0527,0.27095 -0.0137,-0.0747 -0.10513,0.26852 -0.0563,0.13936 0.002,-0.0292 5.3e-4,-0.0589 0.006,-0.0877 0.003,-0.0165 10e-4,0.0334 10e-4,0.05 -6.8e-4,0.039 -0.0566,0.24958 -0.0143,0.069 0.003,-0.011 7.4e-4,0.0231 0.001,0.0347 -0.002,0.067 0.007,0.13416 0.0117,0.20105 5.3e-4,0.12075 -0.0149,0.19766 -0.0805,0.30955 -0.0118,0.0201 0.0151,-0.044 0.0301,-0.0624 0.01,-0.0122 -0.009,0.0278 -0.0133,0.0417 -0.0279,0.0702 -0.0149,0.0433 -0.0574,0.12063 -0.005,0.01 -0.0157,0.0371 -0.0181,0.0269 -0.003,-0.0129 0.0135,-0.0334 1.8e-4,-0.0393 -0.0131,-0.006 -0.001,0.0258 -0.002,0.0387 -0.0115,0.10949 -0.0388,0.21697 -0.10327,0.3126 -0.0311,0.0475 -0.0722,0.1303 -0.0146,-0.0514 0.039,-0.123 -0.0248,0.21259 -7.6e-4,0.0995 0.003,0.0613 -8.2e-4,0.12243 0.003,0.18372 -0.004,0.0675 -6.4e-4,0.13536 -0.003,0.203 -0.006,0.0722 -0.002,0.14487 -0.0125,0.2169 -0.006,0.0804 -0.007,0.1425 0.01,0.22785 -0.002,0.0161 -2.4e-4,0.0872 -0.009,0.0882 -0.12958,-0.15976 -0.0939,-0.13005 -0.5544,0.22259 -0.077,0.059 0.10563,0.12419 0.12287,0.15681 0.0155,0.0294 -0.12379,-0.0847 -0.0957,-0.048 -0.0761,-0.047 -0.22905,-0.11182 -0.31915,-0.22843 0.10592,0.0794 -0.16295,-0.11695 -0.17323,-0.11891 -0.005,-0.004 -0.11436,-0.0738 -0.11244,-0.0792 0.18349,-0.50367 0.11856,-0.58767 0.43008,-0.43905 0.0856,0.0617 0.16663,0.12557 0.23634,0.20151 0.0534,0.0283 0.11314,0.061 0.21745,0.0713 0.17539,0.0591 0.33901,0.13728 0.50961,0.20574 0.2575,0.11476 0.5019,0.25107 0.7474,0.38432 0.39408,0.20811 0.0597,0.6986 -0.3344,0.4905 z"
       inkscape:connector-curvature="0"
       inkscape:export-filename="/home/sade/Desktop/net-game/images/troops/constructor.png"
       inkscape:export-xdpi="90"
       inkscape:export-ydpi="90" />
    <path
       style="fill:#000000;fill-opacity:1"
       id="path6350"
       d="m 165.85499,683.1789 c -0.19461,-0.15817 -0.38457,-0.32696 -0.54388,-0.51422 -0.051,-0.0706 -0.10132,-0.13772 -0.17719,-0.18504 -0.058,-0.0487 -0.12446,-0.0867 -0.1869,-0.1305 -0.0405,-0.0256 0.0762,0.0303 0.0571,0.0229 -0.0447,-0.0174 -0.0904,-0.0334 -0.13266,-0.0552 -0.0471,-0.0241 -0.0855,-0.0668 -0.11967,-0.1035 -0.0391,-0.0562 -0.10855,-0.087 0.079,0.0445 0.0742,0.0521 -0.0842,-0.0387 -0.13683,-0.062 -0.0721,-0.0208 -0.16681,-0.051 -0.24582,-0.0895 0.0758,0.0445 -0.22418,-0.12651 -0.13494,-0.0866 0.13187,0.059 -0.0326,0.0268 0.22202,0.0407 -0.10761,0.0758 0.0851,-0.0371 0.0654,-0.0252 -5.3e-4,2.9e-4 -0.11437,0.0738 -0.13998,0.0733 -0.0196,-4.2e-4 0.0582,-0.0396 0.0529,-0.023 -0.007,0.0215 -0.0394,0.0284 -0.0591,0.0426 -0.0412,0.0244 -0.10029,0.10534 -0.19304,0.16471 0.11781,-0.0579 -0.17473,0.1414 -0.18985,0.15138 -0.12745,0.048 -0.17213,0.10191 -0.29088,0.16547 0.007,-0.002 0.0275,-0.0143 0.022,-0.009 -0.0839,0.0812 -0.20709,0.13633 -0.32248,0.17111 0.14451,-0.045 -0.11561,0.0692 -0.13113,0.0896 -0.11749,0.0817 -0.26027,0.12161 -0.40595,0.14237 0.19251,-0.0442 -0.20519,0.0925 -0.20663,0.0929 -0.0456,0.0122 -0.1396,0.0625 -0.23775,0.0909 -0.0387,0.0122 -0.0797,0.0164 -0.11846,0.0279 0.0147,-0.002 0.0293,-0.005 0.044,-0.007 0.001,5e-5 0.005,-4.8e-4 0.004,1.7e-4 -0.0691,0.0395 -0.0604,0.0339 -0.12635,0.0619 -0.11321,0.0465 -0.23605,0.0629 -0.35964,0.0683 0.086,0.006 -0.17728,0.0723 -0.20408,0.0782 -0.14851,0.0374 -0.27814,0.0264 -0.42728,-0.001 -0.0717,-0.0274 -0.1401,-0.0518 -0.2144,-0.0702 -0.15246,-0.01 -0.39537,-0.39096 -0.2897,-0.16507 -0.0912,-0.11292 -0.1236,-0.20385 -0.15587,-0.27028 -0.0979,-0.36044 0.0594,-0.2908 0.50745,-0.36627 0.025,0.005 0.22319,0.19532 0.16505,0.13095 0.0478,-0.017 0.26722,0.23431 0.16359,0.11965 -0.0554,-0.0247 0.0955,-0.009 0.11713,-0.009 -0.053,0.025 0.23809,-0.0128 0.18028,0.001 -0.21464,0.0537 0.012,-0.0232 -0.0999,0.0162 0.1146,-0.0706 0.24867,-0.0954 0.38376,-0.11488 0.11888,0.004 0.1953,-0.022 0.30045,-0.0496 0.14877,-0.0405 0.30356,-0.0595 0.45875,-0.0653 0.0824,-0.0453 0.20018,-0.0639 0.29867,-0.0847 0.0999,-0.023 0.2058,-0.0685 0.31654,-0.0962 0.037,-0.0593 0.16644,-0.0465 0.20896,-0.0973 0.10277,-0.0533 0.19476,-0.11647 0.30116,-0.1665 0.27383,-0.13753 -0.21253,0.19116 0.0958,-0.0645 0.18575,-0.20325 0.64238,0.1117 0.53888,0.34199 -0.1013,0.16488 -0.24663,0.27632 -0.44256,0.3473 -0.11508,0.0637 -0.11939,0.0648 -0.17193,0.10681 -0.0856,0.0529 -0.16192,0.11182 -0.24813,0.16397 -0.12795,0.0648 -0.27065,0.0919 -0.41643,0.10056 -0.0576,0.0148 -0.12107,-0.005 -0.17873,0.004 -0.0107,0.001 0.0228,-9.6e-4 0.0321,0.004 0.0106,0.005 -0.0217,0.01 -0.0329,0.0144 -0.13587,0.0398 -0.19893,0.0677 -0.31291,0.11084 -0.12596,0.0498 -0.26034,0.0732 -0.3975,0.0792 0.066,0.0251 -0.25476,-0.004 -0.15659,0.004 0.0551,0.004 0.0588,-0.002 0.0218,0.0147 -0.15645,0.0728 -0.31533,0.0893 -0.48913,0.0741 -0.10082,-0.034 -0.20343,-0.0577 -0.30781,-0.08 -0.21079,-0.0575 -0.31829,-0.21171 -0.40395,-0.37752 -0.0517,-0.096 -0.12159,-0.17679 -0.18614,-0.26569 -0.0317,-0.045 -0.06,-0.0918 -0.0856,-0.13964 -0.12718,-0.31136 0.2025,-0.43131 0.42548,-0.41968 0.0818,-0.001 0.16335,9.5e-4 0.24516,-0.002 0.11231,-0.001 0.22467,-3.5e-4 0.33699,-0.002 0.15984,-0.0278 0.28976,0.0529 0.43203,0.0897 0.034,0.0171 0.22859,0.0171 0.0828,0.016 0.04,-0.0242 0.19035,-0.0538 0.1528,-0.0624 0.13665,-0.0639 0.11884,-0.0796 0.25997,-0.15675 -0.10734,0.0632 0.15727,-0.13065 0.17961,-0.14763 0.0663,-0.0461 0.13048,-0.0851 0.16763,-0.11634 0.15947,-0.12858 0.0374,-0.001 0.14201,-0.14504 0.0448,-0.0354 0.0572,-0.0718 0.064,-0.10301 0.007,-0.1 0.0698,-0.19365 0.11605,-0.2845 0.0172,-0.0593 0.0596,-0.15342 0.10465,-0.2244 0.0143,-0.0756 0.0392,-0.14697 0.0686,-0.22131 0.0475,-0.0988 0.11161,-0.18995 0.18972,-0.27211 0.0336,-0.0382 0.14752,-0.1374 0.12821,-0.13399 0.0618,-0.0796 0.10002,-0.11023 0.14251,-0.1686 0.0179,-0.0273 0.006,0.005 0.003,0.0157 0.74727,0.23019 0.66228,0.1337 0.32663,0.49465 -0.0677,0.0702 -0.14436,0.13221 -0.21516,0.1999 -0.073,0.0673 -0.10844,0.15037 -0.16547,0.22904 -0.082,0.0992 -0.18133,0.18785 -0.28568,0.26884 -0.0596,0.0515 -0.11754,0.10301 -0.17005,0.16193 -0.0729,0.0641 -0.12225,0.13654 -0.17841,0.21372 -0.029,0.0888 -0.0911,0.17062 -0.1464,0.24929 -0.0109,0.0726 -0.0503,0.14797 -0.0939,0.21318 -0.04,0.052 -0.0414,0.09 -0.0787,0.17596 -0.0462,0.0749 -0.11112,0.13724 -0.18694,0.18933 -0.20836,0.17611 -0.54928,-0.29112 -0.35092,-0.47468 0.31614,-0.28455 0.77337,0.10889 0.45724,0.39347 l 0,0 c -0.21433,0.18701 -0.28662,-0.48582 -0.5008,-0.33116 0.004,-0.007 0.008,-0.0162 0.0155,-0.0209 -0.002,0.011 -0.01,0.0438 -0.006,0.0333 0.0339,-0.0882 0.0454,-0.1816 0.11636,-0.25688 0.0207,-0.0221 -0.003,-4.8e-4 0.002,0.0287 0.002,0.0122 0.004,-0.024 0.006,-0.036 0.0131,-0.063 0.0335,-0.124 0.0669,-0.18134 0.0633,-0.11354 0.10544,-0.15346 0.1557,-0.27575 0.0697,-0.10264 0.15326,-0.19787 0.23944,-0.29029 0.10237,-0.0938 0.1704,-0.15232 0.27352,-0.23466 -0.0673,0.0815 0.17334,-0.1677 0.12354,-0.12584 0.0672,-0.0954 0.12426,-0.19854 0.21735,-0.27738 0.0794,-0.0933 0.15501,-0.14056 0.22656,-0.23273 0.24225,-0.22391 0.12399,-0.1161 0.74393,0.004 -0.0103,0.0384 -0.0236,0.0762 -0.0415,0.11243 -0.006,0.011 -0.17685,0.28005 -0.13097,0.16358 -0.0513,0.0905 -0.12171,0.16498 -0.20005,0.23712 -0.044,0.0532 -0.0873,0.10081 -0.1153,0.16349 0.0341,-0.16784 -0.0391,0.23516 -0.0862,0.25365 -0.0168,0.027 -0.11282,0.14611 -0.0285,0.005 0.0127,-0.0212 -0.0327,0.13361 -0.0412,0.1499 -0.0381,0.0986 -0.0835,0.14093 -0.087,0.19976 -0.028,0.11463 -0.0787,0.22828 -0.16936,0.31659 -0.045,0.0591 -0.12595,0.16192 -0.21804,0.21729 -0.009,0.006 0.0149,-0.0154 0.0223,-0.023 -0.10491,0.10252 -0.14426,0.0968 -0.20993,0.16139 -0.081,0.0615 -0.16953,0.11452 -0.24173,0.1848 -0.0728,0.0482 -0.14555,0.10264 -0.22677,0.13746 -0.11197,0.0738 -0.24098,0.1199 -0.37338,0.15853 -0.17172,0.0239 -0.32941,0.0207 -0.49256,-0.0405 -0.10675,-0.0428 -0.0642,-0.0433 -0.18668,-0.0389 -0.11276,-0.002 -0.22557,-9.6e-4 -0.33834,-0.002 -0.0832,-0.004 -0.16624,-0.002 -0.24942,-0.005 -0.27021,0.011 -0.12232,-0.0177 0.10368,-0.40751 0.0327,0.0322 0.0613,0.0675 0.0909,0.1019 0.0976,0.11843 0.18829,0.23923 0.25476,0.37407 0.008,0.0418 0.0712,0.0728 0.0625,0.11451 -0.008,0.038 -0.0973,-0.13134 -0.14083,-0.0752 0.10698,0.0138 0.21533,0.0357 0.31236,0.0759 -0.0873,0.0145 0.0481,0.006 0.0661,-0.009 0.11843,-0.0588 0.24733,-0.0919 0.38427,-0.0858 0.0656,-0.009 0.1327,-0.007 0.19071,-0.0389 0.0938,-0.0385 0.18961,-0.0741 0.29,-0.0942 0.12993,-0.0597 0.2694,-0.0896 0.41641,-0.0818 0.0522,-0.004 0.0933,0.001 0.13705,-0.0231 0.0383,-0.0224 0.11557,-0.0711 0.16416,-0.10999 0.11221,-0.07 0.21306,-0.15083 0.34066,-0.20126 0.0221,-0.007 0.0535,-0.011 0.0703,-0.0258 0.0443,-0.0396 0.0543,-0.0754 0.0255,-0.007 0.0879,-0.19597 0.68459,0.15071 0.46918,0.26903 0.0205,-0.0696 -0.11945,0.11292 -0.19394,0.13876 -0.0992,0.0577 -0.20042,0.11194 -0.30095,0.16655 -0.12328,0.0563 -0.24566,0.11402 -0.37333,0.1613 -0.11827,0.0182 -0.21906,0.0872 -0.34066,0.097 -0.1339,0.017 -0.25334,0.096 -0.39197,0.0985 -0.10283,0.009 -0.20521,0.0154 -0.30431,0.0433 -0.13576,0.0401 -0.27308,0.0678 -0.41664,0.0626 -0.0452,-3e-4 -0.0809,0.011 -0.11987,0.0251 -0.13934,0.0701 -0.27968,0.0871 -0.437,0.0787 -0.14053,-0.007 -0.28131,-0.0122 -0.40978,-0.0697 -0.13601,-0.0719 -0.14455,-0.12268 -0.19529,-0.13148 -0.0702,-0.0469 -0.13323,-0.0953 -0.19441,-0.1495 0.2061,-0.0619 0.51926,-0.058 0.43955,-0.28897 -0.033,-0.0569 0.0688,0.12002 0.0744,0.14636 0.0231,0.0366 0.11432,0.12312 0.0692,0.10986 -0.53215,-0.1559 -0.26526,-0.17782 -0.14078,-0.15269 0.10616,0.0179 0.20914,0.048 0.30388,0.0942 -0.19362,-0.0126 -0.0186,-0.002 0.0267,-0.0146 0.11481,-0.0356 0.2215,-0.0887 0.34519,-0.0998 0.0445,-0.002 0.0881,5e-5 0.11819,-0.0146 0.0839,-0.0363 0.16584,-0.0863 0.25517,-0.10423 0.0936,-0.035 0.18382,-0.0741 0.28086,-0.10191 0.0588,-0.014 0.17753,-0.0918 0.26042,-0.10656 0.0644,-0.0142 0.12491,-0.0187 0.17597,-0.0597 0.10571,-0.054 0.17247,-0.0943 0.28279,-0.15266 0.0121,-0.002 0.12986,-0.0674 0.16751,-0.10888 0.0806,-0.0456 0.14577,-0.11977 0.24313,-0.14148 0.0339,-0.022 0.12176,-0.0962 0.10497,-0.0621 -0.004,0.009 -0.0221,0.0289 -0.0156,0.0224 0.1194,-0.12026 -0.055,0.03 0.12572,-0.11769 -0.0885,0.11965 0.11446,-0.15755 0.17029,-0.15612 0.19645,-0.0837 0.0684,-0.0679 0.26901,-0.14321 0.22532,-0.006 0.24955,-0.007 0.41301,0.0819 0.0775,0.0404 0.19515,0.0565 0.27923,0.11365 0.0188,0.0124 0.0797,0.0367 0.0563,0.0372 -0.0364,8.2e-4 -0.0703,-0.0192 -0.10121,-0.0362 -0.0662,-0.0365 0.26911,0.0908 0.22775,0.1229 0.0375,0.033 -0.10584,-0.0301 -0.0789,-0.0179 0.0425,0.0193 0.0913,0.0266 0.13308,0.0475 0.0272,0.013 0.27393,0.14821 0.18019,0.11475 0.1486,0.0734 0.25935,0.17694 0.36274,0.29455 0.18337,0.17346 0.392,0.32556 0.54685,0.52182 0.28896,0.31789 -0.22186,0.67755 -0.51082,0.35966 z"
       inkscape:connector-curvature="0"
       inkscape:export-filename="/home/sade/Desktop/net-game/images/troops/constructor.png"
       inkscape:export-xdpi="90"
       inkscape:export-ydpi="90" />
    <path
       style="fill:#000000;fill-opacity:1"
       id="path6352"
       d="m 162.80379,683.02902 c -0.20917,0.017 -0.41925,0.001 -0.62877,-5.2e-4 -0.14708,0.039 -0.29921,0.0615 -0.45078,0.0822 -0.12387,0.0329 -0.23942,0.0805 -0.35717,0.12701 -0.0411,0.0158 -0.084,0.0343 -0.12566,0.0464 -0.20889,0.0942 -0.4259,0.0434 -0.54685,-0.14183 -0.0499,-0.0894 -0.058,-0.18841 -0.0599,-0.28624 -0.008,-0.10643 0.005,-0.20188 0.0309,-0.30627 0.0338,-0.0573 0.0688,-0.11659 0.0825,-0.17713 0.033,-0.1356 0.15074,-0.21762 0.23756,-0.32144 0.14485,-0.14146 0.15542,-0.18755 0.38792,-0.25935 0.19377,-0.004 0.33897,0.0592 0.4413,0.21345 0.0951,0.17068 -0.001,0.40088 -0.22745,0.46185 -0.0282,0.005 -0.0571,0.007 -0.0847,0.0144 -0.0196,0.005 0.0458,0.006 0.0609,-0.005 0.0179,-0.014 0.0358,-0.0279 0.0537,-0.0418 0.002,-0.002 0.005,-0.005 0.007,-0.007 -0.0621,0.0628 -0.0826,0.11842 -0.10988,0.18906 4e-5,0.005 -6.9e-4,0.0199 1.2e-4,0.0151 0.005,-0.0283 -0.0134,-0.11072 0.001,-0.0854 0.0368,0.0625 0.0428,0.0828 0.0242,0.0334 0.056,0.0287 -0.058,-0.0196 0.0274,-0.011 0.11289,0.0175 0.20495,0.0848 0.31878,0.0942 0.026,0.009 0.33053,0.0187 0.14338,0.0176 0.005,-0.0122 0.0982,-0.0406 0.11807,-0.0472 0.41674,-0.14287 0.64631,0.37582 0.22957,0.51869 l 0,0 c -0.0513,0.0181 -0.10401,0.0317 -0.15272,0.0557 -0.15598,0.025 -0.3021,0.0357 -0.4592,0.006 -0.01,-0.002 -0.44549,-0.1106 -0.27854,-0.0935 -0.17243,-0.0202 -0.32898,-0.0757 -0.44204,-0.19706 -0.10263,-0.13767 -0.19494,-0.28397 -0.13601,-0.45729 0.0263,-0.0909 0.0679,-0.23041 0.15748,-0.29149 0.0113,-0.007 -0.0112,0.0232 -0.0168,0.0349 0.0851,-0.15558 0.19736,-0.22677 0.38123,-0.27361 0.005,-0.001 -0.01,0.005 -0.0144,0.007 -0.041,0.0728 -0.2121,0.20686 -0.16131,0.29974 0.0857,0.10142 0.10922,0.0982 0.19375,0.0862 0.0429,-0.0152 0.0886,-0.0254 0.12882,-0.0455 0.0217,-0.011 0.0298,-0.0398 0.0538,-0.0457 0.10667,-0.0269 -0.20263,0.17088 -0.13067,0.13759 -0.0314,0.0391 -0.20994,0.23607 -0.13643,0.10607 -0.0205,0.0904 -0.0534,0.18256 -0.10719,0.26252 -0.002,0.004 0.002,-0.007 0.003,-0.011 0.008,-0.15564 -0.003,0.0959 0.001,0.11549 3.5e-4,0.0248 0.0109,0.12377 -0.019,0.0411 -0.0931,-0.11562 -0.22444,-0.11733 -0.33916,-0.0526 0.0545,-0.0377 0.11169,-0.0723 0.17165,-0.10289 0.17291,-0.0851 0.3592,-0.14585 0.55248,-0.18432 0.18422,-0.0237 0.36055,-0.0834 0.54773,-0.0927 0.20953,-0.002 0.41961,-0.0175 0.62878,-5.4e-4 0.46046,0 0.46046,0.57312 0,0.57312 z"
       inkscape:connector-curvature="0"
       inkscape:export-filename="/home/sade/Desktop/net-game/images/troops/constructor.png"
       inkscape:export-xdpi="90"
       inkscape:export-ydpi="90" />
    <path
       style="fill:#000000;fill-opacity:1"
       id="path6354"
       d="m 161.77908,683.11945 c -0.28653,-0.0407 -0.54733,-0.14981 -0.7771,-0.30258 -0.14235,-0.11316 -0.25006,-0.2456 -0.31633,-0.40387 -0.0418,-0.10741 -0.0545,-0.22131 -0.0519,-0.33428 -0.0211,-0.0431 0.0597,-0.30895 0.0242,-0.23072 -8.4e-4,-0.0749 0.0736,-0.17475 0.10098,-0.22225 0.0905,-0.20733 0.65979,0.0755 0.5384,0.27187 -0.0308,0.0409 -0.0282,0.0913 -0.0285,0.14053 -0.004,0.0772 -0.009,0.15481 -0.006,0.23212 -0.005,0.1251 0.002,0.0892 0.0434,0.18865 0.0584,0.16528 0.037,0.0635 -0.0437,0.011 0.15241,-0.0728 -0.23303,0.0541 0.0594,-0.0418 0.10505,-0.0319 0.21486,-0.0453 0.32426,-0.0591 0.46164,-0.0486 0.53975,0.52598 0.0781,0.57458 l 0,0 c -0.0686,0.005 -0.13745,0.01 -0.20519,0.0212 -0.15969,0.0335 -0.31296,0.0799 -0.47438,0.0225 -0.17175,-0.077 -0.29533,-0.17543 -0.34404,-0.34761 -0.0415,-0.12063 -0.0839,-0.23916 -0.0681,-0.36723 0.003,-0.0894 -0.004,-0.17904 0.001,-0.26851 0.0133,-0.12561 0.0318,-0.25033 0.1013,-0.36332 0.1226,-0.21599 0.74598,-0.006 0.59052,0.211 -0.0226,0.0465 -0.0468,0.0973 -0.0858,0.13512 -0.0116,0.011 0.02,-0.0254 0.0248,-0.04 0.009,-0.0272 -0.002,-0.0601 0.0159,-0.0834 0.0139,-0.0182 -0.002,0.0439 -0.003,0.0659 -0.0602,0.2523 -0.002,-0.12234 -0.0188,0.14106 0.003,0.045 0.004,0.0899 0.0126,0.13398 0.0329,0.0595 0.0656,0.11659 0.12649,0.15901 0.13472,0.0991 0.33627,0.11794 0.4877,0.19072 0.45462,0.0667 0.34747,0.63252 -0.10715,0.56583 z"
       inkscape:connector-curvature="0"
       inkscape:export-filename="/home/sade/Desktop/net-game/images/troops/constructor.png"
       inkscape:export-xdpi="90"
       inkscape:export-ydpi="90" />
    <path
       style="fill:#000000;fill-opacity:1"
       id="path6356"
       d="m 162.61459,683.46551 c -0.25446,0.0471 -0.51022,0.0836 -0.7643,0.13335 -0.231,0.0562 -0.46405,0.0453 -0.69388,-0.006 -0.11336,-0.0324 -0.22863,-0.0502 -0.33674,-0.0965 -0.10787,-0.0533 -0.19153,-0.099 -0.29906,-0.18466 -0.0899,-0.0735 -0.15122,-0.16072 -0.21167,-0.25349 -0.0646,-0.17166 -0.0109,-0.20293 0.0875,-0.39679 0.33049,-0.25006 0.73232,0.16127 0.40184,0.41133 l 0,0 c 0.23541,-0.5511 0.10849,-0.16475 0.0889,-0.21507 -0.11041,-0.1339 0.0515,0.0377 0.0857,0.0606 0.009,0.011 0.0432,0.0322 0.0281,0.0313 -0.01,-5.9e-4 -0.0358,-0.011 -0.0275,-0.007 0.0428,0.0214 0.0906,0.0356 0.13313,0.0579 0.006,0.004 0.0224,0.004 0.0191,0.01 -0.004,0.007 -0.0337,-8.8e-4 -0.0257,0.001 0.0573,0.0185 0.12686,0.0141 0.18631,0.0273 0.14407,0.018 0.26357,0.0365 0.40561,-0.0125 0.26828,-0.0626 0.53667,-0.11672 0.81544,-0.12748 0.45462,-0.0667 0.56178,0.49915 0.10716,0.56584 z"
       inkscape:connector-curvature="0"
       inkscape:export-xdpi="90"
       inkscape:export-ydpi="90"
       inkscape:export-filename="/home/sade/Desktop/net-game/images/troops/constructor.png" />
  </g>
</svg>
