<?xml version="1.0" encoding="UTF-8" standalone="no"?>
<!-- Created with Inkscape (http://www.inkscape.org/) -->

<svg
   xmlns:dc="http://purl.org/dc/elements/1.1/"
   xmlns:cc="http://creativecommons.org/ns#"
   xmlns:rdf="http://www.w3.org/1999/02/22-rdf-syntax-ns#"
   xmlns:svg="http://www.w3.org/2000/svg"
   xmlns="http://www.w3.org/2000/svg"
   xmlns:sodipodi="http://sodipodi.sourceforge.net/DTD/sodipodi-0.dtd"
   xmlns:inkscape="http://www.inkscape.org/namespaces/inkscape"
   version="1.1"
   width="29.000002"
   height="29"
   id="svg3323"
   inkscape:version="0.48.3.1 r9886"
   sodipodi:docname="DNSPoison.svg"
   inkscape:export-filename="/home/sade/Desktop/net-game/images/troops/dns_poison.png"
   inkscape:export-xdpi="90"
   inkscape:export-ydpi="90">
  <sodipodi:namedview
     pagecolor="#ffffff"
     bordercolor="#666666"
     borderopacity="1"
     objecttolerance="10"
     gridtolerance="10"
     guidetolerance="10"
     inkscape:pageopacity="0"
     inkscape:pageshadow="2"
     inkscape:window-width="1311"
     inkscape:window-height="744"
     id="namedview26"
     showgrid="false"
     fit-margin-top="0"
     fit-margin-left="0"
     fit-margin-right="0"
     fit-margin-bottom="0"
     inkscape:zoom="13.628936"
     inkscape:cx="32.011058"
     inkscape:cy="26.745599"
     inkscape:window-x="55"
     inkscape:window-y="24"
     inkscape:window-maximized="1"
     inkscape:current-layer="svg3323" />
  <defs
     id="defs3325" />
  <metadata
     id="metadata3328">
    <rdf:RDF>
      <cc:Work
         rdf:about="">
        <dc:format>image/svg+xml</dc:format>
        <dc:type
           rdf:resource="http://purl.org/dc/dcmitype/StillImage" />
        <dc:title></dc:title>
      </cc:Work>
    </rdf:RDF>
  </metadata>
  <path
     sodipodi:type="arc"
     style="fill:#000000;fill-opacity:1"
     id="path3003"
     sodipodi:cx="24.816341"
     sodipodi:cy="203.70081"
     sodipodi:rx="268.84369"
     sodipodi:ry="271.94574"
     d="m 293.66003,203.70081 a 268.84369,271.94574 0 1 1 -3.00747,-40.563"
     sodipodi:start="0"
     sodipodi:end="6.1334682"
     sodipodi:open="true"
     transform="matrix(0.05393469,0,0,0.05331946,13.161539,3.638783)"
     inkscape:export-filename="/home/sade/Desktop/net-game/images/troops/troop svg files/dns_poison.png"
     inkscape:export-xdpi="90"
     inkscape:export-ydpi="90" />
  <path
     sodipodi:type="arc"
     style="fill:#f6ffd5;fill-opacity:1"
     id="path3005"
     sodipodi:cx="92.027267"
     sodipodi:cy="224.38109"
     sodipodi:rx="172.68037"
     sodipodi:ry="180.95248"
     d="M 264.70764,224.38109 A 172.68037,180.95248 0 1 1 262.77592,197.3905"
     sodipodi:start="0"
     sodipodi:end="6.1334682"
     sodipodi:open="true"
     transform="matrix(0.076865,0,0,0.07403788,7.4263193,-2.112697)"
     inkscape:export-filename="/home/sade/Desktop/net-game/images/troops/troop svg files/dns_poison.png"
     inkscape:export-xdpi="90"
     inkscape:export-ydpi="90" />
  <g
     transform="matrix(0.84361801,0,0,0.89830509,-353.03575,-446.8965)"
     id="layer1"
     inkscape:export-filename="/home/sade/Desktop/net-game/images/troops/troop svg files/dns_poison.png"
     inkscape:export-xdpi="90"
     inkscape:export-ydpi="90">
    <path
       d="m 429.77441,524.58406 c 0.40858,0.40367 0.92378,0.62509 1.45202,0.80883 1.56778,0.49319 3.22052,0.31463 4.81954,0.1154 2.00976,-0.3134 3.94023,-0.98179 5.83511,-1.71826 0.78141,-0.29257 1.55863,-0.59802 2.32688,-0.92568 0.0876,-0.0476 0.17982,-0.0692 0.27752,-0.0734 0,0 -0.72461,0.59468 -0.72461,0.59468 l 0,0 c -0.10232,0.0249 -0.19692,0.0709 -0.29042,0.12012 -0.82394,0.39518 -1.66637,0.7481 -2.51549,1.08154 -1.90834,0.76432 -3.85932,1.45236 -5.89871,1.72988 -1.5692,0.16631 -3.1912,0.29204 -4.70257,-0.27792 -0.5071,-0.22007 -1.00922,-0.47147 -1.35194,-0.93256 0,0 0.77267,-0.52261 0.77267,-0.52261 z"
       id="path2995"
       style="fill:#1f241c;fill-opacity:1"
       inkscape:connector-curvature="0"
       inkscape:export-filename="/home/sade/Desktop/net-game/images/troops/troop svg files/dns_poison.png"
       inkscape:export-xdpi="90"
       inkscape:export-ydpi="90" />
    <path
       d="m 437.71166,513.4839 c -0.34628,-0.31157 0.18195,-0.35823 0.69872,-0.59329 0.006,-0.003 0.0899,0.0998 0.18441,0.21248 0.7172,0.89436 1.32228,1.8698 1.92702,2.83996 0.92822,1.50976 1.79681,3.05435 2.65364,4.60451 0.44692,0.79957 0.86434,1.61426 1.31398,2.41234 0,0 -0.96773,0.59321 -0.96773,0.59321 l 0,0 c -0.47454,-0.78318 -0.915,-1.58527 -1.38066,-2.37365 -0.88229,-1.53489 -1.77251,-3.06526 -2.65703,-4.59888 -0.5663,-0.98994 -1.12577,-1.98437 -1.72859,-2.95321 -0.081,-0.13832 -0.15754,-0.26556 -0.15096,-0.271 0.84451,-0.69671 0.60074,-0.70461 0.89525,-0.38422 0,0 -0.78805,0.51175 -0.78805,0.51175 z"
       id="path3015"
       style="fill:#1f241c;fill-opacity:1"
       inkscape:connector-curvature="0"
       inkscape:export-filename="/home/sade/Desktop/net-game/images/troops/troop svg files/dns_poison.png"
       inkscape:export-xdpi="90"
       inkscape:export-ydpi="90" />
    <path
       d="m 432.81788,513.72553 c 0.007,-0.47813 0.37949,-0.10507 0.88257,0.13058 0.006,0.003 -0.0158,0.13701 -0.0382,0.2864 -0.19843,1.16031 -0.5281,2.29003 -0.85411,3.41587 -0.51557,1.74218 -1.09485,3.46242 -1.68574,5.17745 -0.3016,0.88842 -0.63317,1.76455 -0.93194,2.65403 0,0 -1.05451,-0.33682 -1.05451,-0.33682 l 0,0 c 0.27191,-0.89841 0.57949,-1.7836 0.86089,-2.67874 0.5634,-1.72412 1.1184,-3.45123 1.67944,-5.1762 0.36511,-1.10988 0.73789,-2.21761 1.06416,-3.34108 0.0498,-0.15651 0.0943,-0.30205 0.10255,-0.30071 1.05176,0.17172 0.9017,-0.0205 0.85465,0.42394 0,0 -0.87979,-0.25472 -0.87979,-0.25472 z"
       id="path3015-2"
       style="fill:#1f241c;fill-opacity:1"
       inkscape:connector-curvature="0"
       inkscape:export-filename="/home/sade/Desktop/net-game/images/troops/troop svg files/dns_poison.png"
       inkscape:export-xdpi="90"
       inkscape:export-ydpi="90" />
    <path
       d="m 433.89744,510.13193 c -0.0527,0.3681 -0.0491,0.74091 -0.0495,1.11176 -0.0179,0.68881 -0.0491,1.37732 -0.0865,2.06535 -0.0306,0.36085 -0.0131,0.18731 -0.0514,0.52071 0,0 -0.87918,0.47001 -0.87918,0.47001 l 0,0 c 0.007,-0.31546 0.004,-0.15085 0.0109,-0.49385 -0.003,-0.69 0.0225,-1.37986 0.0866,-2.06717 0.0318,-0.40443 0.0456,-0.82786 0.195,-1.21016 0,0 0.77416,-0.39665 0.77416,-0.39665 z"
       id="path3099"
       style="fill:#1f241c;fill-opacity:1"
       inkscape:connector-curvature="0"
       inkscape:export-filename="/home/sade/Desktop/net-game/images/troops/troop svg files/dns_poison.png"
       inkscape:export-xdpi="90"
       inkscape:export-ydpi="90" />
    <path
       d="m 437.45333,509.36701 c 0.0692,0.3665 0.19891,0.72056 0.32376,1.07396 0.2139,0.66155 0.41391,1.32679 0.60716,1.99347 0.0899,0.35295 0.0496,0.18236 0.12213,0.5115 0,0 -0.76054,0.71213 -0.76054,0.71213 l 0,0 c -0.099,-0.30266 -0.0472,-0.14476 -0.15546,-0.4737 -0.236,-0.65645 -0.44251,-1.32124 -0.60769,-1.99523 -0.10333,-0.39484 -0.23201,-0.80233 -0.20487,-1.21145 0,0 0.67551,-0.61068 0.67551,-0.61068 z"
       id="path3099-1"
       style="fill:#1f241c;fill-opacity:1"
       inkscape:connector-curvature="0"
       inkscape:export-filename="/home/sade/Desktop/net-game/images/troops/troop svg files/dns_poison.png"
       inkscape:export-xdpi="90"
       inkscape:export-ydpi="90" />
    <path
       d="m 431.21547,506.98124 c 0.49415,-0.0321 0.98791,-0.0671 1.48119,-0.11131 1.21922,-0.11506 2.43276,-0.27958 3.64208,-0.46988 1.11417,-0.18142 2.22032,-0.41938 3.34849,-0.49746 0,0 -0.84456,0.66549 -0.84456,0.66549 l 0,0 c -1.17116,0.21559 -2.33994,0.44494 -3.51617,0.63249 -1.15714,0.16325 -2.3191,0.30946 -3.48915,0.33626 -0.43801,0.01 -0.87877,0.0268 -1.31497,-0.0241 0,0 0.69309,-0.53149 0.69309,-0.53149 z"
       id="path3141"
       style="fill:#1f241c;fill-opacity:1"
       inkscape:connector-curvature="0"
       inkscape:export-filename="/home/sade/Desktop/net-game/images/troops/troop svg files/dns_poison.png"
       inkscape:export-xdpi="90"
       inkscape:export-ydpi="90" />
    <path
       d="m 439.444,505.78531 c -0.0229,0.21822 -0.11076,0.42181 -0.18774,0.62539 -0.16134,0.46392 -0.39843,0.89633 -0.62576,1.33075 -0.3333,0.61891 -0.67146,1.23485 -0.9606,1.87549 -0.0262,0.0682 -0.0524,0.13647 -0.0786,0.20471 0,0 -0.87356,0.44379 -0.87356,0.44379 l 0,0 c 0.0123,-0.0645 0.0247,-0.12893 0.037,-0.19339 0.21361,-0.6658 0.57086,-1.26871 0.92215,-1.87133 0.25372,-0.44981 0.53279,-0.88949 0.72784,-1.36845 0.0951,-0.21687 0.19809,-0.43204 0.26717,-0.65874 0,0 0.77215,-0.38822 0.77215,-0.38822 z"
       id="path3162"
       style="fill:#1f241c;fill-opacity:1"
       inkscape:connector-curvature="0"
       inkscape:export-filename="/home/sade/Desktop/net-game/images/troops/troop svg files/dns_poison.png"
       inkscape:export-xdpi="90"
       inkscape:export-ydpi="90" />
    <path
       d="m 430.57146,507.6306 c -0.0512,-0.0134 -0.10037,-0.035 -0.1481,-0.0596 0.20625,-0.14767 0.407,-0.30583 0.61875,-0.44302 0.01,-0.006 0.0171,0.0175 0.0264,0.025 0.0189,0.0151 0.0396,0.0271 0.0582,0.0427 0.11338,0.0955 0.22139,0.20225 0.33036,0.30402 0.42848,0.37625 0.83755,0.77995 1.23751,1.19478 0.39063,0.41567 0.74828,0.87229 1.05248,1.37339 0.0614,0.10619 0.11819,0.21369 0.15786,0.33245 0,0 -0.64725,0.46162 -0.64725,0.46162 l 0,0 c -0.0763,-0.089 -0.14716,-0.18345 -0.22055,-0.27553 -0.3574,-0.45078 -0.72825,-0.88791 -1.10989,-1.31203 -0.38941,-0.4148 -0.77958,-0.829 -1.16237,-1.25165 -0.0946,-0.11255 -0.18889,-0.22362 -0.27595,-0.34387 -0.0466,-0.0644 -0.0759,-0.10416 -0.071,-0.10879 0.18955,-0.17599 0.39721,-0.32498 0.59583,-0.48746 0.0522,0.014 0.10448,0.03 0.15357,0.0551 0,0 -0.5959,0.49292 -0.5959,0.49292 z"
       id="path3164"
       style="fill:#1f241c;fill-opacity:1"
       inkscape:connector-curvature="0"
       inkscape:export-filename="/home/sade/Desktop/net-game/images/troops/troop svg files/dns_poison.png"
       inkscape:export-xdpi="90"
       inkscape:export-ydpi="90" />
    <path
       d="m 430.80711,523.36152 c 0.28439,-0.015 0.56704,-0.0449 0.84926,-0.0831 0.32378,-0.0455 0.64203,-0.11816 0.95754,-0.20185 0,0 -0.77424,0.62624 -0.77424,0.62624 l 0,0 c -0.31318,0.0817 -0.62904,0.15446 -0.95306,0.1789 -0.25374,0.0185 -0.50976,0.0372 -0.76323,0.004 0,0 0.68373,-0.5243 0.68373,-0.5243 z"
       id="path3186"
       style="fill:#1f241c;fill-opacity:1"
       inkscape:connector-curvature="0"
       inkscape:export-filename="/home/sade/Desktop/net-game/images/troops/troop svg files/dns_poison.png"
       inkscape:export-xdpi="90"
       inkscape:export-ydpi="90" />
    <path
       d="m 431.03826,521.99045 c 0.18585,-0.0143 0.3719,0.0184 0.5578,0.0305 0.23205,0.0129 0.46438,-0.0123 0.69448,-0.0394 0,0 -0.76396,0.59729 -0.76396,0.59729 l 0,0 c -0.22243,0.0151 -0.44647,0.0281 -0.66834,-0.003 -0.16804,-0.0202 -0.3345,-0.0519 -0.50371,-0.0612 0,0 0.68373,-0.52431 0.68373,-0.52431 z"
       id="path3188"
       style="fill:#1f241c;fill-opacity:1"
       inkscape:connector-curvature="0"
       inkscape:export-filename="/home/sade/Desktop/net-game/images/troops/troop svg files/dns_poison.png"
       inkscape:export-xdpi="90"
       inkscape:export-ydpi="90" />
    <path
       d="m 431.50575,520.44765 c 0.35498,-0.064 0.71649,-0.0847 1.07446,-0.13073 0.70395,-0.12289 1.39868,-0.30031 2.07464,-0.52986 0.21713,-0.0807 0.43105,-0.16485 0.63684,-0.27046 0,0 -0.7379,0.62424 -0.7379,0.62424 l 0,0 c -0.23332,0.12081 -0.47218,0.22846 -0.71926,0.31962 -0.66647,0.22868 -1.35276,0.41205 -2.05627,0.48421 -0.31606,0.0213 -0.6332,0.0174 -0.9482,0.0478 0,0 0.67569,-0.54486 0.67569,-0.54486 z"
       id="path3190"
       style="fill:#1f241c;fill-opacity:1"
       inkscape:connector-curvature="0"
       inkscape:export-filename="/home/sade/Desktop/net-game/images/troops/troop svg files/dns_poison.png"
       inkscape:export-xdpi="90"
       inkscape:export-ydpi="90" />
    <path
       d="m 432.0399,518.86746 c 0.17903,-0.0191 0.35737,-0.008 0.53616,0.006 0.34632,0.0342 0.69144,0.0107 1.03311,-0.0491 0.0564,-0.0141 0.11269,-0.0282 0.16904,-0.0423 0,0 -0.74639,0.6008 -0.74639,0.6008 l 0,0 c -0.0596,0.0135 -0.11924,0.027 -0.17885,0.0405 -0.33755,0.0474 -0.67821,0.0601 -1.0162,0.005 -0.16006,-0.0201 -0.31956,-0.03 -0.4806,-0.0371 0,0 0.68373,-0.52431 0.68373,-0.52431 z"
       id="path3192"
       style="fill:#1f241c;fill-opacity:1"
       inkscape:connector-curvature="0"
       inkscape:export-filename="/home/sade/Desktop/net-game/images/troops/troop svg files/dns_poison.png"
       inkscape:export-xdpi="90"
       inkscape:export-ydpi="90" />
    <path
       d="m 432.57925,517.57255 c 0.14873,-0.01 0.29804,-0.0109 0.44707,-0.0125 0.19129,0.004 0.38047,-0.0156 0.56715,-0.0557 0,0 -0.71957,0.57339 -0.71957,0.57339 l 0,0 c -0.18683,0.03 -0.3745,0.0436 -0.56383,0.0315 -0.13817,-10e-4 -0.27676,-0.002 -0.41455,-0.0125 0,0 0.68373,-0.52431 0.68373,-0.52431 z"
       id="path3194"
       style="fill:#1f241c;fill-opacity:1"
       inkscape:connector-curvature="0"
       inkscape:export-filename="/home/sade/Desktop/net-game/images/troops/troop svg files/dns_poison.png"
       inkscape:export-xdpi="90"
       inkscape:export-ydpi="90" />
    <path
       d="m 432.82195,515.74266 c 0.36614,-0.0239 0.73168,-0.0373 1.09669,-0.0772 0.3727,-0.0385 0.73385,-0.13563 1.08759,-0.25372 0,0 -0.78812,0.64497 -0.78812,0.64497 l 0,0 c -0.35646,0.11261 -0.71905,0.20763 -1.09473,0.22938 -0.32989,0.0194 -0.66104,0.0237 -0.98984,-0.0156 0,0 0.68841,-0.5279 0.68841,-0.5279 z"
       id="path3196"
       style="fill:#1f241c;fill-opacity:1"
       inkscape:connector-curvature="0"
       inkscape:export-filename="/home/sade/Desktop/net-game/images/troops/troop svg files/dns_poison.png"
       inkscape:export-xdpi="90"
       inkscape:export-ydpi="90" />
    <path
       d="m 433.81255,506.16738 c -0.16884,-0.0901 -0.3547,-0.1349 -0.53885,-0.18336 -0.17936,-0.0365 -0.35846,-0.0678 -0.53606,-0.1126 -0.14671,-0.041 -0.23213,-0.13002 -0.2975,-0.26203 -0.0553,-0.12681 -0.0561,-0.26601 -0.0873,-0.39882 -0.0406,-0.11062 -0.0232,-0.22569 -0.0289,-0.34015 -0.01,-0.0971 -0.0187,-0.1943 -0.0249,-0.29171 -0.003,-0.0938 -0.004,-0.18765 -0.005,-0.28149 0.004,-0.0918 0.0437,-0.17593 0.061,-0.26529 0.0122,-0.10251 0.0157,-0.20597 0.017,-0.30913 0.005,-0.086 0.0411,-0.16552 0.0654,-0.24727 0.0383,-0.087 0.0682,-0.17652 0.10725,-0.26322 0.0366,-0.0644 0.0755,-0.11081 0.077,-0.18639 -0.005,-0.0575 -0.01,-0.115 -0.0138,-0.17258 -0.006,-0.0682 0.003,-0.13749 -0.008,-0.20499 -0.0197,-0.0741 -0.0719,-0.13071 -0.10279,-0.20047 -0.0207,-0.0823 -0.0541,-0.15979 -0.0839,-0.23904 -0.045,-0.0717 -0.0967,-0.13753 -0.1377,-0.21205 -0.0231,-0.064 -0.0719,-0.11176 -0.10091,-0.17266 -0.0263,-0.0414 -0.0528,-0.0826 -0.0795,-0.12374 -0.0149,0.0219 -0.0481,-0.0662 -0.0538,-0.0791 0,0 0.78026,-0.32827 0.78026,-0.32827 l 0,0 c -0.009,-0.0159 -0.0715,-0.11194 -0.007,-0.043 0.0339,0.0424 0.0656,0.0868 0.0907,0.13497 0.0277,0.0588 0.0817,0.10091 0.10037,0.1647 0.0462,0.0753 0.0982,0.14659 0.1427,0.22276 0.0342,0.0777 0.0681,0.15514 0.0864,0.23792 0.0269,0.0758 0.0865,0.13344 0.10822,0.21206 0.0204,0.0723 0.0124,0.14565 0.0145,0.22032 2.2e-4,0.0575 0.005,0.11428 0.0119,0.17136 0.0105,0.0817 0.0172,0.16175 -0.0538,0.21913 -0.0372,0.0881 -0.0748,0.17322 -0.10897,0.26198 -0.0371,0.0676 -0.0464,0.14778 -0.079,0.21825 -6.7e-4,0.10695 2.7e-4,0.21417 -0.0117,0.32065 -0.0116,0.0871 -0.0371,0.16925 -0.0655,0.25226 -10e-4,0.093 -0.002,0.1861 0.002,0.27908 0.002,0.0965 0.0132,0.19216 0.0253,0.28792 0.0124,0.11187 -0.0171,0.22048 0.0237,0.32761 0.0325,0.12735 0.0377,0.25764 0.0783,0.3828 0.0617,0.12726 0.11541,0.16556 0.25659,0.19742 0.18151,0.0385 0.36465,0.0673 0.54517,0.10996 0.18698,0.0521 0.37692,0.10334 0.54058,0.21096 0,0 -0.70878,0.48525 -0.70878,0.48525 z"
       id="path3216"
       style="fill:#000000;fill-opacity:1"
       inkscape:connector-curvature="0"
       inkscape:export-filename="/home/sade/Desktop/net-game/images/troops/troop svg files/dns_poison.png"
       inkscape:export-xdpi="90"
       inkscape:export-ydpi="90" />
    <path
       d="m 435.05597,505.50557 c -0.10044,-0.19377 -0.15504,-0.4031 -0.19085,-0.61659 -0.0367,-0.20473 0.001,-0.41103 0.0192,-0.61556 0.0221,-0.16843 0.0642,-0.33335 0.0876,-0.50156 0.0161,-0.10127 0.0179,-0.20365 0.0204,-0.30585 -5.6e-4,-0.0801 0.002,-0.16029 10e-4,-0.24042 -0.006,-0.0821 0.008,-0.15504 0.0543,-0.22426 0.0525,-0.0728 0.11546,-0.13668 0.17591,-0.20297 0.26072,-0.24532 0.59683,-0.38129 0.89125,-0.58752 0.22019,-0.15424 -0.45787,0.28248 -0.68681,0.42372 0.0771,-0.0511 0.14283,-0.1157 0.21371,-0.17442 0.0819,-0.0645 0.1668,-0.12527 0.25352,-0.18331 0.0709,-0.0534 0.0985,-0.13942 0.15287,-0.20703 0.0434,-0.0572 0.0838,-0.1161 0.13225,-0.16938 0.0275,-0.0575 0.0542,-0.11394 0.084,-0.17072 0.0227,-0.0693 0.0392,-0.13777 0.075,-0.20236 0.0232,-0.0309 0.0357,-0.0683 0.0403,-0.10622 0.029,-0.33825 -0.0171,-0.0432 0.73707,-0.52962 0.0139,-1.1e-4 0.0279,-1.6e-4 0.0418,-2.7e-4 0,0 -0.67403,0.52469 -0.67403,0.52469 l 0,0 c -0.0114,0.002 -0.0228,0.003 -0.0342,0.005 0.58595,-0.40028 0.67823,-0.73152 0.67986,-0.40152 -10e-4,0.0483 -0.006,0.0953 -0.0208,0.14177 -0.0412,0.0601 -0.0732,0.11805 -0.0781,0.1921 -0.0248,0.0637 -0.0686,0.11048 -0.0798,0.17843 -0.0263,0.0683 -0.0904,0.11173 -0.12456,0.17684 -0.009,0.0128 -0.0182,0.0256 -0.0273,0.0383 -0.0104,0.009 -0.0227,0.0167 -0.0313,0.0277 -0.0374,0.0476 -0.0457,0.11201 -0.087,0.15647 -0.0694,0.0786 -0.1726,0.12021 -0.25168,0.18823 -0.0761,0.0554 -0.13748,0.12459 -0.21533,0.17536 -0.24941,0.15709 -0.502,0.30936 -0.74824,0.47128 -0.22476,0.1478 0.45492,-0.28743 0.68381,-0.42891 0.011,-0.007 -0.0198,0.0164 -0.0297,0.0246 -0.0364,0.03 -0.0725,0.0605 -0.1106,0.0884 -0.0699,0.0549 -0.13063,0.1254 -0.18345,0.19474 -0.0537,0.0498 -0.0917,0.0957 -0.0819,0.17226 -2.7e-4,0.0799 0.003,0.1598 0.002,0.23972 7.2e-4,0.10378 -0.002,0.20771 -0.0102,0.31118 -0.0174,0.16679 -0.0489,0.33133 -0.0823,0.49566 -0.0178,0.19747 -0.0534,0.39701 -0.0272,0.59499 0.0351,0.21035 0.0893,0.41431 0.17198,0.61175 0,0 -0.74282,0.43504 -0.74282,0.43504 z"
       id="path3218"
       style="fill:#000000;fill-opacity:1"
       inkscape:connector-curvature="0"
       inkscape:export-filename="/home/sade/Desktop/net-game/images/troops/troop svg files/dns_poison.png"
       inkscape:export-xdpi="90"
       inkscape:export-ydpi="90" />
    <path
       d="m 437.07117,505.72197 c 0.0138,-0.20147 0.0349,-0.40352 0.0628,-0.6037 0.0338,-0.19239 0.0571,-0.38594 0.0965,-0.57731 0.0266,-0.17417 0.0978,-0.32147 0.20593,-0.45925 0.31318,-0.32685 0.7209,-0.56226 1.12754,-0.75717 0.13254,-0.0469 0.24851,-0.12613 0.38152,-0.17274 0.12751,-0.0584 0.26151,-0.1009 0.39411,-0.14599 0.31563,-0.10953 0.89586,-0.50718 -0.38361,0.27654 2.0466,-1.25559 0.15437,-0.0945 0.11153,-0.0689 -0.0193,0.0115 0.0356,-0.0272 0.0532,-0.0412 0.0532,-0.0424 0.10522,-0.0861 0.15646,-0.13081 0.11516,-0.0824 0.2012,-0.19084 0.27844,-0.30704 0.0688,-0.10592 0.12553,-0.21834 0.17353,-0.3347 0.0506,-0.13637 0.1165,-0.2653 0.1878,-0.39195 0.0508,-0.0813 0.11011,-0.15723 0.16895,-0.23298 0.051,-0.0725 0.0901,-0.1529 0.14034,-0.22555 0.0414,-0.0446 0.0562,-0.109 0.11423,-0.13634 0.0326,-0.0394 0.0606,-0.0857 0.0847,-0.1313 0.0227,-0.0707 0.0901,-0.10758 0.13587,-0.1615 0.0525,-0.0614 0.0829,-0.13704 0.12967,-0.20162 0.0245,-0.0349 0.0469,-0.0712 0.0707,-0.10665 7.1e-4,-0.004 0.004,-0.005 0.006,-0.007 0,0 0.76081,-0.37025 0.76081,-0.37025 l 0,0 c -9.1e-4,0.003 -3.3e-4,0.007 -0.003,0.0103 -0.0171,0.0378 -0.039,0.0732 -0.06,0.10898 -0.007,0.0115 -0.0142,0.023 -0.0213,0.0345 -0.008,0.007 -0.0189,0.0132 -0.0251,0.0225 -0.0308,0.0458 -0.0362,0.10931 -0.0836,0.14626 -0.036,0.0639 -0.0794,0.10973 -0.14374,0.14751 -0.0208,0.0569 -0.054,0.0981 -0.0768,0.15242 -0.022,0.0567 -0.10606,0.0616 -0.11147,0.13482 -0.0608,0.0637 -0.0893,0.14465 -0.14264,0.21547 -0.0421,0.0828 -0.11075,0.15294 -0.16715,0.22632 -0.0664,0.12684 -0.14188,0.24871 -0.18894,0.38459 -0.0547,0.11697 -0.10061,0.23692 -0.16736,0.34848 -0.0798,0.11768 -0.14811,0.24621 -0.26831,0.33 -0.0711,0.0546 -0.1328,0.12837 -0.20786,0.1769 -0.29812,0.19274 -1.6365,1.02043 -0.10902,0.0738 -0.35661,0.21935 -0.68227,0.47335 -1.07866,0.60616 -0.13158,0.0478 -0.26497,0.0906 -0.39235,0.14918 -0.12692,0.0571 -0.24878,0.12483 -0.37647,0.18053 -0.29707,0.1718 -0.0106,0.007 0.59644,-0.37135 0.0219,-0.0136 -0.0451,0.0251 -0.0671,0.0385 -0.0781,0.0476 -0.13629,0.10927 -0.205,0.16882 -0.11353,0.12572 -0.20666,0.24889 -0.22607,0.42226 -0.0414,0.18903 -0.0606,0.38005 -0.0942,0.57069 -0.034,0.19867 -0.0392,0.40144 -0.0818,0.59904 0,0 -0.75588,0.41081 -0.75588,0.41081 z"
       id="path3220"
       style="fill:#000000;fill-opacity:1"
       inkscape:connector-curvature="0"
       inkscape:export-filename="/home/sade/Desktop/net-game/images/troops/troop svg files/dns_poison.png"
       inkscape:export-xdpi="90"
       inkscape:export-ydpi="90" />
    <path
       d="m 431.96262,506.48268 c -0.19918,-0.0448 -0.39779,-0.0968 -0.5935,-0.15508 -0.187,-0.0629 -0.37679,-0.11567 -0.56188,-0.18398 -0.16991,-0.053 -0.30603,-0.1455 -0.42692,-0.27245 -0.27795,-0.35663 -0.44984,-0.79138 -0.58143,-1.21878 -0.0263,-0.13673 -0.0874,-0.26229 -0.11334,-0.39943 -0.0385,-0.1336 -0.0602,-0.27106 -0.0847,-0.40756 -0.0604,-0.32526 -0.36762,-0.95369 0.21674,0.41759 -0.93671,-2.19375 -0.0705,-0.16544 -0.0515,-0.11962 0.009,0.0206 -0.0217,-0.039 -0.0329,-0.0583 -0.0341,-0.0585 -0.0697,-0.11614 -0.10641,-0.17312 -0.0644,-0.12525 -0.15944,-0.22614 -0.26355,-0.31962 -0.0952,-0.0836 -0.19867,-0.15651 -0.3075,-0.22147 -0.1284,-0.0706 -0.247,-0.15499 -0.36247,-0.24429 -0.0733,-0.0622 -0.14002,-0.13196 -0.20657,-0.20119 -0.0645,-0.0611 -0.13877,-0.11179 -0.20357,-0.1721 -0.0382,-0.0474 -0.10019,-0.0718 -0.11849,-0.13273 -0.0343,-0.038 -0.0762,-0.0725 -0.11805,-0.10312 -0.0671,-0.0331 -0.0935,-0.10468 -0.14027,-0.15778 -0.0532,-0.0608 -0.12406,-0.10227 -0.18132,-0.15796 -0.0311,-0.0294 -0.0639,-0.0569 -0.0956,-0.0856 -0.003,-10e-4 -0.004,-0.005 -0.006,-0.007 0,0 -0.25178,-0.80052 -0.25178,-0.80052 l 0,0 c 0.003,0.001 0.007,0.001 0.01,0.004 0.0351,0.0226 0.0671,0.0495 0.0996,0.0756 0.0104,0.009 0.0208,0.0175 0.0312,0.0262 0.006,0.009 0.0102,0.0205 0.0186,0.028 0.041,0.0371 0.10359,0.0524 0.13316,0.10437 0.0583,0.045 0.0973,0.0946 0.12507,0.16329 0.0536,0.0291 0.0896,0.0679 0.14038,0.0986 0.0532,0.0303 0.0451,0.11315 0.1174,0.12981 0.0542,0.0693 0.13067,0.1097 0.19316,0.17278 0.0762,0.0539 0.13562,0.13191 0.20018,0.1984 0.11643,0.0846 0.22649,0.17719 0.35495,0.24426 0.10838,0.0716 0.22111,0.13506 0.32222,0.21758 0.10519,0.0962 0.22302,0.18289 0.28807,0.31329 0.0435,0.0779 0.10765,0.14964 0.14448,0.23048 0.14628,0.32109 0.76543,1.75672 0.0568,0.11793 0.16379,0.38234 0.36701,0.73984 0.43814,1.14759 0.0273,0.13592 0.0494,0.27283 0.0881,0.40633 0.0374,0.13283 0.0861,0.26236 0.12191,0.3957 0.12552,0.31681 0.005,0.0114 -0.27841,-0.64016 -0.0102,-0.0235 0.0181,0.0479 0.0281,0.0715 0.0354,0.0837 0.088,0.15007 0.13685,0.22643 0.10799,0.1304 0.2166,0.24048 0.38682,0.28638 0.18247,0.0698 0.37036,0.11821 0.55564,0.18069 0.19323,0.0641 0.39505,0.10062 0.58587,0.17298 0,0 0.29307,0.80201 0.29307,0.80201 z"
       id="path3220-0"
       style="fill:#000000;fill-opacity:1"
       inkscape:connector-curvature="0"
       inkscape:export-filename="/home/sade/Desktop/net-game/images/troops/troop svg files/dns_poison.png"
       inkscape:export-xdpi="90"
       inkscape:export-ydpi="90" />
    <path
       d="m 433.6889,511.22108 c 0.1623,0.0703 0.31475,0.16007 0.47347,0.23761 0.16063,0.0649 0.31824,0.13637 0.47839,0.20248 0.14932,0.0618 0.30753,0.0954 0.46711,0.11771 0.12297,0.0101 0.24663,0.007 0.3699,0.006 0.14064,-0.0105 0.2499,-0.0783 0.36569,-0.14836 0.0865,-0.0538 0.18647,-0.0657 0.27814,-0.10927 0.0153,-0.005 0.0316,-0.007 0.0458,-0.0147 0.13257,-0.0693 -0.0694,0.0135 0.0779,-0.0503 0.0484,-0.0209 0.0941,-0.0316 0.14059,-0.0574 0.0462,-0.0283 0.1039,-0.0322 0.15255,-0.0527 0.0402,-0.0169 0.0719,-0.0481 0.11275,-0.0657 -0.0108,0.0195 0.0908,-0.0516 0.0686,-0.038 -0.22922,0.14004 -0.9246,0.54665 -0.6863,0.4223 0.15501,-0.0809 0.52897,-0.42269 0.83757,-0.48185 0.067,-0.0143 0.13563,-0.0135 0.20375,-0.0133 0.0679,5e-5 0.13576,0.001 0.20364,8.3e-4 0.0824,-4.3e-4 0.16485,-7.3e-4 0.24727,-5e-5 0.0426,-0.005 0.11497,0.0229 0.13162,-0.0217 0,0 -0.65161,0.54511 -0.65161,0.54511 l 0,0 c -0.0524,-0.007 -0.10527,-0.003 -0.1581,-0.003 -0.0822,5.9e-4 -0.16445,1.6e-4 -0.24666,-7.9e-4 -0.0672,-7.6e-4 -0.13451,-0.001 -0.20169,5.3e-4 -0.065,0.003 -0.12934,0.009 -0.19062,0.0329 -0.0234,0.0102 -0.0909,0.0462 -0.0693,0.0327 0.22743,-0.1419 0.91424,-0.56039 0.68408,-0.42288 -0.30538,0.18246 -0.53205,0.35966 -0.82541,0.4992 -0.0851,0.0498 -0.18069,0.0742 -0.26891,0.11819 -0.0908,0.0355 -0.17428,0.0838 -0.26513,0.11907 -0.0937,0.036 -0.19254,0.0576 -0.27379,0.12052 -0.12174,0.0711 -0.25438,0.11313 -0.39705,0.11398 -0.12522,-6.2e-4 -0.25092,-3.7e-4 -0.3753,-0.0167 -0.16787,-0.0227 -0.33305,-0.0625 -0.4883,-0.13101 -0.15958,-0.0703 -0.32004,-0.13835 -0.48022,-0.20724 -0.1582,-0.0793 -0.3154,-0.16135 -0.46926,-0.24847 0,0 0.70878,-0.48525 0.70878,-0.48525 z"
       id="path3270"
       style="fill:#1f241c;fill-opacity:1"
       inkscape:connector-curvature="0"
       inkscape:export-filename="/home/sade/Desktop/net-game/images/troops/troop svg files/dns_poison.png"
       inkscape:export-xdpi="90"
       inkscape:export-ydpi="90" />
    <path
       d="m 431.95547,525.52408 c -0.52612,-0.1109 -1.54099,-0.47322 -1.54099,-0.55015 0,-0.0247 0.0762,-0.27879 0.16926,-0.56455 0.16711,-0.51291 0.17277,-0.51956 0.44304,-0.51998 0.46493,-6.9e-4 0.86459,-0.15364 1.25748,-0.48115 0.2073,-0.1728 0.34324,-0.32527 0.30211,-0.33883 -0.0411,-0.0135 -0.30608,0.0284 -0.58877,0.0932 -0.2827,0.0648 -0.62889,0.11784 -0.76933,0.11784 l -0.25535,0 0.12468,-0.34277 c 0.0997,-0.27406 0.16099,-0.34276 0.30579,-0.34276 0.15589,0 0.92448,-0.50135 0.93419,-0.60937 0.002,-0.0209 -0.20342,-0.0265 -0.45623,-0.0124 l -0.45965,0.0257 0.16233,-0.48269 c 0.0893,-0.26548 0.16828,-0.49062 0.17556,-0.50032 0.007,-0.01 0.27734,-0.0676 0.60013,-0.12863 0.68131,-0.12887 1.41411,-0.34687 1.90724,-0.56738 0.35225,-0.15751 1.24555,-0.90425 0.96312,-0.8051 -1.11208,0.39041 -1.49265,0.5063 -2.09879,0.63912 -0.39154,0.0858 -0.80169,0.156 -0.91145,0.156 -0.18495,0 -0.19558,-0.0181 -0.1451,-0.24756 0.12194,-0.55426 0.15581,-0.59032 0.55442,-0.59032 0.31862,0 0.42198,-0.0429 0.75314,-0.31241 0.21111,-0.17182 0.40076,-0.32852 0.42145,-0.34821 0.0207,-0.0197 -0.26536,-0.0115 -0.63566,0.0182 -0.74602,0.0598 -0.736,0.0673 -0.58403,-0.43418 0.0515,-0.16978 0.13762,-0.29447 0.20349,-0.29447 0.0628,0 0.28516,-0.12854 0.49405,-0.28564 l 0.37979,-0.28564 -0.39112,-0.023 c -0.44133,-0.026 -0.43382,0.0106 -0.166,-0.8088 l 0.12252,-0.37481 0.48781,-0.0977 c 0.37366,-0.0749 0.58465,-0.17431 0.90168,-0.42498 0.41463,-0.32784 0.53911,-0.50394 0.28634,-0.40506 -0.20519,0.0803 -1.1138,0.26542 -1.30985,0.26691 -0.21277,0.002 -0.21305,0.0169 0.0201,-1.10315 0.12028,-0.57798 0.19052,-1.17045 0.19103,-1.61142 l 8.1e-4,-0.69738 0.59713,0.04 c 0.57419,0.0385 0.62418,0.0279 1.30076,-0.2738 0.48282,-0.21531 0.80923,-0.31341 1.04017,-0.3126 l 0.33655,10e-4 0.26286,0.85574 c 0.14458,0.47066 0.33863,0.99285 0.43122,1.16042 0.0926,0.16758 1.36527,2.36921 2.82818,4.89253 l 2.65983,4.58784 -1.35743,0.52583 c -2.59407,1.00487 -4.5785,1.56221 -6.41481,1.80164 -1.06918,0.13941 -2.86102,0.13697 -3.53365,-0.005 z"
       id="path3272"
       style="fill:#8dd35f;fill-opacity:1"
       inkscape:connector-curvature="0"
       inkscape:export-filename="/home/sade/Desktop/net-game/images/troops/troop svg files/dns_poison.png"
       inkscape:export-xdpi="90"
       inkscape:export-ydpi="90" />
  </g>
  <path
     style="fill:#ffffff;fill-opacity:1"
     d="m 13.794719,12.722023 c -0.66653,-0.19995 -0.77426,-0.31742 -0.77426,-0.84429 0,-0.58171 -0.34712,-1.15064 -1.32167,-2.16617 -0.49551,-0.51636 -0.56608,-0.63403 -0.3802,-0.63403 0.63382,0 2.69613,-0.26319 3.93264,-0.50188 0.76683,-0.14802 1.43019,-0.26933 1.47413,-0.26956 0.0439,-2.3e-4 -0.25003,0.66343 -0.65326,1.4748 -0.70937,1.42737 -0.72965,1.49152 -0.62493,1.97691 l 0.10823,0.50167 -0.66136,0.28355 c -0.71921,0.30836 -0.68607,0.30296 -1.09932,0.179 l 0,0 z"
     id="path3132"
     inkscape:connector-curvature="0"
     inkscape:export-filename="/home/sade/Desktop/net-game/images/troops/troop svg files/dns_poison.png"
     inkscape:export-xdpi="90"
     inkscape:export-ydpi="90" />
  <path
     style="fill:#99ff55;fill-opacity:1"
     d="m 11.015808,25.034584 c -0.815288,-0.244537 -0.900069,-0.302479 -0.840361,-0.574329 0.02725,-0.124049 0.09584,-0.33637 0.152441,-0.471825 0.08455,-0.202344 0.142418,-0.246282 0.324395,-0.246282 0.279185,0 0.65606,-0.155956 0.987169,-0.408505 0.296247,-0.225959 0.345169,-0.42073 0.09175,-0.365264 -0.244307,0.05347 -1.026509,0.186783 -1.095943,0.186783 -0.03306,0 -0.0174,-0.104654 0.03479,-0.232565 0.0637,-0.156107 0.236877,-0.31893 0.526769,-0.49527 0.557109,-0.338884 0.594441,-0.446138 0.155289,-0.446138 -0.369765,0 -0.380328,-0.01944 -0.248925,-0.45802 0.0994,-0.331771 0.147172,-0.358921 1.00646,-0.572007 0.339297,-0.08414 0.818058,-0.247146 1.063913,-0.362238 0.478084,-0.223805 1.067416,-0.687999 0.982628,-0.773978 -0.02825,-0.02865 -0.358432,0.05385 -0.733733,0.183328 -0.661371,0.228175 -1.502134,0.438197 -1.764621,0.440802 -0.09335,9.25e-4 -0.128403,-0.05739 -0.128403,-0.213605 0,-0.266981 0.169385,-0.444671 0.427138,-0.448081 0.108094,-0.0014 0.263957,-0.0427 0.346362,-0.09172 0.279915,-0.166493 0.620593,-0.446649 0.620593,-0.510345 0,-0.0349 -0.214907,-0.05649 -0.477571,-0.04799 -0.262664,0.0085 -0.496932,-0.0039 -0.520596,-0.02756 -0.02366,-0.02366 -0.02115,-0.142603 0.0056,-0.26431 0.03441,-0.156648 0.138275,-0.273838 0.355595,-0.401195 0.168845,-0.09895 0.369851,-0.249368 0.446678,-0.334261 l 0.139685,-0.154351 -0.292636,0 c -0.16095,0 -0.311413,-0.01878 -0.334362,-0.04173 -0.02295,-0.02295 0.01559,-0.244993 0.08565,-0.493429 l 0.127376,-0.451703 0.417975,-0.102013 c 0.306171,-0.07473 0.510602,-0.186142 0.764257,-0.416523 0.190456,-0.172981 0.326218,-0.33507 0.301694,-0.360198 -0.02452,-0.02513 -0.237823,0.0046 -0.473998,0.06616 -0.236176,0.06152 -0.522157,0.111847 -0.635513,0.111847 -0.175774,0 -0.200662,-0.02429 -0.169131,-0.16509 0.09708,-0.433499 0.253046,-1.55101 0.296972,-2.127826 l 0.04889,-0.642016 0.462977,0 c 0.353542,0 0.620153,-0.0607 1.127933,-0.256806 0.714895,-0.276093 1.110729,-0.329105 1.110729,-0.148754 0,0.05943 0.120228,0.4639 0.267174,0.898823 0.211991,0.627444 0.73465,1.650273 2.530547,4.95221 1.244856,2.288792 2.272003,4.199556 2.282549,4.24614 0.01075,0.0475 -0.489566,0.289794 -1.139234,0.551702 -3.113848,1.255321 -4.755883,1.646843 -6.870457,1.638172 -1.039706,-0.0043 -1.296018,-0.02894 -1.76647,-0.170043 z"
     id="path3169"
     inkscape:connector-curvature="0"
     inkscape:export-filename="/home/sade/Desktop/net-game/images/troops/troop svg files/dns_poison.png"
     inkscape:export-xdpi="90"
     inkscape:export-ydpi="90" />
  <path
     sodipodi:type="arc"
     style="fill:#000000;fill-opacity:1"
     id="path3003-8"
     sodipodi:cx="24.816341"
     sodipodi:cy="203.70081"
     sodipodi:rx="268.84369"
     sodipodi:ry="271.94574"
     d="m 293.66003,203.70081 a 268.84369,271.94574 0 1 1 -3.00747,-40.563"
     sodipodi:start="0"
     sodipodi:end="6.1334682"
     sodipodi:open="true"
     transform="matrix(0.08369175,0,0,0.08273709,50.974282,-9.0608069)"
     inkscape:export-filename="/home/sade/Desktop/comps/images/troops/dns_poison.png"
     inkscape:export-xdpi="90"
     inkscape:export-ydpi="90" />
  <path
     sodipodi:type="arc"
     style="fill:#d7eef4;fill-opacity:1"
     id="path3005-3"
     sodipodi:cx="92.027267"
     sodipodi:cy="224.38109"
     sodipodi:rx="172.68037"
     sodipodi:ry="180.95248"
     d="M 264.70764,224.38109 A 172.68037,180.95248 0 1 1 262.77592,197.3905"
     sodipodi:start="0"
     sodipodi:end="6.1334682"
     sodipodi:open="true"
     transform="matrix(0.11927327,0,0,0.11488637,42.074803,-17.985517)"
     inkscape:export-filename="/home/sade/Desktop/comps/images/troops/dns_poison.png"
     inkscape:export-xdpi="90"
     inkscape:export-ydpi="90" />
  <g
     transform="matrix(1.3090623,0,0,1.3939217,-517.26286,-708.16729)"
     id="layer1-8"
     inkscape:export-filename="/home/sade/Desktop/comps/images/troops/dns_poison.png"
     inkscape:export-xdpi="90"
     inkscape:export-ydpi="90">
    <path
       d="m 429.77441,524.58406 c 0.40858,0.40367 0.92378,0.62509 1.45202,0.80883 1.56778,0.49319 3.22052,0.31463 4.81954,0.1154 2.00976,-0.3134 3.94023,-0.98179 5.83511,-1.71826 0.78141,-0.29257 1.55863,-0.59802 2.32688,-0.92568 0.0876,-0.0476 0.17982,-0.0692 0.27752,-0.0734 0,0 -0.72461,0.59468 -0.72461,0.59468 l 0,0 c -0.10232,0.0249 -0.19692,0.0709 -0.29042,0.12012 -0.82394,0.39518 -1.66637,0.7481 -2.51549,1.08154 -1.90834,0.76432 -3.85932,1.45236 -5.89871,1.72988 -1.5692,0.16631 -3.1912,0.29204 -4.70257,-0.27792 -0.5071,-0.22007 -1.00922,-0.47147 -1.35194,-0.93256 0,0 0.77267,-0.52261 0.77267,-0.52261 z"
       id="path2995-3"
       style="fill:#1f241c;fill-opacity:1"
       inkscape:connector-curvature="0"
       inkscape:export-filename="/home/sade/Desktop/net-game/images/troops/troop svg files/dns_poison.png"
       inkscape:export-xdpi="90"
       inkscape:export-ydpi="90" />
    <path
       d="m 437.71166,513.4839 c -0.34628,-0.31157 0.18195,-0.35823 0.69872,-0.59329 0.006,-0.003 0.0899,0.0998 0.18441,0.21248 0.7172,0.89436 1.32228,1.8698 1.92702,2.83996 0.92822,1.50976 1.79681,3.05435 2.65364,4.60451 0.44692,0.79957 0.86434,1.61426 1.31398,2.41234 0,0 -0.96773,0.59321 -0.96773,0.59321 l 0,0 c -0.47454,-0.78318 -0.915,-1.58527 -1.38066,-2.37365 -0.88229,-1.53489 -1.77251,-3.06526 -2.65703,-4.59888 -0.5663,-0.98994 -1.12577,-1.98437 -1.72859,-2.95321 -0.081,-0.13832 -0.15754,-0.26556 -0.15096,-0.271 0.84451,-0.69671 0.60074,-0.70461 0.89525,-0.38422 0,0 -0.78805,0.51175 -0.78805,0.51175 z"
       id="path3015-9"
       style="fill:#1f241c;fill-opacity:1"
       inkscape:connector-curvature="0"
       inkscape:export-filename="/home/sade/Desktop/net-game/images/troops/troop svg files/dns_poison.png"
       inkscape:export-xdpi="90"
       inkscape:export-ydpi="90" />
    <path
       d="m 432.81788,513.72553 c 0.007,-0.47813 0.37949,-0.10507 0.88257,0.13058 0.006,0.003 -0.0158,0.13701 -0.0382,0.2864 -0.19843,1.16031 -0.5281,2.29003 -0.85411,3.41587 -0.51557,1.74218 -1.09485,3.46242 -1.68574,5.17745 -0.3016,0.88842 -0.63317,1.76455 -0.93194,2.65403 0,0 -1.05451,-0.33682 -1.05451,-0.33682 l 0,0 c 0.27191,-0.89841 0.57949,-1.7836 0.86089,-2.67874 0.5634,-1.72412 1.1184,-3.45123 1.67944,-5.1762 0.36511,-1.10988 0.73789,-2.21761 1.06416,-3.34108 0.0498,-0.15651 0.0943,-0.30205 0.10255,-0.30071 1.05176,0.17172 0.9017,-0.0205 0.85465,0.42394 0,0 -0.87979,-0.25472 -0.87979,-0.25472 z"
       id="path3015-2-4"
       style="fill:#1f241c;fill-opacity:1"
       inkscape:connector-curvature="0"
       inkscape:export-filename="/home/sade/Desktop/net-game/images/troops/troop svg files/dns_poison.png"
       inkscape:export-xdpi="90"
       inkscape:export-ydpi="90" />
    <path
       d="m 433.89744,510.13193 c -0.0527,0.3681 -0.0491,0.74091 -0.0495,1.11176 -0.0179,0.68881 -0.0491,1.37732 -0.0865,2.06535 -0.0306,0.36085 -0.0131,0.18731 -0.0514,0.52071 0,0 -0.87918,0.47001 -0.87918,0.47001 l 0,0 c 0.007,-0.31546 0.004,-0.15085 0.0109,-0.49385 -0.003,-0.69 0.0225,-1.37986 0.0866,-2.06717 0.0318,-0.40443 0.0456,-0.82786 0.195,-1.21016 0,0 0.77416,-0.39665 0.77416,-0.39665 z"
       id="path3099-6"
       style="fill:#1f241c;fill-opacity:1"
       inkscape:connector-curvature="0"
       inkscape:export-filename="/home/sade/Desktop/net-game/images/troops/troop svg files/dns_poison.png"
       inkscape:export-xdpi="90"
       inkscape:export-ydpi="90" />
    <path
       d="m 437.45333,509.36701 c 0.0692,0.3665 0.19891,0.72056 0.32376,1.07396 0.2139,0.66155 0.41391,1.32679 0.60716,1.99347 0.0899,0.35295 0.0496,0.18236 0.12213,0.5115 0,0 -0.76054,0.71213 -0.76054,0.71213 l 0,0 c -0.099,-0.30266 -0.0472,-0.14476 -0.15546,-0.4737 -0.236,-0.65645 -0.44251,-1.32124 -0.60769,-1.99523 -0.10333,-0.39484 -0.23201,-0.80233 -0.20487,-1.21145 0,0 0.67551,-0.61068 0.67551,-0.61068 z"
       id="path3099-1-7"
       style="fill:#1f241c;fill-opacity:1"
       inkscape:connector-curvature="0"
       inkscape:export-filename="/home/sade/Desktop/net-game/images/troops/troop svg files/dns_poison.png"
       inkscape:export-xdpi="90"
       inkscape:export-ydpi="90" />
    <path
       d="m 431.21547,506.98124 c 0.49415,-0.0321 0.98791,-0.0671 1.48119,-0.11131 1.21922,-0.11506 2.43276,-0.27958 3.64208,-0.46988 1.11417,-0.18142 2.22032,-0.41938 3.34849,-0.49746 0,0 -0.84456,0.66549 -0.84456,0.66549 l 0,0 c -1.17116,0.21559 -2.33994,0.44494 -3.51617,0.63249 -1.15714,0.16325 -2.3191,0.30946 -3.48915,0.33626 -0.43801,0.01 -0.87877,0.0268 -1.31497,-0.0241 0,0 0.69309,-0.53149 0.69309,-0.53149 z"
       id="path3141-4"
       style="fill:#1f241c;fill-opacity:1"
       inkscape:connector-curvature="0"
       inkscape:export-filename="/home/sade/Desktop/net-game/images/troops/troop svg files/dns_poison.png"
       inkscape:export-xdpi="90"
       inkscape:export-ydpi="90" />
    <path
       d="m 439.444,505.78531 c -0.0229,0.21822 -0.11076,0.42181 -0.18774,0.62539 -0.16134,0.46392 -0.39843,0.89633 -0.62576,1.33075 -0.3333,0.61891 -0.67146,1.23485 -0.9606,1.87549 -0.0262,0.0682 -0.0524,0.13647 -0.0786,0.20471 0,0 -0.87356,0.44379 -0.87356,0.44379 l 0,0 c 0.0123,-0.0645 0.0247,-0.12893 0.037,-0.19339 0.21361,-0.6658 0.57086,-1.26871 0.92215,-1.87133 0.25372,-0.44981 0.53279,-0.88949 0.72784,-1.36845 0.0951,-0.21687 0.19809,-0.43204 0.26717,-0.65874 0,0 0.77215,-0.38822 0.77215,-0.38822 z"
       id="path3162-9"
       style="fill:#1f241c;fill-opacity:1"
       inkscape:connector-curvature="0"
       inkscape:export-filename="/home/sade/Desktop/net-game/images/troops/troop svg files/dns_poison.png"
       inkscape:export-xdpi="90"
       inkscape:export-ydpi="90" />
    <path
       d="m 430.57146,507.6306 c -0.0512,-0.0134 -0.10037,-0.035 -0.1481,-0.0596 0.20625,-0.14767 0.407,-0.30583 0.61875,-0.44302 0.01,-0.006 0.0171,0.0175 0.0264,0.025 0.0189,0.0151 0.0396,0.0271 0.0582,0.0427 0.11338,0.0955 0.22139,0.20225 0.33036,0.30402 0.42848,0.37625 0.83755,0.77995 1.23751,1.19478 0.39063,0.41567 0.74828,0.87229 1.05248,1.37339 0.0614,0.10619 0.11819,0.21369 0.15786,0.33245 0,0 -0.64725,0.46162 -0.64725,0.46162 l 0,0 c -0.0763,-0.089 -0.14716,-0.18345 -0.22055,-0.27553 -0.3574,-0.45078 -0.72825,-0.88791 -1.10989,-1.31203 -0.38941,-0.4148 -0.77958,-0.829 -1.16237,-1.25165 -0.0946,-0.11255 -0.18889,-0.22362 -0.27595,-0.34387 -0.0466,-0.0644 -0.0759,-0.10416 -0.071,-0.10879 0.18955,-0.17599 0.39721,-0.32498 0.59583,-0.48746 0.0522,0.014 0.10448,0.03 0.15357,0.0551 0,0 -0.5959,0.49292 -0.5959,0.49292 z"
       id="path3164-3"
       style="fill:#1f241c;fill-opacity:1"
       inkscape:connector-curvature="0"
       inkscape:export-filename="/home/sade/Desktop/net-game/images/troops/troop svg files/dns_poison.png"
       inkscape:export-xdpi="90"
       inkscape:export-ydpi="90" />
    <path
       d="m 430.80711,523.36152 c 0.28439,-0.015 0.56704,-0.0449 0.84926,-0.0831 0.32378,-0.0455 0.64203,-0.11816 0.95754,-0.20185 0,0 -0.77424,0.62624 -0.77424,0.62624 l 0,0 c -0.31318,0.0817 -0.62904,0.15446 -0.95306,0.1789 -0.25374,0.0185 -0.50976,0.0372 -0.76323,0.004 0,0 0.68373,-0.5243 0.68373,-0.5243 z"
       id="path3186-8"
       style="fill:#1f241c;fill-opacity:1"
       inkscape:connector-curvature="0"
       inkscape:export-filename="/home/sade/Desktop/net-game/images/troops/troop svg files/dns_poison.png"
       inkscape:export-xdpi="90"
       inkscape:export-ydpi="90" />
    <path
       d="m 431.03826,521.99045 c 0.18585,-0.0143 0.3719,0.0184 0.5578,0.0305 0.23205,0.0129 0.46438,-0.0123 0.69448,-0.0394 0,0 -0.76396,0.59729 -0.76396,0.59729 l 0,0 c -0.22243,0.0151 -0.44647,0.0281 -0.66834,-0.003 -0.16804,-0.0202 -0.3345,-0.0519 -0.50371,-0.0612 0,0 0.68373,-0.52431 0.68373,-0.52431 z"
       id="path3188-3"
       style="fill:#1f241c;fill-opacity:1"
       inkscape:connector-curvature="0"
       inkscape:export-filename="/home/sade/Desktop/net-game/images/troops/troop svg files/dns_poison.png"
       inkscape:export-xdpi="90"
       inkscape:export-ydpi="90" />
    <path
       d="m 431.50575,520.44765 c 0.35498,-0.064 0.71649,-0.0847 1.07446,-0.13073 0.70395,-0.12289 1.39868,-0.30031 2.07464,-0.52986 0.21713,-0.0807 0.43105,-0.16485 0.63684,-0.27046 0,0 -0.7379,0.62424 -0.7379,0.62424 l 0,0 c -0.23332,0.12081 -0.47218,0.22846 -0.71926,0.31962 -0.66647,0.22868 -1.35276,0.41205 -2.05627,0.48421 -0.31606,0.0213 -0.6332,0.0174 -0.9482,0.0478 0,0 0.67569,-0.54486 0.67569,-0.54486 z"
       id="path3190-6"
       style="fill:#1f241c;fill-opacity:1"
       inkscape:connector-curvature="0"
       inkscape:export-filename="/home/sade/Desktop/net-game/images/troops/troop svg files/dns_poison.png"
       inkscape:export-xdpi="90"
       inkscape:export-ydpi="90" />
    <path
       d="m 432.0399,518.86746 c 0.17903,-0.0191 0.35737,-0.008 0.53616,0.006 0.34632,0.0342 0.69144,0.0107 1.03311,-0.0491 0.0564,-0.0141 0.11269,-0.0282 0.16904,-0.0423 0,0 -0.74639,0.6008 -0.74639,0.6008 l 0,0 c -0.0596,0.0135 -0.11924,0.027 -0.17885,0.0405 -0.33755,0.0474 -0.67821,0.0601 -1.0162,0.005 -0.16006,-0.0201 -0.31956,-0.03 -0.4806,-0.0371 0,0 0.68373,-0.52431 0.68373,-0.52431 z"
       id="path3192-8"
       style="fill:#1f241c;fill-opacity:1"
       inkscape:connector-curvature="0"
       inkscape:export-filename="/home/sade/Desktop/net-game/images/troops/troop svg files/dns_poison.png"
       inkscape:export-xdpi="90"
       inkscape:export-ydpi="90" />
    <path
       d="m 432.57925,517.57255 c 0.14873,-0.01 0.29804,-0.0109 0.44707,-0.0125 0.19129,0.004 0.38047,-0.0156 0.56715,-0.0557 0,0 -0.71957,0.57339 -0.71957,0.57339 l 0,0 c -0.18683,0.03 -0.3745,0.0436 -0.56383,0.0315 -0.13817,-10e-4 -0.27676,-0.002 -0.41455,-0.0125 0,0 0.68373,-0.52431 0.68373,-0.52431 z"
       id="path3194-5"
       style="fill:#1f241c;fill-opacity:1"
       inkscape:connector-curvature="0"
       inkscape:export-filename="/home/sade/Desktop/net-game/images/troops/troop svg files/dns_poison.png"
       inkscape:export-xdpi="90"
       inkscape:export-ydpi="90" />
    <path
       d="m 432.82195,515.74266 c 0.36614,-0.0239 0.73168,-0.0373 1.09669,-0.0772 0.3727,-0.0385 0.73385,-0.13563 1.08759,-0.25372 0,0 -0.78812,0.64497 -0.78812,0.64497 l 0,0 c -0.35646,0.11261 -0.71905,0.20763 -1.09473,0.22938 -0.32989,0.0194 -0.66104,0.0237 -0.98984,-0.0156 0,0 0.68841,-0.5279 0.68841,-0.5279 z"
       id="path3196-1"
       style="fill:#1f241c;fill-opacity:1"
       inkscape:connector-curvature="0"
       inkscape:export-filename="/home/sade/Desktop/net-game/images/troops/troop svg files/dns_poison.png"
       inkscape:export-xdpi="90"
       inkscape:export-ydpi="90" />
    <path
       d="m 433.81255,506.16738 c -0.16884,-0.0901 -0.3547,-0.1349 -0.53885,-0.18336 -0.17936,-0.0365 -0.35846,-0.0678 -0.53606,-0.1126 -0.14671,-0.041 -0.23213,-0.13002 -0.2975,-0.26203 -0.0553,-0.12681 -0.0561,-0.26601 -0.0873,-0.39882 -0.0406,-0.11062 -0.0232,-0.22569 -0.0289,-0.34015 -0.01,-0.0971 -0.0187,-0.1943 -0.0249,-0.29171 -0.003,-0.0938 -0.004,-0.18765 -0.005,-0.28149 0.004,-0.0918 0.0437,-0.17593 0.061,-0.26529 0.0122,-0.10251 0.0157,-0.20597 0.017,-0.30913 0.005,-0.086 0.0411,-0.16552 0.0654,-0.24727 0.0383,-0.087 0.0682,-0.17652 0.10725,-0.26322 0.0366,-0.0644 0.0755,-0.11081 0.077,-0.18639 -0.005,-0.0575 -0.01,-0.115 -0.0138,-0.17258 -0.006,-0.0682 0.003,-0.13749 -0.008,-0.20499 -0.0197,-0.0741 -0.0719,-0.13071 -0.10279,-0.20047 -0.0207,-0.0823 -0.0541,-0.15979 -0.0839,-0.23904 -0.045,-0.0717 -0.0967,-0.13753 -0.1377,-0.21205 -0.0231,-0.064 -0.0719,-0.11176 -0.10091,-0.17266 -0.0263,-0.0414 -0.0528,-0.0826 -0.0795,-0.12374 -0.0149,0.0219 -0.0481,-0.0662 -0.0538,-0.0791 0,0 0.78026,-0.32827 0.78026,-0.32827 l 0,0 c -0.009,-0.0159 -0.0715,-0.11194 -0.007,-0.043 0.0339,0.0424 0.0656,0.0868 0.0907,0.13497 0.0277,0.0588 0.0817,0.10091 0.10037,0.1647 0.0462,0.0753 0.0982,0.14659 0.1427,0.22276 0.0342,0.0777 0.0681,0.15514 0.0864,0.23792 0.0269,0.0758 0.0865,0.13344 0.10822,0.21206 0.0204,0.0723 0.0124,0.14565 0.0145,0.22032 2.2e-4,0.0575 0.005,0.11428 0.0119,0.17136 0.0105,0.0817 0.0172,0.16175 -0.0538,0.21913 -0.0372,0.0881 -0.0748,0.17322 -0.10897,0.26198 -0.0371,0.0676 -0.0464,0.14778 -0.079,0.21825 -6.7e-4,0.10695 2.7e-4,0.21417 -0.0117,0.32065 -0.0116,0.0871 -0.0371,0.16925 -0.0655,0.25226 -10e-4,0.093 -0.002,0.1861 0.002,0.27908 0.002,0.0965 0.0132,0.19216 0.0253,0.28792 0.0124,0.11187 -0.0171,0.22048 0.0237,0.32761 0.0325,0.12735 0.0377,0.25764 0.0783,0.3828 0.0617,0.12726 0.11541,0.16556 0.25659,0.19742 0.18151,0.0385 0.36465,0.0673 0.54517,0.10996 0.18698,0.0521 0.37692,0.10334 0.54058,0.21096 0,0 -0.70878,0.48525 -0.70878,0.48525 z"
       id="path3216-2"
       style="fill:#000000;fill-opacity:1"
       inkscape:connector-curvature="0"
       inkscape:export-filename="/home/sade/Desktop/net-game/images/troops/troop svg files/dns_poison.png"
       inkscape:export-xdpi="90"
       inkscape:export-ydpi="90" />
    <path
       d="m 435.05597,505.50557 c -0.10044,-0.19377 -0.15504,-0.4031 -0.19085,-0.61659 -0.0367,-0.20473 0.001,-0.41103 0.0192,-0.61556 0.0221,-0.16843 0.0642,-0.33335 0.0876,-0.50156 0.0161,-0.10127 0.0179,-0.20365 0.0204,-0.30585 -5.6e-4,-0.0801 0.002,-0.16029 10e-4,-0.24042 -0.006,-0.0821 0.008,-0.15504 0.0543,-0.22426 0.0525,-0.0728 0.11546,-0.13668 0.17591,-0.20297 0.26072,-0.24532 0.59683,-0.38129 0.89125,-0.58752 0.22019,-0.15424 -0.45787,0.28248 -0.68681,0.42372 0.0771,-0.0511 0.14283,-0.1157 0.21371,-0.17442 0.0819,-0.0645 0.1668,-0.12527 0.25352,-0.18331 0.0709,-0.0534 0.0985,-0.13942 0.15287,-0.20703 0.0434,-0.0572 0.0838,-0.1161 0.13225,-0.16938 0.0275,-0.0575 0.0542,-0.11394 0.084,-0.17072 0.0227,-0.0693 0.0392,-0.13777 0.075,-0.20236 0.0232,-0.0309 0.0357,-0.0683 0.0403,-0.10622 0.029,-0.33825 -0.0171,-0.0432 0.73707,-0.52962 0.0139,-1.1e-4 0.0279,-1.6e-4 0.0418,-2.7e-4 0,0 -0.67403,0.52469 -0.67403,0.52469 l 0,0 c -0.0114,0.002 -0.0228,0.003 -0.0342,0.005 0.58595,-0.40028 0.67823,-0.73152 0.67986,-0.40152 -10e-4,0.0483 -0.006,0.0953 -0.0208,0.14177 -0.0412,0.0601 -0.0732,0.11805 -0.0781,0.1921 -0.0248,0.0637 -0.0686,0.11048 -0.0798,0.17843 -0.0263,0.0683 -0.0904,0.11173 -0.12456,0.17684 -0.009,0.0128 -0.0182,0.0256 -0.0273,0.0383 -0.0104,0.009 -0.0227,0.0167 -0.0313,0.0277 -0.0374,0.0476 -0.0457,0.11201 -0.087,0.15647 -0.0694,0.0786 -0.1726,0.12021 -0.25168,0.18823 -0.0761,0.0554 -0.13748,0.12459 -0.21533,0.17536 -0.24941,0.15709 -0.502,0.30936 -0.74824,0.47128 -0.22476,0.1478 0.45492,-0.28743 0.68381,-0.42891 0.011,-0.007 -0.0198,0.0164 -0.0297,0.0246 -0.0364,0.03 -0.0725,0.0605 -0.1106,0.0884 -0.0699,0.0549 -0.13063,0.1254 -0.18345,0.19474 -0.0537,0.0498 -0.0917,0.0957 -0.0819,0.17226 -2.7e-4,0.0799 0.003,0.1598 0.002,0.23972 7.2e-4,0.10378 -0.002,0.20771 -0.0102,0.31118 -0.0174,0.16679 -0.0489,0.33133 -0.0823,0.49566 -0.0178,0.19747 -0.0534,0.39701 -0.0272,0.59499 0.0351,0.21035 0.0893,0.41431 0.17198,0.61175 0,0 -0.74282,0.43504 -0.74282,0.43504 z"
       id="path3218-5"
       style="fill:#000000;fill-opacity:1"
       inkscape:connector-curvature="0"
       inkscape:export-filename="/home/sade/Desktop/net-game/images/troops/troop svg files/dns_poison.png"
       inkscape:export-xdpi="90"
       inkscape:export-ydpi="90" />
    <path
       d="m 437.07117,505.72197 c 0.0138,-0.20147 0.0349,-0.40352 0.0628,-0.6037 0.0338,-0.19239 0.0571,-0.38594 0.0965,-0.57731 0.0266,-0.17417 0.0978,-0.32147 0.20593,-0.45925 0.31318,-0.32685 0.7209,-0.56226 1.12754,-0.75717 0.13254,-0.0469 0.24851,-0.12613 0.38152,-0.17274 0.12751,-0.0584 0.26151,-0.1009 0.39411,-0.14599 0.31563,-0.10953 0.89586,-0.50718 -0.38361,0.27654 2.0466,-1.25559 0.15437,-0.0945 0.11153,-0.0689 -0.0193,0.0115 0.0356,-0.0272 0.0532,-0.0412 0.0532,-0.0424 0.10522,-0.0861 0.15646,-0.13081 0.11516,-0.0824 0.2012,-0.19084 0.27844,-0.30704 0.0688,-0.10592 0.12553,-0.21834 0.17353,-0.3347 0.0506,-0.13637 0.1165,-0.2653 0.1878,-0.39195 0.0508,-0.0813 0.11011,-0.15723 0.16895,-0.23298 0.051,-0.0725 0.0901,-0.1529 0.14034,-0.22555 0.0414,-0.0446 0.0562,-0.109 0.11423,-0.13634 0.0326,-0.0394 0.0606,-0.0857 0.0847,-0.1313 0.0227,-0.0707 0.0901,-0.10758 0.13587,-0.1615 0.0525,-0.0614 0.0829,-0.13704 0.12967,-0.20162 0.0245,-0.0349 0.0469,-0.0712 0.0707,-0.10665 7.1e-4,-0.004 0.004,-0.005 0.006,-0.007 0,0 0.76081,-0.37025 0.76081,-0.37025 l 0,0 c -9.1e-4,0.003 -3.3e-4,0.007 -0.003,0.0103 -0.0171,0.0378 -0.039,0.0732 -0.06,0.10898 -0.007,0.0115 -0.0142,0.023 -0.0213,0.0345 -0.008,0.007 -0.0189,0.0132 -0.0251,0.0225 -0.0308,0.0458 -0.0362,0.10931 -0.0836,0.14626 -0.036,0.0639 -0.0794,0.10973 -0.14374,0.14751 -0.0208,0.0569 -0.054,0.0981 -0.0768,0.15242 -0.022,0.0567 -0.10606,0.0616 -0.11147,0.13482 -0.0608,0.0637 -0.0893,0.14465 -0.14264,0.21547 -0.0421,0.0828 -0.11075,0.15294 -0.16715,0.22632 -0.0664,0.12684 -0.14188,0.24871 -0.18894,0.38459 -0.0547,0.11697 -0.10061,0.23692 -0.16736,0.34848 -0.0798,0.11768 -0.14811,0.24621 -0.26831,0.33 -0.0711,0.0546 -0.1328,0.12837 -0.20786,0.1769 -0.29812,0.19274 -1.6365,1.02043 -0.10902,0.0738 -0.35661,0.21935 -0.68227,0.47335 -1.07866,0.60616 -0.13158,0.0478 -0.26497,0.0906 -0.39235,0.14918 -0.12692,0.0571 -0.24878,0.12483 -0.37647,0.18053 -0.29707,0.1718 -0.0106,0.007 0.59644,-0.37135 0.0219,-0.0136 -0.0451,0.0251 -0.0671,0.0385 -0.0781,0.0476 -0.13629,0.10927 -0.205,0.16882 -0.11353,0.12572 -0.20666,0.24889 -0.22607,0.42226 -0.0414,0.18903 -0.0606,0.38005 -0.0942,0.57069 -0.034,0.19867 -0.0392,0.40144 -0.0818,0.59904 0,0 -0.75588,0.41081 -0.75588,0.41081 z"
       id="path3220-8"
       style="fill:#000000;fill-opacity:1"
       inkscape:connector-curvature="0"
       inkscape:export-filename="/home/sade/Desktop/net-game/images/troops/troop svg files/dns_poison.png"
       inkscape:export-xdpi="90"
       inkscape:export-ydpi="90" />
    <path
       d="m 431.96262,506.48268 c -0.19918,-0.0448 -0.39779,-0.0968 -0.5935,-0.15508 -0.187,-0.0629 -0.37679,-0.11567 -0.56188,-0.18398 -0.16991,-0.053 -0.30603,-0.1455 -0.42692,-0.27245 -0.27795,-0.35663 -0.44984,-0.79138 -0.58143,-1.21878 -0.0263,-0.13673 -0.0874,-0.26229 -0.11334,-0.39943 -0.0385,-0.1336 -0.0602,-0.27106 -0.0847,-0.40756 -0.0604,-0.32526 -0.36762,-0.95369 0.21674,0.41759 -0.93671,-2.19375 -0.0705,-0.16544 -0.0515,-0.11962 0.009,0.0206 -0.0217,-0.039 -0.0329,-0.0583 -0.0341,-0.0585 -0.0697,-0.11614 -0.10641,-0.17312 -0.0644,-0.12525 -0.15944,-0.22614 -0.26355,-0.31962 -0.0952,-0.0836 -0.19867,-0.15651 -0.3075,-0.22147 -0.1284,-0.0706 -0.247,-0.15499 -0.36247,-0.24429 -0.0733,-0.0622 -0.14002,-0.13196 -0.20657,-0.20119 -0.0645,-0.0611 -0.13877,-0.11179 -0.20357,-0.1721 -0.0382,-0.0474 -0.10019,-0.0718 -0.11849,-0.13273 -0.0343,-0.038 -0.0762,-0.0725 -0.11805,-0.10312 -0.0671,-0.0331 -0.0935,-0.10468 -0.14027,-0.15778 -0.0532,-0.0608 -0.12406,-0.10227 -0.18132,-0.15796 -0.0311,-0.0294 -0.0639,-0.0569 -0.0956,-0.0856 -0.003,-10e-4 -0.004,-0.005 -0.006,-0.007 0,0 -0.25178,-0.80052 -0.25178,-0.80052 l 0,0 c 0.003,0.001 0.007,0.001 0.01,0.004 0.0351,0.0226 0.0671,0.0495 0.0996,0.0756 0.0104,0.009 0.0208,0.0175 0.0312,0.0262 0.006,0.009 0.0102,0.0205 0.0186,0.028 0.041,0.0371 0.10359,0.0524 0.13316,0.10437 0.0583,0.045 0.0973,0.0946 0.12507,0.16329 0.0536,0.0291 0.0896,0.0679 0.14038,0.0986 0.0532,0.0303 0.0451,0.11315 0.1174,0.12981 0.0542,0.0693 0.13067,0.1097 0.19316,0.17278 0.0762,0.0539 0.13562,0.13191 0.20018,0.1984 0.11643,0.0846 0.22649,0.17719 0.35495,0.24426 0.10838,0.0716 0.22111,0.13506 0.32222,0.21758 0.10519,0.0962 0.22302,0.18289 0.28807,0.31329 0.0435,0.0779 0.10765,0.14964 0.14448,0.23048 0.14628,0.32109 0.76543,1.75672 0.0568,0.11793 0.16379,0.38234 0.36701,0.73984 0.43814,1.14759 0.0273,0.13592 0.0494,0.27283 0.0881,0.40633 0.0374,0.13283 0.0861,0.26236 0.12191,0.3957 0.12552,0.31681 0.005,0.0114 -0.27841,-0.64016 -0.0102,-0.0235 0.0181,0.0479 0.0281,0.0715 0.0354,0.0837 0.088,0.15007 0.13685,0.22643 0.10799,0.1304 0.2166,0.24048 0.38682,0.28638 0.18247,0.0698 0.37036,0.11821 0.55564,0.18069 0.19323,0.0641 0.39505,0.10062 0.58587,0.17298 0,0 0.29307,0.80201 0.29307,0.80201 z"
       id="path3220-0-1"
       style="fill:#000000;fill-opacity:1"
       inkscape:connector-curvature="0"
       inkscape:export-filename="/home/sade/Desktop/net-game/images/troops/troop svg files/dns_poison.png"
       inkscape:export-xdpi="90"
       inkscape:export-ydpi="90" />
    <path
       d="m 433.6889,511.22108 c 0.1623,0.0703 0.31475,0.16007 0.47347,0.23761 0.16063,0.0649 0.31824,0.13637 0.47839,0.20248 0.14932,0.0618 0.30753,0.0954 0.46711,0.11771 0.12297,0.0101 0.24663,0.007 0.3699,0.006 0.14064,-0.0105 0.2499,-0.0783 0.36569,-0.14836 0.0865,-0.0538 0.18647,-0.0657 0.27814,-0.10927 0.0153,-0.005 0.0316,-0.007 0.0458,-0.0147 0.13257,-0.0693 -0.0694,0.0135 0.0779,-0.0503 0.0484,-0.0209 0.0941,-0.0316 0.14059,-0.0574 0.0462,-0.0283 0.1039,-0.0322 0.15255,-0.0527 0.0402,-0.0169 0.0719,-0.0481 0.11275,-0.0657 -0.0108,0.0195 0.0908,-0.0516 0.0686,-0.038 -0.22922,0.14004 -0.9246,0.54665 -0.6863,0.4223 0.15501,-0.0809 0.52897,-0.42269 0.83757,-0.48185 0.067,-0.0143 0.13563,-0.0135 0.20375,-0.0133 0.0679,5e-5 0.13576,0.001 0.20364,8.3e-4 0.0824,-4.3e-4 0.16485,-7.3e-4 0.24727,-5e-5 0.0426,-0.005 0.11497,0.0229 0.13162,-0.0217 0,0 -0.65161,0.54511 -0.65161,0.54511 l 0,0 c -0.0524,-0.007 -0.10527,-0.003 -0.1581,-0.003 -0.0822,5.9e-4 -0.16445,1.6e-4 -0.24666,-7.9e-4 -0.0672,-7.6e-4 -0.13451,-0.001 -0.20169,5.3e-4 -0.065,0.003 -0.12934,0.009 -0.19062,0.0329 -0.0234,0.0102 -0.0909,0.0462 -0.0693,0.0327 0.22743,-0.1419 0.91424,-0.56039 0.68408,-0.42288 -0.30538,0.18246 -0.53205,0.35966 -0.82541,0.4992 -0.0851,0.0498 -0.18069,0.0742 -0.26891,0.11819 -0.0908,0.0355 -0.17428,0.0838 -0.26513,0.11907 -0.0937,0.036 -0.19254,0.0576 -0.27379,0.12052 -0.12174,0.0711 -0.25438,0.11313 -0.39705,0.11398 -0.12522,-6.2e-4 -0.25092,-3.7e-4 -0.3753,-0.0167 -0.16787,-0.0227 -0.33305,-0.0625 -0.4883,-0.13101 -0.15958,-0.0703 -0.32004,-0.13835 -0.48022,-0.20724 -0.1582,-0.0793 -0.3154,-0.16135 -0.46926,-0.24847 0,0 0.70878,-0.48525 0.70878,-0.48525 z"
       id="path3270-2"
       style="fill:#1f241c;fill-opacity:1"
       inkscape:connector-curvature="0"
       inkscape:export-filename="/home/sade/Desktop/net-game/images/troops/troop svg files/dns_poison.png"
       inkscape:export-xdpi="90"
       inkscape:export-ydpi="90" />
    <path
       d="m 431.95547,525.52408 c -0.52612,-0.1109 -1.54099,-0.47322 -1.54099,-0.55015 0,-0.0247 0.0762,-0.27879 0.16926,-0.56455 0.16711,-0.51291 0.17277,-0.51956 0.44304,-0.51998 0.46493,-6.9e-4 0.86459,-0.15364 1.25748,-0.48115 0.2073,-0.1728 0.34324,-0.32527 0.30211,-0.33883 -0.0411,-0.0135 -0.30608,0.0284 -0.58877,0.0932 -0.2827,0.0648 -0.62889,0.11784 -0.76933,0.11784 l -0.25535,0 0.12468,-0.34277 c 0.0997,-0.27406 0.16099,-0.34276 0.30579,-0.34276 0.15589,0 0.92448,-0.50135 0.93419,-0.60937 0.002,-0.0209 -0.20342,-0.0265 -0.45623,-0.0124 l -0.45965,0.0257 0.16233,-0.48269 c 0.0893,-0.26548 0.16828,-0.49062 0.17556,-0.50032 0.007,-0.01 0.27734,-0.0676 0.60013,-0.12863 0.68131,-0.12887 1.41411,-0.34687 1.90724,-0.56738 0.35225,-0.15751 1.24555,-0.90425 0.96312,-0.8051 -1.11208,0.39041 -1.49265,0.5063 -2.09879,0.63912 -0.39154,0.0858 -0.80169,0.156 -0.91145,0.156 -0.18495,0 -0.19558,-0.0181 -0.1451,-0.24756 0.12194,-0.55426 0.15581,-0.59032 0.55442,-0.59032 0.31862,0 0.42198,-0.0429 0.75314,-0.31241 0.21111,-0.17182 0.40076,-0.32852 0.42145,-0.34821 0.0207,-0.0197 -0.26536,-0.0115 -0.63566,0.0182 -0.74602,0.0598 -0.736,0.0673 -0.58403,-0.43418 0.0515,-0.16978 0.13762,-0.29447 0.20349,-0.29447 0.0628,0 0.28516,-0.12854 0.49405,-0.28564 l 0.37979,-0.28564 -0.39112,-0.023 c -0.44133,-0.026 -0.43382,0.0106 -0.166,-0.8088 l 0.12252,-0.37481 0.48781,-0.0977 c 0.37366,-0.0749 0.58465,-0.17431 0.90168,-0.42498 0.41463,-0.32784 0.53911,-0.50394 0.28634,-0.40506 -0.20519,0.0803 -1.1138,0.26542 -1.30985,0.26691 -0.21277,0.002 -0.21305,0.0169 0.0201,-1.10315 0.12028,-0.57798 0.19052,-1.17045 0.19103,-1.61142 l 8.1e-4,-0.69738 0.59713,0.04 c 0.57419,0.0385 0.62418,0.0279 1.30076,-0.2738 0.48282,-0.21531 0.80923,-0.31341 1.04017,-0.3126 l 0.33655,10e-4 0.26286,0.85574 c 0.14458,0.47066 0.33863,0.99285 0.43122,1.16042 0.0926,0.16758 1.36527,2.36921 2.82818,4.89253 l 2.65983,4.58784 -1.35743,0.52583 c -2.59407,1.00487 -4.5785,1.56221 -6.41481,1.80164 -1.06918,0.13941 -2.86102,0.13697 -3.53365,-0.005 z"
       id="path3272-5"
       style="fill:#8dd35f;fill-opacity:1"
       inkscape:connector-curvature="0"
       inkscape:export-filename="/home/sade/Desktop/net-game/images/troops/troop svg files/dns_poison.png"
       inkscape:export-xdpi="90"
       inkscape:export-ydpi="90" />
  </g>
  <path
     style="fill:#ffffff;fill-opacity:1"
     d="m 51.956802,5.0338764 c -1.03427,-0.3102673 -1.201438,-0.4925483 -1.201438,-1.3101052 0,-0.9026535 -0.538634,-1.7854759 -2.050867,-3.3612983 -0.768895,-0.80124828 -0.8784,-0.98383965 -0.589965,-0.98383965 0.983513,0 4.183649,-0.40839825 6.102372,-0.77877975 1.189908,-0.2296862 2.21926,-0.4179259 2.287443,-0.4182828 0.06812,-3.569e-4 -0.387978,1.02946082 -1.01368,2.28848324 C 54.389921,2.6849384 54.358452,2.7844815 54.520948,3.5376729 l 0.167944,0.7784535 -1.026249,0.4399913 c -1.116015,0.4784897 -1.064591,0.4701104 -1.705841,0.2777587 l 0,0 z"
     id="path3132-4"
     inkscape:connector-curvature="0"
     inkscape:export-filename="/home/sade/Desktop/comps/images/troops/dns_poison.png"
     inkscape:export-xdpi="90"
     inkscape:export-ydpi="90" />
  <path
     style="fill:#b7c4c8;fill-opacity:1"
     d="m 47.644699,24.139574 c -1.265102,-0.379454 -1.396659,-0.469364 -1.304008,-0.8912 0.04228,-0.19249 0.148717,-0.521953 0.236546,-0.732142 0.131198,-0.313982 0.220994,-0.382162 0.503372,-0.382162 0.433218,0 1.018024,-0.242 1.531814,-0.633887 0.459693,-0.350626 0.535607,-0.652857 0.14237,-0.566789 -0.379097,0.08297 -1.592858,0.289836 -1.700601,0.289836 -0.0513,0 -0.027,-0.162394 0.05398,-0.360877 0.09884,-0.242235 0.367567,-0.494891 0.8174,-0.768522 0.864479,-0.525855 0.922408,-0.692283 0.240965,-0.692283 -0.573773,0 -0.590164,-0.03017 -0.386263,-0.710721 0.154242,-0.514817 0.228371,-0.556946 1.561749,-0.887597 0.526495,-0.130562 1.2694,-0.383502 1.650899,-0.562093 0.741854,-0.347284 1.656335,-1.067585 1.524768,-1.201001 -0.04384,-0.04446 -0.556188,0.08356 -1.138552,0.284475 -1.026265,0.354064 -2.330897,0.679961 -2.738204,0.684003 -0.144854,0.0014 -0.199246,-0.08905 -0.199246,-0.331456 0,-0.414281 0.262838,-0.690007 0.6628,-0.695298 0.167732,-0.0022 0.409588,-0.06626 0.537458,-0.142325 0.434351,-0.258351 0.962989,-0.693076 0.962989,-0.791914 0,-0.05415 -0.333476,-0.08766 -0.741058,-0.07447 -0.407582,0.01319 -0.771102,-0.0061 -0.807822,-0.04277 -0.03671,-0.03671 -0.03282,-0.22128 0.0087,-0.410136 0.0534,-0.243075 0.214565,-0.424921 0.551785,-0.622544 0.262001,-0.153543 0.573907,-0.38695 0.693121,-0.518681 l 0.216753,-0.23951 -0.45409,0 c -0.24975,0 -0.483227,-0.02914 -0.518838,-0.06475 -0.03561,-0.03561 0.02419,-0.380161 0.132905,-0.765665 l 0.197653,-0.700919 0.648582,-0.158296 c 0.475092,-0.11596 0.792313,-0.288841 1.185915,-0.646329 0.295536,-0.268418 0.506201,-0.519936 0.468146,-0.558927 -0.03805,-0.03899 -0.369035,0.0071 -0.735514,0.102662 -0.36648,0.09546 -0.810243,0.173555 -0.986141,0.173555 -0.272752,0 -0.311372,-0.03769 -0.262444,-0.256174 0.150641,-0.6726707 0.392657,-2.4067395 0.460818,-3.3017988 l 0.07586,-0.9962317 0.718413,0 c 0.548599,0 0.962306,-0.09419 1.75024,-0.3984921 1.10932,-0.4284202 1.723545,-0.5106802 1.723545,-0.2308252 0,0.092219 0.186561,0.7198448 0.414581,1.3947254 0.328951,0.97362 1.139974,2.5607684 3.92671,7.6844634 1.931673,3.551574 3.525522,6.516553 3.541886,6.588838 0.01668,0.07371 -0.759671,0.449681 -1.767776,0.85609 -4.831833,1.947911 -7.379818,2.555446 -10.661054,2.541991 -1.613336,-0.0067 -2.011062,-0.04491 -2.741074,-0.26386 z"
     id="path3169-9"
     inkscape:connector-curvature="0"
     inkscape:export-filename="/home/sade/Desktop/comps/images/troops/dns_poison.png"
     inkscape:export-xdpi="90"
     inkscape:export-ydpi="90" />
</svg>
