<?xml version="1.0" encoding="UTF-8" standalone="no"?>
<!-- Created with Inkscape (http://www.inkscape.org/) -->

<svg
   xmlns:dc="http://purl.org/dc/elements/1.1/"
   xmlns:cc="http://creativecommons.org/ns#"
   xmlns:rdf="http://www.w3.org/1999/02/22-rdf-syntax-ns#"
   xmlns:svg="http://www.w3.org/2000/svg"
   xmlns="http://www.w3.org/2000/svg"
   xmlns:sodipodi="http://sodipodi.sourceforge.net/DTD/sodipodi-0.dtd"
   xmlns:inkscape="http://www.inkscape.org/namespaces/inkscape"
   version="1.1"
   width="29"
   height="28.999998"
   id="svg4203"
   inkscape:version="0.48.3.1 r9886"
   sodipodi:docname="DOS.svg"
   inkscape:export-filename="/home/sade/Desktop/net-game/images/troops/dos.png"
   inkscape:export-xdpi="90"
   inkscape:export-ydpi="90">
  <sodipodi:namedview
     pagecolor="#ffffff"
     bordercolor="#666666"
     borderopacity="1"
     objecttolerance="10"
     gridtolerance="10"
     guidetolerance="10"
     inkscape:pageopacity="0"
     inkscape:pageshadow="2"
     inkscape:window-width="988"
     inkscape:window-height="627"
     id="namedview35"
     showgrid="false"
     inkscape:zoom="7.1738966"
     inkscape:cx="24.625375"
     inkscape:cy="18.310538"
     inkscape:window-x="261"
     inkscape:window-y="33"
     inkscape:window-maximized="0"
     inkscape:current-layer="svg4203"
     fit-margin-top="0"
     fit-margin-left="0"
     fit-margin-right="0"
     fit-margin-bottom="0"
     inkscape:snap-to-guides="false" />
  <defs
     id="defs4205" />
  <metadata
     id="metadata4208">
    <rdf:RDF>
      <cc:Work
         rdf:about="">
        <dc:format>image/svg+xml</dc:format>
        <dc:type
           rdf:resource="http://purl.org/dc/dcmitype/StillImage" />
        <dc:title></dc:title>
      </cc:Work>
    </rdf:RDF>
  </metadata>
  <path
     sodipodi:type="arc"
     style="fill:#d7eef4;fill-opacity:1"
     id="path3012"
     sodipodi:cx="308.89767"
     sodipodi:cy="333.43106"
     sodipodi:rx="210.76411"
     sodipodi:ry="224.14597"
     d="M 519.66179,333.43106 A 210.76411,224.14597 0 1 1 517.30404,299.9978"
     sodipodi:start="0"
     sodipodi:end="6.1334682"
     sodipodi:open="true"
     transform="matrix(0.10675442,0,0,0.10038102,-8.755854,-27.522039)"
     inkscape:export-filename="/home/sade/Desktop/screw-comps/images/troops/dos.png"
     inkscape:export-xdpi="90"
     inkscape:export-ydpi="90" />
  <g
     transform="matrix(1.6415922,0,0,1.6375907,-104.43453,-1313.071)"
     id="layer1"
     inkscape:export-filename="/home/sade/Desktop/screw-comps/images/troops/dos.png"
     inkscape:export-xdpi="90"
     inkscape:export-ydpi="90">
    <path
       d="m 73.024009,798.83504 c -0.07456,0.0786 -0.14971,0.15675 -0.226227,0.2334 -0.519103,0.32194 -1.684578,1.10415 -0.105115,0.0755 0.0045,-0.003 -0.01092,0.003 -0.01591,10e-4 -0.01061,-0.004 -0.02326,-0.0306 -0.02664,-0.0364 -0.01063,-0.0142 -0.01314,-0.0276 -0.01412,-0.0441 -0.01221,-0.0385 -2.107249,1.35316 0.04497,-0.054 -1.437377,0.9764 -0.610518,0.38428 -0.29564,0.13546 0.206775,-0.15633 0.378709,-0.35201 0.556982,-0.5397 0.191186,-0.16891 0.361312,-0.35791 0.518151,-0.56023 0.16395,-0.25928 0.33143,-0.51629 0.486098,-0.78159 0.142682,-0.20436 0.257884,-0.42129 0.335926,-0.65938 0.06366,-0.27255 0.115067,-0.54892 0.159778,-0.82554 0.0269,-0.24739 0.09283,-0.48763 0.137017,-0.73188 0.02665,-0.158 0.03533,-0.31771 0.04299,-0.47752 0.0021,-0.12482 0.0027,-0.24955 -7.88e-4,-0.37435 3.6e-5,-0.121 8.88e-4,-0.24196 0.0033,-0.36291 0.05054,-0.34904 0.230576,-0.21792 0.817511,-0.51475 0.01503,-0.008 0.01785,0.0291 0.02727,0.0433 0.0117,0.0177 0.02404,0.0349 0.03607,0.0523 0.09957,0.18988 0.214383,0.3703 0.324587,0.55367 0.100984,0.23318 0.244083,0.44175 0.369562,0.6607 0.121028,0.20936 0.284424,0.38787 0.422853,0.58444 0.136621,0.17316 0.229354,0.37572 0.351379,0.55875 0.07306,0.12975 0.173931,0.23624 0.272274,0.34528 0.122825,0.12164 0.262536,0.22291 0.396306,0.33166 0.138683,0.10748 0.276997,0.21477 0.418056,0.3194 0.102777,0.0596 0.202848,0.12723 0.302188,0.19514 0.118906,0.0865 0.249922,0.15237 0.36824,0.24007 0.0907,0.0605 0.176955,0.13409 0.281137,0.17049 0.09333,0.0402 0.192236,0.0388 0.291541,0.0376 0.195411,0.0152 0.381283,-0.0322 0.571726,-0.0675 0.216008,-0.0149 0.419693,-0.089 0.630653,-0.13191 0.172757,-0.069 0.344006,-0.14048 0.518727,-0.20455 0.320069,-0.22015 -0.09069,0.0637 -0.6664,0.41678 -0.02314,0.0142 0.04284,-0.0336 0.06325,-0.0517 0.06288,-0.0557 0.12039,-0.11797 0.177698,-0.17948 0.338456,-0.38396 0.77336,-0.59351 1.207761,-0.87364 0.389036,-0.24479 -0.428329,0.27474 -0.645107,0.4077 -0.02756,0.0169 0.05133,-0.0396 0.07646,-0.0601 0.06941,-0.0567 0.13476,-0.11803 0.203899,-0.17506 0.133531,-0.10063 0.249658,-0.21789 0.355336,-0.34794 0.102458,-0.10232 0.213331,-0.19412 0.312137,-0.30039 0.116277,-0.13915 0.240871,-0.26875 0.374502,-0.3902 0.125384,-0.10332 0.230486,-0.22477 0.331676,-0.35195 0.09112,-0.1186 0.207003,-0.21153 0.308433,-0.32008 0.07212,-0.0797 0.110357,-0.18078 0.179295,-0.26359 0.32856,-0.32821 0.826182,-0.76293 0.878084,-0.31825 0.06148,0.19468 0.08867,0.39556 0.109601,0.59832 0.0136,0.30909 0.02882,0.61804 0.04066,0.9271 0.02465,0.26291 0.05539,0.525 0.07737,0.78823 0.01096,0.26809 0.06565,0.5314 0.09586,0.7976 0.03987,0.21288 0.09243,0.42305 0.117118,0.63862 0.05479,0.20971 0.137714,0.408 0.187398,0.61973 0.04034,0.15151 0.0318,0.31003 0.08574,0.45731 0.06573,0.14061 0.167497,0.25528 0.265898,0.37197 0.131674,0.14719 0.315247,0.23025 0.500152,0.28166 0.244,0.0949 0.497518,0.1498 0.756063,0.1793 0.208963,0.0151 0.411016,0.0774 0.616632,0.11715 0.186654,0.0351 0.366624,0.0186 0.550436,-0.0188 0.154061,-0.035 0.295949,-0.0744 0.447089,-0.0197 0.111521,-0.0172 0.222717,-0.0338 0.3352,-0.0429 0.152012,-0.01 0.304268,-0.0107 0.456504,-0.0118 0.106679,-0.0433 0.222931,-0.0586 0.328902,-0.10275 0.06888,-0.0394 0.09646,0.11619 0.06545,0.16105 -0.123102,0.17037 -0.233173,0.34992 -0.351689,0.52386 -0.154437,0.21705 -0.305645,0.43637 -0.458217,0.65478 -0.142023,0.18953 -0.261185,0.39482 -0.372548,0.60434 -0.115279,0.20047 -0.229782,0.4011 -0.32775,0.61115 -0.06278,0.1609 -0.165952,0.29967 -0.240465,0.45357 -0.0473,0.14789 -0.115394,0.2844 -0.190659,0.41889 -0.01199,0.0481 -0.106064,0.13557 -0.08872,0.1709 0.04613,0.0837 0.08558,0.16982 0.140396,0.24859 0.09181,0.11321 0.157853,0.24483 0.240028,0.36452 0.08708,0.12995 0.156184,0.27059 0.236415,0.40461 0.07304,0.12545 0.123421,0.26062 0.20937,0.37802 0.07681,0.15518 0.187005,0.28175 0.298414,0.41119 0.177534,0.22209 0.403037,0.39244 0.600623,0.59337 0.209827,0.16556 0.403727,0.35177 0.588093,0.54638 0.117169,0.0811 0.211304,0.18483 0.300513,0.29609 0.07568,0.11179 0.176889,0.1929 0.284347,0.26979 0.124649,0.0905 0.260883,0.15735 0.373249,0.26518 0.103838,0.0656 0.152136,0.18351 0.2512,0.25273 0.303222,0.28942 -0.409429,0.65049 -0.744357,0.617 7.22e-4,4.4e-4 -0.02512,-0.0102 -0.02087,-0.0128 2.577149,-1.56743 -1.778046,1.17324 0.704743,-0.40664 -0.451999,0.29013 -0.906243,0.57259 -1.370094,0.83983 0.08317,-0.0392 -0.303132,0.1834 -0.228879,0.13495 0.237163,-0.15473 0.952619,-0.61239 0.717025,-0.45515 -0.300111,0.2003 -0.605023,0.39298 -0.910615,0.58436 -0.127249,0.0614 -0.06795,0.0267 -0.178705,0.10258 1.386617,-0.94497 0.688158,-0.41245 0.372673,-0.18569 -0.433772,0.32503 1.009365,-0.75383 -0.937741,0.6132 -0.238364,0.16736 0.489721,-0.31435 0.736368,-0.46854 0.02233,-0.014 -0.04099,0.0335 -0.0632,0.0477 -0.289955,0.18509 -0.579051,0.37175 -0.873068,0.54998 -0.248148,0.15042 0.490291,-0.31104 0.735436,-0.46656 -2.204664,1.40322 -0.242667,0.15367 -0.13497,0.0879 0.0247,-0.0151 -0.04436,0.0375 -0.06583,0.0571 -0.06652,0.0607 -0.127235,0.12783 -0.192159,0.19037 -0.131538,0.12433 -0.26022,0.24986 -0.407758,0.35396 -0.375948,0.32921 -0.793111,0.60889 -1.237848,0.83295 0.0538,-0.0201 -0.216098,0.12476 -0.163762,0.0906 0.241545,-0.15759 0.969653,-0.62451 0.730791,-0.46267 -0.288963,0.19578 -0.586934,0.37719 -0.881155,0.56455 -0.02185,0.0139 -0.08882,0.0532 -0.06702,0.0392 0.243208,-0.15635 0.48754,-0.31085 0.731309,-0.46628 -0.121191,0.0787 -0.230264,0.17464 -0.33596,0.27359 -0.03359,0.0538 -0.114391,0.0815 -0.141457,0.13647 5.32e-4,0.14445 -0.01995,0.28536 -0.04508,0.42773 -0.06184,0.22949 -0.114294,0.46147 -0.178496,0.69031 -0.05908,0.24628 -0.133142,0.48824 -0.215383,0.72732 -0.06126,0.26652 -0.12569,0.53062 -0.213018,0.78964 -0.114842,0.24692 -0.185065,0.5023 -0.224349,0.7719 -0.01839,0.2299 -0.06671,0.45555 -0.125436,0.67772 -0.02314,0.10014 -0.03703,0.20275 -0.03865,0.30568 -0.0492,0.39054 -0.641411,0.72692 -0.988547,0.56091 -0.111647,-0.0519 -0.226412,-0.0799 -0.348212,-0.0887 -0.166795,-0.0561 -0.3315,-0.11871 -0.500683,-0.16747 -0.220799,-0.0492 -0.433647,-0.13033 -0.649118,-0.1994 -0.217692,-0.0748 -0.41982,-0.18846 -0.635859,-0.2665 -0.207635,-0.0791 -0.404723,-0.18558 -0.614624,-0.25823 -0.158955,-0.049 -0.314565,-0.10862 -0.474467,-0.15776 -0.095,-0.0377 -0.168196,-0.10752 -0.265576,-0.13558 -0.04733,-0.003 -0.105379,-0.0208 -0.151677,-0.0139 -0.06238,0.0131 -0.10134,-0.0359 -0.142002,-0.0785 -0.05813,-0.0768 -0.04924,-0.013 -0.100496,0.0197 1.295104,-0.94763 0.739503,-0.48651 0.474194,-0.14766 -0.143063,0.1886 -0.248317,0.40052 -0.34244,0.61782 -0.101798,0.26071 -0.205616,0.52118 -0.298318,0.78551 -0.07407,0.24319 -0.151178,0.48413 -0.194957,0.7353 -0.05064,0.21175 -0.112406,0.42012 -0.190247,0.62299 -0.09228,0.18355 -0.154576,0.38023 -0.225087,0.57312 -0.05331,0.14427 -0.13204,0.27705 -0.180041,0.42352 -0.02074,0.11097 -0.03694,0.21856 -0.07391,0.32563 0.0041,0.0912 -0.101926,0.14213 -0.103081,0.21921 -0.886035,0.578 -0.660576,0.67858 -0.955487,0.25836 -0.08858,-0.14999 -0.155156,-0.30853 -0.245881,-0.45792 -0.122306,-0.18703 -0.242225,-0.37692 -0.351038,-0.57271 -0.130668,-0.202 -0.235458,-0.41954 -0.364097,-0.62277 -0.13407,-0.23802 -0.291387,-0.46052 -0.423906,-0.69953 -0.108629,-0.17025 -0.240786,-0.3201 -0.335729,-0.49972 -0.05757,-0.0758 -0.115263,-0.14482 -0.179248,-0.21235 -0.07154,-0.0667 -0.13824,-0.1326 -0.18526,-0.22193 -0.03424,-0.0947 -0.05879,-0.1979 -0.119051,-0.27941 -0.06255,-0.0911 -0.154413,-0.14656 -0.213786,-0.24081 -0.02237,-0.066 -0.07271,-0.0794 -0.112672,-0.13586 -0.04559,-0.0383 -0.07967,-0.11534 -0.134753,-0.1426 -0.05409,0.0647 -0.140851,0.0682 -0.218627,0.0777 -0.222442,0.019 -0.423443,0.13287 -0.620278,0.23267 -0.311195,0.13738 -0.616325,0.2886 -0.915866,0.45085 -0.105544,0.0389 -0.194561,0.10767 -0.291844,0.16282 -0.02358,0.0134 -0.09381,0.0543 -0.07101,0.0396 0.317731,-0.20513 1.822816,-1.15694 -0.147103,0.0903 -0.188324,0.0707 -0.365374,0.16535 -0.535061,0.2746 -0.175781,0.10493 -0.36191,0.18331 -0.545345,0.27132 -0.240542,0.13197 -0.477792,0.27284 -0.73021,0.37991 -0.15946,0.11653 -0.355154,0.15476 -0.526114,0.24306 -0.605172,0.36315 0.959774,-0.68672 0.534239,-0.33967 -0.26225,0.21789 -0.782352,0.8149 -0.907179,0.42182 -0.02939,-0.15339 -0.02165,-0.31317 -0.02255,-0.46898 0.01,-0.23966 0.07107,-0.46854 0.142574,-0.69499 0.0512,-0.25811 0.139427,-0.50558 0.208045,-0.75884 0.07207,-0.28 0.140687,-0.55858 0.181667,-0.84539 0.04501,-0.28405 0.05646,-0.56951 0.05498,-0.8567 -0.0055,-0.23798 -0.0063,-0.47593 -0.0063,-0.71394 -0.0017,-0.17218 -0.0025,-0.34446 0.0052,-0.51651 0.0058,-0.0909 0.0012,-0.18193 0.0042,-0.27293 -7.69e-4,-0.0982 -0.0036,-0.19632 -0.0025,-0.2945 0.01284,-0.13476 -0.02033,-0.2588 -0.0511,-0.38811 -0.02743,-0.12468 -0.06065,-0.25199 -0.04002,-0.37995 -6.55e-4,-0.0625 -0.005,-0.12493 -0.0083,-0.18736 -0.01632,-0.0753 -0.08964,-0.12166 -0.135068,-0.17969 -0.09155,-0.0763 -0.162021,-0.17307 -0.249517,-0.25362 -0.170154,-0.10291 -0.332687,-0.21661 -0.4979,-0.32698 -0.12731,-0.1024 -0.262403,-0.18471 -0.402853,-0.2651 -0.14416,-0.0638 -0.288927,-0.11757 -0.433244,-0.18112 -0.223216,-0.0977 -0.446171,-0.20754 -0.654982,-0.33495 -0.205884,-0.09 -0.408531,-0.18998 -0.625403,-0.24873 -0.213109,-0.0802 -0.435167,-0.12655 -0.653294,-0.18945 -0.224544,-0.0477 -0.448141,-0.09 -0.669545,-0.15267 -0.151629,-0.0278 -0.294607,-0.0913 -0.427682,-0.16948 -0.02446,-0.0147 -0.04847,-0.0297 -0.06524,-0.0533 -0.0042,-0.007 -0.01914,-0.0165 -0.01256,-0.0214 0.281108,-0.20767 0.570636,-0.40306 0.855846,-0.60476 0.02961,-0.0209 0.06066,-0.0396 0.09099,-0.0595 -0.23634,0.15 -0.470006,0.30453 -0.709021,0.44999 -0.03656,0.0222 0.0673,-0.0533 0.100956,-0.0799 0.211022,-0.15281 0.40716,-0.32432 0.594191,-0.50669 0.171542,-0.18234 0.37274,-0.33039 0.561264,-0.49296 0.408767,-0.35384 0.875376,-0.62686 1.337515,-0.90078 -1.447099,0.99838 -0.507872,0.2959 -0.182122,0.053 0.211848,-0.15404 0.413923,-0.32257 0.613914,-0.49248 0.144182,-0.14751 0.294403,-0.28843 0.441887,-0.43241 0.149524,-0.15312 0.300276,-0.30289 0.473162,-0.42799 0.08545,-0.0707 0.178018,-0.13521 0.245762,-0.22483 0.04857,-0.0977 0.130277,-0.16726 0.202525,-0.24535 0.290183,-0.22509 0.582705,-0.49817 0.938905,-0.58399 -0.006,3.4e-4 0.0166,-10e-4 0.01295,10e-4 -0.853498,0.56091 -0.749953,0.78251 -0.767901,0.34448 -0.02245,-0.22962 -0.152739,-0.41632 -0.253892,-0.61505 -0.145692,-0.31879 -0.376092,-0.5776 -0.59622,-0.84265 -0.173796,-0.20934 -0.341512,-0.42253 -0.448612,-0.67612 -0.07375,-0.18307 -0.180598,-0.34728 -0.275294,-0.51879 -0.105014,-0.191 -0.23061,-0.36856 -0.364581,-0.53907 -0.131784,-0.18335 -0.235055,-0.38742 -0.331256,-0.59233 -0.08006,-0.14766 -0.114098,-0.31126 -0.1738,-0.46682 -0.0353,-0.0628 -0.03651,-0.14525 -0.08881,-0.19534 -0.03856,-0.0489 -0.06538,-0.10573 -0.08542,-0.16485 -0.115753,-0.32479 0.575268,-0.68153 0.830337,-0.46296 0.189865,0.1055 0.401565,0.15682 0.601122,0.24022 0.278755,0.10715 0.538056,0.2592 0.814707,0.37102 0.261392,0.093 0.540017,0.10659 0.813209,0.0805 0.322768,-0.0391 0.646373,-0.0527 0.964613,-0.12208 0.1907,-0.0314 0.360184,-0.12234 0.526906,-0.21502 -1.588304,1.01003 -0.283127,0.17907 0.161052,-0.0988 0.243938,-0.15261 -0.484761,0.31044 -0.729388,0.46189 -0.02107,0.013 0.03975,-0.0299 0.0583,-0.0464 0.02952,-0.0264 0.0392,-0.0412 0.0619,-0.0705 0.142734,-0.35342 0.600141,-0.68901 0.934426,-0.49251 0,0 -0.775514,0.55252 -0.775514,0.55252 l 0,0 c -0.01869,-0.0115 -0.0786,-0.0142 -0.06021,-0.0263 0.254871,-0.16694 0.514633,-0.32588 0.771949,-0.48883 -0.03565,0.002 -0.02424,-0.007 -0.02928,0.0328 -0.114831,0.38462 -0.814527,0.62408 -0.961228,0.72131 -0.05093,0.0337 2.258438,-1.4569 -0.157195,0.0939 -0.175641,0.0979 -0.365416,0.16723 -0.56149,0.20769 -0.324235,0.0719 -0.656578,0.0919 -0.986593,0.1196 -0.280781,0.004 -0.561805,-0.0236 -0.827373,-0.12377 -0.278835,-0.11262 -0.545185,-0.25507 -0.824703,-0.36635 -0.199681,-0.0883 -0.41961,-0.15672 -0.585542,-0.30576 -0.20637,-0.29965 0.602239,-0.85894 0.752133,-0.55259 0.02287,0.0444 0.04704,0.0883 0.07436,0.12997 0.05921,0.0652 0.07183,0.1441 0.116812,0.21882 0.0688,0.14821 0.111526,0.30817 0.194781,0.45 0.09077,0.19863 0.182713,0.40109 0.315801,0.57407 0.138941,0.17325 0.263506,0.36028 0.370764,0.55588 0.09254,0.17521 0.199885,0.34151 0.278424,0.52417 0.120079,0.23702 0.283122,0.4379 0.457137,0.63598 0.242367,0.25994 0.458663,0.53925 0.603869,0.86951 0.104137,0.21676 0.224233,0.42812 0.245506,0.6739 -0.01671,0.44397 -0.158528,0.34111 -0.785756,0.73169 -0.419225,0.25853 1.01021,-0.62876 0.634283,-0.41285 -0.0879,0.0527 -0.152895,0.14377 -0.222243,0.2185 -0.05186,0.10921 -0.128835,0.17244 -0.21378,0.2537 -0.171437,0.11837 -0.324146,0.25494 -0.466823,0.40861 -0.148385,0.14308 -0.305294,0.2789 -0.438559,0.43698 -0.192836,0.17044 -0.390179,0.33695 -0.593772,0.49288 -0.480726,0.339 -0.914183,0.73825 -1.452418,0.99413 -0.290566,0.17806 -0.772566,0.47635 0.544111,-0.35985 0.02969,-0.0189 -0.05608,0.0427 -0.08413,0.064 -0.112208,0.1041 -0.05262,0.055 -0.179194,0.14686 -0.185979,0.16448 -0.386858,0.31123 -0.562644,0.48713 -0.184677,0.18318 -0.369317,0.3713 -0.588129,0.5117 -0.366152,0.33489 -0.08105,0.0842 -1.015477,0.68232 -0.04439,0.0284 -0.183278,0.10195 -0.141608,0.0695 0.234625,-0.18282 0.481415,-0.34886 0.715186,-0.53283 0.0062,-0.005 -0.0082,-0.0136 -0.01226,-0.0204 0.004,1.5e-4 0.05007,0.006 0.06377,0.0184 0.14386,0.0543 0.28884,0.1084 0.439909,0.1374 0.225323,0.0515 0.45155,0.097 0.676028,0.15176 0.216721,0.0635 0.437305,0.11221 0.649197,0.19236 0.221388,0.0679 0.434671,0.16121 0.64233,0.2646 0.213966,0.11275 0.425367,0.23082 0.644441,0.33258 0.140872,0.0687 0.285526,0.12692 0.425674,0.19654 0.143371,0.0812 0.289464,0.15706 0.418848,0.26229 0.167778,0.11269 0.342104,0.21789 0.495674,0.35053 0.08484,0.0884 0.161405,0.18453 0.251127,0.26792 0.05242,0.0679 0.142898,0.13875 0.145084,0.23138 0.01663,0.0645 0.02561,0.13089 0.02776,0.19755 0.01196,0.18162 0.0012,-0.0747 -0.01058,0.0865 -0.0064,0.0877 0.0477,0.17409 0.05074,0.26084 0.03671,0.13701 0.06663,0.27247 0.05294,0.41544 0.0011,0.0991 -0.0018,0.19827 -0.0026,0.2974 0.003,0.0894 -0.0019,0.17889 0.004,0.26818 0.0082,0.1689 0.0075,0.33805 0.0092,0.5071 0.0056,0.23524 0.01439,0.47043 0.02019,0.70569 0.0075,0.29156 0.0047,0.58008 -0.04446,0.8679 -0.03458,0.29158 -0.104774,0.57237 -0.174576,0.85649 -0.06658,0.25983 -0.169704,0.50752 -0.223356,0.77096 -0.06326,0.2202 -0.130028,0.4377 -0.152925,0.6676 -0.0027,0.15661 0.0018,0.31759 -0.02632,0.47172 -0.123498,0.0758 -1.038304,0.73016 -0.750349,0.44353 0.301307,-0.29388 0.680415,-0.49382 1.051847,-0.68167 0.189104,-0.0746 0.369517,-0.16616 0.549012,-0.26255 0.24272,-0.11566 0.476441,-0.24995 0.717323,-0.3696 0.185228,-0.0808 0.36262,-0.1769 0.53736,-0.27944 0.172422,-0.0991 0.350372,-0.18389 0.530416,-0.26718 -1.710774,1.10391 -0.0078,-0.0305 0.531853,-0.30898 0.300894,-0.16437 0.610057,-0.31164 0.922843,-0.45052 0.193545,-0.0883 0.389587,-0.17173 0.604322,-0.1813 0.08823,-0.0159 0.17105,-0.0646 0.254703,-0.0101 0.05333,0.0509 0.09879,0.11072 0.146706,0.16661 0.03704,0.0482 0.09569,0.0757 0.118974,0.13635 0.06375,0.0874 0.167018,0.13482 0.216755,0.23533 0.06254,0.0888 0.09784,0.19122 0.123791,0.29586 0.03501,0.0818 0.114932,0.13039 0.170148,0.1968 0.06858,0.0727 0.132863,0.14807 0.197259,0.22493 0.116342,0.16647 0.251854,0.31613 0.363756,0.48591 0.134391,0.23607 0.288294,0.45943 0.420434,0.6969 0.124369,0.20713 0.228101,0.42646 0.35861,0.62986 0.114322,0.19187 0.225766,0.38542 0.344063,0.57481 0.09022,0.15095 0.151045,0.31023 0.236495,0.46262 0.229595,0.42172 0.102018,0.19772 -0.694642,0.6536 0.0078,0.004 0.01704,0.0178 0.02327,0.0117 0.01536,-0.0151 -0.01,-0.0466 5.98e-4,-0.0655 0.02511,-0.045 0.08456,-0.0534 0.07885,-0.11995 0.03533,-0.10824 0.08244,-0.20245 0.07877,-0.32059 0.03047,-0.14917 0.0935,-0.28684 0.161209,-0.42177 0.06151,-0.19546 0.131959,-0.3888 0.214651,-0.57562 0.08821,-0.19253 0.147819,-0.39437 0.19931,-0.60021 0.03645,-0.25559 0.108539,-0.49914 0.179996,-0.74609 0.08445,-0.27166 0.198092,-0.53205 0.299419,-0.79732 0.100692,-0.22162 0.19092,-0.44927 0.342505,-0.64169 0.286627,-0.41987 0.643141,-0.63331 1.112544,-0.89303 0.06754,-0.0214 0.117084,0.0273 0.163611,0.073 0.03347,0.0279 0.05609,0.0276 0.09843,0.0269 0.0573,0.0109 0.120631,-3.4e-4 0.175934,0.0291 0.09307,0.0353 0.175833,0.096 0.272268,0.12368 0.167269,0.0405 0.324919,0.10874 0.490878,0.15399 0.210607,0.0752 0.411737,0.17286 0.618524,0.25807 0.213872,0.0842 0.422339,0.18188 0.638774,0.25971 0.21215,0.0738 0.425077,0.14494 0.642191,0.20239 0.159463,0.0543 0.313944,0.12614 0.478407,0.1633 0.121075,0.0223 0.237424,0.0584 0.35065,0.10811 0.06624,0.005 0.128783,-0.0208 0.11102,-0.009 -0.320602,0.21236 -1.054802,0.57114 -0.707415,0.47938 0.0031,-0.10599 0.002,-0.21242 0.02114,-0.31722 0.03469,-0.21858 0.08559,-0.43504 0.101863,-0.65598 0.03311,-0.27509 0.092,-0.54196 0.21722,-0.79021 0.08656,-0.26083 0.163699,-0.52269 0.218103,-0.79288 0.08018,-0.23819 0.157995,-0.47733 0.217272,-0.72216 0.06455,-0.22873 0.114538,-0.46083 0.190164,-0.68622 0.02939,-0.14976 0.07536,-0.29462 0.07224,-0.44888 0.0086,-0.0845 0.03851,-0.12113 0.103453,-0.17811 0.101263,-0.10155 0.205218,-0.20141 0.321091,-0.28539 0.29016,-0.18684 0.580157,-0.37395 0.870481,-0.56053 0.723975,-0.46525 -2.733732,1.73014 0.226278,-0.14065 0.05182,-0.0328 0.108822,-0.0563 0.160238,-0.0898 0.312309,-0.18235 0.216498,-0.12802 -0.64553,0.4237 -0.167084,0.10694 0.160368,-0.1182 0.205853,-0.16058 0.02365,-0.022 0.04785,-0.0434 0.07178,-0.0651 0.137737,-0.11346 0.291647,-0.2043 0.406982,-0.34659 0.09378,-0.0739 0.164254,-0.18842 0.26147,-0.2546 0.357625,-0.24348 1.781523,-1.15784 0.132049,-0.0953 2.896802,-1.84917 -0.499417,0.33957 0.204731,-0.12384 0.286552,-0.18858 0.580417,-0.36596 0.859557,-0.56591 0.213736,-0.1531 -1.049974,0.7166 -0.66547,0.42139 0.398325,-0.30616 0.838199,-0.54562 1.236893,-0.8544 0.110349,-0.065 0.19998,-0.11789 0.183394,-0.10707 -0.2381,0.15533 -0.956473,0.6147 -0.717348,0.46103 0.382253,-0.24563 0.756585,-0.49742 1.146803,-0.7269 0.340759,-0.20632 1.24048,-0.69574 -0.240519,0.19491 2.76964,-1.76612 -1.787163,1.13678 0.910581,-0.55148 0.295465,-0.11082 -0.131126,0.0483 -0.753406,0.48077 -0.0097,0.007 0.09746,0.10267 -0.0012,0.0364 -0.100421,-0.0732 -0.16717,-0.18112 -0.266479,-0.25621 -0.116266,-0.10072 -0.257029,-0.15763 -0.376969,-0.25315 -0.105273,-0.0889 -0.199417,-0.18546 -0.284064,-0.29532 -0.09299,-0.10808 -0.192037,-0.19907 -0.31192,-0.27644 -0.19965,-0.18182 -0.398519,-0.36453 -0.609206,-0.5331 -0.202466,-0.19776 -0.414299,-0.38619 -0.582409,-0.61751 -0.106402,-0.13607 -0.219704,-0.26501 -0.294839,-0.42347 -0.0803,-0.12364 -0.140489,-0.257 -0.215888,-0.38327 -0.07444,-0.13466 -0.144568,-0.27152 -0.229628,-0.3997 -0.08242,-0.12035 -0.146525,-0.25402 -0.239165,-0.36722 -0.0536,-0.0851 -0.08454,-0.18021 -0.131904,-0.26779 -0.05824,-0.11573 -0.02793,-0.1347 0.0278,-0.24434 0.0693,-0.13522 0.158262,-0.26052 0.195979,-0.40997 0.05515,-0.16029 0.167559,-0.28854 0.221393,-0.45067 0.1025,-0.20702 0.196972,-0.41826 0.323384,-0.61159 0.105283,-0.21525 0.227477,-0.42307 0.367919,-0.61605 0.145688,-0.2214 0.299183,-0.43593 0.44999,-0.65351 0.134287,-0.179 0.233941,-0.38118 0.394853,-0.5386 0.007,-0.012 0.0086,-0.0305 0.02112,-0.0359 0.03176,-0.0137 0.122342,0.0816 0.04082,0.0746 -0.119002,0.0408 -0.24078,0.081 -0.36636,0.091 -0.14923,0.001 -0.298862,0.001 -0.447657,0.0138 -0.11608,0.01 -0.233592,0.0387 -0.349429,0.0146 -0.148792,-0.0201 -0.294512,0.0484 -0.441218,0.0661 -0.188301,0.0278 -0.375496,0.0206 -0.563068,-0.0134 -0.209401,-0.0329 -0.414994,-0.0918 -0.627512,-0.10261 -0.262726,-0.0346 -0.52083,-0.0931 -0.767125,-0.19574 -0.190376,-0.0759 -0.379459,-0.17143 -0.512317,-0.33585 -0.109717,-0.12233 -0.213159,-0.25342 -0.278781,-0.40682 -0.0524,-0.14778 -0.07644,-0.29975 -0.109422,-0.45393 -0.05964,-0.21237 -0.121751,-0.42383 -0.182554,-0.63585 -0.03524,-0.21309 -0.08589,-0.42139 -0.13329,-0.63197 -0.03129,-0.26735 -0.09304,-0.53115 -0.101689,-0.80052 -0.01046,-0.26441 -0.05007,-0.52517 -0.08351,-0.7873 -0.01266,-0.3082 -0.03677,-0.61566 -0.03802,-0.92483 -0.0085,-0.21027 -0.022,-0.4205 -0.07355,-0.62509 0.0019,-0.0221 0.006,-0.0439 0.0078,-0.066 5.27e-4,-0.006 -0.0091,-0.0158 -0.0037,-0.0191 0.853819,-0.51033 1.042194,-0.66297 0.787479,-0.45805 -0.07664,0.0732 -0.120383,0.15715 -0.156066,0.25784 -0.10899,0.0989 -0.214559,0.20718 -0.3134,0.31583 -0.115144,0.11266 -0.188828,0.26751 -0.326529,0.36026 -0.1305,0.11958 -0.258937,0.23865 -0.372357,0.37519 -0.09206,0.11921 -0.206285,0.21387 -0.32115,0.30941 -0.119769,0.1128 -0.195907,0.27363 -0.345297,0.35863 -0.40248,0.32139 -0.716868,0.62718 -1.234563,0.86533 1.410291,-0.91524 0.646204,-0.47194 0.389055,-0.17785 -0.336536,0.36006 -0.707383,0.6783 -1.184258,0.85247 -0.17485,0.0694 -0.349602,0.14059 -0.529416,0.19533 -0.211439,0.0513 -0.420136,0.11203 -0.63752,0.13284 -0.188226,0.0339 -0.375306,0.0589 -0.566806,0.0373 -0.106526,-0.009 -0.212035,-0.0237 -0.311197,-0.0673 -0.103009,-0.0533 -0.194969,-0.12354 -0.293603,-0.18462 -0.122276,-0.0804 -0.255185,-0.14281 -0.367565,-0.2385 -0.100007,-0.0663 -0.194615,-0.14202 -0.302509,-0.1949 -0.152366,-0.0934 -0.291974,-0.20627 -0.430763,-0.31929 -0.139721,-0.1067 -0.276823,-0.22005 -0.397077,-0.34938 -0.105044,-0.11013 -0.201631,-0.22849 -0.291413,-0.352 -0.119904,-0.18349 -0.226137,-0.37565 -0.359256,-0.54983 -0.140953,-0.19855 -0.301731,-0.38324 -0.426484,-0.59304 -0.12648,-0.21734 -0.274829,-0.42177 -0.367624,-0.65807 -0.11631,-0.18105 -0.218624,-0.37238 -0.305916,-0.56979 -0.02609,-0.0547 -0.04558,-0.0925 -0.04071,-0.0959 0.495779,-0.34456 0.728313,-0.81358 0.790094,-0.46386 0.0026,0.11944 0.0037,0.23887 0.0043,0.35835 -0.0028,0.12589 -5.69e-4,0.25166 -8.3e-4,0.37755 0.0022,0.16072 -0.003,0.32193 -0.02163,0.48162 -0.03287,0.24276 -0.09417,0.47964 -0.121985,0.72273 -0.03883,0.28314 -0.101888,0.56107 -0.156103,0.84118 -0.07068,0.24177 -0.177431,0.46951 -0.32071,0.67548 -0.146584,0.27521 -0.322566,0.5311 -0.486142,0.79572 -0.148684,0.21338 -0.32183,0.40951 -0.518738,0.57715 -0.186,0.17692 -0.336617,0.39235 -0.543892,0.54659 -0.418483,0.33061 -0.838001,0.63599 -1.311212,0.89453 1.974705,-1.30098 -0.03399,0.0485 -0.05484,0.0157 -0.02191,-0.0129 -0.03984,-0.0279 -0.05281,-0.0513 -0.0033,-0.006 -0.04424,-0.0673 -0.0262,-0.0794 0.265395,-0.17762 0.539596,-0.34115 0.804663,-0.51928 0.246614,-0.16574 -0.500935,0.3191 -0.749294,0.48207 -0.01401,0.009 0.0305,-0.0136 0.04575,-0.0204 0.07569,-0.0797 0.153038,-0.15775 0.230656,-0.23545 0,0 0.853552,-0.3955 0.853552,-0.3955 z"
       id="path3948"
       style="fill:#000000;fill-opacity:1"
       inkscape:connector-curvature="0"
       inkscape:export-filename="/home/sade/Desktop/comps/images/troops/dos.png"
       inkscape:export-xdpi="90"
       inkscape:export-ydpi="90" />
    <path
       d="m 85.434582,811.49669 c 0.205077,-0.23802 0.448951,-0.43867 0.690459,-0.63429 0.385618,-0.31689 0.763862,-0.6435 1.150834,-0.95856 0.29717,-0.23301 0.607506,-0.4462 0.914177,-0.66483 0.597221,-0.42026 1.218554,-0.80498 1.828558,-1.20168 0.041,-0.0267 0.164848,-0.10513 0.123913,-0.0784 -1.390927,0.90916 -1.748876,1.18517 -1.222912,0.78548 0.09362,-0.0714 0.186538,-0.14372 0.279567,-0.21593 0,0 1.54322,-0.70812 1.54322,-0.70812 l 0,0 c -0.08327,0.0723 -0.167049,0.14407 -0.253902,0.21167 -0.756455,0.56717 -3.367426,2.22944 -0.452793,0.31694 0.08484,-0.0557 -0.333128,0.22983 -0.253188,0.16922 -0.286411,0.21805 -0.586869,0.41471 -0.871796,0.63533 -0.384394,0.31668 -0.764365,0.63886 -1.144313,0.96145 -0.286161,0.21073 -0.558626,0.44088 -0.831068,0.66964 0,0 -1.500756,0.71206 -1.500756,0.71206 z"
       id="path4036"
       style="fill:#000000;fill-opacity:1"
       inkscape:connector-curvature="0"
       inkscape:export-filename="/home/sade/Desktop/comps/images/troops/dos.png"
       inkscape:export-xdpi="90"
       inkscape:export-ydpi="90" />
    <path
       d="m 80.740133,803.21968 c 0.0094,-0.24519 0.175705,-0.43787 0.320947,-0.61835 0.287462,-0.28612 0.630514,-0.46823 0.988334,-0.67219 0.113819,-0.0649 0.319849,-0.0485 0.444012,-0.0534 0.487107,0.004 0.838891,0.28644 1.172718,0.61872 0.347114,0.43146 0.597381,0.88934 0.66972,1.44728 0.01098,0.51343 -0.185485,0.85555 -0.540529,1.19489 -0.556742,0.45448 -1.174425,0.83259 -1.86832,0.99384 -0.468305,0.0658 -0.833818,-0.0339 -1.23948,-0.26752 -0.386777,-0.26437 -0.664235,-0.61841 -0.841797,-1.05501 -0.151117,-0.38731 -0.05896,-0.73855 0.13024,-1.08738 0.237282,-0.40463 0.5733,-0.73309 0.89879,-1.06199 0,0 0.762182,-0.3525 0.762182,-0.3525 l 0,0 c -0.323763,0.32815 -0.658739,0.65389 -0.911676,1.04469 -0.203201,0.31851 -0.321111,0.64489 -0.167449,1.01625 0.175786,0.41505 0.44609,0.75275 0.817572,1.00335 0.407856,0.22735 0.733986,0.29998 1.198156,0.21969 0.206897,-0.055 0.403228,-0.11821 0.596903,-0.21288 0.06585,-0.0322 0.252766,-0.14823 0.193945,-0.10397 -0.104943,0.079 -0.839621,0.56918 -0.331505,0.21157 0.350779,-0.31022 0.573112,-0.61956 0.569518,-1.11658 -0.06448,-0.53094 -0.322979,-0.98161 -0.648373,-1.39277 -0.312928,-0.31958 -0.638716,-0.58774 -1.103346,-0.583 -0.110238,0.006 -0.181193,0.005 -0.287762,0.0328 -0.04402,0.0116 -0.165381,0.0735 -0.128819,0.0458 1.003967,-0.76055 0.58514,-0.38093 0.359737,-0.21579 -0.150428,0.17025 -0.305747,0.35574 -0.370991,0.57928 0,0 -0.682727,0.38517 -0.682727,0.38517 z"
       id="path4086"
       style="fill:#000000;fill-opacity:1"
       inkscape:connector-curvature="0"
       inkscape:export-filename="/home/sade/Desktop/comps/images/troops/dos.png"
       inkscape:export-xdpi="90"
       inkscape:export-ydpi="90" />
    <path
       d="m 82.186511,803.18947 c 0.01638,0.26462 0.02459,0.53153 0.0013,0.7958 -0.102253,0.65482 -0.102816,0.48968 -0.824418,0.97099 -0.237604,-0.11483 -0.262485,-0.42054 -0.281904,-0.65652 -0.02191,-0.34007 -0.0088,-0.68113 0.128193,-0.99529 0.180492,-0.3746 0.616469,-0.80552 1.036744,-0.66267 0.218713,0.13185 0.339016,0.34242 0.384212,0.59296 0.0313,0.30664 -0.06231,0.6009 -0.188436,0.87438 -0.249562,0.54345 -0.471609,0.58434 -1.043308,0.94984 -0.253459,-0.057 -0.348932,-0.35518 -0.423331,-0.57849 -0.07201,-0.35417 -0.04121,-0.7123 0.103186,-1.04157 0.273745,-0.45135 0.784632,-0.8351 1.318129,-0.77576 0.462676,0.0807 0.725907,0.42606 0.907823,0.84082 0.138611,0.43054 0.03157,0.84397 -0.159059,1.23534 -0.271883,0.37127 -0.868086,0.90339 -1.325419,0.5676 -0.04795,-0.0352 -0.08574,-0.0831 -0.128603,-0.1246 -0.275206,-0.33487 -0.387182,-0.76073 -0.41444,-1.18996 -0.01377,-0.34308 0.07474,-0.64834 0.329781,-0.87513 0.263177,-0.15652 0.515487,-0.33409 0.789531,-0.46956 0.04317,-0.0213 0.09676,-0.002 0.143531,0.008 0.255944,0.0585 0.390194,0.27016 0.504274,0.49031 0.170665,0.40643 0.111243,0.81287 -0.08616,1.19271 -0.246848,0.30761 -0.7433,0.8299 -1.104807,0.71147 -0.07127,-0.0233 -0.147684,-0.10648 -0.199246,-0.15476 -0.209801,-0.25637 -0.309662,-0.55731 -0.332994,-0.8864 -0.01452,-0.70364 0.348427,-0.70608 0.970886,-1.07448 0.320766,0.0157 0.534231,0.27767 0.641724,0.56448 0.102175,0.36477 -0.01816,0.70028 -0.215207,1.00335 -0.240463,0.28178 -0.710758,0.81593 -1.041771,0.67654 -0.07757,-0.0327 -0.112859,-0.0984 -0.160678,-0.16251 -0.157982,-0.2922 -0.130456,-0.62068 -0.101745,-0.9405 0.07926,-0.56109 0.543946,-0.98006 1.117516,-1.06244 0.357944,0.0918 0.488104,0.46425 0.552249,0.79836 0.03728,0.3645 -0.07305,0.68532 -0.347812,0.9177 -0.712839,0.44434 -0.902766,0.79659 -1.426087,0.15603 -0.214041,-0.30835 -0.267191,-0.65283 -0.258244,-1.02105 0.01857,-0.16052 0.0684,-0.32399 0.211356,-0.41289 0.780158,-0.48517 0.478459,-0.45773 0.905751,-0.46477 0.382519,0.0563 0.660852,0.24437 0.84252,0.59339 0.148907,0.37661 0.02377,0.72651 -0.163705,1.05789 -0.26397,0.37354 -0.578273,0.50714 -1.007214,0.76451 -0.03214,0.0193 -0.07097,0.0289 -0.1082,0.0285 -0.07382,-8.1e-4 -0.141868,-0.0579 -0.198846,-0.0949 -0.249258,-0.28209 -0.336726,-0.65731 -0.36785,-1.02682 -0.0054,-0.84481 0.168048,-0.76745 0.950745,-1.25976 0.327348,-0.0557 0.551849,0.19125 0.695621,0.46014 0.138374,0.3323 0.112611,0.67944 -0.03613,1.00019 -0.07475,0.11806 -0.160266,0.24843 -0.279562,0.32557 -0.455251,0.29438 -0.584222,0.59764 -0.979777,0.42428 -0.255236,-0.19268 -0.339516,-0.4995 -0.362562,-0.80956 -0.01152,-0.31529 0.07291,-0.58235 0.307156,-0.78808 0.722697,-0.45325 0.944913,-0.7256 1.564479,-0.1927 0.315992,0.3143 0.358624,0.71281 0.273014,1.13541 -0.243562,0.71211 -0.636219,0.84245 -1.281693,1.23752 -0.350509,-0.0207 -0.470012,-0.4371 -0.552512,-0.72572 -0.0872,-0.40288 -0.140539,-0.82588 0.04949,-1.20317 0.500494,-0.61472 0.925723,-0.77473 1.545824,-0.50659 0.337982,0.21543 0.403432,0.56817 0.34077,0.94545 -0.07081,0.22107 -0.178062,0.45244 -0.381764,0.57635 -0.83135,0.50574 -0.516071,0.4734 -0.981605,0.48387 -0.324122,-0.0574 -0.515114,-0.33965 -0.654707,-0.62179 -0.08198,-0.25566 -0.07734,-0.52106 0.08938,-0.73566 0.675673,-0.4525 0.822506,-0.69786 1.491061,-0.3446 0.253964,0.18372 0.355658,0.47979 0.320239,0.78834 -0.209471,0.51455 -0.841307,0.88514 -1.370942,0.74553 -0.304622,-0.11465 -0.480344,-0.34066 -0.591169,-0.64309 -0.06295,-0.26963 -0.0079,-0.49819 0.187344,-0.6877 0.621569,-0.41163 0.938637,-0.73389 1.58654,-0.36862 0.343062,0.26893 0.30994,0.5802 0.163129,0.95509 -0.125797,0.24233 -0.275079,0.48966 -0.50843,0.63885 -0.838967,0.53638 -0.528825,0.4826 -1.003487,0.52982 -0.433338,-0.12527 -0.516155,-0.63539 -0.588403,-1.02948 -0.05396,-0.34637 -0.05173,-0.70513 0.18886,-0.97408 0.469618,-0.33527 0.999282,-0.76951 1.562865,-0.42696 0.309112,0.28035 0.172008,0.66804 0.01232,0.99183 -0.103686,0.17765 -0.239567,0.32813 -0.414159,0.43423 -0.508653,0.3091 -0.693768,0.58534 -1.187645,0.49528 -0.330343,-0.11699 -0.522856,-0.40317 -0.610693,-0.73761 -0.04409,-0.36512 0.110367,-0.64332 0.359588,-0.88783 0.403993,-0.26951 0.967742,-0.84019 1.473639,-0.49287 0.04251,0.0292 0.07286,0.0737 0.109294,0.11052 0.2207,0.35257 0.104804,0.75322 -0.07881,1.0935 -0.325981,0.37965 -0.940854,0.95558 -1.44006,0.75708 -0.05018,-0.02 -0.09355,-0.0546 -0.140329,-0.0819 -0.309148,-0.24905 -0.423689,-0.60572 -0.448935,-0.99377 0.04905,-0.7607 0.504367,-0.85109 1.142119,-1.24905 0.338123,-0.12262 0.69407,-0.12137 1.025535,0.0165 0.285877,0.18436 0.344422,0.39095 0.161189,0.68342 -0.429536,0.43556 -0.91448,0.86815 -1.532509,0.71258 -0.284885,-0.0663 -0.453409,-0.24954 -0.553245,-0.52098 -0.04388,-0.21822 0.0221,-0.38795 0.18971,-0.5216 0.493397,-0.3871 0.828623,-0.56386 1.389758,-0.60899 0.309352,0.0216 0.385769,0.16779 0.387888,0.47148 -0.08727,0.39554 -0.271208,0.76072 -0.524879,1.06976 -0.388624,0.39871 -0.862887,0.91729 -1.065796,0.29035 -0.04398,-0.31032 0.02628,-0.61488 0.152956,-0.89563 0.245871,-0.4137 0.713059,-0.7767 1.200089,-0.75153 0.03336,0.004 0.06673,0.007 0.100092,0.0107 0,0 -0.633492,0.49616 -0.633492,0.49616 l 0,0 c -0.03201,-0.002 -0.06402,-0.003 -0.09603,-0.005 -0.329718,0.0231 -0.525756,0.25654 0.378192,-0.34757 0.02944,-0.0197 -0.06186,0.0349 -0.08942,0.0572 -0.07519,0.061 -0.08566,0.0922 -0.138051,0.17406 -0.121065,0.26646 -0.189493,0.55044 -0.183248,0.84633 0.0051,0.0239 0.02301,0.13808 0.04797,0.16768 0.02171,0.0258 0.126815,-0.0233 0.09944,-0.004 -0.685433,0.48176 -0.741562,0.55258 -0.512046,0.3113 0.251293,-0.29973 0.413816,-0.65428 0.549729,-1.0227 0.03986,-0.28648 -0.01667,-0.36406 -0.302393,-0.35734 -0.122455,0.0154 -0.244983,0.0296 -0.364625,0.062 -0.283853,0.0768 -0.724355,0.38047 0.338713,-0.28839 -0.188686,0.11928 -0.261647,0.17916 -0.239736,0.42458 0.09977,0.25066 0.254964,0.39167 0.522278,0.44321 0.127429,0.0212 0.159691,0.0384 0.289533,0.0121 0.05082,-0.0103 0.188943,-0.0808 0.148189,-0.048 -0.16937,0.13637 -0.36152,0.24003 -0.540019,0.36353 -0.04498,0.0311 0.09578,-0.0531 0.139338,-0.0863 0.03957,-0.0301 0.07253,-0.0685 0.10879,-0.10271 0.206264,-0.23691 0.2016,-0.39278 -0.08931,-0.54577 -0.327043,-0.10383 -0.669653,-0.10048 -0.98766,0.0397 0.179182,-0.12194 0.356411,-0.24695 0.537547,-0.36581 0.04191,-0.0275 -0.08439,0.0555 -0.119619,0.0916 -0.144487,0.14785 -0.203433,0.36612 -0.220805,0.56737 0.02006,0.3566 0.118221,0.6909 0.399259,0.92434 0.118773,0.0579 0.125079,0.0795 0.261971,0.0711 0.05286,-0.003 0.195861,-0.0653 0.156292,-0.0292 -0.160884,0.14682 -0.356729,0.2475 -0.53359,0.37349 -0.05028,0.0358 0.106911,-0.0626 0.15381,-0.10295 0.04694,-0.0404 0.08379,-0.0917 0.125692,-0.13762 0.184328,-0.29379 0.33615,-0.67398 0.152779,-1.00444 -0.115898,-0.10067 -0.221485,-0.14992 -0.378756,-0.14711 -0.0548,9.8e-4 -0.202908,0.0597 -0.163148,0.021 0.181742,-0.17695 0.82019,-0.55114 0.38589,-0.29287 -0.254238,0.20684 -0.428777,0.46171 -0.407363,0.80805 0.07646,0.30287 0.248509,0.57118 0.558106,0.65293 0.424954,0.0185 0.566411,-0.22754 -0.223141,0.34459 -0.04989,0.0362 0.106769,-0.0616 0.155958,-0.0987 0.155099,-0.11715 0.151413,-0.13625 0.266971,-0.29385 0.14905,-0.2655 0.36663,-0.64459 0.07448,-0.88945 -0.551361,-0.2586 -1.198052,0.31021 -0.162948,-0.38834 -0.285947,0.23034 -0.241567,0.54212 -0.190933,0.88046 0.04061,0.24956 0.102439,0.79911 0.365983,0.91992 0.03842,0.0176 0.08344,0.0113 0.125158,0.0169 0.35162,-0.0868 0.21134,-0.0705 -0.391991,0.33281 -0.05219,0.0349 0.104506,-0.0701 0.152526,-0.11078 0.158766,-0.1346 0.269768,-0.30553 0.370992,-0.4875 0.152542,-0.32225 0.253616,-0.61811 -0.087,-0.8526 -0.147103,-0.0708 -0.283675,-0.12416 -0.449609,-0.12325 -0.05171,3e-4 -0.103561,0.006 -0.154344,0.016 -0.04753,0.009 -0.177488,0.0724 -0.139361,0.0418 0.175794,-0.14108 0.372524,-0.25229 0.558786,-0.37843 -0.206723,0.14541 -0.280256,0.33603 -0.226424,0.59151 0.110981,0.28908 0.246123,0.47199 0.5451,0.57479 0.11863,0.0183 0.134595,0.0316 0.255931,0.005 0.04704,-0.0103 0.175365,-0.0752 0.13754,-0.0447 -1.011984,0.81555 -0.532039,0.40716 -0.383331,0.17706 0.04806,-0.26996 -0.03711,-0.54598 -0.273487,-0.69392 -0.16878,-0.0767 -0.367396,-0.15502 -0.557167,-0.1295 -0.03719,0.005 -0.137671,0.0572 -0.107363,0.0345 0.182658,-0.13663 0.378958,-0.25293 0.568437,-0.37939 -0.205792,0.15431 -0.188351,0.40427 -0.12521,0.6359 0.126966,0.25335 0.29542,0.52717 0.600315,0.54116 0.366859,-0.0511 0.15209,-0.0433 -0.404207,0.36153 -0.03746,0.0273 0.08373,-0.0409 0.119375,-0.0706 0.135779,-0.11324 0.21397,-0.28137 0.27858,-0.44293 0.08982,-0.33872 0.03814,-0.65983 -0.280766,-0.84453 -0.151825,-0.0612 -0.303446,-0.12517 -0.471299,-0.10202 -0.0449,0.006 -0.166181,0.0681 -0.130263,0.0398 1.154035,-0.91022 0.60996,-0.42483 0.457895,-0.28687 -0.210853,0.34211 -0.121125,0.7558 -0.06061,1.13437 0.05274,0.22035 0.135246,0.70267 0.445721,0.62688 -0.190043,0.12847 -0.377994,0.26025 -0.570128,0.38539 -0.03699,0.0241 0.0721,-0.0516 0.104356,-0.082 0.17889,-0.16877 0.306843,-0.38587 0.395408,-0.616 0.102682,-0.38958 0.07737,-0.76501 -0.221884,-1.05763 -0.164735,-0.14484 -0.324759,-0.26647 -0.553302,-0.24815 -0.04615,0.004 -0.171981,0.0561 -0.136638,0.0254 0.170215,-0.14772 0.368438,-0.25763 0.552656,-0.38644 -0.250047,0.16994 -0.341321,0.40263 -0.334172,0.71045 0.01111,0.27316 0.06718,0.56525 0.293522,0.73789 0.02768,0.006 0.05471,0.0182 0.08303,0.0185 0.03128,2.5e-4 0.117435,-0.0363 0.09234,-0.0171 -1.112933,0.84919 -0.474504,0.34034 -0.291604,0.0958 0.158942,-0.29114 0.188112,-0.61188 0.07266,-0.92805 -0.124079,-0.23886 -0.323316,-0.46555 -0.612354,-0.36738 0.189766,-0.12963 0.376275,-0.26443 0.5693,-0.38889 0.03189,-0.0206 -0.063,0.0451 -0.08489,0.0765 -0.116965,0.16813 -0.087,0.43311 -0.0994,0.62377 0.02316,0.339 0.0897,0.7022 0.299075,0.97573 0.0691,0.0363 0.0798,0.0586 0.159707,0.0374 0.03548,-0.009 0.131108,-0.0662 0.100878,-0.0449 -1.078588,0.7589 -0.529572,0.38687 -0.34564,0.14365 0.186329,-0.29908 0.340691,-0.62678 0.208841,-0.98318 -0.156737,-0.29765 -0.444485,-0.49598 -0.776843,-0.52326 -0.345756,0.0507 -0.11653,0.0339 0.460896,-0.36835 0.02746,-0.0191 -0.06154,0.0268 -0.08875,0.0463 -0.09689,0.0694 -0.127971,0.17195 -0.141551,0.28742 -0.0098,0.34824 0.03919,0.66967 0.234125,0.96616 0.08991,0.1154 0.172317,0.24548 0.32307,0.28059 0.13774,0.0321 0.259994,-0.0483 0.23309,-0.0275 -0.179028,0.13792 -0.375117,0.25083 -0.562675,0.37624 0.285736,-0.18793 0.393042,-0.48033 0.373611,-0.8256 -0.04625,-0.27138 -0.134487,-0.67272 -0.457549,-0.70077 -0.299394,0.11056 -0.225254,0.092 0.469685,-0.33987 0.03302,-0.0205 -0.06242,0.0476 -0.08805,0.0772 -0.09827,0.11355 -0.130859,0.26135 -0.154297,0.40657 -0.02791,0.30086 -0.07571,0.61495 0.05167,0.89989 0.03025,0.0431 0.04999,0.0964 0.111156,0.10058 0.02599,0.002 0.0972,-0.0344 0.07591,-0.019 -1.091298,0.78928 -0.586007,0.42786 -0.399515,0.20349 0.19781,-0.27159 0.340665,-0.58849 0.256189,-0.93314 -0.08639,-0.24205 -0.273112,-0.50839 -0.555956,-0.47161 0.192171,-0.13013 0.386711,-0.25665 0.576514,-0.39039 0.02669,-0.0188 -0.06199,0.0236 -0.08657,0.0452 -0.13365,0.11755 -0.136183,0.32707 -0.135243,0.49001 0.01708,0.30517 0.108094,0.59296 0.292479,0.83773 0.0477,0.0456 0.08437,0.10053 0.156593,0.10392 0.03235,0.002 0.121134,-0.0401 0.0951,-0.0203 -1.077559,0.81789 -0.551932,0.39314 -0.358485,0.18406 0.201656,-0.34822 0.270584,-0.73087 0.120072,-1.11751 -0.07201,-0.15859 -0.142969,-0.30025 -0.303512,-0.38387 -0.0412,-0.0214 -0.08681,-0.0355 -0.132695,-0.0411 -0.04069,-0.005 -0.154079,0.0368 -0.122525,0.01 0.175147,-0.14886 0.378442,-0.2589 0.567662,-0.38836 -0.267995,0.18252 -0.360219,0.46596 -0.345654,0.79117 0.02494,0.40652 0.130536,0.8121 0.374031,1.14077 0.107776,0.10357 0.201281,0.19056 0.361166,0.16925 0.04218,-0.006 0.15593,-0.065 0.121855,-0.0389 -0.812721,0.62322 -0.663658,0.48376 -0.449912,0.26091 0.185578,-0.36125 0.303287,-0.75546 0.177057,-1.15914 -0.162042,-0.38797 -0.403026,-0.70966 -0.833433,-0.78234 -0.04447,-0.002 -0.08899,-0.009 -0.133411,-0.006 -0.03927,0.003 -0.146717,0.0484 -0.11583,0.0234 0.178091,-0.14427 0.377991,-0.25768 0.565973,-0.38807 0.03362,-0.0233 -0.07221,0.0395 -0.10285,0.0668 -0.03757,0.0335 -0.132572,0.1706 -0.158471,0.20657 -0.152662,0.30267 -0.175365,0.64735 -0.123097,0.98126 0.03845,0.14324 0.109506,0.5314 0.315279,0.48149 -1.050551,0.70118 -0.462137,0.37839 -0.283015,-0.0585 0.130974,-0.25575 0.217749,-0.53996 0.215607,-0.83103 -0.02701,-0.21334 -0.128368,-0.41793 -0.321966,-0.51956 -0.02293,-0.003 -0.04586,-0.0111 -0.0688,-0.008 -0.02109,0.002 -0.0771,0.0356 -0.05941,0.0236 1.142967,-0.77778 0.56237,-0.47059 0.444162,-0.19917 -0.134149,0.29748 -0.130744,0.62555 -0.126131,0.94806 0.0031,0.0745 0.0052,0.59786 0.155607,0.54453 -1.180881,0.80306 -0.61726,0.5605 -0.539802,0.28722 0.03117,-0.10995 0.02937,-0.23029 0.05657,-0.34121 0.03231,-0.26694 0.0074,-0.53636 0.03174,-0.80431 0,0 0.682727,-0.38517 0.682727,-0.38517 z"
       id="path4088"
       style="fill:#000000;fill-opacity:1"
       inkscape:connector-curvature="0"
       inkscape:export-filename="/home/sade/Desktop/comps/images/troops/dos.png"
       inkscape:export-xdpi="90"
       inkscape:export-ydpi="90" />
    <path
       d="m 81.376509,803.87274 c -0.01565,-0.15897 7.92e-4,-0.30675 0.108619,-0.42701 0.246937,-0.14368 0.486526,-0.30156 0.740811,-0.43104 0.102866,-0.0524 0.555758,0.13901 0.657528,0.18116 0.319996,0.13278 0.556873,0.36997 0.710226,0.68246 0.124199,0.37046 -0.04757,0.6761 -0.269472,0.95831 -0.440889,0.37824 -0.780879,0.87941 -1.3163,0.48069 -0.323191,-0.2613 -0.471162,-0.63406 -0.569092,-1.03106 -0.07072,-0.40476 0.0021,-0.75223 0.282325,-1.04715 0.731084,-0.49068 1.00573,-0.81269 1.6629,-0.23279 0.325782,0.33667 0.391697,0.76564 0.33192,1.21845 -0.220033,0.86299 -0.315503,0.79171 -1.141627,1.32564 -0.365579,0.0367 -0.578418,-0.27619 -0.760294,-0.55347 -0.195466,-0.33224 -0.284457,-0.69669 -0.238466,-1.08109 0.180964,-0.56695 0.760443,-0.84161 1.287381,-0.68199 0.373199,0.1785 0.46037,0.52212 0.43968,0.9143 -0.149633,0.77662 -0.74858,0.95527 -1.382797,1.33324 -0.396714,0.0855 -0.657498,-0.17422 -0.852334,-0.49601 -0.204558,-0.39508 -0.185778,-0.79972 -0.04411,-1.21009 0.261967,-0.57373 0.780992,-0.95748 1.373002,-1.15286 0.40113,-0.0395 0.570592,0.20121 0.648054,0.57184 0.02545,0.47914 -0.177691,0.88373 -0.48291,1.22918 -0.730517,0.56574 -1.034854,0.89365 -1.73949,0.40628 -0.307276,-0.29349 -0.436211,-0.7018 -0.40941,-1.12433 0.03942,-0.17344 0.128027,-0.31351 0.277933,-0.40809 0.612844,-0.38664 0.699611,-0.50503 1.248445,-0.58672 0.334334,-0.0325 0.7325,-0.0419 1.010167,0.18982 0.04946,0.0413 0.08755,0.0951 0.131327,0.14269 0.251613,0.45665 0.0054,0.91829 -0.271011,1.29331 -0.406762,0.34746 -0.892679,0.87478 -1.452286,0.82982 -0.169824,-0.0137 -0.223238,-0.0646 -0.369466,-0.14636 -0.407775,-0.30961 -0.602759,-0.76532 -0.684794,-1.26511 -0.01645,-0.92546 0.385491,-0.98548 1.1594,-1.48216 0.486685,-0.16331 0.90481,-0.0518 1.307565,0.25216 0.401669,0.3737 0.310228,0.86336 0.115701,1.32221 -0.119356,0.20716 -0.258099,0.41294 -0.461015,0.54377 -0.615842,0.39707 -0.703058,0.61944 -1.259391,0.52422 -0.47419,-0.19032 -0.67546,-0.65273 -0.821134,-1.11899 -0.05038,-0.32799 -0.13574,-0.7485 0.07542,-1.04206 0.032,-0.0445 0.07683,-0.0775 0.115243,-0.11631 0.281635,-0.17146 0.55283,-0.36242 0.844906,-0.51438 0.05879,-0.0306 0.130105,-0.0245 0.19597,-0.0271 0.333182,-0.0135 0.558937,0.0834 0.820288,0.2827 0.372882,0.39773 0.377488,0.80933 0.263977,1.31825 -0.104966,0.25366 -0.243571,0.52362 -0.483738,0.66994 -0.833281,0.50765 -0.51934,0.50486 -0.975947,0.46815 -0.385525,-0.15362 -0.541561,-0.56632 -0.621133,-0.95261 -0.08324,-0.78617 0.279154,-0.80605 0.956228,-1.23913 0.358734,-0.12046 0.705524,-0.0104 1.013524,0.18738 0.356764,0.29659 0.284066,0.63446 0.109248,1.01554 -0.10907,0.18236 -0.223554,0.38497 -0.404111,0.50498 -0.545462,0.36255 -0.662372,0.6012 -1.165169,0.5185 -0.382105,-0.1623 -0.512236,-0.56296 -0.560217,-0.95344 0.02009,-0.79201 0.567622,-0.90021 1.212507,-1.28525 0.503243,-0.12453 0.902033,-0.0294 1.327453,0.26171 0.445704,0.47186 0.420535,0.88056 0.156987,1.44111 -0.138665,0.21237 -0.295926,0.43258 -0.508542,0.57507 -0.539488,0.36156 -0.713926,0.61592 -1.247095,0.5832 -0.349962,-0.0376 -0.494217,-0.31238 -0.573745,-0.62971 -0.04847,-0.35871 0.09403,-0.63971 0.362268,-0.85689 0.720744,-0.43817 1.124112,-0.82347 1.823251,-0.27177 0.31783,0.33182 0.29016,0.64633 0.0873,1.03335 -0.298097,0.40763 -0.67797,0.58844 -1.136282,0.85587 -0.05409,0.0316 -0.117484,0.0459 -0.179282,0.0534 -0.139836,0.0169 -0.220525,-0.0229 -0.350671,-0.063 -0.426698,-0.21783 -0.591464,-0.64189 -0.700925,-1.08965 -0.08786,-0.37769 -0.05547,-0.73453 0.195285,-1.03204 0.268191,-0.17062 0.525955,-0.35986 0.804572,-0.51188 0.04739,-0.0259 0.106732,-0.0158 0.160396,-0.0146 0.296807,0.006 0.509329,0.16667 0.721208,0.36143 0.320656,0.3856 0.358762,0.75157 0.213975,1.22166 -0.100267,0.20407 -0.225374,0.40666 -0.415602,0.53603 -0.546814,0.37187 -0.717271,0.59795 -1.257835,0.61572 -0.439536,-0.0881 -0.677962,-0.44792 -0.846264,-0.84283 -0.12117,-0.39806 -0.07642,-0.79012 0.09165,-1.1633 0.272353,-0.43492 0.897471,-0.92329 1.368919,-0.92539 0.06548,-2.9e-4 0.12979,0.0179 0.194685,0.0268 0.491806,0.18209 0.74867,0.56525 0.898844,1.05996 0.06548,0.52166 -0.149803,0.97689 -0.499519,1.34056 -0.755718,0.51241 -1.035699,0.89784 -1.61769,0.17667 -0.241184,-0.38451 -0.314551,-0.83936 -0.323619,-1.28886 0.02016,-0.24209 0.0899,-0.53255 0.306297,-0.67462 0.828924,-0.54425 0.540219,-0.47815 1.062206,-0.54391 0.502315,-0.0469 0.955842,0.12537 1.336744,0.45336 0.335944,0.3794 0.381412,0.663 0.182066,1.12656 -0.110585,0.19862 -0.252043,0.38624 -0.441024,0.51356 -0.438352,0.29531 -0.698977,0.5967 -1.176325,0.60605 -0.351763,-0.0671 -0.429207,-0.3951 -0.423393,-0.71559 0.0136,-0.11179 0.01668,-0.20375 0.06021,-0.30879 0.153383,-0.37002 0.781593,-0.6805 1.132057,-0.71856 0.354018,0.0138 0.610262,0.25237 0.786781,0.54748 0.14182,0.30088 0.123428,0.541 -0.137006,0.75163 -0.541566,0.39881 -0.78758,0.63322 -1.334828,0.39202 -0.160378,-0.10313 -0.129464,-0.23833 -0.01218,-0.3591 0.462422,-0.33534 0.835872,-0.63357 1.39056,-0.57775 0.229059,0.0263 0.377771,0.0704 0.365181,0.3322 -0.143905,0.44042 -0.693251,0.64121 -1.023717,0.84744 -0.194119,0.0124 -0.247736,-0.19126 -0.281508,-0.34964 -0.01142,-0.19258 0.07027,-0.35109 0.181021,-0.49871 0.272824,-0.28322 0.606614,-0.58 0.998366,-0.63652 0.144521,-0.022 0.265734,-0.004 0.300701,0.15724 -0.05215,0.33926 -0.515337,0.67776 -0.825163,0.60693 -0.244055,-0.25974 0.444143,-0.49415 0.719384,-0.50518 0.04491,-10e-4 0.08984,-10e-4 0.134734,4.9e-4 0.0054,-0.003 0.0096,0.003 0.0132,0.004 -0.213641,0.16039 -0.427283,0.32079 -0.640924,0.48119 -0.03399,-5.2e-4 -0.01791,-1.9e-4 -0.04826,-9.8e-4 0,0 0.609275,-0.48506 0.609275,-0.48506 l 0,0 c 0.03209,-8.3e-4 0.01519,-4.3e-4 0.05068,-10e-4 -0.192714,0.16036 -0.385429,0.32072 -0.578144,0.48108 -4.7e-5,2e-5 -0.0037,0.006 -0.01089,0.004 -0.04742,0.003 -0.09489,0.006 -0.14237,0.008 -0.428576,0.0208 0.629123,-0.17674 0.495432,-0.4776 0.258391,-0.13765 -0.0292,0.008 -0.568333,0.37756 -0.01497,0.0103 0.03765,-0.003 0.05219,-0.0142 0.02848,-0.0213 0.03077,-0.0683 0.06198,-0.0879 0.01266,-0.10394 -0.177958,-0.0466 -0.232448,-0.0425 -0.0353,0.011 -0.134345,0.061 -0.10343,0.0404 1.110466,-0.74172 0.651389,-0.4524 0.432101,-0.25453 -0.100355,0.13375 -0.205796,0.25894 -0.212535,0.4383 0.01875,0.1229 0.0378,0.30285 0.197728,0.22785 -1.157786,0.75842 -0.445588,0.37035 -0.277634,0.0593 0.01017,-0.0381 0.04093,-0.0801 0.02448,-0.11577 -0.04338,-0.0941 -0.253886,-0.0771 -0.328485,-0.0962 -0.479663,-0.0163 -1.06187,0.40848 -0.02939,-0.25226 -0.09874,0.078 -0.239806,0.12719 -0.06643,0.21246 0.09729,0.0329 0.197503,0.0693 0.301169,0.0729 0.294793,0.0103 0.706445,-0.35645 -0.354222,0.33732 0.284114,-0.16124 0.328971,-0.32997 0.189633,-0.63507 -0.165702,-0.26532 -0.407159,-0.48354 -0.7321,-0.46905 -0.356139,0.0691 -0.186193,0.0559 0.411209,-0.35904 0.03533,-0.0245 -0.07309,0.0463 -0.104328,0.0761 -0.110482,0.10545 -0.130533,0.24189 -0.146463,0.38911 -0.02129,0.27483 0.01243,0.58542 0.342912,0.59869 0.29881,-0.0537 0.778489,-0.35554 -0.226212,0.25464 -0.06017,0.0365 0.115105,-0.082 0.167975,-0.1289 0.164753,-0.1463 0.163671,-0.16839 0.288259,-0.35022 0.230539,-0.42194 0.21129,-0.67122 -0.126499,-1.0252 -0.375445,-0.29729 -0.81387,-0.4486 -1.29186,-0.39856 -0.39551,0.0791 -0.261234,0.0788 0.338298,-0.3297 0.04505,-0.0307 -0.09421,0.0571 -0.131888,0.097 -0.128358,0.13566 -0.180765,0.32185 -0.194901,0.50413 9.5e-5,0.42822 0.07895,0.8689 0.290623,1.24254 0.102972,0.13364 0.209372,0.28129 0.381474,0.32625 0.174185,0.0455 0.325126,-0.0619 0.308024,-0.0481 -0.166345,0.134 -0.354331,0.23699 -0.531497,0.35548 0.351156,-0.32113 0.572133,-0.75919 0.533471,-1.25125 -0.127633,-0.44189 -0.376158,-0.84569 -0.8281,-0.98682 -0.05884,-0.003 -0.117853,-0.0153 -0.176521,-0.01 -0.05679,0.005 -0.209038,0.081 -0.165994,0.0426 0.160537,-0.14322 0.354274,-0.2418 0.528933,-0.36641 0.04503,-0.0321 -0.0969,0.0539 -0.139891,0.0888 -0.09632,0.0783 -0.1424,0.15764 -0.214234,0.25827 -0.1824,0.3407 -0.219683,0.71645 -0.116376,1.09209 0.154993,0.3628 0.361988,0.71616 0.782897,0.75998 0.372274,-0.0472 0.758847,-0.30147 -0.157592,0.25498 -0.06082,0.0369 0.117292,-0.0819 0.168924,-0.13145 0.126373,-0.12118 0.172312,-0.2143 0.265801,-0.36232 0.169489,-0.43237 0.142881,-0.77145 -0.161305,-1.13472 -0.191975,-0.16884 -0.393691,-0.33322 -0.663562,-0.31295 -0.04794,0.004 -0.177869,0.0648 -0.140386,0.0339 0.172428,-0.14207 0.369286,-0.24973 0.553929,-0.3746 -0.291337,0.26103 -0.29314,0.57264 -0.211815,0.94272 0.100923,0.41242 0.232016,0.83069 0.636752,1.02362 0.137573,0.0302 0.182565,0.0563 0.324962,0.0212 0.05971,-0.0147 0.220017,-0.10799 0.171335,-0.0696 -1.012052,0.7989 -0.424319,0.27053 -0.237363,0.0714 0.21275,-0.34662 0.29189,-0.61581 -0.02758,-0.92529 -0.16224,-0.1173 -0.314003,-0.20323 -0.518222,-0.21697 -0.06556,-0.004 -0.131695,0.001 -0.196853,0.01 -0.06429,0.008 -0.236673,0.0877 -0.190247,0.0413 0.152146,-0.15211 0.348575,-0.24921 0.522863,-0.37381 -0.276458,0.17743 -0.443722,0.42207 -0.412399,0.77079 0.06902,0.32298 0.163287,0.51401 0.517508,0.53331 0.355038,-0.0236 0.76223,-0.27956 -0.173808,0.28146 -0.06697,0.0401 0.124973,-0.0947 0.182851,-0.14762 0.180069,-0.1648 0.186405,-0.19381 0.330481,-0.39074 0.278927,-0.50958 0.345555,-0.88691 -0.08469,-1.33526 -0.385846,-0.24502 -0.820159,-0.35488 -1.264155,-0.20649 0.174211,-0.12249 0.348347,-0.2451 0.522631,-0.36748 0.04843,-0.034 -0.09963,0.0642 -0.145061,0.10235 -0.176043,0.14772 -0.231747,0.36013 -0.236264,0.58586 0.03559,0.34693 0.130676,0.74007 0.487218,0.86621 0.361725,0.0145 0.653743,-0.23465 -0.244289,0.33146 -0.05548,0.035 0.106396,-0.0779 0.153452,-0.12403 0.127997,-0.12562 0.165653,-0.20033 0.262599,-0.34879 0.178103,-0.33301 0.320753,-0.64513 -0.0385,-0.90964 -0.293284,-0.16838 -0.62287,-0.27691 -0.948091,-0.13025 0.186289,-0.12564 0.369361,-0.25646 0.558868,-0.37693 0.03222,-0.0205 -0.06126,0.0469 -0.08602,0.0763 -0.135626,0.16137 -0.121877,0.37682 -0.09313,0.57302 0.06031,0.33743 0.183253,0.7602 0.538492,0.8701 0.356581,-0.0293 0.152293,-0.0351 -0.418516,0.37484 -0.04442,0.0319 0.09595,-0.0534 0.137501,-0.0892 0.159015,-0.13676 0.264157,-0.32749 0.351947,-0.51623 0.11827,-0.44652 0.14224,-0.88575 -0.2068,-1.23349 -0.236973,-0.16655 -0.480378,-0.26282 -0.77471,-0.23311 -0.06051,0.006 -0.223219,0.0818 -0.178244,0.0398 0.157881,-0.14741 0.353489,-0.24562 0.530233,-0.36843 -0.04229,0.0301 -0.09057,0.0528 -0.126861,0.0902 -0.233094,0.24046 -0.115923,0.67501 -0.08202,0.9635 0.135646,0.42444 0.298428,0.89643 0.749122,1.051 0.426304,0.0298 0.632472,-0.20827 -0.164104,0.32853 -0.05759,0.0388 0.116865,-0.076 0.168597,-0.12268 0.15064,-0.13596 0.183782,-0.20827 0.295804,-0.37637 0.199445,-0.41078 0.352617,-0.8843 -0.04597,-1.2242 -0.376447,-0.25908 -0.807577,-0.37129 -1.241273,-0.18325 0.174907,-0.11943 0.341236,-0.25328 0.524721,-0.35828 0.05144,-0.0294 -0.08586,0.0831 -0.124146,0.12905 -0.17201,0.20634 -0.216644,0.46264 -0.201536,0.72822 0.0779,0.46937 0.249058,0.91067 0.6317,1.2057 0.142844,0.0715 0.17559,0.10983 0.339639,0.10565 0.06332,-0.002 0.231782,-0.0793 0.187255,-0.0331 -0.146562,0.15214 -0.344623,0.24109 -0.511365,0.3695 -0.118669,0.0914 0.525144,-0.33899 0.359468,-0.26936 0.215914,-0.27246 0.506111,-0.65821 0.420154,-1.04159 -0.01251,-0.0558 -0.04717,-0.10375 -0.07075,-0.15563 -0.03985,-0.0407 -0.07411,-0.0882 -0.119552,-0.12219 -0.276433,-0.20692 -0.665377,-0.16679 -0.983071,-0.13902 -0.06672,0.0114 -0.134146,0.019 -0.200153,0.0342 -0.06012,0.0138 -0.224105,0.0939 -0.177612,0.0524 0.161199,-0.14381 0.355267,-0.24347 0.531158,-0.36783 0.04374,-0.0309 -0.09305,0.0536 -0.134635,0.0875 -0.125857,0.10263 -0.108944,0.10869 -0.172984,0.25327 -0.0262,0.38672 0.08678,0.77702 0.370581,1.04449 0.154647,0.1035 0.287733,0.19148 0.480271,0.18791 0.05856,-10e-4 0.215811,-0.0671 0.174017,-0.0249 -0.08113,0.0817 -0.848874,0.59507 -0.360159,0.26671 0.312963,-0.31854 0.518817,-0.70225 0.530576,-1.16449 -0.04462,-0.34379 -0.198146,-0.54609 -0.558487,-0.45661 -0.31033,0.13458 -0.305844,0.1419 0.420506,-0.30666 0.04348,-0.0269 -0.08281,0.0607 -0.120039,0.0961 -0.131428,0.1249 -0.225618,0.28196 -0.306482,0.4442 -0.145396,0.38349 -0.189123,0.76703 0.0047,1.14467 0.178193,0.30464 0.414333,0.52977 0.77888,0.40146 -0.178652,0.1227 -0.360152,0.24113 -0.535956,0.36809 -0.04933,0.0356 0.10785,-0.0568 0.156157,-0.0938 0.211501,-0.16228 0.349443,-0.39872 0.404974,-0.66094 0.04261,-0.35571 -0.01553,-0.66792 -0.364355,-0.82413 -0.106612,-0.0256 -0.145178,-0.0457 -0.254659,-0.0308 -0.03872,0.005 -0.143943,0.0563 -0.112972,0.0319 1.005134,-0.79261 0.560098,-0.47309 0.450195,-0.20315 -0.05418,0.35796 0.05216,0.70854 0.225891,1.01896 0.148644,0.24179 0.342271,0.57683 0.66674,0.46749 -0.188967,0.12705 -0.372307,0.26338 -0.5669,0.38114 -0.03796,0.023 0.06805,-0.0588 0.09429,-0.0951 0.140415,-0.19449 0.193074,-0.44908 0.269106,-0.67227 0.06752,-0.42303 0.02199,-0.83053 -0.289335,-1.14471 -0.178473,-0.16076 -0.363622,-0.30038 -0.617056,-0.26046 -0.05246,0.008 -0.193667,0.082 -0.152185,0.048 0.170874,-0.13995 0.364658,-0.24758 0.546988,-0.37137 -0.300007,0.25001 -0.371131,0.57265 -0.307996,0.9591 0.08333,0.37809 0.221145,0.73607 0.516261,0.99477 0.07593,0.0569 0.100943,0.0931 0.194999,0.10403 0.03002,0.004 0.114353,-0.0265 0.09033,-0.008 -1.044594,0.81736 -0.618775,0.40287 -0.378713,0.24045 0.211755,-0.24436 0.41191,-0.53054 0.312401,-0.8718 -0.138728,-0.29696 -0.380977,-0.5108 -0.680819,-0.62998 -0.136779,-0.0603 -0.268137,-0.11316 -0.413868,-0.14608 -0.0356,-0.008 -0.07119,-0.0174 -0.107524,-0.0204 -0.02722,-0.002 -0.103604,0.0217 -0.08178,0.005 0.18943,-0.14612 0.396266,-0.26682 0.5944,-0.40023 -0.142853,0.0719 -0.147865,0.21351 -0.147639,0.36406 0,0 -0.682727,0.38517 -0.682727,0.38517 z"
       id="path4090"
       style="fill:#000000;fill-opacity:1"
       inkscape:connector-curvature="0"
       inkscape:export-filename="/home/sade/Desktop/comps/images/troops/dos.png"
       inkscape:export-xdpi="90"
       inkscape:export-ydpi="90" />
    <path
       d="m 75.834864,800.21671 c 0.42839,0.0578 0.809554,0.28774 1.180366,0.50034 0.428524,0.25435 0.813467,0.57047 1.162791,0.92813 0.01869,0.0254 0.03738,0.0509 0.05607,0.0764 0,0 -0.665292,0.44519 -0.665292,0.44519 l 0,0 c -0.02249,-0.0198 -0.04499,-0.0395 -0.06748,-0.0593 -0.38611,-0.31132 -0.770335,-0.6265 -1.193871,-0.8849 -0.343418,-0.20398 -0.69408,-0.43474 -1.088188,-0.51584 0,0 0.615606,-0.49003 0.615606,-0.49003 z"
       id="path4092"
       style="fill:#000000;fill-opacity:1"
       inkscape:connector-curvature="0"
       inkscape:export-filename="/home/sade/Desktop/comps/images/troops/dos.png"
       inkscape:export-xdpi="90"
       inkscape:export-ydpi="90" />
    <path
       d="m 77.713277,799.68318 c -0.205608,0.36135 -0.372573,0.74334 -0.545466,1.12172 -0.176747,0.43949 -0.354824,0.88104 -0.480491,1.33932 -0.01204,0.0481 -0.02408,0.0962 -0.03613,0.14436 0,0 -0.719871,0.38544 -0.719871,0.38544 l 0,0 c 0.0085,-0.0473 0.01704,-0.0946 0.02556,-0.14194 0.10396,-0.4588 0.26812,-0.90109 0.440097,-1.33694 0.186653,-0.39771 0.367368,-0.80107 0.609877,-1.16725 0,0 0.706419,-0.34471 0.706419,-0.34471 z"
       id="path4094"
       style="fill:#000000;fill-opacity:1"
       inkscape:connector-curvature="0"
       inkscape:export-filename="/home/sade/Desktop/comps/images/troops/dos.png"
       inkscape:export-xdpi="90"
       inkscape:export-ydpi="90" />
    <path
       d="m 74.449622,805.88235 c 0.314438,0.27505 0.670878,0.49181 1.021696,0.7132 0.406553,0.26298 0.810942,0.53292 1.231339,0.77227 0,0 -0.672959,0.48406 -0.672959,0.48406 l 0,0 c -0.43754,-0.22378 -0.859573,-0.47893 -1.267663,-0.75496 -0.337108,-0.22662 -0.683828,-0.45321 -0.957589,-0.7607 0,0 0.645176,-0.45387 0.645176,-0.45387 z"
       id="path4096"
       style="fill:#000000;fill-opacity:1"
       inkscape:connector-curvature="0"
       inkscape:export-filename="/home/sade/Desktop/comps/images/troops/dos.png"
       inkscape:export-xdpi="90"
       inkscape:export-ydpi="90" />
    <path
       d="m 76.441948,805.16129 c -0.257272,0.4026 -0.473624,0.83612 -0.702609,1.25721 -0.272244,0.55399 -0.580206,1.08944 -0.851459,1.64375 -0.01744,0.0359 -0.03488,0.0719 -0.05232,0.10777 0,0 -0.716239,0.36707 -0.716239,0.36707 l 0,0 c 0.01057,-0.0331 0.02115,-0.0661 0.03172,-0.0992 0.208256,-0.56403 0.531664,-1.08015 0.787824,-1.62139 0.250969,-0.4498 0.505768,-0.90116 0.793817,-1.3266 0,0 0.709265,-0.32864 0.709265,-0.32864 z"
       id="path4098"
       style="fill:#000000;fill-opacity:1"
       inkscape:connector-curvature="0"
       inkscape:export-filename="/home/sade/Desktop/comps/images/troops/dos.png"
       inkscape:export-xdpi="90"
       inkscape:export-ydpi="90" />
    <path
       d="m 79.294602,809.38122 c 0.442288,0.11657 0.852549,0.3365 1.252526,0.55759 0.364625,0.17081 0.711001,0.38662 1.085922,0.53377 0,0 -0.653124,0.48357 -0.653124,0.48357 l 0,0 c -0.392115,-0.13813 -0.765767,-0.32187 -1.136055,-0.51219 -0.386005,-0.2096 -0.77188,-0.42628 -1.181042,-0.58481 0,0 0.631773,-0.47793 0.631773,-0.47793 z"
       id="path4100"
       style="fill:#000000;fill-opacity:1"
       inkscape:connector-curvature="0"
       inkscape:export-filename="/home/sade/Desktop/comps/images/troops/dos.png"
       inkscape:export-xdpi="90"
       inkscape:export-ydpi="90" />
    <path
       d="m 81.023855,808.68782 c -0.226622,0.30835 -0.376697,0.67131 -0.536443,1.01925 -0.161206,0.36189 -0.295019,0.73606 -0.432373,1.10803 0,0 -0.737102,0.38321 -0.737102,0.38321 l 0,0 c 0.117586,-0.37489 0.249803,-0.74612 0.408201,-1.10491 0.165996,-0.37361 0.340244,-0.75247 0.588451,-1.07694 0,0 0.709266,-0.32864 0.709266,-0.32864 z"
       id="path4102"
       style="fill:#000000;fill-opacity:1"
       inkscape:connector-curvature="0"
       inkscape:export-filename="/home/sade/Desktop/comps/images/troops/dos.png"
       inkscape:export-xdpi="90"
       inkscape:export-ydpi="90" />
    <path
       d="m 74.307562,810.66567 c 0.398817,0.0711 0.764777,0.25486 1.140343,0.40074 0.477333,0.18479 0.946969,0.38954 1.429773,0.55905 0.139888,0.0473 0.07537,0.026 0.193439,0.0644 0,0 -0.639307,0.48243 -0.639307,0.48243 l 0,0 c -0.132964,-0.0293 -0.06073,-0.0125 -0.216501,-0.0511 -0.503021,-0.14009 -0.988428,-0.33392 -1.469496,-0.53862 -0.346666,-0.15069 -0.684933,-0.33988 -1.053858,-0.42685 0,0 0.615607,-0.49003 0.615607,-0.49003 z"
       id="path4104"
       style="fill:#000000;fill-opacity:1"
       inkscape:connector-curvature="0"
       inkscape:export-filename="/home/sade/Desktop/comps/images/troops/dos.png"
       inkscape:export-xdpi="90"
       inkscape:export-ydpi="90" />
    <path
       d="m 75.644531,810.39796 c -0.334208,0.19227 0.320316,-0.21823 0.49127,-0.3075 0.04244,-0.0222 -0.06913,0.0676 -0.09906,0.10561 -0.137615,0.17475 -0.215032,0.37491 -0.294827,0.58136 -0.167065,0.58194 -0.304382,1.1725 -0.456917,1.75866 -0.0793,0.29417 -0.03958,0.1582 -0.116951,0.40858 0,0 -0.72922,0.38606 -0.72922,0.38606 l 0,0 c 0.05075,-0.23718 0.02275,-0.10721 0.08423,-0.38985 0.140284,-0.59379 0.287229,-1.18627 0.457639,-1.77179 0.245596,-0.62987 0.563078,-1.04945 1.264409,-1.28178 0,0 -0.60057,0.51065 -0.60057,0.51065 z"
       id="path4106"
       style="fill:#000000;fill-opacity:1"
       inkscape:connector-curvature="0"
       inkscape:export-filename="/home/sade/Desktop/comps/images/troops/dos.png"
       inkscape:export-xdpi="90"
       inkscape:export-ydpi="90" />
    <path
       d="m 83.980477,807.7922 c 0.380493,0.0504 0.727645,0.22939 1.074894,0.38529 0.400399,0.16917 0.806605,0.33172 1.226632,0.44259 0,0 -0.66254,0.50121 -0.66254,0.50121 l 0,0 c -0.430404,-0.10727 -0.849854,-0.25984 -1.256295,-0.43988 -0.321584,-0.15635 -0.647088,-0.32664 -0.998298,-0.39917 0,0 0.615607,-0.49004 0.615607,-0.49004 z"
       id="path4108"
       style="fill:#000000;fill-opacity:1"
       inkscape:connector-curvature="0"
       inkscape:export-filename="/home/sade/Desktop/comps/images/troops/dos.png"
       inkscape:export-xdpi="90"
       inkscape:export-ydpi="90" />
    <path
       d="m 85.351212,807.12047 c -0.212599,0.23048 -0.300136,0.55187 -0.393113,0.84682 -0.148917,0.44202 -0.247812,0.89374 -0.265608,1.36095 0,0 -0.724216,0.40808 -0.724216,0.40808 l 0,0 c -0.01333,-0.47403 0.08443,-0.93236 0.241629,-1.37781 0.100068,-0.3147 0.202936,-0.66684 0.432042,-0.9094 0,0 0.709266,-0.32864 0.709266,-0.32864 z"
       id="path4110"
       style="fill:#000000;fill-opacity:1"
       inkscape:connector-curvature="0"
       inkscape:export-filename="/home/sade/Desktop/comps/images/troops/dos.png"
       inkscape:export-xdpi="90"
       inkscape:export-ydpi="90" />
    <path
       d="m 78.507643,812.23301 c 0.296055,0.0399 0.577414,0.14355 0.852754,0.25907 0.285311,0.10172 0.542512,0.26175 0.783556,0.44567 0.0669,0.0588 0.03721,0.0321 0.08938,0.0796 0,0 -0.644596,0.44972 -0.644596,0.44972 l 0,0 c -0.06388,-0.0387 -0.02792,-0.0167 -0.107722,-0.0664 -0.244221,-0.17316 -0.51319,-0.30996 -0.791188,-0.41595 -0.259143,-0.1061 -0.521479,-0.21358 -0.797793,-0.26171 0,0 0.615606,-0.49003 0.615606,-0.49003 z"
       id="path4112"
       style="fill:#000000;fill-opacity:1"
       inkscape:connector-curvature="0"
       inkscape:export-filename="/home/sade/Desktop/comps/images/troops/dos.png"
       inkscape:export-xdpi="90"
       inkscape:export-ydpi="90" />
    <path
       d="m 79.878378,811.30006 c -0.167172,0.21913 -0.252518,0.49234 -0.331845,0.75469 -0.100641,0.37711 -0.204322,0.75309 -0.319517,1.12591 -0.01095,0.0346 -0.0219,0.0692 -0.03285,0.10385 0,0 -0.709816,0.37485 -0.709816,0.37485 l 0,0 c 0.0075,-0.0328 0.01504,-0.0657 0.02256,-0.0986 0.09046,-0.376 0.196471,-0.74796 0.303384,-1.11919 0.08275,-0.28679 0.186406,-0.5687 0.358822,-0.81291 0,0 0.709265,-0.32864 0.709265,-0.32864 z"
       id="path4114"
       style="fill:#000000;fill-opacity:1"
       inkscape:connector-curvature="0"
       inkscape:export-filename="/home/sade/Desktop/comps/images/troops/dos.png"
       inkscape:export-xdpi="90"
       inkscape:export-ydpi="90" />
    <path
       d="m 83.224685,810.82194 c 0.287191,0.13202 0.572949,0.26952 0.849092,0.42502 0.226926,0.12684 0.454493,0.25212 0.683437,0.37515 0,0 -0.654747,0.47485 -0.654747,0.47485 l 0,0 c -0.242439,-0.10808 -0.474849,-0.23515 -0.707652,-0.36334 -0.266388,-0.14899 -0.538829,-0.28575 -0.801456,-0.44172 0,0 0.631326,-0.46996 0.631326,-0.46996 z"
       id="path4116"
       style="fill:#000000;fill-opacity:1"
       inkscape:connector-curvature="0"
       inkscape:export-filename="/home/sade/Desktop/comps/images/troops/dos.png"
       inkscape:export-xdpi="90"
       inkscape:export-ydpi="90" />
    <path
       d="m 84.341198,809.86186 c -0.133331,0.38364 -0.242987,0.77545 -0.366339,1.16265 -0.140429,0.42047 -0.320697,0.82512 -0.481842,1.23745 0,0 -0.739473,0.38291 -0.739473,0.38291 l 0,0 c 0.135078,-0.41297 0.305052,-0.81115 0.452251,-1.21949 0.137919,-0.40326 0.256336,-0.81629 0.440211,-1.2007 0,0 0.695192,-0.36282 0.695192,-0.36282 z"
       id="path4118"
       style="fill:#000000;fill-opacity:1"
       inkscape:connector-curvature="0"
       inkscape:export-filename="/home/sade/Desktop/comps/images/troops/dos.png"
       inkscape:export-xdpi="90"
       inkscape:export-ydpi="90" />
    <path
       d="m 78.013327,804.96807 c 0.319158,0.26258 0.590991,0.57791 0.87502,0.87821 0.266124,0.30017 0.53704,0.59716 0.774722,0.92191 0,0 -0.694604,0.45708 -0.694604,0.45708 l 0,0 c -0.256116,-0.3077 -0.536763,-0.59341 -0.794337,-0.90006 -0.271802,-0.29809 -0.533693,-0.60556 -0.805976,-0.90327 0,0 0.645175,-0.45387 0.645175,-0.45387 z"
       id="path4120"
       style="fill:#000000;fill-opacity:1"
       inkscape:connector-curvature="0"
       inkscape:export-filename="/home/sade/Desktop/comps/images/troops/dos.png"
       inkscape:export-xdpi="90"
       inkscape:export-ydpi="90" />
    <path
       d="m 78.868365,804.63738 c -0.07997,0.44537 -0.151746,0.89208 -0.208804,1.34117 -0.05306,0.47478 -0.07567,0.95235 -0.102613,1.42921 0,0 -0.768057,0.42887 -0.768057,0.42887 l 0,0 c 0.0135,-0.47993 0.0347,-0.96007 0.09788,-1.43634 0.06859,-0.47215 0.154763,-0.94178 0.286399,-1.40009 0,0 0.695193,-0.36282 0.695193,-0.36282 z"
       id="path4122"
       style="fill:#000000;fill-opacity:1"
       inkscape:connector-curvature="0"
       inkscape:export-filename="/home/sade/Desktop/comps/images/troops/dos.png"
       inkscape:export-xdpi="90"
       inkscape:export-ydpi="90" />
    <path
       d="m 69.539916,807.26865 c -0.02809,-0.47797 0.152118,-0.36441 0.717466,-0.70481 0.329214,0.041 0.651509,0.15205 0.965649,0.25938 0.407181,0.16913 0.812992,0.33929 1.226907,0.49134 0.125889,0.0454 0.06746,0.0351 0.173015,0.0422 0,0 -0.628924,0.49112 -0.628924,0.49112 l 0,0 c -0.127672,-0.015 -0.05951,-0.003 -0.203703,-0.041 -0.429429,-0.12511 -0.838285,-0.30085 -1.249912,-0.47649 -0.288326,-0.10487 -0.586168,-0.2298 -0.889516,-0.26948 0.206428,-0.13541 0.41509,-0.26731 0.619283,-0.40625 0.0165,-0.0112 -0.04188,0.0188 -0.04585,0.0387 -0.01205,0.0605 0.01342,0.12918 -0.0017,0.19011 0,0 -0.682727,0.38517 -0.682727,0.38517 z"
       id="path4140"
       style="fill:#000000;fill-opacity:1"
       inkscape:connector-curvature="0"
       inkscape:export-filename="/home/sade/Desktop/comps/images/troops/dos.png"
       inkscape:export-xdpi="90"
       inkscape:export-ydpi="90" />
    <path
       d="m 71.605491,805.42252 c -0.177728,0.25939 -0.208607,0.61251 -0.254111,0.91854 -0.07146,0.48122 -0.06604,0.96471 -0.03169,1.44832 0.0086,0.0563 0.0172,0.1126 0.0258,0.16889 0,0 -0.711376,0.42006 -0.711376,0.42006 l 0,0 c -0.01319,-0.057 -0.02638,-0.114 -0.03956,-0.171 -0.05204,-0.4879 -0.06878,-0.97419 0.01153,-1.46115 0.0531,-0.33883 0.108045,-0.70023 0.290146,-0.99502 0,0 0.709266,-0.32864 0.709266,-0.32864 z"
       id="path4142"
       style="fill:#000000;fill-opacity:1"
       inkscape:connector-curvature="0"
       inkscape:export-filename="/home/sade/Desktop/comps/images/troops/dos.png"
       inkscape:export-xdpi="90"
       inkscape:export-ydpi="90" />
    <path
       d="m 72.92232,801.31093 c 0.328784,0.25986 0.608414,0.57188 0.893969,0.87861 0.283865,0.28828 0.586054,0.60034 0.953935,0.77433 0.02709,0.002 0.05417,0.004 0.08126,0.005 0,0 -0.634168,0.49271 -0.634168,0.49271 l 0,0 c -0.03511,-0.006 -0.07023,-0.0114 -0.105343,-0.0171 -0.39094,-0.16535 -0.717802,-0.47071 -1.009747,-0.77716 -0.273399,-0.30296 -0.545972,-0.60563 -0.825083,-0.90288 0,0 0.645176,-0.45387 0.645176,-0.45387 z"
       id="path4144"
       style="fill:#000000;fill-opacity:1"
       inkscape:connector-curvature="0"
       inkscape:export-filename="/home/sade/Desktop/comps/images/troops/dos.png"
       inkscape:export-xdpi="90"
       inkscape:export-ydpi="90" />
    <path
       d="m 73.905461,800.3389 c -0.0633,0.41523 -0.06005,0.83827 -0.06581,1.2575 -0.02703,0.6385 -0.128935,1.27171 -0.286181,1.88944 -0.02236,0.0731 -0.04473,0.14615 -0.06709,0.21923 0,0 -0.74474,0.39235 -0.74474,0.39235 l 0,0 c 0.01819,-0.0697 0.03637,-0.13935 0.05456,-0.20902 0.144674,-0.61182 0.237653,-1.23802 0.282755,-1.86575 0.01839,-0.43862 0.02723,-0.88483 0.129656,-1.31312 0,0 0.69685,-0.37063 0.69685,-0.37063 z"
       id="path4146"
       style="fill:#000000;fill-opacity:1"
       inkscape:connector-curvature="0"
       inkscape:export-filename="/home/sade/Desktop/comps/images/troops/dos.png"
       inkscape:export-xdpi="90"
       inkscape:export-ydpi="90" />
    <path
       d="m 79.554903,798.69327 c 0.377844,0.19322 0.761988,0.37363 1.136571,0.57383 0.377419,0.19358 0.763477,0.36426 1.166348,0.49318 0,0 -0.65593,0.493 -0.65593,0.493 l 0,0 c -0.421235,-0.111 -0.820355,-0.28313 -1.208604,-0.48349 -0.36532,-0.19448 -0.736816,-0.38008 -1.081659,-0.61181 0,0 0.643274,-0.46471 0.643274,-0.46471 z"
       id="path4148"
       style="fill:#000000;fill-opacity:1"
       inkscape:connector-curvature="0"
       inkscape:export-filename="/home/sade/Desktop/comps/images/troops/dos.png"
       inkscape:export-xdpi="90"
       inkscape:export-ydpi="90" />
    <path
       d="m 81.278406,797.97763 c -0.198119,0.28973 -0.311314,0.63747 -0.4444,0.96229 -0.182907,0.48918 -0.387876,0.96802 -0.611581,1.4388 0,0 -0.773355,0.39065 -0.773355,0.39065 l 0,0 c 0.222682,-0.47164 0.423278,-0.95279 0.617545,-1.43744 0.150875,-0.3492 0.292681,-0.70829 0.502525,-1.02566 0,0 0.709266,-0.32864 0.709266,-0.32864 z"
       id="path4150"
       style="fill:#000000;fill-opacity:1"
       inkscape:connector-curvature="0"
       inkscape:export-filename="/home/sade/Desktop/comps/images/troops/dos.png"
       inkscape:export-xdpi="90"
       inkscape:export-ydpi="90" />
    <path
       d="m 83.245175,803.92294 a 0.76365108,0.71836599 0 1 1 -0.0085,-0.10715"
       id="path4152"
       style="fill:#ffffff;fill-opacity:1"
       inkscape:connector-curvature="0"
       inkscape:export-filename="/home/sade/Desktop/comps/images/troops/dos.png"
       inkscape:export-xdpi="90"
       inkscape:export-ydpi="90" />
    <path
       d="m 78.532296,816.60062 c -0.270822,-0.46116 -0.810651,-1.26529 -1.199619,-1.78695 -0.865551,-1.16084 -0.709709,-1.17221 -3.489087,0.25454 -1.110021,0.56981 -2.043633,1.00994 -2.074695,0.97807 -0.03106,-0.0319 0.07324,-0.54966 0.231776,-1.15063 0.241924,-0.91707 0.285776,-1.39468 0.272855,-2.9718 -0.01347,-1.64387 -0.04645,-1.92184 -0.263482,-2.2204 -0.327766,-0.4509 -2.032136,-1.38439 -3.14837,-1.72437 -0.490009,-0.14924 -0.976837,-0.30037 -1.081839,-0.33583 -0.218617,-0.0738 -0.0059,-0.27597 1.527302,-1.45146 1.199424,-0.91958 2.655179,-2.23345 2.815715,-2.54128 0.157506,-0.30202 -0.162599,-0.9921 -1.106923,-2.38629 l -0.707736,-1.0449 0.878602,-0.0721 c 0.590068,-0.0485 1.115588,-0.19112 1.600234,-0.43445 0.74215,-0.37262 1.183538,-0.86483 0.775534,-0.86483 -0.141365,0 -0.01007,-0.22272 0.409167,-0.69406 0.666738,-0.7496 1.317342,-1.93977 1.317342,-2.40985 0,-0.37022 0.201602,-0.37636 0.391653,-0.0119 0.285873,0.54817 1.182102,1.42794 1.928922,1.8935 0.689363,0.42974 0.8198,0.46614 1.436577,0.40081 1.011436,-0.10713 1.70233,-0.48209 3.040974,-1.65041 0.66458,-0.58002 1.231223,-1.05458 1.259207,-1.05458 0.02798,0 0.08463,0.54367 0.125882,1.20816 0.09146,1.47322 0.477355,3.01788 0.857759,3.43341 0.40729,0.44491 1.819275,0.75085 2.941571,0.63736 l 0.871662,-0.0881 -0.584328,0.89423 c -0.687805,1.05259 -1.196938,2.05006 -1.196938,2.34498 0,0.11557 0.2239,0.60354 0.497556,1.08439 0.457263,0.80347 1.056622,1.46922 2.347853,2.60793 0.269762,0.2379 0.470145,0.44964 0.445293,0.47054 -0.02485,0.0209 -0.560649,0.4003 -1.190661,0.84309 -0.630012,0.4428 -1.510073,1.0833 -1.95569,1.42333 l -0.810214,0.61824 -0.433844,1.50204 c -0.238613,0.82612 -0.468567,1.69306 -0.51101,1.92653 -0.04244,0.23347 -0.151777,0.42449 -0.242967,0.42449 -0.09119,0 -0.840869,-0.25931 -1.665953,-0.57624 -1.350712,-0.51883 -1.53223,-0.55897 -1.822132,-0.40297 -0.72291,0.38899 -1.129178,1.01267 -1.56779,2.40677 l -0.427752,1.35958 -0.492406,-0.83847 0,0 z m 0.962697,-3.16748 c 0.21788,0.0427 0.396004,-0.0241 0.560192,-0.21032 0.236199,-0.26784 0.236133,-0.27656 -0.0036,-0.46267 -0.13436,-0.10433 -0.315882,-0.19155 -0.403384,-0.19384 -0.20194,-0.005 -0.200669,-0.0229 0.04775,-0.65999 0.113765,-0.29178 0.176362,-0.56179 0.139104,-0.60003 -0.125658,-0.12895 -0.836315,0.33647 -0.918244,0.60137 -0.04468,0.14446 -0.177604,0.26462 -0.295389,0.26701 -0.203667,0.004 -0.786893,0.42016 -0.786893,0.56131 0,0.0367 0.169578,0.10487 0.37684,0.15158 0.340558,0.0768 0.369415,0.12304 0.299714,0.48068 l -0.07712,0.39574 0.370766,-0.19676 c 0.203921,-0.10821 0.514521,-0.16855 0.690223,-0.13408 l 0,0 z m -4.587134,-0.28355 c 0.263688,-0.13994 0.393891,-0.32805 0.453765,-0.65557 l 0.08397,-0.45933 0.590893,0.0804 c 0.497355,0.0677 0.628939,0.0373 0.831244,-0.19211 0.238411,-0.27034 0.236639,-0.27414 -0.219603,-0.46976 -0.252974,-0.10847 -0.520864,-0.19722 -0.595311,-0.19722 -0.265608,0 -0.268264,-0.37485 -0.0064,-0.90162 0.14631,-0.29432 0.233373,-0.53512 0.193474,-0.53512 -0.216198,0 -0.835577,0.43207 -0.959202,0.66912 -0.118353,0.22694 -0.223878,0.26185 -0.60833,0.20125 -0.342998,-0.0541 -0.540335,-0.01 -0.751507,0.1695 -0.157503,0.13355 -0.286369,0.2695 -0.286369,0.3021 0,0.0326 0.257733,0.16029 0.572738,0.28374 0.315007,0.12346 0.572059,0.2343 0.571228,0.24632 -8.25e-4,0.012 -0.08606,0.34511 -0.189402,0.74021 -0.27345,1.04549 -0.278175,1.03485 0.318801,0.71805 l 0,0 z m 8.445277,-0.77931 c 0.254691,-0.17737 0.541918,-0.29144 0.638281,-0.25349 0.09637,0.0379 0.333631,-0.0709 0.527258,-0.24177 l 0.352051,-0.31076 -0.399834,-0.16996 c -0.453569,-0.1928 -0.472718,-0.28526 -0.214565,-1.03613 0.163835,-0.47653 0.163167,-0.53887 -0.0058,-0.53887 -0.20049,0 -0.815859,0.56422 -0.815859,0.74804 0,0.0588 -0.200458,0.21763 -0.445463,0.35303 -0.510693,0.28224 -0.548541,0.40048 -0.191046,0.59682 0.239535,0.13155 0.243258,0.16714 0.06364,0.6083 -0.104928,0.25771 -0.190779,0.49078 -0.190779,0.51792 0,0.1255 0.2581,0.0222 0.682103,-0.27313 l -6e-6,0 z m -3.497043,-1.3846 c 0.362938,-0.22707 0.486062,-0.2458 0.783775,-0.11925 0.289842,0.1232 0.412371,0.11034 0.68308,-0.0717 0.181436,-0.122 0.329883,-0.26212 0.329883,-0.31138 0,-0.0493 -0.258969,-0.21868 -0.575487,-0.37649 l -0.575488,-0.28692 0.266178,-0.53543 c 0.146399,-0.29449 0.238869,-0.56346 0.20549,-0.59771 -0.10562,-0.1084 -0.813636,0.32976 -0.898169,0.55582 -0.05992,0.16025 -0.177225,0.19693 -0.450427,0.14086 -0.264984,-0.0544 -0.466618,0.003 -0.713302,0.20178 l -0.343896,0.2776 0.473099,0.24908 c 0.473736,0.24941 0.495085,0.3251 0.258234,0.91551 -0.120033,0.29921 0.02997,0.28795 0.55703,-0.0418 l 0,0 z m 4.912721,-1.81213 c 0.06686,-0.21619 0.131309,-0.23654 0.407656,-0.12872 0.386188,0.15068 0.691798,0.073 0.974689,-0.24781 0.192214,-0.21796 0.162903,-0.24647 -0.486247,-0.4729 l -0.69079,-0.24097 0.186515,-0.4581 c 0.102584,-0.25195 0.162449,-0.48279 0.133036,-0.51298 -0.09361,-0.0961 -0.807056,0.33884 -0.881216,0.53717 -0.0392,0.10483 -0.175007,0.16599 -0.301793,0.1359 -0.20228,-0.048 -0.919335,0.41496 -0.789466,0.50973 0.02742,0.02 0.190822,0.0969 0.363125,0.17096 0.279038,0.11988 0.309227,0.20215 0.276233,0.75277 l -0.03704,0.61817 0.382942,-0.20322 c 0.210619,-0.11177 0.418681,-0.31877 0.46236,-0.46 l 0,0 z M 74.609513,808.3911 c 0.221254,-0.13845 0.439891,-0.37333 0.485858,-0.52196 0.09599,-0.31038 0.18602,-0.32774 0.627961,-0.1211 0.257844,0.12056 0.380933,0.10747 0.642365,-0.0683 0.177871,-0.1196 0.323402,-0.261 0.323402,-0.31422 0,-0.0532 -0.226429,-0.24038 -0.503176,-0.4159 l -0.503175,-0.31913 0.273061,-0.46272 c 0.150183,-0.2545 0.331488,-0.56291 0.4029,-0.68535 0.07141,-0.12245 0.09645,-0.2569 0.05565,-0.29877 -0.152631,-0.15663 -0.751076,0.25184 -0.997882,0.68111 l -0.255837,0.44498 -0.353955,-0.25864 c -0.333789,-0.24391 -0.37364,-0.24639 -0.699436,-0.0435 -0.190014,0.11832 -0.34548,0.25601 -0.34548,0.30597 0,0.05 0.204984,0.26425 0.45552,0.47618 l 0.455519,0.38532 -0.328244,0.66474 c -0.458136,0.92779 -0.430053,0.98623 0.264949,0.55134 z m -3.59015,-0.1601 c 0.178298,-0.0834 0.324178,-0.22884 0.324178,-0.32327 0,-0.12145 0.112745,-0.14855 0.385279,-0.0926 0.273167,0.0561 0.458347,0.0112 0.636376,-0.15412 0.347604,-0.32283 0.320358,-0.3907 -0.226185,-0.56343 -0.796206,-0.25165 -0.823045,-0.29162 -0.66913,-0.99643 0.07527,-0.34468 0.113677,-0.65048 0.08534,-0.67956 -0.150601,-0.15455 -0.738028,0.31383 -0.87261,0.69577 -0.10721,0.30426 -0.233999,0.43665 -0.418162,0.43665 -0.345013,0 -0.830041,0.35293 -0.830041,0.60397 0,0.13787 0.07668,0.17233 0.254551,0.1144 0.465086,-0.15148 0.727026,0.039 0.813101,0.59145 0.09098,0.5839 0.07621,0.57342 0.517299,0.36718 z m 7.203358,-0.57015 c 0.241953,-0.1284 0.376945,-0.3026 0.379554,-0.48979 0.0037,-0.26489 0.01854,-0.27096 0.168235,-0.0688 0.153537,0.20733 0.19096,0.205 0.576909,-0.0359 l 0.412721,-0.25757 -0.39934,-0.51743 c -0.219637,-0.28458 -0.444966,-0.54636 -0.500731,-0.58173 -0.05576,-0.0354 -0.05927,-0.30067 -0.0078,-0.58956 0.104038,-0.58386 -0.0098,-0.66014 -0.48028,-0.32194 -0.155578,0.11183 -0.282869,0.16728 -0.282869,0.12323 0,-0.0441 -0.171822,0.0241 -0.381826,0.15136 -0.454989,0.27582 -0.458665,0.30089 -0.11066,0.75491 0.237643,0.31003 0.260806,0.45753 0.187368,1.19312 -0.04609,0.46165 -0.05072,0.83935 -0.01029,0.83935 0.04043,0 0.24248,-0.0897 0.449007,-0.19927 z m 4.503585,-1.7565 c 1.820255,-0.90691 2.132868,-2.16451 0.873371,-3.51346 l -0.537839,-0.57603 -0.768192,0.0715 c -0.826459,0.0769 -1.875976,0.59639 -1.996224,0.98808 -0.03687,0.1201 -0.176543,0.43208 -0.310379,0.69329 -0.311004,0.60699 -0.307774,1.11298 0.01052,1.64872 0.543871,0.9154 1.691478,1.20472 2.72874,0.68792 l 0,0 z m -9.126633,-2.36249 c 0.05028,-0.19731 0.111233,-0.22038 0.303421,-0.11483 0.257032,0.14117 0.588472,0.0224 0.854151,-0.30614 0.117953,-0.14585 0.05256,-0.24539 -0.328656,-0.50026 l -0.475907,-0.31817 0.0063,-1.00892 c 0.0035,-0.5549 -0.01368,-1.00891 -0.03814,-1.00891 -0.226946,0 -0.795478,0.44791 -0.795478,0.62671 0,0.1268 -0.197914,0.33755 -0.445464,0.47436 -0.245005,0.1354 -0.445463,0.28323 -0.445463,0.32851 0,0.0453 0.163195,0.28293 0.362656,0.52812 0.315521,0.38785 0.349,0.50604 0.257587,0.90935 -0.05779,0.25495 -0.106436,0.59731 -0.108106,0.76079 -0.003,0.29076 0.0056,0.29265 0.393557,0.0868 0.218125,-0.11575 0.424906,-0.32157 0.459512,-0.45737 l 0,0 z m 3.182675,-1.43985 c 0.07724,-0.30313 0.149155,-0.30954 0.515833,-0.046 0.262847,0.18894 0.313408,0.1825 0.681921,-0.0868 0.330319,-0.24138 0.36673,-0.31497 0.214054,-0.43263 -0.101182,-0.078 -0.346472,-0.27461 -0.545088,-0.43696 l -0.361119,-0.29516 0.229591,-0.52249 c 0.126274,-0.28737 0.196897,-0.55604 0.156938,-0.59705 -0.102397,-0.10508 -0.636218,0.20453 -0.826312,0.47925 -0.132354,0.19128 -0.23404,0.20873 -0.604517,0.10376 -0.361113,-0.10233 -0.504861,-0.0818 -0.759626,0.10849 -0.391719,0.29258 -0.398666,0.3896 -0.03586,0.50072 0.157503,0.0482 0.412508,0.16927 0.566677,0.26896 0.26527,0.17153 0.270391,0.20561 0.09546,0.63527 -0.101669,0.2497 -0.184852,0.57496 -0.184852,0.72278 0,0.25882 0.0147,0.26098 0.396592,0.0583 0.218126,-0.11575 0.425265,-0.32298 0.460308,-0.46049 l 0,0 z m 3.243509,-1.51977 c 0.120185,-0.0355 0.251018,-0.16968 0.29074,-0.29811 0.06185,-0.2 0.1328,-0.21444 0.49417,-0.10063 0.340169,0.10714 0.487328,0.0889 0.759282,-0.0939 0.185533,-0.12475 0.337333,-0.27085 0.337333,-0.32467 0,-0.0538 -0.255163,-0.19784 -0.567029,-0.32007 l -0.56703,-0.22223 0.272846,-0.57632 c 0.150066,-0.31698 0.23873,-0.61134 0.197032,-0.65413 -0.131867,-0.13532 -0.841569,0.31908 -0.926316,0.59309 -0.09084,0.29371 -0.223456,0.32412 -0.573964,0.13161 -0.186074,-0.10219 -0.316974,-0.0619 -0.594624,0.18323 l -0.356025,0.31427 0.475716,0.2328 c 0.545622,0.26701 0.541267,0.25274 0.275992,0.90428 -0.189641,0.46577 -0.188035,0.48561 0.03182,0.39297 0.127348,-0.0537 0.329874,-0.12664 0.450058,-0.16216 l 0,0 z"
       id="path4154"
       style="fill:#2c89a0;fill-opacity:1"
       inkscape:connector-curvature="0"
       inkscape:export-filename="/home/sade/Desktop/comps/images/troops/dos.png"
       inkscape:export-xdpi="90"
       inkscape:export-ydpi="90" />
  </g>
</svg>
