<?xml version="1.0" encoding="UTF-8" standalone="no"?>
<!-- Created with Inkscape (http://www.inkscape.org/) -->

<svg
   xmlns:dc="http://purl.org/dc/elements/1.1/"
   xmlns:cc="http://creativecommons.org/ns#"
   xmlns:rdf="http://www.w3.org/1999/02/22-rdf-syntax-ns#"
   xmlns:svg="http://www.w3.org/2000/svg"
   xmlns="http://www.w3.org/2000/svg"
   xmlns:sodipodi="http://sodipodi.sourceforge.net/DTD/sodipodi-0.dtd"
   xmlns:inkscape="http://www.inkscape.org/namespaces/inkscape"
   width="744.09448819"
   height="1052.3622047"
   id="svg3045"
   version="1.1"
   inkscape:version="0.48.3.1 r9886"
   sodipodi:docname="encryptedtroop.svg">
  <defs
     id="defs3047" />
  <sodipodi:namedview
     id="base"
     pagecolor="#ffffff"
     bordercolor="#666666"
     borderopacity="1.0"
     inkscape:pageopacity="0.0"
     inkscape:pageshadow="2"
     inkscape:zoom="11.2"
     inkscape:cx="375"
     inkscape:cy="501.81467"
     inkscape:document-units="px"
     inkscape:current-layer="layer1"
     showgrid="false"
     inkscape:window-width="1311"
     inkscape:window-height="744"
     inkscape:window-x="55"
     inkscape:window-y="24"
     inkscape:window-maximized="1" />
  <metadata
     id="metadata3050">
    <rdf:RDF>
      <cc:Work
         rdf:about="">
        <dc:format>image/svg+xml</dc:format>
        <dc:type
           rdf:resource="http://purl.org/dc/dcmitype/StillImage" />
        <dc:title></dc:title>
      </cc:Work>
    </rdf:RDF>
  </metadata>
  <g
     inkscape:label="Layer 1"
     inkscape:groupmode="layer"
     id="layer1">
    <path
       style="fill:#ffffff;fill-opacity:1"
       d="m 395.06191,528.85254 c -1.21792,-0.87303 -2.92913,-1.94913 -3.8027,-2.39135 l -1.58829,-0.80401 1.48237,-2.00544 c 0.8153,-1.10298 1.34936,-2.21633 1.18679,-2.47411 -0.16256,-0.25776 -2.00797,-1.43664 -4.10092,-2.61971 -2.09296,-1.18308 -4.33136,-2.69976 -4.97424,-3.37039 -1.28168,-1.33701 -3.02449,-1.58868 -3.89372,-0.56225 -0.46779,0.55238 -1.32019,0.51739 -5.3502,-0.21968 -6.53951,-1.19603 -6.41587,-1.21011 -6.7956,0.77354 -0.17827,0.93126 -0.52381,1.81415 -0.76786,1.96197 -0.24405,0.14781 -1.66285,10e-4 -3.15288,-0.32541 l -2.70916,-0.59416 1.03707,-1.08184 c 1.77451,-1.85112 6.53592,-4.01421 10.18654,-4.6277 10.85227,-1.82376 21.55283,4.70551 24.78092,15.12082 1.44314,4.65626 1.19386,5.17807 -1.53812,3.21972 z"
       id="path3316"
       inkscape:connector-curvature="0"
       inkscape:export-filename="/home/sade/Desktop/screw-comps/images/troops/encrypted_troop.png"
       inkscape:export-xdpi="90"
       inkscape:export-ydpi="90" />
    <path
       style="fill:#ffffff;fill-opacity:1"
       d="m 371.12818,554.45889 c -3.12804,-0.60687 -7.61622,-3.03804 -10.68842,-5.78973 -2.02872,-1.81706 -3.32602,-3.571 -4.80548,-6.49699 -1.79665,-3.55331 -2.05511,-4.49885 -2.27828,-8.33476 -0.20639,-3.54736 -0.0602,-4.94479 0.81165,-7.75772 0.58485,-1.88705 1.14172,-3.43098 1.23746,-3.43098 0.0958,0 1.08535,1.3707 2.19912,3.046 l 2.02503,3.04601 -1.2291,3.07357 c -1.54683,3.8681 -1.53693,4.13794 0.17323,4.72218 1.19894,0.4096 1.44875,0.81092 1.72232,2.76687 0.17598,1.25828 0.31997,3.77658 0.31997,5.59623 0,3.10831 0.067,3.30869 1.1072,3.31245 0.60897,0.002 5.38802,1.08529 10.62013,2.40686 l 9.51293,2.40287 4.20188,-2.92656 c 2.31104,-1.60962 4.51455,-3.04415 4.8967,-3.18787 0.55779,-0.20976 0.66739,-1.45264 0.55577,-6.30185 l -0.13905,-6.04054 3.14218,-1.38361 3.14218,-1.38359 -0.24851,3.4038 c -0.49453,6.77364 -5.71724,14.07071 -12.36699,17.27892 -4.74332,2.28844 -9.1119,2.90971 -13.91192,1.97844 z"
       id="path3318"
       inkscape:connector-curvature="0"
       inkscape:export-filename="/home/sade/Desktop/screw-comps/images/troops/encrypted_troop.png"
       inkscape:export-xdpi="90"
       inkscape:export-ydpi="90" />
    <path
       style="fill:#ffffff;fill-opacity:1"
       d="m 371.12818,554.45889 c -3.12804,-0.60687 -7.61622,-3.03804 -10.68842,-5.78973 -2.02872,-1.81706 -3.32602,-3.571 -4.80548,-6.49699 -1.79665,-3.55331 -2.05511,-4.49885 -2.27828,-8.33476 -0.20639,-3.54736 -0.0602,-4.94479 0.81165,-7.75772 0.58485,-1.88705 1.14172,-3.43098 1.23746,-3.43098 0.0958,0 1.07751,1.35891 2.1817,3.0198 l 2.00761,3.0198 -1.21168,3.2714 c -0.66642,1.79927 -1.21168,3.45731 -1.21168,3.68454 0,0.22723 0.63105,0.62873 1.40233,0.89222 1.19894,0.4096 1.44875,0.81092 1.72232,2.76687 0.17598,1.25828 0.31997,3.77658 0.31997,5.59623 0,3.10831 0.067,3.30869 1.1072,3.31245 0.60897,0.002 5.38802,1.08529 10.62013,2.40686 l 9.51293,2.40287 4.20188,-2.92656 c 2.31104,-1.60962 4.51455,-3.04415 4.8967,-3.18787 0.55779,-0.20976 0.66739,-1.45264 0.55577,-6.30185 l -0.13905,-6.04054 3.14218,-1.38361 3.14218,-1.38359 -0.24851,3.4038 c -0.49453,6.77364 -5.71724,14.07071 -12.36699,17.27892 -4.74332,2.28844 -9.1119,2.90971 -13.91192,1.97844 z"
       id="path3320"
       inkscape:connector-curvature="0"
       inkscape:export-filename="/home/sade/Desktop/screw-comps/images/troops/encrypted_troop.png"
       inkscape:export-xdpi="90"
       inkscape:export-ydpi="90" />
    <path
       style="fill:#ffffff;fill-opacity:1"
       d="m 371.12818,554.45889 c -3.12804,-0.60687 -7.61622,-3.03804 -10.68842,-5.78973 -2.02872,-1.81706 -3.32602,-3.571 -4.80548,-6.49699 -1.79665,-3.55331 -2.05511,-4.49885 -2.27828,-8.33476 -0.20639,-3.54736 -0.0602,-4.94479 0.81165,-7.75772 0.58485,-1.88705 1.14172,-3.43098 1.23746,-3.43098 0.0958,0 1.07751,1.35891 2.1817,3.0198 l 2.00761,3.0198 -1.21168,3.2714 c -0.66642,1.79927 -1.21168,3.45731 -1.21168,3.68454 0,0.22723 0.63105,0.62873 1.40233,0.89222 1.19894,0.4096 1.44875,0.81092 1.72232,2.76687 0.17598,1.25828 0.31997,3.77658 0.31997,5.59623 0,3.10831 0.067,3.30869 1.1072,3.31245 0.60897,0.002 5.37074,1.08093 10.58174,2.39719 l 9.47453,2.39319 4.27124,-2.92854 c 2.34918,-1.61069 4.56997,-3.04088 4.9351,-3.17818 0.51876,-0.19509 0.63346,-1.56988 0.5248,-6.29021 l -0.13905,-6.04054 3.14218,-1.38361 3.14218,-1.38359 -0.24851,3.4038 c -0.49453,6.77364 -5.71724,14.07071 -12.36699,17.27892 -4.74332,2.28844 -9.1119,2.90971 -13.91192,1.97844 z"
       id="path3322"
       inkscape:connector-curvature="0"
       inkscape:export-filename="/home/sade/Desktop/screw-comps/images/troops/encrypted_troop.png"
       inkscape:export-xdpi="90"
       inkscape:export-ydpi="90" />
    <path
       style="fill:#ffffff;fill-opacity:1"
       d="m 371.12818,554.45889 c -3.12804,-0.60687 -7.61622,-3.03804 -10.68842,-5.78973 -2.02872,-1.81706 -3.32602,-3.571 -4.80548,-6.49699 -1.79665,-3.55331 -2.05511,-4.49885 -2.27828,-8.33476 -0.20639,-3.54736 -0.0602,-4.94479 0.81165,-7.75772 0.58485,-1.88705 1.14172,-3.43098 1.23746,-3.43098 0.0958,0 1.07751,1.35891 2.1817,3.0198 l 2.00761,3.0198 -1.21168,3.2714 c -0.66642,1.79927 -1.21168,3.45731 -1.21168,3.68454 0,0.22723 0.64615,0.63388 1.4359,0.90369 1.28312,0.43836 1.46705,0.76406 1.72861,3.06124 0.16099,1.41389 0.34523,3.83352 0.40943,5.37695 l 0.11673,2.80625 10.47531,2.59545 10.47533,2.59545 4.77943,-3.287 4.77944,-3.287 0,-5.92408 0,-5.92406 3.14218,-1.38171 3.14218,-1.3817 -0.24851,3.4038 c -0.49453,6.77364 -5.71724,14.07071 -12.36699,17.27892 -4.74332,2.28844 -9.1119,2.90971 -13.91192,1.97844 z"
       id="path3324"
       inkscape:connector-curvature="0"
       inkscape:export-filename="/home/sade/Desktop/screw-comps/images/troops/encrypted_troop.png"
       inkscape:export-xdpi="90"
       inkscape:export-ydpi="90" />
    <path
       style="fill:#ffffff;fill-opacity:1"
       d="m 373.52515,555.01962 c -2.74264,-0.16493 -5.52505,-0.98232 -8.37408,-2.46009 -3.57662,-1.85516 -6.96379,-5.09068 -9.1201,-8.71181 -1.21455,-2.0396 -2.199,-4.60214 -2.74402,-7.14276 -0.3859,-1.79883 -0.37541,-6.71446 0.0184,-8.64956 0.87398,-4.29406 2.72041,-7.79527 5.88504,-11.15928 2.69761,-2.86757 5.93294,-4.88871 9.77314,-6.10534 1.74693,-0.55345 2.5488,-0.65055 5.79109,-0.70123 3.92512,-0.0613 5.39578,0.0853 7.42597,0.7408 2.3569,0.76091 5.06541,2.19422 7.22016,3.8208 0.95185,0.71854 3.01744,2.74901 3.75139,3.68763 2.92256,3.73749 4.44127,7.78939 4.77501,12.73964 0.31063,4.60732 -0.78365,9.17735 -3.09565,12.92844 -3.11346,5.05142 -7.72004,8.58244 -13.43382,10.29725 -0.59805,0.17948 -1.47883,0.3887 -1.95727,0.46491 -1.41779,0.22585 -4.29786,0.34786 -5.91531,0.2506 z m 1.93832,-6.55437 c 0.43467,-0.17767 0.863,-0.59822 0.98787,-0.96991 0.1193,-0.35512 0.40061,-0.74011 1.93566,-2.64892 1.9411,-2.41377 3.57958,-4.24323 5.34936,-5.97288 2.26199,-2.21069 3.7669,-3.42032 6.55944,-5.27237 1.54899,-1.02731 1.66195,-1.15433 1.78884,-2.01125 0.0555,-0.37511 0.10076,-0.73083 0.10045,-0.79049 -3.5e-4,-0.0596 -0.32352,-0.31267 -0.71824,-0.56225 -0.39471,-0.24957 -0.77639,-0.52332 -0.84815,-0.60834 -0.3842,-0.45515 -1.15965,-0.55264 -3.00115,-0.37732 -0.78113,0.0744 -6.20639,0.25044 -6.28616,0.20401 -0.12047,-0.0701 -0.45227,-7.60071 -0.45446,-10.31446 -0.001,-1.52218 -0.11882,-2.67027 -0.31079,-3.03406 -0.2815,-0.53349 -0.95002,-0.92282 -1.59,-0.92599 -0.4326,-0.002 -4.25617,0.51824 -5.59642,0.76167 -1.60417,0.29136 -3.28633,0.67572 -3.6041,0.8235 -0.40867,0.19005 -1.30305,1.21566 -1.43419,1.64462 -0.0895,0.2929 -0.0608,0.60122 0.21325,2.28321 0.17422,1.06951 0.52965,3.364 0.78982,5.09884 0.26019,1.73486 0.50065,3.32124 0.53437,3.52529 0.0736,0.44534 -0.009,0.52091 -0.57269,0.52292 -0.41829,0.001 -2.72919,0.27926 -3.60413,0.4332 -2.1907,0.38546 -3.96219,0.985 -4.70089,1.59098 -0.57864,0.47468 -0.81636,1.08764 -0.62875,1.62128 0.0641,0.18235 0.0998,0.4715 0.0795,0.64255 -0.0629,0.52772 0.23479,0.97786 1.13508,1.71656 1.16695,0.95751 2.62156,2.38133 6.45194,6.31537 3.81507,3.91831 4.33184,4.48534 4.74483,5.20646 0.37986,0.66327 0.58183,0.87863 1.00239,1.06885 0.43149,0.19516 1.23669,0.20905 1.67736,0.029 z"
       id="path3713"
       inkscape:connector-curvature="0"
       inkscape:export-filename="/home/sade/Desktop/screw-comps/images/troops/encrypted_troop.png"
       inkscape:export-xdpi="90"
       inkscape:export-ydpi="90" />
    <path
       style="fill:#ffffff;fill-opacity:1"
       d="m 372.76199,554.97695 c -2.94994,-0.27884 -6.48767,-1.58278 -9.40057,-3.46487 -2.19455,-1.41795 -4.56815,-3.69786 -6.2599,-6.01285 -1.84393,-2.52321 -3.3253,-6.04339 -3.90558,-9.2808 -0.33454,-1.86644 -0.26026,-6.42824 0.13554,-8.32279 0.20846,-0.99788 0.80874,-3.00992 1.15702,-3.87818 1.03238,-2.57369 2.84726,-5.24881 5.09146,-7.5048 2.67801,-2.69207 5.48937,-4.43667 9.03017,-5.6037 2.10065,-0.69236 3.40364,-0.85431 6.86736,-0.85359 3.99514,8.4e-4 5.63998,0.25974 8.083,1.27229 3.15425,1.30732 5.4251,2.78644 7.72752,5.03332 1.53528,1.49827 2.20584,2.30099 3.15517,3.7771 3.1352,4.87485 4.26597,11.1281 3.08078,17.03697 -1.13385,5.65288 -4.72659,10.87253 -9.76214,14.1827 -2.45474,1.61366 -5.78933,2.99582 -8.2061,3.40138 -1.63716,0.27472 -5.03811,0.38377 -6.79373,0.21782 z"
       id="path3004"
       inkscape:connector-curvature="0"
       inkscape:export-filename="/home/sade/Desktop/screw-comps/images/troops/encrypted_troop.png"
       inkscape:export-xdpi="90"
       inkscape:export-ydpi="90" />
    <path
       style="fill:#000000;fill-opacity:1"
       id="path3021"
       d="m 364.4209,521.10887 c 0.81859,-0.75869 1.76406,-1.42326 2.76761,-2.04534 1.16707,-0.69638 2.38211,-1.37329 3.7532,-1.8376 0.25623,-0.0868 0.52266,-0.15602 0.78399,-0.23403 0.25564,-0.0524 0.50734,-0.11674 0.76691,-0.15727 0.25604,-0.0399 0.51518,-0.0827 0.77686,-0.0837 2.77367,-0.01 5.54869,-0.0174 8.32082,0.0518 0.37459,0.009 1.11867,0.31181 1.40758,0.45773 0.22383,0.1131 0.42057,0.25293 0.63085,0.37939 1.21469,0.92703 1.81491,2.16779 2.13199,3.41803 0.0798,0.31438 0.12215,0.63333 0.18323,0.94999 0.24106,1.66277 0.0457,3.34222 -0.72395,4.92097 -0.15306,0.31396 -0.34618,0.61646 -0.51927,0.92468 -1.04948,1.67589 -2.51064,2.99399 -4.34891,4.2211 -1.00774,0.64342 -2.15328,1.12398 -3.42591,1.40536 -3.05897,0.55787 2.49057,-0.4335 -8.39963,0.0723 -2.53833,0.11786 5.08667,0.007 7.63,0.009 0.3127,2.1e-4 -0.19573,-0.006 -0.25344,-0.0131 -0.29167,-0.11785 -0.0165,8.9e-4 0.0108,-0.6797 0.002,-0.0531 -0.0112,-0.10646 -0.004,-0.15929 0.001,-0.009 0.0239,-0.0242 0.0278,-0.016 0.0442,0.0934 0.0567,0.19367 0.0933,0.28889 0.0122,-0.0164 0.0158,-0.0602 0.0364,-0.0493 0.0386,0.0205 0.0233,0.0708 0.0542,0.0974 0.0141,0.0125 0.0431,0.004 0.0645,0.005 0.0305,0.0186 0.0663,0.0333 0.0914,0.0558 0.0794,0.071 0.13795,0.15337 0.21174,0.22753 0.25112,0.40259 0.51342,0.79852 0.70146,1.22063 0.24492,0.69803 0.38686,1.4139 0.50394,2.12901 0.10148,0.6944 0.18733,1.39033 0.24622,2.08745 0.0716,0.19226 -0.0171,0.43238 0.089,0.61939 -2.6723,-0.0297 -5.34459,-0.0593 -8.01688,-0.089 0,0 7.99225,-0.005 7.99225,-0.005 l 0,0 c -2.67163,0.023 -5.34326,0.0459 -8.01489,0.0689 0.0809,-0.16748 0.0486,-0.39521 0.0774,-0.57925 0.0126,-0.67571 0.004,-1.35297 -0.12049,-2.02387 -0.14085,-0.67631 -0.31946,-1.35114 -0.62188,-1.99944 -0.20107,-0.34997 -0.41642,-0.72521 -0.77178,-1.00417 -0.10424,-0.0722 -0.2377,-0.11361 -0.33482,-0.18883 -0.0327,-0.0253 -0.0446,-0.0647 -0.0827,-0.0854 -0.0144,-0.007 -0.0339,0.009 -0.0508,0.0125 -0.0202,-0.0343 -0.0403,-0.0688 -0.0604,-0.10308 -0.0776,0.11811 0.0723,-0.12224 -0.0292,0.19507 -0.0206,0.0643 -0.0926,-0.11912 -0.095,-0.18507 -0.0249,-0.66718 -0.23391,-0.56196 0.0702,-0.69651 0.10742,-0.025 0.22571,-0.0436 0.33862,-0.0437 2.67667,-0.002 5.36123,-0.14549 8.03002,0.006 2.38259,0.13549 -10.50572,-0.12806 -7.16869,0.0431 1.34701,-0.14089 2.59241,-0.49734 3.68856,-1.1069 0.26555,-0.15253 0.54021,-0.29679 0.79668,-0.4576 1.54399,-0.96811 2.77992,-2.16307 3.69164,-3.49742 0.17175,-0.29084 0.36271,-0.57589 0.51524,-0.87252 0.7668,-1.49121 0.97617,-3.08835 0.69373,-4.66608 -0.0746,-0.29861 -0.12873,-0.60041 -0.22382,-0.89582 -0.30132,-0.936 -0.81595,-1.92755 -1.72497,-2.63867 -0.17948,-0.14041 -0.39342,-0.25431 -0.59014,-0.38146 -0.56947,-0.25014 -0.65732,-0.32876 -1.30104,-0.4544 -0.22694,-0.0443 -0.92847,-0.0833 -0.69387,-0.0885 2.26761,-0.0511 4.53708,-0.0355 6.80567,-0.0493 0.25674,-0.001 -0.51426,-0.004 -0.77008,0.0125 -0.26106,0.0165 -0.5183,0.0572 -0.77746,0.0858 -0.26371,0.0565 -0.53341,0.0996 -0.79114,0.16959 -1.38153,0.37512 -2.58493,1.02377 -3.72425,1.6963 -0.89927,0.56363 -1.79564,1.14396 -2.40557,1.90211 0,0 -7.93896,-0.34547 -7.93896,-0.34547 z"
       inkscape:connector-curvature="0"
       inkscape:export-filename="/home/sade/Desktop/screw-comps/images/troops/encrypted_troop.png"
       inkscape:export-xdpi="90"
       inkscape:export-ydpi="90" />
    <path
       style="fill:#000000;fill-opacity:1"
       id="path3023"
       d="m 378.66773,542.42237 c 0.14713,0.87082 0.37898,1.73357 0.56174,2.60119 0.22767,1.10718 0.49082,2.20581 0.98722,3.26586 0.0623,0.0858 0.12457,0.17159 0.18685,0.25738 0,0 -7.8257,0.21544 -7.8257,0.21544 l 0,0 c -0.0386,-0.10508 -0.0771,-0.21023 -0.11567,-0.31535 -0.3279,-1.1017 -0.56478,-2.21401 -0.84978,-3.32189 -0.24184,-0.85612 -0.49789,-1.71335 -0.89337,-2.53906 0,0 7.94871,-0.16357 7.94871,-0.16357 z"
       inkscape:connector-curvature="0"
       inkscape:export-filename="/home/sade/Desktop/screw-comps/images/troops/encrypted_troop.png"
       inkscape:export-xdpi="90"
       inkscape:export-ydpi="90" />
  </g>
</svg>
