<?xml version="1.0" encoding="UTF-8" standalone="no"?>
<!-- Created with Inkscape (http://www.inkscape.org/) -->

<svg
   xmlns:dc="http://purl.org/dc/elements/1.1/"
   xmlns:cc="http://creativecommons.org/ns#"
   xmlns:rdf="http://www.w3.org/1999/02/22-rdf-syntax-ns#"
   xmlns:svg="http://www.w3.org/2000/svg"
   xmlns="http://www.w3.org/2000/svg"
   xmlns:sodipodi="http://sodipodi.sourceforge.net/DTD/sodipodi-0.dtd"
   xmlns:inkscape="http://www.inkscape.org/namespaces/inkscape"
   version="1.1"
   width="236.36449"
   height="227.05879"
   id="svg3607"
   inkscape:version="0.48.3.1 r9886"
   sodipodi:docname="handshake.svg">
  <sodipodi:namedview
     pagecolor="#ffffff"
     bordercolor="#666666"
     borderopacity="1"
     objecttolerance="10"
     gridtolerance="10"
     guidetolerance="10"
     inkscape:pageopacity="0"
     inkscape:pageshadow="2"
     inkscape:window-width="1311"
     inkscape:window-height="744"
     id="namedview24"
     showgrid="false"
     inkscape:zoom="7.4445477"
     inkscape:cx="95.924697"
     inkscape:cy="156.94609"
     inkscape:window-x="55"
     inkscape:window-y="24"
     inkscape:window-maximized="1"
     inkscape:current-layer="layer1" />
  <defs
     id="defs3609" />
  <metadata
     id="metadata3612">
    <rdf:RDF>
      <cc:Work
         rdf:about="">
        <dc:format>image/svg+xml</dc:format>
        <dc:type
           rdf:resource="http://purl.org/dc/dcmitype/StillImage" />
        <dc:title></dc:title>
      </cc:Work>
    </rdf:RDF>
  </metadata>
  <g
     transform="translate(-90.389188,-261.68993)"
     id="layer1">
    <path
       sodipodi:type="arc"
       style="fill:#e2e3db;fill-opacity:1"
       id="path3006"
       sodipodi:cx="97.924011"
       sodipodi:cy="62.173019"
       sodipodi:rx="26.05934"
       sodipodi:ry="26.26083"
       d="m 123.98335,62.173019 a 26.05934,26.26083 0 1 1 -0.29152,-3.917023"
       transform="matrix(0.92268041,0,0,0.91560102,119.31854,276.54161)"
       sodipodi:start="0"
       sodipodi:end="6.1334682"
       sodipodi:open="true"
       inkscape:export-filename="/home/sade/Desktop/screw-comps/images/troops/troop svg files/player_rings.svg.png"
       inkscape:export-xdpi="90"
       inkscape:export-ydpi="90" />
    <path
       d="m 173.06745,323.25855 a 22.5,22.5 0 1 1 -0.25169,-3.35606"
       id="path3511"
       style="fill:#afe9af;fill-opacity:1"
       inkscape:connector-curvature="0"
       inkscape:export-filename="/home/sade/Desktop/screw-comps/images/troops/handshake.png"
       inkscape:export-xdpi="90"
       inkscape:export-ydpi="90" />
    <path
       d="m 171.61523,323.13124 a 21.047776,21.005347 0 1 1 -0.23544,-3.13311"
       id="path3513"
       style="fill:#f9f9f9;fill-opacity:1"
       inkscape:connector-curvature="0"
       inkscape:export-filename="/home/sade/Desktop/screw-comps/images/troops/handshake.png"
       inkscape:export-xdpi="90"
       inkscape:export-ydpi="90" />
    <path
       style="fill:#afe9af;fill-opacity:1"
       d="m 148.19473,342.79704 c -0.12299,-0.0509 -0.70892,-0.15805 -1.30205,-0.23817 -1.17208,-0.15832 -1.94073,-0.73892 -1.94073,-1.46593 0,-0.25138 0.28856,-1.08247 0.64126,-1.84688 1.11161,-2.4092 2.15226,-6.17386 1.80437,-6.52749 -0.11508,-0.11696 -0.20923,-0.43665 -0.20923,-0.71038 0,-0.64881 -0.92993,-1.74288 -1.78151,-2.09595 -0.98114,-0.40682 -2.42758,-0.11003 -3.76691,0.77292 -0.63433,0.41816 -1.19915,0.68608 -1.25516,0.59537 -0.056,-0.0907 -0.01,-0.56232 0.10277,-1.04802 0.11252,-0.48571 0.20659,-1.68901 0.20906,-2.67402 0.007,-2.49664 -0.72964,-3.6307 -2.61056,-4.02294 -0.63634,-0.1327 -1.53019,0.14801 -3.00901,0.94497 -0.0806,0.0435 -0.0465,-0.35437 0.0757,-0.88402 0.68616,-2.97308 -0.37073,-4.99257 -2.61283,-4.99257 -0.63723,0 -0.66836,-0.043 -0.61991,-0.85485 0.0641,-1.07594 1.73774,-4.45281 3.04651,-6.1472 2.58568,-3.34756 6.38016,-5.88104 10.65637,-7.11496 2.25415,-0.65046 7.30712,-0.60701 9.83627,0.0845 1.04336,0.2853 1.9491,0.59613 2.01275,0.69072 0.0637,0.0946 0.29735,0.27122 0.51931,0.39247 0.28666,0.15661 -0.29642,0.22437 -2.01277,0.2339 -3.43667,0.0192 -7.56692,1.10948 -9.21812,2.43349 -2.37851,1.90715 -3.25662,2.75601 -4.19204,4.05246 -2.41626,3.34875 -2.47613,5.57536 -0.17924,6.6664 1.00185,0.47587 3.2905,0.33524 5.3022,-0.32583 0.74807,-0.24583 1.53883,-0.44695 1.75727,-0.44695 0.21842,0 0.45934,-0.10073 0.53536,-0.22386 0.0761,-0.12313 0.53483,-0.22386 1.01957,-0.22386 0.92025,0 1.77594,0.58996 1.77594,1.22444 0,0.84312 1.40197,2.79692 2.66322,3.71148 2.6792,1.94272 8.02044,2.12881 12.85889,0.44797 0.72651,-0.25237 1.36921,-0.45889 1.42822,-0.45889 0.23615,0 -0.15086,4.23766 -0.51728,5.66416 -0.31675,1.23309 -0.53483,1.63238 -1.14668,2.09953 -0.61708,0.47114 -0.92921,0.55723 -1.70312,0.46972 -0.86474,-0.0978 -4.59244,-1.577 -4.85998,-1.9285 -0.0622,-0.0817 -0.61631,-0.49173 -1.23132,-0.91109 -0.61502,-0.41935 -1.44835,-1.07171 -1.85184,-1.44968 -0.59123,-0.55381 -0.8083,-0.64015 -1.1182,-0.44479 -0.67752,0.42708 -0.55904,0.95945 0.43676,1.96256 1.50724,1.5183 5.47582,3.81696 7.40268,4.28775 0.70314,0.17179 1.28071,0.87327 1.28071,1.5555 0,0.78569 -0.58929,1.35461 -1.84608,1.78224 -1.19718,0.40735 -1.22443,0.4065 -2.86816,-0.0892 -2.2954,-0.69225 -5.90287,-2.61897 -7.04705,-3.76376 -1.01756,-1.01812 -1.43526,-1.15298 -1.88627,-0.60901 -0.91272,1.10084 2.63361,3.80671 7.19607,5.49061 1.75371,0.64727 2.42596,1.07076 2.42596,1.52824 0,0.51038 -2.06991,1.79739 -3.31434,2.06076 -1.07505,0.22751 -1.49371,0.21118 -2.72394,-0.10622 -2.03166,-0.52421 -3.94994,-1.46709 -5.21325,-2.56246 -1.17272,-1.01684 -1.803,-1.16579 -2.1541,-0.50909 -0.43085,0.80586 1.09783,2.15629 4.21183,3.72064 0.87451,0.43934 1.59003,0.89188 1.59003,1.00567 0,0.47935 -1.12042,0.72551 -3.66619,0.8055 -1.48916,0.0468 -2.8082,0.0434 -2.93121,-0.007 z"
       id="path3147"
       inkscape:connector-curvature="0"
       inkscape:export-filename="/home/sade/Desktop/screw-comps/images/troops/handshake.png"
       inkscape:export-xdpi="90"
       inkscape:export-ydpi="90" />
    <path
       style="fill:#5fd35f;fill-opacity:1"
       d="m 160.14581,322.7201 c 0.20989,-0.13315 0.11215,-0.19275 -0.32,-0.19513 -0.34221,-0.002 -0.9712,-0.14939 -1.39775,-0.32779 -0.42656,-0.1784 -0.77557,-0.27069 -0.77557,-0.20506 0,0.0656 -0.40688,-0.20326 -0.90417,-0.59751 -1.41157,-1.1191 -2.07424,-2.63365 -2.1339,-4.87703 -0.0273,-1.02436 -0.10523,-1.91825 -0.17333,-1.9864 -0.0681,-0.0681 -0.85779,0.22711 -1.7549,0.65618 -0.89709,0.42908 -2.03364,0.90698 -2.52565,1.06204 -0.49201,0.15505 -0.99016,0.37047 -1.10702,0.47871 -0.11685,0.10826 -0.41877,0.19834 -0.67093,0.2002 -0.25215,0.002 -0.86101,0.14854 -1.35302,0.32597 -0.91347,0.32943 -3.14621,0.45121 -3.78359,0.20637 -0.54334,-0.20871 -0.43486,-1.50969 0.23647,-2.83583 1.17989,-2.33074 4.11443,-4.87079 6.78991,-5.87716 0.55351,-0.20821 1.35861,-0.54071 1.78912,-0.73888 0.61563,-0.28339 1.5228,-0.3585 4.24917,-0.35186 3.171,0.008 3.6157,0.0599 5.21793,0.61242 2.76748,0.95425 3.19715,1.26241 4.88925,3.50673 1.70535,2.26187 3.7084,7.01394 3.30432,7.83925 -0.0893,0.18248 -0.32655,0.71494 -0.52711,1.18322 -0.20056,0.46828 -0.46436,0.78974 -0.58623,0.71434 -0.12187,-0.0754 -0.22157,-0.0434 -0.22157,0.0709 0,0.11438 -0.42772,0.27246 -0.95048,0.3513 -2.24659,0.33879 -2.62776,0.41931 -2.62776,0.555 0,0.0789 -0.27677,0.15656 -0.61502,0.1726 -0.33826,0.0161 -1.45547,0.0786 -2.4827,0.13916 -1.07667,0.0634 -1.73969,0.0288 -1.56547,-0.0817 z"
       id="path3149"
       inkscape:connector-curvature="0"
       inkscape:export-filename="/home/sade/Desktop/screw-comps/images/troops/handshake.png"
       inkscape:export-xdpi="90"
       inkscape:export-ydpi="90" />
    <path
       style="fill:#37c837;fill-opacity:1"
       d="m 140.29436,339.78159 c -2.49868,-1.5869 -2.67647,-2.42843 -0.94587,-4.4769 1.56646,-1.85419 4.09472,-3.74467 5.12476,-3.83204 0.98298,-0.0833 1.12192,-0.006 1.46975,0.82825 0.31308,0.75003 0.30966,0.96812 -0.0377,2.40655 -0.49079,2.03253 -1.92,5.11092 -2.59144,5.58168 -0.80121,0.56176 -1.52831,0.43952 -3.01955,-0.50754 z"
       id="path3151"
       inkscape:connector-curvature="0"
       inkscape:export-filename="/home/sade/Desktop/screw-comps/images/troops/handshake.png"
       inkscape:export-xdpi="90"
       inkscape:export-ydpi="90" />
    <path
       style="fill:#37c837;fill-opacity:1"
       d="m 135.05459,334.77812 c -0.71342,-0.75664 -1.56239,-2.28469 -1.90798,-3.4341 -0.28857,-0.95983 -0.27473,-1.08799 0.22389,-2.07294 0.44921,-0.88735 1.57785,-2.09503 3.11824,-3.33657 1.14802,-0.9253 2.46591,-0.88912 2.83315,0.0777 0.59748,1.57305 0.0594,4.23142 -1.47285,7.27719 -1.026,2.03942 -1.8575,2.48237 -2.79445,1.48865 z"
       id="path3153"
       inkscape:connector-curvature="0"
       inkscape:export-filename="/home/sade/Desktop/screw-comps/images/troops/handshake.png"
       inkscape:export-xdpi="90"
       inkscape:export-ydpi="90" />
    <path
       style="fill:#37c837;fill-opacity:1"
       d="m 131.58317,326.49514 c -0.23032,-1.03075 -0.27914,-4.91019 -0.0672,-5.34204 0.28308,-0.57689 1.40775,-0.95472 1.96047,-0.65862 0.63383,0.33957 0.78353,1.1099 0.48576,2.49974 -0.31722,1.48063 -1.5789,4.22847 -1.94151,4.22847 -0.1512,0 -0.34806,-0.3274 -0.43748,-0.72755 z"
       id="path3155"
       inkscape:connector-curvature="0"
       inkscape:export-filename="/home/sade/Desktop/screw-comps/images/troops/handshake.png"
       inkscape:export-xdpi="90"
       inkscape:export-ydpi="90" />
  </g>
</svg>
