<?xml version="1.0" encoding="UTF-8" standalone="no"?>
<!-- Created with Inkscape (http://www.inkscape.org/) -->

<svg
   xmlns:dc="http://purl.org/dc/elements/1.1/"
   xmlns:cc="http://creativecommons.org/ns#"
   xmlns:rdf="http://www.w3.org/1999/02/22-rdf-syntax-ns#"
   xmlns:svg="http://www.w3.org/2000/svg"
   xmlns="http://www.w3.org/2000/svg"
   xmlns:sodipodi="http://sodipodi.sourceforge.net/DTD/sodipodi-0.dtd"
   xmlns:inkscape="http://www.inkscape.org/namespaces/inkscape"
   width="744.09448819"
   height="1052.3622047"
   id="svg3045"
   version="1.1"
   inkscape:version="0.48.3.1 r9886"
   sodipodi:docname="nmap.svg">
  <defs
     id="defs3047">
    <filter
       color-interpolation-filters="sRGB"
       inkscape:collect="always"
       id="filter3941-5-9"
       x="-1.1269802"
       width="3.2539606"
       y="-1.1966903"
       height="3.3933806">
      <feGaussianBlur
         inkscape:collect="always"
         stdDeviation="4.3184137"
         id="feGaussianBlur3943-6-9" />
    </filter>
    <filter
       inkscape:collect="always"
       id="filter3986"
       x="-0.99729519"
       width="2.9945904"
       y="-0.8761285"
       height="2.752257">
      <feGaussianBlur
         inkscape:collect="always"
         stdDeviation="3.4875652"
         id="feGaussianBlur3988" />
    </filter>
  </defs>
  <sodipodi:namedview
     id="base"
     pagecolor="#ffffff"
     bordercolor="#666666"
     borderopacity="1.0"
     inkscape:pageopacity="0.0"
     inkscape:pageshadow="2"
     inkscape:zoom="5.6"
     inkscape:cx="381.55537"
     inkscape:cy="517.24849"
     inkscape:document-units="px"
     inkscape:current-layer="layer1"
     showgrid="false"
     inkscape:window-width="1311"
     inkscape:window-height="744"
     inkscape:window-x="55"
     inkscape:window-y="24"
     inkscape:window-maximized="1" />
  <metadata
     id="metadata3050">
    <rdf:RDF>
      <cc:Work
         rdf:about="">
        <dc:format>image/svg+xml</dc:format>
        <dc:type
           rdf:resource="http://purl.org/dc/dcmitype/StillImage" />
        <dc:title></dc:title>
      </cc:Work>
    </rdf:RDF>
  </metadata>
  <g
     inkscape:label="Layer 1"
     inkscape:groupmode="layer"
     id="layer1">
    <path
       style="fill:#ffffff;fill-opacity:1"
       d="m 373.49612,555.01966 c -2.73856,-0.16468 -5.51684,-0.98081 -8.36164,-2.45629 -3.57132,-1.85228 -6.95346,-5.0828 -9.10657,-8.69832 -1.21274,-2.03644 -2.19573,-4.59501 -2.73994,-7.1317 -0.38533,-1.79605 -0.37485,-6.70407 0.0184,-8.63618 0.87269,-4.28741 2.71637,-7.7832 5.8763,-11.142 2.69361,-2.86313 5.92414,-4.88114 9.75864,-6.09589 1.74433,-0.5526 2.54502,-0.64955 5.78249,-0.70014 3.91929,-0.0613 5.38777,0.0852 7.41494,0.73964 2.3534,0.75974 5.05789,2.19083 7.20944,3.81489 0.95044,0.71743 3.01296,2.74476 3.74583,3.68193 2.91822,3.7317 4.43467,7.77732 4.76792,12.71991 0.31016,4.60019 -0.78249,9.16314 -3.09106,12.90843 -3.10884,5.0436 -7.70857,8.56916 -13.41388,10.28131 -0.59716,0.17921 -1.47663,0.3881 -1.95436,0.46419 -1.41568,0.2255 -4.29148,0.34733 -5.90653,0.25022 z m 1.93544,-6.54423 c 0.43403,-0.1774 0.86173,-0.5973 0.98641,-0.96841 0.11912,-0.35457 0.40002,-0.73896 1.93279,-2.64482 1.93821,-2.41003 3.57426,-4.23666 5.34141,-5.96363 2.25863,-2.20727 3.76131,-3.41503 6.54971,-5.26421 1.54669,-1.02572 1.65948,-1.15254 1.78618,-2.00813 0.0555,-0.37453 0.10061,-0.7297 0.1003,-0.78927 -3.5e-4,-0.0595 -0.32304,-0.31219 -0.71717,-0.56138 -0.39413,-0.24918 -0.77524,-0.52252 -0.84689,-0.60741 -0.38363,-0.45444 -1.15793,-0.55178 -2.9967,-0.37673 -0.77997,0.0743 -6.19718,0.25006 -6.27683,0.20369 -0.12029,-0.07 -0.45159,-7.58894 -0.45378,-10.29849 -0.001,-1.51982 -0.11865,-2.66614 -0.31033,-3.02936 -0.28108,-0.53266 -0.9486,-0.92139 -1.58764,-0.92455 -0.43196,-0.002 -4.24985,0.51743 -5.58811,0.76048 -1.60179,0.29091 -3.28145,0.67468 -3.59875,0.82223 -0.40807,0.18975 -1.30112,1.21378 -1.43206,1.64208 -0.0894,0.29244 -0.0607,0.60028 0.21293,2.27967 0.17397,1.06785 0.52887,3.35879 0.78866,5.09095 0.25979,1.73217 0.4999,3.3161 0.53357,3.51983 0.0735,0.44465 -0.009,0.5201 -0.57184,0.52211 -0.41767,10e-4 -2.72514,0.27883 -3.59878,0.43253 -2.18745,0.38486 -3.9563,0.98348 -4.69391,1.58852 -0.57778,0.47394 -0.81515,1.08595 -0.62782,1.61877 0.064,0.18207 0.0997,0.47077 0.0794,0.64155 -0.0628,0.5269 0.23445,0.97635 1.1334,1.71391 1.16521,0.95603 2.61767,2.37764 6.44236,6.30559 3.80941,3.91224 4.32541,4.4784 4.73778,5.1984 0.37931,0.66225 0.58097,0.87727 1.00091,1.06719 0.43085,0.19486 1.23485,0.20874 1.67486,0.0289 z"
       id="path3713"
       inkscape:connector-curvature="0"
       inkscape:export-filename="/home/sade/Desktop/screw-comps/images/troops/nmap.png"
       inkscape:export-xdpi="90"
       inkscape:export-ydpi="90" />
    <path
       sodipodi:type="arc"
       style="fill:#ffffff;fill-opacity:1;filter:url(#filter3941-5-9)"
       id="path3171"
       sodipodi:cx="392.72321"
       sodipodi:cy="515.26398"
       sodipodi:rx="4.5982141"
       sodipodi:ry="4.3303571"
       d="m 397.32142,515.26398 a 4.5982141,4.3303571 0 1 1 -0.0514,-0.64591"
       sodipodi:start="0"
       sodipodi:end="6.1334682"
       sodipodi:open="true"
       transform="matrix(2.2212198,0,0,1.5131297,-495.00313,-247.38833)"
       inkscape:export-filename="/home/sade/Desktop/screw-comps/images/troops/nmap.png"
       inkscape:export-xdpi="90"
       inkscape:export-ydpi="90" />
    <path
       style="fill:#ffffff;fill-opacity:1"
       d="m 373.22726,555.00341 c -2.43928,-0.15476 -4.73051,-0.81338 -7.47644,-2.14911 -2.28861,-1.11326 -3.98077,-2.30757 -5.82779,-4.1132 -3.10719,-3.03755 -4.97344,-6.11585 -6.16287,-10.16537 -0.62667,-2.13354 -0.77505,-3.30495 -0.777,-6.13408 -0.002,-3.31598 0.40674,-5.58398 1.51485,-8.39959 1.54874,-3.9352 5.0974,-8.16298 8.92518,-10.63322 1.6279,-1.05056 4.07383,-2.15887 5.90667,-2.67647 1.78291,-0.5035 2.19387,-0.54008 6.08615,-0.54189 3.80081,-0.002 4.17459,0.0267 5.8451,0.44521 2.39981,0.6012 6.00404,2.43562 8.24494,4.19634 0.90901,0.71424 2.66686,2.42714 3.37656,3.29026 1.6584,2.01686 3.10314,4.65435 3.87848,7.08048 1.44649,4.52624 1.53668,9.43553 0.25359,13.80296 -1.50831,5.13402 -5.31412,9.98459 -10.07762,12.8441 -2.38006,1.42875 -5.27295,2.55545 -7.50835,2.92431 -0.47652,0.0787 -1.70769,0.18264 -2.73594,0.23113 -2.02419,0.0955 -1.93093,0.0955 -3.46551,-0.002 l 0,0 z"
       id="path3175"
       inkscape:connector-curvature="0"
       inkscape:export-filename="/home/sade/Desktop/screw-comps/images/troops/nmap.png"
       inkscape:export-xdpi="90"
       inkscape:export-ydpi="90" />
    <path
       style="fill:#bcd35f;fill-opacity:1"
       d="m 373.15964,554.88967 c -2.43928,-0.15477 -4.73051,-0.81339 -7.47644,-2.14911 -2.28861,-1.11327 -3.98077,-2.30758 -5.82779,-4.11321 -3.10719,-3.03754 -4.97344,-6.11585 -6.16287,-10.16537 -0.62667,-2.13354 -0.77505,-3.30495 -0.777,-6.13407 -0.002,-3.31599 0.40674,-5.58399 1.51485,-8.39959 1.54874,-3.93521 5.0974,-8.16299 8.92518,-10.63323 1.6279,-1.05055 4.07383,-2.15886 5.90667,-2.67647 1.78291,-0.50349 2.19387,-0.54008 6.08615,-0.54189 3.80082,-0.002 4.17459,0.0267 5.8451,0.44521 2.39981,0.6012 6.00404,2.43562 8.24495,4.19635 0.909,0.71423 2.66685,2.42714 3.37656,3.29026 1.6584,2.01685 3.10314,4.65435 3.87847,7.08047 1.44649,4.52625 1.53668,9.43553 0.25359,13.80296 -1.5083,5.13402 -5.31412,9.98459 -10.07762,12.8441 -2.38005,1.42875 -5.27295,2.55545 -7.50835,2.92431 -0.47651,0.0787 -1.70769,0.18264 -2.73593,0.23114 -2.0242,0.0955 -1.93094,0.0955 -3.46552,-0.002 l 0,0 z m -0.11207,-9.6541 c 0.39379,-0.13469 0.52555,-0.37788 0.38495,-0.71051 -0.14231,-0.33667 -0.26295,-0.36942 -0.98441,-0.26716 -0.33596,0.0476 -0.88785,0.0874 -1.22642,0.0884 -0.49242,10e-4 -0.65208,0.0375 -0.79798,0.18051 -0.30235,0.29627 -0.18703,0.64894 0.2736,0.83677 0.20962,0.0855 2.01333,-0.0127 2.35026,-0.12796 l 0,0 z m -4.63768,-0.0946 c 0.96825,-0.16248 1.29836,-0.41636 1.1474,-0.88243 -0.10628,-0.32819 -0.34062,-0.36916 -1.24079,-0.21693 -0.54779,0.0926 -1.02651,0.12071 -1.37759,0.0808 -0.44426,-0.0505 -0.56896,-0.0337 -0.71537,0.0961 -0.18523,0.16427 -0.22833,0.44859 -0.0985,0.64934 0.21523,0.33261 1.21687,0.45237 2.28476,0.27318 z m 18.13478,-0.29667 c 1.07771,-0.12943 1.44984,-0.23284 1.5928,-0.44265 0.12122,-0.1779 0.0728,-0.47012 -0.10385,-0.62678 -0.15742,-0.13961 -0.26182,-0.14437 -1.11717,-0.0509 -1.65665,0.18105 -2.17469,0.37635 -2.17469,0.81983 0,0.22657 0.34206,0.53794 0.52905,0.48157 0.0852,-0.0257 0.65844,-0.10717 1.27386,-0.18109 z m -8.19257,-0.13719 c 0.492,-0.13827 0.61086,-0.48113 0.2794,-0.80595 -0.16901,-0.16562 -0.30399,-0.17874 -1.83957,-0.17874 -1.41404,0 -1.68164,0.0217 -1.82396,0.14791 -0.30033,0.26634 -0.15805,0.76975 0.24362,0.86193 0.3541,0.0813 2.83251,0.0615 3.14051,-0.0251 l 0,0 z m 3.63818,-0.097 c 0.48505,-0.0524 0.9953,-0.13796 1.13387,-0.19004 0.31837,-0.11965 0.4112,-0.44504 0.21199,-0.74298 -0.18007,-0.26931 -0.46223,-0.28249 -1.87751,-0.0877 -0.76224,0.10491 -0.99012,0.1704 -1.11717,0.32105 -0.19638,0.23289 -0.1996,0.34184 -0.0177,0.59643 0.16565,0.23175 0.36426,0.24406 1.66645,0.10325 l 0,0 z m -16.90211,-0.14024 c 0.25266,-0.095 0.32508,-0.43861 0.22893,-1.0862 -0.17815,-1.19982 -0.36325,-1.50251 -0.84353,-1.37944 -0.32627,0.0836 -0.36573,0.33683 -0.20268,1.30061 0.18643,1.10201 0.35308,1.33959 0.81728,1.16503 z m 23.3464,-1.99787 c 0.13962,-0.15118 0.15565,-0.27572 0.10642,-0.82665 -0.0794,-0.88826 -0.21125,-1.29474 -0.47505,-1.46412 -0.20548,-0.13194 -0.24181,-0.13171 -0.45146,0.003 -0.27012,0.17343 -0.28109,0.33678 -0.0929,1.38435 0.18187,1.01274 0.5112,1.33863 0.91304,0.90351 l 0,0 z m -22.98036,-1.26847 0.25336,-0.1953 -0.059,-1.03352 c -0.0667,-1.16892 -0.25481,-2.13714 -0.43713,-2.25036 -0.0675,-0.0419 -0.23421,-0.0769 -0.37038,-0.0777 -0.42105,-0.002 -0.46901,0.22633 -0.30649,1.46141 0.0791,0.60051 0.14368,1.29898 0.14368,1.55216 0,0.37436 0.0379,0.48629 0.20269,0.59944 0.25908,0.17782 0.27123,0.17663 0.57327,-0.0562 l 0,0 z m 23.37386,-2.04824 c 0.1449,-0.26021 0.0822,-1.54893 -0.12251,-2.51945 -0.14523,-0.68842 -0.36218,-0.97476 -0.67737,-0.89399 -0.37628,0.0964 -0.41049,0.24366 -0.29435,1.26709 0.0598,0.52658 0.10863,1.20875 0.10863,1.51592 0,0.47312 0.0341,0.59188 0.22283,0.77687 0.26355,0.25827 0.57019,0.1994 0.76277,-0.14644 l 0,0 z m -23.78503,-2.85048 c 0.26628,-0.26094 0.23534,-1.22455 -0.076,-2.36669 -0.21677,-0.79519 -0.27014,-0.90132 -0.49122,-0.97701 -0.19613,-0.0672 -0.28678,-0.0506 -0.43319,0.0793 -0.23528,0.20865 -0.23591,0.53902 -0.003,1.43234 0.10031,0.38438 0.1824,0.91362 0.1824,1.1761 0,0.49641 0.20328,0.8347 0.50158,0.8347 0.0753,0 0.21888,-0.0805 0.31919,-0.17873 l 0,0 z m 23.1985,-1.86449 c 0.28352,-0.30699 0.28821,-0.98973 0.0145,-2.10737 -0.2808,-1.14661 -0.44346,-1.38883 -0.83956,-1.25018 -0.35005,0.12253 -0.38867,0.35497 -0.19953,1.20044 0.0935,0.4178 0.19544,1.04115 0.22658,1.38522 0.0781,0.86249 0.41414,1.18754 0.79799,0.77189 l 0,0 z m -23.43301,-2.02944 c 0.17328,-0.1698 0.17354,-0.22986 0.009,-2.11418 -0.20217,-2.31739 -0.30217,-2.66067 -0.77499,-2.66067 -0.27341,0 -0.56908,0.28279 -0.50128,0.47945 0.0192,0.0557 0.0999,0.88566 0.17922,1.84414 0.15709,1.89803 0.24218,2.39943 0.42663,2.51403 0.19218,0.11941 0.50573,0.0897 0.66126,-0.0627 z m 23.26076,-1.94543 c 0.12545,-0.18762 0.12569,-0.36914 0.002,-1.76504 -0.2195,-2.482 -0.34779,-2.94112 -0.82184,-2.94112 -0.10984,0 -0.26916,0.0752 -0.35404,0.16709 -0.1386,0.15008 -0.1444,0.27071 -0.0569,1.18415 0.23579,2.46225 0.34702,3.30065 0.45481,3.42791 0.17926,0.21167 0.6127,0.17088 0.77576,-0.073 z m -23.43711,-3.95872 c 0.37566,-0.14126 0.325,-0.75479 -0.18814,-2.27874 -0.25927,-0.76998 -0.47018,-1.01903 -0.79525,-0.93908 -0.41981,0.10325 -0.43412,0.35761 -0.0962,1.70966 0.3722,1.48907 0.533,1.71369 1.07958,1.50816 l 0,0 z m 23.31711,-1.96778 c 0.0917,-0.0814 0.16678,-0.2445 0.16678,-0.36258 0,-0.49177 -0.5746,-2.38505 -0.80115,-2.63976 -0.20194,-0.22705 -0.53646,-0.19551 -0.71208,0.0672 -0.14134,0.21138 -0.1333,0.28797 0.14767,1.40756 0.30418,1.21206 0.40547,1.49215 0.58123,1.60716 0.16953,0.11092 0.44243,0.0758 0.61755,-0.0795 z m -18.44527,-2.17784 c 0.37194,-0.0474 0.77206,-0.14754 0.88917,-0.22273 0.26317,-0.16897 0.28454,-0.57759 0.0415,-0.79314 -0.15165,-0.13448 -0.25927,-0.14124 -0.93239,-0.0586 -0.41852,0.0515 -0.9845,0.0935 -1.25775,0.0935 -0.54981,0 -0.83035,0.16498 -0.83035,0.4883 0,0.52588 0.64075,0.67691 2.08984,0.4926 l 0,0 z m -3.84155,-0.22882 c 0.38661,-0.0779 0.77476,-0.20476 0.86253,-0.28196 0.21112,-0.18565 0.20307,-0.58261 -0.0157,-0.77666 -0.16458,-0.14595 -0.22759,-0.14683 -1.02598,-0.0142 -0.46785,0.0777 -1.13567,0.13138 -1.48404,0.11931 -0.58302,-0.0202 -0.64205,-0.005 -0.74184,0.18668 -0.3795,0.73031 0.76888,1.09649 2.40507,0.76688 l 0,0 z m 17.71132,-0.21967 c 1.31262,-0.15815 1.71956,-0.26031 1.86885,-0.46918 0.1781,-0.24918 0.17331,-0.35756 -0.0266,-0.59937 -0.16156,-0.19553 -0.17886,-0.19693 -1.16277,-0.094 -1.70885,0.17876 -2.13874,0.34054 -2.13874,0.80485 0,0.472 0.1682,0.51323 1.45917,0.35769 z m -7.60295,-0.27411 c 0.1926,-0.15664 0.15836,-0.68122 -0.0517,-0.79137 -0.10272,-0.0539 -0.85724,-0.0925 -1.80652,-0.0925 -1.77638,0 -1.96138,0.0448 -1.96138,0.47588 0,0.53135 0.30283,0.59904 2.4288,0.54288 0.76026,-0.0201 1.31586,-0.074 1.39077,-0.13488 z m 3.93847,-0.0811 c 0.31691,-0.0418 0.63497,-0.12386 0.70678,-0.18226 0.15863,-0.12901 0.17227,-0.63327 0.0211,-0.78138 -0.16676,-0.16341 -1.47324,-0.10226 -2.59731,0.12155 -0.45516,0.0906 -0.62605,0.54297 -0.32734,0.86642 0.14028,0.1519 0.23917,0.16429 0.88918,0.11133 0.40224,-0.0327 0.99063,-0.0938 1.30756,-0.13566 z"
       id="path3122"
       inkscape:connector-curvature="0"
       inkscape:export-filename="/home/sade/Desktop/screw-comps/images/troops/nmap.png"
       inkscape:export-xdpi="90"
       inkscape:export-ydpi="90" />
    <path
       sodipodi:type="arc"
       style="fill:#ffffff;fill-opacity:1;filter:url(#filter3986)"
       id="path3964"
       sodipodi:cx="375.71429"
       sodipodi:cy="533.92468"
       sodipodi:rx="4.1964288"
       sodipodi:ry="4.7767859"
       d="m 379.91072,533.92468 a 4.1964288,4.7767859 0 1 1 -0.0469,-0.7125"
       sodipodi:start="0"
       sodipodi:end="6.1334682"
       sodipodi:open="true"
       transform="matrix(1.0214146,0,0,1.0009311,-7.1015521,-1.4998844)"
       inkscape:export-filename="/home/sade/Desktop/screw-comps/images/troops/nmap.png"
       inkscape:export-xdpi="90"
       inkscape:export-ydpi="90" />
  </g>
</svg>
