<?xml version="1.0" encoding="UTF-8" standalone="no"?>
<!-- Created with Inkscape (http://www.inkscape.org/) -->

<svg
   xmlns:dc="http://purl.org/dc/elements/1.1/"
   xmlns:cc="http://creativecommons.org/ns#"
   xmlns:rdf="http://www.w3.org/1999/02/22-rdf-syntax-ns#"
   xmlns:svg="http://www.w3.org/2000/svg"
   xmlns="http://www.w3.org/2000/svg"
   version="1.1"
   width="236.36449"
   height="227.05879"
   id="svg3607">
  <defs
     id="defs3609" />
  <metadata
     id="metadata3612">
    <rdf:RDF>
      <cc:Work
         rdf:about="">
        <dc:format>image/svg+xml</dc:format>
        <dc:type
           rdf:resource="http://purl.org/dc/dcmitype/StillImage" />
        <dc:title></dc:title>
      </cc:Work>
    </rdf:RDF>
  </metadata>
  <g
     transform="translate(-90.389188,-261.68993)"
     id="layer1">
    <path
       d="M 446.67303,369.32465 A 101.43201,104.22371 0 1 1 445.53835,353.7788"
       transform="matrix(1.1651376,0,0,1.0892857,-193.68187,-27.08073)"
       id="path3511"
       style="fill:#000000;fill-opacity:1" />
    <path
       d="m 305.22658,421.43649 a 74.445511,74.445511 0 1 1 -0.8328,-11.10417"
       transform="matrix(1.4125,0,0,1.3875,-117.40681,-208.59323)"
       id="path3513"
       style="fill:#ffffff;fill-opacity:1" />
    <path
       d="m 128.8945,361.49839 c 0.15745,1.38629 0.57304,2.72551 0.88704,4.08525 0.42368,1.76448 0.42467,3.56303 0.43411,5.35944 0.28311,1.40934 0.59657,2.81715 0.72631,4.24922 0.0102,0.79464 -0.0249,1.58675 0.31142,2.32352 0.41523,1.01492 0.60457,2.06964 1.10106,3.05214 0.50911,0.63121 0.37798,1.54031 0.8698,2.15447 0.0825,0.37461 0.0348,0.94578 0.3611,1.24025 0.57482,0.52223 0.0586,-0.25144 0.40678,0.33326 0.57731,0.5739 1.07822,1.19298 1.63773,1.79167 0.72383,0.60197 1.46211,1.20088 2.10433,1.88615 0.78487,0.56368 1.3419,1.25773 1.62428,2.15856 0.16341,0.88066 0.95736,1.17588 1.53233,1.78 0.6227,0.34766 1.10921,0.95628 1.48982,1.55311 0.75487,0.0994 0.67337,0.79295 1.01106,1.22473 0.20414,0.43085 0.63417,0.65087 1.00475,0.96097 0.26424,0.38066 0.57309,0.6043 0.94455,0.91148 0.4371,0.39924 0.56604,1.08622 0.62688,1.64275 0.48427,0.61424 0.50533,1.25289 0.18875,1.93808 -0.20365,0.27886 -0.20564,0.59104 -0.15697,0.92551 0.0914,0.8015 -0.12416,1.39664 -0.52246,2.09214 -0.64569,0.56874 -1.08239,1.27841 -1.57733,1.96228 -0.53976,0.51865 -0.76938,1.16669 -1.1106,1.79753 -0.42715,0.59167 -0.88764,1.11807 -1.40956,1.63025 -0.58316,0.51619 -0.58202,1.13866 -0.65722,1.84438 -0.27914,0.66816 -0.53011,1.27818 -0.31837,1.98562 0.15645,0.76855 0.31887,1.5531 0.13956,2.32276 -0.29701,0.619 -0.21159,1.2932 -0.36357,1.95992 -0.45944,0.72993 -0.26573,1.11621 -0.004,1.86692 0.6015,0.71655 1.27804,1.31755 1.51943,2.21759 0.17433,0.62777 0.60278,1.35506 1.03196,1.88672 0.4803,0.70348 1.27029,1.04421 2.01572,1.46525 0.51626,0.85868 1.41869,1.06778 2.18837,1.58633 0.97719,0.47435 1.93062,0.97301 2.91273,1.43682 0.77786,0.53551 1.7181,0.46012 2.59242,0.72002 0.93387,0.26539 1.867,0.71074 2.8417,0.81067 0.74599,0.29513 1.48069,0.66421 2.29848,0.89316 0.88009,0.14409 1.67703,0.53283 2.47769,0.93164 0.72616,0.22263 1.46508,0.26354 2.21787,0.31187 0.96209,-0.0748 1.82493,0.39553 2.72051,0.68908 0.89479,0.15105 1.57019,0.68253 2.38168,1.05166 0.76202,0.20868 1.455,0.32255 2.15493,0.72258 0.26474,0.41319 0.79396,0.31466 1.14979,0.52612 0.11721,0.0697 0.19669,0.18592 0.29553,0.27934 0.12914,0.0656 0.25927,0.1306 0.38841,0.19614 0.70177,0.38576 1.34842,0.83808 1.90798,1.39999 0.5553,0.23378 1.32045,0.92138 1.77492,1.34302 0.3452,0.63154 0.90671,0.87801 1.35973,1.40637 0.5111,0.55546 1.05085,1.05677 1.40355,1.73143 0.40927,0.54621 0.61585,1.26066 0.94351,1.90052 0.35811,0.79338 1.04941,1.45136 1.60391,2.14314 0.63433,0.38158 0.49371,1.46535 1.01221,1.82806 0.61286,0.44618 0.59454,1.31053 1.06464,1.8103 0.58332,0.54542 0.76774,1.28274 1.2316,1.88078 0.45348,0.33091 0.46192,1.03649 0.89305,1.32266 0.66551,0.40946 1.31166,0.82223 1.72852,1.47798 0.26126,0.61784 0.9913,0.91422 1.5157,1.31755 0.56186,0.41226 0.70138,1.01973 1.24416,1.43315 0.61897,0.26631 0.0298,0.63674 0.45894,0.36531 0.54025,-0.11666 1.11517,-0.0921 1.66917,-0.0888 0.1366,-0.003 0.27368,-0.005 0.41027,-0.009 -1.7775,0.10504 -3.55258,0.26028 -5.33246,0.31466 -0.14254,0.003 0.26126,-0.11109 0.39288,-0.1636 0.4649,-0.18639 0.92176,-0.35416 1.40599,-0.48765 0.93839,-0.15012 1.75544,-0.56233 2.54911,-1.04264 0.52514,-0.39645 0.96173,-0.85374 1.53705,-1.17816 0.45992,-0.50958 1.00539,-0.87336 1.68173,-1.05978 0.62554,-0.24959 1.16072,-0.65125 1.78292,-0.93964 0.82287,-0.31372 1.52394,-0.80076 2.15935,-1.38564 0.61118,-0.49912 1.30819,-0.72668 2.07666,-0.87671 0.68553,-0.0506 0.81517,-0.25702 1.13191,-0.70548 0.42218,-0.55597 1.08119,-0.89344 1.63286,-1.31876 0.53921,-0.57916 1.2079,-0.79161 1.94728,-1.00982 0.59265,-0.13479 1.03217,-0.6235 1.44899,-1.02702 0.61788,-0.70511 1.51803,-0.88201 2.39672,-1.11008 0.95693,-0.47407 2.04115,-0.61508 2.97493,-1.12298 0.81506,-0.4844 1.73841,-0.68305 2.64829,-0.92626 0.83245,-0.47305 1.67379,-0.80193 2.63171,-0.94429 3.67187,-0.33789 13.6371,-0.83069 2.28959,-0.18219 0.74766,-0.31698 1.48837,-0.60203 2.27409,-0.82033 2.61973,-0.35369 5.27424,-0.5185 7.92045,-0.52478 0.88281,-0.005 1.77344,-0.0326 2.64969,0.0326 1.12297,-0.10644 2.19234,0.2031 3.26951,0.48202 1.53268,0.37368 3.12854,0.30024 4.66261,0.62238 1.17959,0.29652 2.35804,0.69071 3.56137,0.8681 0.75168,0.0823 1.24922,-0.003 1.7857,0.56197 0.90114,0.34811 1.90142,0.4341 2.86619,0.47937 1.02094,0.19195 1.91364,0.69935 2.97914,0.85073 2.35685,0.44572 7.18367,-0.0186 -2.85085,0.53728 0.86856,-0.35416 1.78108,-0.6148 2.6185,-1.03784 1.13216,-0.40808 2.14893,-0.97009 3.11256,-1.66595 0.8989,-0.55495 1.84867,-1.01127 2.714,-1.61571 0.7589,-0.2612 1.29681,-0.80439 1.95661,-1.2165 0.55594,-0.40622 1.01469,-0.89247 1.54232,-1.3255 0.61242,-0.27562 1.00405,-0.76647 1.44432,-1.22799 0.50117,-0.43085 0.37501,-1.15529 0.55326,-1.75978 0.18527,-0.81123 0.51065,-1.56174 0.94788,-2.28438 0.21159,-0.64358 0.0496,-1.28571 0.19719,-1.95583 0.19868,-0.61215 0.20961,-1.25816 0.25828,-1.89266 0.0641,-0.67672 0.0102,-1.35897 0.0298,-2.03856 0.0102,-0.78143 -0.0102,-1.57239 -0.0745,-2.35456 0.0884,-0.86268 -0.003,-1.72442 0.0249,-2.58774 -0.003,-0.64915 0.27318,-1.19759 0.62538,-1.73222 -0.1942,-0.60221 -0.38543,-1.20526 -0.43957,-1.83559 -0.11075,-0.68881 -0.16638,-1.40242 -0.11225,-2.10006 -0.0775,-0.68629 -0.0348,-1.40613 0.27517,-2.03353 0.36506,-0.46106 0.68414,-0.94248 0.70961,-1.5352 0.0348,-0.73133 0.0924,-1.3744 0.33825,-2.07287 0.58724,-1.0674 1.43965,-1.941 2.19925,-2.88766 0.6968,-0.76455 1.52826,-1.39651 2.31164,-2.07466 0.5544,-0.54449 1.03564,-1.16106 1.58652,-1.71452 0.64803,-0.52594 1.19459,-1.13052 1.64985,-1.81719 0.52684,-0.59058 1.09386,-1.19024 1.70533,-1.70619 0.4669,-0.65678 1.20597,-1.02902 1.69501,-1.65828 0.48575,-0.76409 1.22657,-1.29473 1.83243,-1.95791 0.34967,-0.8611 0.6841,-1.69277 1.06943,-2.54429 0.4341,-0.62168 0.51576,-1.36779 0.94897,-1.9759 0.50225,-0.46199 0.64873,-1.13355 1.00162,-1.68482 0.48576,-0.54589 0.66785,-1.20829 0.79068,-1.89444 0.29206,-0.89474 0.8546,-1.65255 1.31727,-2.46271 0.59831,-0.8788 1.26557,-1.68969 1.68909,-2.65949 0.23196,-0.77786 0.71349,-1.42413 1.0433,-2.16052 0.22698,-0.88866 0.96248,-1.4864 1.45475,-2.22926 0.51666,-0.52394 0.75934,-1.15506 0.90611,-1.84265 -0.10778,-0.8452 0.33725,-1.51336 0.72646,-2.22679 0.33427,-0.62698 0.35961,-1.34939 0.68707,-1.98646 0.57502,-0.59998 0.46688,-0.90102 0.39835,-1.61971 0.0998,-0.8345 0.14503,-1.67096 0.31092,-2.49756 -0.0149,-0.83442 0.11126,-1.6713 0.0641,-2.50343 0.0102,-0.81838 -0.0102,-1.63537 0.0149,-2.45337 0.0576,-0.86105 -0.27666,-1.65238 -0.37401,-2.49548 0.13758,-0.91148 0.29106,-0.99718 -0.12765,-1.76662 -0.32633,-0.52562 -0.20315,-1.1315 -0.74294,-1.4653 -0.56966,-0.42434 -0.15051,-1.0168 -0.73213,-1.34842 -0.64848,-0.45594 -0.86086,-1.14372 -1.08298,-1.84623 -0.0581,-0.64567 -0.27914,-1.41408 -0.90149,-1.75356 -0.62116,-0.21937 -0.93899,-0.67792 -1.14055,-1.26442 -0.0919,-0.39599 -0.52474,-0.61262 -0.80096,-0.95252 -0.58803,-0.24586 -1.23293,-0.55378 -1.8067,-0.90547 -0.38743,-0.56383 -0.79669,-1.12699 -1.53403,-1.23106 -0.60467,-0.56289 -1.38865,-0.81837 -2.10522,-1.2231 -0.59553,-0.52051 -1.28031,-0.77069 -1.82667,-1.32941 -0.87939,-0.29791 -1.52717,-1.00452 -2.37726,-1.32322 -0.64996,-0.54295 -1.31722,-1.12201 -2.18995,-1.26772 -0.73718,-0.165 -1.4548,-0.0232 -2.14585,-0.33371 -0.79624,-0.45873 -1.72783,-0.57046 -2.62345,-0.73983 -0.90483,0.0474 -1.59865,-0.19753 -2.33733,-0.68081 -0.67813,-0.2784 -1.37215,-0.34765 -2.09503,-0.42062 -0.95464,-0.009 -1.90848,0.0232 -2.86327,0.005 -0.70361,-0.41969 -1.43751,-0.73434 -2.23544,-0.92235 -0.90786,0.0674 -1.46593,-0.50573 -2.23029,-0.8636 -0.84164,-0.15942 -1.35458,-0.82149 -2.1376,-1.13392 -0.71464,-0.34161 -1.2974,-0.77176 -2.05059,-1.02799 -0.74587,-0.41086 -1.32129,-1.03445 -1.99788,-1.51573 -0.72879,-0.35741 -0.82167,-1.15948 -1.312,-1.68859 -0.44355,-0.54104 -0.76535,-1.12786 -0.88684,-1.80858 -0.18924,-0.50977 -0.64991,-0.95833 -0.90943,-1.48724 -0.30299,-0.58808 -0.0978,-1.33033 -0.45696,-1.86073 -0.34222,-0.71116 -0.78522,-1.34827 -1.19221,-2.02081 -0.44503,-0.76399 -0.67777,-1.61515 -0.76464,-2.48218 0.10529,-0.79844 -0.22153,-1.32318 -0.55605,-2.00659 -0.24189,-0.85263 -0.71146,-1.56815 -1.10166,-2.36158 -0.22848,-0.66197 -0.39486,-1.36198 -0.46292,-2.05691 -0.42218,-0.73779 -0.84863,-1.43439 -1.33782,-2.13073 -0.70362,-0.59826 -1.31713,-1.20948 -1.65497,-2.06221 -0.5709,-0.3774 -1.03282,-0.86783 -1.49971,-1.35812 -0.56796,-0.68346 -1.45246,-1.05157 -2.1522,-1.61947 -0.83608,-0.2942 -1.60292,-0.57883 -2.41848,-0.89563 -0.8393,-0.41691 -1.72888,-0.56075 -2.56277,-1.00275 -0.92036,-0.34626 -1.88672,-0.58414 -2.87498,-0.64052 -0.99011,-0.0278 -1.9344,-0.52203 -2.85473,-0.88144 -2.11917,0.71264 -0.29254,0.0586 4.92329,-0.19846 0.2543,-0.0139 -0.48477,0.15058 -0.72497,0.23285 -0.46887,0.16035 -0.4495,0.13804 -0.95101,0.23425 -3.05678,0.44386 -6.16356,0.60448 -9.25526,0.59292 -1.88925,0.0186 -5.15588,0.0646 4.80026,-0.30025 0.15397,-0.005 -0.29801,0.0752 -0.44305,0.12642 -0.42219,0.14826 -0.82917,0.32441 -1.25698,0.46245 -0.90118,0.18452 -1.71,0.60398 -2.56882,0.90668 -3.0607,0.82146 -6.33532,0.79566 -9.49004,0.8756 -0.86116,0.0186 -1.71964,-0.0326 -2.58065,-0.0186 -0.8926,-0.003 -1.785,0.0186 -2.67761,-0.003 -0.94897,-9e-5 -1.89799,0.0186 -2.84701,0.009 -1.1113,0.0595 -2.0932,0.0186 -3.13437,-0.37183 -1.09896,-0.14268 -1.97205,-0.79235 -2.96503,-1.17542 -0.89017,-0.50632 -2.00304,-0.22076 -2.86689,-0.71543 -0.80081,-0.49815 -1.52076,-1.13443 -2.43432,-1.46107 -0.85455,-0.3128 -1.50974,-1.01981 -2.41023,-1.24542 -0.57184,-0.52371 -1.26681,-0.82172 -1.96029,-1.16672 -0.79798,0.0139 -1.47343,-0.39879 -2.09702,-0.83833 -0.52371,-0.099 -1.02185,-0.30768 -1.55851,-0.27654 8.85875,-0.77394 5.74689,-1.02916 3.87884,0.63237 -0.88416,0.5958 -1.9415,0.85957 -2.89098,1.35065 -0.74846,0.62094 -1.50134,1.23598 -2.33458,1.74881 -0.79645,0.36485 -1.43495,0.9079 -2.01259,1.53911 -0.56593,0.76461 -1.21346,1.46568 -1.85544,2.17075 -0.64961,0.70167 -1.33196,1.34784 -2.09105,1.93277 -0.39536,0.75721 -1.04191,1.3314 -1.57963,1.98813 -0.6984,0.63349 -1.1779,1.39447 -1.45932,2.2656 -0.19073,0.94564 -0.84045,1.65749 -1.48842,2.35112 -0.6232,0.5886 -1.26617,1.11398 -1.64351,1.87919 -0.26821,0.67574 -0.92483,1.1855 -1.14218,1.86957 -0.18327,0.57465 -0.23046,1.20241 -0.17335,1.8017 0.0102,0.68002 -0.0571,1.36714 0.0102,2.04441 0.0102,0.68671 -0.063,1.38002 0.003,2.06403 -0.0978,0.80732 0.13212,1.55394 0.18676,2.32356 -0.0298,0.72761 -0.077,1.44858 -0.14057,2.17357 -0.004,0.77075 0.0102,1.54818 -0.0686,2.31674 -0.22451,0.67453 -0.63109,1.23709 -0.86414,1.90451 -0.0348,0.59626 -0.15645,1.18527 -0.31044,1.763 -0.082,0.62539 -0.4937,0.56656 -0.96998,0.82353 -0.85877,0.42248 -1.71327,0.85933 -2.55973,1.31118 -0.89047,0.31559 -1.59627,0.91608 -2.48658,1.23868 -1.08258,0.17847 -1.82851,0.82126 -2.66756,1.43927 -0.81885,0.46785 -1.70246,0.78427 -2.49318,1.29784 -0.73481,0.4118 -1.52146,0.61727 -2.36107,0.69424 -0.96909,0.22821 -1.90163,0.57554 -2.8651,0.83721 -0.87383,0.12734 -1.68835,0.49397 -2.46577,0.88512 -2.34645,0.79109 -5.0461,0.40157 -7.4031,0.72622 -1.76712,0.24353 3.56097,-0.26307 5.34528,-0.31512 0.17185,-0.003 -0.32285,0.11572 -0.48378,0.17335 -0.95549,0.38345 -1.97896,0.56485 -2.93708,0.93337 -0.84586,0.47235 -1.7988,0.62099 -2.73005,0.84324 -0.64237,0.43876 -1.36918,0.70869 -2.08291,1.0082 -1.02577,0.37832 -1.80547,1.01851 -2.59247,1.72516 -0.69617,0.5535 -1.25737,1.22287 -1.93854,1.79371 -0.41026,0.56606 -1.03987,0.89321 -1.35983,1.51523 0.0199,0.9004 -0.47135,1.63438 -0.7657,2.4456 -0.15596,0.55685 -0.31489,1.10101 -0.5013,1.65354 -0.43411,0.38948 -0.34719,0.91835 -0.51349,1.45615 0.17881,0.6043 0.3323,1.19545 0.37203,1.82526 0.11076,0.58521 0.1207,1.18983 0.12963,1.78303 -0.07,0.69739 -0.66968,1.19331 -0.85564,1.83183 -0.30198,0.59728 -0.0705,0.76227 -0.0621,1.35078 -0.0447,0.6194 -0.21208,0.5318 0.21656,0.46905 0.46093,2.61004 -7.11343,2.20671 -5.42703,-0.24865 0.25878,-0.35603 0.61863,-0.36996 1.0347,-0.4369 0,0 5.96514,0.49392 5.96514,0.49392 l 0,0 c -0.47781,0.009 -0.96104,0.0419 -1.43761,-0.003 -1.70315,1.10166 -6.01347,-1.2317 -5.56108,1.17227 -0.33129,-0.2733 -0.47087,-0.68988 -0.42318,-1.11064 0.0298,-0.5185 -0.26126,-0.98454 -0.0199,-1.51104 0.21457,-0.58487 0.44503,-1.19377 0.89419,-1.65348 -0.0102,-0.56936 -0.0447,-1.11854 -0.10629,-1.68919 -0.23145,-0.68196 -0.36904,-1.39587 -0.34321,-2.11329 0.24089,-0.49095 -0.0496,-1.25453 0.4654,-1.63114 0.5984,-0.3193 0.0298,-0.93983 0.29999,-1.48157 0.33278,-0.82656 0.78741,-1.58898 0.93423,-2.4656 0.24784,-0.72449 0.72695,-1.25852 1.35447,-1.72432 0.51149,-0.6438 1.14502,-1.16589 1.64846,-1.81448 0.80463,-0.8069 1.63535,-1.50611 2.72051,-1.91707 0.73774,-0.34579 1.54059,-0.45269 2.20675,-0.95675 0.67351,-0.60369 1.7857,-0.3825 2.56679,-0.88387 0.92647,-0.53416 1.92318,-0.55935 2.89206,-1.00079 2.64726,-0.88299 13.65271,-1.2589 1.55236,-0.4118 -1.28439,0.0902 2.56098,-0.0646 1.17939,-0.15012 0.83369,-0.20264 1.46334,-0.95274 2.37447,-0.97673 1.01415,-0.14873 1.96058,-0.56536 2.91462,-0.9118 0.80459,-0.0372 1.6068,-0.0326 2.31582,-0.4499 0.82217,-0.36206 1.50502,-0.93425 2.35957,-1.25848 0.93721,-0.52129 1.65954,-1.48441 2.80143,-1.5782 0.9068,-0.27747 1.65576,-0.71598 2.4446,-1.18559 0.9381,-0.33743 1.6884,-1.08056 2.71326,-1.24733 0.56484,-0.33696 0.72105,-0.54443 1.21501,-0.17522 0.0298,0.0232 -0.0149,-0.0725 -0.0249,-0.10922 -0.11275,-0.62773 -0.11275,-1.27172 0.0855,-1.88523 0.1664,-0.64027 0.45497,-1.23901 0.89206,-1.75295 -0.073,-0.77701 -0.0348,-1.56983 0.0298,-2.34457 0.0249,-0.68982 0.16142,-1.3834 0.11075,-2.07091 -0.15744,-0.80006 -0.2543,-1.57759 -0.16737,-2.39192 0.0651,-0.68355 -0.004,-1.37626 -0.004,-2.06226 0.063,-0.68099 -0.0102,-1.37017 3e-4,-2.05376 0.0764,-0.65636 0.0249,-1.32419 0.20364,-1.97182 0.24536,-0.68717 0.53538,-1.37597 1.08477,-1.89569 0.26871,-0.83952 0.77613,-1.60919 1.58309,-2.05895 0.55337,-0.70716 1.21451,-1.22098 1.51918,-2.09763 0.17782,-0.95647 0.57348,-1.87324 1.3122,-2.55735 0.67952,-0.59515 1.26373,-1.28417 1.90535,-1.9153 0.28858,-0.79291 1.16523,-1.36589 1.76241,-1.95852 0.59791,-0.79667 1.447,-1.346 1.98124,-2.16368 0.49669,-0.67801 1.1846,-1.2337 1.86199,-1.7357 0.88847,-0.54779 1.77814,-0.96535 2.4969,-1.73223 0.85624,-0.69243 1.80999,-0.97886 2.85572,-1.31606 1.6046,-0.97711 -0.73168,0.49397 0.71051,-0.57172 1.7261,-1.27549 5.88577,-0.62169 6.77802,-1.03864 0.57015,0.14361 1.18296,0.17011 1.68453,0.50419 0.66561,0.30164 1.32923,0.58553 2.03269,0.78343 0.77107,0.2798 1.41691,0.71599 2.1234,1.11188 0.85301,0.41691 1.64672,0.92593 2.53247,1.27168 0.79977,0.45641 1.46598,1.09966 2.3332,1.4331 1.01061,0.18311 2.04497,0.26259 2.97293,0.73871 0.95489,0.50238 1.92562,0.84343 2.98257,1.09891 0.98682,0.24866 1.98602,0.24262 3.00199,0.21474 0.92185,-0.005 1.84371,0.005 2.76557,0.009 0.89096,-0.0186 1.78138,10e-4 2.67223,0.005 0.93556,0.0185 1.87019,-0.0326 2.80531,-0.0502 2.43079,-0.0907 0.40728,-0.0186 -4.76117,0.34022 -1.50606,0.10504 3.97813,-0.19893 2.46706,-0.26864 0.90765,-0.31419 1.74789,-0.79528 2.71466,-0.8933 2.65862,-1.07847 5.3988,-1.52643 8.41212,-1.21126 6.3681,-0.19985 -8.00917,0.51554 -2.39628,0.2203 2.74028,-0.41876 5.51737,-1.60524 8.34254,-0.86973 0.96318,0.27422 1.87217,0.72263 2.89709,0.74652 1.02006,0.16221 2.04224,0.33185 2.9556,0.83149 0.83871,0.36996 1.72704,0.59566 2.55879,0.98538 0.77176,0.40109 1.67469,0.50455 2.39002,1.01688 0.7805,0.49625 1.55409,1.03195 2.13974,1.74068 0.45248,0.52185 0.92553,1.01075 1.4103,1.49588 0.5626,0.74551 1.31493,1.26857 1.8753,2.01142 0.41921,0.77102 0.90959,1.54078 1.09853,2.39393 0.0938,0.68336 0.41473,1.24044 0.71946,1.87175 0.30595,0.78705 0.61072,1.58312 0.95289,2.34847 0.37003,0.71237 0.53623,1.39693 0.55739,2.18399 0.14999,0.80201 0.38095,1.58293 0.87556,2.26378 0.37997,0.70279 0.59374,1.45777 1.07056,2.11539 0.13063,0.61811 0.11374,1.25262 0.37053,1.83294 0.23791,0.54723 0.82773,0.93127 0.87621,1.57838 0.24636,0.61932 0.56816,1.11696 1.00207,1.63686 0.27815,0.67006 0.68667,1.13048 1.31941,1.52581 0.54124,0.56471 1.2517,0.91534 1.91915,1.32462 0.71355,0.29095 1.30218,0.80058 2.02942,1.06182 0.73664,0.34534 1.3583,0.90005 2.15216,1.14991 0.73182,0.35183 1.36655,0.70492 2.21439,0.75819 0.77871,0.22449 1.49086,0.70312 2.30936,0.75372 0.90179,-0.0139 1.80795,-0.0139 2.70497,0.085 0.76525,0.0757 1.52593,0.25935 2.19844,0.62964 0.7651,0.3337 1.509,0.42248 2.34244,0.49089 0.92732,0.14455 1.79305,0.42341 2.6334,0.82767 0.71016,0.12317 1.45306,0.0693 2.14351,0.31745 0.82322,0.36671 1.55985,0.81327 2.2804,1.34451 0.78591,0.46844 1.5756,0.94233 2.29679,1.49523 0.5923,0.45409 1.25647,0.8075 1.88682,1.20954 0.64251,0.40388 1.36014,0.69386 1.98105,1.13749 0.60228,0.37043 1.07489,0.80481 1.54461,1.31509 0.61241,0.29884 1.23988,0.61434 1.72023,1.0951 0.35463,0.33278 0.56603,0.68123 0.7789,1.09595 0.36308,0.46338 0.79262,0.74727 1.3132,1.03748 0.54209,0.62075 0.84556,1.28185 0.93075,2.09539 0.10029,0.64804 0.54407,1.12695 0.98363,1.60088 0.18825,0.44898 0.32584,0.90766 0.68092,1.26713 0.47484,0.48825 0.51988,1.09807 0.82188,1.66868 0.32532,0.64725 0.41075,1.26247 0.31291,1.97711 -0.004,0.86352 0.48625,1.65559 0.30248,2.53379 0.0298,0.8187 0.0102,1.63614 0.0149,2.45532 -0.0581,0.84966 0.0571,1.70912 -0.0934,2.55682 -0.004,0.83336 -0.18278,1.63542 -0.37599,2.44348 -0.10234,0.66556 0.3159,1.29543 -0.31738,1.89606 -0.39338,0.63572 -0.5324,1.2304 -0.72979,1.95616 -0.31341,0.71464 -0.78382,1.25233 -0.73893,2.07495 -0.1048,0.74889 -0.33775,1.50438 -0.84735,2.09464 -0.55485,0.65818 -0.95647,1.36631 -1.48058,2.07803 -0.24337,0.76599 -0.77841,1.39112 -0.98508,2.14095 -0.26573,1.03375 -0.79252,1.98278 -1.54774,2.76597 -0.46787,0.7917 -1.08914,1.46112 -1.54614,2.25868 -0.0844,0.75406 -0.2841,1.51518 -0.7431,2.14341 -0.42019,0.56257 -0.69178,1.12695 -1.06888,1.71438 -0.4783,0.55857 -0.56458,1.17003 -0.78789,1.8553 -0.43212,0.8787 -0.79282,1.74751 -1.11412,2.66638 -0.50975,0.7731 -1.24952,1.29138 -1.93466,1.90205 -0.39784,0.78863 -1.10484,1.18141 -1.66594,1.84074 -0.59752,0.46479 -1.05517,1.00578 -1.63138,1.50305 -0.39884,0.7963 -1.02189,1.32312 -1.63019,1.96457 -0.56468,0.55888 -1.19856,1.07279 -1.67954,1.69736 -0.59246,0.78584 -1.41697,1.26572 -1.99396,2.05915 -0.85968,0.88098 -1.51928,1.94388 -2.48216,2.73331 -0.38344,0.61745 -0.41722,1.19405 -0.42517,1.91627 -0.15099,0.61397 -0.25927,1.22882 -0.68706,1.7359 -0.50415,0.72123 -0.2707,0.87517 -0.33378,1.74634 0.0705,0.67174 0.0348,1.34321 0.10282,2.0157 0.17533,0.65561 0.33526,1.32823 0.38194,1.99919 0.0348,0.68861 -0.73619,0.92634 -0.40877,1.65047 0.0298,0.8622 -0.0635,1.72288 0.0249,2.58439 -0.0611,0.78528 -0.0825,1.5794 -0.07,2.3638 0.0102,0.6908 -0.0298,1.37961 -0.0298,2.06943 -0.0298,0.66853 -0.13114,1.33135 -0.29007,1.9818 -0.17136,0.74691 0.15646,1.35176 -0.0983,2.08448 -0.30347,0.75708 -0.85714,1.3803 -0.99184,2.18603 -0.19619,0.68718 -0.21357,1.44035 -0.53796,2.02987 -0.50334,0.49597 -0.99551,0.99839 -1.54252,1.45141 -0.79564,0.0623 -0.74499,0.94285 -1.5065,1.21111 -0.60056,0.44572 -1.12829,0.92895 -1.79882,1.25495 -0.88137,0.43828 -1.61384,1.12239 -2.48975,1.59032 -1.04802,0.66041 -2.00911,1.40005 -3.22584,1.75714 -0.93756,0.39692 -1.86692,0.72083 -2.80198,1.1224 -3.09179,0.2612 -5.87872,0.84631 -8.85642,0.23191 -0.97192,-0.28955 -1.87306,-0.80954 -2.9174,-0.78654 -0.92657,-0.12083 -1.90997,-0.21938 -2.6325,-0.85035 -0.57144,-0.27004 -1.28733,-0.10272 -1.90088,-0.25935 -1.34275,-0.23239 -2.68381,-0.45873 -4.0056,-0.79598 -1.5086,-0.24214 -3.05559,-0.26445 -4.53269,-0.68405 -0.88912,-0.21008 -1.76464,-0.50778 -2.69395,-0.45548 -0.96452,0.072 -1.934,0.0186 -2.90036,0.0232 -3.75531,0.0326 7.35955,-0.58645 3.56901,-0.28351 -0.80364,0.0725 -1.5535,0.35277 -2.2427,0.7501 -19.27233,1.74627 2.61134,-0.2942 -2.15261,0.2942 -0.96243,0.10225 -1.97041,0.13758 -2.74151,0.77381 -0.77196,0.45176 -1.79385,0.35462 -2.55413,0.88922 -0.98086,0.48053 -1.9357,0.8701 -3.00343,1.18903 -0.80777,0.39692 -1.79087,0.26772 -2.53679,0.84157 -0.46391,0.55611 -1.0429,0.84683 -1.53403,1.38727 -0.63119,0.0465 -1.40111,0.21101 -1.80795,0.70874 -0.57238,0.56694 -1.26094,0.87146 -1.93231,1.32015 -0.35862,0.0864 -0.11673,1.10594 -0.90005,1.05519 -0.7136,0.0139 -1.41105,0.10411 -1.97306,0.55842 -0.77667,0.50443 -1.31603,1.31211 -2.26822,1.6033 -0.72542,0.0921 -1.30575,0.47714 -1.80423,0.97561 -0.63084,0.0916 -1.33411,0.21426 -1.70176,0.77284 -0.4197,0.47537 -1.1171,0.55248 -1.39574,1.2271 -0.67128,0.57506 -1.61255,1.13163 -2.50595,1.26257 -2.73477,0.69084 -5.20689,1.79942 -8.30385,1.1599 -0.46788,0.005 -1.03898,0.0795 -1.46483,-0.11063 -0.38842,-0.4169 -0.1803,-0.23889 -0.76778,-0.55596 -0.48478,-0.45641 -0.68439,-1.10222 -1.34435,-1.39261 -0.55162,-0.43735 -1.12872,-0.86169 -1.47466,-1.47743 -0.48726,-0.53989 -1.24794,-0.82628 -1.66476,-1.44904 -0.29404,-0.5094 -0.52749,-0.98115 -0.97172,-1.39884 -0.33179,-0.6822 -0.88813,-1.14856 -1.2227,-1.84679 -0.33378,-0.59761 -0.51636,-1.2404 -0.99229,-1.76518 -0.40232,-0.63549 -0.65101,-1.32963 -1.28245,-1.81039 -0.56851,-0.70712 -1.06505,-1.49775 -1.46797,-2.30168 -0.24536,-0.65923 -0.46787,-1.29765 -0.87874,-1.86366 -0.34668,-0.5944 -1.0205,-1.00248 -1.38516,-1.59469 -0.46789,-0.45409 -0.94465,-0.90041 -1.417,-1.35093 -0.53981,-0.46728 -1.07117,-0.94326 -1.68284,-1.3247 -0.6677,-0.44015 -1.27703,-0.95098 -1.99167,-1.31927 -0.54298,-0.41923 -1.23323,-0.60105 -1.82732,-0.9548 -0.697,-0.31604 -1.46395,-0.35694 -2.15683,-0.69381 -0.80622,-0.36485 -1.54425,-0.84213 -2.4518,-0.97162 -0.83156,-0.2626 -1.59741,-0.64804 -2.50114,-0.58274 -0.80557,-0.0419 -1.61771,-0.17103 -2.35961,-0.48852 -0.82724,-0.3114 -1.60367,-0.72218 -2.4917,-0.86253 -0.77448,-0.25051 -1.4161,-0.77841 -2.24632,-0.83 -1.02229,-0.24913 -2.0561,-0.4499 -3.03715,-0.83637 -0.88933,-0.23425 -1.79047,-0.40668 -2.62148,-0.81401 -0.96666,-0.45316 -1.86259,-1.03766 -2.81395,-1.51773 -0.81024,-0.43921 -1.50884,-0.96097 -2.18816,-1.56997 -0.77543,-0.4513 -1.49334,-1.03101 -2.03414,-1.73515 -0.34818,-0.65877 -0.62618,-1.34971 -0.97401,-2.01192 -0.41524,-0.80579 -1.19906,-1.38253 -1.56318,-2.22954 -0.26871,-0.7969 -0.34669,-1.495 0.0909,-2.24678 0.35862,-0.62894 -0.14255,-1.28213 0.29454,-1.9165 0.26473,-0.64888 0.0102,-1.39671 -0.0447,-2.07128 -0.0665,-0.77944 -0.36208,-1.42566 0.21557,-2.12701 0.0536,-0.77269 0.22799,-1.54223 0.6829,-2.19421 0.4505,-0.55936 1.08407,-0.92114 1.43886,-1.56555 0.50056,-0.50936 0.47235,-1.42864 1.12907,-1.8804 0.62285,-0.43829 0.61569,-1.56077 1.42058,-1.92846 0.60715,-0.51218 0.79629,-0.97212 0.74787,-1.74802 0.0834,-0.36625 0.0854,-0.76205 0.28211,-1.09445 0.15845,-0.609 -0.30496,-1.084 -0.34718,-1.68418 -0.0447,-0.4722 -0.0298,-0.95836 -0.50692,-1.23327 -0.35712,-0.28957 -0.48129,-0.69954 -0.90447,-0.89303 -0.45,-0.30629 -0.73177,-0.66133 -0.97917,-1.115 -0.32881,-0.43735 -0.65017,-0.84357 -1.10578,-1.18736 -0.54845,-0.51576 -1.01857,-1.0728 -1.66614,-1.47177 -0.63641,-0.56298 -1.33963,-1.11881 -1.45133,-1.99886 -0.46291,-0.74988 -1.05765,-1.31746 -1.69888,-1.92938 -0.72348,-0.5899 -1.39078,-1.24473 -2.04546,-1.90122 -0.61962,-0.53231 -1.00714,-1.18872 -1.49946,-1.81923 -0.67897,-0.41923 -0.69492,-1.06155 -0.91083,-1.70262 -0.32583,-0.72064 -0.60601,-1.45048 -1.02874,-2.14123 -0.6225,-0.98527 -0.76818,-2.11194 -1.14989,-3.19446 -0.0924,-0.80034 0.0298,-1.60514 -0.33179,-2.3619 -0.40976,-1.42756 -0.93258,-2.82831 -1.06728,-4.31625 -0.0799,-1.75452 -0.1942,-3.51334 -0.38891,-5.25997 -0.24834,-1.41306 -0.78874,-2.78996 -0.40331,-4.23165 0,0 5.76666,-0.34904 5.76666,-0.34904 z"
       id="path3100-5"
       style="fill:#000000;fill-opacity:1" />
    <path
       d="m 227.30642,327.5779 c -0.11125,1.24747 -0.59047,2.36098 -1.20655,3.44772 -2.45956,2.88488 -6.25064,2.31436 -6.60189,-0.96539 -0.15895,-1.05746 -0.26772,-2.16079 0.14353,-3.17368 1.3589,-2.09865 5.20511,-1.92065 7.13658,-0.47068 0.56663,0.78756 0.67128,1.61859 0.38991,2.52453 -0.31888,0.94935 -0.94913,1.56709 -1.75029,2.14908 -3.17916,2.38073 -6.18075,1.54213 -5.84196,-1.09711 0.26226,-0.84942 0.871,-1.31898 1.65343,-1.70414 2.80272,-0.65604 5.99856,-1.5023 8.53879,-0.005 0.36704,0.77273 0.39238,1.44675 0.0919,2.25389 -0.36408,0.78575 -1.11776,0.95222 -1.91827,1.09268 -1.95824,0.12735 -7.43326,1.66 -7.73475,-1.74863 0.36507,-0.97152 0.6165,-2.02433 1.13137,-2.93051 1.12027,-1.94082 5.4592,-2.82315 6.75154,-0.79933 0.41672,0.52385 0.85128,1.02837 1.1483,1.64495 0.25381,0.78552 -0.15795,1.60138 -0.74931,2.13895 -2.40149,1.24295 -6.23717,1.52214 -8.27172,-0.43457 -0.0825,-0.36346 -0.91519,-1.45782 -0.93178,-1.68077 0.75511,-2.77258 5.83913,-1.44992 8.192,-0.43876 1.04204,0.16872 1.51013,0.78088 1.18181,1.72345 -0.42367,0.58961 -0.98121,1.00248 -1.65432,1.28868 -1.56615,0.2877 -7.47488,2.01918 -7.77546,-0.98096 -0.14007,-0.94391 0.0825,-1.75602 0.67942,-2.50877 2.24811,-1.79725 6.19739,-1.39386 8.32625,0.3537 0.99069,0.58259 1.8971,1.31904 2.01481,2.47721 -0.0102,0.67384 -0.3889,1.17398 -0.76236,1.70104 -2.69445,1.04337 -5.69305,1.18434 -8.31493,0.22309 -0.74011,-0.27421 -1.19578,-0.94015 -1.4329,-1.64391 -0.0581,-0.17011 -0.0561,-0.34254 -0.0447,-0.51799 7.5e-4,-0.0326 0.001,-0.067 0.002,-0.10045 0,0 5.36051,-0.10272 5.36051,-0.10272 l 0,0 c -7.4e-4,-0.0326 -0.002,-0.0595 -0.003,-0.0892 0.0869,0.0553 0.18476,0.11108 0.23493,0.19939 0.47186,0.52631 0.96507,1.02975 1.68885,1.21683 0.61097,0.22076 1.74154,0.13896 1.34518,0.16871 -9.42026,0.70581 -6.41092,0.29095 -4.427,0.38251 0.46987,0.11991 0.47137,-0.6755 0.56444,-1.01758 -0.17533,-0.93402 -1.57042,-1.38931 -2.18419,-2.01843 -0.39338,-0.28491 -0.77245,-0.58831 -1.26547,-0.69568 -0.1187,-0.0278 -0.48376,-0.0278 -0.36258,-0.0419 5.20193,-0.49323 7.05016,0.0139 5.03052,-0.50367 -0.43261,0.64896 -0.75149,1.26493 -0.77076,2.05551 0.30397,0.66329 1.54719,0.63698 1.17839,0.67788 -11.29029,1.25188 -6.60591,0.61769 -4.89585,0.38344 0.83354,-0.10365 1.29387,-0.43689 1.8662,-1.00977 0.60839,0.35649 -1.11839,-0.68183 -1.34324,-0.58102 -2.63201,-0.71891 -3.79327,-0.0372 3.66616,-0.85379 0.15,-0.0186 -0.31838,0.009 -0.44702,-0.0674 -0.0938,-0.0553 -0.0994,-0.1887 -0.14851,-0.28305 0.63566,0.16082 0.70266,1.06253 1.17774,1.43091 0.39289,0.23843 0.76779,0.46934 1.22474,0.58111 0.14405,0.0372 0.58689,0.0576 0.43908,0.0716 -5.10761,0.49304 -7.08239,-0.009 -4.91639,0.49461 0.46739,-0.31883 1.10504,-0.81601 0.82287,-1.42217 -0.2404,-0.54346 -0.80294,-0.93405 -0.9899,-1.51098 -1.66639,-0.93393 -0.16093,-0.0618 5.24633,-0.43503 0.19669,-0.0139 -0.47731,-0.0734 -0.58589,0.085 -0.0507,0.0739 -0.0149,0.1757 -0.0298,0.264 -0.11077,0.98755 -0.609,1.84967 -1.14343,2.68009 0.48129,2.5441 7.67419,0.83553 -3.87796,1.69964 0.67908,-0.0186 1.42331,-0.0474 1.98831,-0.43735 0.12565,-0.49913 0.53736,-1.13996 -0.11077,-1.45169 -0.66526,-0.21565 -1.91136,-0.26028 -1.46623,-0.29932 9.23644,-0.81684 6.42552,-0.46338 4.42615,-0.32023 -0.78,0.0916 -1.31006,0.49053 -1.62124,1.1829 -1.79578,2.34253 6.7813,0.14223 -5.63678,1.04701 -0.0541,0.003 0.0102,0.10318 0.0199,0.15478 0.4058,-0.72432 1.28926,-1.07648 1.5252,-1.91777 0.23045,-0.60142 0.49618,-1.29566 -0.082,-1.80557 -0.4346,-0.19659 -0.96219,-0.24819 -0.8113,-0.26585 9.81026,-1.12945 6.31804,-1.58805 4.99059,-0.29281 -0.36507,0.81299 0.34123,2.00984 0.0199,2.88691 0.0397,0.3063 0.0397,0.61751 0.0904,0.92241 0.0199,0.11433 0.22003,0.31232 0.10182,0.33324 -8.33678,1.495 -5.08405,2.24976 -5.48821,0.23564 0.48576,-1.13131 0.9591,-2.23888 1.40802,-3.38107 0,0 5.7983,-0.17103 5.7983,-0.17103 z"
       id="path3102-9"
       style="fill:#000000;fill-opacity:1" />
    <path
       d="m 243.44311,365.12904 c 2.88402,-1.02092 6.44047,-1.73319 9.35733,-0.89511 0.93442,0.62922 1.27311,1.60911 1.39728,2.65667 -0.002,1.10258 -0.50965,1.94555 -1.43881,2.54842 -2.75255,0.74824 -6.052,1.73719 -8.65371,0.34578 -0.7802,-0.50247 -0.95573,-1.3339 -0.71464,-2.15702 0.17831,-0.8498 0.50986,-1.60357 1.29477,-2.06389 2.69707,-0.20497 6.36507,-1.48045 8.00032,1.16138 0.36258,0.78524 -0.002,1.64541 -0.4644,2.32059 -1.86691,1.48097 -5.38228,2.12607 -7.28862,0.66673 -1.02178,-0.3128 -1.40771,-1.30436 -1.70786,-2.20165 -0.225,-0.99755 -0.14951,-1.80148 0.64549,-2.51738 2.94363,-1.1044 6.68226,-1.52525 9.34263,0.2482 0.70456,0.77618 0.49569,1.97218 0.14901,2.87362 -0.41524,0.73049 -0.96969,1.28357 -1.77811,1.57447 -3.47646,0.53032 -7.44735,2.38849 -7.7626,-1.31001 -0.0447,-1.04426 0.0102,-2.14588 0.53315,-3.07702 2.2057,-1.79877 6.08473,-1.64507 8.5501,-0.24911 0.96989,0.81317 0.84607,1.68969 0.37054,2.72903 -1.6059,2.22646 -6.29847,3.46607 -8.38064,1.50308 -0.8702,-0.79295 -0.90691,-1.69875 -0.97505,-2.78782 0.27566,-0.95874 0.6223,-2.00998 1.47347,-2.62362 1.90148,-0.21426 7.21252,-1.77833 8.61041,1.09985 0.53732,1.30509 -0.0894,2.12356 -1.07548,2.99283 -2.76567,1.77587 -6.93656,2.54689 -10.04455,1.565 -0.73395,-0.23656 -0.70833,-0.85146 -0.35513,-1.4244 0.34718,-0.48314 0.93964,-0.63804 1.50283,-0.77529 0.41275,-0.0925 -0.10028,0.0232 0.20961,-0.047 0,0 5.41351,0.40018 5.41351,0.40018 l 0,0 c -0.0397,0.005 -0.0834,1.4e-4 -0.12268,0.0186 -0.46093,0.10875 -0.89563,0.29699 -1.35875,0.39691 -0.39884,0.44945 -0.68552,0.0879 0.44255,0.29561 2.32833,0.0976 0.47732,5e-4 -4.90127,0.42062 -0.20762,0.0186 0.42069,0.0139 0.62453,-0.0278 0.84567,-0.17104 1.55399,-0.6894 2.33862,-1.00322 0.72243,-0.42853 2.28974,-1.11509 1.53963,-2.13598 -1.79305,-1.84865 -7.09699,-0.64896 3.01302,-1.44582 -0.93318,-0.0186 -1.04385,1.24462 -1.3641,1.935 -0.0571,0.81346 -0.0557,1.71949 0.73092,2.21894 2.10695,0.30211 0.30596,0.0185 -5.03842,0.45316 -0.14255,0.009 0.29106,0.0326 0.42914,-0.005 0.56718,-0.1478 0.90726,-0.61746 1.33873,-0.95776 0.62274,-0.85194 0.76872,-1.16976 -0.26027,-1.81557 -0.30049,-0.12874 -0.57342,-0.2691 -0.90159,-0.32395 -0.15397,-0.0278 -0.62394,-0.0139 -0.46838,-0.0278 8.37244,-0.71956 6.64531,-0.26352 4.49693,-0.45873 -0.4654,0.8887 -0.36755,1.79456 -0.45646,2.7671 5e-5,0.002 0.0102,0.73327 0.0536,0.79574 0.13808,0.20218 0.99188,0.11016 0.74151,0.13014 -4.47801,0.36253 -7.2182,0.40389 -4.73212,0.35742 0.87293,-0.0419 1.23755,-0.26632 1.62945,-1.03869 0.39089,-0.67379 0.77408,-1.56337 -0.0447,-2.0347 -0.50638,-0.21937 -1.02934,-0.47779 -1.58778,-0.54904 -0.20065,-0.0279 -0.80901,0.003 -0.60734,-0.0186 4.86144,-0.43735 7.21724,-0.3853 4.65526,-0.41969 -1.11854,0.41132 -1.0575,0.76093 -0.72591,1.78604 0.19073,0.82247 0.65086,1.39949 1.43002,1.79789 2.05584,0.67496 -8.27181,1.51286 -4.07613,0.17662 0.47583,-0.28258 0.78959,-1.10045 0.42716,-1.56662 -1.5757,-1.91628 -6.7068,-0.68782 3.52132,-1.37853 -0.93144,-0.35555 -0.9294,0.85714 -1.25543,1.44067 -0.31738,0.65422 -0.0348,1.06411 0.70435,1.29733 0.30845,0.08 1.26314,0.12224 0.9451,0.14873 -9.70078,0.82322 -5.99419,0.50577 -3.89975,0.22448 1.00376,-0.22122 1.19792,-0.90757 1.4032,-1.81174 -0.16888,-0.88759 -0.29603,-1.71033 -1.34757,-1.9548 -2.26386,-0.21613 -1.32059,-0.0939 4.78878,-0.48891 0.1798,-0.009 -0.34917,0.0846 -0.52406,0.12503 -0.668,0.1557 -1.34627,0.26772 -2.00335,0.46432 0,0 -5.78986,-0.34627 -5.78986,-0.34627 z"
       id="path3104-8"
       style="fill:#000000;fill-opacity:1" />
    <path
       d="m 234.84075,414.54728 c 0.90467,-1.07967 2.02575,-1.91543 3.33745,-2.47846 4.53687,-1.17068 6.54841,-1.75379 8.01012,1.63792 0.51452,1.11997 0.35016,2.22856 -0.13064,3.3232 -1.38964,2.18678 -4.9799,1.72846 -7.28434,0.82344 -1.14562,-0.5641 -1.5229,-0.90292 -1.59775,-2.14141 0.12516,-0.93346 0.41672,-1.74235 1.27872,-2.23479 3.46918,-0.8523 6.09379,-1.60357 8.34677,0.62815 0.75044,0.77966 0.73291,1.47859 0.35562,2.41716 -1.93455,2.25195 -5.68838,1.37198 -8.54896,1.20815 -1.15431,-0.41645 -1.65769,-1.02 -1.56338,-2.21726 0.19917,-1.1462 0.88063,-1.87148 1.88221,-2.44994 2.36081,-0.79138 6.44747,-1.84307 8.25169,0.40715 0.29603,1.11254 -0.14255,2.10162 -1.0347,2.81394 -1.56432,0.33929 -6.15775,1.35073 -8.29153,0.13757 -0.86215,-0.85774 -0.64759,-2.11101 -0.1793,-3.11265 0.40927,-0.69926 0.87183,-1.31458 1.6433,-1.64258 3.30606,-0.31697 6.58331,-1.52724 8.06091,1.55538 0.23294,1.17709 -0.30447,2.06166 -1.37976,2.58891 -2.43243,0.64752 -6.02394,2.10558 -7.81361,0.0762 -0.25381,-0.72222 -0.78427,-1.25258 -1.10191,-1.95471 -0.16887,-1.13662 0.70407,-1.73139 1.68939,-2.08839 1.7776,-0.51957 7.29264,-1.91659 8.24728,0.98747 0.1952,1.10222 -0.31986,2.0136 -1.02423,2.84058 -2.29232,2.09921 -6.26851,2.41833 -9.15393,1.49481 -1.16866,-0.53937 -1.83456,-1.60418 -2.16322,-2.77104 -0.3919,-1.13052 0.2692,-1.88658 1.10781,-2.56896 2.29207,-1.43543 6.36726,-2.63223 8.53436,-0.84143 0.80092,0.12827 0.99427,0.32859 0.70634,1.14204 -0.60347,0.74244 -1.41497,1.27618 -2.09429,1.9589 -0.0964,0.0693 -0.16936,0.20543 -0.28957,0.20821 -0.079,0.002 -0.0397,-0.1966 -0.11871,-0.19845 -1.82756,-0.0488 -3.65627,0.0326 -5.48444,0.0492 0,0 5.62744,-0.30489 5.62744,-0.30489 l 0,0 c -4.68199,0.45827 -5.47635,1.96963 -5.54991,0.23193 0.5641,-0.91655 1.34897,-1.45364 2.22955,-2.06102 0.93243,0.0581 -0.0978,0.35184 -0.55953,-0.0232 -2.0395,-0.1385 -4.7093,0.41365 4.55499,-0.42899 0.44404,-0.0419 -2.46427,0.17801 -1.62034,0.46152 -0.8479,0.46636 -1.48128,0.75578 -1.17671,1.82881 0.42665,0.93791 1.06709,1.82704 2.11594,2.18022 2.28998,0.17801 1.20582,0.0646 -4.8156,0.48206 -0.22549,0.0186 0.44851,-0.0613 0.6678,-0.11387 0.56916,-0.13525 0.99984,-0.44153 1.46736,-0.76772 0.5939,-0.66156 1.48273,-1.2575 1.194,-2.21591 -0.2548,-0.37647 -0.58714,-0.59863 -1.03167,-0.7554 -0.14305,-0.0502 -0.59419,-0.0911 -0.44305,-0.10737 1.62039,-0.17661 7.47502,-0.65171 4.87674,-0.37321 -0.62165,0.20031 -1.6939,0.39087 -1.7782,1.13327 0.37749,0.56079 0.683,1.15692 0.98047,1.75606 0.16739,0.086 0.71563,0.18777 0.52698,0.20589 -9.91703,0.94155 -6.19251,0.60073 -4.162,0.2324 0.88421,-0.28724 1.53368,-0.62317 1.3647,-1.64652 -1.58294,-2.38529 -5.56341,-1.24677 3.56966,-1.78865 -0.90104,0.0326 -1.09898,0.32906 -1.42063,1.12912 -0.37451,0.72989 -0.96924,1.64611 -0.0512,2.21462 0.40729,0.0943 0.79887,0.16035 1.21808,0.18219 0.14851,0.005 0.59364,7.1e-4 0.44553,0.0139 -5.00171,0.43457 -7.06784,0.31744 -4.9352,0.42341 0.6225,-0.10551 1.2591,-1.18448 1.094,-1.79101 -0.34718,-0.27655 -0.62096,-0.4197 -1.06946,-0.50917 -0.1366,-0.0278 -0.55243,-0.0465 -0.41374,-0.0604 6.13222,-0.61773 7.05049,-0.90037 4.92278,-0.31512 -0.91401,0.27794 -1.76107,0.9178 -1.95507,1.86389 -0.18924,1.08656 0.55302,1.09339 1.52017,1.29209 2.07636,0.13757 4.98542,-0.3114 -4.27436,0.4341 -0.27268,0.0186 0.57875,0.0595 0.81716,-0.0688 0.13559,-0.0729 0.2096,-0.22076 0.31539,-0.33139 0.69383,-0.61903 0.30795,-1.08897 -0.30298,-1.63828 -0.2861,-0.24634 -0.58952,-0.54008 -0.97495,-0.63806 -0.13461,-0.0326 -0.55441,-0.0326 -0.41574,-0.0465 4.57209,-0.39507 7.24467,-0.37647 4.81238,-0.38112 -1.08269,0.0576 -1.30962,0.59817 -1.41069,1.53939 -0.16292,0.80876 0.82191,1.0648 1.39321,1.47757 2.18747,0.84748 0.33775,0.0962 -4.8091,0.56931 -0.23195,0.0186 1.02383,0.13803 0.66308,-0.22682 0.24487,-1.05299 0.40034,-1.85654 -0.10628,-2.89351 -0.16739,-0.36113 -0.30647,-0.73379 -0.48229,-1.09074 -0.0616,-0.12456 -0.11225,-0.26167 -0.21507,-0.35742 -0.0621,-0.0576 -0.33229,-0.0632 -0.24735,-0.0706 5.01056,-0.44014 7.20547,-0.19381 5.00206,-0.41923 -1.34355,0.57261 -2.40378,1.43877 -3.4965,2.3746 0,0 -5.85988,-0.19986 -5.85988,-0.19986 z"
       id="path3106-9"
       style="fill:#000000;fill-opacity:1" />
    <path
       d="m 219.2462,381.70889 c 0.95369,0.68792 1.38174,1.56639 1.043,2.6688 -1.03948,2.26839 -4.84163,1.87439 -7.00039,0.84463 -0.43212,-0.26491 -1.00137,-0.27421 -1.13503,-0.82874 -0.22252,-2.73921 4.50784,-1.51577 6.85247,-1.29444 1.17944,-0.005 1.90461,0.42619 2.15026,1.49346 0.12915,0.90623 -0.12317,1.63783 -0.63739,2.39114 -1.94286,1.36347 -5.51117,0.87475 -7.25459,0.92156 -0.23495,0.005 -0.91843,-0.77576 -1.05964,-0.90041 -0.92628,-1.04473 -0.6981,-2.64625 -0.31093,-3.86397 0.51348,-1.29984 1.09296,-2.48228 2.581,-2.84039 5.36687,-0.33325 7.5907,-1.52685 8.60112,3.20064 0.12019,1.60087 -0.55104,3.02705 -1.78138,4.076 -2.57698,1.67092 -6.23688,1.44415 -9.1063,0.47783 -0.93547,-0.58618 -0.72184,-1.36105 -0.60806,-2.28331 0.35465,-1.07507 1.01097,-1.90767 2.0267,-2.46629 1.58096,-0.22634 7.42471,-2.08638 6.96959,1.33052 -0.22003,0.91654 -0.77702,1.32271 -1.69217,1.528 -2.31979,0.39831 -7.36972,1.73594 -6.5633,-1.76778 0.46341,-0.83181 1.00425,-1.72595 1.88667,-2.18798 4.46355,-0.58009 6.39538,-1.73395 6.92186,1.74848 0.0298,0.7284 -0.075,1.41953 -0.449,2.05464 -1.94534,1.48729 -5.90762,2.29596 -7.24546,-0.005 -0.29205,-0.62875 -0.38046,-1.30904 -0.3442,-1.99138 0.41374,-2.69989 5.23903,-2.25989 7.01543,-0.52901 0.6535,0.63674 0.59852,1.22116 0.2856,2.01295 -0.48824,1.22961 -1.47784,1.86985 -2.79055,2.05339 -1.99167,0.10875 -3.98195,0.24401 -5.97497,0.32673 -0.62583,0.0278 -0.31888,-0.91598 0.14851,-0.98969 0.7868,-0.21334 1.53189,-0.53045 2.32162,-0.74509 0,0 5.84912,0.36346 5.84912,0.36346 l 0,0 c -0.83514,0.2705 -1.68085,0.49657 -2.48271,0.85319 -0.21606,0.003 -0.56235,0.0725 -0.70306,-0.18731 -0.075,-0.13757 -0.07,-0.31883 -0.0149,-0.46533 0.0496,-0.13478 0.43609,0.20822 0.44454,0.002 -1.78734,0.11851 -3.57463,0.23749 -5.36196,0.35602 1.19786,0.0326 2.07651,-0.58191 2.69975,-1.55134 0.70649,-0.605 0.45844,-0.66965 -0.18476,-1.21962 -0.17434,-0.14129 -0.79227,-0.34532 -0.56578,-0.3695 1.7465,-0.18498 3.51054,-0.19567 5.25462,-0.40064 0.0839,-0.009 -0.56797,-0.4901 -0.21059,0.13201 0.0517,0.53741 -0.11276,1.2118 0.20861,1.6644 0.0933,0.0873 0.22946,0.23797 0.36457,0.27283 0.0785,0.0186 0.32333,-0.009 0.24288,-0.003 -9.20028,0.68011 -6.64188,0.2454 -4.65701,0.41923 0.10182,-0.1083 0.31092,-0.12456 0.36556,-0.26074 0.15347,-0.38112 -0.29802,-1.00323 -0.11026,-1.39838 0.0102,-0.29281 0.0675,-0.82934 -0.13361,-1.09696 -0.0964,-0.12875 -0.37997,-0.20451 -0.51964,-0.25331 1.78103,-0.13479 3.5621,-0.27004 5.34319,-0.40482 -0.85899,-0.1399 -1.10772,1.208 -1.75158,1.5998 -0.0775,0.22124 -0.23692,0.43272 -0.225,0.66604 0.0149,0.28677 0.27218,0.45408 0.52773,0.48499 -1.78992,0.13479 -3.57989,0.27004 -5.36985,0.40529 0.758,-0.11759 1.53596,-0.001 1.67528,-0.86677 0.0496,-0.1701 0.19172,-0.35648 0.11721,-0.51804 -0.13361,-0.28955 -0.5615,-0.26027 -0.81238,-0.26213 1.77899,-0.14037 3.55798,-0.28073 5.33707,-0.42109 -0.92219,-0.0515 -1.48832,1.25331 -2.00096,1.86548 -0.33179,0.93624 -0.52162,1.02543 0.59986,1.41612 0.31042,0.0679 0.85485,0.19009 1.16135,0.24401 0.18527,0.0326 0.74603,0.0609 0.55892,0.0823 -9.20548,1.05695 -6.34927,0.89847 -4.39792,0.16593 0.98086,-0.8477 1.52388,-2.16214 1.50139,-3.42768 -0.21656,-0.69605 -0.35117,-1.49421 -0.78875,-2.104 -1.29024,-1.79813 -6.02171,-0.24354 4.36655,-1.1586 -1.56551,0.0139 -1.88643,0.80918 -2.30042,2.17274 -0.30844,1.03901 -1.01548,2.37519 -0.0889,3.2744 0.21258,0.24029 0.23443,0.35231 0.55966,0.42062 0.12269,0.0278 0.50111,0.005 0.376,0.0186 -9.56266,0.78142 -6.41494,0.53166 -4.37499,0.29235 0.61361,-0.52613 0.91942,-1.10901 0.91062,-1.90834 -0.0447,-0.57339 -1.81688,-0.63405 -2.25407,-0.75326 -2.86679,-0.2863 7.14244,-0.25934 4.28802,-0.5694 0.51347,0.0971 0.98653,0.29095 1.4546,0.51832 2.00688,0.68796 0.41871,0.0925 -4.93441,0.55234 -0.15843,0.0139 0.31292,0.0846 0.47087,0.0716 0.0914,-0.005 0.0149,-0.25889 0.0959,-0.24773 0.077,-0.79807 -0.60571,-1.4819 -1.1674,-1.99036 0,0 5.78766,-0.9052 5.78766,-0.9052 z"
       id="path3108-1"
       style="fill:#000000;fill-opacity:1" />
    <path
       d="m 161.97202,407.26483 c 0.9386,-1.04449 2.20441,-1.87309 3.52605,-2.41405 4.05243,-0.59095 6.1368,-1.77813 7.17721,1.25574 0.19519,0.9263 -0.30696,1.78531 -0.86459,2.5045 -1.9199,1.46707 -5.03817,0.81224 -7.1495,0.9428 -0.56105,0.0325 -1.05442,-0.0753 -1.55369,-0.30025 -0.9444,-0.44572 -0.87055,-1.11374 -0.37698,-1.9093 0.93109,-0.96971 2.21999,-1.39355 3.49947,-1.75463 4.90794,-0.83246 6.25798,-2.05919 6.67207,1.32526 0.081,0.81481 -0.35959,1.38681 -0.83647,2.00291 -1.85906,1.58545 -4.72078,0.7594 -7.07891,0.85984 -0.53146,0.0233 -0.98032,-0.17615 -1.3731,-0.47956 -0.9749,-1.1373 -0.58947,-2.33977 0.22897,-3.43846 1.65974,-2.18185 5.81877,-3.84979 8.29183,-1.62453 0.63889,0.9143 0.76873,1.8995 0.45199,2.94375 -0.35911,1.05905 -0.99537,1.60204 -2.10855,1.82764 -2.71112,0.1492 -6.56514,1.41209 -8.33246,-1.20516 -0.30446,-1.40777 0.69915,-1.88114 1.93804,-2.18821 2.6773,-0.41226 5.42061,-0.45967 8.10984,-0.62639 0.5402,-0.0326 0.73862,0.11155 1.12113,0.44898 0.2851,1.15855 0.10629,2.24636 -0.59394,3.22197 -2.47879,2.0664 -7.00521,1.41357 -9.68917,1.52893 -1.05765,-0.41644 -1.3128,-1.39484 -1.28817,-2.40833 0.33477,-1.43933 1.24709,-2.74628 2.58408,-3.47724 2.80536,-0.96845 6.939,-2.2048 8.21817,0.77307 0.49619,1.16789 0.37401,2.25715 -0.22201,3.35332 -1.99898,2.36018 -6.37239,2.35368 -9.07839,1.05058 -1.1104,-0.72975 -1.71145,-1.49723 -1.91707,-2.771 0.19519,-1.51861 1.37055,-2.31496 2.7298,-2.88301 3.51547,-1.14214 6.59017,-2.35516 7.61643,0.81461 0.2111,0.99593 -0.22649,1.87046 -0.83027,2.6463 -1.83372,1.26178 -6.14339,2.62883 -7.02626,0.24866 0.0397,-1.09618 0.79405,-1.87566 1.69813,-2.45258 2.19706,-1.10097 7.00644,-2.25738 7.73932,0.4197 0.12814,1.30499 -0.65504,2.36859 -1.55703,3.25835 -2.55552,1.64607 -6.36622,2.06325 -9.20082,0.87518 -0.33775,-0.956 0.30745,-1.76029 0.92464,-2.45541 0.72392,-0.63931 1.56094,-1.14303 2.43665,-1.56505 1.89503,-0.0186 3.79004,-0.0372 5.68511,-0.0544 0,0 -5.5584,0.66803 -5.5584,0.66803 l 0,0 c 1.80894,-0.13572 3.61793,-0.27143 5.42688,-0.40668 -0.60442,0.4901 -1.2007,0.98969 -1.81739,1.46563 -0.50185,0.37646 -0.91883,0.91138 -1.41963,1.26493 -0.0874,0.0613 -0.57403,0.0186 0.0102,0.0186 2.2196,0.376 4.09391,-0.26354 -4.39823,0.53463 -0.71375,0.067 2.13098,-0.0326 1.81797,-0.46482 0.80981,-0.62527 1.74199,-1.61417 1.846,-2.63789 -0.16192,-0.51056 -0.93889,-0.40808 -0.70013,-0.43039 13.18317,-1.23013 5.95212,-0.86783 4.70449,-0.27608 -0.77807,0.45223 -1.51034,0.95438 -1.97415,1.72837 -5.57751,0.43271 -6.9742,1.08818 -4.39649,0.1636 0.58048,-0.32766 0.80777,-1.47887 0.77042,-2.07583 -0.0249,-0.23797 -0.0199,-0.61871 -0.35117,-0.6868 -0.10827,-0.0232 -0.44204,0.003 -0.33178,-0.003 5.68843,-0.49745 7.0804,-1.03283 4.94841,-0.27934 -1.0794,0.42156 -2.47882,0.97766 -2.86097,2.13134 0.10029,0.98091 0.9972,1.78637 1.91701,2.14405 2.19656,0.53738 4.69486,-0.21937 -4.18808,0.60362 -0.41771,0.0372 2.2498,-0.16082 1.34359,-0.55286 0.66964,-0.84426 0.64322,-1.77944 0.4212,-2.79275 -0.20364,-0.34672 -0.34272,-0.60644 -0.78035,-0.70116 -0.14752,-0.0326 -0.60323,-0.0186 -0.45249,-0.0372 3.38296,-0.29885 7.36968,-0.50325 4.79142,-0.36809 -1.26457,0.53007 -1.8981,1.85501 -2.61929,2.91437 -0.25629,0.97292 0.18725,1.45239 1.20263,1.51573 -10.66034,0.84032 -4.45992,0.76284 -2.20376,-0.38669 0.49569,-0.442 1.18212,-1.60924 0.96214,-2.25416 -0.39934,-0.11016 -0.32136,-0.11713 -0.78487,-0.10459 -0.19918,0.005 -0.79337,0.0544 -0.59499,0.0419 9.83708,-0.66501 6.11579,-0.47579 3.97098,-0.23657 -0.68245,0.0897 -2.55998,0.005 -2.37407,0.99913 2.06971,1.76568 6.0913,0.97343 -3.27636,1.47194 0.96919,-0.009 1.78942,-0.10271 2.05291,-1.16105 0.24636,-0.74834 0.44355,-1.56835 -0.16539,-2.22001 -2.03389,-0.48829 -0.53816,-0.0962 5.0864,-0.51749 0.13012,-0.009 -0.26076,0.0326 -0.38494,0.0725 -0.54721,0.17289 -0.37898,0.18126 -0.77002,0.65696 -0.1495,0.18219 -0.31092,0.35509 -0.46639,0.53239 -0.67127,0.67482 -1.54684,1.67506 -0.58302,2.4498 0.53787,0.14501 2.12529,0.13804 1.4333,0.20589 -13.78819,1.34702 -5.60573,0.88949 -4.54187,0.27004 0.63924,-0.41179 0.91813,-0.81043 0.84134,-1.54855 0.0512,-0.45501 0.0596,-0.27654 0.0102,-0.6743 -0.0102,-0.10735 -0.20116,-0.30256 -0.0894,-0.31139 5.693,-0.45595 7.08979,-0.98449 5.15588,-0.28909 -1.26095,0.2189 -2.40094,0.81066 -3.49113,1.43755 -1.01235,0.65348 -1.0646,0.20823 0.25232,0.74997 0.48675,0.0846 0.4952,0.10503 0.99198,0.11526 0.15994,0.003 0.63885,-0.0232 0.47981,-0.009 -9.53216,0.79017 -6.43794,0.64219 -4.51213,0.3049 0.46143,-0.55103 1.19046,-1.23733 1.0732,-1.9958 -0.43261,-2.27717 -7.70682,-0.34811 4.36987,-1.33046 -1.08338,-0.0642 -2.27966,1.81164 -3.41782,2.08758 0,0 -5.95276,-0.0902 -5.95276,-0.0902 z"
       id="path3110-7"
       style="fill:#000000;fill-opacity:1" />
    <path
       d="m 160.60986,355.9549 c -0.21209,-1.13186 0.36506,-2.22116 0.79589,-3.24734 0.4639,-0.96642 1.17918,-1.75454 1.81102,-2.61646 0.55391,-0.75308 1.43434,-1.16427 2.19869,-1.68854 0.81944,-0.44061 1.55345,-0.99067 2.36743,-1.44885 0.87014,-0.64134 1.88876,-0.9586 2.93384,-1.21512 2.61174,-0.33556 5.25239,-0.47346 7.88727,-0.51594 0.98966,-0.003 1.97936,0.003 2.96901,-0.005 1.07017,-0.13897 1.91703,0.36392 2.87464,0.73179 0.73253,0.30629 1.56532,0.2719 2.35118,0.32209 1.11666,0.41784 2.06087,1.15479 2.92073,1.94156 1.02567,0.78291 2.1377,1.4725 3.16039,2.26709 0.67897,0.95112 1.76777,1.41143 2.58547,2.21261 0.85261,0.7707 1.65214,1.64234 2.31348,2.57594 0.25181,0.79983 0.80165,1.36639 1.22274,2.07449 0.39238,0.72672 0.42666,1.52646 0.55436,2.31333 0.52197,0.88856 1.11988,1.10714 1.27043,2.21847 0.11474,0.73997 -0.23692,1.50388 0.0102,2.21601 0.54363,0.90752 0.66145,1.74886 0.50553,2.75771 -0.0102,0.75749 -0.40331,1.44661 -0.50816,2.18189 -0.10039,0.87146 -0.59613,1.59721 -0.93353,2.39286 -0.30645,1.11681 -0.90974,2.08518 -1.58553,3.02607 -0.4649,0.72947 -0.67624,1.53869 -0.97614,2.32007 -0.451,0.63187 -0.69944,1.37203 -1.1328,2.00998 -0.68091,0.67634 -1.30803,1.39419 -1.9656,2.08745 -0.63656,0.55174 -1.18028,1.17258 -1.63436,1.87055 -0.38095,0.9249 -1.0338,1.51443 -1.80844,2.13378 -0.74175,0.53886 -1.57654,0.9402 -2.32486,1.46791 -0.80155,0.45734 -1.47537,1.06187 -2.28337,1.51689 -0.73615,0.45084 -1.60546,0.62736 -2.42558,0.90492 -1.11875,0.23332 -2.04398,0.89725 -3.11355,1.2608 -0.97028,0.15013 -1.82255,0.53249 -2.71669,0.90014 -2.59908,0.87912 -5.88031,1.67389 -8.43041,0.69274 -1.07871,-0.29931 -2.063,-0.82502 -3.06765,-1.29584 -1.00992,-0.67909 -2.24568,-0.9302 -3.27994,-1.53655 -0.73748,-0.40296 -1.75296,-0.63373 -2.20634,-1.36491 -0.40977,-0.63145 -1.00192,-1.21205 -1.49627,-1.82788 -0.69031,-0.90181 -1.31276,-1.79208 -1.74721,-2.84035 -0.20762,-1.02199 -0.41672,-1.99634 -0.74131,-2.98929 -0.4505,-1.04441 -0.48427,-2.16308 -0.62737,-3.26363 0.0102,-0.9091 -0.0581,-1.81309 -0.11623,-2.72108 -0.39933,-1.02702 -0.4192,-2.03098 -0.15944,-3.09579 0.1063,-0.80025 0.25332,-1.57354 0.20961,-2.38333 -0.0298,-0.95771 0.46291,-1.78748 0.80274,-2.65787 0.12964,-1.03204 0.47931,-2.01038 0.98206,-2.92493 0.4197,-0.83233 1.0502,-1.50857 1.36197,-2.38347 0.12318,-0.92714 0.54209,-1.80585 0.84026,-2.69692 0.4202,-0.81317 0.96541,-1.55639 1.71724,-2.11213 0.61715,-0.70278 1.51942,-1.02766 2.24892,-1.58781 0.60725,-0.58669 1.10339,-1.28 1.68849,-1.89239 0.62901,-0.48862 0.83151,-1.27442 1.40762,-1.8032 0.51849,-0.32394 1.03789,-0.65175 1.46345,-1.08744 0.66412,-0.58678 1.38168,-1.1116 2.06374,-1.67876 0.58317,-0.42342 1.31225,-0.58414 1.92547,-0.94723 0.51993,-0.43596 1.10016,-0.71566 1.77685,-0.84254 2.16343,-0.20915 4.37196,-0.7363 6.52351,-0.41365 0.17484,0.5971 0.12915,0.29467 0.14007,0.90664 0,0 -5.70944,0.16174 -5.70944,0.16174 l 0,0 c 0.28212,-0.17104 0.19868,-0.21472 0.27715,0.0683 -2.64944,0.28305 7.40376,-0.50521 4.48531,-0.28258 -0.60576,0.0534 -1.33664,0.0888 -1.75839,0.5601 -0.54863,0.49275 -1.16279,0.57804 -1.79175,0.97167 -0.7721,0.4248 -1.37901,1.09789 -2.08242,1.61909 -0.52714,0.38855 -1.01608,0.83302 -1.62382,1.10603 -0.66413,0.41737 -0.62326,1.18639 -1.20036,1.72655 -0.60054,0.62996 -1.24713,1.22618 -1.76771,1.91888 -0.64247,0.75178 -1.5382,1.0173 -2.30022,1.64095 -0.62449,0.52184 -1.19632,1.03338 -1.57157,1.75917 -0.21606,0.95507 -0.71732,1.77954 -0.99865,2.70026 -0.18427,0.90804 -0.59796,1.76281 -1.11785,2.53736 -0.5984,0.83851 -0.95369,1.80426 -1.14615,2.79377 -0.22451,0.84845 -0.74961,1.63732 -0.79158,2.50464 -0.0964,0.81383 -0.086,1.63267 -0.21954,2.44227 -0.0348,1.03789 -0.11423,2.01174 0.29156,3.01082 -0.0561,0.89051 -0.14653,1.78851 0.0249,2.66968 0.0834,1.06912 0.5037,2.09414 0.75835,3.13241 0.3303,0.97617 0.22053,1.99966 0.60959,2.95393 0.43708,0.97027 1.27807,1.73232 1.74581,2.69487 0.449,0.58479 0.77195,1.24649 1.23442,1.82528 0.8101,0.43364 1.78778,0.57088 2.55493,1.10151 1.09733,0.47938 2.17102,0.98037 3.23269,1.51951 0.96865,0.43827 1.85315,1.00456 2.93096,1.19182 2.22498,0.10923 0.67551,0.0139 -4.82031,0.39739 -0.95668,0.0665 2.56594,-0.14316 1.69411,-0.25052 0.83096,-0.44898 1.63221,-0.91984 2.59912,-0.97561 1.0506,-0.33418 1.94633,-0.89545 2.95272,-1.28827 0.92379,-0.23983 1.88459,-0.57177 2.775,-0.71887 0.68334,-0.53858 1.38666,-1.06095 2.09136,-1.55054 0.81382,-0.40157 1.52692,-0.87844 2.25114,-1.42859 0.79963,-0.4862 1.63828,-0.94931 1.92811,-1.87709 0.39287,-0.79904 1.02163,-1.32653 1.58806,-2.00138 0.6371,-0.69843 1.23357,-1.48338 2.02769,-2.01416 0.46787,-0.62554 0.78784,-1.26089 1.19522,-1.92655 0.48179,-0.69386 0.22848,-1.68398 0.78612,-2.37658 0.56081,-0.98417 1.20576,-1.90029 1.73141,-2.90212 0.24139,-0.81624 0.764,-1.51782 0.96903,-2.32063 0.1947,-0.71993 0.48775,-1.45048 0.43311,-2.1964 0.30596,-0.86457 -0.22003,-1.63457 -0.41125,-2.48372 -0.18576,-0.74517 0.0557,-1.49937 -0.0621,-2.25528 -0.2409,-0.85272 -1.03703,-1.39838 -1.22732,-2.2835 0.003,-0.73063 -0.23344,-1.44457 -0.60432,-2.07769 -0.35563,-0.70656 -0.8108,-1.36035 -1.30943,-1.98413 -0.70007,-0.85882 -1.48311,-1.658 -2.25714,-2.45556 -0.93815,-0.68266 -1.92348,-1.30216 -2.71779,-2.14959 -1.08934,-0.73616 -2.15007,-1.50235 -3.17668,-2.31891 -0.77065,-0.64214 -1.48837,-1.46354 -2.55015,-1.61287 -0.85137,-0.0419 -1.67816,-0.16686 -2.47524,-0.47012 -0.96979,-0.3286 -1.8685,-0.65636 -2.92819,-0.51479 -0.93979,-0.0139 -1.87972,-0.0139 -2.81941,-0.0232 -3.48581,-0.0558 7.54332,-0.57116 3.63006,-0.27282 -1.02214,0.11201 -1.97563,0.49048 -2.86009,0.98714 -0.76107,0.54425 -1.70737,0.86434 -2.41957,1.47896 -0.79098,0.36021 -1.4994,0.90813 -2.19263,1.40601 -0.4813,0.92406 -1.26467,1.62996 -1.7096,2.57592 -0.57061,0.8663 -0.75905,1.99989 -1.01246,2.98889 0,0 -5.76671,0.34905 -5.76671,0.34905 z"
       id="path3112-1"
       style="fill:#000000;fill-opacity:1" />
    <path
       d="m 186.31775,353.44283 c -1.9214,1.35115 -3.33816,3.10685 -4.48213,5.09293 -1.48317,3.07608 -2.21494,6.41839 -3.56548,9.54359 -0.20017,0.37554 -0.38941,0.75619 -0.60021,1.12616 -0.0102,0.0186 -0.83975,1.64234 -1.0577,1.64545 -5.77118,0.0827 -5.98793,1.52038 -5.3781,-0.67216 0.89951,-2.41019 2.08952,-4.72888 3.3309,-6.99318 1.67832,-3.03104 3.52322,-6.00133 5.84429,-8.61975 1.65353,-1.9106 2.92714,-1.31434 6.44142,-0.52729 0.299,0.067 -0.0686,0.58948 -0.14553,0.87551 -0.33328,1.23482 -0.65389,1.76601 -1.21898,2.9788 -1.96376,4.27544 -4.26045,8.36872 -6.94574,12.25831 -0.35117,0.46965 -0.69671,0.94372 -1.05433,1.40906 -0.25133,0.32674 -1.35472,2.05464 -2.03712,2.01731 -5.98734,-0.32766 -6.02211,1.06406 -5.20595,-1.63094 1.55856,-4.35172 3.80554,-8.42729 6.19252,-12.40272 0.41871,-0.66634 0.82078,-1.34283 1.25672,-1.99896 0.29454,-0.44339 2.26307,-3.40072 3.04953,-3.3971 6.53628,0.0326 6.26454,-1.17877 5.78876,1.89183 -1.27366,4.24556 -3.27685,8.30654 -5.63151,12.09312 -0.47086,0.47798 -2.67423,4.03325 -3.45999,4.0371 -1.83039,0.009 -3.65921,-0.1055 -5.48881,-0.15848 0.69899,-3.13618 2.78995,-5.89137 4.5306,-8.57468 2.26753,-2.91131 4.9138,-7.20129 8.47515,-8.77782 1.97971,0.0907 4.01375,-0.18079 5.93907,0.27144 0.38444,0.0902 0.0999,0.76097 0.0691,1.14069 -0.26622,3.29151 -2.10348,6.52129 -3.39885,9.51259 -1.85195,3.81605 -3.99318,7.49453 -6.46485,10.96967 -1.51942,1.5035 -3.89295,0.71929 -6.1731,0.21286 -0.30596,-0.0679 0.0531,-0.60291 0.10728,-0.9005 0.3298,-1.81486 0.39685,-1.72883 1.08214,-3.66932 2.33777,-5.61353 5.62233,-10.77614 9.38176,-15.59917 2.48072,-2.71453 3.36711,-3.57181 8.30152,-1.34037 0.539,0.24355 -0.225,1.12862 -0.40828,1.6739 -0.59821,1.77902 -1.34862,3.1174 -2.19596,4.81676 -2.60851,4.76024 -5.74983,9.23757 -9.34958,13.35202 -2.439,2.72149 -3.10009,2.5038 -7.92225,1.5992 -0.0804,-0.0139 0.0983,-0.71376 0.32335,-1.67273 1.33783,-3.21444 3.54303,-5.90393 5.84434,-8.51755 2.62331,-2.92949 3.93865,-3.38656 8.85314,-2.88849 0.27516,0.0278 0.2846,1.41194 0.32781,2.33094 -0.68746,4.47176 -2.91109,8.58048 -5.05898,12.54977 -0.72963,1.49022 -1.66142,2.87148 -2.52462,4.28896 -0.18626,0.30583 -0.64435,1.18672 -0.7335,1.18649 -1.85639,-0.003 -3.70078,-0.28677 -5.55121,-0.42992 0.56122,-1.39963 0.24687,-0.61774 0.94541,-2.34513 0,0 7.25135,-0.0665 7.25135,-0.0665 l 0,0 c -1.45295,1.77601 -0.77274,0.96464 -2.03194,2.44072 -2.15742,0.22449 -4.30342,0.60585 -6.47231,0.67319 -0.10081,0.003 -0.25034,-0.61992 -0.14056,-1.31583 0.23294,-1.48101 0.93601,-2.88659 1.42907,-4.28896 1.83125,-4.22106 3.71851,-8.42074 6.03631,-12.42316 0.0681,-0.12922 0.69278,-1.55473 1.01111,-1.60246 7.02468,-1.05342 6.16253,-1.36975 4.089,1.92074 -2.17073,2.82663 -4.60019,5.46303 -6.7066,8.34028 -0.14901,0.23424 -1.03764,1.63676 -1.05288,1.63936 -7.20384,1.24728 -6.48085,1.74654 -5.17044,-1.38233 2.2048,-4.64527 4.97937,-8.99563 7.81947,-13.30142 1.06466,-1.50611 2.32079,-3.32733 3.47177,-4.79579 0.44653,-0.56945 0.69183,-1.43997 1.3946,-1.66665 6.60403,-2.13059 7.88911,-2.53926 6.32419,1.15786 -2.58879,5.49323 -6.05339,10.48815 -9.45924,15.53744 -0.17533,0.25796 -3.02354,4.55411 -3.36085,4.62732 -1.20655,0.26167 -5.91233,2.0921 -6.07203,-0.003 0.69165,-3.82023 2.12047,-7.4665 3.90105,-10.93693 1.39704,-2.6629 2.82616,-5.24659 4.52131,-7.74695 0.12318,-0.18174 1.80716,-2.64272 2.00564,-2.68451 1.92134,-0.40435 3.92081,-0.30396 5.88119,-0.45548 -1.70439,3.09081 -4.15709,5.76021 -6.31435,8.55018 -2.28294,2.9227 -4.58126,5.84958 -7.10649,8.57918 -7.56358,0.34486 -6.40852,1.32224 -4.37757,-3.74908 1.84352,-4.15627 3.77017,-8.2979 6.3988,-12.06417 2.10855,-2.68985 0.85649,-1.68133 7.24605,-2.01206 0.15398,-0.005 0.0298,0.41597 -0.48477,1.63099 -0.73306,1.72181 -0.83667,1.84832 -1.73731,3.63177 -2.17615,4.32582 -4.73638,8.52085 -7.64187,12.42804 -2.15623,2.66633 -0.63045,1.33344 -7.25623,1.71251 -0.086,0.003 -0.1008,-0.15105 -0.09,-0.23332 0.0795,-0.59724 0.38793,-1.14586 0.62067,-1.70461 0.19668,-0.47236 0.41175,-0.93745 0.61793,-1.40618 2.11893,-4.20497 4.36208,-8.37784 7.06714,-12.26477 0.25928,-0.34533 2.67899,-3.8311 3.08633,-3.90709 3.6234,-0.67603 6.3774,-2.06808 5.98277,0.46626 -1.29069,3.08016 -3.27969,5.80297 -5.13373,8.58596 -1.51182,2.33838 -2.89172,4.74723 -4.6208,6.95437 -2.2268,3.41262 -7.29805,3.31906 -6.31446,-0.68681 0.0894,-0.36392 0.1808,-0.72715 0.27169,-1.09069 0.86002,-3.33208 1.69595,-6.69888 3.55784,-9.67763 1.38531,-2.26338 3.0744,-4.22394 5.54871,-5.44226 0,0 5.97904,0.27561 5.97904,0.27561 z"
       id="path3114-0"
       style="fill:#000000;fill-opacity:1" />
    <path
       d="m 192.94164,365.78396 c -0.86514,2.6403 -2.21037,5.11664 -3.42666,7.62044 -2.57847,4.48844 -1.06947,3.36471 -7.78819,3.30586 -0.0944,-2.99628 1.29393,-5.73126 2.55209,-8.38918 0.66834,-1.08938 3.02742,-5.33893 4.25251,-5.85149 0.11026,-0.0465 0.22003,0.093 0.32979,0.13944 1.79668,0.079 3.63691,-0.14967 5.39013,0.23656 0.31291,0.0693 -0.14951,0.60147 -0.23494,0.89963 -0.57556,2.01332 -1.31846,3.96966 -2.02917,5.94078 -1.00053,1.70298 -1.45525,3.91602 -2.92456,5.34019 -1.85752,-0.12363 -3.75367,0.0139 -5.5725,-0.37136 -0.26672,-0.0563 0.0496,-0.52459 0.10728,-0.7811 0.46242,-2.01792 1.36928,-3.91059 2.20337,-5.80199 1.20164,-2.58751 2.7745,-4.9345 4.83954,-6.95111 8.34453,-4.78535 6.27691,0.66709 5.0628,3.3641 -1.75837,3.63827 -1.64548,2.40354 -7.38542,2.24022 -0.81214,-1.404 -1.05119,-2.92837 -0.72114,-4.49053 0.1197,-1.13063 0.57894,-2.06617 1.47248,-2.8002 5.22949,-0.56841 6.54512,-1.77168 7.2015,2.79378 0.23742,3.12688 -0.41474,6.1015 -1.55822,9.00998 -1.08481,3.07055 -2.75746,5.92 -5.30314,8.0649 -3.71842,2.43561 -8.49915,2.01267 -12.78082,2.29633 -1.71516,-0.16454 -2.4742,-0.78831 -3.11225,-2.26714 -0.47285,-2.68855 0.4366,-5.15642 1.6657,-7.5292 1.0653,-2.07471 2.4366,-3.9593 4.05606,-5.66275 1.78963,-1.72288 4.09248,-0.95711 6.94938,-0.73723 0.36308,0.0279 1.69943,2.52369 1.8306,2.7836 1.00673,3.31641 0.44205,6.59862 -0.5859,9.82794 -0.98101,2.51816 -2.54255,4.80166 -4.89323,6.29006 -3.03954,0.99341 -7.10182,2.03483 -9.94462,0.19892 -0.3894,-0.25144 -1.20874,-1.05825 -1.52329,-1.35584 -1.73702,-2.93196 -1.35984,-6.3556 -0.80682,-9.5502 0.87069,-4.1756 2.94105,-7.92212 6.28476,-10.7158 2.99473,-1.68956 5.56024,-1.33804 9.4512,-1.13735 0.4649,0.0232 1.76936,1.98724 1.96873,2.30325 1.37821,3.66639 0.63859,7.45232 -0.49704,11.07447 -1.42336,3.78207 -3.41345,6.90685 -7.23458,8.71312 -6.99661,1.82007 -9.55927,1.5365 -11.81713,-3.97556 -1.31951,-4.6442 0.10381,-9.12399 1.96406,-13.40956 1.43454,-2.59978 4.57133,-7.15692 7.96178,-7.56801 2.85532,-0.34626 5.74158,-0.38715 8.61239,-0.58051 4.02512,1.35511 3.67933,5.72666 3.34297,9.08723 -0.81129,4.51712 -2.70701,8.24886 -6.23608,11.32299 -3.38693,2.37984 -6.71961,1.94937 -11.11973,1.72934 -0.49978,-0.0232 -1.86622,-1.18597 -2.13686,-1.39549 -3.39512,-3.02431 -3.88927,-7.22946 -3.65593,-11.44062 0.65031,-3.41179 1.76186,-7.22844 5.05386,-9.16192 0.48924,-0.28724 1.04801,-0.44572 1.57202,-0.66876 7.8238,-1.15419 11.36972,-1.82737 14.51291,4.52711 1.60923,4.95015 -0.49922,9.76585 -3.11205,13.99805 -2.02763,2.53229 -4.65105,6.28086 -8.38099,6.57037 -2.69433,0.20915 -5.40229,0.19799 -8.10343,0.29746 -3.15467,-2.04683 -3.45194,-6.28537 -3.69994,-9.61954 0.001,-4.52409 1.01181,-9.16823 3.63637,-13.00093 0.48625,-0.70994 1.10115,-1.32991 1.65173,-1.99486 0.62558,-0.52302 1.20035,-1.10845 1.8769,-1.56904 3.43296,-2.33737 10.84256,-3.43842 14.12315,-1.66497 0.46739,0.25284 0.84174,0.63902 1.26258,0.9585 3.02649,3.36416 2.07353,7.63694 0.5548,11.4344 -1.86858,4.15302 -4.74814,7.66515 -8.97874,9.70422 -8.43602,2.28498 -11.06291,1.61361 -13.248,-5.21373 -1.40642,-5.14192 -0.45645,-8.90308 2.35078,-13.33905 1.71035,-1.95611 3.8116,-3.17355 6.49909,-3.27306 9.03864,-0.33509 6.1721,-1.3392 10.3287,0.5029 3.91758,3.01026 3.88133,7.60175 3.31033,11.99868 -1.08035,5.21122 -3.32424,10.09741 -6.86902,14.17109 -3.49455,3.35467 -6.51075,3.28226 -11.86913,2.95668 -0.35315,-0.0185 -1.80725,-1.83935 -1.87773,-1.92199 -2.42598,-3.95697 -2.03935,-8.60535 -1.2153,-12.94497 1.07647,-3.77259 3.1207,-7.66909 6.71593,-9.7975 0.55887,-0.33092 1.20045,-0.51 1.8007,-0.76497 3.70252,-0.60077 4.83915,-0.88396 10.12615,-0.16547 0.61187,0.0832 0.9523,0.76814 1.34658,1.22595 1.53427,1.78139 1.86105,3.74805 2.21756,5.95821 0.2558,5.56194 -1.48559,9.96309 -5.3769,14.01735 -3.66259,3.07752 -6.89252,2.86576 -12.13496,2.49371 -0.80564,-0.0572 -2.01393,-1.70805 -2.37021,-2.12134 -2.91472,-4.62815 -2.55546,-9.99842 -1.72873,-15.13825 1.23309,-4.20479 2.53705,-8.99705 6.23857,-11.88574 0.48079,-0.37507 1.04856,-0.63395 1.57282,-0.95098 3.90993,-1.30253 9.18984,-2.44677 11.4312,1.50416 0.62051,1.09372 0.87994,2.50891 1.17621,3.6901 0.35116,5.43249 -1.56477,10.00316 -4.51351,14.51108 -1.66421,1.85115 -3.71464,4.47705 -6.54791,4.62676 -8.25393,0.43595 -6.11697,1.70331 -9.33016,-0.80718 -3.32741,-3.99132 -2.82482,-8.92925 -1.74531,-13.6129 1.33749,-3.74954 3.10213,-8.10139 6.95757,-10.11336 0.53553,-0.27933 1.13771,-0.41922 1.70658,-0.62912 2.85115,-0.16361 5.69792,-0.55118 8.55343,-0.49095 0.49619,0.009 0.90189,0.41413 1.30048,0.69885 1.85435,1.32539 2.48836,3.39393 2.90191,5.45945 0.36556,4.03529 -1.24019,7.47203 -3.91887,10.46566 -3.39443,2.71063 -5.51669,2.36209 -10.66909,1.92073 -0.47484,-0.0419 -1.50721,-1.47306 -1.71716,-1.73556 -1.77934,-2.91416 -1.99211,-6.22085 -1.68671,-9.50516 0.86151,-3.91922 2.60584,-5.86692 6.65733,-6.73456 6.62122,-0.40715 10.75447,-1.7808 13.08151,4.37257 0.97668,2.57105 0.12268,4.99063 -1.48968,7.10286 -2.98257,2.85758 -8.1906,3.83701 -12.09011,2.11641 -2.25779,-1.81435 -2.08693,-4.72799 -1.65312,-7.27683 0.69888,-2.8173 2.43412,-5.00913 4.89228,-6.60913 0.84989,-0.45222 1.56959,-0.88219 2.49999,-1.18263 2.91919,-0.9426 8.2431,-0.81474 10.35532,-0.78598 0.27964,0.003 0.47981,0.27469 0.7201,0.41226 1.76519,1.65489 1.194,3.76651 0.34023,5.72178 -1.185,1.90507 -2.74858,3.3265 -4.934,4.03738 -6.80718,0.53988 -7.14548,1.85562 -9.56406,-2.81972 -0.90635,-2.22897 -1.34747,-4.57378 -0.94346,-6.94302 0.35712,-1.55529 1.07225,-2.93242 2.58229,-3.66114 2.73756,-0.70074 5.88566,-0.60816 8.56366,-0.76126 0.61724,-0.0372 0.47037,-0.0279 0.99573,0.21938 1.44769,0.50368 2.59544,1.56829 3.43097,2.78648 1.53765,2.37491 2.76671,4.95149 3.58679,7.63777 0.63994,2.44565 0.87417,4.96451 0.73506,7.47896 0.11225,1.22937 -0.23296,2.34084 -0.62738,3.47955 -0.42069,1.24197 -0.54367,2.54618 -0.94837,3.80749 -0.59822,1.75524 -1.40926,3.42067 -2.49109,4.94403 -1.1189,1.53631 -2.26287,3.06302 -3.49526,4.51762 -0.98285,1.278 -1.98885,2.54211 -3.1057,3.71506 -0.79381,0.75429 -1.6651,1.42557 -2.47207,2.16697 -0.52128,0.57842 -1.15118,0.97004 -1.88653,1.24073 -1.90838,0.64543 -1.84509,0.26864 -5.68635,-0.34254 -0.32135,-0.0511 0.35961,-0.52358 0.5345,-0.78863 0.92558,-1.13759 1.89327,-2.19194 2.60721,-3.46905 1.25052,-1.74408 2.20858,-3.65552 3.50683,-5.37455 0.98766,-1.18471 2.07929,-2.26007 3.33025,-3.18535 7.05254,-3.92857 6.0451,-0.723 5.57067,1.79892 -0.14206,0.9712 -0.62657,1.76467 -1.11725,2.59662 -0.7422,0.99156 -1.38581,2.06012 -2.03628,3.11499 -0.59439,1.17634 -1.54724,2.10869 -2.31055,3.16954 -0.59106,0.6901 -1.19707,1.26754 -2.10597,1.49779 -3.93396,0.71027 -13.27083,0.53742 -1.77322,0.19614 1.10166,-0.0326 -1.18863,0.33091 -1.71706,0.4776 -2.61934,0.80862 -4.99589,0.52032 -7.93496,0.60932 -1.11362,-0.39134 -2.21394,-0.66031 -3.32404,-1.06197 -1.42992,-0.46292 -2.43794,-1.46279 -3.51998,-2.40597 -1.62755,-1.50494 -2.36866,-3.34982 -2.84474,-5.42845 -0.59324,-2.08345 -0.0496,-4.07191 0.31739,-6.12418 0.40479,-1.75411 1.06385,-3.43953 1.33415,-5.21926 0.18229,-1.50587 0.29007,-3.01723 0.30398,-4.53353 0.55743,-0.75795 7.4e-4,-1.37597 0.0854,-2.08805 5.50609,-0.67862 6.15387,-1.49026 5.27985,2.00175 -0.82108,1.56314 -0.85744,3.31386 -1.0871,5.01276 -0.0889,1.96689 -0.47086,3.84663 -0.52261,5.82133 0.0199,1.68393 0.51133,3.32645 1.06564,4.91329 0.77076,1.64406 1.54827,3.29081 2.35241,4.92534 0.34719,1.02771 0.70576,1.98957 1.32567,2.89212 0.4495,0.17987 0.4202,0.469 0.36159,0.95126 -5.85159,3.86959 -4.86756,1.17556 -6.52778,-0.63112 -1.3965,-1.08962 -2.14099,-2.66498 -2.97573,-4.15014 -1.09256,-1.76503 -0.59776,-3.77933 -0.83195,-5.69742 0.0149,-1.65874 0.16987,-3.31395 0.20017,-4.9771 0.25729,-1.64369 -0.0745,-3.30657 0.25629,-4.9338 0.36905,-1.61152 0.6607,-3.24609 0.83802,-4.88708 0.0755,-1.18449 0.12913,-2.43594 0.62752,-3.5377 0.36357,-1.13884 0.87639,-2.17938 1.57514,-3.16007 1.15753,-1.23058 2.76919,-1.90196 4.20492,-2.7683 0.71817,-0.41876 1.22792,-1.08795 1.99466,-1.42087 1.93828,-0.67824 3.24025,-0.0999 5.92183,0.26911 0.28906,0.0419 -0.20713,0.5251 -0.30746,0.78873 -1.02044,1.89243 -1.93123,3.83241 -2.73963,5.81844 -0.94645,2.72653 -0.92524,5.60117 -1.16762,8.43394 -0.3904,2.05018 0.13758,4.06485 0.26722,6.10178 0.36904,0.89195 0.24635,2.15289 1.16464,2.68734 0.073,0.0326 0.16887,0.0372 0.21953,0.0953 0.89365,1.04863 -2.99732,0.7099 -5.63658,0.65544 -0.39487,-0.005 -0.4957,-0.59436 -0.70043,-0.9191 -1.34921,-2.11905 -2.08058,-4.57699 -2.65177,-6.98653 -0.33974,-2.26286 0.12069,-4.5015 0.31589,-6.74869 0.31292,-1.38467 1.05353,-2.59499 1.75917,-3.81875 0.74816,-1.28892 1.70469,-2.43171 2.42534,-3.73737 0.5464,-0.89451 1.07001,-1.74988 1.96987,-2.34698 0.27119,-0.38437 0.91003,-0.47905 1.11835,-0.89005 -0.37451,-0.34858 -0.77678,-0.83093 -1.22053,-1.14456 -0.2677,-0.26771 -0.34271,-0.27701 -0.62731,-0.0962 1.76603,-0.10643 3.52863,-0.30303 5.29804,-0.31883 0.12069,-10e-4 -0.16094,0.17475 -0.22451,0.27375 -0.10678,0.16778 -0.18974,0.34904 -0.2846,0.52343 -1.04295,1.37286 -1.79871,2.88413 -2.32987,4.49992 -0.76779,2.55497 -1.14323,5.19992 -1.60629,7.81732 -0.52366,2.32593 -1.22171,4.61788 -1.65627,6.96124 -0.39685,1.34488 -0.21555,2.72541 0.39537,3.98174 0.59822,1.21991 1.70275,2.08258 2.48757,3.18126 0.64441,0.65585 1.19513,1.39475 1.63639,2.19078 0.10431,-0.0665 0.0199,0.20775 0.0929,0.19241 2.57534,-0.54602 -6.71454,1.41558 -4.6117,-0.0479 0.35264,-0.56665 0.15744,-0.26213 0.58947,-0.91073 0,0 6.06874,0.005 6.06874,0.005 l 0,0 c -0.57328,0.64665 -0.30447,0.30536 -0.80398,1.02647 -1.69813,1.63108 -5.2382,2.12226 -6.89346,0.44989 -0.78482,-0.63581 -1.52424,-1.33451 -2.10685,-2.1513 -0.94868,-1.01819 -1.94117,-2.04953 -2.51896,-3.31387 -0.66129,-1.36309 -0.84532,-2.79823 -0.74126,-4.29472 0.17831,-2.34313 0.51238,-4.65512 1.06048,-6.94944 0.37401,-2.72522 1.12694,-5.35766 1.98397,-7.97473 0.77916,-1.65294 1.63352,-3.25628 2.84419,-4.6567 0.16839,-0.18452 0.34123,-0.36577 0.50494,-0.5541 0.13014,-0.14966 0.17731,-0.42295 0.37649,-0.4592 1.87102,-0.34068 5.04159,-1.74738 6.79824,-0.15663 0.34569,0.45734 0.98006,0.88456 0.94699,1.4884 0.20711,0.74532 -0.13312,1.15543 -0.82784,1.50556 -0.77355,0.55145 -1.22309,1.21436 -1.67314,2.03445 -0.4818,1.44723 -1.40033,2.61327 -2.28915,3.84804 -0.86886,1.05411 -1.46498,2.11859 -1.5522,3.49401 -0.10131,2.16929 -0.11077,4.36797 0.21755,6.51863 0.61013,2.32008 1.14482,4.658 1.78689,6.96873 0.0348,0.18544 0.0581,0.37368 0.10728,0.55592 0.0348,0.13014 0.28112,0.35183 0.14454,0.37786 -1.77651,0.33696 -3.60716,0.33557 -5.3939,0.61782 -0.18029,0.0279 0.10183,0.57507 -0.47285,0.0837 -0.98965,-0.75006 -1.47228,-1.94802 -1.77447,-3.09165 -0.47831,-2.02141 -0.93378,-4.11671 -0.90412,-6.18883 0.10182,-2.90221 0.11821,-5.88264 1.12982,-8.64527 0.89096,-2.15559 2.14286,-4.1703 3.72288,-5.9273 0.12616,-0.15106 0.26325,-0.29374 0.37798,-0.45223 0.0855,-0.11805 0.073,-0.36485 0.22252,-0.37554 11.30415,-0.80848 7.26945,-0.41133 5.38426,0.0139 -0.75308,0.24123 -1.01379,0.68467 -1.49603,1.2913 -1.2223,1.05657 -2.8138,1.62764 -4.08134,2.63091 -0.88629,0.8662 -1.55951,1.84372 -1.96475,2.99604 -0.47435,1.09051 -0.0561,2.16898 -0.23494,3.33971 -0.13163,1.66711 -0.33874,3.31004 -0.81184,4.92705 -0.19719,1.60906 -0.18675,3.2426 -0.18527,4.86101 -0.12019,1.62681 -0.30993,3.24948 -0.21606,4.88285 0.20414,1.84605 0.0576,3.77139 0.98474,5.46968 0.6595,1.43937 1.38879,2.83203 2.23993,4.17659 0.0849,0.19195 0.11274,0.40481 0.20363,0.59462 0.0199,0.0419 0.15547,0.0841 0.10877,0.0878 -11.49333,0.87769 -6.73206,0.0544 -4.99723,0.34627 0.23295,0.75196 -0.17235,0.2217 -0.62821,0.0326 -0.85088,-0.86341 -1.23661,-1.97237 -1.91524,-2.95551 -0.86727,-1.62858 -1.65988,-3.2857 -2.35515,-4.99167 -0.65911,-1.62337 -0.89101,-3.36465 -1.01484,-5.09674 -0.28112,-2.00012 0.0298,-3.92704 0.35762,-5.90434 0.11474,-1.79705 0.51661,-3.54913 1.32392,-5.18254 1.681,-3.11172 0.34322,-2.17097 6.40839,-2.55539 0.64386,0.55801 0.77945,1.31811 0.57591,2.11312 -0.0102,1.53567 0.0522,3.07984 -0.14851,4.60774 -0.2692,1.77893 -0.6148,3.53408 -1.26789,5.22661 -0.31491,1.95545 -0.56261,3.91541 -0.076,5.87152 0.42367,1.85725 0.93636,3.73486 2.3933,5.1072 0.98965,0.94308 1.98442,1.82035 3.36094,2.20444 0.97839,0.4025 2.01349,0.64874 2.98396,1.07424 -10.6964,0.78417 -5.52854,0.7462 -3.61481,0.0902 2.77541,-1.07159 4.47801,-0.49513 8.14139,-1.11984 1.74437,-0.29745 -3.5336,0.24819 -5.30027,0.37461 -0.18973,0.0139 0.37997,-0.0232 0.56971,-0.0372 1.10051,-0.0636 1.53382,-0.14361 2.13317,-1.06647 0.84289,-0.88777 1.29919,-2.11144 2.00136,-3.10127 0.73763,-1.08805 1.59119,-2.10294 2.36753,-3.16356 0.6502,-0.65882 1.01408,-1.46986 1.10328,-2.3705 0.96666,-3.00167 0.94238,-1.47966 6.20733,-1.83638 0.0397,-0.003 -0.0536,-0.0604 -0.0799,-0.0911 -0.79142,1.05178 -1.71735,1.99974 -2.45768,3.08393 -1.25811,1.78382 -2.39225,3.66053 -3.81148,5.33354 -0.87914,1.25583 -1.74408,2.49167 -2.9201,3.51562 -0.066,0.0813 -0.60883,0.82331 -0.8318,0.83619 -12.34327,0.71371 -7.42649,0.44758 -5.5873,-0.003 0.55981,-0.22076 1.16314,-0.49582 1.48028,-1.00558 0.70128,-0.82336 1.66113,-1.32471 2.34328,-2.13984 0.96626,-1.21715 1.87654,-2.46513 2.81329,-3.70659 1.21988,-1.45072 2.29377,-3.0111 3.47201,-4.49481 1.20904,-1.40582 1.8461,-3.08129 2.49895,-4.7755 0.60596,-1.22771 1.05556,-2.49669 1.4103,-3.81071 0.54456,-1.27543 0.48775,-1.81681 0.24983,-3.21281 -0.47484,-2.43524 -0.90075,-4.8855 -1.65105,-7.26228 -0.78163,-2.53378 -1.48231,-5.10655 -2.5654,-7.54026 -0.75267,-1.02679 -1.74591,-2.0334 -3.01599,-2.43125 -2.0331,-0.15337 -5.617,0.31373 4.20194,-0.3918 1.8452,-0.13246 -3.47727,-0.005 -1.88096,0.19474 -1.82776,0.39738 -1.7486,1.36598 -2.18265,2.97294 -0.0298,2.27309 0.30298,4.47394 1.01384,6.65245 0.19918,0.75071 0.35115,1.70693 1.00609,2.25561 0.5487,0.45966 1.35596,0.33138 1.19802,0.34858 -1.79856,0.19474 -3.60656,0.29653 -5.40984,0.44525 2.03657,-0.45037 3.21412,-1.88997 4.31091,-3.52779 0.87308,-1.47246 2.3703,-3.58357 0.29503,-4.73575 -2.66756,-0.60309 -1.19443,-0.17708 4.62865,-0.66807 0.38792,-0.0326 -0.77696,0.0539 -1.1628,0.10364 -1.43647,0.18406 -2.78428,0.56717 -4.04016,1.28283 -2.46935,1.28246 -3.94004,3.47858 -4.71984,6.05238 -0.4798,2.14978 -1.10132,4.91961 0.98975,6.45733 2.5354,0.82237 1.24669,0.28165 -4.55579,0.7732 -0.27467,0.0233 0.55322,-0.0419 0.81796,-0.11247 1.07249,-0.29561 1.98322,-0.90939 2.7522,-1.67018 1.53934,-1.93705 2.54488,-3.97993 1.6138,-6.41899 -0.59544,-1.05012 -1.14572,-2.19928 -2.18957,-2.92265 -1.31934,-0.91418 -2.92291,-0.92914 -2.62187,-1.00113 1.78814,-0.42806 3.66244,-0.39367 5.49368,-0.59022 -4.17239,0.46983 -5.4303,1.89238 -6.38965,5.83964 -0.4813,3.01933 -0.35315,6.20328 0.89319,9.05348 0.21357,0.28026 0.39487,0.58622 0.64148,0.84008 0.20861,0.21473 1.00977,0.4838 0.71314,0.55457 -1.78038,0.42434 -3.6515,0.3458 -5.46959,0.57963 -0.29106,0.0372 0.60089,0.0943 0.88133,0.009 0.6898,-0.20729 1.25786,-0.93554 1.70722,-1.39879 2.36295,-2.90258 3.97504,-6.10652 3.99879,-9.87628 -0.17781,-1.45405 -0.33874,-2.90839 -1.43722,-4.0417 -1.1172,-1.15255 -2.51325,-1.17453 -2.40248,-1.20056 1.79125,-0.42062 3.66735,-0.37043 5.50103,-0.5556 -0.4813,0.1492 -0.99437,0.22449 -1.44373,0.44712 -3.53285,1.75225 -4.33496,6.41057 -5.81618,9.5566 -1.13891,4.14623 -2.59833,8.97461 -0.0298,12.89677 2.63747,1.60836 1.56174,0.6387 -4.40265,1.35835 -0.41176,0.0497 0.84769,-0.0278 1.23099,-0.18033 1.77,-0.7073 2.86307,-2.53052 3.98672,-3.88646 2.52001,-4.32847 4.87744,-8.97098 5.15564,-14.00619 -0.10679,-1.37142 -0.0447,-2.17604 -0.57988,-3.43772 -0.17335,-0.40761 -0.38842,-0.81354 -0.69964,-1.13615 -0.2558,-0.26492 -1.31648,-0.48263 -0.95399,-0.57753 1.41029,-0.36904 8.30599,-1.06132 4.36708,-0.37787 -3.92662,2.74428 -4.72282,8.0287 -6.11105,12.2024 -0.92678,4.85292 -2.03713,9.89602 -0.0447,14.65288 0.27268,0.37646 0.47782,0.80834 0.81934,1.1288 0.2856,0.26864 1.40662,0.4936 1.02293,0.60077 -1.75927,0.49132 -3.63482,0.44293 -5.45554,0.63721 -0.36307,0.0372 0.74127,-0.0419 1.08219,-0.17011 1.00009,-0.37181 1.49399,-1.03877 2.22993,-1.7595 3.22164,-3.76409 4.74851,-8.57839 5.17477,-13.3971 -0.0561,-1.97981 -0.0447,-3.86797 -1.40569,-5.50259 -0.31639,-0.37926 -1.6041,-0.77501 -1.1383,-0.96381 1.71794,-0.69628 3.69496,-0.48862 5.52795,-0.81536 0.47185,-0.0841 -0.95792,0.0576 -1.43693,0.086 -0.48079,0.19474 -0.99954,0.31883 -1.44204,0.58431 -3.30794,1.98609 -5.00746,5.86284 -6.1425,9.25617 -0.863,4.08609 -1.71249,8.42028 -0.20861,12.46374 0.21358,0.32907 0.36507,0.70493 0.64162,0.98747 0.21805,0.22309 1.11646,0.42016 0.80692,0.4921 -1.78624,0.41505 -3.645,0.47055 -5.47818,0.59306 -0.32086,0.0186 0.63397,-0.14222 0.91758,-0.28816 1.11433,-0.57447 1.40613,-1.07889 2.2667,-2.00905 2.98351,-4.18238 4.83293,-8.93845 6.36805,-13.77306 0.74955,-3.93285 1.82046,-8.44406 -2.08689,-11.13303 -3.39045,-1.16324 -1.58295,-0.29932 3.96218,-1.14335 0.55013,-0.0841 -1.11933,-0.0372 -1.67046,0.0419 -1.84823,0.25981 -3.20762,1.13136 -4.31727,2.55394 -2.5356,4.31593 -3.1281,7.82862 -2.4314,12.76706 0.18428,0.94354 0.44405,2.62106 0.87025,3.54694 0.18229,0.39599 0.4217,0.78352 0.74846,1.08098 0.28412,0.25841 1.40872,0.442 1.03073,0.53756 -1.37751,0.34719 -8.4523,1.00104 -4.25483,0.36718 3.84124,-1.94691 6.19297,-5.54205 8.08808,-9.19529 1.54605,-3.34537 3.57631,-7.40854 0.58321,-10.5457 -0.41622,-0.24447 -0.7949,-0.56238 -1.24927,-0.73294 -0.4788,-0.17941 -2.01283,-0.20544 -1.50909,-0.30258 1.81361,-0.35045 3.67804,-0.44294 5.5276,-0.47435 0.54696,-0.009 -1.08159,0.20264 -1.58542,0.40761 -1.54148,0.62694 -2.07492,1.26372 -3.34674,2.33216 -0.48775,0.61554 -1.04281,1.18672 -1.4631,1.84675 -2.42394,3.80661 -3.37471,8.25341 -3.86589,12.62571 -0.11274,1.86148 -0.7122,7.03756 1.15242,8.38759 0.30298,0.21937 0.71107,0.25424 1.06655,0.38158 -1.85132,0.19521 -3.69632,0.45873 -5.55413,0.58516 -0.45994,0.0326 0.92031,-0.13201 1.34722,-0.29885 0.49569,-0.19382 0.96,-0.46562 1.38968,-0.77223 1.82459,-1.30212 2.99265,-3.18345 4.24104,-4.96233 1.97106,-3.15528 4.62392,-7.78227 4.58821,-11.56984 -0.004,-0.59379 -0.18228,-1.17458 -0.27368,-1.76192 -0.67361,-1.48022 -1.28816,-2.70816 -2.77867,-3.5891 -0.42964,-0.25377 -1.85474,-0.44804 -1.37673,-0.60239 1.74681,-0.5634 3.66219,-0.40948 5.4761,-0.71975 0.48526,-0.0832 -0.98583,0.0232 -1.4788,0.0372 -0.47682,0.15338 -0.99303,0.22124 -1.43046,0.45921 -3.04951,1.66106 -3.64436,5.59381 -4.1849,8.55087 -0.43212,3.84435 -0.58257,7.78589 2.22135,10.89599 0.28956,0.2468 0.54729,0.53254 0.868,0.74021 0.27914,0.18079 1.24133,0.34161 0.91327,0.41318 -1.77109,0.38577 -3.61501,0.34208 -5.41575,0.56787 -0.30001,0.0372 0.61365,0.0641 0.90849,-0.003 0.71151,-0.16081 1.49657,-0.82447 2.03002,-1.20177 3.0379,-3.01998 4.50438,-6.81493 5.55795,-10.84831 0.53926,-2.10856 2.04005,-6.43512 -0.90084,-7.68569 -0.43162,-0.18313 -0.92682,-0.17104 -1.39029,-0.25702 1.84113,-0.17105 3.67362,-0.51591 5.52329,-0.51368 0.52287,6.6e-4 -1.0126,0.28027 -1.47318,0.51856 -2.60425,1.34679 -4.1251,4.11509 -5.53908,6.47197 -1.87758,4.07781 -3.45973,8.39131 -3.03165,12.92856 0.28809,1.00666 0.4068,1.74049 0.98727,2.62687 0.20116,0.30675 0.44603,0.59436 0.73704,0.82461 0.24934,0.19706 1.1705,0.3681 0.85555,0.4355 -0.0249,0.003 -8.11232,0.8042 -4.53859,0.4513 3.16003,-1.73623 4.51276,-5.11469 5.96439,-8.16925 1.12251,-3.40616 2.48742,-6.99438 1.87743,-10.61778 -0.29503,-0.6262 -0.39188,-1.04366 -0.94997,-1.49031 -0.18725,-0.14966 -0.8833,-0.28909 -0.6439,-0.33231 1.80144,-0.32535 3.64694,-0.35556 5.46989,-0.5385 0.27864,-0.0279 -0.57581,-0.0232 -0.83697,0.0739 -0.30497,0.11387 -0.53732,0.3602 -0.80598,0.54048 -2.79685,2.84904 -4.49876,6.55759 -5.66414,10.27446 -0.73238,2.82152 -1.95522,6.22824 -0.51746,8.99119 0.64003,0.646 1.2396,1.23822 2.18663,1.44188 0.29106,0.0627 1.18823,0.0372 0.8919,0.0688 -9.07093,0.99347 -6.55977,0.61383 -4.48555,0.28026 2.2204,-1.23709 3.19188,-3.56837 4.0434,-5.80576 0.86871,-3.06357 1.77348,-6.2506 1.10782,-9.43325 -0.11723,-0.49113 -0.33477,-1.51485 -0.54751,-2.03484 -0.0576,-0.14083 -0.39784,-0.36206 -0.24337,-0.38856 1.75589,-0.29931 3.55107,-0.31929 5.32664,-0.47853 -0.36854,-0.0837 -0.17782,-0.10644 -0.53945,0.19428 -0.83364,1.93096 -1.91887,3.73207 -2.91716,5.58527 -1.26075,2.21196 -2.46249,4.52535 -2.63643,7.08818 0.21606,1.5708 1.82842,1.3187 3.16277,1.43211 -11.1085,0.74996 -4.4089,0.52111 -2.12652,-0.11573 0.87815,-0.24494 1.15202,-0.48081 1.92357,-0.94229 2.35432,-2.08499 3.55899,-4.87802 4.59349,-7.7442 1.20347,-2.83129 2.37178,-5.70119 2.5946,-8.78633 0.40928,-3.83911 -3.15437,-2.59773 4.9147,-3.093 -0.68703,0.68764 -0.89554,1.47074 -0.99597,2.41029 -0.13857,1.41905 0.086,2.78731 0.42666,4.17574 -5.72529,0.70386 -6.10417,2.11055 -4.93948,-1.50319 1.89139,-4.29886 1.28911,-3.49474 7.71657,-3.69242 0.0834,-0.003 -0.0964,0.132 -0.14503,0.198 -1.19231,2.26867 -2.36897,4.54338 -3.56971,6.8068 -1.05065,1.96424 -2.02188,3.92071 -3.26891,5.77421 -0.19123,0.28444 -0.19868,0.80029 -0.54288,0.87215 -1.98627,0.41457 -4.04956,0.33928 -6.07431,0.50902 -0.0665,-1.77647 1.01994,-3.48978 1.38437,-5.18506 0.33377,-1.07349 2.42702,-6.73303 3.54467,-7.002 1.94097,-0.46705 3.97158,-0.47002 5.95735,-0.70502 0.11274,0.065 0.29056,0.0777 0.33923,0.19521 0.32037,0.77069 -2.31998,5.02141 -2.67373,5.79841 -1.48123,2.73949 -2.78657,5.56836 -4.41666,8.23116 -6.14628,0.71733 -6.95156,1.96252 -5.11704,-2.87729 1.23402,-2.7731 2.40402,-5.59801 4.71482,-7.74031 0,0 5.86352,-0.0232 5.86352,-0.0232 z"
       id="path3116-0"
       style="fill:#000000;fill-opacity:1" />
    <path
       d="m 187.50358,381.29915 c -0.97529,1.41691 -2.47222,2.3177 -3.78204,3.41122 -0.73758,0.6004 -1.56442,1.20364 -2.50157,1.47734 -2.4146,0.25424 -5.43492,1.31067 -7.69401,0.0558 -0.80638,-0.31977 -1.66332,-0.44618 -2.51365,-0.61188 -2.63299,0.21659 8.69137,-1.67403 3.61024,0.26306 -0.74882,0.21101 -0.8936,0.60003 -0.81418,-0.39691 0.32137,-0.0465 0.64733,-0.0279 0.97113,-0.0419 -8.12301,2.67018 -6.23867,0.57678 -4.20248,-0.30443 0,0 5.69608,0.28258 5.69608,0.28258 l 0,0 c -2.48285,1.10659 -2.30355,1.31801 -6.93805,1.19657 -0.28908,-0.0186 -0.58973,0.0326 -0.86788,-0.059 -0.15297,-0.83729 -0.20314,-0.67932 0.44206,-0.97264 2.38426,-1.05857 4.88474,-1.84758 7.69987,-1.07861 0.9158,0.11759 1.82136,0.30722 2.62848,0.76196 0.35911,0.14501 0.57865,0.18824 0.96577,0.16964 0.11424,-0.005 0.45595,-0.0278 0.34222,-0.0186 -5.6412,0.41643 -7.00973,0.5481 -5.0253,0.35973 0.86081,-0.11248 1.39405,-0.59561 2.03667,-1.16422 1.12589,-1.35924 2.64079,-2.28298 3.99417,-3.41755 0,0 5.95277,0.0902 5.95277,0.0902 z"
       id="path3118-7"
       style="fill:#000000;fill-opacity:1" />
    <path
       d="m 172.06951,356.75669 c 10.15586,-0.94312 4.38934,-0.27375 2.03057,0.69154 -1.37146,0.73013 -2.25462,2.06468 -3.37098,3.09928 -1.20184,0.81959 -2.02213,1.57104 -2.37124,2.94324 -0.4669,1.30352 -0.66874,2.66657 -1.12178,3.98249 -1.012,1.94194 -2.14997,3.79783 -3.09179,5.77797 -0.69874,1.65442 -0.57124,3.44892 -0.73013,5.18989 -0.22103,1.62579 0.62851,2.95248 1.20283,4.40222 0.62478,1.10482 1.26507,2.16516 2.04671,3.17331 0.30645,0.34347 0.50305,0.75754 0.59389,1.2002 0.0149,0.0716 -0.0348,0.24447 0.0298,0.21612 0.0904,-0.0372 0.0641,-0.17848 0.0959,-0.26818 -1.76706,0.10411 -3.53325,0.22216 -5.30116,0.3114 -0.22203,0.009 0.45298,-0.15198 0.27317,0.0419 -0.0641,0.0688 -0.27566,-0.50502 -0.28361,-0.52706 -0.22748,-0.55899 -0.33029,-1.07744 -0.14651,-1.65358 0.27218,-0.0186 0.0199,-0.37321 0.28957,-0.53984 1.93088,-0.13432 3.86171,-0.26864 5.79258,-0.40296 0.88803,-0.11294 1.58692,0.23332 2.38555,0.56438 0.63536,0.1808 1.29835,0.23842 1.95621,0.28444 0.2856,0.0186 1.14363,0.0232 0.85803,0.0469 -7.93933,0.6076 -6.71191,0.47179 -4.47189,0.18591 2.19348,-0.60464 4.18614,-1.7293 6.04362,-2.98044 1.31741,-1.03812 0.66571,-0.52091 1.95532,-1.55142 0,0 6.6895,0.14641 6.6895,0.14641 l 0,0 c -1.1924,1.04421 -0.58689,0.50354 -1.81485,1.62379 -2.03742,1.36691 -4.21759,2.55738 -6.6168,3.22666 -3.3666,0.70335 -7.10081,1.24714 -10.38374,0.0326 -0.71244,-0.27051 -1.34135,-0.485 -2.12433,-0.37229 1.74343,-0.12735 3.4883,-0.23796 5.23029,-0.38204 0.0566,-0.003 -0.13461,0.005 -0.1659,-0.0372 -0.0785,-0.11248 -0.0849,-0.25842 -0.12963,-0.38716 -0.0566,-0.16267 0.2091,0.63014 0.083,0.50892 -0.13311,-0.0326 0.0705,0.95062 0.18626,1.15479 1.09858,2.80948 -3.46277,1.83861 -5.72816,1.78665 -0.37054,-0.49661 -0.58312,-1.1057 -1.13156,-1.45852 -1.04002,-0.93159 -1.74109,-2.11422 -2.3853,-3.32195 -0.77176,-1.45367 -1.42212,-2.99572 -1.33361,-4.65905 -0.079,-1.80864 0.13808,-3.62401 0.58078,-5.38314 0.60541,-2.16671 1.79722,-3.98445 3.13068,-5.80344 0.64515,-1.27289 1.13751,-2.59192 1.55756,-3.94758 0.52789,-1.27131 0.50926,-2.49582 1.99018,-3.22272 1.14766,-1.15404 2.40001,-2.23795 3.59624,-3.32549 3.16902,-1.26948 6.09556,-1.58451 9.74286,-1.58288 0,0 -5.63892,1.21297 -5.63892,1.21297 z"
       id="path3120-7"
       style="fill:#000000;fill-opacity:1" />
    <path
       d="m 183.5112,382.11018 c 0.26324,1.15716 -0.14652,2.27796 -0.53319,3.36234 -0.26823,0.62861 -0.45348,1.33344 -1.09958,1.6869 -2.38446,1.06244 -4.92954,0.67179 -7.16693,-0.19799 -0.51635,-0.28444 -1.10235,-0.28398 -1.68015,-0.34533 -0.32036,-0.0419 -0.64117,10e-4 -0.96313,0.002 -0.0973,-0.7719 0.29951,-1.27023 0.72497,-1.93583 1.08124,-1.47921 1.58916,-3.08004 1.91076,-4.83671 0.376,-2.6945 0.84522,-5.37138 1.03307,-8.08642 0.27069,-2.81743 -0.27169,-5.63022 -0.28113,-8.4522 -0.10679,-1.21879 0.21457,-2.45472 0.14951,-3.66495 0.0517,-0.60635 -0.0102,-1.20019 0.0745,-1.80557 0.0298,-0.24029 -0.7056,-0.62638 -1.10911,-0.81786 -0.49743,-0.10551 -0.94892,-0.68337 -0.40431,-1.0689 5.95437,-0.20264 5.90485,-1.15753 6.35589,3.08626 0.18576,1.99189 0.68553,3.93977 0.93914,5.92813 0.0561,1.90568 0.26473,3.71854 0.6895,5.57696 0.45397,1.76629 0.44454,3.5772 0.52495,5.38048 0.079,1.48897 -0.24337,2.88841 -0.72382,4.29236 -0.18825,1.26898 -0.54442,2.49088 -0.88441,3.72988 -0.21258,1.03766 -0.64057,1.90275 -1.17666,2.80702 -0.24635,0.40669 -0.50965,0.80365 -0.79231,1.18779 -1.40975,1.5511 -4.58469,1.49262 -6.03696,0.0883 -0.25977,-0.2454 -0.40282,-0.49894 -0.51367,-0.82511 -0.0681,-0.35649 -0.0447,-0.14316 -0.0102,-0.64363 0,0 5.72857,-0.15523 5.72857,-0.15523 l 0,0 c -0.2414,0.2296 -0.20067,0.0999 -0.20017,0.35741 0.0919,0.0976 0.39984,0.36532 0.57333,0.50545 1.68413,1.64819 -4.93898,2.63458 -4.99426,0.80332 0.0625,-0.43829 0.19868,-0.86058 0.40729,-1.25686 0.50846,-0.85546 0.81759,-1.66715 0.95071,-2.66512 0.39338,-1.21679 0.59096,-2.47043 0.88153,-3.71259 0.25926,-1.36928 0.79514,-2.69737 0.49022,-4.10872 -0.0581,-1.76741 -0.31688,-3.52445 -0.58674,-5.2722 -0.38641,-1.86199 -0.81347,-3.70826 -0.85837,-5.61733 -0.25182,-1.99557 -0.75527,-3.9791 -0.71797,-5.99424 0.10029,-4.04104 -0.89612,-2.81408 5.42131,-3.07947 -0.53756,-0.1557 -0.24436,-0.95986 0.60399,-0.26306 0.50174,0.32534 0.94156,0.80644 1.04518,1.40014 0.082,0.59519 0.0102,1.17989 0.0959,1.77307 0.0249,1.19397 0.58819,2.38333 0.73769,3.56573 0.58818,2.80604 0.95687,5.69287 0.6976,8.55524 -0.33676,2.75613 -0.84656,5.46726 -1.44214,8.17896 -0.46937,1.92961 -1.20829,3.65398 -2.59754,5.14591 -0.34469,0.31419 -0.72045,0.65246 -1.03157,0.99746 -0.0557,0.0613 -0.0561,0.26074 -0.12467,0.21287 -0.14602,-0.10365 -0.20016,-0.30025 -0.2389,-0.47044 -0.0102,-0.0419 0.0854,-0.009 0.12814,-0.0139 0.33874,-0.003 0.67222,0.0326 1.01056,0.0465 0.66637,0.0572 1.28876,0.21705 1.90098,0.48202 3.76669,1.74579 -6.32767,0.82656 -4.12585,0.8848 0.83091,-0.15756 0.52893,-0.41738 0.69363,-1.1831 0.25928,-1.08079 0.75457,-2.09159 0.75695,-3.21434 0,0 5.76666,-0.34905 5.76666,-0.34905 z"
       id="path3122-7"
       style="fill:#000000;fill-opacity:1" />
    <path
       d="m 292.57144,295.55753 a 3.7317784,4.4781342 0 1 1 -0.0417,-0.66796"
       transform="matrix(1.2913739,0,0,1.0356225,-199.33314,58.82418)"
       id="path3124-1"
       style="fill:#ffffff;fill-opacity:1" />
    <path
       d="m 174.16141,344.96252 c 1.84903,-0.77417 3.71654,-1.24594 5.70915,-1.52705 1.64798,-0.30977 3.27367,-0.39488 4.85636,0.20771 0.8564,0.41152 1.77978,0.61033 2.59283,1.10847 0.72072,0.42007 1.02172,1.15046 1.3576,1.84508 0.0485,0.34356 0.46418,0.0358 0.93345,1.02157 0.49964,0.35703 0.91549,1.02157 1.37836,1.51976 0.18698,0.57421 0.29963,0.91194 0.73041,1.30962 0.0815,0.0563 0.13266,0.14902 0.18274,0.23455 0,0 -5.61949,10.48554 -5.61949,10.48554 l 0,0 c -0.27865,-0.0279 -0.56173,-0.0149 -0.8364,-0.0817 -0.73769,-0.21271 -1.47252,-0.65185 -1.58461,-1.47176 0.0204,-0.61412 -0.97798,-1.02228 -1.09844,-1.701 -0.33841,-0.36906 -0.50754,-1.17818 -0.75566,-1.06845 -0.36772,-0.22655 -0.8055,-0.58732 -1.09684,-1.04017 -0.78955,-0.19187 -1.43878,-1.00307 -2.16151,-0.78318 -1.71198,0.55757 -3.452,0.85943 -5.25276,0.92767 -1.75523,0.3144 -3.5833,0.98507 -5.35369,0.38033 0,0 6.0185,-11.36696 6.0185,-11.36696 z"
       id="path3505"
       style="fill:#000000;fill-opacity:1" />
    <path
       d="m 172.73003,389.54726 c -0.76692,0.7475 -1.7032,1.24686 -2.7741,1.34094 -0.61717,0.012 -1.18183,-0.25303 -1.59195,-0.70122 0,0 4.6583,-7.50479 4.6583,-7.50479 l 0,0 c 0.52273,0.27862 0.38104,0.38538 0.90975,-0.0236 0.85656,-0.53759 1.72648,-1.08293 2.63434,-1.51731 0,0 -3.83634,8.40602 -3.83634,8.40602 z"
       id="path3507"
       style="fill:#000000;fill-opacity:1" />
    <path
       d="m 170.13722,377.54547 c 1.36506,-0.0385 2.59988,0.24918 3.80947,0.87616 0.99938,0.43202 2.10011,0.49932 3.07402,0.99296 0.63986,0.62473 1.31293,0.63669 2.17391,0.59323 0.66387,0.0698 1.2303,0.18331 1.86555,0.25644 0.23926,0.14667 0.49686,-0.12834 0.74455,-0.0256 0.24433,0.10138 -0.1952,0.30996 0.17991,0.15466 0.17517,-0.0477 0.33266,-0.001 0.49517,0.0553 2.3716,1.76373 5.42999,-9.58599 -4.20371,7.65456 -0.0611,-0.008 -0.15552,-0.0795 -0.18321,-0.0245 -0.0362,0.072 0.0375,0.29582 0.0809,0.22789 1.48191,-2.43762 2.96382,-4.87524 4.44573,-7.31286 -0.12198,0.0715 -0.0905,0.0688 -0.0247,0.21636 2.28438,2.60861 -1.50637,7.82575 -4.6998,8.62147 -0.18838,0.36668 -0.47531,0.66441 -0.74503,0.97094 -0.21661,-0.0722 -0.4305,0.0852 -0.64499,0.0603 -2.83243,-0.32883 2.87317,-4.92928 4.43639,-7.31405 0.065,-0.0992 0.24556,0.19737 0.18886,0.30155 -1.41267,2.59579 -3.00516,5.08961 -4.50774,7.63441 -0.34359,0.33073 -0.81938,0.24749 -1.15207,0.27248 -0.53963,0.0687 -1.08093,0.15594 -1.62904,0.15392 -0.62394,-0.11146 -0.93215,-0.007 -1.2558,0.48802 -0.54818,-0.37677 -1.21801,-0.21385 -1.82428,-0.41899 -0.40107,-0.15648 -0.70622,-0.12499 -1.13801,-0.20999 -0.49867,-0.0281 -0.71287,0.08 -1.20378,-0.21722 -0.33551,-0.24941 -0.47333,-0.60131 -0.55133,-0.99452 -0.1229,-0.14974 0.1499,0.15611 -0.20934,-0.0944 0,0 4.79402,-7.46769 4.79402,-7.46769 l 0,0 c 0.12815,0.2041 0.25349,0.3958 0.35028,0.61992 0.0766,0.13746 0.16971,0.27347 0.19591,0.43088 0.23913,-0.0631 0.49989,0.065 0.74183,0.0137 0.49546,-0.0446 0.90573,0.0317 1.38939,0.0615 0.46933,0.0457 1.18507,0.61322 1.01204,0.14971 0.61441,-0.42441 1.22793,-0.35191 1.92855,-0.34427 0.43295,5.3e-4 0.88368,0.0907 1.29508,0.088 0.30917,-0.21779 0.45831,-0.28923 0.57036,-0.66826 -1.43411,2.43766 -2.94299,4.83286 -4.30234,7.31299 -0.0496,0.0906 0.25491,0.0617 0.30865,-0.0265 1.50266,-2.46555 2.83027,-5.03401 4.29282,-7.52357 0.0598,-0.10173 0.27476,-0.0597 0.30901,-0.17263 0.0122,-0.0401 -0.0435,-0.0717 -0.0653,-0.10754 0.3095,-0.42142 0.62611,-0.9065 1.1439,-1.07311 0.024,-0.22226 -0.007,-0.10548 0.11423,-0.34367 -1.45433,2.44234 -2.90866,4.88469 -4.36299,7.32704 -0.0445,0.0767 0.1209,-0.14776 0.2076,-0.16646 0.1404,-0.0303 0.28852,0.0542 0.42991,0.029 0.051,-0.009 -0.088,-0.0548 -0.13194,-0.0822 -2.7369,-2.27198 1.14376,-8.43126 4.53891,-8.24188 -6.10629,12.20033 -1.18052,6.48498 -3.90108,7.65452 -0.17853,0.0515 -0.36338,0.10146 -0.54948,0.0579 -0.26771,0.0421 -0.69197,0.23375 -1.07356,0.1415 -0.73091,0.0741 -1.41976,0.17553 -2.17156,0.13715 -0.83589,-0.197 -1.60358,-0.48855 -2.43832,-0.68279 -1.05923,-0.31011 -2.12989,-0.42699 -3.20136,-0.71555 -1.20021,-0.2827 -2.45568,-0.69762 -3.47763,-1.39578 0,0 4.5314,-7.93039 4.5314,-7.93039 z"
       id="path3509"
       style="fill:#000000;fill-opacity:1" />
  </g>
</svg>
