<?xml version="1.0" encoding="UTF-8" standalone="no"?>
<!-- Created with Inkscape (http://www.inkscape.org/) -->

<svg
   xmlns:dc="http://purl.org/dc/elements/1.1/"
   xmlns:cc="http://creativecommons.org/ns#"
   xmlns:rdf="http://www.w3.org/1999/02/22-rdf-syntax-ns#"
   xmlns:svg="http://www.w3.org/2000/svg"
   xmlns="http://www.w3.org/2000/svg"
   xmlns:sodipodi="http://sodipodi.sourceforge.net/DTD/sodipodi-0.dtd"
   xmlns:inkscape="http://www.inkscape.org/namespaces/inkscape"
   version="1.1"
   width="236.36449"
   height="227.05879"
   id="svg3607"
   inkscape:version="0.48.3.1 r9886"
   sodipodi:docname="ping3.svg">
  <sodipodi:namedview
     pagecolor="#ffffff"
     bordercolor="#666666"
     borderopacity="1"
     objecttolerance="10"
     gridtolerance="10"
     guidetolerance="10"
     inkscape:pageopacity="0"
     inkscape:pageshadow="2"
     inkscape:window-width="943"
     inkscape:window-height="606"
     id="namedview25"
     showgrid="false"
     inkscape:zoom="2.0215029"
     inkscape:cx="118.18224"
     inkscape:cy="46.138311"
     inkscape:window-x="448"
     inkscape:window-y="107"
     inkscape:window-maximized="0"
     inkscape:current-layer="layer1" />
  <defs
     id="defs3609" />
  <metadata
     id="metadata3612">
    <rdf:RDF>
      <cc:Work
         rdf:about="">
        <dc:format>image/svg+xml</dc:format>
        <dc:type
           rdf:resource="http://purl.org/dc/dcmitype/StillImage" />
        <dc:title></dc:title>
      </cc:Work>
    </rdf:RDF>
  </metadata>
  <g
     transform="translate(-90.389188,-261.68993)"
     id="layer1">
    <path
       d="m 146.964,457.64221 a 22.5,22.5 0 1 1 -0.2517,-3.35606"
       id="path3513"
       style="fill:#99ff55;fill-opacity:1"
       inkscape:export-filename="/home/sade/Desktop/screw-comps/images/troops/ping.png"
       inkscape:export-xdpi="90"
       inkscape:export-ydpi="90"
       inkscape:connector-curvature="0" />
    <path
       d="m 107.41542,454.45073 c 0.0337,0.30196 0.12262,0.59367 0.1898,0.88987 0.0907,0.38435 0.0909,0.77612 0.0929,1.16743 0.0606,0.30698 0.12765,0.61364 0.15541,0.9256 0.002,0.17309 -0.005,0.34563 0.0666,0.50611 0.0889,0.22107 0.12936,0.45083 0.23559,0.66484 0.10894,0.13749 0.0809,0.33551 0.18612,0.4693 0.0176,0.0817 0.008,0.20602 0.0773,0.27017 0.12299,0.11375 0.0125,-0.0548 0.087,0.0727 0.12352,0.12501 0.23071,0.25987 0.35043,0.39027 0.15488,0.13113 0.31285,0.26158 0.45027,0.41086 0.16794,0.12278 0.28712,0.27396 0.34754,0.47019 0.035,0.19182 0.20485,0.25613 0.32787,0.38773 0.13324,0.0756 0.23735,0.20831 0.31879,0.33831 0.16153,0.0217 0.14408,0.17273 0.21633,0.26678 0.0437,0.0939 0.1357,0.14178 0.215,0.20933 0.0565,0.0829 0.12262,0.13162 0.2021,0.19854 0.0936,0.0869 0.12111,0.23661 0.13413,0.35783 0.10362,0.1338 0.10812,0.27291 0.0404,0.42217 -0.0436,0.0608 -0.044,0.12874 -0.0336,0.20159 0.0196,0.1746 -0.0266,0.30423 -0.11183,0.45573 -0.13815,0.12389 -0.23159,0.27847 -0.33749,0.42743 -0.11549,0.11299 -0.16464,0.25415 -0.23765,0.39156 -0.0915,0.12888 -0.18992,0.24354 -0.30159,0.35511 -0.12478,0.11244 -0.12453,0.24803 -0.14063,0.40175 -0.0597,0.14555 -0.11343,0.27843 -0.0681,0.43253 0.0335,0.16741 0.0683,0.3383 0.0298,0.50595 -0.0635,0.13484 -0.0453,0.28169 -0.0778,0.42693 -0.0983,0.15899 -0.0568,0.24314 -9.6e-4,0.40666 0.1287,0.15609 0.27346,0.287 0.32512,0.48306 0.0373,0.13673 0.12897,0.29516 0.22081,0.41097 0.10272,0.15324 0.27179,0.22746 0.43131,0.31918 0.11047,0.18704 0.30355,0.23258 0.46823,0.34554 0.20909,0.10331 0.4131,0.21195 0.62325,0.31296 0.16643,0.11666 0.36762,0.10024 0.55471,0.15685 0.19981,0.0578 0.39947,0.15483 0.60803,0.17659 0.15963,0.0643 0.31682,0.14468 0.49181,0.19455 0.18831,0.0313 0.35883,0.11607 0.53015,0.20294 0.15538,0.0485 0.31349,0.0574 0.47457,0.0679 0.20585,-0.0164 0.39048,0.0862 0.58211,0.1501 0.19146,0.033 0.33597,0.14868 0.50961,0.22909 0.16306,0.0455 0.31133,0.0702 0.46109,0.1574 0.0566,0.09 0.16989,0.0686 0.24603,0.1146 0.025,0.0153 0.042,0.0404 0.0632,0.0608 0.0277,0.0144 0.0555,0.0285 0.0832,0.0428 0.15017,0.084 0.28853,0.18257 0.40825,0.30496 0.11882,0.051 0.28254,0.2007 0.37979,0.29256 0.0738,0.13756 0.19401,0.19125 0.29094,0.30634 0.10936,0.12098 0.22485,0.23019 0.30032,0.37714 0.0876,0.11899 0.13178,0.27461 0.20189,0.41399 0.0766,0.17282 0.22454,0.31614 0.34319,0.46684 0.13572,0.0831 0.10564,0.31919 0.21658,0.39819 0.13113,0.0973 0.12721,0.28547 0.22781,0.39434 0.12482,0.1188 0.16426,0.27941 0.26351,0.40967 0.097,0.0721 0.0988,0.22578 0.1911,0.28812 0.1424,0.0893 0.28065,0.1791 0.36985,0.32194 0.056,0.13458 0.21211,0.19915 0.32431,0.28701 0.12022,0.0898 0.15008,0.22212 0.26622,0.31217 0.13244,0.0579 0.006,0.1387 0.0982,0.0796 0.11561,-0.0254 0.23862,-0.0201 0.35717,-0.0194 0.0292,-4.7e-4 0.0586,-7.1e-4 0.0878,-0.002 -0.38033,0.0228 -0.76014,0.0567 -1.141,0.0686 -0.0304,4.7e-4 0.056,-0.0242 0.0841,-0.0356 0.0995,-0.0406 0.19723,-0.0772 0.30085,-0.10628 0.20078,-0.0327 0.3756,-0.1225 0.54544,-0.22711 0.11238,-0.0864 0.20578,-0.18597 0.32888,-0.25664 0.0984,-0.11101 0.21512,-0.19024 0.35983,-0.23084 0.13385,-0.0544 0.24836,-0.14187 0.3815,-0.20469 0.17607,-0.0684 0.32607,-0.17443 0.46204,-0.30183 0.13077,-0.1087 0.27992,-0.15829 0.44435,-0.19097 0.14668,-0.011 0.17443,-0.0559 0.2422,-0.15368 0.0904,-0.1211 0.23133,-0.1946 0.34937,-0.28726 0.11539,-0.12614 0.25846,-0.17242 0.41667,-0.21996 0.12681,-0.0294 0.22086,-0.13582 0.31004,-0.2237 0.13221,-0.15361 0.32482,-0.19214 0.51283,-0.24181 0.20475,-0.10332 0.43675,-0.13398 0.63655,-0.24462 0.1744,-0.10551 0.37198,-0.14878 0.56666,-0.20176 0.17812,-0.1031 0.35814,-0.17468 0.56311,-0.2057 0.78567,-0.0736 2.91795,-0.18094 0.4899,-0.0397 0.15998,-0.069 0.31848,-0.13114 0.4866,-0.1787 0.56054,-0.077 1.12853,-0.11294 1.69474,-0.1143 0.1889,-7.1e-4 0.37947,-0.007 0.56696,0.007 0.24029,-0.0232 0.46909,0.0442 0.69958,0.10497 0.32795,0.0814 0.66943,0.0654 0.99767,0.13556 0.25239,0.0646 0.50455,0.15045 0.76203,0.1891 0.16083,0.0179 0.26729,-4.7e-4 0.3821,0.12242 0.1928,0.0758 0.40683,0.0945 0.61327,0.10441 0.21845,0.0419 0.40946,0.15234 0.63745,0.18531 0.5043,0.0972 1.53709,-0.004 -0.61,0.11704 0.18585,-0.0772 0.3811,-0.13392 0.56029,-0.22607 0.24224,-0.0889 0.45981,-0.21132 0.666,-0.36289 0.19233,-0.12088 0.39555,-0.22028 0.58071,-0.35194 0.16238,-0.0569 0.27748,-0.17522 0.41866,-0.26499 0.11895,-0.0885 0.21712,-0.19441 0.33001,-0.28874 0.13105,-0.06 0.21484,-0.16696 0.30905,-0.26748 0.10722,-0.0939 0.0802,-0.25165 0.11837,-0.38332 0.0397,-0.17671 0.10924,-0.34019 0.20281,-0.49761 0.0453,-0.14019 0.0101,-0.28006 0.0421,-0.42603 0.0425,-0.13334 0.0448,-0.27406 0.0552,-0.41227 0.0137,-0.14741 0.002,-0.29602 0.006,-0.44405 0.002,-0.17022 -0.002,-0.34251 -0.0159,-0.51288 0.0189,-0.18792 -4.8e-4,-0.37563 0.006,-0.56368 -4.9e-4,-0.1414 0.0584,-0.26088 0.1338,-0.37733 -0.0416,-0.13117 -0.0825,-0.26253 -0.0941,-0.39983 -0.0237,-0.15006 -0.0356,-0.30549 -0.0239,-0.45746 -0.0166,-0.1495 -0.007,-0.30629 0.0589,-0.44296 0.0781,-0.10046 0.1464,-0.20529 0.15184,-0.3344 0.007,-0.1593 0.0197,-0.29939 0.0724,-0.45153 0.12566,-0.23251 0.30805,-0.4228 0.47058,-0.62902 0.14909,-0.16652 0.327,-0.3042 0.49462,-0.4519 0.11862,-0.11861 0.2216,-0.25292 0.33947,-0.37348 0.13866,-0.11457 0.25561,-0.24625 0.35302,-0.39583 0.11274,-0.12864 0.23406,-0.25926 0.3649,-0.37165 0.0999,-0.14307 0.25804,-0.22415 0.36267,-0.36121 0.10396,-0.16646 0.26245,-0.28203 0.3921,-0.4265 0.0748,-0.18757 0.14638,-0.36872 0.22882,-0.55421 0.0928,-0.13541 0.11036,-0.29793 0.20305,-0.4304 0.10745,-0.10067 0.13882,-0.24692 0.21432,-0.367 0.10396,-0.11891 0.1429,-0.2632 0.16919,-0.41265 0.0625,-0.19491 0.18286,-0.35998 0.28185,-0.53645 0.12802,-0.19143 0.2708,-0.36806 0.36142,-0.57931 0.0497,-0.16944 0.15267,-0.31021 0.22323,-0.47061 0.0486,-0.19358 0.20595,-0.32379 0.31129,-0.4856 0.11058,-0.11413 0.16247,-0.25161 0.19388,-0.40139 -0.023,-0.18409 0.0721,-0.32964 0.15543,-0.48504 0.0715,-0.13657 0.077,-0.29395 0.14702,-0.43271 0.12303,-0.13069 0.0999,-0.19626 0.0853,-0.35282 0.0213,-0.18177 0.031,-0.36397 0.0665,-0.54403 -0.003,-0.18176 0.0238,-0.36406 0.0137,-0.54531 0.002,-0.17826 -0.002,-0.35623 0.003,-0.53441 0.0124,-0.18756 -0.0591,-0.35993 -0.08,-0.54359 0.0294,-0.19855 0.0623,-0.21721 -0.0273,-0.38481 -0.0698,-0.11449 -0.0435,-0.24647 -0.15897,-0.31918 -0.12189,-0.0924 -0.0321,-0.22149 -0.15665,-0.29372 -0.13876,-0.0994 -0.18421,-0.24914 -0.23172,-0.40216 -0.0125,-0.14065 -0.0598,-0.30803 -0.1929,-0.38197 -0.13291,-0.0478 -0.20093,-0.14768 -0.24404,-0.27543 -0.0197,-0.0863 -0.11228,-0.13344 -0.1714,-0.20748 -0.12581,-0.0535 -0.26381,-0.12063 -0.38657,-0.19724 -0.0829,-0.12281 -0.17047,-0.24549 -0.32824,-0.26815 -0.12939,-0.12262 -0.29713,-0.17827 -0.45046,-0.26643 -0.12743,-0.11338 -0.27394,-0.16787 -0.39086,-0.28958 -0.18815,-0.0648 -0.32676,-0.21882 -0.50866,-0.28824 -0.13907,-0.11827 -0.28184,-0.24439 -0.46859,-0.27615 -0.15773,-0.0359 -0.31128,-0.006 -0.45915,-0.0728 -0.17037,-0.0999 -0.36971,-0.12425 -0.56133,-0.16114 -0.19361,0.01 -0.34208,-0.0431 -0.50013,-0.1483 -0.1451,-0.0607 -0.2936,-0.0756 -0.44827,-0.0916 -0.20428,-0.002 -0.40836,0.006 -0.61266,7.1e-4 -0.15055,-0.0914 -0.30758,-0.15997 -0.47832,-0.20092 -0.19426,0.0146 -0.31367,-0.11015 -0.47722,-0.18811 -0.18008,-0.0347 -0.28984,-0.17894 -0.45739,-0.247 -0.15291,-0.0744 -0.2776,-0.16811 -0.43876,-0.22393 -0.15959,-0.0895 -0.28272,-0.22533 -0.42749,-0.33016 -0.15594,-0.0778 -0.17583,-0.25257 -0.28073,-0.36782 -0.0949,-0.11785 -0.16376,-0.24569 -0.18976,-0.39397 -0.0405,-0.11102 -0.13907,-0.20874 -0.1946,-0.32395 -0.0649,-0.1281 -0.0209,-0.28977 -0.0978,-0.40531 -0.0733,-0.15491 -0.16801,-0.29369 -0.2551,-0.44019 -0.0952,-0.16642 -0.14502,-0.35183 -0.16361,-0.54069 0.0226,-0.17392 -0.0474,-0.28822 -0.11898,-0.43709 -0.0518,-0.18573 -0.15223,-0.34159 -0.23572,-0.51441 -0.0489,-0.1442 -0.0845,-0.29667 -0.099,-0.44805 -0.0903,-0.16071 -0.18158,-0.31245 -0.28625,-0.46413 -0.15056,-0.13032 -0.28183,-0.26346 -0.35411,-0.44921 -0.12217,-0.0822 -0.22101,-0.18903 -0.32091,-0.29583 -0.12152,-0.14887 -0.31078,-0.22906 -0.4605,-0.35277 -0.1789,-0.0641 -0.34298,-0.12607 -0.51749,-0.19509 -0.17958,-0.0908 -0.36993,-0.12214 -0.54836,-0.21842 -0.19693,-0.0754 -0.4037,-0.12725 -0.61517,-0.13952 -0.21185,-0.006 -0.41389,-0.11372 -0.61083,-0.192 -0.45344,0.15524 -0.0626,0.0128 1.05345,-0.0432 0.0544,-0.003 -0.10373,0.0329 -0.15513,0.0508 -0.10036,0.0349 -0.0962,0.0301 -0.20348,0.051 -0.65406,0.0966 -1.31883,0.13167 -1.98036,0.12914 -0.40424,0.004 -1.10321,0.0141 1.02712,-0.0654 0.0329,-7.1e-4 -0.0637,0.0164 -0.0948,0.0275 -0.0904,0.0322 -0.17742,0.0707 -0.26896,0.10078 -0.19282,0.0401 -0.36589,0.13157 -0.54965,0.19751 -0.6549,0.17892 -1.35557,0.17331 -2.03059,0.19072 -0.18426,0.004 -0.36795,-0.007 -0.5522,-0.004 -0.19099,-4.7e-4 -0.38193,0.004 -0.57292,-4.7e-4 -0.20305,-3e-5 -0.40612,0.004 -0.60917,0.002 -0.2378,0.013 -0.4479,0.004 -0.67068,-0.081 -0.23514,-0.0311 -0.42197,-0.17259 -0.63443,-0.25604 -0.19047,-0.11029 -0.4286,-0.048 -0.61343,-0.15584 -0.17135,-0.10848 -0.3254,-0.2471 -0.52087,-0.31825 -0.18285,-0.0682 -0.32305,-0.22214 -0.51573,-0.2713 -0.12235,-0.11407 -0.27106,-0.17898 -0.41943,-0.25413 -0.17076,0.003 -0.31528,-0.0868 -0.44871,-0.18262 -0.11205,-0.0215 -0.21865,-0.0669 -0.33348,-0.0602 1.89551,-0.16858 1.22967,-0.22418 0.82996,0.13774 -0.18918,0.12978 -0.41543,0.18723 -0.61859,0.29421 -0.16014,0.13525 -0.32124,0.26923 -0.49953,0.38094 -0.17042,0.0795 -0.30703,0.19777 -0.43064,0.33526 -0.12109,0.16655 -0.25964,0.31926 -0.397,0.47284 -0.13901,0.15284 -0.28501,0.29359 -0.44744,0.42101 -0.0845,0.16494 -0.22293,0.29002 -0.33799,0.43307 -0.14944,0.13799 -0.25204,0.30376 -0.31225,0.4935 -0.0408,0.206 -0.17983,0.36104 -0.31849,0.51214 -0.13332,0.12822 -0.27091,0.24266 -0.35164,0.40935 -0.0573,0.14719 -0.19789,0.25822 -0.2444,0.40724 -0.0392,0.12517 -0.0492,0.26191 -0.0371,0.39245 0.002,0.14812 -0.0122,0.2978 0.002,0.44533 0.002,0.14958 -0.0135,0.30061 4.8e-4,0.44959 -0.0209,0.17587 0.0283,0.3385 0.04,0.50614 -0.006,0.15849 -0.0165,0.31555 -0.03,0.47346 -9.6e-4,0.16789 0.002,0.33724 -0.0146,0.50465 -0.048,0.14692 -0.13504,0.26948 -0.1849,0.41486 -0.007,0.12988 -0.0335,0.25818 -0.0664,0.38403 -0.0176,0.13622 -0.10564,0.1234 -0.20755,0.17938 -0.18375,0.092 -0.36659,0.18719 -0.54771,0.28561 -0.19054,0.0687 -0.34156,0.19955 -0.53206,0.26982 -0.23164,0.0389 -0.39125,0.17889 -0.57078,0.31351 -0.17521,0.10188 -0.36426,0.17084 -0.53346,0.28271 -0.15721,0.0897 -0.32555,0.13445 -0.50521,0.15121 -0.20736,0.0498 -0.40688,0.12537 -0.61304,0.18237 -0.18696,0.0277 -0.36126,0.1076 -0.52761,0.1928 -0.50207,0.17233 -1.07972,0.0875 -1.58404,0.15819 -0.37812,0.053 0.76193,-0.0573 1.14372,-0.0687 0.0369,-4.7e-4 -0.0691,0.0251 -0.10351,0.0378 -0.20445,0.0835 -0.42343,0.12304 -0.62846,0.20332 -0.18099,0.10287 -0.38488,0.13527 -0.58414,0.18368 -0.13744,0.0955 -0.29296,0.15435 -0.44568,0.21961 -0.21949,0.0824 -0.38632,0.22185 -0.55472,0.37578 -0.14896,0.12057 -0.26904,0.26638 -0.41479,0.39072 -0.0878,0.12331 -0.2225,0.19456 -0.29096,0.33005 0.004,0.19615 -0.10086,0.35602 -0.16384,0.53272 -0.0334,0.12131 -0.0674,0.23983 -0.10727,0.3602 -0.0929,0.0849 -0.0743,0.20003 -0.10987,0.31718 0.0383,0.13163 0.0711,0.26041 0.0796,0.39759 0.0237,0.12747 0.0259,0.25917 0.0277,0.38839 -0.0149,0.15191 -0.14329,0.25994 -0.18308,0.39902 -0.0646,0.1301 -0.0151,0.16604 -0.0133,0.29424 -0.01,0.13491 -0.0454,0.11584 0.0463,0.10211 0.0986,0.56854 -1.52206,0.48069 -1.16122,-0.0542 0.0554,-0.0776 0.13237,-0.0807 0.22139,-0.0952 0,0 1.27637,0.1076 1.27637,0.1076 l 0,0 c -0.10224,0.002 -0.20564,0.009 -0.30761,-4.7e-4 -0.36442,0.23998 -1.28671,-0.26828 -1.18991,0.25537 -0.0709,-0.0596 -0.10075,-0.15028 -0.0906,-0.24193 0.006,-0.11295 -0.0559,-0.21447 -0.004,-0.32916 0.0459,-0.12739 0.0952,-0.26002 0.19133,-0.36016 -0.002,-0.12402 -0.01,-0.24364 -0.0227,-0.36795 -0.0495,-0.14855 -0.079,-0.30406 -0.0734,-0.46034 0.0515,-0.10695 -0.0105,-0.27326 0.0996,-0.35531 0.12804,-0.0696 0.006,-0.2047 0.0642,-0.32271 0.0712,-0.18005 0.16848,-0.34612 0.1999,-0.53708 0.053,-0.15781 0.15554,-0.27414 0.28981,-0.37561 0.10945,-0.14023 0.245,-0.25395 0.35273,-0.39523 0.17217,-0.17577 0.34991,-0.32807 0.58211,-0.41759 0.15786,-0.0753 0.32964,-0.0986 0.47218,-0.20841 0.14411,-0.13149 0.38209,-0.0833 0.54922,-0.19252 0.19824,-0.11636 0.41151,-0.12186 0.61882,-0.21801 0.56643,-0.19233 2.92128,-0.27421 0.33215,-0.0897 -0.27481,0.0197 0.54798,-0.0141 0.25236,-0.0327 0.17839,-0.0441 0.31311,-0.20754 0.50807,-0.21277 0.21699,-0.0323 0.41951,-0.12314 0.62364,-0.19861 0.17216,-0.008 0.34381,-0.007 0.49551,-0.098 0.17593,-0.0788 0.32204,-0.20352 0.50489,-0.27414 0.20053,-0.11355 0.35509,-0.32335 0.59943,-0.34377 0.19403,-0.0604 0.35429,-0.15596 0.52308,-0.25825 0.20072,-0.0735 0.36127,-0.23537 0.58055,-0.27171 0.12086,-0.0734 0.15428,-0.11858 0.25998,-0.0381 0.006,0.006 -0.003,-0.0158 -0.006,-0.0237 -0.0242,-0.13673 -0.0242,-0.27701 0.0183,-0.41065 0.0356,-0.13947 0.0973,-0.26989 0.19089,-0.38184 -0.0156,-0.16925 -0.007,-0.34194 0.006,-0.51071 0.006,-0.15026 0.0345,-0.30134 0.0237,-0.4511 -0.0337,-0.17428 -0.0544,-0.34364 -0.0358,-0.52102 0.0139,-0.14891 -9.7e-4,-0.29979 -9.7e-4,-0.44923 0.0135,-0.14833 -0.002,-0.29844 7e-5,-0.44735 0.0164,-0.14298 0.006,-0.28845 0.0436,-0.42952 0.0525,-0.14969 0.11455,-0.29972 0.23211,-0.41293 0.0574,-0.18287 0.16606,-0.35052 0.33873,-0.4485 0.1184,-0.15403 0.25988,-0.26596 0.32505,-0.45691 0.038,-0.20835 0.12272,-0.40805 0.28078,-0.55706 0.1454,-0.12964 0.2704,-0.27974 0.40769,-0.41721 0.0617,-0.17271 0.24933,-0.29753 0.3771,-0.42662 0.12794,-0.17353 0.30962,-0.29319 0.42394,-0.4713 0.10632,-0.1477 0.25346,-0.26873 0.39841,-0.37809 0.19012,-0.11932 0.38048,-0.21027 0.53426,-0.37732 0.18322,-0.15083 0.38728,-0.21323 0.61104,-0.28667 0.34335,-0.21285 -0.15656,0.1076 0.15203,-0.12454 0.36935,-0.27784 1.25939,-0.13542 1.45031,-0.22625 0.12199,0.0312 0.25312,0.0372 0.36044,0.1098 0.14242,0.0657 0.28441,0.12755 0.43494,0.17065 0.16498,0.0609 0.30318,0.15596 0.45434,0.2422 0.18252,0.0908 0.35235,0.2017 0.54187,0.27701 0.17113,0.0995 0.31369,0.23953 0.49924,0.31216 0.21625,0.0399 0.43757,0.0571 0.63612,0.16091 0.20433,0.10947 0.41203,0.18372 0.6382,0.23937 0.21115,0.0542 0.42494,0.0529 0.64233,0.0468 0.19726,-7.1e-4 0.3945,9.4e-4 0.59175,0.002 0.19064,-0.004 0.38116,2.2e-4 0.57179,9.4e-4 0.20018,0.004 0.40016,-0.007 0.60026,-0.011 0.52011,-0.0198 0.0872,-0.004 -1.01877,0.0741 -0.32225,0.0228 0.85121,-0.0433 0.52789,-0.0586 0.1942,-0.0685 0.37399,-0.17323 0.58085,-0.19458 0.56887,-0.23492 1.15519,-0.33249 1.79996,-0.26384 1.36258,-0.0435 -1.71373,0.11229 -0.51273,0.0479 0.58633,-0.0912 1.18056,-0.34965 1.78507,-0.18945 0.20608,0.0598 0.40057,0.15741 0.61988,0.16261 0.21826,0.0353 0.43698,0.0723 0.63241,0.18112 0.17947,0.0807 0.36955,0.12975 0.54751,0.21464 0.16514,0.0874 0.35834,0.10991 0.51139,0.2215 0.16701,0.10816 0.33254,0.22479 0.45785,0.37917 0.0968,0.11368 0.19803,0.22017 0.30177,0.32585 0.12038,0.16238 0.28135,0.27632 0.40126,0.43814 0.0897,0.16795 0.19463,0.33563 0.23506,0.52147 0.02,0.14884 0.0887,0.27019 0.15393,0.4077 0.0654,0.17144 0.13068,0.34485 0.20389,0.51157 0.0792,0.15517 0.11475,0.30429 0.11927,0.47572 0.032,0.1747 0.0815,0.34481 0.18735,0.49311 0.0814,0.15309 0.12703,0.31754 0.22906,0.46079 0.0279,0.13465 0.0244,0.27286 0.0793,0.39927 0.0509,0.11921 0.17712,0.20285 0.1875,0.34381 0.0527,0.1349 0.12157,0.24331 0.21441,0.35656 0.0595,0.14595 0.14693,0.24624 0.28231,0.33237 0.11581,0.12299 0.26783,0.19937 0.41064,0.28853 0.15269,0.0634 0.27865,0.17438 0.43423,0.2313 0.15763,0.0752 0.29066,0.19604 0.46053,0.25047 0.15658,0.0766 0.29239,0.15354 0.47379,0.16515 0.16663,0.0489 0.31902,0.15316 0.49415,0.16418 0.19296,-0.003 0.38685,-0.003 0.57878,0.0185 0.16374,0.0165 0.32651,0.0565 0.47042,0.13715 0.16369,0.0727 0.32288,0.092 0.50121,0.10695 0.19841,0.0314 0.38366,0.0922 0.56346,0.18027 0.15197,0.0268 0.31092,0.0152 0.45866,0.0691 0.17614,0.0798 0.33376,0.17716 0.48794,0.29287 0.16816,0.102 0.33714,0.20527 0.49145,0.32571 0.12673,0.0989 0.26884,0.1759 0.40372,0.26346 0.13748,0.0879 0.29103,0.15114 0.42389,0.24777 0.12886,0.0807 0.22999,0.17532 0.3305,0.28647 0.13104,0.0651 0.2653,0.13383 0.36808,0.23854 0.0759,0.0725 0.12111,0.1484 0.16666,0.23873 0.0777,0.1009 0.16959,0.16278 0.28099,0.22599 0.11598,0.13522 0.18092,0.27921 0.19915,0.45643 0.0215,0.14117 0.11641,0.24548 0.21047,0.34872 0.0402,0.0978 0.0697,0.19771 0.14569,0.27601 0.1016,0.1064 0.11127,0.23919 0.17587,0.36349 0.0696,0.14097 0.0879,0.275 0.067,0.43067 -9.6e-4,0.18808 0.10407,0.36062 0.0647,0.55192 0.006,0.17834 0.002,0.35639 0.003,0.53484 -0.0125,0.18508 0.0122,0.37229 -0.0199,0.55694 -9.6e-4,0.18153 -0.0391,0.35624 -0.0805,0.53226 -0.0218,0.14497 0.0675,0.28217 -0.0679,0.41301 -0.0842,0.13847 -0.11392,0.26801 -0.15617,0.42611 -0.0671,0.15565 -0.16771,0.27278 -0.15811,0.45197 -0.0225,0.16313 -0.0723,0.3277 -0.18129,0.45627 -0.11873,0.14337 -0.20466,0.29761 -0.31681,0.45265 -0.052,0.16684 -0.16656,0.30302 -0.21077,0.46635 -0.0569,0.22518 -0.16959,0.4319 -0.33118,0.60251 -0.10014,0.17244 -0.23304,0.31827 -0.33084,0.49199 -0.0181,0.16425 -0.0608,0.33005 -0.159,0.4669 -0.0899,0.12254 -0.14801,0.24547 -0.22871,0.37344 -0.10239,0.12167 -0.1208,0.25486 -0.16858,0.40413 -0.0925,0.1914 -0.16965,0.38065 -0.23839,0.58081 -0.10902,0.1684 -0.26737,0.2813 -0.41397,0.41431 -0.0852,0.17179 -0.23638,0.25735 -0.35645,0.40097 -0.12785,0.10122 -0.22578,0.21908 -0.34907,0.3274 -0.0854,0.17345 -0.21867,0.28821 -0.34881,0.42794 -0.12083,0.12174 -0.25646,0.23368 -0.35938,0.36973 -0.12677,0.17118 -0.30319,0.2757 -0.42665,0.44854 -0.18395,0.1919 -0.32508,0.42343 -0.53111,0.59538 -0.082,0.1345 -0.0893,0.26009 -0.0909,0.41742 -0.0323,0.13374 -0.0554,0.26767 -0.14702,0.37812 -0.10789,0.15711 -0.058,0.19064 -0.0714,0.38041 0.0151,0.14632 0.007,0.29258 0.0219,0.43907 0.0375,0.1428 0.0717,0.28931 0.0817,0.43547 0.007,0.14999 -0.15753,0.20178 -0.0874,0.35952 0.006,0.18781 -0.0136,0.37528 0.004,0.56294 -0.013,0.17107 -0.0176,0.34404 -0.0149,0.51491 0.002,0.15048 -0.006,0.30052 -0.006,0.45077 -0.006,0.14563 -0.028,0.29 -0.0622,0.43169 -0.0368,0.1627 0.0335,0.29444 -0.021,0.45407 -0.065,0.1649 -0.1834,0.30065 -0.21223,0.47616 -0.0419,0.1497 -0.0457,0.31375 -0.11511,0.44217 -0.10767,0.10804 -0.21301,0.21746 -0.33005,0.31615 -0.17025,0.0135 -0.1594,0.20538 -0.32234,0.26381 -0.12851,0.0971 -0.24143,0.20234 -0.38491,0.27335 -0.18858,0.0955 -0.34531,0.2445 -0.53272,0.34642 -0.22425,0.14386 -0.4299,0.30496 -0.69024,0.38276 -0.20061,0.0865 -0.39948,0.15702 -0.59955,0.24448 -0.66156,0.0569 -1.25787,0.18435 -1.89501,0.0506 -0.20797,-0.0631 -0.40079,-0.17634 -0.62425,-0.17133 -0.19826,-0.0263 -0.40868,-0.0478 -0.56328,-0.18522 -0.12227,-0.0589 -0.27544,-0.0223 -0.40673,-0.0565 -0.28732,-0.0507 -0.57426,-0.0999 -0.85708,-0.17339 -0.3228,-0.0528 -0.65381,-0.0576 -0.96987,-0.149 -0.19025,-0.0458 -0.37758,-0.11061 -0.57644,-0.0993 -0.20636,0.0158 -0.41381,0.004 -0.62058,0.006 -0.80354,0.007 1.57473,-0.12773 0.76367,-0.0618 -0.17196,0.0158 -0.33241,0.0768 -0.47988,0.1634 -4.12372,0.38038 0.55875,-0.0641 -0.4606,0.0641 -0.20593,0.0223 -0.4216,0.03 -0.5866,0.16856 -0.16518,0.0984 -0.38383,0.0773 -0.54651,0.19369 -0.20987,0.10464 -0.41419,0.18953 -0.64265,0.25901 -0.17283,0.0865 -0.38319,0.0584 -0.54281,0.18332 -0.0992,0.12113 -0.22314,0.18446 -0.32823,0.30218 -0.13505,0.01 -0.2998,0.046 -0.38685,0.15438 -0.12247,0.1235 -0.26981,0.18983 -0.41345,0.28756 -0.0768,0.0188 -0.0249,0.24091 -0.19259,0.22985 -0.1527,0.003 -0.30193,0.0227 -0.42218,0.12164 -0.16618,0.10991 -0.28159,0.28581 -0.48533,0.34924 -0.15523,0.0201 -0.27939,0.10397 -0.38606,0.21252 -0.13498,0.02 -0.28546,0.0467 -0.36412,0.16834 -0.0898,0.10354 -0.23903,0.12034 -0.29865,0.2673 -0.14365,0.12526 -0.34504,0.24649 -0.53621,0.27503 -0.58516,0.15047 -1.11412,0.39195 -1.77678,0.25265 -0.10013,7.1e-4 -0.22232,0.0172 -0.31343,-0.0242 -0.0832,-0.0908 -0.0386,-0.052 -0.16429,-0.12109 -0.10373,-0.0995 -0.14643,-0.24009 -0.28765,-0.30336 -0.11802,-0.0953 -0.24151,-0.18769 -0.31553,-0.32182 -0.1043,-0.1176 -0.26703,-0.17998 -0.35621,-0.31564 -0.0629,-0.11096 -0.11287,-0.21371 -0.20793,-0.3047 -0.071,-0.14861 -0.19003,-0.25018 -0.26161,-0.40228 -0.0714,-0.13018 -0.11048,-0.27019 -0.21233,-0.3845 -0.0861,-0.13843 -0.13929,-0.28963 -0.2744,-0.39435 -0.12166,-0.15405 -0.2279,-0.32626 -0.31411,-0.50137 -0.0525,-0.14361 -0.10014,-0.28266 -0.18803,-0.40595 -0.0742,-0.12948 -0.21835,-0.21838 -0.29638,-0.34737 -0.10014,-0.0989 -0.20213,-0.19613 -0.30319,-0.29427 -0.11551,-0.10178 -0.2292,-0.20547 -0.36009,-0.28856 -0.14287,-0.0958 -0.27324,-0.20715 -0.42614,-0.28737 -0.11621,-0.0913 -0.26389,-0.13093 -0.39101,-0.20797 -0.14914,-0.0688 -0.31324,-0.0777 -0.46149,-0.15114 -0.17252,-0.0795 -0.33044,-0.18344 -0.52462,-0.21164 -0.17794,-0.0572 -0.3418,-0.14117 -0.53518,-0.12694 -0.17236,-0.009 -0.34614,-0.0373 -0.50488,-0.10639 -0.17702,-0.0678 -0.34314,-0.1573 -0.53316,-0.18788 -0.16571,-0.0546 -0.303,-0.16956 -0.48064,-0.1808 -0.21874,-0.0543 -0.43995,-0.098 -0.64986,-0.18219 -0.1903,-0.051 -0.38312,-0.0886 -0.56094,-0.17731 -0.20683,-0.0987 -0.39853,-0.22603 -0.60209,-0.3306 -0.17337,-0.0956 -0.32285,-0.20932 -0.4682,-0.34198 -0.16592,-0.0984 -0.31954,-0.22459 -0.43525,-0.37796 -0.0746,-0.14349 -0.13399,-0.29401 -0.20841,-0.43825 -0.0889,-0.17552 -0.25657,-0.30116 -0.33448,-0.48565 -0.0575,-0.17359 -0.0742,-0.32565 0.0195,-0.48942 0.0767,-0.137 -0.0305,-0.27927 0.063,-0.41746 0.0567,-0.14134 0.002,-0.30424 -0.01,-0.45118 -0.0142,-0.16978 -0.0775,-0.31054 0.0461,-0.46331 0.0115,-0.16832 0.0488,-0.33594 0.14612,-0.47797 0.0964,-0.12184 0.23196,-0.20064 0.30788,-0.34101 0.1071,-0.11095 0.10105,-0.3112 0.24158,-0.40961 0.13328,-0.0955 0.13175,-0.33997 0.30397,-0.42007 0.12992,-0.11156 0.17039,-0.21174 0.16002,-0.38075 0.0179,-0.0797 0.0183,-0.166 0.0604,-0.23841 0.0339,-0.13266 -0.0653,-0.23612 -0.0743,-0.36686 -0.009,-0.10288 -0.006,-0.20876 -0.10846,-0.26864 -0.0764,-0.0631 -0.103,-0.15237 -0.19354,-0.19451 -0.0963,-0.0667 -0.15658,-0.14406 -0.20952,-0.24289 -0.0704,-0.0953 -0.13911,-0.18375 -0.2366,-0.25863 -0.11735,-0.11236 -0.21794,-0.23369 -0.35651,-0.3206 -0.13617,-0.12263 -0.28664,-0.24371 -0.31054,-0.43541 -0.0991,-0.16334 -0.22631,-0.28697 -0.36351,-0.42026 -0.15481,-0.1285 -0.29759,-0.27114 -0.43767,-0.41415 -0.13259,-0.11593 -0.2155,-0.25893 -0.32084,-0.39627 -0.14528,-0.0913 -0.14869,-0.23123 -0.19489,-0.37087 -0.0697,-0.15697 -0.12967,-0.31596 -0.22012,-0.46642 -0.1332,-0.21461 -0.16437,-0.46003 -0.24605,-0.69584 -0.0198,-0.17433 0.006,-0.34964 -0.071,-0.51449 -0.0877,-0.31096 -0.19955,-0.61607 -0.22837,-0.94019 -0.0171,-0.38218 -0.0416,-0.7653 -0.0832,-1.14576 -0.0531,-0.3078 -0.16876,-0.60772 -0.0863,-0.92177 0,0 1.2339,-0.0761 1.2339,-0.0761 z"
       id="path3100-5"
       style="fill:#000000;fill-opacity:1"
       inkscape:export-filename="/home/sade/Desktop/screw-comps/images/troops/ping.png"
       inkscape:export-xdpi="90"
       inkscape:export-ydpi="90"
       inkscape:connector-curvature="0" />
    <path
       d="m 128.47274,447.06194 c -0.0238,0.27173 -0.12633,0.51428 -0.25816,0.751 -0.52627,0.6284 -1.33745,0.50413 -1.41262,-0.21028 -0.0339,-0.23035 -0.0572,-0.47069 0.0308,-0.69131 0.29076,-0.45715 1.11375,-0.41837 1.52703,-0.10255 0.12123,0.17156 0.14363,0.35258 0.0835,0.54992 -0.0682,0.20678 -0.20309,0.34135 -0.37451,0.46811 -0.68025,0.5186 -1.3225,0.33593 -1.25002,-0.23897 0.0561,-0.18503 0.18638,-0.28731 0.3538,-0.37121 0.5997,-0.1429 1.28351,-0.32724 1.82705,-9.4e-4 0.0784,0.16832 0.0839,0.31514 0.0196,0.49096 -0.0779,0.17115 -0.23916,0.20742 -0.41044,0.23802 -0.41902,0.0277 -1.59052,0.36158 -1.65502,-0.38092 0.0781,-0.21161 0.1319,-0.44094 0.24206,-0.63833 0.23972,-0.42277 1.16813,-0.61496 1.44465,-0.17411 0.0891,0.1141 0.18215,0.224 0.24571,0.35831 0.0543,0.17111 -0.0338,0.34882 -0.16034,0.46592 -0.51386,0.27075 -1.33458,0.33156 -1.76991,-0.0946 -0.0176,-0.0791 -0.19583,-0.31755 -0.19938,-0.36612 0.16159,-0.60394 1.24941,-0.31583 1.75286,-0.0955 0.22297,0.0367 0.32312,0.1701 0.25288,0.37541 -0.0906,0.12844 -0.20996,0.21838 -0.35398,0.28071 -0.33511,0.0628 -1.59941,0.43984 -1.66373,-0.21367 -0.0299,-0.20561 0.0176,-0.38251 0.14538,-0.54648 0.48104,-0.39148 1.32606,-0.30362 1.78157,0.077 0.21198,0.1269 0.40593,0.28733 0.43112,0.5396 -0.002,0.14679 -0.0833,0.25573 -0.16312,0.37054 -0.57654,0.22728 -1.21815,0.25799 -1.77916,0.0486 -0.15836,-0.0598 -0.25587,-0.20479 -0.3066,-0.35809 -0.0125,-0.037 -0.0121,-0.0746 -0.009,-0.11281 1.6e-4,-0.007 2.1e-4,-0.0146 2.4e-4,-0.0219 0,0 1.14699,-0.0223 1.14699,-0.0223 l 0,0 c -1.6e-4,-0.007 -2.4e-4,-0.0129 -4.8e-4,-0.0195 0.0186,0.0121 0.0396,0.0242 0.0502,0.0434 0.10092,0.11465 0.20649,0.2243 0.36135,0.26506 0.13074,0.048 0.37264,0.0302 0.28784,0.0367 -2.01567,0.15374 -1.37176,0.0634 -0.94726,0.0833 0.10059,0.0261 0.10081,-0.14713 0.12077,-0.22165 -0.0375,-0.20346 -0.33602,-0.30264 -0.46735,-0.43966 -0.0842,-0.062 -0.16528,-0.12816 -0.27077,-0.15155 -0.0254,-0.006 -0.10351,-0.006 -0.0775,-0.009 1.11306,-0.10749 1.50852,0.003 1.07637,-0.10969 -0.0925,0.14136 -0.16079,0.27553 -0.16491,0.44774 0.0651,0.14448 0.33106,0.13876 0.25214,0.14767 -2.4158,0.27269 -1.41348,0.13454 -1.04758,0.0835 0.17836,-0.0225 0.27685,-0.0952 0.39932,-0.21996 0.13019,0.0777 -0.2393,-0.14851 -0.28742,-0.12655 -0.56317,-0.1566 -0.81165,-0.008 0.78446,-0.18598 0.032,-0.004 -0.0682,0.002 -0.0957,-0.0146 -0.02,-0.0121 -0.0212,-0.0411 -0.0318,-0.0617 0.136,0.0351 0.15035,0.23144 0.252,0.31168 0.0841,0.052 0.16428,0.10221 0.26205,0.12658 0.0309,0.008 0.12558,0.0125 0.094,0.0156 -1.09288,0.10738 -1.51542,-0.002 -1.05196,0.10771 0.10003,-0.0695 0.23644,-0.17774 0.17607,-0.30978 -0.0514,-0.11838 -0.1718,-0.20346 -0.21181,-0.32914 -0.35657,-0.20343 -0.0344,-0.0134 1.12256,-0.0947 0.042,-0.003 -0.10216,-0.0161 -0.12535,0.0185 -0.0112,0.0162 -0.003,0.0383 -0.006,0.0575 -0.0237,0.2151 -0.1303,0.40291 -0.24466,0.58379 0.10295,0.55417 1.64205,0.182 -0.82977,0.37023 0.14529,-0.004 0.30454,-0.01 0.42543,-0.0953 0.0269,-0.1087 0.11498,-0.24832 -0.0237,-0.31623 -0.14236,-0.047 -0.40898,-0.0567 -0.31374,-0.0652 1.97633,-0.17792 1.37488,-0.1009 0.94707,-0.0697 -0.1669,0.02 -0.28031,0.10683 -0.3469,0.25767 -0.38424,0.51026 1.451,0.031 -1.20611,0.22806 -0.0116,4.7e-4 0.002,0.0224 0.004,0.0337 0.0868,-0.15778 0.27586,-0.2345 0.32634,-0.41775 0.0492,-0.131 0.10621,-0.28223 -0.0176,-0.3933 -0.0929,-0.0429 -0.20587,-0.054 -0.17358,-0.0579 2.09911,-0.24602 1.35187,-0.34592 1.06784,-0.0637 -0.0781,0.1771 0.0731,0.43779 0.004,0.62884 0.008,0.0668 0.008,0.13452 0.0193,0.20093 0.004,0.025 0.0471,0.068 0.0218,0.0727 -1.78383,0.32566 -1.08784,0.49006 -1.17432,0.0513 0.10397,-0.24644 0.20522,-0.48769 0.30129,-0.73649 0,0 1.24066,-0.0373 1.24066,-0.0373 z"
       id="path3102-9"
       style="fill:#000000;fill-opacity:1"
       inkscape:export-filename="/home/sade/Desktop/screw-comps/images/troops/ping.png"
       inkscape:export-xdpi="90"
       inkscape:export-ydpi="90"
       inkscape:connector-curvature="0" />
    <path
       d="m 131.92553,455.24157 c 0.6171,-0.22237 1.37808,-0.37754 2.00221,-0.19497 0.19993,0.13705 0.27241,0.35051 0.29898,0.57869 -2.4e-4,0.24018 -0.10902,0.42379 -0.30787,0.55511 -0.58896,0.16299 -1.29495,0.37841 -1.85164,0.0753 -0.16694,-0.10947 -0.20451,-0.29056 -0.15292,-0.46985 0.0381,-0.18512 0.10912,-0.3493 0.27705,-0.44957 0.5771,-0.0446 1.36194,-0.32248 1.71184,0.25297 0.0776,0.17106 -2.4e-4,0.35843 -0.0993,0.50548 -0.39946,0.32261 -1.15167,0.46313 -1.55956,0.14524 -0.21863,-0.0681 -0.3012,-0.28412 -0.36543,-0.47958 -0.0481,-0.21728 -0.0319,-0.3924 0.13811,-0.54834 0.62985,-0.24057 1.42982,-0.33224 1.99906,0.054 0.15076,0.16906 0.1061,0.42959 0.0319,0.62595 -0.0888,0.15912 -0.20749,0.27959 -0.38047,0.34296 -0.74386,0.11553 -1.59352,0.52028 -1.66097,-0.28536 -0.009,-0.22746 0.002,-0.46742 0.11408,-0.67026 0.47196,-0.39182 1.30196,-0.35833 1.82948,-0.0543 0.20753,0.17713 0.18102,0.36806 0.0794,0.59446 -0.34362,0.48499 -1.3477,0.755 -1.79322,0.32742 -0.1862,-0.17273 -0.19405,-0.37004 -0.20863,-0.60726 0.059,-0.20884 0.13315,-0.43783 0.31529,-0.5715 0.40685,-0.0467 1.54326,-0.38737 1.84236,0.23957 0.11498,0.28428 -0.0191,0.46258 -0.23012,0.65193 -0.59177,0.38682 -1.48422,0.55477 -2.14924,0.34089 -0.15704,-0.0515 -0.15156,-0.18548 -0.076,-0.31027 0.0743,-0.10529 0.20107,-0.13898 0.32157,-0.16889 0.0883,-0.0202 -0.0215,0.006 0.0448,-0.01 0,0 1.15835,0.0872 1.15835,0.0872 l 0,0 c -0.008,7e-4 -0.0178,5e-5 -0.0262,0.004 -0.0986,0.0237 -0.19164,0.0647 -0.29074,0.0865 -0.0854,0.0979 -0.14668,0.0192 0.0946,0.0644 0.4982,0.0213 0.10216,1.1e-4 -1.04874,0.0916 -0.0444,0.004 0.09,0.003 0.13364,-0.006 0.18095,-0.0373 0.3325,-0.15017 0.50039,-0.21853 0.15458,-0.0934 0.48994,-0.24289 0.32944,-0.46526 -0.38367,-0.40269 -1.51855,-0.14137 0.6447,-0.31494 -0.19968,-0.004 -0.22336,0.2711 -0.29188,0.42149 -0.0122,0.17719 -0.0119,0.37455 0.1564,0.48335 0.45083,0.0658 0.0654,0.004 -1.07808,0.0987 -0.0305,0.002 0.0623,0.007 0.0918,-7e-4 0.12136,-0.0321 0.19413,-0.13451 0.28645,-0.20862 0.13326,-0.18558 0.16449,-0.25482 -0.0556,-0.39549 -0.0643,-0.028 -0.12269,-0.0587 -0.19291,-0.0706 -0.0329,-0.006 -0.13351,-0.003 -0.10025,-0.006 1.79145,-0.15676 1.4219,-0.0574 0.96221,-0.0999 -0.0996,0.19358 -0.0786,0.3909 -0.0977,0.60274 1e-5,2.4e-4 0.002,0.15973 0.0115,0.17333 0.0296,0.0441 0.21224,0.0241 0.15866,0.0284 -0.95815,0.0789 -1.54448,0.0879 -1.01253,0.0778 0.18679,-0.009 0.26479,-0.058 0.34865,-0.22625 0.0836,-0.14678 0.16564,-0.34055 -0.009,-0.44323 -0.10834,-0.0478 -0.22025,-0.10409 -0.33974,-0.11959 -0.0429,-0.006 -0.17312,4.7e-4 -0.12995,-0.004 1.04021,-0.0953 1.54428,-0.0839 0.99609,-0.0915 -0.23934,0.0896 -0.22627,0.16576 -0.15532,0.38905 0.0409,0.17916 0.13926,0.30484 0.30598,0.39163 0.43989,0.14703 -1.76993,0.32954 -0.87218,0.0385 0.10183,-0.0616 0.16896,-0.23971 0.0915,-0.34125 -0.33716,-0.41741 -1.43506,-0.14983 0.75346,-0.30028 -0.19929,-0.0775 -0.19886,0.1867 -0.26862,0.31381 -0.0679,0.1425 -0.007,0.2318 0.15071,0.28259 0.0661,0.0174 0.27027,0.0266 0.20222,0.0324 -2.07569,0.17932 -1.28258,0.11018 -0.83443,0.0489 0.21477,-0.0481 0.25631,-0.19769 0.30024,-0.39464 -0.0361,-0.19335 -0.0633,-0.37256 -0.28833,-0.42581 -0.48441,-0.047 -0.28258,-0.0204 1.02466,-0.1065 0.0384,-0.002 -0.0747,0.0184 -0.11217,0.0273 -0.14293,0.034 -0.28806,0.0583 -0.42866,0.10112 0,0 -1.23885,-0.0755 -1.23885,-0.0755 z"
       id="path3104-8"
       style="fill:#000000;fill-opacity:1"
       inkscape:export-filename="/home/sade/Desktop/screw-comps/images/troops/ping.png"
       inkscape:export-xdpi="90"
       inkscape:export-ydpi="90"
       inkscape:connector-curvature="0" />
    <path
       d="m 130.08488,466.00618 c 0.19358,-0.23517 0.43345,-0.41723 0.71412,-0.53988 0.97075,-0.25499 1.40117,-0.38201 1.71394,0.3568 0.11014,0.24395 0.075,0.48543 -0.0279,0.72387 -0.29734,0.47634 -1.06556,0.37651 -1.55864,0.17938 -0.24512,-0.12288 -0.32585,-0.19669 -0.34188,-0.46646 0.0267,-0.20334 0.0892,-0.37955 0.27362,-0.48681 0.7423,-0.18564 1.30389,-0.34929 1.78597,0.13683 0.16056,0.16984 0.15682,0.32208 0.0761,0.52653 -0.41394,0.49053 -1.21714,0.29885 -1.82922,0.26317 -0.24699,-0.0907 -0.35472,-0.22219 -0.33454,-0.48298 0.0426,-0.24968 0.18844,-0.40766 0.40274,-0.53366 0.50515,-0.17239 1.37958,-0.40148 1.76564,0.0887 0.0633,0.24235 -0.0306,0.4578 -0.2214,0.61295 -0.33471,0.0739 -1.31758,0.29423 -1.77415,0.03 -0.18448,-0.18684 -0.13857,-0.45983 -0.0383,-0.67801 0.0876,-0.15233 0.18655,-0.28637 0.35163,-0.3578 0.7074,-0.069 1.40864,-0.33268 1.72479,0.3388 0.0499,0.2564 -0.0652,0.44908 -0.29523,0.56393 -0.52046,0.14105 -1.28894,0.45866 -1.67188,0.0166 -0.0543,-0.15732 -0.16781,-0.27284 -0.23578,-0.42579 -0.0361,-0.24759 0.15065,-0.37713 0.36148,-0.45491 0.38036,-0.11317 1.56041,-0.41748 1.76468,0.2151 0.0418,0.24009 -0.0684,0.43861 -0.21914,0.61875 -0.4905,0.45727 -1.34128,0.52678 -1.95868,0.32561 -0.25007,-0.11749 -0.39256,-0.34943 -0.46287,-0.6036 -0.0838,-0.24626 0.0576,-0.41095 0.23703,-0.55959 0.49045,-0.31268 1.36242,-0.57337 1.82612,-0.18329 0.17137,0.028 0.21274,0.0717 0.15114,0.24878 -0.12914,0.16172 -0.30277,0.27798 -0.44812,0.42669 -0.0207,0.0152 -0.0362,0.0447 -0.062,0.0454 -0.0169,2.3e-4 -0.008,-0.0429 -0.0254,-0.0432 -0.39105,-0.011 -0.78234,0.007 -1.17352,0.011 0,0 1.20412,-0.0664 1.20412,-0.0664 l 0,0 c -1.00182,0.0998 -1.17178,0.42904 -1.18753,0.0506 0.12071,-0.19965 0.28865,-0.31664 0.47707,-0.44895 0.19951,0.0126 -0.0209,0.0766 -0.11972,-0.006 -0.4364,-0.0301 -1.00766,0.0901 0.97463,-0.0934 0.095,-0.009 -0.52728,0.0388 -0.3467,0.10057 -0.18144,0.10156 -0.31696,0.16463 -0.25178,0.39837 0.0913,0.2043 0.22833,0.39797 0.45274,0.47491 0.49,0.0388 0.25801,0.0141 -1.03039,0.10496 -0.0482,0.004 0.096,-0.0134 0.14288,-0.0248 0.12179,-0.0294 0.21394,-0.0962 0.31397,-0.16723 0.12709,-0.1441 0.31728,-0.27391 0.25548,-0.48267 -0.0545,-0.082 -0.12562,-0.1304 -0.22074,-0.16456 -0.0307,-0.011 -0.12713,-0.0199 -0.0947,-0.0233 0.3467,-0.0385 1.59943,-0.14196 1.04349,-0.0813 -0.13303,0.0436 -0.36246,0.0852 -0.3805,0.24686 0.0807,0.12215 0.14614,0.252 0.2098,0.38252 0.0359,0.0187 0.15312,0.0409 0.11275,0.0448 -2.12195,0.20508 -1.32501,0.13084 -0.89054,0.0507 0.18919,-0.0625 0.32815,-0.13574 0.29201,-0.35866 -0.33871,-0.51958 -1.19042,-0.27158 0.7638,-0.38962 -0.19279,0.007 -0.23516,0.0717 -0.30397,0.24595 -0.0801,0.15899 -0.20739,0.35857 -0.0112,0.48241 0.0872,0.0205 0.17094,0.0349 0.26063,0.0397 0.0318,7e-4 0.12701,1.5e-4 0.0953,0.003 -1.07023,0.0946 -1.51232,0.0691 -1.05599,0.0922 0.1332,-0.023 0.26941,-0.25801 0.23408,-0.39014 -0.0744,-0.0602 -0.13287,-0.0914 -0.22883,-0.11091 -0.0292,-0.006 -0.11822,-0.01 -0.0886,-0.0132 1.31213,-0.13456 1.50861,-0.19612 1.05334,-0.0687 -0.19557,0.0606 -0.37682,0.19993 -0.41833,0.40601 -0.0405,0.23668 0.11833,0.23816 0.32527,0.28145 0.44429,0.03 1.06674,-0.0678 -0.91459,0.0945 -0.0583,0.004 0.12384,0.0129 0.17485,-0.0151 0.029,-0.0159 0.0448,-0.048 0.0674,-0.0722 0.14845,-0.13484 0.0659,-0.23721 -0.0648,-0.35686 -0.0613,-0.0536 -0.12614,-0.11764 -0.20861,-0.13899 -0.0288,-0.007 -0.11864,-0.007 -0.089,-0.01 0.9783,-0.0861 1.55015,-0.082 1.02972,-0.083 -0.23168,0.0125 -0.28023,0.13031 -0.30185,0.33532 -0.035,0.17617 0.17585,0.23195 0.2981,0.32186 0.46807,0.1846 0.0723,0.021 -1.029,0.12402 -0.0497,0.004 0.21907,0.0301 0.14187,-0.0494 0.0524,-0.22938 0.0856,-0.40441 -0.0228,-0.63028 -0.0359,-0.0787 -0.0655,-0.15986 -0.10317,-0.23761 -0.0131,-0.0271 -0.0239,-0.0569 -0.046,-0.0778 -0.0132,-0.0125 -0.0712,-0.0138 -0.0529,-0.0153 1.07211,-0.0958 1.54176,-0.0422 1.07028,-0.0913 -0.28748,0.12474 -0.51433,0.31341 -0.74814,0.51725 0,0 -1.25384,-0.0435 -1.25384,-0.0435 z"
       id="path3106-9"
       style="fill:#000000;fill-opacity:1"
       inkscape:export-filename="/home/sade/Desktop/screw-comps/images/troops/ping.png"
       inkscape:export-xdpi="90"
       inkscape:export-ydpi="90"
       inkscape:connector-curvature="0" />
    <path
       d="m 126.74809,458.85311 c 0.20406,0.14985 0.29565,0.3412 0.22318,0.58134 -0.22242,0.49411 -1.03598,0.40828 -1.49789,0.18398 -0.0925,-0.0577 -0.21427,-0.0598 -0.24286,-0.18053 -0.0477,-0.59667 0.96455,-0.33017 1.46622,-0.28197 0.25237,-7e-4 0.40754,0.0929 0.4601,0.32533 0.0277,0.1974 -0.0263,0.35675 -0.13638,0.52085 -0.41572,0.297 -1.17924,0.19054 -1.55228,0.20074 -0.0502,9.4e-4 -0.19651,-0.16898 -0.22672,-0.19613 -0.1982,-0.22757 -0.14937,-0.57643 -0.0665,-0.84168 0.10992,-0.28313 0.23386,-0.5407 0.55226,-0.61872 1.14835,-0.0726 1.62419,-0.33259 1.84039,0.69719 0.0257,0.34871 -0.11791,0.65938 -0.38116,0.88786 -0.5514,0.36398 -1.33452,0.31458 -1.94849,0.10408 -0.20017,-0.12769 -0.15445,-0.29648 -0.13011,-0.49738 0.0759,-0.23416 0.21632,-0.41553 0.43366,-0.53721 0.33828,-0.0492 1.58867,-0.45447 1.4913,0.28982 -0.047,0.19965 -0.16628,0.28813 -0.36209,0.33284 -0.49636,0.0867 -1.5769,0.37814 -1.40435,-0.38507 0.0991,-0.18119 0.21487,-0.37596 0.40369,-0.4766 0.95508,-0.12636 1.36843,-0.3777 1.48108,0.38087 0.006,0.15867 -0.0161,0.30921 -0.0961,0.44755 -0.41624,0.32397 -1.26405,0.50012 -1.55031,-7.1e-4 -0.0625,-0.13695 -0.0814,-0.28515 -0.0736,-0.43377 0.0884,-0.58811 1.12099,-0.49227 1.50109,-0.11524 0.13984,0.13871 0.12807,0.26601 0.0611,0.43848 -0.10452,0.26784 -0.31619,0.4073 -0.59709,0.44728 -0.42615,0.0236 -0.85201,0.0531 -1.27846,0.0711 -0.13391,0.006 -0.0682,-0.19953 0.0318,-0.21558 0.16835,-0.0465 0.32778,-0.11555 0.49676,-0.1623 0,0 1.25154,0.0791 1.25154,0.0791 l 0,0 c -0.17869,0.0589 -0.35965,0.10815 -0.53123,0.18585 -0.0462,4.7e-4 -0.12032,0.0158 -0.15043,-0.0408 -0.0161,-0.03 -0.0149,-0.0695 -0.003,-0.10133 0.0101,-0.0294 0.0934,0.0454 0.0951,2.3e-4 -0.38244,0.0258 -0.76488,0.0518 -1.14732,0.0776 0.2563,0.007 0.44432,-0.12676 0.57767,-0.33793 0.15117,-0.13178 0.0981,-0.14586 -0.0396,-0.26566 -0.0373,-0.0308 -0.16953,-0.0752 -0.12107,-0.0806 0.37371,-0.0402 0.75116,-0.0426 1.12435,-0.0873 0.018,-0.002 -0.12154,-0.10673 -0.0451,0.0288 0.0112,0.11706 -0.024,0.26396 0.0446,0.36255 0.0199,0.019 0.049,0.0519 0.078,0.0595 0.0168,0.004 0.0692,-0.002 0.052,-4.7e-4 -1.96859,0.14816 -1.42117,0.0534 -0.99646,0.0913 0.0218,-0.0235 0.0665,-0.0271 0.0782,-0.0568 0.0328,-0.083 -0.0637,-0.21852 -0.0236,-0.30459 0.002,-0.0637 0.0145,-0.18066 -0.0287,-0.23896 -0.0207,-0.028 -0.0814,-0.0445 -0.11115,-0.0552 0.38109,-0.0293 0.76219,-0.0588 1.14328,-0.0881 -0.1838,-0.0304 -0.237,0.26313 -0.37477,0.34848 -0.0166,0.0481 -0.0507,0.0943 -0.0481,0.14508 0.003,0.0625 0.0582,0.0989 0.11291,0.10563 -0.38298,0.0293 -0.766,0.0589 -1.149,0.0883 0.1622,-0.0256 0.32865,-2.2e-4 0.35848,-0.1888 0.0101,-0.037 0.041,-0.0777 0.0251,-0.11286 -0.0287,-0.0631 -0.12016,-0.0567 -0.17384,-0.057 0.38066,-0.0306 0.76132,-0.0611 1.14198,-0.0917 -0.19732,-0.0112 -0.31845,0.273 -0.42814,0.40635 -0.071,0.20394 -0.11161,0.22336 0.12836,0.30847 0.0664,0.0148 0.18291,0.0414 0.24849,0.0531 0.0397,0.007 0.15963,0.0133 0.11959,0.0179 -1.96971,0.23024 -1.35856,0.19572 -0.94103,0.036 0.20987,-0.18465 0.32607,-0.47098 0.32125,-0.74664 -0.0463,-0.15162 -0.0752,-0.32549 -0.16877,-0.45831 -0.27607,-0.39168 -1.28847,-0.053 0.93432,-0.25237 -0.33498,0.003 -0.40364,0.17626 -0.49222,0.47328 -0.0661,0.22632 -0.21728,0.51738 -0.019,0.71325 0.0455,0.0523 0.0501,0.0767 0.11975,0.0916 0.0263,0.006 0.10722,9.4e-4 0.0804,0.004 -2.04612,0.1702 -1.37261,0.1158 -0.93612,0.0638 0.1313,-0.11461 0.19674,-0.24158 0.19485,-0.41569 -0.009,-0.1249 -0.38876,-0.13812 -0.48231,-0.16409 -0.61341,-0.0623 1.52828,-0.0565 0.91751,-0.12403 0.10992,0.0212 0.21109,0.0634 0.31124,0.1129 0.42943,0.14986 0.0896,0.0202 -1.05582,0.12032 -0.0339,0.003 0.067,0.0184 0.1007,0.0156 0.0196,-9.4e-4 0.003,-0.0564 0.0206,-0.054 0.0165,-0.17384 -0.12961,-0.32281 -0.24978,-0.43355 0,0 1.23839,-0.19718 1.23839,-0.19718 z"
       id="path3108-1"
       style="fill:#000000;fill-opacity:1"
       inkscape:export-filename="/home/sade/Desktop/screw-comps/images/troops/ping.png"
       inkscape:export-xdpi="90"
       inkscape:export-ydpi="90"
       inkscape:connector-curvature="0" />
    <path
       d="m 114.49305,464.41987 c 0.20084,-0.22751 0.47169,-0.40801 0.75448,-0.52584 0.86711,-0.12872 1.31311,-0.38733 1.53573,0.27353 0.0418,0.20178 -0.0656,0.38889 -0.18501,0.54554 -0.4108,0.31958 -1.07802,0.17694 -1.52978,0.20537 -0.12005,0.007 -0.22561,-0.0164 -0.33245,-0.0654 -0.20207,-0.0972 -0.18626,-0.2426 -0.0806,-0.4159 0.19924,-0.21122 0.47502,-0.30356 0.7488,-0.3822 1.05016,-0.18133 1.33902,-0.44855 1.42762,0.28867 0.0173,0.17749 -0.077,0.30209 -0.17897,0.4363 -0.3978,0.34535 -1.01012,0.1654 -1.51469,0.18728 -0.11373,0.006 -0.20976,-0.0383 -0.29381,-0.10441 -0.20859,-0.24772 -0.12613,-0.50966 0.049,-0.74899 0.35514,-0.47525 1.24505,-0.83858 1.77423,-0.35387 0.1367,0.19917 0.16448,0.41377 0.0966,0.64124 -0.0769,0.23069 -0.21297,0.34896 -0.45117,0.3981 -0.5801,0.0324 -1.40475,0.3076 -1.7829,-0.26251 -0.0652,-0.30665 0.1496,-0.40976 0.41468,-0.47665 0.57286,-0.0898 1.15985,-0.10013 1.73528,-0.13644 0.11558,-0.007 0.15803,0.0243 0.23988,0.0978 0.061,0.25237 0.0228,0.48932 -0.12709,0.70184 -0.53038,0.45011 -1.49891,0.3079 -2.0732,0.33303 -0.22631,-0.0907 -0.28089,-0.30383 -0.27562,-0.52458 0.0716,-0.31354 0.26684,-0.59823 0.55291,-0.75745 0.60027,-0.21096 1.48475,-0.48026 1.75846,0.1684 0.1062,0.25441 0.08,0.49167 -0.0476,0.73044 -0.42773,0.51411 -1.3635,0.51269 -1.94251,0.22885 -0.2376,-0.15897 -0.36621,-0.32614 -0.41021,-0.60361 0.0418,-0.33078 0.29327,-0.50426 0.58411,-0.628 0.7522,-0.24878 1.4101,-0.51301 1.62969,0.17745 0.0452,0.21694 -0.0484,0.40744 -0.17765,0.57643 -0.39236,0.27486 -1.31451,0.57264 -1.50342,0.0542 0.008,-0.23878 0.1699,-0.40858 0.36335,-0.53424 0.47011,-0.23982 1.49917,-0.49171 1.65599,0.0914 0.0274,0.28427 -0.14015,0.51595 -0.33316,0.70977 -0.5468,0.35855 -1.36217,0.44942 -1.96871,0.19063 -0.0723,-0.20823 0.0658,-0.38343 0.19785,-0.53486 0.1549,-0.13925 0.334,-0.24898 0.52137,-0.34091 0.40548,-0.004 0.81096,-0.008 1.21645,-0.0119 0,0 -1.18934,0.14553 -1.18934,0.14553 l 0,0 c 0.38707,-0.0296 0.77414,-0.0591 1.1612,-0.0886 -0.12933,0.10673 -0.25692,0.21558 -0.38887,0.31925 -0.10733,0.082 -0.1966,0.19853 -0.30376,0.27554 -0.0188,0.0134 -0.12282,0.004 0.002,0.004 0.47494,0.0819 0.87599,-0.0574 -0.94109,0.11646 -0.15271,0.0145 0.45596,-0.007 0.38899,-0.10122 0.17328,-0.13621 0.37274,-0.35161 0.39499,-0.5746 -0.0347,-0.11122 -0.20089,-0.0889 -0.1498,-0.0937 2.82082,-0.26795 1.27358,-0.18904 1.00662,-0.0601 -0.16649,0.0985 -0.32317,0.20788 -0.42241,0.37648 -1.19343,0.0943 -1.49227,0.23703 -0.94072,0.0356 0.1242,-0.0714 0.17284,-0.32214 0.16484,-0.45218 -0.004,-0.0519 -0.004,-0.13476 -0.0752,-0.1496 -0.0232,-0.006 -0.0946,4.7e-4 -0.071,-4.7e-4 1.21717,-0.10837 1.51501,-0.22498 1.05883,-0.0608 -0.23096,0.0918 -0.5304,0.21296 -0.61217,0.46427 0.0215,0.21366 0.21337,0.38911 0.41019,0.46702 0.47,0.11706 1.00457,-0.0478 -0.89613,0.13148 -0.0895,0.008 0.48139,-0.0351 0.28749,-0.12041 0.14328,-0.18391 0.13764,-0.38763 0.0901,-0.60834 -0.0436,-0.0755 -0.0734,-0.13211 -0.16697,-0.15273 -0.0316,-0.007 -0.12907,-0.004 -0.0968,-0.008 0.72385,-0.0651 1.57689,-0.10959 1.02521,-0.0802 -0.27057,0.11546 -0.40613,0.40408 -0.56045,0.63483 -0.0548,0.21193 0.04,0.31638 0.25734,0.33017 -2.28101,0.18305 -0.95429,0.16616 -0.47154,-0.0842 0.10609,-0.0963 0.25293,-0.35054 0.20587,-0.49102 -0.0854,-0.024 -0.0688,-0.0255 -0.16794,-0.0228 -0.0426,7e-4 -0.16976,0.0119 -0.12731,0.009 2.10485,-0.14485 1.30859,-0.10364 0.84967,-0.0515 -0.14603,0.0195 -0.54776,7.1e-4 -0.50798,0.21764 0.44285,0.38462 1.30336,0.21204 -0.70105,0.32062 0.20738,-0.002 0.38289,-0.0223 0.43928,-0.25291 0.0527,-0.163 0.0949,-0.34161 -0.0354,-0.48356 -0.4352,-0.1064 -0.11515,-0.021 1.08834,-0.11274 0.0277,-0.002 -0.0559,0.007 -0.0824,0.0158 -0.11708,0.0377 -0.0811,0.0395 -0.16475,0.14311 -0.0319,0.0397 -0.0665,0.0774 -0.0998,0.11596 -0.14363,0.14699 -0.33099,0.36488 -0.12475,0.53364 0.11509,0.0316 0.45475,0.0301 0.30667,0.0448 -2.95027,0.29341 -1.19946,0.19376 -0.97182,0.0589 0.13678,-0.0897 0.19646,-0.17654 0.18002,-0.33732 0.0112,-0.0991 0.0127,-0.0602 0.002,-0.14688 -0.002,-0.0233 -0.043,-0.0658 -0.0191,-0.0678 1.21814,-0.0994 1.51702,-0.21445 1.10322,-0.063 -0.26981,0.0477 -0.51373,0.17657 -0.747,0.31313 -0.21662,0.14235 -0.2278,0.0453 0.0541,0.16336 0.10419,0.0184 0.10598,0.0228 0.21225,0.0251 0.0342,4.7e-4 0.1367,-0.006 0.10272,-0.002 -2.03961,0.17212 -1.37754,0.13988 -0.96546,0.0664 0.0987,-0.12002 0.25473,-0.26952 0.22964,-0.43474 -0.0925,-0.49602 -1.64905,-0.0758 0.93502,-0.28981 -0.23181,-0.0139 -0.48778,0.39463 -0.73132,0.45473 0,0 -1.27372,-0.0197 -1.27372,-0.0197 z"
       id="path3110-7"
       style="fill:#000000;fill-opacity:1"
       inkscape:export-filename="/home/sade/Desktop/screw-comps/images/troops/ping.png"
       inkscape:export-xdpi="90"
       inkscape:export-ydpi="90"
       inkscape:connector-curvature="0" />
    <path
       d="m 114.20161,453.24321 c -0.0454,-0.24656 0.0781,-0.48384 0.17029,-0.70737 0.0992,-0.2105 0.25231,-0.38218 0.38751,-0.56993 0.11851,-0.16405 0.3069,-0.25361 0.47045,-0.36781 0.17533,-0.096 0.3324,-0.21579 0.50656,-0.3156 0.18618,-0.1397 0.40415,-0.20881 0.62776,-0.26469 0.55884,-0.0731 1.12386,-0.10309 1.68765,-0.11238 0.21177,-4.7e-4 0.42352,4.7e-4 0.63528,-7.1e-4 0.22898,-0.0302 0.4102,0.0793 0.6151,0.15941 0.15673,0.0667 0.33493,0.0592 0.50307,0.0701 0.23894,0.091 0.44097,0.25154 0.62497,0.42292 0.21945,0.17054 0.4574,0.32075 0.67622,0.49384 0.14528,0.20718 0.37826,0.30744 0.55322,0.48196 0.18244,0.16788 0.3535,0.35774 0.49501,0.5611 0.054,0.17423 0.17154,0.29764 0.26164,0.45189 0.084,0.1583 0.0914,0.33251 0.11861,0.5039 0.11172,0.19355 0.23963,0.24117 0.27185,0.48324 0.0246,0.16118 -0.0507,0.32759 0.002,0.48272 0.11632,0.19767 0.14153,0.38094 0.10812,0.60069 -0.002,0.16501 -0.0863,0.31512 -0.10868,0.47528 -0.0215,0.18983 -0.12757,0.34791 -0.19975,0.52122 -0.0655,0.24328 -0.19466,0.45422 -0.33926,0.65917 -0.0995,0.15888 -0.1447,0.33516 -0.20886,0.50538 -0.0965,0.13762 -0.14967,0.29885 -0.24239,0.43782 -0.14571,0.14731 -0.27989,0.30368 -0.42059,0.4547 -0.13619,0.12019 -0.25253,0.25542 -0.34971,0.40746 -0.0815,0.20146 -0.2212,0.32988 -0.38695,0.46478 -0.15871,0.11738 -0.33733,0.20481 -0.49744,0.31977 -0.17152,0.0996 -0.31569,0.23129 -0.48858,0.3304 -0.15752,0.0983 -0.34353,0.13667 -0.519,0.19713 -0.23938,0.0509 -0.43735,0.19544 -0.66622,0.27462 -0.20761,0.0327 -0.38997,0.116 -0.5813,0.19608 -0.55612,0.1915 -1.25821,0.36461 -1.80385,0.15091 -0.23082,-0.0652 -0.44142,-0.17973 -0.65639,-0.28228 -0.2161,-0.14792 -0.48052,-0.20262 -0.70182,-0.3347 -0.1578,-0.0877 -0.37508,-0.13805 -0.4721,-0.29732 -0.0877,-0.13754 -0.21437,-0.26402 -0.32015,-0.39816 -0.14771,-0.19644 -0.28089,-0.39036 -0.37385,-0.6187 -0.0444,-0.22262 -0.0891,-0.43487 -0.15862,-0.65114 -0.0964,-0.22751 -0.10363,-0.47119 -0.13424,-0.71091 0.002,-0.19804 -0.0125,-0.39494 -0.0249,-0.59272 -0.0854,-0.22372 -0.0897,-0.4424 -0.0341,-0.67435 0.0227,-0.17431 0.0542,-0.34276 0.0448,-0.51915 -0.006,-0.20861 0.099,-0.38937 0.17176,-0.57896 0.0277,-0.22481 0.10261,-0.43791 0.21012,-0.63712 0.0898,-0.18131 0.22472,-0.32861 0.29143,-0.5192 0.0264,-0.20194 0.116,-0.39335 0.1798,-0.58745 0.0899,-0.17713 0.20657,-0.33903 0.36744,-0.46008 0.13205,-0.15307 0.3251,-0.22386 0.4812,-0.34586 0.12993,-0.1278 0.23609,-0.27883 0.36129,-0.41221 0.13459,-0.1064 0.17792,-0.27761 0.30119,-0.39279 0.11093,-0.0706 0.22208,-0.14197 0.31314,-0.23688 0.1421,-0.12782 0.29564,-0.24214 0.44158,-0.36568 0.12478,-0.0922 0.28078,-0.12724 0.41199,-0.20632 0.11127,-0.095 0.2354,-0.1559 0.3802,-0.18354 0.46291,-0.0455 0.93547,-0.16038 1.39585,-0.0901 0.0374,0.13007 0.0277,0.0642 0.0299,0.1975 0,0 -1.22166,0.0352 -1.22166,0.0352 l 0,0 c 0.0603,-0.0373 0.0425,-0.0468 0.0592,0.0148 -0.5669,0.0617 1.58419,-0.11005 0.95974,-0.0616 -0.12964,0.0116 -0.28601,0.0194 -0.37625,0.122 -0.1174,0.10738 -0.24881,0.12591 -0.38338,0.21166 -0.16522,0.0926 -0.29508,0.23915 -0.44558,0.35267 -0.1128,0.0846 -0.21742,0.18146 -0.34745,0.24094 -0.14211,0.0909 -0.13338,0.25842 -0.25685,0.37609 -0.12849,0.13721 -0.26686,0.26709 -0.37823,0.41797 -0.13748,0.16377 -0.32915,0.2216 -0.49219,0.35745 -0.13363,0.11367 -0.25598,0.2251 -0.33627,0.38319 -0.0462,0.20804 -0.15349,0.38763 -0.21369,0.58819 -0.0395,0.1978 -0.12794,0.38399 -0.23918,0.5527 -0.12804,0.18266 -0.20407,0.39301 -0.24524,0.60856 -0.0481,0.18482 -0.1604,0.35666 -0.16938,0.54558 -0.0207,0.17727 -0.0185,0.35563 -0.047,0.532 -0.007,0.22607 -0.0245,0.43821 0.0624,0.65583 -0.0121,0.19398 -0.0314,0.38957 0.006,0.58152 0.0178,0.23289 0.10778,0.45616 0.16227,0.68232 0.0707,0.21263 0.0471,0.43559 0.13043,0.64345 0.0935,0.21135 0.27348,0.37735 0.37355,0.58702 0.0961,0.12738 0.16518,0.27152 0.26414,0.39759 0.17334,0.0945 0.38252,0.12434 0.54668,0.23994 0.23479,0.10441 0.46454,0.21355 0.6917,0.33099 0.20727,0.0954 0.39652,0.21882 0.62715,0.25961 0.47607,0.0238 0.14454,0.003 -1.03141,0.0866 -0.20471,0.0144 0.54904,-0.0311 0.36249,-0.0546 0.17779,-0.0978 0.34924,-0.20036 0.55613,-0.21251 0.2248,-0.0728 0.41646,-0.19504 0.6318,-0.28061 0.19767,-0.0522 0.40325,-0.12455 0.59378,-0.1566 0.1462,-0.11731 0.29669,-0.2311 0.44748,-0.33775 0.17414,-0.0875 0.32672,-0.19134 0.48168,-0.31118 0.17109,-0.10595 0.35054,-0.20679 0.41256,-0.40888 0.0841,-0.17405 0.2186,-0.28896 0.33981,-0.43595 0.13632,-0.15214 0.26394,-0.32313 0.43386,-0.43874 0.10013,-0.13627 0.16858,-0.27467 0.25574,-0.41966 0.10306,-0.15114 0.0489,-0.36681 0.16821,-0.51767 0.12,-0.21439 0.25799,-0.41395 0.37047,-0.63217 0.0517,-0.17779 0.16347,-0.33061 0.20735,-0.50549 0.0417,-0.15682 0.10441,-0.31596 0.0926,-0.47844 0.0654,-0.18833 -0.047,-0.35605 -0.088,-0.54102 -0.0398,-0.16232 0.0119,-0.32661 -0.0132,-0.49125 -0.0516,-0.18575 -0.2219,-0.30462 -0.26262,-0.49742 4.8e-4,-0.15915 -0.05,-0.31466 -0.1293,-0.45258 -0.0761,-0.1539 -0.1735,-0.29631 -0.28019,-0.43218 -0.14979,-0.18708 -0.31734,-0.36116 -0.48296,-0.53489 -0.20074,-0.14871 -0.41156,-0.28366 -0.58152,-0.46824 -0.2331,-0.16036 -0.46006,-0.32726 -0.67972,-0.50512 -0.1649,-0.13988 -0.31847,-0.3188 -0.54567,-0.35132 -0.18217,-0.009 -0.35908,-0.0364 -0.52963,-0.10243 -0.20749,-0.0717 -0.3998,-0.14298 -0.62654,-0.11215 -0.20109,-0.003 -0.40221,-0.003 -0.60327,-0.006 -0.74586,-0.0122 1.61405,-0.12441 0.77672,-0.0595 -0.21871,0.0244 -0.42273,0.10683 -0.61197,0.21503 -0.16285,0.11854 -0.36533,0.18826 -0.51772,0.32215 -0.16925,0.0785 -0.32083,0.19782 -0.46916,0.30627 -0.10295,0.20129 -0.2706,0.35505 -0.3658,0.5611 -0.1221,0.18871 -0.16242,0.43564 -0.21664,0.65106 0,0 -1.23392,0.0761 -1.23392,0.0761 z"
       id="path3112-1"
       style="fill:#000000;fill-opacity:1"
       inkscape:export-filename="/home/sade/Desktop/screw-comps/images/troops/ping.png"
       inkscape:export-xdpi="90"
       inkscape:export-ydpi="90"
       inkscape:connector-curvature="0" />
    <path
       d="m 119.70234,452.696 c -0.41111,0.29432 -0.71426,0.67676 -0.95905,1.10938 -0.31734,0.67006 -0.47392,1.3981 -0.7629,2.07884 -0.0428,0.0818 -0.0834,0.16473 -0.12843,0.24532 -0.002,0.004 -0.17967,0.35775 -0.22631,0.35842 -1.23487,0.018 -1.28125,0.33118 -1.15077,-0.14641 0.19248,-0.52502 0.4471,-1.03008 0.71272,-1.52331 0.35912,-0.66023 0.75386,-1.30724 1.25051,-1.8776 0.35381,-0.41618 0.62633,-0.2863 1.37828,-0.11487 0.064,0.0146 -0.0147,0.12841 -0.0311,0.19072 -0.0714,0.26897 -0.13991,0.38467 -0.26082,0.64885 -0.42019,0.93132 -0.91161,1.82294 -1.4862,2.6702 -0.0752,0.10233 -0.14907,0.20557 -0.22559,0.30692 -0.0538,0.0712 -0.28987,0.44755 -0.43588,0.43943 -1.28113,-0.0713 -1.28856,0.23177 -1.11393,-0.35526 0.33348,-0.94793 0.81427,-1.83569 1.32503,-2.70164 0.0896,-0.14516 0.17561,-0.2925 0.26889,-0.43543 0.0631,-0.0965 0.48424,-0.74077 0.65251,-0.73999 1.39859,0.007 1.34043,-0.25676 1.23863,0.4121 -0.27252,0.92479 -0.70114,1.80939 -1.20497,2.63419 -0.1007,0.10409 -0.57221,0.87856 -0.74034,0.87939 -0.39165,0.002 -0.78297,-0.023 -1.17445,-0.0345 0.14956,-0.68315 0.59697,-1.28329 0.96942,-1.86779 0.48518,-0.63417 1.05141,-1.56864 1.81344,-1.91204 0.4236,0.0198 0.85882,-0.0394 1.27078,0.0591 0.0823,0.0197 0.0213,0.16576 0.0147,0.24848 -0.057,0.71697 -0.45009,1.4205 -0.72726,2.07208 -0.39626,0.83124 -0.85442,1.63251 -1.38328,2.38949 -0.32512,0.32751 -0.83299,0.15669 -1.32088,0.0464 -0.0654,-0.0147 0.0114,-0.13132 0.0229,-0.19614 0.0706,-0.39533 0.0849,-0.37659 0.23154,-0.79928 0.50022,-1.22277 1.20302,-2.34733 2.00743,-3.39792 0.5308,-0.59128 0.72046,-0.77803 1.77628,-0.29195 0.11534,0.053 -0.0481,0.24583 -0.0874,0.36461 -0.12799,0.38751 -0.28855,0.67904 -0.46986,1.04922 -0.55815,1.03691 -1.23029,2.01219 -2.00054,2.90843 -0.52187,0.59281 -0.66334,0.54538 -1.69514,0.34834 -0.0172,-0.003 0.021,-0.15547 0.0692,-0.36437 0.28626,-0.70019 0.75811,-1.28603 1.25053,-1.85534 0.56132,-0.63813 0.84275,-0.73769 1.89431,-0.6292 0.0589,0.006 0.0609,0.30756 0.0702,0.50775 -0.1471,0.97406 -0.62289,1.86906 -1.08248,2.73367 -0.15612,0.3246 -0.3555,0.62548 -0.5402,0.93424 -0.0399,0.0667 -0.13787,0.25851 -0.15694,0.25846 -0.39721,-4.7e-4 -0.79186,-0.0624 -1.1878,-0.0936 0.12009,-0.30488 0.0528,-0.13456 0.2023,-0.51084 0,0 1.55157,-0.0144 1.55157,-0.0144 l 0,0 c -0.31088,0.38686 -0.16534,0.21012 -0.43477,0.53164 -0.46163,0.0489 -0.92082,0.13197 -1.3849,0.14665 -0.0216,4.7e-4 -0.0535,-0.13504 -0.03,-0.28663 0.0499,-0.3226 0.20028,-0.62877 0.30578,-0.93424 0.39185,-0.91946 0.79565,-1.83427 1.2916,-2.7061 0.0146,-0.0281 0.14824,-0.33867 0.21635,-0.34907 1.50309,-0.22946 1.3186,-0.29835 0.87493,0.41841 -0.46447,0.6157 -0.98431,1.18998 -1.43502,1.81673 -0.0319,0.051 -0.22203,0.35652 -0.22529,0.35709 -1.54141,0.27168 -1.38671,0.38045 -1.10632,-0.3011 0.47176,-1.01188 1.06544,-1.9595 1.67314,-2.8974 0.22781,-0.32808 0.49658,-0.7248 0.74286,-1.04466 0.0956,-0.12405 0.14804,-0.31366 0.2984,-0.36305 1.41307,-0.46409 1.68805,-0.55311 1.35319,0.25222 -0.55392,1.19657 -1.29525,2.2846 -2.024,3.38447 -0.0375,0.0562 -0.64694,0.992 -0.71913,1.00795 -0.25815,0.0569 -1.26507,0.45571 -1.29923,-4.7e-4 0.14799,-0.83215 0.45372,-1.6264 0.83471,-2.38236 0.29892,-0.58005 0.60472,-1.14284 0.96743,-1.68749 0.0263,-0.0396 0.38669,-0.57565 0.42915,-0.58475 0.4111,-0.088 0.83894,-0.0662 1.25841,-0.0992 -0.36469,0.67327 -0.88949,1.25472 -1.3511,1.86245 -0.48848,0.63664 -0.98025,1.27419 -1.52058,1.86878 -1.61839,0.0751 -1.37125,0.28802 -0.93668,-0.81665 0.39446,-0.90535 0.80672,-1.8075 1.36916,-2.62789 0.45118,-0.58593 0.18327,-0.36624 1.55045,-0.43829 0.0329,-9.4e-4 0.006,0.0906 -0.10374,0.35527 -0.15686,0.37506 -0.17902,0.40263 -0.37174,0.79109 -0.46564,0.94229 -1.01345,1.85608 -1.63514,2.70717 -0.46138,0.58079 -0.1349,0.29046 -1.55263,0.37303 -0.0184,4.8e-4 -0.0216,-0.033 -0.0192,-0.0509 0.0169,-0.13011 0.0831,-0.24961 0.13281,-0.37132 0.042,-0.10288 0.0881,-0.20419 0.13221,-0.3063 0.45339,-0.91596 0.93336,-1.82491 1.51217,-2.67159 0.0555,-0.0753 0.57323,-0.83453 0.66038,-0.85107 0.7753,-0.14727 1.36458,-0.45048 1.28014,0.10156 -0.27616,0.67095 -0.70176,1.26404 -1.09847,1.87025 -0.32349,0.50937 -0.61874,1.03407 -0.98872,1.51485 -0.47646,0.74336 -1.56157,0.72298 -1.35111,-0.14961 0.0191,-0.0792 0.0387,-0.15839 0.0581,-0.23758 0.18403,-0.72581 0.3629,-1.45919 0.76128,-2.10805 0.29642,-0.49302 0.65784,-0.92008 1.18728,-1.18547 0,0 1.27933,0.06 1.27933,0.06 z"
       id="path3114-0"
       style="fill:#000000;fill-opacity:1"
       inkscape:export-filename="/home/sade/Desktop/screw-comps/images/troops/ping.png"
       inkscape:export-xdpi="90"
       inkscape:export-ydpi="90"
       inkscape:connector-curvature="0" />
    <path
       d="m 121.11968,455.38424 c -0.18512,0.57512 -0.47296,1.11453 -0.73321,1.65993 -0.55172,0.97769 -0.22883,0.73293 -1.66645,0.7201 -0.0202,-0.65267 0.27686,-1.24841 0.54608,-1.82738 0.143,-0.2373 0.64777,-1.16297 0.9099,-1.27462 0.0236,-0.01 0.047,0.0202 0.0706,0.0303 0.38444,0.0172 0.7782,-0.0326 1.15333,0.0515 0.067,0.0152 -0.0319,0.13103 -0.0502,0.19598 -0.12314,0.43854 -0.28211,0.86469 -0.43417,1.29405 -0.21409,0.37096 -0.31138,0.85301 -0.62578,1.16324 -0.39746,-0.0269 -0.80317,0.003 -1.19236,-0.0809 -0.0571,-0.0123 0.0101,-0.11427 0.0229,-0.17014 0.0989,-0.43956 0.29299,-0.85183 0.47146,-1.26383 0.25712,-0.56363 0.59367,-1.07488 1.03553,-1.51415 1.78549,-1.04237 1.34308,0.14532 1.0833,0.7328 -0.37625,0.7925 -0.3521,0.52355 -1.58028,0.48798 -0.17377,-0.30584 -0.22492,-0.63788 -0.15431,-0.97816 0.0256,-0.24628 0.12389,-0.45007 0.31507,-0.60996 1.11896,-0.12382 1.40048,-0.38592 1.54093,0.60855 0.0508,0.68113 -0.0887,1.32908 -0.33343,1.96263 -0.2321,0.66884 -0.59001,1.28952 -1.13471,1.75675 -0.79564,0.53053 -1.81857,0.43841 -2.73474,0.5002 -0.367,-0.0358 -0.5294,-0.17172 -0.66592,-0.49385 -0.10115,-0.58565 0.0935,-1.1232 0.35641,-1.64005 0.22795,-0.45194 0.52136,-0.86245 0.86787,-1.2335 0.38293,-0.3753 0.87568,-0.20849 1.48698,-0.16059 0.0777,0.006 0.36363,0.54973 0.39169,0.60634 0.21542,0.72239 0.0945,1.43736 -0.12536,2.14078 -0.20991,0.54853 -0.54403,1.04594 -1.04701,1.37015 -0.65039,0.21639 -1.51958,0.44323 -2.12787,0.0433 -0.0834,-0.0548 -0.25864,-0.23051 -0.32594,-0.29534 -0.37167,-0.63867 -0.29096,-1.38443 -0.17264,-2.08029 0.1863,-0.90956 0.6293,-1.72565 1.34476,-2.33419 0.64079,-0.36802 1.18973,-0.29145 2.02229,-0.24774 0.0995,0.006 0.3786,0.43288 0.42125,0.50171 0.2949,0.79864 0.13664,1.62331 -0.10632,2.41231 -0.30457,0.82384 -0.7304,1.5045 -1.54801,1.89795 -1.49707,0.39647 -2.04539,0.33469 -2.52852,-0.86598 -0.28234,-1.01164 0.0222,-1.98745 0.42025,-2.92097 0.30695,-0.5663 0.97813,-1.55896 1.70359,-1.64851 0.61096,-0.0755 1.22854,-0.0843 1.84282,-0.12644 0.86125,0.29518 0.78726,1.24741 0.71529,1.97944 -0.1736,0.98394 -0.57922,1.79682 -1.33433,2.46644 -0.72472,0.5184 -1.43783,0.42463 -2.37932,0.3767 -0.10699,-0.006 -0.39931,-0.25834 -0.45722,-0.30397 -0.72647,-0.65877 -0.83219,-1.57476 -0.78227,-2.49207 0.13915,-0.74318 0.37699,-1.57455 1.08138,-1.99571 0.10463,-0.0627 0.22425,-0.0972 0.33637,-0.14568 1.67407,-0.25141 2.4328,-0.39805 3.10535,0.98612 0.34433,1.07827 -0.10677,2.12726 -0.66589,3.04915 -0.43386,0.5516 -0.99519,1.36814 -1.79329,1.43121 -0.57651,0.0456 -1.15594,0.0431 -1.7339,0.0647 -0.67501,-0.44585 -0.73862,-1.36912 -0.79169,-2.0954 2.1e-4,-0.98547 0.21651,-1.99708 0.77808,-2.83195 0.10408,-0.15464 0.23562,-0.2897 0.35342,-0.43453 0.13387,-0.11394 0.25685,-0.24145 0.40161,-0.34178 0.73456,-0.50914 2.32,-0.74898 3.02195,-0.36268 0.10003,0.0551 0.18011,0.1392 0.27015,0.20879 0.64759,0.73281 0.44368,1.66352 0.11871,2.49072 -0.39982,0.90464 -1.01596,1.66967 -1.92119,2.11384 -1.80507,0.49773 -2.36714,0.35148 -2.83469,-1.13568 -0.30094,-1.12006 -0.0977,-1.93933 0.50301,-2.90561 0.36596,-0.4261 0.81556,-0.69128 1.39061,-0.71296 1.934,-0.073 1.32065,-0.29171 2.21004,0.10958 0.83826,0.65572 0.8305,1.65588 0.70832,2.61364 -0.23117,1.13514 -0.71129,2.19948 -1.46978,3.08684 -0.74773,0.73073 -1.39311,0.71497 -2.53965,0.64405 -0.0755,-0.004 -0.3867,-0.40067 -0.40178,-0.41867 -0.51908,-0.86193 -0.43637,-1.87447 -0.26004,-2.81975 0.23034,-0.82178 0.66775,-1.67053 1.43701,-2.13416 0.1196,-0.0721 0.25687,-0.11109 0.38531,-0.16663 0.79223,-0.13087 1.03544,-0.19255 2.16671,-0.036 0.13092,0.0181 0.20376,0.16733 0.28812,0.26704 0.32829,0.38804 0.39822,0.81643 0.4745,1.29786 0.0547,1.21153 -0.31788,2.17024 -1.1505,3.05335 -0.78369,0.67037 -1.47481,0.62425 -2.59654,0.5432 -0.17239,-0.0124 -0.43093,-0.37206 -0.50715,-0.46209 -0.62367,-1.00813 -0.5468,-2.17792 -0.36991,-3.29751 0.26386,-0.9159 0.54287,-1.95979 1.33489,-2.58903 0.10283,-0.0817 0.22436,-0.13809 0.33653,-0.20715 0.83661,-0.28373 1.96636,-0.53297 2.44595,0.32765 0.13277,0.23823 0.18828,0.54651 0.25168,0.80381 0.0752,1.18333 -0.33482,2.17894 -0.96577,3.16089 -0.35609,0.40324 -0.79482,0.97522 -1.40106,1.00783 -1.76611,0.095 -1.30887,0.37103 -1.9964,-0.17582 -0.71196,-0.86943 -0.60441,-1.94504 -0.37344,-2.96525 0.28619,-0.81675 0.66377,-1.76469 1.48873,-2.20297 0.11459,-0.0608 0.24344,-0.0913 0.36515,-0.13704 0.61006,-0.0356 1.21919,-0.12007 1.8302,-0.10694 0.10621,0.002 0.19297,0.0902 0.27826,0.15223 0.39678,0.2887 0.53243,0.73928 0.62092,1.18921 0.0782,0.87899 -0.26535,1.62761 -0.83853,2.27968 -0.7263,0.59045 -1.1804,0.51454 -2.28287,0.4184 -0.10161,-0.009 -0.3225,-0.32087 -0.36741,-0.37805 -0.38073,-0.63478 -0.42627,-1.35508 -0.36092,-2.07048 0.18434,-0.85372 0.55757,-1.27796 1.42448,-1.46696 1.41675,-0.0887 2.30115,-0.38792 2.79907,0.95246 0.20897,0.56004 0.0262,1.08709 -0.31875,1.54719 -0.63819,0.62246 -1.75256,0.83581 -2.58695,0.461 -0.48309,-0.39521 -0.44653,-1.02987 -0.35371,-1.58507 0.14954,-0.6137 0.52084,-1.09113 1.04681,-1.43965 0.18185,-0.0985 0.33585,-0.19217 0.53492,-0.25761 0.62462,-0.20532 1.76379,-0.17747 2.21574,-0.17121 0.0599,4.8e-4 0.10273,0.0599 0.15409,0.0898 0.37769,0.36048 0.25548,0.82044 0.0728,1.24637 -0.25357,0.41496 -0.58813,0.72459 -1.05574,0.87944 -1.45654,0.11759 -1.52893,0.4042 -2.04642,-0.61422 -0.19394,-0.48552 -0.28834,-0.99629 -0.20189,-1.51237 0.0764,-0.33879 0.22943,-0.63875 0.55254,-0.7975 0.58576,-0.15264 1.25936,-0.13246 1.83237,-0.16581 0.13208,-0.008 0.1007,-0.006 0.21306,0.0478 0.30977,0.10969 0.55535,0.34162 0.73413,0.60698 0.32901,0.51731 0.592,1.07856 0.76747,1.6637 0.13692,0.53273 0.18705,1.0814 0.15728,1.62912 0.024,0.26779 -0.0499,0.5099 -0.13424,0.75793 -0.09,0.27054 -0.11633,0.55463 -0.20293,0.82938 -0.12799,0.38234 -0.30154,0.74511 -0.53302,1.07694 -0.2394,0.33465 -0.48418,0.66721 -0.74787,0.98407 -0.2103,0.27837 -0.42556,0.55374 -0.66455,0.80924 -0.16984,0.1643 -0.35627,0.31053 -0.52893,0.47201 -0.1115,0.12599 -0.24633,0.21131 -0.40367,0.27027 -0.40835,0.14059 -0.39479,0.0586 -1.21672,-0.0746 -0.0688,-0.0111 0.077,-0.11406 0.11436,-0.1718 0.19806,-0.2478 0.40511,-0.47746 0.55787,-0.75565 0.26758,-0.3799 0.47258,-0.79627 0.75036,-1.17072 0.21134,-0.25806 0.44491,-0.4923 0.71258,-0.69385 1.50906,-0.85575 1.29348,-0.1575 1.19196,0.39185 -0.0303,0.21156 -0.13406,0.3844 -0.23905,0.56562 -0.15881,0.21598 -0.29653,0.44874 -0.43571,0.67852 -0.12717,0.25624 -0.33107,0.45934 -0.49438,0.69041 -0.12649,0.15033 -0.25615,0.27611 -0.45063,0.32626 -0.84175,0.15471 -2.83957,0.11707 -0.37941,0.0428 0.23571,-0.007 -0.25434,0.0721 -0.3674,0.10409 -0.56047,0.17613 -1.06898,0.11334 -1.69786,0.13273 -0.23829,-0.0853 -0.47372,-0.14384 -0.71125,-0.23133 -0.30596,-0.10079 -0.52165,-0.31863 -0.75317,-0.52408 -0.34825,-0.32782 -0.50682,-0.72969 -0.60869,-1.18247 -0.12694,-0.45383 -0.0101,-0.88697 0.0679,-1.33401 0.0865,-0.38209 0.22762,-0.74923 0.28547,-1.13689 0.039,-0.32801 0.0622,-0.65723 0.0651,-0.98752 0.11926,-0.1651 1.5e-4,-0.29973 0.0183,-0.45483 1.17814,-0.14783 1.31675,-0.32464 1.12974,0.43603 -0.17568,0.34049 -0.18347,0.72185 -0.23262,1.09191 -0.019,0.42844 -0.1007,0.8379 -0.11183,1.26803 0.004,0.36681 0.10947,0.72459 0.22801,1.07026 0.16493,0.35812 0.3313,0.71682 0.50335,1.07286 0.0743,0.22386 0.15102,0.43339 0.28366,0.62998 0.0962,0.0391 0.0899,0.10222 0.0773,0.20721 -1.25207,0.84289 -1.04152,0.25607 -1.39676,-0.13747 -0.2988,-0.23735 -0.45811,-0.5805 -0.6367,-0.90402 -0.23379,-0.38446 -0.12792,-0.82323 -0.17802,-1.24104 0.003,-0.36132 0.0363,-0.72186 0.0428,-1.08415 0.0551,-0.35804 -0.0159,-0.72025 0.0548,-1.07471 0.079,-0.35103 0.14136,-0.70708 0.1793,-1.06453 0.0162,-0.25802 0.0277,-0.53061 0.13426,-0.77061 0.0778,-0.24806 0.18754,-0.47472 0.33704,-0.68835 0.24769,-0.26805 0.59254,-0.4143 0.89973,-0.60301 0.15367,-0.0912 0.26275,-0.23698 0.42681,-0.30951 0.41474,-0.14773 0.69332,-0.0218 1.2671,0.0587 0.0619,0.009 -0.0443,0.1144 -0.0657,0.17182 -0.21833,0.41222 -0.41323,0.83479 -0.58621,1.26741 -0.2025,0.59391 -0.19796,1.22009 -0.24983,1.83714 -0.0835,0.44657 0.0294,0.88544 0.0571,1.32912 0.079,0.1943 0.0527,0.46895 0.2492,0.58538 0.0156,0.007 0.0361,0.008 0.047,0.0208 0.1912,0.22842 -0.64136,0.15464 -1.20608,0.14277 -0.0844,-9.5e-4 -0.10609,-0.12946 -0.14987,-0.20021 -0.28868,-0.46158 -0.44518,-0.99699 -0.56741,-1.52184 -0.0727,-0.49291 0.0259,-0.98055 0.0675,-1.47004 0.067,-0.30163 0.22543,-0.56527 0.37641,-0.83184 0.16009,-0.28075 0.36475,-0.52968 0.51896,-0.8141 0.11691,-0.19484 0.22895,-0.38116 0.4215,-0.51123 0.0581,-0.0836 0.19472,-0.10431 0.23928,-0.19387 -0.0801,-0.076 -0.1662,-0.18101 -0.26115,-0.24933 -0.0572,-0.0582 -0.0734,-0.0603 -0.13422,-0.021 0.37788,-0.0232 0.75501,-0.0659 1.13361,-0.0695 0.0259,-2.2e-4 -0.0344,0.038 -0.048,0.0597 -0.0228,0.0365 -0.0406,0.0761 -0.0609,0.11402 -0.22317,0.29905 -0.38488,0.62824 -0.49853,0.9802 -0.16429,0.55654 -0.24462,1.13268 -0.34369,1.70282 -0.11206,0.50666 -0.26142,1.0059 -0.35439,1.51636 -0.085,0.29294 -0.0461,0.59365 0.0845,0.86732 0.128,0.26573 0.36434,0.45364 0.53226,0.69296 0.13788,0.14287 0.25572,0.30382 0.35014,0.47721 0.0223,-0.0144 0.004,0.0452 0.0199,0.042 0.55105,-0.11894 -1.43672,0.30835 -0.98678,-0.011 0.0754,-0.12343 0.0337,-0.057 0.12613,-0.19839 0,0 1.29854,7.1e-4 1.29854,7.1e-4 l 0,0 c -0.12267,0.14086 -0.0652,0.0666 -0.17203,0.2236 -0.36334,0.35529 -1.12083,0.4623 -1.475,0.098 -0.16793,-0.13849 -0.32614,-0.29069 -0.4508,-0.46861 -0.203,-0.2218 -0.41536,-0.44644 -0.53899,-0.72184 -0.1415,-0.29693 -0.18088,-0.60953 -0.15862,-0.93551 0.0381,-0.5104 0.1097,-1.01401 0.22692,-1.51378 0.08,-0.59363 0.24114,-1.16703 0.42451,-1.7371 0.16673,-0.36006 0.34953,-0.70931 0.60857,-1.01436 0.036,-0.0401 0.0731,-0.0797 0.10801,-0.1207 0.0277,-0.0326 0.0379,-0.0921 0.0805,-0.10001 0.40034,-0.0742 1.07875,-0.38062 1.45462,-0.0341 0.0739,0.0996 0.20971,0.19269 0.20264,0.32422 0.0443,0.16235 -0.0285,0.25168 -0.17714,0.32794 -0.16551,0.12014 -0.2617,0.26452 -0.35799,0.44316 -0.10306,0.31525 -0.29964,0.56925 -0.48983,0.83821 -0.1859,0.22961 -0.31345,0.46149 -0.33212,0.76109 -0.0217,0.47253 -0.0237,0.95147 0.0465,1.41994 0.13055,0.50537 0.24496,1.01462 0.38235,1.51797 0.007,0.0403 0.0125,0.0814 0.0229,0.12109 0.007,0.0284 0.0601,0.0766 0.0309,0.0823 -0.38012,0.0734 -0.77182,0.0731 -1.15413,0.13458 -0.0386,0.006 0.0218,0.12526 -0.10115,0.0182 -0.21175,-0.16338 -0.31503,-0.42433 -0.37968,-0.67346 -0.1024,-0.4403 -0.19981,-0.89672 -0.19346,-1.34807 0.0218,-0.63219 0.0253,-1.2814 0.24175,-1.88318 0.19065,-0.46954 0.4585,-0.90841 0.79659,-1.29112 0.027,-0.033 0.0563,-0.064 0.0808,-0.0985 0.0183,-0.0257 0.0156,-0.0796 0.0477,-0.0818 2.41877,-0.17611 1.55546,-0.0896 1.15208,0.003 -0.16114,0.0525 -0.21692,0.14913 -0.3201,0.28127 -0.26154,0.23015 -0.60207,0.35454 -0.8733,0.57309 -0.18964,0.18867 -0.33369,0.40161 -0.42038,0.65261 -0.10149,0.23755 -0.0121,0.47247 -0.0502,0.72748 -0.0282,0.36314 -0.0725,0.72101 -0.17373,1.07324 -0.0421,0.3505 -0.0399,0.70634 -0.0397,1.05886 -0.0257,0.35436 -0.0663,0.70782 -0.0462,1.06361 0.0437,0.40211 0.0124,0.82151 0.21071,1.19144 0.1411,0.31354 0.29715,0.6169 0.47928,0.90979 0.0181,0.0419 0.024,0.0881 0.0436,0.12952 0.004,0.009 0.0333,0.0184 0.0233,0.0191 -2.45924,0.19119 -1.44046,0.0119 -1.06926,0.0755 0.0499,0.1638 -0.0369,0.0482 -0.13443,0.007 -0.18207,-0.18808 -0.26459,-0.42964 -0.4098,-0.64379 -0.18557,-0.35475 -0.35517,-0.71571 -0.50393,-1.08732 -0.14104,-0.35361 -0.19065,-0.7329 -0.21715,-1.1102 -0.0601,-0.43568 0.006,-0.85542 0.0764,-1.28612 0.0246,-0.39145 0.11048,-0.77311 0.28328,-1.12889 0.35969,-0.67783 0.0734,-0.4729 1.37122,-0.55665 0.13777,0.12156 0.16678,0.28713 0.12322,0.4603 -0.002,0.33451 0.0112,0.67088 -0.0318,1.00369 -0.0577,0.3875 -0.13157,0.76981 -0.2713,1.1385 -0.0673,0.42594 -0.12038,0.85287 -0.0162,1.27896 0.0906,0.40457 0.20036,0.81355 0.5121,1.11249 0.21176,0.20543 0.42461,0.39652 0.71913,0.4802 0.20937,0.0876 0.43084,0.14129 0.63849,0.23398 -2.28872,0.17081 -1.18295,0.16255 -0.77347,0.0197 0.59387,-0.23343 0.95817,-0.10782 1.74204,-0.24393 0.37325,-0.0647 -0.75609,0.054 -1.13411,0.0817 -0.0406,0.003 0.0814,-0.006 0.1219,-0.008 0.23548,-0.0138 0.32818,-0.0312 0.45644,-0.2323 0.18035,-0.19339 0.27799,-0.45994 0.42823,-0.67555 0.15783,-0.237 0.34047,-0.45807 0.50657,-0.68911 0.13914,-0.1435 0.217,-0.32016 0.23609,-0.51635 0.20683,-0.65385 0.20164,-0.32231 1.32819,-0.40001 0.008,-4.7e-4 -0.0115,-0.0132 -0.0171,-0.0199 -0.16934,0.22911 -0.36746,0.43558 -0.52587,0.67176 -0.26921,0.38856 -0.51188,0.79736 -0.81556,1.16178 -0.1881,0.27356 -0.37317,0.54276 -0.62481,0.7658 -0.0142,0.0177 -0.13027,0.17934 -0.17798,0.18214 -2.64111,0.15547 -1.58905,0.0975 -1.19553,-4.7e-4 0.11979,-0.048 0.24888,-0.10805 0.31674,-0.21904 0.15005,-0.17935 0.35543,-0.28856 0.50139,-0.46612 0.20675,-0.26514 0.40153,-0.53697 0.60197,-0.8074 0.26102,-0.316 0.49081,-0.65589 0.74291,-0.97909 0.2587,-0.30622 0.39501,-0.67119 0.5347,-1.04023 0.12967,-0.26742 0.22586,-0.54384 0.30177,-0.83006 0.11652,-0.27783 0.10441,-0.39577 0.0535,-0.69984 -0.10161,-0.53047 -0.19274,-1.06419 -0.35329,-1.58191 -0.16723,-0.55194 -0.31716,-1.11235 -0.54892,-1.64249 -0.16104,-0.22365 -0.37357,-0.44292 -0.64533,-0.52958 -0.43503,-0.0334 -1.20188,0.0684 0.89909,-0.0854 0.39483,-0.0289 -0.74404,-9.4e-4 -0.40247,0.0424 -0.39109,0.0866 -0.37415,0.29755 -0.46703,0.64758 -0.006,0.49514 0.0648,0.97455 0.21695,1.44909 0.0426,0.16352 0.0752,0.37181 0.21527,0.49133 0.1174,0.10012 0.29013,0.0722 0.25634,0.0759 -0.38484,0.0424 -0.77171,0.0646 -1.15756,0.0971 0.43578,-0.0982 0.68774,-0.41167 0.92241,-0.76844 0.18682,-0.32074 0.50718,-0.7806 0.0632,-1.03157 -0.57078,-0.13137 -0.25556,-0.0386 0.99041,-0.14552 0.0831,-0.007 -0.16626,0.0118 -0.24882,0.0225 -0.30737,0.0401 -0.59576,0.12354 -0.86447,0.27944 -0.52837,0.27935 -0.84306,0.75773 -1.00992,1.31837 -0.10261,0.46827 -0.23564,1.07162 0.21178,1.40658 0.5425,0.17913 0.26675,0.0613 -0.9748,0.16842 -0.0588,0.006 0.11836,-0.009 0.17501,-0.0245 0.22949,-0.0644 0.42435,-0.19808 0.58889,-0.3638 0.32938,-0.42194 0.54453,-0.86693 0.34532,-1.39823 -0.12742,-0.22874 -0.24516,-0.47906 -0.46852,-0.63663 -0.28229,-0.19913 -0.62542,-0.20239 -0.56099,-0.21808 0.3826,-0.0933 0.78365,-0.0857 1.17548,-0.12857 -0.89277,0.10233 -1.16193,0.41222 -1.3672,1.27205 -0.10295,0.65768 -0.0755,1.35123 0.19111,1.97208 0.0457,0.061 0.0844,0.12769 0.13726,0.18299 0.0446,0.0468 0.21607,0.1054 0.1526,0.1208 -0.38095,0.0924 -0.78132,0.0753 -1.17034,0.12626 -0.0623,0.008 0.12857,0.0205 0.18859,0.002 0.1476,-0.0452 0.26913,-0.20379 0.36529,-0.3047 0.5056,-0.63225 0.85055,-1.33016 0.85562,-2.15132 -0.038,-0.31672 -0.0725,-0.63352 -0.30751,-0.88038 -0.23906,-0.25106 -0.53777,-0.25584 -0.51407,-0.26153 0.38328,-0.0915 0.7847,-0.0807 1.17706,-0.12101 -0.10294,0.0324 -0.21276,0.0489 -0.30892,0.0975 -0.75593,0.38167 -0.92755,1.39638 -1.24449,2.08168 -0.24369,0.90316 -0.55597,1.95491 -0.006,2.80926 0.56433,0.35034 0.33416,0.13912 -0.94205,0.29588 -0.0881,0.011 0.18139,-0.006 0.26339,-0.0392 0.37874,-0.15406 0.61262,-0.55121 0.85304,-0.84657 0.53922,-0.94287 1.04365,-1.95412 1.10317,-3.05093 -0.0228,-0.29873 -0.009,-0.47399 -0.12408,-0.74882 -0.0371,-0.0888 -0.0832,-0.17721 -0.1497,-0.24749 -0.0547,-0.0577 -0.28169,-0.10507 -0.20412,-0.1258 0.30175,-0.0804 1.77725,-0.23118 0.93443,-0.0823 -0.84019,0.59778 -1.01055,1.74886 -1.3076,2.65801 -0.1983,1.0571 -0.43589,2.15563 -0.009,3.19179 0.0583,0.082 0.10227,0.17608 0.17532,0.24588 0.0612,0.0586 0.30097,0.10749 0.21887,0.13086 -0.37643,0.10705 -0.77775,0.0965 -1.16732,0.13881 -0.0777,0.008 0.1586,-0.009 0.23156,-0.037 0.21399,-0.081 0.31967,-0.22627 0.47713,-0.38325 0.68934,-0.81993 1.01605,-1.86861 1.10726,-2.91825 -0.0121,-0.43125 -0.009,-0.84255 -0.30078,-1.19862 -0.0677,-0.0826 -0.34324,-0.1688 -0.24356,-0.20995 0.36759,-0.15164 0.79061,-0.10639 1.18282,-0.1776 0.10092,-0.0182 -0.20496,0.0125 -0.30747,0.0187 -0.10283,0.0424 -0.21387,0.0695 -0.30855,0.12728 -0.70781,0.43263 -1.07145,1.27709 -1.31432,2.01624 -0.18465,0.89007 -0.36642,1.83416 -0.0446,2.71493 0.0457,0.0717 0.0781,0.15356 0.13729,0.2151 0.0466,0.0486 0.23889,0.0916 0.17265,0.10717 -0.3822,0.0905 -0.77992,0.10254 -1.17217,0.12919 -0.0687,0.004 0.13565,-0.031 0.19633,-0.0628 0.23843,-0.12514 0.30088,-0.23501 0.48501,-0.43763 0.63839,-0.91103 1.03411,-1.94702 1.36259,-3.00013 0.16037,-0.85668 0.38952,-1.83934 -0.44654,-2.42508 -0.72546,-0.25338 -0.3387,-0.0652 0.8478,-0.24906 0.1177,-0.0184 -0.23952,-0.008 -0.35745,0.009 -0.39546,0.0566 -0.68632,0.24644 -0.92376,0.55632 -0.54255,0.94011 -0.66932,1.70527 -0.52025,2.781 0.0395,0.20553 0.095,0.57094 0.18621,0.77263 0.039,0.0863 0.0902,0.17066 0.16014,0.23546 0.0608,0.0563 0.30143,0.0963 0.22055,0.11709 -0.29474,0.0756 -1.80854,0.21805 -0.9104,0.08 0.82191,-0.4241 1.32511,-1.20721 1.73061,-2.00299 0.33081,-0.72871 0.76522,-1.61378 0.12479,-2.29713 -0.0891,-0.0532 -0.17009,-0.1225 -0.26731,-0.15965 -0.10239,-0.0391 -0.43069,-0.0447 -0.32291,-0.0658 0.38807,-0.0764 0.78701,-0.0965 1.18276,-0.10331 0.11703,-0.002 -0.23144,0.0441 -0.33924,0.0888 -0.32983,0.13658 -0.44397,0.27527 -0.7161,0.50802 -0.10441,0.13408 -0.22313,0.25848 -0.31306,0.40227 -0.51866,0.82918 -0.7221,1.79781 -0.8272,2.75021 -0.024,0.40548 -0.15239,1.53297 0.2466,1.82704 0.0648,0.0478 0.15214,0.0554 0.2282,0.0831 -0.39613,0.0425 -0.7909,0.0999 -1.18841,0.12747 -0.0985,0.007 0.19691,-0.0288 0.28826,-0.0651 0.10609,-0.0422 0.2054,-0.10145 0.29735,-0.16822 0.3904,-0.28363 0.64033,-0.69344 0.90746,-1.08092 0.42175,-0.6873 0.98938,-1.69518 0.98174,-2.52022 -9.6e-4,-0.12934 -0.039,-0.25585 -0.0586,-0.3838 -0.14412,-0.32242 -0.27562,-0.5899 -0.59455,-0.7818 -0.0919,-0.0553 -0.39687,-0.0976 -0.29458,-0.13122 0.37376,-0.12271 0.7836,-0.0892 1.17172,-0.15677 0.10386,-0.0181 -0.21094,0.006 -0.31641,0.008 -0.10206,0.0334 -0.21249,0.0481 -0.30609,0.10002 -0.65251,0.36182 -0.77979,1.21848 -0.89544,1.86261 -0.0925,0.8374 -0.12466,1.69597 0.47531,2.37342 0.062,0.0538 0.1171,0.11601 0.18573,0.16124 0.0597,0.0394 0.2656,0.0744 0.1954,0.09 -0.37896,0.0841 -0.7735,0.0745 -1.15881,0.1237 -0.0642,0.008 0.1313,0.014 0.19439,-4.7e-4 0.15224,-0.0351 0.32023,-0.17959 0.43436,-0.26177 0.65003,-0.65784 0.96382,-1.48448 1.18925,-2.36305 0.11538,-0.45931 0.43651,-1.40175 -0.19275,-1.67415 -0.0924,-0.0399 -0.19832,-0.0373 -0.29748,-0.056 0.39394,-0.0373 0.78604,-0.11238 1.18182,-0.11189 0.11194,1.5e-4 -0.21666,0.061 -0.31522,0.11295 -0.55724,0.29338 -0.88266,0.89639 -1.18521,1.40978 -0.40175,0.88825 -0.74028,1.82785 -0.64868,2.81618 0.0616,0.21928 0.0871,0.37912 0.21125,0.5722 0.043,0.0667 0.0954,0.12947 0.1577,0.17963 0.0534,0.043 0.25046,0.0802 0.18306,0.0949 -0.006,4.7e-4 -1.7358,0.17517 -0.97113,0.0984 0.67616,-0.37819 0.96561,-1.11412 1.27621,-1.77948 0.24019,-0.74196 0.53224,-1.52356 0.40171,-2.31283 -0.0632,-0.1364 -0.0838,-0.22734 -0.20325,-0.32463 -0.04,-0.0326 -0.18901,-0.063 -0.13778,-0.0724 0.38545,-0.0708 0.78033,-0.0775 1.1704,-0.1173 0.0596,-0.006 -0.12321,-0.006 -0.17909,0.0162 -0.0653,0.0248 -0.11497,0.0785 -0.17245,0.11772 -0.59846,0.62061 -0.96262,1.42842 -1.21198,2.23805 -0.1567,0.61461 -0.41835,1.35667 -0.1107,1.95852 0.13695,0.14072 0.26524,0.26972 0.46788,0.31409 0.0623,0.0136 0.25424,0.008 0.19084,0.0151 -1.94093,0.2164 -1.40361,0.13371 -0.95979,0.061 0.47511,-0.26947 0.68297,-0.77728 0.86517,-1.26464 0.18589,-0.66733 0.37949,-1.36156 0.23706,-2.05482 -0.0251,-0.10694 -0.0716,-0.32997 -0.11715,-0.44325 -0.0124,-0.0307 -0.0852,-0.0788 -0.0521,-0.0846 0.3757,-0.0652 0.75981,-0.0696 1.13973,-0.10419 -0.0789,-0.0182 -0.038,-0.0232 -0.11542,0.0423 -0.17837,0.42062 -0.41059,0.81294 -0.62419,1.21662 -0.26977,0.48182 -0.5269,0.98575 -0.56412,1.54399 0.0462,0.34216 0.39122,0.28725 0.67675,0.31196 -2.37692,0.16336 -0.94339,0.11351 -0.45502,-0.0253 0.18789,-0.0533 0.2465,-0.10474 0.41159,-0.20525 0.50375,-0.45417 0.76151,-1.06258 0.98287,-1.6869 0.25751,-0.61673 0.50749,-1.24187 0.55517,-1.91389 0.0875,-0.83626 -0.67494,-0.56587 1.0516,-0.67374 -0.14701,0.14978 -0.19162,0.32035 -0.2131,0.52502 -0.0297,0.30911 0.0185,0.60715 0.0914,0.90959 -1.22505,0.15331 -1.30613,0.45973 -1.0569,-0.32745 0.4047,-0.9364 0.27582,-0.76123 1.65111,-0.80429 0.0178,-4.7e-4 -0.0207,0.0288 -0.031,0.0431 -0.25512,0.49417 -0.50689,0.98966 -0.76381,1.48269 -0.22482,0.42788 -0.43262,0.85404 -0.69945,1.25779 -0.0409,0.0619 -0.0425,0.17433 -0.11616,0.18997 -0.425,0.0904 -0.8665,0.0739 -1.29974,0.11088 -0.0143,-0.38696 0.21825,-0.76016 0.29623,-1.12945 0.0714,-0.23383 0.5193,-1.46662 0.75846,-1.52522 0.41531,-0.10177 0.8498,-0.10232 1.27469,-0.15356 0.024,0.0142 0.0623,0.0169 0.0726,0.0425 0.0686,0.16788 -0.49642,1.09379 -0.57211,1.26304 -0.31694,0.59674 -0.59625,1.21294 -0.94503,1.79297 -1.31513,0.15625 -1.48744,0.42749 -1.09491,-0.62675 0.26404,-0.60406 0.51439,-1.21939 1.00884,-1.68605 0,0 1.25463,-0.006 1.25463,-0.006 z"
       id="path3116-0"
       style="fill:#000000;fill-opacity:1"
       inkscape:export-filename="/home/sade/Desktop/screw-comps/images/troops/ping.png"
       inkscape:export-xdpi="90"
       inkscape:export-ydpi="90"
       inkscape:connector-curvature="0" />
    <path
       d="m 119.95608,458.76385 c -0.20868,0.30865 -0.52898,0.50485 -0.80924,0.74305 -0.15783,0.1308 -0.33475,0.26219 -0.53527,0.32181 -0.51666,0.0554 -1.16291,0.2855 -1.6463,0.0122 -0.17253,-0.0697 -0.3559,-0.0973 -0.53784,-0.13328 -0.56339,0.0471 1.8597,-0.36465 0.77249,0.0573 -0.16024,0.0459 -0.19121,0.13069 -0.17422,-0.0865 0.0688,-0.01 0.13851,-0.006 0.2078,-0.009 -1.73809,0.58163 -1.33489,0.12562 -0.89921,-0.0663 0,0 1.21879,0.0615 1.21879,0.0615 l 0,0 c -0.53126,0.24105 -0.4929,0.28708 -1.48454,0.26064 -0.0619,-0.004 -0.12619,0.007 -0.1857,-0.0129 -0.0328,-0.18239 -0.0435,-0.14797 0.0946,-0.21187 0.51016,-0.23058 1.04519,-0.40245 1.64755,-0.23495 0.19594,0.0256 0.38971,0.0668 0.56241,0.16598 0.0769,0.0316 0.12382,0.041 0.20665,0.037 0.0245,-9.4e-4 0.0975,-0.006 0.0733,-0.004 -1.20706,0.0907 -1.49987,0.11938 -1.07527,0.0784 0.18419,-0.0245 0.29829,-0.12973 0.43578,-0.2536 0.24092,-0.29607 0.56507,-0.49728 0.85464,-0.74442 0,0 1.27374,0.0197 1.27374,0.0197 z"
       id="path3118-7"
       style="fill:#000000;fill-opacity:1"
       inkscape:export-filename="/home/sade/Desktop/screw-comps/images/troops/ping.png"
       inkscape:export-xdpi="90"
       inkscape:export-ydpi="90"
       inkscape:connector-curvature="0" />
    <path
       d="m 116.65363,453.41785 c 2.17307,-0.20543 0.93921,-0.0597 0.4345,0.15064 -0.29347,0.15904 -0.48244,0.44974 -0.7213,0.67511 -0.25716,0.17853 -0.43269,0.34221 -0.50738,0.64111 -0.0999,0.28394 -0.14309,0.58085 -0.24003,0.86749 -0.21653,0.423 -0.46003,0.82727 -0.66155,1.2586 -0.14952,0.36037 -0.12223,0.75126 -0.15623,1.13049 -0.0473,0.35416 0.13449,0.64313 0.25738,0.95893 0.13368,0.24066 0.27068,0.47163 0.43793,0.69123 0.0655,0.0747 0.10767,0.16502 0.12707,0.26143 0.003,0.0156 -0.007,0.0532 0.006,0.047 0.0193,-0.008 0.0137,-0.0389 0.0206,-0.0585 -0.3781,0.0227 -0.75601,0.0484 -1.13429,0.0678 -0.0475,0.002 0.0969,-0.0331 0.0584,0.009 -0.0137,0.0149 -0.059,-0.11001 -0.0607,-0.11479 -0.0487,-0.12177 -0.0707,-0.2347 -0.0313,-0.3602 0.0582,-0.004 0.004,-0.0813 0.062,-0.1176 0.41317,-0.0292 0.8263,-0.0586 1.23946,-0.0877 0.19,-0.0247 0.33955,0.0509 0.51042,0.12294 0.13596,0.0394 0.27782,0.052 0.41859,0.0619 0.0611,0.004 0.24471,0.006 0.18358,0.01 -1.69878,0.13235 -1.43615,0.10277 -0.95684,0.0405 0.46934,-0.13172 0.89571,-0.37669 1.29315,-0.64923 0.28189,-0.22613 0.14244,-0.11346 0.41839,-0.33794 0,0 1.43136,0.0319 1.43136,0.0319 l 0,0 c -0.25513,0.22746 -0.12557,0.1097 -0.38833,0.35372 -0.43594,0.29775 -0.90244,0.55705 -1.4158,0.70284 -0.72036,0.15322 -1.51937,0.27166 -2.22183,0.007 -0.15243,-0.0589 -0.28701,-0.10562 -0.45453,-0.0811 0.37304,-0.0277 0.74639,-0.0519 1.11913,-0.0832 0.0121,-4.7e-4 -0.0288,9.4e-4 -0.0355,-0.008 -0.0168,-0.0245 -0.0182,-0.0563 -0.0277,-0.0843 -0.0121,-0.0354 0.0447,0.13727 0.0178,0.11086 -0.0285,-0.007 0.0151,0.20707 0.0399,0.25155 0.23507,0.61197 -0.74093,0.40048 -1.22566,0.38916 -0.0793,-0.10815 -0.12477,-0.24084 -0.24212,-0.31769 -0.22253,-0.20293 -0.37254,-0.46054 -0.51039,-0.72361 -0.16512,-0.31666 -0.30429,-0.65255 -0.28535,-1.01487 -0.0169,-0.39396 0.0296,-0.78941 0.12427,-1.1726 0.12954,-0.47196 0.38455,-0.86791 0.66987,-1.26414 0.13805,-0.27727 0.24339,-0.56459 0.33328,-0.85989 0.11296,-0.27691 0.10902,-0.54366 0.42585,-0.70199 0.24556,-0.25139 0.51353,-0.48749 0.76948,-0.72437 0.67808,-0.27653 1.30428,-0.34516 2.08469,-0.3448 0,0 -1.20656,0.26422 -1.20656,0.26422 z"
       id="path3120-7"
       style="fill:#000000;fill-opacity:1"
       inkscape:export-filename="/home/sade/Desktop/screw-comps/images/troops/ping.png"
       inkscape:export-xdpi="90"
       inkscape:export-ydpi="90"
       inkscape:connector-curvature="0" />
    <path
       d="m 119.10183,458.94052 c 0.0563,0.25206 -0.0314,0.4962 -0.11409,0.7324 -0.0573,0.13694 -0.097,0.29047 -0.23528,0.36745 -0.5102,0.23144 -1.05477,0.14635 -1.53351,-0.0431 -0.11048,-0.0619 -0.23588,-0.0618 -0.35951,-0.0752 -0.0686,-0.009 -0.13719,2.2e-4 -0.20608,2.4e-4 -0.0208,-0.16814 0.0642,-0.27669 0.15512,-0.42167 0.23135,-0.32222 0.34004,-0.67092 0.40885,-1.05356 0.0805,-0.58694 0.18086,-1.17003 0.22105,-1.76145 0.058,-0.61371 -0.0581,-1.22641 -0.0602,-1.84111 -0.0228,-0.26548 0.046,-0.53471 0.0319,-0.79833 0.0112,-0.13207 -0.002,-0.26144 0.016,-0.3933 0.006,-0.0523 -0.15097,-0.13644 -0.23733,-0.17815 -0.10643,-0.023 -0.20302,-0.14886 -0.0865,-0.23283 1.27407,-0.0441 1.26347,-0.25214 1.35997,0.67226 0.0398,0.43389 0.1467,0.85819 0.20097,1.29132 0.0121,0.4151 0.0566,0.80998 0.14752,1.2148 0.0971,0.38475 0.0951,0.77921 0.11228,1.17202 0.0169,0.32433 -0.052,0.62917 -0.15489,0.93499 -0.0402,0.27641 -0.11649,0.54257 -0.18922,0.81245 -0.0455,0.22603 -0.13708,0.41447 -0.25178,0.61146 -0.0527,0.0886 -0.10902,0.17505 -0.16953,0.25872 -0.30165,0.33788 -0.981,0.32514 -1.29174,0.0192 -0.0556,-0.0534 -0.0862,-0.10869 -0.10992,-0.17972 -0.0146,-0.0776 -0.009,-0.0311 -0.002,-0.1402 0,0 1.22575,-0.0339 1.22575,-0.0339 l 0,0 c -0.0517,0.05 -0.043,0.0218 -0.0428,0.0778 0.0196,0.0212 0.0855,0.0796 0.12267,0.1101 0.36035,0.35903 -1.0568,0.57389 -1.06863,0.17499 0.0134,-0.0954 0.0425,-0.18745 0.0872,-0.27378 0.10879,-0.18634 0.17493,-0.36315 0.20342,-0.58053 0.0842,-0.26505 0.12644,-0.53813 0.18863,-0.80871 0.0554,-0.29825 0.17013,-0.58756 0.10486,-0.89498 -0.0125,-0.38498 -0.0678,-0.76772 -0.12555,-1.14843 -0.0826,-0.40559 -0.17406,-0.80775 -0.18367,-1.22359 -0.054,-0.4347 -0.16161,-0.86676 -0.15362,-1.30572 0.0215,-0.88024 -0.19175,-0.61298 1.16,-0.67078 -0.11502,-0.034 -0.0523,-0.20909 0.12924,-0.0573 0.10733,0.0708 0.20146,0.17567 0.22364,0.30499 0.0175,0.12965 0.002,0.25701 0.0206,0.38622 0.004,0.26009 0.12585,0.51916 0.15784,0.77672 0.12585,0.61123 0.20474,1.24006 0.14926,1.86355 -0.072,0.60035 -0.18115,1.19091 -0.30857,1.7816 -0.10048,0.42031 -0.25854,0.79594 -0.5558,1.12091 -0.0737,0.0685 -0.15415,0.14213 -0.22073,0.21727 -0.0119,0.0134 -0.0121,0.0568 -0.0267,0.0464 -0.0312,-0.0225 -0.0428,-0.0654 -0.051,-0.10244 -0.002,-0.009 0.0183,-0.002 0.0274,-0.003 0.0725,-4.7e-4 0.14384,0.007 0.21624,0.01 0.14258,0.0124 0.27574,0.0473 0.40675,0.10497 0.80597,0.38028 -1.35393,0.18004 -0.88281,0.19274 0.17779,-0.0343 0.11318,-0.0909 0.14842,-0.25772 0.0555,-0.23542 0.16145,-0.4556 0.16195,-0.70017 0,0 1.23391,-0.0761 1.23391,-0.0761 z"
       id="path3122-7"
       style="fill:#000000;fill-opacity:1"
       inkscape:export-filename="/home/sade/Desktop/screw-comps/images/troops/ping.png"
       inkscape:export-xdpi="90"
       inkscape:export-ydpi="90"
       inkscape:connector-curvature="0" />
    <path
       d="m 118.02658,455.19391 a 1.0311537,1.0102051 0 1 1 -0.0116,-0.15069"
       id="path3124-1"
       style="fill:#ffffff;fill-opacity:1"
       inkscape:export-filename="/home/sade/Desktop/screw-comps/images/troops/ping.png"
       inkscape:export-xdpi="90"
       inkscape:export-ydpi="90"
       inkscape:connector-curvature="0" />
    <path
       d="m 117.10124,450.84877 c 0.39564,-0.16863 0.79523,-0.2714 1.2216,-0.33263 0.35262,-0.0675 0.70046,-0.0861 1.03912,0.0452 0.18325,0.0896 0.38081,0.13294 0.55478,0.24144 0.15422,0.0915 0.21863,0.2506 0.29049,0.40191 0.0101,0.0748 0.0994,0.008 0.19974,0.22253 0.10689,0.0777 0.19588,0.22253 0.29493,0.33104 0.04,0.12508 0.0642,0.19864 0.15628,0.28528 0.0174,0.0123 0.0284,0.0324 0.0391,0.051 0,0 -1.20241,2.28403 -1.20241,2.28403 l 0,0 c -0.0596,-0.006 -0.12019,-0.003 -0.17897,-0.0178 -0.15783,-0.0463 -0.31507,-0.14199 -0.33905,-0.32058 0.004,-0.13377 -0.20926,-0.22268 -0.23504,-0.37053 -0.0724,-0.0804 -0.10857,-0.25664 -0.16168,-0.23273 -0.0787,-0.0494 -0.17236,-0.12794 -0.2347,-0.22658 -0.16894,-0.0419 -0.30785,-0.21849 -0.4625,-0.1706 -0.36631,0.12146 -0.73862,0.1872 -1.12394,0.20208 -0.37557,0.0685 -0.76673,0.21456 -1.14554,0.0829 0,0 1.28779,-2.47604 1.28779,-2.47604 z"
       id="path3505"
       style="fill:#000000;fill-opacity:1"
       inkscape:export-filename="/home/sade/Desktop/screw-comps/images/troops/ping.png"
       inkscape:export-xdpi="90"
       inkscape:export-ydpi="90"
       inkscape:connector-curvature="0" />
    <path
       d="m 116.79497,460.56051 c -0.1641,0.16283 -0.36444,0.2716 -0.59359,0.2921 -0.13204,0.003 -0.25287,-0.0551 -0.34061,-0.15276 0,0 0.99673,-1.63473 0.99673,-1.63473 l 0,0 c 0.11183,0.0608 0.0815,0.084 0.19466,-0.006 0.18327,-0.11711 0.36941,-0.2359 0.56368,-0.33052 0,0 -0.82087,1.83105 -0.82087,1.83105 z"
       id="path3507"
       style="fill:#000000;fill-opacity:1"
       inkscape:export-filename="/home/sade/Desktop/screw-comps/images/troops/ping.png"
       inkscape:export-xdpi="90"
       inkscape:export-ydpi="90"
       inkscape:connector-curvature="0" />
    <path
       d="m 116.24018,457.94621 c 0.29208,-0.008 0.5563,0.0543 0.81512,0.19085 0.21384,0.0941 0.44936,0.10881 0.65775,0.21628 0.13691,0.13608 0.28092,0.1387 0.46515,0.12923 0.14206,0.0153 0.26325,0.04 0.39918,0.0559 0.0511,0.032 0.10633,-0.028 0.15932,-0.006 0.0523,0.0221 -0.0418,0.0676 0.0386,0.0337 0.0375,-0.01 0.0713,-2.1e-4 0.10598,0.0121 0.50746,0.38418 1.16187,-2.08809 -0.89946,1.66736 -0.0131,-0.002 -0.0333,-0.0172 -0.0392,-0.006 -0.008,0.0158 0.008,0.0644 0.0173,0.0497 0.31708,-0.53098 0.63417,-1.06196 0.95125,-1.59294 -0.0261,0.0155 -0.0195,0.0151 -0.004,0.0471 0.48879,0.56823 -0.32231,1.70465 -1.00561,1.87798 -0.0402,0.0798 -0.10172,0.14473 -0.15942,0.2115 -0.0463,-0.0158 -0.0922,0.0186 -0.13801,0.0132 -0.60606,-0.0717 0.61478,-1.07372 0.94926,-1.5932 0.0139,-0.0215 0.0525,0.043 0.0404,0.0657 -0.30227,0.56543 -0.64301,1.10864 -0.96454,1.66298 -0.0735,0.072 -0.17532,0.054 -0.2465,0.0593 -0.11547,0.0149 -0.23129,0.034 -0.34857,0.0335 -0.1335,-0.0243 -0.19945,-0.002 -0.26871,0.10628 -0.11729,-0.0821 -0.26061,-0.0466 -0.39034,-0.0913 -0.0858,-0.0341 -0.15111,-0.0271 -0.2435,-0.0457 -0.10666,-0.006 -0.15253,0.0174 -0.25757,-0.0473 -0.0718,-0.0543 -0.10127,-0.13098 -0.11797,-0.21664 -0.0263,-0.0326 0.032,0.0341 -0.0448,-0.0205 0,0 1.02579,-1.62667 1.02579,-1.62667 l 0,0 c 0.0274,0.0445 0.0542,0.0863 0.075,0.13504 0.0164,0.03 0.0363,0.0596 0.0419,0.0939 0.0511,-0.0138 0.107,0.0142 0.15873,0.003 0.10598,-0.01 0.19381,0.007 0.29729,0.0134 0.10048,0.01 0.25358,0.13357 0.21656,0.0326 0.13146,-0.0925 0.26273,-0.0766 0.41264,-0.075 0.0926,1.2e-4 0.18909,0.0198 0.27711,0.0192 0.0662,-0.0475 0.0981,-0.063 0.12204,-0.14555 -0.30685,0.53098 -0.62971,1.05272 -0.92058,1.59296 -0.0101,0.0197 0.0545,0.0134 0.0661,-0.006 0.32152,-0.53707 0.6056,-1.09654 0.91855,-1.63883 0.0128,-0.0222 0.0588,-0.0129 0.0662,-0.0376 0.003,-0.009 -0.009,-0.0156 -0.0139,-0.0234 0.0662,-0.0918 0.13398,-0.19746 0.24477,-0.23375 0.004,-0.0484 -9.7e-4,-0.023 0.0245,-0.0748 -0.31117,0.53201 -0.62237,1.06402 -0.93354,1.59604 -0.009,0.0167 0.0259,-0.0321 0.0444,-0.0363 0.03,-0.007 0.0617,0.0118 0.0919,0.006 0.0112,-0.002 -0.0188,-0.0119 -0.0282,-0.0179 -0.58563,-0.49489 0.24473,-1.83655 0.97119,-1.7953 -1.30657,2.65756 -0.2526,1.4126 -0.83472,1.66736 -0.0382,0.0112 -0.0778,0.0222 -0.11757,0.0126 -0.0572,0.009 -0.14807,0.051 -0.22971,0.0309 -0.15639,0.0162 -0.30379,0.0382 -0.46465,0.0299 -0.17885,-0.043 -0.34312,-0.10639 -0.52173,-0.14872 -0.22665,-0.0676 -0.45573,-0.093 -0.68501,-0.15587 -0.25681,-0.0617 -0.52544,-0.15196 -0.7441,-0.30403 0,0 0.96958,-1.72746 0.96958,-1.72746 z"
       id="path3509"
       style="fill:#000000;fill-opacity:1"
       inkscape:export-filename="/home/sade/Desktop/screw-comps/images/troops/ping.png"
       inkscape:export-xdpi="90"
       inkscape:export-ydpi="90"
       inkscape:connector-curvature="0" />
    <path
       d="m 118.95298,479.16112 c -14.06515,-3.85618 -20.85272,-19.706 -13.8308,-32.29668 1.97738,-3.54554 6.03348,-7.39232 9.60972,-9.11377 14.86341,-7.15465 31.77106,3.45072 31.83424,19.96816 0.0544,14.2202 -14.03878,25.16389 -27.61316,21.44229 z m 4.8004,-5.36759 c 2.81787,-1.74928 4.39044,-1.98291 8.48615,-1.26068 1.66558,0.2937 2.16285,0.19291 3.4583,-0.70099 1.36598,-0.94257 1.55502,-1.32924 1.9453,-3.97896 0.34046,-2.3115 0.71364,-3.24308 1.75686,-4.38569 0.72852,-0.79792 1.97066,-2.78194 2.76033,-4.40894 1.14797,-2.36528 1.38449,-3.29143 1.18004,-4.6208 -0.3234,-2.10286 -2.79021,-4.42653 -5.09802,-4.80221 -2.51509,-0.40943 -4.03497,-1.57528 -4.61268,-3.53822 -0.28106,-0.955 -1.01848,-2.21958 -1.63873,-2.81018 -1.04277,-0.99295 -1.42105,-1.06641 -5.02148,-0.97512 -2.74713,0.0697 -4.25672,-0.0923 -5.12626,-0.55009 -2.22052,-1.16897 -3.41106,-0.84393 -5.67776,1.5501 -1.8496,1.9535 -2.08196,2.41657 -2.08196,4.14909 l 0,1.95019 -2.48566,0.90704 c -3.65439,1.33353 -4.58348,1.91397 -5.21949,3.26084 -0.90753,1.92191 0.005,5.39296 1.95258,7.42364 1.52002,1.58525 1.54153,1.65474 0.84625,2.73501 -0.98372,1.52839 -0.90378,3.56502 0.1803,4.59318 0.49155,0.46621 2.04941,1.17774 3.46194,1.58122 2.2843,0.65248 2.76049,0.99854 4.30736,3.1302 2.13605,2.94357 2.94714,3.03553 6.62663,0.75137 l 0,0 z"
       id="path3720"
       style="fill:#ccffaa;fill-opacity:1"
       inkscape:export-filename="/home/sade/Desktop/screw-comps/images/troops/ping.png"
       inkscape:export-xdpi="90"
       inkscape:export-ydpi="90"
       inkscape:connector-curvature="0" />
  </g>
</svg>
