<?xml version="1.0" encoding="UTF-8" standalone="no"?>
<!-- Created with Inkscape (http://www.inkscape.org/) -->

<svg
   xmlns:dc="http://purl.org/dc/elements/1.1/"
   xmlns:cc="http://creativecommons.org/ns#"
   xmlns:rdf="http://www.w3.org/1999/02/22-rdf-syntax-ns#"
   xmlns:svg="http://www.w3.org/2000/svg"
   xmlns="http://www.w3.org/2000/svg"
   version="1.1"
   width="236.36449"
   height="227.05879"
   id="svg3607">
  <defs
     id="defs3609" />
  <metadata
     id="metadata3612">
    <rdf:RDF>
      <cc:Work
         rdf:about="">
        <dc:format>image/svg+xml</dc:format>
        <dc:type
           rdf:resource="http://purl.org/dc/dcmitype/StillImage" />
        <dc:title></dc:title>
      </cc:Work>
    </rdf:RDF>
  </metadata>
  <g
     transform="translate(-90.389188,-261.68993)"
     id="layer1">
    <path
       d="M 446.67303,369.32465 A 101.43201,104.22371 0 1 1 445.53835,353.7788"
       transform="matrix(1.1651376,0,0,1.0892857,-193.68187,-27.08073)"
       id="path3511"
       style="fill:#000000;fill-opacity:1" />
    <path
       d="m 305.22658,421.43649 a 74.445511,74.445511 0 1 1 -0.8328,-11.10417"
       transform="matrix(0.9850759,0,0,0.94650697,-41.493854,-41.430456)"
       id="path3513"
       style="fill:#37c837;fill-opacity:1" />
    <path
       d="m 128.8945,361.49839 c 0.15745,1.38629 0.57304,2.72551 0.88704,4.08525 0.42368,1.76448 0.42467,3.56303 0.43411,5.35944 0.28311,1.40934 0.59657,2.81715 0.72631,4.24922 0.0102,0.79464 -0.0249,1.58675 0.31142,2.32352 0.41523,1.01492 0.60457,2.06964 1.10106,3.05214 0.50911,0.63121 0.37798,1.54031 0.8698,2.15447 0.0825,0.37461 0.0348,0.94578 0.3611,1.24025 0.57482,0.52223 0.0586,-0.25144 0.40678,0.33326 0.57731,0.5739 1.07822,1.19298 1.63773,1.79167 0.72383,0.60197 1.46211,1.20088 2.10433,1.88615 0.78487,0.56368 1.3419,1.25773 1.62428,2.15856 0.16341,0.88066 0.95736,1.17588 1.53233,1.78 0.6227,0.34766 1.10921,0.95628 1.48982,1.55311 0.75487,0.0994 0.67337,0.79295 1.01106,1.22473 0.20414,0.43085 0.63417,0.65087 1.00475,0.96097 0.26424,0.38066 0.57309,0.6043 0.94455,0.91148 0.4371,0.39924 0.56604,1.08622 0.62688,1.64275 0.48427,0.61424 0.50533,1.25289 0.18875,1.93808 -0.20365,0.27886 -0.20564,0.59104 -0.15697,0.92551 0.0914,0.8015 -0.12416,1.39664 -0.52246,2.09214 -0.64569,0.56874 -1.08239,1.27841 -1.57733,1.96228 -0.53976,0.51865 -0.76938,1.16669 -1.1106,1.79753 -0.42715,0.59167 -0.88764,1.11807 -1.40956,1.63025 -0.58316,0.51619 -0.58202,1.13866 -0.65722,1.84438 -0.27914,0.66816 -0.53011,1.27818 -0.31837,1.98562 0.15645,0.76855 0.31887,1.5531 0.13956,2.32276 -0.29701,0.619 -0.21159,1.2932 -0.36357,1.95992 -0.45944,0.72993 -0.26573,1.11621 -0.004,1.86692 0.6015,0.71655 1.27804,1.31755 1.51943,2.21759 0.17433,0.62777 0.60278,1.35506 1.03196,1.88672 0.4803,0.70348 1.27029,1.04421 2.01572,1.46525 0.51626,0.85868 1.41869,1.06778 2.18837,1.58633 0.97719,0.47435 1.93062,0.97301 2.91273,1.43682 0.77786,0.53551 1.7181,0.46012 2.59242,0.72002 0.93387,0.26539 1.867,0.71074 2.8417,0.81067 0.74599,0.29513 1.48069,0.66421 2.29848,0.89316 0.88009,0.14409 1.67703,0.53283 2.47769,0.93164 0.72616,0.22263 1.46508,0.26354 2.21787,0.31187 0.96209,-0.0748 1.82493,0.39553 2.72051,0.68908 0.89479,0.15105 1.57019,0.68253 2.38168,1.05166 0.76202,0.20868 1.455,0.32255 2.15493,0.72258 0.26474,0.41319 0.79396,0.31466 1.14979,0.52612 0.11721,0.0697 0.19669,0.18592 0.29553,0.27934 0.12914,0.0656 0.25927,0.1306 0.38841,0.19614 0.70177,0.38576 1.34842,0.83808 1.90798,1.39999 0.5553,0.23378 1.32045,0.92138 1.77492,1.34302 0.3452,0.63154 0.90671,0.87801 1.35973,1.40637 0.5111,0.55546 1.05085,1.05677 1.40355,1.73143 0.40927,0.54621 0.61585,1.26066 0.94351,1.90052 0.35811,0.79338 1.04941,1.45136 1.60391,2.14314 0.63433,0.38158 0.49371,1.46535 1.01221,1.82806 0.61286,0.44618 0.59454,1.31053 1.06464,1.8103 0.58332,0.54542 0.76774,1.28274 1.2316,1.88078 0.45348,0.33091 0.46192,1.03649 0.89305,1.32266 0.66551,0.40946 1.31166,0.82223 1.72852,1.47798 0.26126,0.61784 0.9913,0.91422 1.5157,1.31755 0.56186,0.41226 0.70138,1.01973 1.24416,1.43315 0.61897,0.26631 0.0298,0.63674 0.45894,0.36531 0.54025,-0.11666 1.11517,-0.0921 1.66917,-0.0888 0.1366,-0.003 0.27368,-0.005 0.41027,-0.009 -1.7775,0.10504 -3.55258,0.26028 -5.33246,0.31466 -0.14254,0.003 0.26126,-0.11109 0.39288,-0.1636 0.4649,-0.18639 0.92176,-0.35416 1.40599,-0.48765 0.93839,-0.15012 1.75544,-0.56233 2.54911,-1.04264 0.52514,-0.39645 0.96173,-0.85374 1.53705,-1.17816 0.45992,-0.50958 1.00539,-0.87336 1.68173,-1.05978 0.62554,-0.24959 1.16072,-0.65125 1.78292,-0.93964 0.82287,-0.31372 1.52394,-0.80076 2.15935,-1.38564 0.61118,-0.49912 1.30819,-0.72668 2.07666,-0.87671 0.68553,-0.0506 0.81517,-0.25702 1.13191,-0.70548 0.42218,-0.55597 1.08119,-0.89344 1.63286,-1.31876 0.53921,-0.57916 1.2079,-0.79161 1.94728,-1.00982 0.59265,-0.13479 1.03217,-0.6235 1.44899,-1.02702 0.61788,-0.70511 1.51803,-0.88201 2.39672,-1.11008 0.95693,-0.47407 2.04115,-0.61508 2.97493,-1.12298 0.81506,-0.4844 1.73841,-0.68305 2.64829,-0.92626 0.83245,-0.47305 1.67379,-0.80193 2.63171,-0.94429 3.67187,-0.33789 13.6371,-0.83069 2.28959,-0.18219 0.74766,-0.31698 1.48837,-0.60203 2.27409,-0.82033 2.61973,-0.35369 5.27424,-0.5185 7.92045,-0.52478 0.88281,-0.005 1.77344,-0.0326 2.64969,0.0326 1.12297,-0.10644 2.19234,0.2031 3.26951,0.48202 1.53268,0.37368 3.12854,0.30024 4.66261,0.62238 1.17959,0.29652 2.35804,0.69071 3.56137,0.8681 0.75168,0.0823 1.24922,-0.003 1.7857,0.56197 0.90114,0.34811 1.90142,0.4341 2.86619,0.47937 1.02094,0.19195 1.91364,0.69935 2.97914,0.85073 2.35685,0.44572 7.18367,-0.0186 -2.85085,0.53728 0.86856,-0.35416 1.78108,-0.6148 2.6185,-1.03784 1.13216,-0.40808 2.14893,-0.97009 3.11256,-1.66595 0.8989,-0.55495 1.84867,-1.01127 2.714,-1.61571 0.7589,-0.2612 1.29681,-0.80439 1.95661,-1.2165 0.55594,-0.40622 1.01469,-0.89247 1.54232,-1.3255 0.61242,-0.27562 1.00405,-0.76647 1.44432,-1.22799 0.50117,-0.43085 0.37501,-1.15529 0.55326,-1.75978 0.18527,-0.81123 0.51065,-1.56174 0.94788,-2.28438 0.21159,-0.64358 0.0496,-1.28571 0.19719,-1.95583 0.19868,-0.61215 0.20961,-1.25816 0.25828,-1.89266 0.0641,-0.67672 0.0102,-1.35897 0.0298,-2.03856 0.0102,-0.78143 -0.0102,-1.57239 -0.0745,-2.35456 0.0884,-0.86268 -0.003,-1.72442 0.0249,-2.58774 -0.003,-0.64915 0.27318,-1.19759 0.62538,-1.73222 -0.1942,-0.60221 -0.38543,-1.20526 -0.43957,-1.83559 -0.11075,-0.68881 -0.16638,-1.40242 -0.11225,-2.10006 -0.0775,-0.68629 -0.0348,-1.40613 0.27517,-2.03353 0.36506,-0.46106 0.68414,-0.94248 0.70961,-1.5352 0.0348,-0.73133 0.0924,-1.3744 0.33825,-2.07287 0.58724,-1.0674 1.43965,-1.941 2.19925,-2.88766 0.6968,-0.76455 1.52826,-1.39651 2.31164,-2.07466 0.5544,-0.54449 1.03564,-1.16106 1.58652,-1.71452 0.64803,-0.52594 1.19459,-1.13052 1.64985,-1.81719 0.52684,-0.59058 1.09386,-1.19024 1.70533,-1.70619 0.4669,-0.65678 1.20597,-1.02902 1.69501,-1.65828 0.48575,-0.76409 1.22657,-1.29473 1.83243,-1.95791 0.34967,-0.8611 0.6841,-1.69277 1.06943,-2.54429 0.4341,-0.62168 0.51576,-1.36779 0.94897,-1.9759 0.50225,-0.46199 0.64873,-1.13355 1.00162,-1.68482 0.48576,-0.54589 0.66785,-1.20829 0.79068,-1.89444 0.29206,-0.89474 0.8546,-1.65255 1.31727,-2.46271 0.59831,-0.8788 1.26557,-1.68969 1.68909,-2.65949 0.23196,-0.77786 0.71349,-1.42413 1.0433,-2.16052 0.22698,-0.88866 0.96248,-1.4864 1.45475,-2.22926 0.51666,-0.52394 0.75934,-1.15506 0.90611,-1.84265 -0.10778,-0.8452 0.33725,-1.51336 0.72646,-2.22679 0.33427,-0.62698 0.35961,-1.34939 0.68707,-1.98646 0.57502,-0.59998 0.46688,-0.90102 0.39835,-1.61971 0.0998,-0.8345 0.14503,-1.67096 0.31092,-2.49756 -0.0149,-0.83442 0.11126,-1.6713 0.0641,-2.50343 0.0102,-0.81838 -0.0102,-1.63537 0.0149,-2.45337 0.0576,-0.86105 -0.27666,-1.65238 -0.37401,-2.49548 0.13758,-0.91148 0.29106,-0.99718 -0.12765,-1.76662 -0.32633,-0.52562 -0.20315,-1.1315 -0.74294,-1.4653 -0.56966,-0.42434 -0.15051,-1.0168 -0.73213,-1.34842 -0.64848,-0.45594 -0.86086,-1.14372 -1.08298,-1.84623 -0.0581,-0.64567 -0.27914,-1.41408 -0.90149,-1.75356 -0.62116,-0.21937 -0.93899,-0.67792 -1.14055,-1.26442 -0.0919,-0.39599 -0.52474,-0.61262 -0.80096,-0.95252 -0.58803,-0.24586 -1.23293,-0.55378 -1.8067,-0.90547 -0.38743,-0.56383 -0.79669,-1.12699 -1.53403,-1.23106 -0.60467,-0.56289 -1.38865,-0.81837 -2.10522,-1.2231 -0.59553,-0.52051 -1.28031,-0.77069 -1.82667,-1.32941 -0.87939,-0.29791 -1.52717,-1.00452 -2.37726,-1.32322 -0.64996,-0.54295 -1.31722,-1.12201 -2.18995,-1.26772 -0.73718,-0.165 -1.4548,-0.0232 -2.14585,-0.33371 -0.79624,-0.45873 -1.72783,-0.57046 -2.62345,-0.73983 -0.90483,0.0474 -1.59865,-0.19753 -2.33733,-0.68081 -0.67813,-0.2784 -1.37215,-0.34765 -2.09503,-0.42062 -0.95464,-0.009 -1.90848,0.0232 -2.86327,0.005 -0.70361,-0.41969 -1.43751,-0.73434 -2.23544,-0.92235 -0.90786,0.0674 -1.46593,-0.50573 -2.23029,-0.8636 -0.84164,-0.15942 -1.35458,-0.82149 -2.1376,-1.13392 -0.71464,-0.34161 -1.2974,-0.77176 -2.05059,-1.02799 -0.74587,-0.41086 -1.32129,-1.03445 -1.99788,-1.51573 -0.72879,-0.35741 -0.82167,-1.15948 -1.312,-1.68859 -0.44355,-0.54104 -0.76535,-1.12786 -0.88684,-1.80858 -0.18924,-0.50977 -0.64991,-0.95833 -0.90943,-1.48724 -0.30299,-0.58808 -0.0978,-1.33033 -0.45696,-1.86073 -0.34222,-0.71116 -0.78522,-1.34827 -1.19221,-2.02081 -0.44503,-0.76399 -0.67777,-1.61515 -0.76464,-2.48218 0.10529,-0.79844 -0.22153,-1.32318 -0.55605,-2.00659 -0.24189,-0.85263 -0.71146,-1.56815 -1.10166,-2.36158 -0.22848,-0.66197 -0.39486,-1.36198 -0.46292,-2.05691 -0.42218,-0.73779 -0.84863,-1.43439 -1.33782,-2.13073 -0.70362,-0.59826 -1.31713,-1.20948 -1.65497,-2.06221 -0.5709,-0.3774 -1.03282,-0.86783 -1.49971,-1.35812 -0.56796,-0.68346 -1.45246,-1.05157 -2.1522,-1.61947 -0.83608,-0.2942 -1.60292,-0.57883 -2.41848,-0.89563 -0.8393,-0.41691 -1.72888,-0.56075 -2.56277,-1.00275 -0.92036,-0.34626 -1.88672,-0.58414 -2.87498,-0.64052 -0.99011,-0.0278 -1.9344,-0.52203 -2.85473,-0.88144 -2.11917,0.71264 -0.29254,0.0586 4.92329,-0.19846 0.2543,-0.0139 -0.48477,0.15058 -0.72497,0.23285 -0.46887,0.16035 -0.4495,0.13804 -0.95101,0.23425 -3.05678,0.44386 -6.16356,0.60448 -9.25526,0.59292 -1.88925,0.0186 -5.15588,0.0646 4.80026,-0.30025 0.15397,-0.005 -0.29801,0.0752 -0.44305,0.12642 -0.42219,0.14826 -0.82917,0.32441 -1.25698,0.46245 -0.90118,0.18452 -1.71,0.60398 -2.56882,0.90668 -3.0607,0.82146 -6.33532,0.79566 -9.49004,0.8756 -0.86116,0.0186 -1.71964,-0.0326 -2.58065,-0.0186 -0.8926,-0.003 -1.785,0.0186 -2.67761,-0.003 -0.94897,-9e-5 -1.89799,0.0186 -2.84701,0.009 -1.1113,0.0595 -2.0932,0.0186 -3.13437,-0.37183 -1.09896,-0.14268 -1.97205,-0.79235 -2.96503,-1.17542 -0.89017,-0.50632 -2.00304,-0.22076 -2.86689,-0.71543 -0.80081,-0.49815 -1.52076,-1.13443 -2.43432,-1.46107 -0.85455,-0.3128 -1.50974,-1.01981 -2.41023,-1.24542 -0.57184,-0.52371 -1.26681,-0.82172 -1.96029,-1.16672 -0.79798,0.0139 -1.47343,-0.39879 -2.09702,-0.83833 -0.52371,-0.099 -1.02185,-0.30768 -1.55851,-0.27654 8.85875,-0.77394 5.74689,-1.02916 3.87884,0.63237 -0.88416,0.5958 -1.9415,0.85957 -2.89098,1.35065 -0.74846,0.62094 -1.50134,1.23598 -2.33458,1.74881 -0.79645,0.36485 -1.43495,0.9079 -2.01259,1.53911 -0.56593,0.76461 -1.21346,1.46568 -1.85544,2.17075 -0.64961,0.70167 -1.33196,1.34784 -2.09105,1.93277 -0.39536,0.75721 -1.04191,1.3314 -1.57963,1.98813 -0.6984,0.63349 -1.1779,1.39447 -1.45932,2.2656 -0.19073,0.94564 -0.84045,1.65749 -1.48842,2.35112 -0.6232,0.5886 -1.26617,1.11398 -1.64351,1.87919 -0.26821,0.67574 -0.92483,1.1855 -1.14218,1.86957 -0.18327,0.57465 -0.23046,1.20241 -0.17335,1.8017 0.0102,0.68002 -0.0571,1.36714 0.0102,2.04441 0.0102,0.68671 -0.063,1.38002 0.003,2.06403 -0.0978,0.80732 0.13212,1.55394 0.18676,2.32356 -0.0298,0.72761 -0.077,1.44858 -0.14057,2.17357 -0.004,0.77075 0.0102,1.54818 -0.0686,2.31674 -0.22451,0.67453 -0.63109,1.23709 -0.86414,1.90451 -0.0348,0.59626 -0.15645,1.18527 -0.31044,1.763 -0.082,0.62539 -0.4937,0.56656 -0.96998,0.82353 -0.85877,0.42248 -1.71327,0.85933 -2.55973,1.31118 -0.89047,0.31559 -1.59627,0.91608 -2.48658,1.23868 -1.08258,0.17847 -1.82851,0.82126 -2.66756,1.43927 -0.81885,0.46785 -1.70246,0.78427 -2.49318,1.29784 -0.73481,0.4118 -1.52146,0.61727 -2.36107,0.69424 -0.96909,0.22821 -1.90163,0.57554 -2.8651,0.83721 -0.87383,0.12734 -1.68835,0.49397 -2.46577,0.88512 -2.34645,0.79109 -5.0461,0.40157 -7.4031,0.72622 -1.76712,0.24353 3.56097,-0.26307 5.34528,-0.31512 0.17185,-0.003 -0.32285,0.11572 -0.48378,0.17335 -0.95549,0.38345 -1.97896,0.56485 -2.93708,0.93337 -0.84586,0.47235 -1.7988,0.62099 -2.73005,0.84324 -0.64237,0.43876 -1.36918,0.70869 -2.08291,1.0082 -1.02577,0.37832 -1.80547,1.01851 -2.59247,1.72516 -0.69617,0.5535 -1.25737,1.22287 -1.93854,1.79371 -0.41026,0.56606 -1.03987,0.89321 -1.35983,1.51523 0.0199,0.9004 -0.47135,1.63438 -0.7657,2.4456 -0.15596,0.55685 -0.31489,1.10101 -0.5013,1.65354 -0.43411,0.38948 -0.34719,0.91835 -0.51349,1.45615 0.17881,0.6043 0.3323,1.19545 0.37203,1.82526 0.11076,0.58521 0.1207,1.18983 0.12963,1.78303 -0.07,0.69739 -0.66968,1.19331 -0.85564,1.83183 -0.30198,0.59728 -0.0705,0.76227 -0.0621,1.35078 -0.0447,0.6194 -0.21208,0.5318 0.21656,0.46905 0.46093,2.61004 -7.11343,2.20671 -5.42703,-0.24865 0.25878,-0.35603 0.61863,-0.36996 1.0347,-0.4369 0,0 5.96514,0.49392 5.96514,0.49392 l 0,0 c -0.47781,0.009 -0.96104,0.0419 -1.43761,-0.003 -1.70315,1.10166 -6.01347,-1.2317 -5.56108,1.17227 -0.33129,-0.2733 -0.47087,-0.68988 -0.42318,-1.11064 0.0298,-0.5185 -0.26126,-0.98454 -0.0199,-1.51104 0.21457,-0.58487 0.44503,-1.19377 0.89419,-1.65348 -0.0102,-0.56936 -0.0447,-1.11854 -0.10629,-1.68919 -0.23145,-0.68196 -0.36904,-1.39587 -0.34321,-2.11329 0.24089,-0.49095 -0.0496,-1.25453 0.4654,-1.63114 0.5984,-0.3193 0.0298,-0.93983 0.29999,-1.48157 0.33278,-0.82656 0.78741,-1.58898 0.93423,-2.4656 0.24784,-0.72449 0.72695,-1.25852 1.35447,-1.72432 0.51149,-0.6438 1.14502,-1.16589 1.64846,-1.81448 0.80463,-0.8069 1.63535,-1.50611 2.72051,-1.91707 0.73774,-0.34579 1.54059,-0.45269 2.20675,-0.95675 0.67351,-0.60369 1.7857,-0.3825 2.56679,-0.88387 0.92647,-0.53416 1.92318,-0.55935 2.89206,-1.00079 2.64726,-0.88299 13.65271,-1.2589 1.55236,-0.4118 -1.28439,0.0902 2.56098,-0.0646 1.17939,-0.15012 0.83369,-0.20264 1.46334,-0.95274 2.37447,-0.97673 1.01415,-0.14873 1.96058,-0.56536 2.91462,-0.9118 0.80459,-0.0372 1.6068,-0.0326 2.31582,-0.4499 0.82217,-0.36206 1.50502,-0.93425 2.35957,-1.25848 0.93721,-0.52129 1.65954,-1.48441 2.80143,-1.5782 0.9068,-0.27747 1.65576,-0.71598 2.4446,-1.18559 0.9381,-0.33743 1.6884,-1.08056 2.71326,-1.24733 0.56484,-0.33696 0.72105,-0.54443 1.21501,-0.17522 0.0298,0.0232 -0.0149,-0.0725 -0.0249,-0.10922 -0.11275,-0.62773 -0.11275,-1.27172 0.0855,-1.88523 0.1664,-0.64027 0.45497,-1.23901 0.89206,-1.75295 -0.073,-0.77701 -0.0348,-1.56983 0.0298,-2.34457 0.0249,-0.68982 0.16142,-1.3834 0.11075,-2.07091 -0.15744,-0.80006 -0.2543,-1.57759 -0.16737,-2.39192 0.0651,-0.68355 -0.004,-1.37626 -0.004,-2.06226 0.063,-0.68099 -0.0102,-1.37017 3e-4,-2.05376 0.0764,-0.65636 0.0249,-1.32419 0.20364,-1.97182 0.24536,-0.68717 0.53538,-1.37597 1.08477,-1.89569 0.26871,-0.83952 0.77613,-1.60919 1.58309,-2.05895 0.55337,-0.70716 1.21451,-1.22098 1.51918,-2.09763 0.17782,-0.95647 0.57348,-1.87324 1.3122,-2.55735 0.67952,-0.59515 1.26373,-1.28417 1.90535,-1.9153 0.28858,-0.79291 1.16523,-1.36589 1.76241,-1.95852 0.59791,-0.79667 1.447,-1.346 1.98124,-2.16368 0.49669,-0.67801 1.1846,-1.2337 1.86199,-1.7357 0.88847,-0.54779 1.77814,-0.96535 2.4969,-1.73223 0.85624,-0.69243 1.80999,-0.97886 2.85572,-1.31606 1.6046,-0.97711 -0.73168,0.49397 0.71051,-0.57172 1.7261,-1.27549 5.88577,-0.62169 6.77802,-1.03864 0.57015,0.14361 1.18296,0.17011 1.68453,0.50419 0.66561,0.30164 1.32923,0.58553 2.03269,0.78343 0.77107,0.2798 1.41691,0.71599 2.1234,1.11188 0.85301,0.41691 1.64672,0.92593 2.53247,1.27168 0.79977,0.45641 1.46598,1.09966 2.3332,1.4331 1.01061,0.18311 2.04497,0.26259 2.97293,0.73871 0.95489,0.50238 1.92562,0.84343 2.98257,1.09891 0.98682,0.24866 1.98602,0.24262 3.00199,0.21474 0.92185,-0.005 1.84371,0.005 2.76557,0.009 0.89096,-0.0186 1.78138,10e-4 2.67223,0.005 0.93556,0.0185 1.87019,-0.0326 2.80531,-0.0502 2.43079,-0.0907 0.40728,-0.0186 -4.76117,0.34022 -1.50606,0.10504 3.97813,-0.19893 2.46706,-0.26864 0.90765,-0.31419 1.74789,-0.79528 2.71466,-0.8933 2.65862,-1.07847 5.3988,-1.52643 8.41212,-1.21126 6.3681,-0.19985 -8.00917,0.51554 -2.39628,0.2203 2.74028,-0.41876 5.51737,-1.60524 8.34254,-0.86973 0.96318,0.27422 1.87217,0.72263 2.89709,0.74652 1.02006,0.16221 2.04224,0.33185 2.9556,0.83149 0.83871,0.36996 1.72704,0.59566 2.55879,0.98538 0.77176,0.40109 1.67469,0.50455 2.39002,1.01688 0.7805,0.49625 1.55409,1.03195 2.13974,1.74068 0.45248,0.52185 0.92553,1.01075 1.4103,1.49588 0.5626,0.74551 1.31493,1.26857 1.8753,2.01142 0.41921,0.77102 0.90959,1.54078 1.09853,2.39393 0.0938,0.68336 0.41473,1.24044 0.71946,1.87175 0.30595,0.78705 0.61072,1.58312 0.95289,2.34847 0.37003,0.71237 0.53623,1.39693 0.55739,2.18399 0.14999,0.80201 0.38095,1.58293 0.87556,2.26378 0.37997,0.70279 0.59374,1.45777 1.07056,2.11539 0.13063,0.61811 0.11374,1.25262 0.37053,1.83294 0.23791,0.54723 0.82773,0.93127 0.87621,1.57838 0.24636,0.61932 0.56816,1.11696 1.00207,1.63686 0.27815,0.67006 0.68667,1.13048 1.31941,1.52581 0.54124,0.56471 1.2517,0.91534 1.91915,1.32462 0.71355,0.29095 1.30218,0.80058 2.02942,1.06182 0.73664,0.34534 1.3583,0.90005 2.15216,1.14991 0.73182,0.35183 1.36655,0.70492 2.21439,0.75819 0.77871,0.22449 1.49086,0.70312 2.30936,0.75372 0.90179,-0.0139 1.80795,-0.0139 2.70497,0.085 0.76525,0.0757 1.52593,0.25935 2.19844,0.62964 0.7651,0.3337 1.509,0.42248 2.34244,0.49089 0.92732,0.14455 1.79305,0.42341 2.6334,0.82767 0.71016,0.12317 1.45306,0.0693 2.14351,0.31745 0.82322,0.36671 1.55985,0.81327 2.2804,1.34451 0.78591,0.46844 1.5756,0.94233 2.29679,1.49523 0.5923,0.45409 1.25647,0.8075 1.88682,1.20954 0.64251,0.40388 1.36014,0.69386 1.98105,1.13749 0.60228,0.37043 1.07489,0.80481 1.54461,1.31509 0.61241,0.29884 1.23988,0.61434 1.72023,1.0951 0.35463,0.33278 0.56603,0.68123 0.7789,1.09595 0.36308,0.46338 0.79262,0.74727 1.3132,1.03748 0.54209,0.62075 0.84556,1.28185 0.93075,2.09539 0.10029,0.64804 0.54407,1.12695 0.98363,1.60088 0.18825,0.44898 0.32584,0.90766 0.68092,1.26713 0.47484,0.48825 0.51988,1.09807 0.82188,1.66868 0.32532,0.64725 0.41075,1.26247 0.31291,1.97711 -0.004,0.86352 0.48625,1.65559 0.30248,2.53379 0.0298,0.8187 0.0102,1.63614 0.0149,2.45532 -0.0581,0.84966 0.0571,1.70912 -0.0934,2.55682 -0.004,0.83336 -0.18278,1.63542 -0.37599,2.44348 -0.10234,0.66556 0.3159,1.29543 -0.31738,1.89606 -0.39338,0.63572 -0.5324,1.2304 -0.72979,1.95616 -0.31341,0.71464 -0.78382,1.25233 -0.73893,2.07495 -0.1048,0.74889 -0.33775,1.50438 -0.84735,2.09464 -0.55485,0.65818 -0.95647,1.36631 -1.48058,2.07803 -0.24337,0.76599 -0.77841,1.39112 -0.98508,2.14095 -0.26573,1.03375 -0.79252,1.98278 -1.54774,2.76597 -0.46787,0.7917 -1.08914,1.46112 -1.54614,2.25868 -0.0844,0.75406 -0.2841,1.51518 -0.7431,2.14341 -0.42019,0.56257 -0.69178,1.12695 -1.06888,1.71438 -0.4783,0.55857 -0.56458,1.17003 -0.78789,1.8553 -0.43212,0.8787 -0.79282,1.74751 -1.11412,2.66638 -0.50975,0.7731 -1.24952,1.29138 -1.93466,1.90205 -0.39784,0.78863 -1.10484,1.18141 -1.66594,1.84074 -0.59752,0.46479 -1.05517,1.00578 -1.63138,1.50305 -0.39884,0.7963 -1.02189,1.32312 -1.63019,1.96457 -0.56468,0.55888 -1.19856,1.07279 -1.67954,1.69736 -0.59246,0.78584 -1.41697,1.26572 -1.99396,2.05915 -0.85968,0.88098 -1.51928,1.94388 -2.48216,2.73331 -0.38344,0.61745 -0.41722,1.19405 -0.42517,1.91627 -0.15099,0.61397 -0.25927,1.22882 -0.68706,1.7359 -0.50415,0.72123 -0.2707,0.87517 -0.33378,1.74634 0.0705,0.67174 0.0348,1.34321 0.10282,2.0157 0.17533,0.65561 0.33526,1.32823 0.38194,1.99919 0.0348,0.68861 -0.73619,0.92634 -0.40877,1.65047 0.0298,0.8622 -0.0635,1.72288 0.0249,2.58439 -0.0611,0.78528 -0.0825,1.5794 -0.07,2.3638 0.0102,0.6908 -0.0298,1.37961 -0.0298,2.06943 -0.0298,0.66853 -0.13114,1.33135 -0.29007,1.9818 -0.17136,0.74691 0.15646,1.35176 -0.0983,2.08448 -0.30347,0.75708 -0.85714,1.3803 -0.99184,2.18603 -0.19619,0.68718 -0.21357,1.44035 -0.53796,2.02987 -0.50334,0.49597 -0.99551,0.99839 -1.54252,1.45141 -0.79564,0.0623 -0.74499,0.94285 -1.5065,1.21111 -0.60056,0.44572 -1.12829,0.92895 -1.79882,1.25495 -0.88137,0.43828 -1.61384,1.12239 -2.48975,1.59032 -1.04802,0.66041 -2.00911,1.40005 -3.22584,1.75714 -0.93756,0.39692 -1.86692,0.72083 -2.80198,1.1224 -3.09179,0.2612 -5.87872,0.84631 -8.85642,0.23191 -0.97192,-0.28955 -1.87306,-0.80954 -2.9174,-0.78654 -0.92657,-0.12083 -1.90997,-0.21938 -2.6325,-0.85035 -0.57144,-0.27004 -1.28733,-0.10272 -1.90088,-0.25935 -1.34275,-0.23239 -2.68381,-0.45873 -4.0056,-0.79598 -1.5086,-0.24214 -3.05559,-0.26445 -4.53269,-0.68405 -0.88912,-0.21008 -1.76464,-0.50778 -2.69395,-0.45548 -0.96452,0.072 -1.934,0.0186 -2.90036,0.0232 -3.75531,0.0326 7.35955,-0.58645 3.56901,-0.28351 -0.80364,0.0725 -1.5535,0.35277 -2.2427,0.7501 -19.27233,1.74627 2.61134,-0.2942 -2.15261,0.2942 -0.96243,0.10225 -1.97041,0.13758 -2.74151,0.77381 -0.77196,0.45176 -1.79385,0.35462 -2.55413,0.88922 -0.98086,0.48053 -1.9357,0.8701 -3.00343,1.18903 -0.80777,0.39692 -1.79087,0.26772 -2.53679,0.84157 -0.46391,0.55611 -1.0429,0.84683 -1.53403,1.38727 -0.63119,0.0465 -1.40111,0.21101 -1.80795,0.70874 -0.57238,0.56694 -1.26094,0.87146 -1.93231,1.32015 -0.35862,0.0864 -0.11673,1.10594 -0.90005,1.05519 -0.7136,0.0139 -1.41105,0.10411 -1.97306,0.55842 -0.77667,0.50443 -1.31603,1.31211 -2.26822,1.6033 -0.72542,0.0921 -1.30575,0.47714 -1.80423,0.97561 -0.63084,0.0916 -1.33411,0.21426 -1.70176,0.77284 -0.4197,0.47537 -1.1171,0.55248 -1.39574,1.2271 -0.67128,0.57506 -1.61255,1.13163 -2.50595,1.26257 -2.73477,0.69084 -5.20689,1.79942 -8.30385,1.1599 -0.46788,0.005 -1.03898,0.0795 -1.46483,-0.11063 -0.38842,-0.4169 -0.1803,-0.23889 -0.76778,-0.55596 -0.48478,-0.45641 -0.68439,-1.10222 -1.34435,-1.39261 -0.55162,-0.43735 -1.12872,-0.86169 -1.47466,-1.47743 -0.48726,-0.53989 -1.24794,-0.82628 -1.66476,-1.44904 -0.29404,-0.5094 -0.52749,-0.98115 -0.97172,-1.39884 -0.33179,-0.6822 -0.88813,-1.14856 -1.2227,-1.84679 -0.33378,-0.59761 -0.51636,-1.2404 -0.99229,-1.76518 -0.40232,-0.63549 -0.65101,-1.32963 -1.28245,-1.81039 -0.56851,-0.70712 -1.06505,-1.49775 -1.46797,-2.30168 -0.24536,-0.65923 -0.46787,-1.29765 -0.87874,-1.86366 -0.34668,-0.5944 -1.0205,-1.00248 -1.38516,-1.59469 -0.46789,-0.45409 -0.94465,-0.90041 -1.417,-1.35093 -0.53981,-0.46728 -1.07117,-0.94326 -1.68284,-1.3247 -0.6677,-0.44015 -1.27703,-0.95098 -1.99167,-1.31927 -0.54298,-0.41923 -1.23323,-0.60105 -1.82732,-0.9548 -0.697,-0.31604 -1.46395,-0.35694 -2.15683,-0.69381 -0.80622,-0.36485 -1.54425,-0.84213 -2.4518,-0.97162 -0.83156,-0.2626 -1.59741,-0.64804 -2.50114,-0.58274 -0.80557,-0.0419 -1.61771,-0.17103 -2.35961,-0.48852 -0.82724,-0.3114 -1.60367,-0.72218 -2.4917,-0.86253 -0.77448,-0.25051 -1.4161,-0.77841 -2.24632,-0.83 -1.02229,-0.24913 -2.0561,-0.4499 -3.03715,-0.83637 -0.88933,-0.23425 -1.79047,-0.40668 -2.62148,-0.81401 -0.96666,-0.45316 -1.86259,-1.03766 -2.81395,-1.51773 -0.81024,-0.43921 -1.50884,-0.96097 -2.18816,-1.56997 -0.77543,-0.4513 -1.49334,-1.03101 -2.03414,-1.73515 -0.34818,-0.65877 -0.62618,-1.34971 -0.97401,-2.01192 -0.41524,-0.80579 -1.19906,-1.38253 -1.56318,-2.22954 -0.26871,-0.7969 -0.34669,-1.495 0.0909,-2.24678 0.35862,-0.62894 -0.14255,-1.28213 0.29454,-1.9165 0.26473,-0.64888 0.0102,-1.39671 -0.0447,-2.07128 -0.0665,-0.77944 -0.36208,-1.42566 0.21557,-2.12701 0.0536,-0.77269 0.22799,-1.54223 0.6829,-2.19421 0.4505,-0.55936 1.08407,-0.92114 1.43886,-1.56555 0.50056,-0.50936 0.47235,-1.42864 1.12907,-1.8804 0.62285,-0.43829 0.61569,-1.56077 1.42058,-1.92846 0.60715,-0.51218 0.79629,-0.97212 0.74787,-1.74802 0.0834,-0.36625 0.0854,-0.76205 0.28211,-1.09445 0.15845,-0.609 -0.30496,-1.084 -0.34718,-1.68418 -0.0447,-0.4722 -0.0298,-0.95836 -0.50692,-1.23327 -0.35712,-0.28957 -0.48129,-0.69954 -0.90447,-0.89303 -0.45,-0.30629 -0.73177,-0.66133 -0.97917,-1.115 -0.32881,-0.43735 -0.65017,-0.84357 -1.10578,-1.18736 -0.54845,-0.51576 -1.01857,-1.0728 -1.66614,-1.47177 -0.63641,-0.56298 -1.33963,-1.11881 -1.45133,-1.99886 -0.46291,-0.74988 -1.05765,-1.31746 -1.69888,-1.92938 -0.72348,-0.5899 -1.39078,-1.24473 -2.04546,-1.90122 -0.61962,-0.53231 -1.00714,-1.18872 -1.49946,-1.81923 -0.67897,-0.41923 -0.69492,-1.06155 -0.91083,-1.70262 -0.32583,-0.72064 -0.60601,-1.45048 -1.02874,-2.14123 -0.6225,-0.98527 -0.76818,-2.11194 -1.14989,-3.19446 -0.0924,-0.80034 0.0298,-1.60514 -0.33179,-2.3619 -0.40976,-1.42756 -0.93258,-2.82831 -1.06728,-4.31625 -0.0799,-1.75452 -0.1942,-3.51334 -0.38891,-5.25997 -0.24834,-1.41306 -0.78874,-2.78996 -0.40331,-4.23165 0,0 5.76666,-0.34904 5.76666,-0.34904 z"
       id="path3100-5"
       style="fill:#000000;fill-opacity:1" />
    <path
       d="m 234.84075,414.54728 c 0.90467,-1.07967 2.02575,-1.91543 3.33745,-2.47846 4.53687,-1.17068 6.54841,-1.75379 8.01012,1.63792 0.51452,1.11997 0.35016,2.22856 -0.13064,3.3232 -1.38964,2.18678 -4.9799,1.72846 -7.28434,0.82344 -1.14562,-0.5641 -1.5229,-0.90292 -1.59775,-2.14141 0.12516,-0.93346 0.41672,-1.74235 1.27872,-2.23479 3.46918,-0.8523 6.09379,-1.60357 8.34677,0.62815 0.75044,0.77966 0.73291,1.47859 0.35562,2.41716 -1.93455,2.25195 -5.68838,1.37198 -8.54896,1.20815 -1.15431,-0.41645 -1.65769,-1.02 -1.56338,-2.21726 0.19917,-1.1462 0.88063,-1.87148 1.88221,-2.44994 2.36081,-0.79138 6.44747,-1.84307 8.25169,0.40715 0.29603,1.11254 -0.14255,2.10162 -1.0347,2.81394 -1.56432,0.33929 -6.15775,1.35073 -8.29153,0.13757 -0.86215,-0.85774 -0.64759,-2.11101 -0.1793,-3.11265 0.40927,-0.69926 0.87183,-1.31458 1.6433,-1.64258 3.30606,-0.31697 6.58331,-1.52724 8.06091,1.55538 0.23294,1.17709 -0.30447,2.06166 -1.37976,2.58891 -2.43243,0.64752 -6.02394,2.10558 -7.81361,0.0762 -0.25381,-0.72222 -0.78427,-1.25258 -1.10191,-1.95471 -0.16887,-1.13662 0.70407,-1.73139 1.68939,-2.08839 1.7776,-0.51957 7.29264,-1.91659 8.24728,0.98747 0.1952,1.10222 -0.31986,2.0136 -1.02423,2.84058 -2.29232,2.09921 -6.26851,2.41833 -9.15393,1.49481 -1.16866,-0.53937 -1.83456,-1.60418 -2.16322,-2.77104 -0.3919,-1.13052 0.2692,-1.88658 1.10781,-2.56896 2.29207,-1.43543 6.36726,-2.63223 8.53436,-0.84143 0.80092,0.12827 0.99427,0.32859 0.70634,1.14204 -0.60347,0.74244 -1.41497,1.27618 -2.09429,1.9589 -0.0964,0.0693 -0.16936,0.20543 -0.28957,0.20821 -0.079,0.002 -0.0397,-0.1966 -0.11871,-0.19845 -1.82756,-0.0488 -3.65627,0.0326 -5.48444,0.0492 0,0 5.62744,-0.30489 5.62744,-0.30489 l 0,0 c -4.68199,0.45827 -5.47635,1.96963 -5.54991,0.23193 0.5641,-0.91655 1.34897,-1.45364 2.22955,-2.06102 0.93243,0.0581 -0.0978,0.35184 -0.55953,-0.0232 -2.0395,-0.1385 -4.7093,0.41365 4.55499,-0.42899 0.44404,-0.0419 -2.46427,0.17801 -1.62034,0.46152 -0.8479,0.46636 -1.48128,0.75578 -1.17671,1.82881 0.42665,0.93791 1.06709,1.82704 2.11594,2.18022 2.28998,0.17801 1.20582,0.0646 -4.8156,0.48206 -0.22549,0.0186 0.44851,-0.0613 0.6678,-0.11387 0.56916,-0.13525 0.99984,-0.44153 1.46736,-0.76772 0.5939,-0.66156 1.48273,-1.2575 1.194,-2.21591 -0.2548,-0.37647 -0.58714,-0.59863 -1.03167,-0.7554 -0.14305,-0.0502 -0.59419,-0.0911 -0.44305,-0.10737 1.62039,-0.17661 7.47502,-0.65171 4.87674,-0.37321 -0.62165,0.20031 -1.6939,0.39087 -1.7782,1.13327 0.37749,0.56079 0.683,1.15692 0.98047,1.75606 0.16739,0.086 0.71563,0.18777 0.52698,0.20589 -9.91703,0.94155 -6.19251,0.60073 -4.162,0.2324 0.88421,-0.28724 1.53368,-0.62317 1.3647,-1.64652 -1.58294,-2.38529 -5.56341,-1.24677 3.56966,-1.78865 -0.90104,0.0326 -1.09898,0.32906 -1.42063,1.12912 -0.37451,0.72989 -0.96924,1.64611 -0.0512,2.21462 0.40729,0.0943 0.79887,0.16035 1.21808,0.18219 0.14851,0.005 0.59364,7.1e-4 0.44553,0.0139 -5.00171,0.43457 -7.06784,0.31744 -4.9352,0.42341 0.6225,-0.10551 1.2591,-1.18448 1.094,-1.79101 -0.34718,-0.27655 -0.62096,-0.4197 -1.06946,-0.50917 -0.1366,-0.0278 -0.55243,-0.0465 -0.41374,-0.0604 6.13222,-0.61773 7.05049,-0.90037 4.92278,-0.31512 -0.91401,0.27794 -1.76107,0.9178 -1.95507,1.86389 -0.18924,1.08656 0.55302,1.09339 1.52017,1.29209 2.07636,0.13757 4.98542,-0.3114 -4.27436,0.4341 -0.27268,0.0186 0.57875,0.0595 0.81716,-0.0688 0.13559,-0.0729 0.2096,-0.22076 0.31539,-0.33139 0.69383,-0.61903 0.30795,-1.08897 -0.30298,-1.63828 -0.2861,-0.24634 -0.58952,-0.54008 -0.97495,-0.63806 -0.13461,-0.0326 -0.55441,-0.0326 -0.41574,-0.0465 4.57209,-0.39507 7.24467,-0.37647 4.81238,-0.38112 -1.08269,0.0576 -1.30962,0.59817 -1.41069,1.53939 -0.16292,0.80876 0.82191,1.0648 1.39321,1.47757 2.18747,0.84748 0.33775,0.0962 -4.8091,0.56931 -0.23195,0.0186 1.02383,0.13803 0.66308,-0.22682 0.24487,-1.05299 0.40034,-1.85654 -0.10628,-2.89351 -0.16739,-0.36113 -0.30647,-0.73379 -0.48229,-1.09074 -0.0616,-0.12456 -0.11225,-0.26167 -0.21507,-0.35742 -0.0621,-0.0576 -0.33229,-0.0632 -0.24735,-0.0706 5.01056,-0.44014 7.20547,-0.19381 5.00206,-0.41923 -1.34355,0.57261 -2.40378,1.43877 -3.4965,2.3746 0,0 -5.85988,-0.19986 -5.85988,-0.19986 z"
       id="path3106-9"
       style="fill:#000000;fill-opacity:1" />
    <path
       d="M 92.426396,213.24912 C 26.692558,195.54619 -5.0293158,122.78265 27.787797,64.981289 37.029107,48.704404 55.98542,31.044594 72.699026,23.141727 142.16356,-9.7039097 221.18185,38.983391 221.47712,114.8117 c 0.2542,65.28224 -65.61056,115.52261 -129.050724,98.43742 z m 22.434754,-24.64158 c 13.16937,-8.03063 20.51886,-9.10313 39.66023,-5.78751 7.78414,1.34834 10.10811,0.88562 16.16244,-3.21814 6.38391,-4.32715 7.2674,-6.10228 9.09138,-18.2666 1.59116,-10.61165 3.33525,-14.88841 8.21074,-20.13386 3.40474,-3.6631 9.20994,-12.77139 12.90044,-20.24063 5.36511,-10.85851 6.47048,-15.11028 5.51499,-21.213204 -1.51142,-9.653795 -13.0401,-20.321319 -23.82571,-22.046007 -11.75431,-1.879591 -18.85757,-7.231807 -21.55747,-16.243277 -1.31353,-4.384188 -4.75994,-10.189647 -7.65867,-12.901022 -4.8734,-4.558402 -6.64131,-4.89563 -23.46803,-4.476521 -12.83873,0.319777 -19.89383,-0.423903 -23.95765,-2.525382 -10.377648,-5.366494 -15.941706,-3.874327 -26.535155,7.11619 -8.644171,8.968172 -9.730117,11.094028 -9.730117,19.047741 l 0,8.952917 -11.616754,4.164041 c -17.078884,6.121949 -21.42101,8.786652 -24.393398,14.969895 -4.241402,8.823079 0.02533,24.758029 9.125393,34.080509 7.103879,7.27751 7.204377,7.59656 3.954947,12.55582 -4.597418,7.01655 -4.223775,16.36635 0.842671,21.08646 2.297255,2.14022 9.578012,5.4068 16.17946,7.25907 10.675712,2.99545 12.901198,4.58411 20.130564,14.37014 9.982881,13.51333 13.773543,13.93553 30.969699,3.44937 l 0,0 z"
       transform="translate(90.389188,261.68993)"
       id="path3720"
       style="fill:#99ff55;fill-opacity:1" />
    <path
       d="m 91.771015,99.213054 c 1.322998,1.490726 3.088708,2.281266 4.747902,3.309636 0.213162,0.14052 0.426324,0.28104 0.639486,0.42156 0,0 -1.226131,2.0474 -1.226131,2.0474 l 0,0 c -0.227548,-0.11559 -0.455096,-0.23117 -0.682644,-0.34676 -1.773134,-0.93814 -3.600049,-1.81585 -4.709858,-3.57381 0,0 1.231245,-1.858026 1.231245,-1.858026 z"
       transform="translate(90.389188,261.68993)"
       id="path4026"
       style="fill:#37c837;fill-opacity:1" />
    <path
       d="m 102.96638,94.017886 c 0.87674,0.370573 0.43475,0.171373 1.32486,0.600012 0,0 -1.21172,2.051618 -1.21172,2.051618 l 0,0 c -0.88419,-0.462552 -0.46157,-0.212466 -1.27009,-0.746458 0,0 1.15695,-1.905172 1.15695,-1.905172 z"
       transform="translate(90.389188,261.68993)"
       id="path4028"
       style="fill:#37c837;fill-opacity:1" />
    <path
       d="M 105.82361,225.73021 C 54.866091,220.8318 13.016442,183.77916 2.7147793,134.44023 0.65431227,124.5718 0.3843783,105.88807 2.1529021,95.549356 3.7051328,86.475085 8.4354695,71.900124 12.31617,64.234627 19.744314,49.561909 34.4219,32.80105 48.87328,22.48876 84.287418,-2.7822445 133.29291,-6.2865032 172.68779,13.635098 c 55.66283,28.14814 78.59211,94.090882 51.48939,148.079252 -15.23824,30.3544 -42.97265,52.50281 -76.5154,61.10435 -6.68855,1.71518 -27.21515,4.28021 -31.31473,3.91313 -0.83338,-0.0746 -5.56892,-0.52535 -10.52344,-1.00162 z m 37.10967,-11.9105 c 22.86322,-6.27318 42.27878,-18.75086 56.31313,-36.19045 15.02704,-18.67311 22.27729,-39.14396 22.26048,-62.85169 -0.0286,-40.356878 -21.70658,-74.653557 -58.18775,-92.058741 -16.40992,-7.82918 -24.06381,-9.435806 -44.95179,-9.435806 -19.658776,0 -26.623704,1.295544 -42.135587,7.837629 -25.29639,10.668668 -48.698326,35.990294 -56.649677,61.296721 -4.091333,13.021311 -4.748815,17.54118 -4.702135,32.324877 0.04003,12.67742 0.411132,15.97628 2.759468,24.53003 5.351626,19.49314 14.133042,34.28969 28.583424,48.16263 10.401989,9.98633 19.929023,16.26119 32.651004,21.50517 15.206117,6.26794 24.189193,7.87487 41.513813,7.42616 10.91959,-0.28283 16.65731,-0.9309 22.54562,-2.54653 z"
       transform="translate(90.389188,261.68993)"
       id="path4032"
       style="fill:#000000;fill-opacity:1" />
    <path
       d="m 82.832508,95.233887 a 3.5355339,3.5355339 0 1 1 -0.03955,-0.527355"
       transform="translate(90.389188,261.68993)"
       id="path4044"
       style="fill:#0b280b;fill-opacity:1" />
    <path
       d="m 82.832508,95.233887 a 3.5355339,3.5355339 0 1 1 -0.03955,-0.527355"
       transform="translate(83.823194,304.62141)"
       id="path4044-6"
       style="fill:#0b280b;fill-opacity:1" />
    <path
       d="m 82.832508,95.233887 a 3.5355339,3.5355339 0 1 1 -0.03955,-0.527355"
       transform="translate(120.18869,311.69248)"
       id="path4044-2"
       style="fill:#0b280b;fill-opacity:1" />
    <path
       d="m 82.832508,95.233887 a 3.5355339,3.5355339 0 1 1 -0.03955,-0.527355"
       transform="translate(112.10746,282.39805)"
       id="path4044-0"
       style="fill:#0b280b;fill-opacity:1" />
    <path
       d="m 82.832508,95.233887 a 3.5355339,3.5355339 0 1 1 -0.03955,-0.527355"
       transform="translate(145.4425,290.47927)"
       id="path4044-69"
       style="fill:#0b280b;fill-opacity:1" />
    <path
       d="m 82.832508,95.233887 a 3.5355339,3.5355339 0 1 1 -0.03955,-0.527355"
       transform="translate(137.36128,255.12394)"
       id="path4044-4"
       style="fill:#0b280b;fill-opacity:1" />
    <path
       d="m 82.832508,95.233887 a 3.5355339,3.5355339 0 1 1 -0.03955,-0.527355"
       transform="translate(115.13793,233.91073)"
       id="path4044-9"
       style="fill:#0b280b;fill-opacity:1" />
    <path
       d="m 82.832508,95.233887 a 3.5355339,3.5355339 0 1 1 -0.03955,-0.527355"
       transform="translate(-11.131142,408.66712)"
       id="path4044-3"
       style="fill:#ffffff;fill-opacity:1" />
  </g>
</svg>
