<?xml version="1.0" encoding="UTF-8" standalone="no"?>
<!-- Created with Inkscape (http://www.inkscape.org/) -->

<svg
   xmlns:dc="http://purl.org/dc/elements/1.1/"
   xmlns:cc="http://creativecommons.org/ns#"
   xmlns:rdf="http://www.w3.org/1999/02/22-rdf-syntax-ns#"
   xmlns:svg="http://www.w3.org/2000/svg"
   xmlns="http://www.w3.org/2000/svg"
   xmlns:sodipodi="http://sodipodi.sourceforge.net/DTD/sodipodi-0.dtd"
   xmlns:inkscape="http://www.inkscape.org/namespaces/inkscape"
   version="1.1"
   width="236.36449"
   height="227.05879"
   id="svg3607"
   inkscape:version="0.48.3.1 r9886"
   sodipodi:docname="ping of death.svg">
  <sodipodi:namedview
     pagecolor="#ffffff"
     bordercolor="#666666"
     borderopacity="1"
     objecttolerance="10"
     gridtolerance="10"
     guidetolerance="10"
     inkscape:pageopacity="0"
     inkscape:pageshadow="2"
     inkscape:window-width="1311"
     inkscape:window-height="744"
     id="namedview24"
     showgrid="false"
     inkscape:zoom="2.939806"
     inkscape:cx="85.786201"
     inkscape:cy="-6.9784828"
     inkscape:window-x="55"
     inkscape:window-y="24"
     inkscape:window-maximized="1"
     inkscape:current-layer="layer1" />
  <defs
     id="defs3609">
    <filter
       id="filter3007"
       inkscape:label="Air spray"
       inkscape:menu="Scatter"
       inkscape:menu-tooltip="Convert to small scattered particles with some thickness"
       width="2"
       height="2"
       y="-0.5"
       x="-0.5"
       color-interpolation-filters="sRGB">
      <feGaussianBlur
         id="feGaussianBlur3009"
         stdDeviation="0.01"
         result="result1" />
      <feBlend
         id="feBlend3011"
         in2="result1"
         result="fbSourceGraphic"
         mode="multiply" />
      <feTurbulence
         id="feTurbulence3013"
         baseFrequency="0.8"
         type="fractalNoise"
         seed="0"
         numOctaves="3"
         result="result3" />
      <feDisplacementMap
         id="feDisplacementMap3015"
         in2="result3"
         in="fbSourceGraphic"
         xChannelSelector="R"
         yChannelSelector="G"
         scale="50"
         result="result2" />
      <feMorphology
         id="feMorphology3017"
         radius="1"
         operator="dilate"
         result="result4" />
      <feBlend
         id="feBlend3019"
         in2="result2"
         mode="screen" />
    </filter>
  </defs>
  <metadata
     id="metadata3612">
    <rdf:RDF>
      <cc:Work
         rdf:about="">
        <dc:format>image/svg+xml</dc:format>
        <dc:type
           rdf:resource="http://purl.org/dc/dcmitype/StillImage" />
        <dc:title></dc:title>
      </cc:Work>
    </rdf:RDF>
  </metadata>
  <g
     transform="translate(-90.389188,-261.68993)"
     id="layer1">
    <path
       d="M 137.91069,464.33173 A 22.5,22.5 0 1 1 137.659,460.97566"
       id="path3513"
       style="fill:#d5e5ff;fill-opacity:1"
       inkscape:export-filename="/home/sade/Desktop/screw-comps/images/troops/ping_of_death.png"
       inkscape:export-xdpi="90"
       inkscape:export-ydpi="90"
       inkscape:connector-curvature="0" />
    <path
       d="m 98.194973,461.91204 c 0.03266,0.2929 0.118854,0.57585 0.183982,0.86315 0.08787,0.3728 0.08808,0.7528 0.09004,1.13235 0.05872,0.29777 0.123735,0.59522 0.150645,0.89779 0.002,0.16789 -0.0051,0.33525 0.06459,0.49092 0.08612,0.21443 0.125395,0.43727 0.228373,0.64487 0.105598,0.13336 0.07839,0.32543 0.180406,0.4552 0.01712,0.0791 0.0072,0.19982 0.0749,0.26205 0.119224,0.11033 0.01216,-0.0531 0.08436,0.0703 0.119739,0.12126 0.223633,0.25206 0.339682,0.37856 0.150131,0.12719 0.303257,0.25372 0.436459,0.39851 0.16279,0.11909 0.27833,0.26573 0.3369,0.45607 0.0339,0.18606 0.19856,0.24844 0.31783,0.37608 0.12915,0.0734 0.23005,0.20205 0.30899,0.32814 0.15657,0.021 0.13967,0.16755 0.2097,0.25877 0.0424,0.091 0.13155,0.13751 0.20841,0.20304 0.0547,0.0804 0.11886,0.12767 0.19591,0.19257 0.0906,0.0844 0.11739,0.22951 0.13002,0.34708 0.10049,0.12979 0.1048,0.26472 0.0391,0.40949 -0.0423,0.0589 -0.0426,0.12487 -0.0326,0.19554 0.019,0.16935 -0.0256,0.29509 -0.10839,0.44203 -0.13393,0.12017 -0.2245,0.27012 -0.32715,0.41461 -0.11196,0.10958 -0.15959,0.2465 -0.23036,0.37978 -0.0886,0.12501 -0.1841,0.23623 -0.29236,0.34445 -0.12095,0.10906 -0.12071,0.24058 -0.13631,0.38969 -0.0579,0.14116 -0.10995,0.27005 -0.066,0.41953 0.0324,0.16237 0.0661,0.32814 0.0289,0.49075 -0.0616,0.13079 -0.0439,0.27323 -0.0754,0.41411 -0.0953,0.15421 -0.0551,0.23582 -8.3e-4,0.39443 0.12476,0.1514 0.26509,0.27838 0.31515,0.46855 0.0362,0.13264 0.12502,0.28629 0.21404,0.39862 0.0996,0.14864 0.26347,0.22063 0.41808,0.30959 0.1071,0.18142 0.29426,0.2256 0.45389,0.33516 0.20268,0.10021 0.40044,0.20558 0.60414,0.30357 0.16133,0.11315 0.35635,0.0973 0.53769,0.15213 0.1937,0.056 0.38724,0.15018 0.58941,0.17129 0.15472,0.0624 0.3071,0.14033 0.47672,0.18871 0.18255,0.0304 0.34784,0.11258 0.5139,0.19684 0.15061,0.047 0.30388,0.0556 0.46001,0.0659 0.19955,-0.0158 0.37852,0.0836 0.56427,0.14559 0.1856,0.0319 0.32567,0.14421 0.49399,0.2222 0.15804,0.0441 0.30177,0.0682 0.44696,0.15267 0.055,0.0873 0.16467,0.0665 0.23847,0.11116 0.0243,0.0147 0.0409,0.0392 0.0613,0.059 0.0268,0.0139 0.0538,0.0276 0.0805,0.0414 0.14556,0.0816 0.27968,0.17707 0.39574,0.29578 0.11517,0.0494 0.27387,0.19468 0.36814,0.28376 0.0716,0.13345 0.18807,0.18551 0.28203,0.29715 0.106,0.11735 0.21795,0.22327 0.2911,0.36582 0.0849,0.1154 0.12774,0.26636 0.1957,0.40155 0.0743,0.16763 0.21766,0.30665 0.33267,0.4528 0.13158,0.0806 0.1024,0.30961 0.20995,0.38624 0.12711,0.0943 0.12331,0.2769 0.22081,0.3825 0.12098,0.11523 0.15924,0.27101 0.25545,0.39736 0.094,0.07 0.0957,0.21899 0.18523,0.27945 0.13803,0.0864 0.27206,0.17373 0.35851,0.31228 0.0541,0.13054 0.20561,0.19317 0.31437,0.27837 0.11654,0.0871 0.14549,0.21546 0.25806,0.30281 0.12838,0.0562 0.006,0.13453 0.0952,0.0772 0.11205,-0.0246 0.2313,-0.0195 0.3462,-0.0188 0.0283,-6.3e-4 0.0568,-10e-4 0.0851,-0.002 -0.36867,0.0222 -0.73684,0.055 -1.10602,0.0666 -0.0295,6.2e-4 0.0541,-0.0235 0.0815,-0.0346 0.0964,-0.0393 0.19119,-0.0748 0.29162,-0.10309 0.19463,-0.0317 0.3641,-0.11881 0.52872,-0.22029 0.10894,-0.0838 0.19947,-0.18039 0.31879,-0.24892 0.0954,-0.10766 0.20854,-0.18452 0.34882,-0.22392 0.12975,-0.0528 0.24075,-0.13758 0.36979,-0.19853 0.17067,-0.0663 0.31609,-0.16918 0.44788,-0.29276 0.12677,-0.10543 0.27133,-0.15353 0.43072,-0.18523 0.14219,-0.0106 0.16907,-0.0543 0.23477,-0.14905 0.0876,-0.11747 0.22425,-0.18877 0.33867,-0.27863 0.11184,-0.12238 0.25053,-0.16726 0.40389,-0.21337 0.12292,-0.0284 0.21409,-0.13173 0.30053,-0.21699 0.12816,-0.14897 0.31486,-0.18635 0.49711,-0.23454 0.19849,-0.10021 0.42336,-0.12995 0.61703,-0.23727 0.16905,-0.10234 0.36058,-0.14431 0.54929,-0.19569 0.17266,-0.10001 0.34716,-0.16944 0.54585,-0.19952 0.76158,-0.0714 2.82849,-0.17551 0.47488,-0.0385 0.15507,-0.067 0.30871,-0.12719 0.47168,-0.17331 0.54336,-0.0747 1.09393,-0.10955 1.64278,-0.11088 0.18311,-10e-4 0.36784,-0.006 0.54958,0.006 0.23292,-0.0225 0.45471,0.0429 0.67814,0.10181 0.31788,0.079 0.64889,0.0635 0.96707,0.1315 0.24466,0.0627 0.48908,0.14593 0.73867,0.18341 0.15591,0.0174 0.2591,-6.3e-4 0.37038,0.11874 0.1869,0.0735 0.39437,0.0917 0.59447,0.10127 0.21175,0.0405 0.39691,0.14777 0.61791,0.17975 0.48883,0.0942 1.48997,-0.004 -0.5913,0.11353 0.18015,-0.0748 0.36941,-0.12991 0.54311,-0.21929 0.23481,-0.0862 0.44571,-0.20497 0.64558,-0.35198 0.18644,-0.11725 0.38343,-0.21367 0.5629,-0.34138 0.15741,-0.0552 0.26898,-0.16995 0.40583,-0.25702 0.1153,-0.0858 0.21046,-0.18856 0.3199,-0.28006 0.12702,-0.0582 0.20825,-0.16194 0.29957,-0.25945 0.10393,-0.091 0.0778,-0.24409 0.11474,-0.37181 0.0384,-0.1714 0.1059,-0.32996 0.19661,-0.48265 0.0439,-0.13598 0.0101,-0.27165 0.0409,-0.41324 0.0412,-0.12933 0.0435,-0.26582 0.0536,-0.39988 0.0133,-0.14297 0.002,-0.28713 0.006,-0.43071 0.002,-0.1651 -0.002,-0.33223 -0.0155,-0.49747 0.0182,-0.18228 -6.2e-4,-0.36435 0.005,-0.54675 -6.2e-4,-0.13716 0.0567,-0.25303 0.12972,-0.366 -0.0403,-0.12723 -0.08,-0.25465 -0.0912,-0.38783 -0.023,-0.14552 -0.0346,-0.2963 -0.0233,-0.4437 -0.0161,-0.145 -0.008,-0.29709 0.0571,-0.42964 0.0757,-0.0975 0.1419,-0.19914 0.14718,-0.32437 0.008,-0.15452 0.0192,-0.29039 0.0702,-0.43796 0.12179,-0.22553 0.2986,-0.4101 0.45614,-0.61012 0.14452,-0.16153 0.31698,-0.29506 0.47946,-0.43833 0.11499,-0.11505 0.21481,-0.24532 0.32906,-0.36225 0.13442,-0.11113 0.24777,-0.23887 0.34221,-0.38395 0.10926,-0.12478 0.22688,-0.25148 0.3537,-0.36049 0.0968,-0.13876 0.25013,-0.21742 0.35157,-0.35036 0.10079,-0.16144 0.2544,-0.27356 0.38006,-0.41368 0.0726,-0.18193 0.14189,-0.35764 0.2218,-0.53755 0.0901,-0.13136 0.10699,-0.289 0.19684,-0.41748 0.10414,-0.0977 0.13455,-0.23951 0.20775,-0.35598 0.10079,-0.11533 0.13851,-0.25529 0.16399,-0.40026 0.0605,-0.18904 0.17725,-0.34916 0.27322,-0.52033 0.12409,-0.18567 0.26249,-0.35699 0.35033,-0.5619 0.0482,-0.16435 0.14799,-0.3009 0.21639,-0.45649 0.0471,-0.18775 0.19964,-0.31404 0.30174,-0.471 0.1072,-0.1107 0.1575,-0.24404 0.18794,-0.38932 -0.0223,-0.17857 0.07,-0.31974 0.15067,-0.47048 0.0692,-0.13247 0.0746,-0.2851 0.1425,-0.41971 0.11927,-0.12676 0.0968,-0.19037 0.0825,-0.34221 0.0207,-0.17632 0.0301,-0.35304 0.0645,-0.52769 -0.003,-0.1763 0.0231,-0.35312 0.0133,-0.52893 0.002,-0.17291 -0.002,-0.34553 0.003,-0.51837 0.012,-0.18192 -0.0574,-0.34912 -0.0776,-0.52724 0.0286,-0.19258 0.0603,-0.21069 -0.0265,-0.37326 -0.0676,-0.11106 -0.0422,-0.23906 -0.1541,-0.30959 -0.11815,-0.0896 -0.0311,-0.21484 -0.15185,-0.2849 -0.13449,-0.0964 -0.17855,-0.24165 -0.22462,-0.39008 -0.0121,-0.13642 -0.058,-0.29877 -0.18698,-0.3705 -0.12883,-0.0464 -0.19475,-0.14323 -0.23656,-0.26714 -0.0191,-0.0837 -0.10884,-0.12944 -0.16613,-0.20126 -0.12197,-0.052 -0.25573,-0.11701 -0.37472,-0.1913 -0.0804,-0.11913 -0.16525,-0.23812 -0.31818,-0.26011 -0.12542,-0.11892 -0.28802,-0.17291 -0.43666,-0.25842 -0.12351,-0.10997 -0.26554,-0.16283 -0.37886,-0.28088 -0.1824,-0.0629 -0.31674,-0.21223 -0.49308,-0.27957 -0.1348,-0.11472 -0.27321,-0.23707 -0.45421,-0.26785 -0.1529,-0.0349 -0.30175,-0.005 -0.44507,-0.0704 -0.16516,-0.0969 -0.35838,-0.12052 -0.54414,-0.1563 -0.18767,0.01 -0.33157,-0.0417 -0.48479,-0.14385 -0.14064,-0.0588 -0.2846,-0.0734 -0.43454,-0.0889 -0.198,-0.002 -0.39583,0.005 -0.59387,9.9e-4 -0.14592,-0.0887 -0.29815,-0.15514 -0.46365,-0.19488 -0.18829,0.0143 -0.30405,-0.10684 -0.46258,-0.18246 -0.17458,-0.0337 -0.28095,-0.17357 -0.44338,-0.23958 -0.14821,-0.0721 -0.26908,-0.16305 -0.42529,-0.21719 -0.15472,-0.0867 -0.27406,-0.21857 -0.41439,-0.32025 -0.15117,-0.0755 -0.17042,-0.24498 -0.27213,-0.35676 -0.092,-0.11432 -0.15874,-0.23831 -0.18393,-0.38213 -0.0392,-0.1077 -0.13481,-0.20249 -0.18863,-0.31423 -0.0629,-0.12426 -0.0203,-0.28109 -0.0948,-0.39314 -0.071,-0.15026 -0.16286,-0.28487 -0.24729,-0.42697 -0.0923,-0.16141 -0.14057,-0.34125 -0.15858,-0.52444 0.0218,-0.16869 -0.0459,-0.27956 -0.11533,-0.42395 -0.0501,-0.18015 -0.14757,-0.33132 -0.22851,-0.49897 -0.0473,-0.13986 -0.0819,-0.28776 -0.096,-0.43458 -0.0876,-0.15589 -0.17601,-0.30308 -0.27748,-0.45019 -0.14593,-0.12641 -0.27318,-0.25554 -0.34326,-0.43571 -0.11841,-0.0798 -0.21421,-0.18336 -0.31105,-0.28696 -0.1178,-0.1444 -0.30125,-0.22216 -0.44639,-0.34215 -0.17341,-0.0622 -0.33246,-0.1223 -0.50162,-0.18924 -0.17408,-0.088 -0.35858,-0.11848 -0.53154,-0.21187 -0.19089,-0.0731 -0.39133,-0.12341 -0.59631,-0.13532 -0.20535,-0.006 -0.40121,-0.1103 -0.59211,-0.18624 -0.43953,0.15057 -0.0606,0.0124 1.02115,-0.0419 0.0527,-0.003 -0.10059,0.0318 -0.15036,0.0492 -0.0972,0.0339 -0.0933,0.0292 -0.19725,0.0495 -0.63401,0.0938 -1.27839,0.12771 -1.91964,0.12528 -0.39187,0.004 -1.06939,0.0136 0.99562,-0.0635 0.0319,-9.9e-4 -0.0618,0.0159 -0.092,0.0266 -0.0876,0.0313 -0.17197,0.0686 -0.26071,0.0978 -0.18692,0.0391 -0.35467,0.12761 -0.5328,0.19157 -0.63483,0.17357 -1.31401,0.16811 -1.96834,0.18501 -0.17861,0.004 -0.35667,-0.006 -0.53526,-0.004 -0.18513,-6.3e-4 -0.37022,0.004 -0.55536,-6.3e-4 -0.19683,-2e-5 -0.39367,0.004 -0.59051,0.002 -0.23049,0.0126 -0.43415,0.004 -0.6501,-0.0786 -0.22792,-0.0302 -0.40902,-0.16741 -0.61497,-0.24835 -0.18464,-0.10697 -0.41546,-0.0466 -0.59463,-0.15115 -0.16609,-0.10522 -0.31542,-0.23969 -0.50491,-0.30871 -0.17724,-0.0661 -0.31314,-0.21546 -0.49991,-0.26313 -0.11861,-0.11065 -0.26275,-0.17362 -0.40658,-0.24651 -0.16552,0.003 -0.30561,-0.0842 -0.43494,-0.17713 -0.10862,-0.0209 -0.21196,-0.065 -0.32326,-0.0584 1.8374,-0.16353 1.19197,-0.21745 0.80452,0.1336 -0.18339,0.12589 -0.40269,0.18163 -0.59963,0.28537 -0.15524,0.13121 -0.31139,0.26116 -0.48421,0.3695 -0.1652,0.0771 -0.29762,0.19183 -0.41744,0.32519 -0.11738,0.16155 -0.25168,0.30967 -0.38484,0.45864 -0.13473,0.14825 -0.27627,0.28477 -0.43371,0.40837 -0.082,0.15998 -0.2161,0.28129 -0.32762,0.42005 -0.14487,0.13385 -0.24432,0.29463 -0.30269,0.47868 -0.0395,0.19979 -0.17431,0.3502 -0.3087,0.49676 -0.12927,0.12435 -0.26263,0.23537 -0.34089,0.39704 -0.0557,0.14276 -0.19182,0.25047 -0.23691,0.395 -0.038,0.12141 -0.0479,0.25405 -0.036,0.38068 0.002,0.14367 -0.0119,0.28885 0.002,0.43193 0.002,0.1451 -0.0131,0.29158 6.1e-4,0.4361 -0.0203,0.17057 0.0275,0.32832 0.0388,0.49093 -0.006,0.15374 -0.016,0.30607 -0.0292,0.45925 -8.3e-4,0.16284 0.002,0.32709 -0.0143,0.48947 -0.0465,0.14252 -0.1309,0.26138 -0.17923,0.4024 -0.008,0.12598 -0.0325,0.25042 -0.0644,0.37249 -0.017,0.13214 -0.10241,0.11971 -0.20119,0.174 -0.17813,0.0892 -0.35535,0.18156 -0.53091,0.27702 -0.1847,0.0668 -0.3311,0.19356 -0.51576,0.26172 -0.22453,0.0378 -0.37925,0.17352 -0.55328,0.3041 -0.16984,0.0989 -0.3531,0.1657 -0.51711,0.2742 -0.15241,0.087 -0.31557,0.13043 -0.48971,0.14668 -0.20101,0.0482 -0.39442,0.12161 -0.59426,0.17689 -0.18123,0.0268 -0.35017,0.10437 -0.51142,0.18701 -0.48668,0.16715 -1.04663,0.0849 -1.53549,0.15344 -0.36652,0.0515 0.73859,-0.0555 1.10867,-0.0667 0.0356,-6.5e-4 -0.067,0.0244 -0.10038,0.0367 -0.19818,0.081 -0.41045,0.11934 -0.60918,0.19721 -0.17544,0.0998 -0.37309,0.1312 -0.56625,0.17815 -0.13323,0.0927 -0.28398,0.14975 -0.432014,0.21303 -0.212757,0.08 -0.374476,0.21519 -0.537708,0.36449 -0.144394,0.11695 -0.260792,0.25837 -0.402075,0.37898 -0.08509,0.11959 -0.21568,0.18872 -0.282043,0.32015 0.0042,0.19022 -0.09777,0.34531 -0.158816,0.5167 -0.03235,0.11766 -0.06531,0.23263 -0.103975,0.34936 -0.09004,0.0823 -0.07201,0.19404 -0.106504,0.30766 0.03708,0.12769 0.06892,0.25258 0.07716,0.38565 0.02298,0.12365 0.02504,0.2514 0.02689,0.37672 -0.01452,0.14736 -0.138899,0.25213 -0.177468,0.38704 -0.06264,0.1262 -0.01462,0.16105 -0.01288,0.28541 -0.0092,0.13086 -0.04399,0.11235 0.04492,0.0991 0.0956,0.55146 -1.475404,0.46625 -1.125626,-0.0526 0.05368,-0.0752 0.12831,-0.0781 0.214608,-0.0923 0,0 1.237236,0.10438 1.237236,0.10438 l 0,0 c -0.09911,0.002 -0.199331,0.009 -0.298176,-6.5e-4 -0.353252,0.23277 -1.247261,-0.26023 -1.15343,0.24768 -0.06871,-0.0578 -0.09767,-0.14576 -0.08777,-0.23465 0.0062,-0.10955 -0.05419,-0.20802 -0.0042,-0.31926 0.0445,-0.12358 0.0923,-0.25222 0.185463,-0.34935 -0.002,-0.1203 -0.0092,-0.23634 -0.02205,-0.35689 -0.048,-0.1441 -0.07655,-0.29494 -0.07118,-0.44651 0.04996,-0.10373 -0.01024,-0.26506 0.09652,-0.34464 0.124115,-0.0675 0.0062,-0.19857 0.06222,-0.31302 0.06902,-0.17464 0.163319,-0.33572 0.193771,-0.52095 0.05141,-0.15307 0.150777,-0.2659 0.280932,-0.36431 0.106089,-0.13603 0.23749,-0.24634 0.341909,-0.38337 0.166889,-0.17049 0.33919,-0.31822 0.564264,-0.40505 0.153016,-0.073 0.319534,-0.0956 0.457705,-0.20214 0.139693,-0.12754 0.370373,-0.0808 0.53238,-0.18675 0.19216,-0.11286 0.398893,-0.11818 0.599843,-0.21145 0.54907,-0.18655 2.83172,-0.26598 0.32198,-0.087 -0.2664,0.0191 0.53117,-0.0136 0.24462,-0.0317 0.17292,-0.0428 0.30351,-0.20131 0.4925,-0.20636 0.21034,-0.0315 0.40664,-0.11946 0.60452,-0.19266 0.16688,-0.008 0.33325,-0.006 0.48032,-0.0951 0.17053,-0.0764 0.31216,-0.19739 0.48939,-0.2659 0.1944,-0.11013 0.34421,-0.31362 0.58106,-0.33344 0.18808,-0.0586 0.34342,-0.15127 0.50704,-0.2505 0.19456,-0.0713 0.35019,-0.2283 0.56276,-0.26353 0.11715,-0.0712 0.14954,-0.11504 0.252,-0.037 0.006,0.005 -0.003,-0.0153 -0.005,-0.0231 -0.0234,-0.13264 -0.0234,-0.2687 0.0177,-0.39833 0.0346,-0.13527 0.0943,-0.26178 0.18504,-0.37036 -0.0151,-0.16417 -0.008,-0.33168 0.006,-0.49536 0.005,-0.14577 0.0335,-0.2923 0.023,-0.43756 -0.0327,-0.16903 -0.0527,-0.33332 -0.0348,-0.50538 0.0135,-0.14441 -8.2e-4,-0.29077 -8.2e-4,-0.43571 0.0131,-0.14389 -0.002,-0.2895 5e-5,-0.43392 0.0158,-0.13868 0.005,-0.27979 0.0423,-0.41662 0.0509,-0.14518 0.11104,-0.29071 0.22499,-0.40052 0.0558,-0.17737 0.16099,-0.34 0.32835,-0.43502 0.11478,-0.14942 0.25191,-0.25797 0.3151,-0.44319 0.0369,-0.20209 0.11894,-0.39579 0.27217,-0.54032 0.14093,-0.12576 0.26211,-0.27134 0.39519,-0.40468 0.0598,-0.16753 0.24167,-0.28859 0.36553,-0.4138 0.12402,-0.16832 0.30013,-0.28439 0.41094,-0.45716 0.10306,-0.14325 0.2457,-0.26065 0.38619,-0.36672 0.18428,-0.11573 0.36881,-0.20396 0.51789,-0.36598 0.1776,-0.1463 0.37542,-0.20683 0.59232,-0.27807 0.33281,-0.20644 -0.15177,0.10437 0.14736,-0.1208 0.35801,-0.26948 1.22077,-0.13135 1.40584,-0.21944 0.11825,0.0304 0.24535,0.036 0.34939,0.1065 0.13805,0.0638 0.27569,0.12372 0.42159,0.16553 0.15994,0.0592 0.29389,0.15128 0.44042,0.23492 0.17693,0.088 0.34155,0.19564 0.52527,0.26869 0.16589,0.0964 0.30405,0.23234 0.48393,0.30278 0.20961,0.0387 0.42416,0.0554 0.61661,0.15608 0.19806,0.10618 0.3994,0.17821 0.61863,0.23218 0.20467,0.0526 0.41191,0.0513 0.62265,0.0454 0.19119,-0.001 0.38239,9.9e-4 0.5736,0.002 0.18479,-0.004 0.36949,2.1e-4 0.55425,10e-4 0.19405,0.004 0.3879,-0.006 0.58185,-0.0106 0.50418,-0.0192 0.0845,-0.004 -0.98752,0.0718 -0.31238,0.0222 0.82512,-0.042 0.5117,-0.0567 0.18825,-0.0664 0.36253,-0.16803 0.56305,-0.18875 0.55143,-0.22786 1.11978,-0.3225 1.74476,-0.2559 1.32082,-0.0422 -1.66118,0.10892 -0.49701,0.0466 0.56837,-0.0885 1.14437,-0.33916 1.73035,-0.18376 0.19976,0.0579 0.3883,0.15267 0.60087,0.15772 0.21158,0.0344 0.42358,0.0702 0.61303,0.17569 0.17396,0.0781 0.35821,0.12584 0.53073,0.20819 0.16007,0.0847 0.34734,0.10661 0.49571,0.21485 0.16188,0.10479 0.32233,0.21804 0.44381,0.36778 0.0938,0.11025 0.19197,0.21355 0.29251,0.31604 0.11669,0.15752 0.27273,0.26804 0.38895,0.42499 0.0869,0.16289 0.18867,0.32554 0.22786,0.50579 0.0195,0.14439 0.086,0.26209 0.14921,0.39547 0.0635,0.16629 0.12667,0.33449 0.19765,0.49619 0.0767,0.15052 0.11123,0.29515 0.1156,0.46144 0.0311,0.16946 0.079,0.33445 0.18161,0.47829 0.0788,0.1485 0.12314,0.30801 0.22204,0.44695 0.0271,0.1306 0.0236,0.26467 0.077,0.38728 0.0494,0.11561 0.17167,0.19676 0.18172,0.33348 0.0511,0.13085 0.11785,0.236 0.20784,0.34584 0.0578,0.14157 0.14243,0.23885 0.27367,0.32238 0.11226,0.11931 0.25961,0.19339 0.39805,0.27986 0.148,0.0615 0.27008,0.16916 0.42093,0.22436 0.15278,0.0729 0.28172,0.19016 0.44638,0.24295 0.15178,0.0743 0.28344,0.14893 0.45928,0.16019 0.16151,0.0475 0.30923,0.14856 0.47899,0.15925 0.18704,-0.003 0.37498,-0.003 0.56104,0.0179 0.15872,0.016 0.3165,0.0548 0.45598,0.13303 0.15869,0.0704 0.31299,0.0892 0.48586,0.10374 0.19233,0.0306 0.3719,0.0894 0.54619,0.17486 0.14729,0.026 0.30138,0.0146 0.44459,0.0671 0.17073,0.0775 0.32353,0.17181 0.47298,0.28406 0.163,0.099 0.3268,0.1991 0.47637,0.31591 0.12285,0.096 0.26061,0.17062 0.39135,0.25556 0.13326,0.0853 0.28212,0.1466 0.41089,0.24033 0.12492,0.0783 0.22295,0.17005 0.32037,0.27787 0.12702,0.0631 0.25717,0.12979 0.35679,0.23136 0.0735,0.0704 0.11741,0.14394 0.16155,0.23156 0.0753,0.0979 0.1644,0.15788 0.27238,0.21921 0.11244,0.13114 0.17538,0.27083 0.19305,0.44272 0.0208,0.13691 0.11285,0.23809 0.20401,0.33823 0.039,0.0949 0.0675,0.19177 0.14124,0.26772 0.0985,0.1032 0.10786,0.23201 0.17046,0.35257 0.0674,0.13675 0.0852,0.26673 0.0649,0.41772 -8.4e-4,0.18246 0.10089,0.34981 0.0628,0.53536 0.006,0.17297 0.002,0.34568 0.003,0.51877 -0.0121,0.17951 0.0119,0.36109 -0.0194,0.54021 -8.5e-4,0.17607 -0.0379,0.34552 -0.078,0.51625 -0.0212,0.14063 0.0655,0.27372 -0.0658,0.40061 -0.0816,0.13432 -0.11042,0.25996 -0.15137,0.41331 -0.065,0.15099 -0.16257,0.26459 -0.15326,0.4384 -0.0218,0.15823 -0.0701,0.31785 -0.17574,0.44257 -0.11509,0.13905 -0.19839,0.28867 -0.30709,0.43904 -0.0504,0.16184 -0.16146,0.29392 -0.20433,0.45235 -0.0552,0.21842 -0.16437,0.41893 -0.32101,0.5844 -0.097,0.16727 -0.2259,0.30871 -0.32068,0.47722 -0.0175,0.15932 -0.0589,0.32013 -0.15413,0.45286 -0.0872,0.11887 -0.14349,0.23812 -0.2217,0.36222 -0.0993,0.11802 -0.11711,0.2472 -0.16341,0.392 -0.0896,0.18565 -0.16444,0.36922 -0.23108,0.56336 -0.10568,0.16333 -0.25917,0.27284 -0.40128,0.40187 -0.0824,0.16662 -0.22916,0.24961 -0.34554,0.38892 -0.12393,0.0982 -0.21886,0.2125 -0.33836,0.31757 -0.0826,0.16824 -0.21195,0.27955 -0.33812,0.41507 -0.11713,0.11809 -0.2486,0.22667 -0.34836,0.35863 -0.12287,0.16603 -0.29389,0.26742 -0.41357,0.43506 -0.17831,0.18614 -0.31511,0.41071 -0.51482,0.57751 -0.0795,0.13045 -0.0865,0.25227 -0.0882,0.40487 -0.0312,0.12972 -0.0538,0.25962 -0.1425,0.36676 -0.10458,0.15239 -0.0561,0.18491 -0.0692,0.36898 0.0146,0.14193 0.008,0.28379 0.0214,0.42587 0.0364,0.13853 0.0695,0.28064 0.0792,0.42241 0.008,0.14548 -0.15269,0.19572 -0.0848,0.34871 0.006,0.18216 -0.0132,0.36401 0.005,0.54604 -0.0127,0.16591 -0.0171,0.3337 -0.0145,0.49942 0.002,0.14596 -0.006,0.29149 -0.006,0.43724 -0.006,0.14125 -0.0273,0.28129 -0.0601,0.41871 -0.0355,0.15782 0.0324,0.28561 -0.0204,0.44042 -0.063,0.15997 -0.17777,0.29165 -0.20572,0.46187 -0.0408,0.1452 -0.0443,0.30433 -0.11158,0.42888 -0.10436,0.1048 -0.20647,0.21095 -0.31993,0.30666 -0.16503,0.0132 -0.15451,0.1992 -0.31246,0.25589 -0.12456,0.0941 -0.23402,0.19626 -0.3731,0.26514 -0.1828,0.0927 -0.33473,0.23715 -0.5164,0.33601 -0.21736,0.13955 -0.41671,0.29581 -0.66907,0.37125 -0.19446,0.0839 -0.38723,0.1523 -0.58116,0.23715 -0.64127,0.0552 -1.21932,0.17882 -1.83693,0.0491 -0.20158,-0.0612 -0.38849,-0.17104 -0.60509,-0.16618 -0.19219,-0.0256 -0.39615,-0.0464 -0.54602,-0.17966 -0.11851,-0.057 -0.267,-0.0218 -0.39427,-0.0548 -0.27849,-0.0492 -0.55664,-0.0969 -0.8308,-0.16817 -0.3129,-0.0512 -0.63375,-0.0558 -0.94013,-0.14454 -0.18441,-0.0443 -0.366,-0.10728 -0.55875,-0.0963 -0.20005,0.0152 -0.40113,0.004 -0.60157,0.005 -0.7789,0.006 1.52645,-0.12392 0.74026,-0.0599 -0.16669,0.0153 -0.32221,0.0745 -0.46516,0.15849 -3.9973,0.36895 0.54162,-0.0622 -0.44648,0.0622 -0.19962,0.0217 -0.40868,0.0291 -0.56862,0.16349 -0.16012,0.0954 -0.37206,0.0749 -0.52975,0.18788 -0.20345,0.10149 -0.40149,0.18384 -0.62295,0.25123 -0.16754,0.0839 -0.37145,0.0565 -0.52615,0.1778 -0.0962,0.1175 -0.21632,0.17891 -0.31818,0.2931 -0.13092,0.01 -0.29061,0.0446 -0.37499,0.14975 -0.11871,0.11978 -0.26154,0.18413 -0.40079,0.27893 -0.0744,0.0182 -0.0241,0.23366 -0.18668,0.22294 -0.148,0.003 -0.29266,0.022 -0.40924,0.11799 -0.16108,0.10661 -0.27295,0.27722 -0.47045,0.33874 -0.15045,0.0195 -0.27081,0.10086 -0.37421,0.20613 -0.13085,0.0194 -0.27671,0.0453 -0.35296,0.16329 -0.0871,0.10043 -0.2317,0.11673 -0.28949,0.25926 -0.13924,0.12151 -0.33446,0.23911 -0.51977,0.26677 -0.56722,0.14596 -1.07997,0.38019 -1.72231,0.24506 -0.097,9.9e-4 -0.2155,0.0169 -0.30382,-0.0233 -0.0806,-0.088 -0.0374,-0.0506 -0.15926,-0.11748 -0.10059,-0.0964 -0.14194,-0.23288 -0.27882,-0.29423 -0.11441,-0.0924 -0.23411,-0.18207 -0.30586,-0.31215 -0.1011,-0.11408 -0.25885,-0.17459 -0.34529,-0.30616 -0.061,-0.10763 -0.10941,-0.2073 -0.20154,-0.29555 -0.0688,-0.14414 -0.18422,-0.24268 -0.25362,-0.3902 -0.0691,-0.12627 -0.10709,-0.26208 -0.2058,-0.37295 -0.0834,-0.13426 -0.13502,-0.28093 -0.266,-0.3825 -0.1179,-0.1494 -0.2209,-0.31645 -0.30447,-0.4863 -0.0509,-0.13929 -0.097,-0.27418 -0.18226,-0.39377 -0.0719,-0.12559 -0.21166,-0.2118 -0.2873,-0.33693 -0.097,-0.096 -0.19592,-0.19024 -0.29389,-0.28543 -0.11197,-0.0988 -0.22218,-0.19929 -0.34905,-0.27988 -0.13849,-0.093 -0.26486,-0.20093 -0.4131,-0.27875 -0.11261,-0.0886 -0.25579,-0.12699 -0.379,-0.20173 -0.14456,-0.0668 -0.30363,-0.0754 -0.44735,-0.14658 -0.16721,-0.0771 -0.3203,-0.17794 -0.50853,-0.20529 -0.17248,-0.0554 -0.33131,-0.13692 -0.51877,-0.12312 -0.16708,-0.009 -0.33552,-0.0362 -0.4894,-0.1032 -0.17158,-0.0658 -0.33262,-0.15259 -0.51681,-0.18224 -0.16064,-0.0529 -0.29372,-0.16446 -0.46591,-0.17537 -0.21204,-0.0527 -0.42646,-0.0951 -0.62994,-0.1767 -0.18446,-0.0495 -0.37136,-0.0859 -0.54371,-0.17199 -0.20051,-0.0957 -0.38633,-0.21924 -0.58366,-0.32067 -0.16806,-0.0929 -0.31294,-0.20303 -0.45385,-0.33171 -0.16083,-0.0953 -0.309733,-0.21783 -0.421901,-0.36661 -0.07222,-0.13918 -0.129876,-0.28516 -0.202021,-0.42509 -0.08612,-0.17024 -0.248697,-0.2921 -0.32422,-0.47105 -0.05574,-0.16837 -0.0719,-0.31586 0.01886,-0.4747 0.07438,-0.13289 -0.02957,-0.2709 0.06109,-0.40493 0.05491,-0.1371 0.002,-0.29511 -0.0092,-0.43763 -0.01379,-0.16468 -0.0751,-0.30122 0.04471,-0.44939 0.01111,-0.16326 0.04729,-0.32586 0.141642,-0.46361 0.09344,-0.11817 0.224848,-0.19462 0.298434,-0.33077 0.103824,-0.10762 0.09797,-0.30185 0.234193,-0.3973 0.12918,-0.0926 0.1277,-0.32976 0.29464,-0.40745 0.12593,-0.10821 0.16516,-0.20538 0.15511,-0.36933 0.0173,-0.0774 0.0178,-0.161 0.0585,-0.23124 0.0328,-0.12867 -0.0633,-0.22903 -0.072,-0.35583 -0.009,-0.0998 -0.006,-0.20249 -0.10514,-0.26057 -0.0741,-0.0612 -0.0998,-0.1478 -0.18759,-0.18869 -0.0933,-0.0647 -0.15178,-0.13972 -0.2031,-0.23558 -0.0682,-0.0924 -0.134849,-0.17823 -0.229348,-0.25086 -0.113754,-0.10897 -0.211262,-0.22667 -0.345575,-0.31096 -0.132,-0.11895 -0.277854,-0.23638 -0.301023,-0.42234 -0.09601,-0.15842 -0.219368,-0.27835 -0.352366,-0.40763 -0.150058,-0.12463 -0.288463,-0.26299 -0.42425,-0.4017 -0.128518,-0.11247 -0.208893,-0.25116 -0.311005,-0.38437 -0.140826,-0.0886 -0.144135,-0.22429 -0.188917,-0.35973 -0.06758,-0.15226 -0.125693,-0.30647 -0.213372,-0.45241 -0.129113,-0.20817 -0.159329,-0.44621 -0.2385,-0.67494 -0.01917,-0.16909 0.0062,-0.33913 -0.06882,-0.49902 -0.08499,-0.30163 -0.193428,-0.59758 -0.221366,-0.91196 -0.01657,-0.37069 -0.04027,-0.7423 -0.08066,-1.11133 -0.05151,-0.29857 -0.163593,-0.58948 -0.08364,-0.89409 0,0 1.196069,-0.0738 1.196069,-0.0738 z"
       id="path3100-5"
       style="fill:#000000;fill-opacity:1"
       inkscape:export-filename="/home/sade/Desktop/screw-comps/images/troops/ping_of_death.png"
       inkscape:export-xdpi="90"
       inkscape:export-ydpi="90"
       inkscape:connector-curvature="0" />
    <path
       style="fill:#000000;fill-opacity:1;filter:url(#filter3007)"
       d="m 96.478208,191.32249 c -1.166125,-0.81679 -3.894568,-4.47173 -6.063207,-8.12209 -5.680094,-9.56101 -7.750169,-10.89084 -25.437636,-16.34128 -11.450025,-3.52837 -14.859804,-6.62 -14.887247,-13.49822 -0.01285,-3.22071 0.719821,-5.43832 2.860828,-8.65903 1.582957,-2.38123 2.879956,-5.34713 2.882222,-6.5909 0.0026,-1.4286 -2.296599,-4.83204 -6.243331,-9.24182 -7.848496,-8.76932 -9.350898,-12.70189 -9.506637,-24.88387 l -0.120786,-9.44791 3.541594,-3.252256 c 2.401902,-2.205674 5.807611,-3.918238 10.583248,-5.321794 10.862457,-3.19247 21.690947,-8.469656 22.339651,-10.887066 0.302831,-1.128511 0.556514,-4.887631 0.56374,-8.353601 0.01232,-5.911166 0.274339,-6.660732 4.227266,-12.093214 3.872104,-5.321406 11.582984,-12.873712 13.144019,-12.873712 0.360722,0 3.598849,1.334415 7.195838,2.965367 6.3515,2.879909 6.84749,2.951181 17.21059,2.473081 5.86884,-0.270757 12.26617,-0.783368 14.2163,-1.139135 8.33915,-1.521332 17.34656,4.454634 19.98428,13.258564 0.65584,2.189013 2.17085,6.192386 3.36669,8.896386 1.86907,4.226297 2.90242,5.269609 7.36213,7.433066 2.85333,1.384186 8.27133,3.182217 12.04002,3.995625 9.19909,1.985471 18.2989,7.663213 21.40458,13.355201 1.95974,3.591753 2.22615,5.184114 1.8983,11.346588 -0.20976,3.94267 -1.06411,8.46734 -1.89857,10.05483 -0.83446,1.58749 -3.56406,6.7829 -6.06578,11.54536 -3.10699,5.91468 -6.56551,10.70894 -10.91245,15.12699 l -6.36386,6.46797 -0.65829,11.56473 c -0.7531,13.23019 -1.50838,14.9797 -8.14636,18.86981 -4.59982,2.69567 -5.45784,2.72102 -15.83305,0.46768 -7.41247,-1.60988 -17.51801,-1.1969 -24.65523,1.00756 -3.61777,1.11741 -10.82232,4.58102 -16.01011,7.69691 -5.18779,3.11588 -9.537241,5.66524 -9.665439,5.66524 -0.128197,0 -1.187188,-0.66827 -2.353313,-1.48506 l 0,0 z"
       id="path3005"
       inkscape:connector-curvature="0"
       transform="matrix(0.22158661,0,0,0.23342507,88.974062,437.22693)"
       inkscape:export-filename="/home/sade/Desktop/screw-comps/images/troops/ping_of_death.png"
       inkscape:export-xdpi="90"
       inkscape:export-ydpi="90" />
    <path
       d="m 360.02374,401.8614 c -0.2121,-1.13186 0.365,-2.22116 0.7959,-3.24734 0.4639,-0.96642 1.1791,-1.75454 1.811,-2.61646 0.5539,-0.75308 1.4343,-1.16427 2.1987,-1.68854 0.81941,-0.44061 1.55341,-0.99067 2.36741,-1.44885 0.8701,-0.64134 1.8888,-0.9586 2.9338,-1.21512 2.6118,-0.33556 5.2524,-0.47346 7.8873,-0.51594 0.9897,-0.003 1.9794,0.003 2.969,-0.005 1.0702,-0.13897 1.917,0.36392 2.8747,0.73179 0.7325,0.30629 1.5653,0.2719 2.3511,0.32209 1.1167,0.41784 2.0609,1.15479 2.9208,1.94156 1.0256,0.78291 2.1377,1.4725 3.1604,2.26709 0.67889,0.95112 1.7677,1.41143 2.5854,2.21261 0.8526,0.7707 1.6522,1.64234 2.31349,2.57594 0.2518,0.79983 0.8017,1.36639 1.2227,2.07449 0.3924,0.72672 0.4267,1.52646 0.55441,2.31333 0.52199,0.88856 1.1199,1.10714 1.27039,2.21847 0.1148,0.73997 -0.23689,1.50388 0.01,2.21601 0.5437,0.90752 0.6615,1.74886 0.50561,2.75771 -0.01,0.75749 -0.4033,1.44661 -0.50821,2.18189 -0.1004,0.87146 -0.5961,1.59721 -0.9335,2.39286 -0.30649,1.11681 -0.9098,2.08518 -1.5856,3.02607 -0.4649,0.72947 -0.6762,1.53869 -0.97609,2.32007 -0.45101,0.63187 -0.69941,1.37203 -1.13281,2.00998 -0.6809,0.67634 -1.308,1.39419 -1.9656,2.08745 -0.6366,0.55174 -1.18029,1.17258 -1.6344,1.87055 -0.3809,0.9249 -1.03379,1.51443 -1.80839,2.13378 -0.7417,0.53886 -1.5765,0.9402 -2.3249,1.46791 -0.80151,0.45734 -1.47531,1.06187 -2.2833,1.51689 -0.7362,0.45084 -1.60551,0.62736 -2.4256,0.90492 -1.1188,0.23332 -2.044,0.89725 -3.1136,1.2608 -0.9702,0.15013 -1.8225,0.53249 -2.7166,0.90014 -2.5991,0.87912 -5.8804,1.67389 -8.4305,0.69274 -1.0787,-0.29931 -2.06301,-0.82502 -3.0676,-1.29584 -1.00991,-0.67909 -2.24571,-0.9302 -3.27991,-1.53655 -0.7375,-0.40296 -1.753,-0.63373 -2.2064,-1.36491 -0.4098,-0.63145 -1.0019,-1.21205 -1.4963,-1.82788 -0.6903,-0.90181 -1.3127,-1.79208 -1.7472,-2.84035 -0.2076,-1.02199 -0.4167,-1.99634 -0.7413,-2.98929 -0.4505,-1.04441 -0.4842,-2.16308 -0.6273,-3.26363 0.01,-0.9091 -0.058,-1.81309 -0.1163,-2.72108 -0.3993,-1.02702 -0.4192,-2.03098 -0.1594,-3.09579 0.1063,-0.80025 0.2533,-1.57354 0.2096,-2.38333 -0.03,-0.95771 0.4629,-1.78748 0.8027,-2.65787 0.1297,-1.03204 0.4793,-2.01038 0.9821,-2.92493 0.4197,-0.83233 1.0502,-1.50857 1.362,-2.38347 0.1231,-0.92714 0.5421,-1.80585 0.8402,-2.69692 0.4202,-0.81317 0.9654,-1.55639 1.7173,-2.11213 0.6171,-0.70278 1.5194,-1.02766 2.2489,-1.58781 0.6072,-0.58669 1.1034,-1.28 1.6885,-1.89239 0.62901,-0.48862 0.83151,-1.27442 1.40761,-1.8032 0.5185,-0.32394 1.0379,-0.65175 1.4634,-1.08744 0.6642,-0.58678 1.3817,-1.1116 2.0638,-1.67876 0.58319,-0.42342 1.31219,-0.58414 1.9255,-0.94723 0.5199,-0.43596 1.1001,-0.71566 1.7768,-0.84254 2.16339,-0.20915 4.372,-0.7363 6.5235,-0.41365 0.1749,0.5971 0.1292,0.29467 0.1401,0.90664 0,0 -5.7095,0.16174 -5.7095,0.16174 l 0,0 c 0.2822,-0.17104 0.1987,-0.21472 0.2772,0.0683 -2.6494,0.28305 7.4038,-0.50521 4.4853,-0.28258 -0.6058,0.0534 -1.33661,0.0888 -1.7584,0.5601 -0.5486,0.49275 -1.1628,0.57804 -1.7917,0.97167 -0.7721,0.4248 -1.379,1.09789 -2.0825,1.61909 -0.5271,0.38855 -1.016,0.83302 -1.6238,1.10603 -0.6641,0.41737 -0.6232,1.18639 -1.2003,1.72655 -0.6006,0.62996 -1.2472,1.22618 -1.7677,1.91888 -0.6425,0.75178 -1.5382,1.0173 -2.3003,1.64095 -0.6245,0.52184 -1.1963,1.03338 -1.5715,1.75917 -0.2161,0.95507 -0.71741,1.77954 -0.99871,2.70026 -0.1843,0.90804 -0.5979,1.76281 -1.1178,2.53736 -0.5984,0.83851 -0.9537,1.80426 -1.1462,2.79377 -0.2245,0.84845 -0.7496,1.63732 -0.7916,2.50464 -0.096,0.81383 -0.086,1.63267 -0.2195,2.44227 -0.035,1.03789 -0.1142,2.01174 0.2916,3.01082 -0.056,0.89051 -0.1466,1.78851 0.025,2.66968 0.083,1.06912 0.5037,2.09414 0.7583,3.13241 0.3303,0.97617 0.2205,1.99966 0.6096,2.95393 0.4371,0.97027 1.2781,1.73232 1.7458,2.69487 0.44901,0.58479 0.77201,1.24649 1.23441,1.82528 0.8101,0.43364 1.7878,0.57088 2.555,1.10151 1.0973,0.47938 2.171,0.98037 3.2326,1.51951 0.9687,0.43827 1.8532,1.00456 2.931,1.19182 2.225,0.10923 0.6755,0.0139 -4.8203,0.39739 -0.9567,0.0665 2.5659,-0.14316 1.6941,-0.25052 0.831,-0.44898 1.6322,-0.91984 2.5991,-0.97561 1.0506,-0.33418 1.9464,-0.89545 2.9527,-1.28827 0.9238,-0.23983 1.8846,-0.57177 2.775,-0.71887 0.6834,-0.53858 1.3867,-1.06095 2.0914,-1.55054 0.8138,-0.40157 1.5269,-0.87844 2.2511,-1.42859 0.7997,-0.4862 1.6383,-0.94931 1.9282,-1.87709 0.3928,-0.79904 1.0216,-1.32653 1.588,-2.00138 0.6371,-0.69843 1.2336,-1.48338 2.0277,-2.01416 0.4679,-0.62554 0.7878,-1.26089 1.1952,-1.92655 0.4818,-0.69386 0.2285,-1.68398 0.7861,-2.37658 0.5609,-0.98417 1.20579,-1.90029 1.7315,-2.90212 0.2413,-0.81624 0.76399,-1.51782 0.969,-2.32063 0.19469,-0.71993 0.48769,-1.45048 0.43309,-2.1964 0.30601,-0.86457 -0.22,-1.63457 -0.4113,-2.48372 -0.1857,-0.74517 0.056,-1.49937 -0.062,-2.25528 -0.24091,-0.85272 -1.03701,-1.39838 -1.2273,-2.2835 0,-0.73063 -0.2334,-1.44457 -0.6043,-2.07769 -0.3556,-0.70656 -0.8108,-1.36035 -1.3094,-1.98413 -0.7001,-0.85882 -1.4831,-1.658 -2.2572,-2.45556 -0.9381,-0.68266 -1.9234,-1.30216 -2.7178,-2.14959 -1.0893,-0.73616 -2.15,-1.50235 -3.1766,-2.31891 -0.7707,-0.64214 -1.4884,-1.46354 -2.5502,-1.61287 -0.8514,-0.0419 -1.6781,-0.16686 -2.4752,-0.47012 -0.9698,-0.3286 -1.8685,-0.65636 -2.9282,-0.51479 -0.9398,-0.0139 -1.8797,-0.0139 -2.8194,-0.0232 -3.4858,-0.0558 7.5433,-0.57116 3.63,-0.27282 -1.0221,0.11201 -1.9756,0.49048 -2.8601,0.98714 -0.761,0.54425 -1.7073,0.86434 -2.4195,1.47896 -0.791,0.36021 -1.4994,0.90813 -2.1927,1.40601 -0.4813,0.92406 -1.2646,1.62996 -1.7096,2.57592 -0.5706,0.8663 -0.759,1.99989 -1.0124,2.98889 0,0 -5.76671,0.34905 -5.76671,0.34905 z"
       id="path3112-1"
       style="fill:#ffffff;fill-opacity:1"
       inkscape:connector-curvature="0" />
    <path
       d="m 385.73165,399.34933 c -1.9214,1.35115 -3.3382,3.10685 -4.4822,5.09293 -1.4831,3.07608 -2.2149,6.41839 -3.5655,9.54359 -0.2001,0.37554 -0.3894,0.75619 -0.6002,1.12616 -0.01,0.0186 -0.8397,1.64234 -1.0577,1.64545 -5.7711,0.0827 -5.9879,1.52038 -5.3781,-0.67216 0.8995,-2.41019 2.0896,-4.72888 3.3309,-6.99318 1.6784,-3.03104 3.5233,-6.00133 5.8443,-8.61975 1.6536,-1.9106 2.9272,-1.31434 6.4414,-0.52729 0.299,0.067 -0.069,0.58948 -0.1455,0.87551 -0.3333,1.23482 -0.6539,1.76601 -1.219,2.9788 -1.9637,4.27544 -4.2604,8.36872 -6.9457,12.25831 -0.3512,0.46965 -0.6967,0.94372 -1.0543,1.40906 -0.2514,0.32674 -1.3548,2.05464 -2.0372,2.01731 -5.9873,-0.32766 -6.0221,1.06406 -5.2059,-1.63094 1.5586,-4.35172 3.80549,-8.42729 6.19249,-12.40272 0.4187,-0.66634 0.82081,-1.34283 1.25671,-1.99896 0.29459,-0.44339 2.2631,-3.40072 3.0496,-3.3971 6.53619,0.0326 6.2645,-1.17877 5.78869,1.89183 -1.27359,4.24556 -3.27679,8.30654 -5.63149,12.09312 -0.4708,0.47798 -2.6742,4.03325 -3.46,4.0371 -1.8304,0.009 -3.6592,-0.1055 -5.4888,-0.15848 0.699,-3.13618 2.78999,-5.89137 4.53059,-8.57468 2.26751,-2.91131 4.91381,-7.20129 8.4752,-8.77782 1.97971,0.0907 4.0137,-0.18079 5.93901,0.27144 0.3845,0.0902 0.1,0.76097 0.069,1.14069 -0.2662,3.29151 -2.1034,6.52129 -3.3988,9.51259 -1.852,3.81605 -3.9932,7.49453 -6.4649,10.96967 -1.5194,1.5035 -3.8929,0.71929 -6.1731,0.21286 -0.30591,-0.0679 0.053,-0.60291 0.1073,-0.9005 0.3298,-1.81486 0.3969,-1.72883 1.0822,-3.66932 2.3377,-5.61353 5.6223,-10.77614 9.3817,-15.59917 2.48069,-2.71453 3.3671,-3.57181 8.30149,-1.34037 0.539,0.24355 -0.225,1.12862 -0.4082,1.6739 -0.5983,1.77902 -1.34869,3.1174 -2.196,4.81676 -2.60849,4.76024 -5.74979,9.23757 -9.34959,13.35202 -2.43901,2.72149 -3.1001,2.5038 -7.92221,1.5992 -0.08,-0.0139 0.098,-0.71376 0.32331,-1.67273 1.3378,-3.21444 3.543,-5.90393 5.8444,-8.51755 2.6233,-2.92949 3.9386,-3.38656 8.85309,-2.88849 0.27521,0.0278 0.28461,1.41194 0.32781,2.33094 -0.6875,4.47176 -2.91111,8.58048 -5.059,12.54977 -0.72961,1.49022 -1.6614,2.87148 -2.52461,4.28896 -0.18629,0.30583 -0.6443,1.18672 -0.73349,1.18649 -1.85641,-0.003 -3.7008,-0.28677 -5.5512,-0.42992 0.56119,-1.39963 0.2469,-0.61774 0.9454,-2.34513 0,0 7.2514,-0.0665 7.2514,-0.0665 l 0,0 c -1.453,1.77601 -0.7728,0.96464 -2.03201,2.44072 -2.15739,0.22449 -4.30339,0.60585 -6.47229,0.67319 -0.10081,0.003 -0.25031,-0.61992 -0.1406,-1.31583 0.233,-1.48101 0.9361,-2.88659 1.4291,-4.28896 1.8313,-4.22106 3.7185,-8.42074 6.0363,-12.42316 0.068,-0.12922 0.6928,-1.55473 1.0111,-1.60246 7.0247,-1.05342 6.1626,-1.36975 4.089,1.92074 -2.1707,2.82663 -4.6002,5.46303 -6.7066,8.34028 -0.149,0.23424 -1.0376,1.63676 -1.0528,1.63936 -7.2039,1.24728 -6.48091,1.74654 -5.1705,-1.38233 2.2048,-4.64527 4.9794,-8.99563 7.8195,-13.30142 1.0646,-1.50611 2.3208,-3.32733 3.4718,-4.79579 0.4465,-0.56945 0.6918,-1.43997 1.3946,-1.66665 6.60399,-2.13059 7.88909,-2.53926 6.32409,1.15786 -2.5887,5.49323 -6.0533,10.48815 -9.45919,15.53744 -0.17531,0.25796 -3.0235,4.55411 -3.3608,4.62732 -1.2066,0.26167 -5.9124,2.0921 -6.0721,-0.003 0.6917,-3.82023 2.12049,-7.4665 3.9011,-10.93693 1.397,-2.6629 2.82609,-5.24659 4.52129,-7.74695 0.12321,-0.18174 1.80711,-2.64272 2.00561,-2.68451 1.9214,-0.40435 3.92079,-0.30396 5.8812,-0.45548 -1.7044,3.09081 -4.1571,5.76021 -6.3143,8.55018 -2.283,2.9227 -4.5813,5.84958 -7.1065,8.57918 -7.5636,0.34486 -6.4085,1.32224 -4.3776,-3.74908 1.84349,-4.15627 3.7702,-8.2979 6.3988,-12.06417 2.1086,-2.68985 0.8565,-1.68133 7.24609,-2.01206 0.15391,-0.005 0.03,0.41597 -0.48479,1.63099 -0.7331,1.72181 -0.8367,1.84832 -1.7373,3.63177 -2.1762,4.32582 -4.7364,8.52085 -7.6419,12.42804 -2.1562,2.66633 -0.63041,1.33344 -7.2562,1.71251 -0.086,0.003 -0.1008,-0.15105 -0.09,-0.23332 0.08,-0.59724 0.3879,-1.14586 0.6206,-1.70461 0.1967,-0.47236 0.4118,-0.93745 0.618,-1.40618 2.1189,-4.20497 4.3621,-8.37784 7.0671,-12.26477 0.2593,-0.34533 2.679,-3.8311 3.0863,-3.90709 3.6234,-0.67603 6.3774,-2.06808 5.9828,0.46626 -1.2907,3.08016 -3.2797,5.80297 -5.1337,8.58596 -1.5118,2.33838 -2.8917,4.74723 -4.6208,6.95437 -2.2268,3.41262 -7.2981,3.31906 -6.3145,-0.68681 0.089,-0.36392 0.1808,-0.72715 0.2717,-1.09069 0.86,-3.33208 1.696,-6.69888 3.5579,-9.67763 1.3853,-2.26338 3.0744,-4.22394 5.5487,-5.44226 0,0 5.979,0.27561 5.979,0.27561 z"
       id="path3114-0"
       style="fill:#ffffff;fill-opacity:1"
       inkscape:connector-curvature="0" />
    <path
       d="m 392.35544,411.69046 c -0.86509,2.6403 -2.21029,5.11664 -3.42659,7.62044 -2.5785,4.48844 -1.0695,3.36471 -7.7882,3.30586 -0.094,-2.99628 1.2939,-5.73126 2.55209,-8.38918 0.6683,-1.08938 3.0274,-5.33893 4.2525,-5.85149 0.11031,-0.0465 0.22,0.093 0.32981,0.13944 1.7967,0.079 3.63689,-0.14967 5.39009,0.23656 0.3129,0.0693 -0.1495,0.60147 -0.2349,0.89963 -0.57559,2.01332 -1.31849,3.96966 -2.02919,5.94078 -1.00051,1.70298 -1.4552,3.91602 -2.9246,5.34019 -1.85751,-0.12363 -3.7536,0.0139 -5.5725,-0.37136 -0.2667,-0.0563 0.05,-0.52459 0.10729,-0.7811 0.46241,-2.01792 1.36931,-3.91059 2.20341,-5.80199 1.20159,-2.58751 2.7745,-4.9345 4.8395,-6.95111 8.3446,-4.78535 6.27689,0.66709 5.06279,3.3641 -1.75829,3.63827 -1.6454,2.40354 -7.38539,2.24022 -0.8121,-1.404 -1.0512,-2.92837 -0.72111,-4.49053 0.11971,-1.13063 0.57891,-2.06617 1.4725,-2.8002 5.2294,-0.56841 6.54511,-1.77168 7.2015,2.79378 0.23741,3.12688 -0.41479,6.1015 -1.5583,9.00998 -1.0848,3.07055 -2.75739,5.92 -5.30309,8.0649 -3.7184,2.43561 -8.4992,2.01267 -12.7808,2.29633 -1.7152,-0.16454 -2.4742,-0.78831 -3.11231,-2.26714 -0.47279,-2.68855 0.4366,-5.15642 1.66571,-7.5292 1.0653,-2.07471 2.43659,-3.9593 4.0561,-5.66275 1.7896,-1.72288 4.0925,-0.95711 6.94939,-0.73723 0.363,0.0279 1.69941,2.52369 1.83061,2.7836 1.00669,3.31641 0.442,6.59862 -0.5859,9.82794 -0.98101,2.51816 -2.54261,4.80166 -4.8933,6.29006 -3.0395,0.99341 -7.10181,2.03483 -9.9446,0.19892 -0.3894,-0.25144 -1.2087,-1.05825 -1.52331,-1.35584 -1.73699,-2.93196 -1.35979,-6.3556 -0.80679,-9.5502 0.87069,-4.1756 2.94109,-7.92212 6.2848,-10.7158 2.99469,-1.68956 5.56019,-1.33804 9.4512,-1.13735 0.4649,0.0232 1.7693,1.98724 1.9687,2.30325 1.3782,3.66639 0.63859,7.45232 -0.497,11.07447 -1.4234,3.78207 -3.4135,6.90685 -7.2346,8.71312 -6.9966,1.82007 -9.55931,1.5365 -11.8172,-3.97556 -1.31951,-4.6442 0.10389,-9.12399 1.9641,-13.40956 1.4345,-2.59978 4.57129,-7.15692 7.9618,-7.56801 2.8553,-0.34626 5.7416,-0.38715 8.6124,-0.58051 4.0251,1.35511 3.67929,5.72666 3.34289,9.08723 -0.81119,4.51712 -2.70699,8.24886 -6.23599,11.32299 -3.387,2.37984 -6.7196,1.94937 -11.1198,1.72934 -0.4997,-0.0232 -1.8662,-1.18597 -2.13681,-1.39549 -3.39509,-3.02431 -3.8893,-7.22946 -3.656,-11.44062 0.6504,-3.41179 1.76191,-7.22844 5.05391,-9.16192 0.4892,-0.28724 1.048,-0.44572 1.57199,-0.66876 7.82381,-1.15419 11.36971,-1.82737 14.5129,4.52711 1.60931,4.95015 -0.4992,9.76585 -3.112,13.99805 -2.0276,2.53229 -4.65109,6.28086 -8.381,6.57037 -2.6943,0.20915 -5.4023,0.19799 -8.1034,0.29746 -3.15469,-2.04683 -3.452,-6.28537 -3.7,-9.61954 10e-4,-4.52409 1.0118,-9.16823 3.6364,-13.00093 0.4862,-0.70994 1.1011,-1.32991 1.6517,-1.99486 0.6256,-0.52302 1.2004,-1.10845 1.8769,-1.56904 3.433,-2.33737 10.84261,-3.43842 14.1232,-1.66497 0.4674,0.25284 0.8417,0.63902 1.2626,0.9585 3.0264,3.36416 2.0735,7.63694 0.5548,11.4344 -1.86859,4.15302 -4.7482,7.66515 -8.9788,9.70422 -8.43599,2.28498 -11.0629,1.61361 -13.24799,-5.21373 -1.40641,-5.14192 -0.45641,-8.90308 2.35079,-13.33905 1.71031,-1.95611 3.8116,-3.17355 6.4991,-3.27306 9.0386,-0.33509 6.1721,-1.3392 10.3287,0.5029 3.91761,3.01026 3.8813,7.60175 3.3103,11.99868 -1.0803,5.21122 -3.3242,10.09741 -6.869,14.17109 -3.49459,3.35467 -6.5108,3.28226 -11.8691,2.95668 -0.3532,-0.0185 -1.8073,-1.83935 -1.8778,-1.92199 -2.4259,-3.95697 -2.03929,-8.60535 -1.2153,-12.94497 1.0765,-3.77259 3.1207,-7.66909 6.716,-9.7975 0.5588,-0.33092 1.2004,-0.51 1.8007,-0.76497 3.7025,-0.60077 4.8391,-0.88396 10.1261,-0.16547 0.6119,0.0832 0.9523,0.76814 1.3466,1.22595 1.5343,1.78139 1.861,3.74805 2.2176,5.95821 0.2558,5.56194 -1.4856,9.96309 -5.3769,14.01735 -3.6626,3.07752 -6.8926,2.86576 -12.135,2.49371 -0.8056,-0.0572 -2.0139,-1.70805 -2.3702,-2.12134 -2.9147,-4.62815 -2.5555,-9.99842 -1.7287,-15.13825 1.233,-4.20479 2.537,-8.99705 6.2385,-11.88574 0.4808,-0.37507 1.0486,-0.63395 1.5728,-0.95098 3.91,-1.30253 9.1899,-2.44677 11.4312,1.50416 0.6206,1.09372 0.88,2.50891 1.1763,3.6901 0.3511,5.43249 -1.5648,10.00316 -4.5136,14.51108 -1.6642,1.85115 -3.7146,4.47705 -6.5479,4.62676 -8.2539,0.43595 -6.1169,1.70331 -9.3301,-0.80718 -3.3274,-3.99132 -2.8248,-8.92925 -1.7453,-13.6129 1.3375,-3.74954 3.1021,-8.10139 6.9575,-10.11336 0.5356,-0.27933 1.1377,-0.41922 1.70661,-0.62912 2.85119,-0.16361 5.69789,-0.55118 8.5534,-0.49095 0.4962,0.009 0.90189,0.41413 1.30049,0.69885 1.8544,1.32539 2.4884,3.39393 2.9019,5.45945 0.3656,4.03529 -1.2402,7.47203 -3.9188,10.46566 -3.3945,2.71063 -5.5167,2.36209 -10.6691,1.92073 -0.47489,-0.0419 -1.5072,-1.47306 -1.71719,-1.73556 -1.77931,-2.91416 -1.99211,-6.22085 -1.68671,-9.50516 0.8615,-3.91922 2.60581,-5.86692 6.6573,-6.73456 6.6213,-0.40715 10.7545,-1.7808 13.0815,4.37257 0.97671,2.57105 0.1227,4.99063 -1.48959,7.10286 -2.98261,2.85758 -8.19061,3.83701 -12.09011,2.11641 -2.25779,-1.81435 -2.087,-4.72799 -1.6532,-7.27683 0.6989,-2.8173 2.43421,-5.00913 4.8923,-6.60913 0.8499,-0.45222 1.5696,-0.88219 2.5,-1.18263 2.9192,-0.9426 8.2431,-0.81474 10.3553,-0.78598 0.2797,0.003 0.4798,0.27469 0.7201,0.41226 1.7652,1.65489 1.19401,3.76651 0.34031,5.72178 -1.185,1.90507 -2.74861,3.3265 -4.93401,4.03738 -6.8072,0.53988 -7.1455,1.85562 -9.5641,-2.81972 -0.9064,-2.22897 -1.3475,-4.57378 -0.9435,-6.94302 0.3572,-1.55529 1.0723,-2.93242 2.5823,-3.66114 2.7376,-0.70074 5.8857,-0.60816 8.5637,-0.76126 0.6172,-0.0372 0.4704,-0.0279 0.9957,0.21938 1.4477,0.50368 2.5955,1.56829 3.431,2.78648 1.5376,2.37491 2.7667,4.95149 3.5868,7.63777 0.6399,2.44565 0.8741,4.96451 0.735,7.47896 0.1123,1.22937 -0.2329,2.34084 -0.6273,3.47955 -0.4207,1.24197 -0.5437,2.54618 -0.9484,3.80749 -0.5982,1.75524 -1.4093,3.42067 -2.4911,4.94403 -1.1189,1.53631 -2.2629,3.06302 -3.4953,4.51762 -0.9828,1.278 -1.9888,2.54211 -3.1057,3.71506 -0.7938,0.75429 -1.6651,1.42557 -2.472,2.16697 -0.5213,0.57842 -1.1512,0.97004 -1.8866,1.24073 -1.9083,0.64543 -1.8451,0.26864 -5.6863,-0.34254 -0.3214,-0.0511 0.3596,-0.52358 0.5345,-0.78863 0.9256,-1.13759 1.8933,-2.19194 2.6072,-3.46905 1.2505,-1.74408 2.2086,-3.65552 3.5068,-5.37455 0.9877,-1.18471 2.0793,-2.26007 3.3303,-3.18535 7.0525,-3.92857 6.0451,-0.723 5.5706,1.79892 -0.142,0.9712 -0.6265,1.76467 -1.1172,2.59662 -0.7422,0.99156 -1.3858,2.06012 -2.03629,3.11499 -0.59441,1.17634 -1.54721,2.10869 -2.31051,3.16954 -0.59109,0.6901 -1.1971,1.26754 -2.106,1.49779 -3.934,0.71027 -13.2708,0.53742 -1.77319,0.19614 1.1016,-0.0326 -1.1887,0.33091 -1.71711,0.4776 -2.61929,0.80862 -4.9959,0.52032 -7.9349,0.60932 -1.11369,-0.39134 -2.21399,-0.66031 -3.3241,-1.06197 -1.4299,-0.46292 -2.4379,-1.46279 -3.51999,-2.40597 -1.62751,-1.50494 -2.36861,-3.34982 -2.84471,-5.42845 -0.5932,-2.08345 -0.05,-4.07191 0.3174,-6.12418 0.4048,-1.75411 1.0638,-3.43953 1.3341,-5.21926 0.1823,-1.50587 0.2901,-3.01723 0.304,-4.53353 0.5574,-0.75795 8e-4,-1.37597 0.085,-2.08805 5.5061,-0.67862 6.15391,-1.49026 5.27991,2.00175 -0.8211,1.56314 -0.8575,3.31386 -1.08711,5.01276 -0.089,1.96689 -0.4709,3.84663 -0.52259,5.82133 0.02,1.68393 0.5113,3.32645 1.0656,4.91329 0.77079,1.64406 1.5483,3.29081 2.35239,4.92534 0.34721,1.02771 0.70581,1.98957 1.32571,2.89212 0.4495,0.17987 0.42019,0.469 0.3616,0.95126 -5.85161,3.86959 -4.8676,1.17556 -6.5278,-0.63112 -1.3965,-1.08962 -2.14101,-2.66498 -2.97571,-4.15014 -1.0926,-1.76503 -0.5978,-3.77933 -0.832,-5.69742 0.015,-1.65874 0.1699,-3.31395 0.2002,-4.9771 0.2573,-1.64369 -0.075,-3.30657 0.2563,-4.9338 0.369,-1.61152 0.6607,-3.24609 0.838,-4.88708 0.075,-1.18449 0.1291,-2.43594 0.6275,-3.5377 0.36361,-1.13884 0.87641,-2.17938 1.5751,-3.16007 1.1576,-1.23058 2.7692,-1.90196 4.205,-2.7683 0.7181,-0.41876 1.2279,-1.08795 1.9946,-1.42087 1.9383,-0.67824 3.24031,-0.0999 5.92191,0.26911 0.28899,0.0419 -0.2072,0.5251 -0.3075,0.78873 -1.0204,1.89243 -1.93121,3.83241 -2.7396,5.81844 -0.94651,2.72653 -0.92531,5.60117 -1.16771,8.43394 -0.3904,2.05018 0.13761,4.06485 0.26731,6.10178 0.369,0.89195 0.2463,2.15289 1.16459,2.68734 0.073,0.0326 0.16891,0.0372 0.21951,0.0953 0.8937,1.04863 -2.99731,0.7099 -5.63651,0.65544 -0.3949,-0.005 -0.4957,-0.59436 -0.70049,-0.9191 -1.34921,-2.11905 -2.08061,-4.57699 -2.65171,-6.98653 -0.3398,-2.26286 0.1206,-4.5015 0.3158,-6.74869 0.313,-1.38467 1.0536,-2.59499 1.7592,-3.81875 0.7482,-1.28892 1.70471,-2.43171 2.4254,-3.73737 0.54641,-0.89451 1.07,-1.74988 1.96981,-2.34698 0.27119,-0.38437 0.9101,-0.47905 1.11839,-0.89005 -0.3745,-0.34858 -0.77679,-0.83093 -1.22059,-1.14456 -0.2677,-0.26771 -0.34271,-0.27701 -0.62731,-0.0962 1.76611,-0.10643 3.52871,-0.30303 5.2981,-0.31883 0.1207,-10e-4 -0.161,0.17475 -0.2245,0.27375 -0.1068,0.16778 -0.1898,0.34904 -0.28459,0.52343 -1.04301,1.37286 -1.7987,2.88413 -2.32991,4.49992 -0.7678,2.55497 -1.1432,5.19992 -1.60629,7.81732 -0.52371,2.32593 -1.2217,4.61788 -1.6563,6.96124 -0.3968,1.34488 -0.21551,2.72541 0.39539,3.98174 0.5982,1.21991 1.7028,2.08258 2.4876,3.18126 0.64441,0.65585 1.1951,1.39475 1.6364,2.19078 0.1043,-0.0665 0.02,0.20775 0.093,0.19241 2.5753,-0.54602 -6.7146,1.41558 -4.6117,-0.0479 0.3526,-0.56665 0.1574,-0.26213 0.58941,-0.91073 0,0 6.0688,0.005 6.0688,0.005 l 0,0 c -0.57331,0.64665 -0.30451,0.30536 -0.804,1.02647 -1.6981,1.63108 -5.2382,2.12226 -6.89351,0.44989 -0.78479,-0.63581 -1.52419,-1.33451 -2.10679,-2.1513 -0.9487,-1.01819 -1.94121,-2.04953 -2.51901,-3.31387 -0.66129,-1.36309 -0.84529,-2.79823 -0.74119,-4.29472 0.1783,-2.34313 0.5123,-4.65512 1.06039,-6.94944 0.37411,-2.72522 1.12701,-5.35766 1.98401,-7.97473 0.7792,-1.65294 1.6335,-3.25628 2.8442,-4.6567 0.16839,-0.18452 0.3412,-0.36577 0.50489,-0.5541 0.1302,-0.14966 0.17741,-0.42295 0.37651,-0.4592 1.8711,-0.34068 5.0416,-1.74738 6.7983,-0.15663 0.34569,0.45734 0.98,0.88456 0.947,1.4884 0.2071,0.74532 -0.1332,1.15543 -0.8279,1.50556 -0.7735,0.55145 -1.2231,1.21436 -1.67311,2.03445 -0.48179,1.44723 -1.4003,2.61327 -2.28919,3.84804 -0.86881,1.05411 -1.4649,2.11859 -1.5522,3.49401 -0.10131,2.16929 -0.11071,4.36797 0.21759,6.51863 0.6101,2.32008 1.1448,4.658 1.7869,6.96873 0.035,0.18544 0.058,0.37368 0.1073,0.55592 0.035,0.13014 0.28111,0.35183 0.14451,0.37786 -1.7765,0.33696 -3.60721,0.33557 -5.39391,0.61782 -0.1803,0.0279 0.1018,0.57507 -0.47289,0.0837 -0.98961,-0.75006 -1.4722,-1.94802 -1.7744,-3.09165 -0.47831,-2.02141 -0.93381,-4.11671 -0.9041,-6.18883 0.1018,-2.90221 0.11819,-5.88264 1.12979,-8.64527 0.8909,-2.15559 2.14281,-4.1703 3.72291,-5.9273 0.12609,-0.15106 0.2632,-0.29374 0.3779,-0.45223 0.086,-0.11805 0.073,-0.36485 0.2226,-0.37554 11.3041,-0.80848 7.2694,-0.41133 5.38419,0.0139 -0.75309,0.24123 -1.01379,0.68467 -1.496,1.2913 -1.2223,1.05657 -2.8138,1.62764 -4.08139,2.63091 -0.8862,0.8662 -1.55951,1.84372 -1.9647,2.99604 -0.47441,1.09051 -0.056,2.16898 -0.2349,3.33971 -0.13171,1.66711 -0.33881,3.31004 -0.81191,4.92705 -0.19719,1.60906 -0.1867,3.2426 -0.1853,4.86101 -0.12009,1.62681 -0.30989,3.24948 -0.21599,4.88285 0.2041,1.84605 0.058,3.77139 0.9847,5.46968 0.6595,1.43937 1.3888,2.83203 2.24,4.17659 0.085,0.19195 0.1127,0.40481 0.2036,0.59462 0.02,0.0419 0.1555,0.0841 0.1088,0.0878 -11.49341,0.87769 -6.7321,0.0544 -4.9973,0.34627 0.233,0.75196 -0.1723,0.2217 -0.62821,0.0326 -0.85089,-0.86341 -1.23659,-1.97237 -1.91519,-2.95551 -0.86731,-1.62858 -1.65991,-3.2857 -2.35521,-4.99167 -0.6591,-1.62337 -0.891,-3.36465 -1.0148,-5.09674 -0.2811,-2.00012 0.03,-3.92704 0.3576,-5.90434 0.1147,-1.79705 0.5166,-3.54913 1.3239,-5.18254 1.68101,-3.11172 0.3432,-2.17097 6.40841,-2.55539 0.6439,0.55801 0.7795,1.31811 0.5759,2.11312 -0.01,1.53567 0.052,3.07984 -0.1485,4.60774 -0.2692,1.77893 -0.61481,3.53408 -1.2679,5.22661 -0.3149,1.95545 -0.5626,3.91541 -0.076,5.87152 0.4237,1.85725 0.9364,3.73486 2.3933,5.1072 0.9897,0.94308 1.9844,1.82035 3.361,2.20444 0.9784,0.4025 2.0135,0.64874 2.9839,1.07424 -10.6964,0.78417 -5.5285,0.7462 -3.6148,0.0902 2.7754,-1.07159 4.478,-0.49513 8.1414,-1.11984 1.7444,-0.29745 -3.5336,0.24819 -5.3003,0.37461 -0.1897,0.0139 0.38,-0.0232 0.5697,-0.0372 1.1006,-0.0636 1.5339,-0.14361 2.1332,-1.06647 0.8429,-0.88777 1.2992,-2.11144 2.0014,-3.10127 0.7376,-1.08805 1.5912,-2.10294 2.3675,-3.16356 0.6502,-0.65882 1.0141,-1.46986 1.1033,-2.3705 0.9666,-3.00167 0.9424,-1.47966 6.2073,-1.83638 0.04,-0.003 -0.054,-0.0604 -0.08,-0.0911 -0.7914,1.05178 -1.7173,1.99974 -2.4577,3.08393 -1.2581,1.78382 -2.3922,3.66053 -3.8114,5.33354 -0.8792,1.25583 -1.7441,2.49167 -2.9201,3.51562 -0.066,0.0813 -0.6089,0.82331 -0.8318,0.83619 -12.3433,0.71371 -7.4265,0.44758 -5.5873,-0.003 0.5598,-0.22076 1.1631,-0.49582 1.4802,-1.00558 0.7013,-0.82336 1.6612,-1.32471 2.3433,-2.13984 0.9663,-1.21715 1.8766,-2.46513 2.8133,-3.70659 1.2199,-1.45072 2.2938,-3.0111 3.472,-4.49481 1.2091,-1.40582 1.8461,-3.08129 2.499,-4.7755 0.6059,-1.22771 1.0555,-2.49669 1.4103,-3.81071 0.5445,-1.27543 0.4877,-1.81681 0.2498,-3.21281 -0.4748,-2.43524 -0.9008,-4.8855 -1.6511,-7.26228 -0.7816,-2.53378 -1.4823,-5.10655 -2.5654,-7.54026 -0.7526,-1.02679 -1.7459,-2.0334 -3.0159,-2.43125 -2.0331,-0.15337 -5.617,0.31373 4.2019,-0.3918 1.8452,-0.13246 -3.4773,-0.005 -1.881,0.19474 -1.8277,0.39738 -1.7486,1.36598 -2.1826,2.97294 -0.03,2.27309 0.303,4.47394 1.0138,6.65245 0.1992,0.75071 0.3512,1.70693 1.0061,2.25561 0.5487,0.45966 1.356,0.33138 1.198,0.34858 -1.7985,0.19474 -3.6065,0.29653 -5.4098,0.44525 2.0366,-0.45037 3.2141,-1.88997 4.3109,-3.52779 0.8731,-1.47246 2.3703,-3.58357 0.295,-4.73575 -2.6675,-0.60309 -1.1944,-0.17708 4.6287,-0.66807 0.3879,-0.0326 -0.777,0.0539 -1.1628,0.10364 -1.4365,0.18406 -2.7843,0.56717 -4.0402,1.28283 -2.4693,1.28246 -3.94,3.47858 -4.7198,6.05238 -0.4798,2.14978 -1.1013,4.91961 0.9897,6.45733 2.5354,0.82237 1.2467,0.28165 -4.5558,0.7732 -0.2746,0.0233 0.5533,-0.0419 0.818,-0.11247 1.0725,-0.29561 1.9832,-0.90939 2.7522,-1.67018 1.5393,-1.93705 2.5449,-3.97993 1.6138,-6.41899 -0.5954,-1.05012 -1.1457,-2.19928 -2.1896,-2.92265 -1.3193,-0.91418 -2.9229,-0.92914 -2.6218,-1.00113 1.7881,-0.42806 3.6624,-0.39367 5.4936,-0.59022 -4.1723,0.46983 -5.4303,1.89238 -6.3896,5.83964 -0.4813,3.01933 -0.3532,6.20328 0.8932,9.05348 0.2136,0.28026 0.3949,0.58622 0.6415,0.84008 0.2086,0.21473 1.0097,0.4838 0.7131,0.55457 -1.7804,0.42434 -3.6515,0.3458 -5.4696,0.57963 -0.291,0.0372 0.6009,0.0943 0.8813,0.009 0.6898,-0.20729 1.2579,-0.93554 1.7073,-1.39879 2.3629,-2.90258 3.975,-6.10652 3.9988,-9.87628 -0.1779,-1.45405 -0.3388,-2.90839 -1.4373,-4.0417 -1.1172,-1.15255 -2.5132,-1.17453 -2.4024,-1.20056 1.7912,-0.42062 3.6673,-0.37043 5.501,-0.5556 -0.4813,0.1492 -0.9944,0.22449 -1.4437,0.44712 -3.5329,1.75225 -4.335,6.41057 -5.8162,9.5566 -1.1389,4.14623 -2.5984,8.97461 -0.03,12.89677 2.6374,1.60836 1.5617,0.6387 -4.4027,1.35835 -0.4117,0.0497 0.8477,-0.0278 1.231,-0.18033 1.77,-0.7073 2.8631,-2.53052 3.9867,-3.88646 2.52,-4.32847 4.8775,-8.97098 5.1557,-14.00619 -0.1068,-1.37142 -0.045,-2.17604 -0.5799,-3.43772 -0.1734,-0.40761 -0.3884,-0.81354 -0.6996,-1.13615 -0.2558,-0.26492 -1.3165,-0.48263 -0.954,-0.57753 1.4103,-0.36904 8.306,-1.06132 4.367,-0.37787 -3.9266,2.74428 -4.7228,8.0287 -6.111,12.2024 -0.9268,4.85292 -2.0371,9.89602 -0.045,14.65288 0.2727,0.37646 0.4778,0.80834 0.8193,1.1288 0.2856,0.26864 1.4067,0.4936 1.023,0.60077 -1.7593,0.49132 -3.6349,0.44293 -5.4556,0.63721 -0.363,0.0372 0.7413,-0.0419 1.0822,-0.17011 1.0001,-0.37181 1.494,-1.03877 2.2299,-1.7595 3.2217,-3.76409 4.7486,-8.57839 5.1748,-13.3971 -0.056,-1.97981 -0.045,-3.86797 -1.4057,-5.50259 -0.3164,-0.37926 -1.6041,-0.77501 -1.1383,-0.96381 1.718,-0.69628 3.695,-0.48862 5.528,-0.81536 0.4718,-0.0841 -0.9579,0.0576 -1.437,0.086 -0.4807,0.19474 -0.9995,0.31883 -1.442,0.58431 -3.3079,1.98609 -5.0075,5.86284 -6.1425,9.25617 -0.863,4.08609 -1.7125,8.42028 -0.2086,12.46374 0.2136,0.32907 0.3651,0.70493 0.6416,0.98747 0.2181,0.22309 1.1165,0.42016 0.8069,0.4921 -1.7862,0.41505 -3.645,0.47055 -5.4781,0.59306 -0.3209,0.0186 0.6339,-0.14222 0.9175,-0.28816 1.1144,-0.57447 1.4062,-1.07889 2.2667,-2.00905 2.9835,-4.18238 4.833,-8.93845 6.3681,-13.77306 0.7495,-3.93285 1.8204,-8.44406 -2.0869,-11.13303 -3.3905,-1.16324 -1.583,-0.29932 3.9622,-1.14335 0.5501,-0.0841 -1.1194,-0.0372 -1.6705,0.0419 -1.8482,0.25981 -3.2076,1.13136 -4.3173,2.55394 -2.5356,4.31593 -3.1281,7.82862 -2.4314,12.76706 0.1843,0.94354 0.4441,2.62106 0.8703,3.54694 0.1823,0.39599 0.4217,0.78352 0.7485,1.08098 0.2841,0.25841 1.4087,0.442 1.0307,0.53756 -1.3775,0.34719 -8.4523,1.00104 -4.2548,0.36718 3.8412,-1.94691 6.1929,-5.54205 8.088,-9.19529 1.5461,-3.34537 3.5763,-7.40854 0.5832,-10.5457 -0.4162,-0.24447 -0.7949,-0.56238 -1.2492,-0.73294 -0.4788,-0.17941 -2.0129,-0.20544 -1.5091,-0.30258 1.8136,-0.35045 3.678,-0.44294 5.5276,-0.47435 0.5469,-0.009 -1.0816,0.20264 -1.5854,0.40761 -1.5415,0.62694 -2.075,1.26372 -3.3468,2.33216 -0.4877,0.61554 -1.0428,1.18672 -1.4631,1.84675 -2.4239,3.80661 -3.3747,8.25341 -3.8659,12.62571 -0.1127,1.86148 -0.7122,7.03756 1.1525,8.38759 0.3029,0.21937 0.711,0.25424 1.0665,0.38158 -1.8513,0.19521 -3.6963,0.45873 -5.5541,0.58516 -0.46,0.0326 0.9203,-0.13201 1.3472,-0.29885 0.4957,-0.19382 0.96,-0.46562 1.3897,-0.77223 1.8246,-1.30212 2.9926,-3.18345 4.241,-4.96233 1.9711,-3.15528 4.6239,-7.78227 4.5882,-11.56984 0,-0.59379 -0.1823,-1.17458 -0.2737,-1.76192 -0.6736,-1.48022 -1.2881,-2.70816 -2.7786,-3.5891 -0.4297,-0.25377 -1.8548,-0.44804 -1.3768,-0.60239 1.7469,-0.5634 3.6622,-0.40948 5.4761,-0.71975 0.4853,-0.0832 -0.9858,0.0232 -1.4788,0.0372 -0.4768,0.15338 -0.993,0.22124 -1.4304,0.45921 -3.0495,1.66106 -3.6444,5.59381 -4.1849,8.55087 -0.4321,3.84435 -0.5826,7.78589 2.2213,10.89599 0.2896,0.2468 0.5473,0.53254 0.868,0.74021 0.2792,0.18079 1.2414,0.34161 0.9133,0.41318 -1.7711,0.38577 -3.615,0.34208 -5.4157,0.56787 -0.3001,0.0372 0.6136,0.0641 0.9084,-0.003 0.7116,-0.16081 1.4966,-0.82447 2.0301,-1.20177 3.0379,-3.01998 4.5043,-6.81493 5.5579,-10.84831 0.5393,-2.10856 2.0401,-6.43512 -0.9008,-7.68569 -0.4316,-0.18313 -0.9268,-0.17104 -1.3903,-0.25702 1.8411,-0.17105 3.6736,-0.51591 5.5233,-0.51368 0.5228,6.6e-4 -1.0126,0.28027 -1.4732,0.51856 -2.6043,1.34679 -4.1251,4.11509 -5.5391,6.47197 -1.8776,4.07781 -3.4597,8.39131 -3.0316,12.92856 0.2881,1.00666 0.4068,1.74049 0.9872,2.62687 0.2012,0.30675 0.4461,0.59436 0.7371,0.82461 0.2493,0.19706 1.1705,0.3681 0.8555,0.4355 -0.025,0.003 -8.1123,0.8042 -4.5386,0.4513 3.1601,-1.73623 4.5128,-5.11469 5.9644,-8.16925 1.1225,-3.40616 2.4874,-6.99438 1.8775,-10.61778 -0.2951,-0.6262 -0.3919,-1.04366 -0.95,-1.49031 -0.1873,-0.14966 -0.8833,-0.28909 -0.6439,-0.33231 1.8014,-0.32535 3.6469,-0.35556 5.4699,-0.5385 0.2786,-0.0279 -0.5758,-0.0232 -0.837,0.0739 -0.305,0.11387 -0.5373,0.3602 -0.806,0.54048 -2.7968,2.84904 -4.4987,6.55759 -5.6641,10.27446 -0.7324,2.82152 -1.9552,6.22824 -0.5175,8.99119 0.6401,0.646 1.2396,1.23822 2.1867,1.44188 0.291,0.0627 1.1882,0.0372 0.8919,0.0688 -9.071,0.99347 -6.5598,0.61383 -4.4856,0.28026 2.2204,-1.23709 3.1919,-3.56837 4.0434,-5.80576 0.8687,-3.06357 1.7735,-6.2506 1.1078,-9.43325 -0.1172,-0.49113 -0.3347,-1.51485 -0.5475,-2.03484 -0.058,-0.14083 -0.3978,-0.36206 -0.2434,-0.38856 1.7559,-0.29931 3.5511,-0.31929 5.3267,-0.47853 -0.3686,-0.0837 -0.1778,-0.10644 -0.5395,0.19428 -0.8336,1.93096 -1.9188,3.73207 -2.9171,5.58527 -1.2608,2.21196 -2.4625,4.52535 -2.6365,7.08818 0.2161,1.5708 1.8285,1.3187 3.1628,1.43211 -11.1085,0.74996 -4.4089,0.52111 -2.1265,-0.11573 0.8781,-0.24494 1.152,-0.48081 1.9236,-0.94229 2.3543,-2.08499 3.559,-4.87802 4.5935,-7.7442 1.2034,-2.83129 2.3717,-5.70119 2.5946,-8.78633 0.4092,-3.83911 -3.1544,-2.59773 4.9147,-3.093 -0.6871,0.68764 -0.8956,1.47074 -0.996,2.41029 -0.1386,1.41905 0.086,2.78731 0.4266,4.17574 -5.7252,0.70386 -6.1041,2.11055 -4.9394,-1.50319 1.8914,-4.29886 1.2891,-3.49474 7.7165,-3.69242 0.083,-0.003 -0.096,0.132 -0.145,0.198 -1.1923,2.26867 -2.369,4.54338 -3.5697,6.8068 -1.0507,1.96424 -2.0219,3.92071 -3.2689,5.77421 -0.1912,0.28444 -0.1987,0.80029 -0.5429,0.87215 -1.9863,0.41457 -4.0496,0.33928 -6.0743,0.50902 -0.067,-1.77647 1.0199,-3.48978 1.3844,-5.18506 0.3337,-1.07349 2.427,-6.73303 3.5446,-7.002 1.941,-0.46705 3.9716,-0.47002 5.9574,-0.70502 0.1127,0.065 0.2905,0.0777 0.3392,0.19521 0.3204,0.77069 -2.32,5.02141 -2.6737,5.79841 -1.4812,2.73949 -2.7866,5.56836 -4.4167,8.23116 -6.1463,0.71733 -6.9515,1.96252 -5.117,-2.87729 1.234,-2.7731 2.404,-5.59801 4.7148,-7.74031 0,0 5.8635,-0.0232 5.8635,-0.0232 z"
       id="path3116-0"
       style="fill:#ffffff;fill-opacity:1"
       inkscape:connector-curvature="0" />
    <path
       d="m 386.91745,427.20565 c -0.9753,1.41691 -2.4722,2.3177 -3.7821,3.41122 -0.7375,0.6004 -1.5644,1.20364 -2.5015,1.47734 -2.4146,0.25424 -5.4349,1.31067 -7.694,0.0558 -0.8064,-0.31977 -1.6634,-0.44618 -2.5137,-0.61188 -2.633,0.21659 8.6914,-1.67403 3.6103,0.26306 -0.7489,0.21101 -0.8936,0.60003 -0.8142,-0.39691 0.3213,-0.0465 0.6473,-0.0279 0.9711,-0.0419 -8.123,2.67018 -6.2387,0.57678 -4.2025,-0.30443 0,0 5.6961,0.28258 5.6961,0.28258 l 0,0 c -2.4828,1.10659 -2.3035,1.31801 -6.938,1.19657 -0.2891,-0.0186 -0.5898,0.0326 -0.8679,-0.059 -0.153,-0.83729 -0.2032,-0.67932 0.442,-0.97264 2.3843,-1.05857 4.8848,-1.84758 7.6999,-1.07861 0.9158,0.11759 1.8214,0.30722 2.6285,0.76196 0.3591,0.14501 0.5786,0.18824 0.9658,0.16964 0.1142,-0.005 0.4559,-0.0278 0.3422,-0.0186 -5.6412,0.41643 -7.00981,0.5481 -5.0253,0.35973 0.8608,-0.11248 1.394,-0.59561 2.0366,-1.16422 1.1259,-1.35924 2.6408,-2.28298 3.9942,-3.41755 0,0 5.9528,0.0902 5.9528,0.0902 z"
       id="path3118-7"
       style="fill:#ffffff;fill-opacity:1"
       inkscape:connector-curvature="0" />
    <path
       d="m 371.48335,402.66319 c 10.1559,-0.94312 4.3894,-0.27375 2.0306,0.69154 -1.3715,0.73013 -2.2546,2.06468 -3.371,3.09928 -1.2018,0.81959 -2.02211,1.57104 -2.3712,2.94324 -0.4669,1.30352 -0.6688,2.66657 -1.12181,3.98249 -1.012,1.94194 -2.15,3.79783 -3.0918,5.77797 -0.6987,1.65442 -0.5712,3.44892 -0.7301,5.18989 -0.2211,1.62579 0.6285,2.95248 1.2028,4.40222 0.6248,1.10482 1.26511,2.16516 2.04671,3.17331 0.3065,0.34347 0.50309,0.75754 0.5939,1.2002 0.015,0.0716 -0.035,0.24447 0.03,0.21612 0.09,-0.0372 0.064,-0.17848 0.096,-0.26818 -1.7671,0.10411 -3.53331,0.22216 -5.30121,0.3114 -0.222,0.009 0.453,-0.15198 0.2732,0.0419 -0.064,0.0688 -0.2757,-0.50502 -0.2836,-0.52706 -0.2275,-0.55899 -0.3303,-1.07744 -0.1465,-1.65358 0.2722,-0.0186 0.02,-0.37321 0.2896,-0.53984 1.9308,-0.13432 3.86171,-0.26864 5.79251,-0.40296 0.8881,-0.11294 1.587,0.23332 2.3856,0.56438 0.6353,0.1808 1.2983,0.23842 1.9562,0.28444 0.28559,0.0186 1.14359,0.0232 0.858,0.0469 -7.93931,0.6076 -6.71191,0.47179 -4.4719,0.18591 2.1935,-0.60464 4.1862,-1.7293 6.0437,-2.98044 1.31739,-1.03812 0.6657,-0.52091 1.9553,-1.55142 0,0 6.6895,0.14641 6.6895,0.14641 l 0,0 c -1.1924,1.04421 -0.58691,0.50354 -1.8149,1.62379 -2.03741,1.36691 -4.21761,2.55738 -6.6168,3.22666 -3.36661,0.70335 -7.1008,1.24714 -10.38371,0.0326 -0.7125,-0.27051 -1.3414,-0.485 -2.1243,-0.37229 1.7434,-0.12735 3.48831,-0.23796 5.23021,-0.38204 0.057,-0.003 -0.13461,0.005 -0.16591,-0.0372 -0.078,-0.11248 -0.085,-0.25842 -0.12959,-0.38716 -0.057,-0.16267 0.2091,0.63014 0.083,0.50892 -0.1331,-0.0326 0.071,0.95062 0.1863,1.15479 1.0986,2.80948 -3.46281,1.83861 -5.72821,1.78665 -0.3705,-0.49661 -0.5831,-1.1057 -1.1315,-1.45852 -1.0401,-0.93159 -1.7411,-2.11422 -2.3853,-3.32195 -0.7718,-1.45367 -1.4222,-2.99572 -1.3337,-4.65905 -0.079,-1.80864 0.1381,-3.62401 0.5808,-5.38314 0.6054,-2.16671 1.7972,-3.98445 3.1307,-5.80344 0.6452,-1.27289 1.1375,-2.59192 1.5576,-3.94758 0.5279,-1.27131 0.5092,-2.49582 1.9901,-3.22272 1.14771,-1.15404 2.40011,-2.23795 3.59631,-3.32549 3.169,-1.26948 6.09549,-1.58451 9.74279,-1.58288 0,0 -5.63889,1.21297 -5.63889,1.21297 z"
       id="path3120-7"
       style="fill:#ffffff;fill-opacity:1"
       inkscape:connector-curvature="0" />
    <path
       d="m 382.92505,428.01668 c 0.2632,1.15716 -0.1465,2.27796 -0.5332,3.36234 -0.2682,0.62861 -0.4535,1.33344 -1.0996,1.6869 -2.3844,1.06244 -4.9295,0.67179 -7.1669,-0.19799 -0.5163,-0.28444 -1.1023,-0.28398 -1.6801,-0.34533 -0.3204,-0.0419 -0.64121,10e-4 -0.9632,0.002 -0.097,-0.7719 0.2995,-1.27023 0.725,-1.93583 1.0812,-1.47921 1.5892,-3.08004 1.9108,-4.83671 0.376,-2.6945 0.8452,-5.37138 1.03299,-8.08642 0.27071,-2.81743 -0.27169,-5.63022 -0.28109,-8.4522 -0.1068,-1.21879 0.2146,-2.45472 0.1495,-3.66495 0.052,-0.60635 -0.01,-1.20019 0.075,-1.80557 0.03,-0.24029 -0.7056,-0.62638 -1.1091,-0.81786 -0.4974,-0.10551 -0.9489,-0.68337 -0.4043,-1.0689 5.95439,-0.20264 5.9048,-1.15753 6.35589,3.08626 0.18571,1.99189 0.68551,3.93977 0.93911,5.92813 0.056,1.90568 0.26469,3.71854 0.6895,5.57696 0.454,1.76629 0.4446,3.5772 0.525,5.38048 0.079,1.48897 -0.2434,2.88841 -0.72391,4.29236 -0.1882,1.26898 -0.5444,2.49088 -0.8844,3.72988 -0.21249,1.03766 -0.64049,1.90275 -1.17659,2.80702 -0.24641,0.40669 -0.5097,0.80365 -0.7923,1.18779 -1.4098,1.5511 -4.5847,1.49262 -6.03701,0.0883 -0.2598,-0.2454 -0.4028,-0.49894 -0.5137,-0.82511 -0.068,-0.35649 -0.045,-0.14316 -0.01,-0.64363 0,0 5.7286,-0.15523 5.7286,-0.15523 l 0,0 c -0.2414,0.2296 -0.20071,0.0999 -0.20021,0.35741 0.092,0.0976 0.39991,0.36532 0.57341,0.50545 1.6841,1.64819 -4.93901,2.63458 -4.99431,0.80332 0.062,-0.43829 0.1987,-0.86058 0.40731,-1.25686 0.50849,-0.85546 0.81759,-1.66715 0.95069,-2.66512 0.3934,-1.21679 0.59101,-2.47043 0.88151,-3.71259 0.25929,-1.36928 0.7952,-2.69737 0.4903,-4.10872 -0.058,-1.76741 -0.3169,-3.52445 -0.58681,-5.2722 -0.38639,-1.86199 -0.81349,-3.70826 -0.85839,-5.61733 -0.2518,-1.99557 -0.7552,-3.9791 -0.7179,-5.99424 0.10029,-4.04104 -0.8961,-2.81408 5.42129,-3.07947 -0.5376,-0.1557 -0.24439,-0.95986 0.60401,-0.26306 0.5017,0.32534 0.94149,0.80644 1.0452,1.40014 0.082,0.59519 0.01,1.17989 0.096,1.77307 0.025,1.19397 0.5881,2.38333 0.7376,3.56573 0.5882,2.80604 0.9569,5.69287 0.6976,8.55524 -0.3367,2.75613 -0.8465,5.46726 -1.4421,8.17896 -0.46941,1.92961 -1.20831,3.65398 -2.5975,5.14591 -0.3447,0.31419 -0.7205,0.65246 -1.0316,0.99746 -0.056,0.0613 -0.056,0.26074 -0.1247,0.21287 -0.146,-0.10365 -0.20011,-0.30025 -0.2389,-0.47044 -0.01,-0.0419 0.085,-0.009 0.12819,-0.0139 0.3387,-0.003 0.67221,0.0326 1.01051,0.0465 0.6664,0.0572 1.28879,0.21705 1.901,0.48202 3.7667,1.74579 -6.3277,0.82656 -4.1258,0.8848 0.8309,-0.15756 0.52889,-0.41738 0.6936,-1.1831 0.2593,-1.08079 0.7546,-2.09159 0.7569,-3.21434 0,0 5.7667,-0.34905 5.7667,-0.34905 z"
       id="path3122-7"
       style="fill:#ffffff;fill-opacity:1"
       inkscape:connector-curvature="0" />
    <path
       d="m 377.89985,410.81671 a 4.8191212,4.6376565 0 1 1 -0.054,-0.69175"
       id="path3124-1"
       style="fill:#ffffff;fill-opacity:1"
       inkscape:connector-curvature="0" />
    <path
       d="m 373.57525,390.86902 c 1.849,-0.77417 3.7166,-1.24594 5.7092,-1.52705 1.6479,-0.30977 3.2736,-0.39488 4.8563,0.20771 0.8564,0.41152 1.77979,0.61033 2.5929,1.10847 0.7207,0.42007 1.0217,1.15046 1.3576,1.84508 0.048,0.34356 0.4641,0.0358 0.9334,1.02157 0.4996,0.35703 0.91549,1.02157 1.3784,1.51976 0.18689,0.57421 0.29959,0.91194 0.7304,1.30962 0.082,0.0563 0.1326,0.14902 0.1827,0.23455 0,0 -5.61951,10.48554 -5.61951,10.48554 l 0,0 c -0.27859,-0.0279 -0.5617,-0.0149 -0.83639,-0.0817 -0.73771,-0.21271 -1.47251,-0.65185 -1.58461,-1.47176 0.02,-0.61412 -0.978,-1.02228 -1.0984,-1.701 -0.33839,-0.36906 -0.5076,-1.17818 -0.75569,-1.06845 -0.36771,-0.22655 -0.80551,-0.58732 -1.0968,-1.04017 -0.78961,-0.19187 -1.43881,-1.00307 -2.16151,-0.78318 -1.712,0.55757 -3.452,0.85943 -5.2528,0.92767 -1.7552,0.3144 -3.5833,0.98507 -5.35369,0.38033 0,0 6.01849,-11.36696 6.01849,-11.36696 z"
       id="path3505"
       style="fill:#ffffff;fill-opacity:1"
       inkscape:connector-curvature="0" />
    <path
       d="m 372.14385,435.45376 c -0.7669,0.7475 -1.70321,1.24686 -2.7741,1.34094 -0.61711,0.012 -1.1818,-0.25303 -1.5919,-0.70122 0,0 4.6583,-7.50479 4.6583,-7.50479 l 0,0 c 0.5227,0.27862 0.381,0.38538 0.9097,-0.0236 0.8566,-0.53759 1.7265,-1.08293 2.6344,-1.51731 0,0 -3.83641,8.40602 -3.83641,8.40602 z"
       id="path3507"
       style="fill:#ffffff;fill-opacity:1"
       inkscape:connector-curvature="0" />
    <path
       d="m 369.55105,423.45197 c 1.3651,-0.0385 2.5999,0.24918 3.80949,0.87616 0.99941,0.43202 2.10011,0.49932 3.07401,0.99296 0.6399,0.62473 1.31289,0.63669 2.17389,0.59323 0.6639,0.0698 1.2303,0.18331 1.8656,0.25644 0.2392,0.14667 0.49681,-0.12834 0.74451,-0.0256 0.2444,0.10138 -0.1952,0.30996 0.1799,0.15466 0.17519,-0.0477 0.33269,-0.001 0.4952,0.0553 2.3716,1.76373 5.42999,-9.58599 -4.2037,7.65456 -0.061,-0.008 -0.1555,-0.0795 -0.1832,-0.0245 -0.036,0.072 0.037,0.29582 0.081,0.22789 1.4819,-2.43762 2.9638,-4.87524 4.44569,-7.31286 -0.12199,0.0715 -0.091,0.0688 -0.025,0.21636 2.2844,2.60861 -1.5064,7.82575 -4.6998,8.62147 -0.1884,0.36668 -0.4753,0.66441 -0.745,0.97094 -0.2166,-0.0722 -0.4305,0.0852 -0.645,0.0603 -2.8324,-0.32883 2.8732,-4.92928 4.43639,-7.31405 0.065,-0.0992 0.24551,0.19737 0.18881,0.30155 -1.4126,2.59579 -3.0051,5.08961 -4.5077,7.63441 -0.3436,0.33073 -0.81941,0.24749 -1.1521,0.27248 -0.5396,0.0687 -1.08091,0.15594 -1.629,0.15392 -0.62391,-0.11146 -0.93221,-0.007 -1.25581,0.48802 -0.54819,-0.37677 -1.21799,-0.21385 -1.82429,-0.41899 -0.4011,-0.15648 -0.70621,-0.12499 -1.13801,-0.20999 -0.4987,-0.0281 -0.71289,0.08 -1.2038,-0.21722 -0.33549,-0.24941 -0.47329,-0.60131 -0.5513,-0.99452 -0.1229,-0.14974 0.14991,0.15611 -0.20929,-0.0944 0,0 4.79399,-7.46769 4.79399,-7.46769 l 0,0 c 0.12811,0.2041 0.25351,0.3958 0.35031,0.61992 0.077,0.13746 0.1697,0.27347 0.19589,0.43088 0.23911,-0.0631 0.49991,0.065 0.74181,0.0137 0.4955,-0.0446 0.9057,0.0317 1.3894,0.0615 0.4693,0.0457 1.1851,0.61322 1.012,0.14971 0.6144,-0.42441 1.228,-0.35191 1.9286,-0.34427 0.4329,5.3e-4 0.88369,0.0907 1.2951,0.088 0.3091,-0.21779 0.4583,-0.28923 0.5703,-0.66826 -1.4341,2.43766 -2.943,4.83286 -4.3023,7.31299 -0.05,0.0906 0.2549,0.0617 0.30859,-0.0265 1.50271,-2.46555 2.83031,-5.03401 4.2928,-7.52357 0.06,-0.10173 0.2748,-0.0597 0.3091,-0.17263 0.012,-0.0401 -0.043,-0.0717 -0.065,-0.10754 0.3095,-0.42142 0.62611,-0.9065 1.14391,-1.07311 0.024,-0.22226 -0.01,-0.10548 0.11419,-0.34367 -1.4543,2.44234 -2.90869,4.88469 -4.363,7.32704 -0.044,0.0767 0.12091,-0.14776 0.2076,-0.16646 0.1404,-0.0303 0.2885,0.0542 0.42991,0.029 0.051,-0.009 -0.088,-0.0548 -0.1319,-0.0822 -2.7369,-2.27198 1.14369,-8.43126 4.53889,-8.24188 -6.1063,12.20033 -1.18049,6.48498 -3.9011,7.65452 -0.1785,0.0515 -0.36339,0.10146 -0.54949,0.0579 -0.26771,0.0421 -0.69201,0.23375 -1.0735,0.1415 -0.73101,0.0741 -1.41981,0.17553 -2.17161,0.13715 -0.83589,-0.197 -1.6036,-0.48855 -2.4383,-0.68279 -1.0593,-0.31011 -2.12989,-0.42699 -3.2014,-0.71555 -1.2002,-0.2827 -2.4557,-0.69762 -3.47759,-1.39578 0,0 4.5314,-7.93039 4.5314,-7.93039 z"
       id="path3509"
       style="fill:#ffffff;fill-opacity:1"
       inkscape:connector-curvature="0" />
  </g>
</svg>
