<?xml version="1.0" encoding="UTF-8" standalone="no"?>
<!-- Created with Inkscape (http://www.inkscape.org/) -->

<svg
   xmlns:dc="http://purl.org/dc/elements/1.1/"
   xmlns:cc="http://creativecommons.org/ns#"
   xmlns:rdf="http://www.w3.org/1999/02/22-rdf-syntax-ns#"
   xmlns:svg="http://www.w3.org/2000/svg"
   xmlns="http://www.w3.org/2000/svg"
   xmlns:sodipodi="http://sodipodi.sourceforge.net/DTD/sodipodi-0.dtd"
   xmlns:inkscape="http://www.inkscape.org/namespaces/inkscape"
   width="744.09448819"
   height="1052.3622047"
   id="svg4109"
   version="1.1"
   inkscape:version="0.48.3.1 r9886"
   sodipodi:docname="New document 10">
  <defs
     id="defs4111" />
  <sodipodi:namedview
     id="base"
     pagecolor="#ffffff"
     bordercolor="#666666"
     borderopacity="1.0"
     inkscape:pageopacity="0.0"
     inkscape:pageshadow="2"
     inkscape:zoom="2.8"
     inkscape:cx="541.86021"
     inkscape:cy="325.68968"
     inkscape:document-units="px"
     inkscape:current-layer="layer1"
     showgrid="false"
     inkscape:window-width="1311"
     inkscape:window-height="744"
     inkscape:window-x="55"
     inkscape:window-y="24"
     inkscape:window-maximized="1" />
  <metadata
     id="metadata4114">
    <rdf:RDF>
      <cc:Work
         rdf:about="">
        <dc:format>image/svg+xml</dc:format>
        <dc:type
           rdf:resource="http://purl.org/dc/dcmitype/StillImage" />
        <dc:title></dc:title>
      </cc:Work>
    </rdf:RDF>
  </metadata>
  <g
     inkscape:label="Layer 1"
     inkscape:groupmode="layer"
     id="layer1">
    <path
       d="m 600.46163,770.42806 c -11.07405,-1.13397 -20.16879,-9.71157 -22.40754,-21.13343 -0.44779,-2.28452 -0.50644,-6.60976 -0.12211,-9.00315 0.33733,-2.10068 1.36533,-5.47474 2.20867,-7.24929 1.61428,-3.39671 4.80402,-7.27681 7.94458,-9.66409 7.69618,-5.85018 18.34602,-6.6614 26.9073,-2.04959 12.09662,6.51623 17.0796,21.78183 11.18964,34.28002 -3.31156,7.02698 -9.33879,12.15429 -16.62828,14.14552 -1.45355,0.39707 -5.91439,0.99086 -6.80531,0.90589 -0.1811,-0.0173 -1.21022,-0.12162 -2.28695,-0.23188 z m 8.06466,-2.75725 c 4.96863,-1.45223 9.188,-4.34078 12.23794,-8.37801 3.26568,-4.32279 4.84129,-9.06174 4.83763,-14.55003 -0.006,-9.34253 -4.71726,-17.28213 -12.64532,-21.3114 -3.56619,-1.81244 -5.22953,-2.18436 -9.7689,-2.18436 -4.27224,0 -5.78585,0.29991 -9.15688,1.81438 -5.4974,2.46977 -10.58309,8.33169 -12.31107,14.19006 -0.88914,3.01441 -1.03202,4.06075 -1.02188,7.48314 0.009,2.9348 0.0893,3.69847 0.59969,5.67866 1.16301,4.51261 3.07139,7.93798 6.21173,11.14953 2.26056,2.31182 4.33097,3.76444 7.0957,4.97841 3.30459,1.45101 5.25678,1.82301 9.02177,1.71913 2.37303,-0.0655 3.61995,-0.2155 4.89959,-0.58951 z"
       id="path4032-8"
       style="fill:#f6ffd5;fill-opacity:1"
       inkscape:connector-curvature="0"
       inkscape:export-filename="/home/sade/Desktop/player4.png"
       inkscape:export-xdpi="90"
       inkscape:export-ydpi="90" />
    <path
       d="m 600.07347,772.35781 c -12.12781,-1.22657 -22.088,-10.50445 -24.53979,-22.85878 -0.49037,-2.47103 -0.55463,-7.14937 -0.13372,-9.73818 0.36942,-2.27217 1.49525,-5.9217 2.41885,-7.84113 1.76789,-3.67401 5.26114,-7.87089 8.70056,-10.45306 8.42852,-6.32779 20.09178,-7.20525 29.46773,-2.21693 13.2477,7.04822 18.70485,23.56011 12.25442,37.07866 -3.62668,7.60066 -10.22744,13.14659 -18.21059,15.30037 -1.59186,0.42948 -6.47718,1.07175 -7.45288,0.97986 -0.19835,-0.0187 -1.32538,-0.13155 -2.50458,-0.25081 z m 8.83207,-2.98238 c 5.44143,-1.57078 10.06232,-4.69514 13.40248,-9.06199 3.57643,-4.6757 5.30198,-9.80155 5.29798,-15.7379 -0.007,-10.10526 -5.16615,-18.69305 -13.84863,-23.05127 -3.90555,-1.9604 -5.72717,-2.3627 -10.6985,-2.3627 -4.67877,0 -6.3364,0.32441 -10.0282,1.96252 -6.02054,2.67141 -11.59016,9.01188 -13.48258,15.34855 -0.97373,3.2605 -1.13023,4.39227 -1.11912,8.09405 0.009,3.17441 0.0979,4.00043 0.65677,6.14228 1.27367,4.88101 3.36365,8.58604 6.80283,12.05978 2.47566,2.50056 4.74309,4.07178 7.77088,5.38485 3.61907,1.56946 5.75703,1.97184 9.88026,1.85949 2.59885,-0.0709 3.96442,-0.2331 5.36583,-0.63766 z"
       id="path4032-3-7"
       style="fill:#f6ffd5;fill-opacity:1"
       inkscape:connector-curvature="0"
       inkscape:export-filename="/home/sade/Desktop/player4.png"
       inkscape:export-xdpi="90"
       inkscape:export-ydpi="90"
       inkscape:transform-center-x="6.2669688"
       inkscape:transform-center-y="-1.1548087" />
    <path
       d="m 600.38507,770.13523 c -10.89194,-1.11839 -19.83709,-9.57806 -22.03903,-20.84286 -0.4404,-2.25312 -0.49811,-6.5189 -0.12008,-8.87939 0.33176,-2.07179 1.34286,-5.39946 2.17235,-7.14963 1.58771,-3.34999 4.72497,-7.17675 7.81388,-9.5312 7.56961,-5.76976 18.0443,-6.56982 26.46479,-2.02143 11.89765,6.42666 16.79869,21.48236 11.00561,33.80872 -3.25708,6.93038 -9.1852,11.98719 -16.3548,13.95104 -1.42966,0.3916 -5.81713,0.97723 -6.69339,0.89344 -0.17816,-0.0169 -1.19033,-0.1199 -2.24933,-0.22869 z m 7.93202,-2.71937 c 4.88691,-1.43224 9.03688,-4.28108 12.03668,-8.26279 3.21196,-4.26336 4.76167,-8.93716 4.75806,-14.34999 -0.006,-9.21409 -4.6397,-17.04452 -12.43737,-21.0184 -3.50753,-1.78752 -5.14352,-2.15434 -9.60823,-2.15434 -4.202,0 -5.69069,0.2958 -9.00628,1.78944 -5.40699,2.43583 -10.40904,8.21714 -12.1086,13.99498 -0.8745,2.97295 -1.01505,4.00492 -1.00507,7.38024 0.008,2.89446 0.0879,3.64764 0.58983,5.6006 1.14389,4.45056 3.02086,7.82883 6.10957,10.99622 2.22338,2.28005 4.25975,3.7127 6.979,4.90997 3.25022,1.43107 5.17031,1.79795 8.87338,1.6955 2.33401,-0.0647 3.56042,-0.21253 4.81903,-0.58143 z"
       id="path4032-6-7"
       style="fill:#f6ffd5;fill-opacity:1"
       inkscape:connector-curvature="0"
       inkscape:export-filename="/home/sade/Desktop/player4.png"
       inkscape:export-xdpi="90"
       inkscape:export-ydpi="90"
       inkscape:transform-center-x="5.6283245"
       inkscape:transform-center-y="-1.0529704" />
    <path
       d="m 638.1402,706.67805 c -11.07405,-1.13397 -20.16879,-9.71157 -22.40754,-21.13343 -0.44779,-2.28452 -0.50644,-6.60976 -0.12211,-9.00315 0.33733,-2.10068 1.36533,-5.47474 2.20867,-7.24929 1.61428,-3.39671 4.80402,-7.27681 7.94458,-9.66409 7.69618,-5.85018 18.34602,-6.6614 26.9073,-2.04959 12.09662,6.51623 17.0796,21.78183 11.18964,34.28002 -3.31156,7.02698 -9.33879,12.15429 -16.62828,14.14552 -1.45355,0.39707 -5.91439,0.99086 -6.80531,0.90589 -0.1811,-0.0173 -1.21022,-0.12162 -2.28695,-0.23188 z m 8.06466,-2.75725 c 4.96863,-1.45223 9.188,-4.34078 12.23794,-8.37801 3.26568,-4.32279 4.84129,-9.06174 4.83763,-14.55003 -0.006,-9.34253 -4.71726,-17.28213 -12.64532,-21.3114 -3.56619,-1.81244 -5.22953,-2.18436 -9.7689,-2.18436 -4.27224,0 -5.78585,0.29991 -9.15688,1.81438 -5.4974,2.46977 -10.58309,8.33169 -12.31107,14.19006 -0.88914,3.01441 -1.03202,4.06075 -1.02188,7.48314 0.009,2.9348 0.0893,3.69847 0.59969,5.67866 1.16301,4.51261 3.07139,7.93798 6.21173,11.14953 2.26056,2.31182 4.33097,3.76444 7.0957,4.97841 3.30459,1.45101 5.25678,1.82301 9.02177,1.71913 2.37303,-0.0655 3.61995,-0.2155 4.89959,-0.58951 z"
       id="path4032-8-7"
       style="fill:#f4eed7;fill-opacity:1"
       inkscape:connector-curvature="0"
       inkscape:export-filename="/home/sade/Desktop/player3.png"
       inkscape:export-xdpi="90"
       inkscape:export-ydpi="90" />
    <path
       d="m 637.75204,708.6078 c -12.12781,-1.22657 -22.088,-10.50445 -24.53979,-22.85878 -0.49037,-2.47103 -0.55463,-7.14937 -0.13372,-9.73818 0.36942,-2.27217 1.49525,-5.9217 2.41885,-7.84113 1.76789,-3.67401 5.26114,-7.87089 8.70056,-10.45306 8.42852,-6.32779 20.09178,-7.20525 29.46773,-2.21693 13.2477,7.04822 18.70485,23.56011 12.25442,37.07866 -3.62668,7.60066 -10.22744,13.14659 -18.21059,15.30037 -1.59186,0.42948 -6.47718,1.07175 -7.45288,0.97986 -0.19835,-0.0187 -1.32538,-0.13155 -2.50458,-0.25081 z m 8.83207,-2.98238 c 5.44143,-1.57078 10.06232,-4.69514 13.40248,-9.06199 3.57643,-4.6757 5.30198,-9.80155 5.29798,-15.7379 -0.007,-10.10526 -5.16615,-18.69305 -13.84863,-23.05127 -3.90555,-1.9604 -5.72717,-2.3627 -10.6985,-2.3627 -4.67877,0 -6.3364,0.32441 -10.0282,1.96252 -6.02054,2.67141 -11.59016,9.01188 -13.48258,15.34855 -0.97373,3.2605 -1.13023,4.39227 -1.11912,8.09405 0.009,3.17441 0.0979,4.00043 0.65677,6.14228 1.27367,4.88101 3.36365,8.58604 6.80283,12.05978 2.47566,2.50056 4.74309,4.07178 7.77088,5.38485 3.61907,1.56946 5.75703,1.97184 9.88026,1.85949 2.59885,-0.0709 3.96442,-0.2331 5.36583,-0.63766 z"
       id="path4032-3-7-4"
       style="fill:#f4eed7;fill-opacity:1"
       inkscape:connector-curvature="0"
       inkscape:export-filename="/home/sade/Desktop/player3.png"
       inkscape:export-xdpi="90"
       inkscape:export-ydpi="90"
       inkscape:transform-center-x="6.2669688"
       inkscape:transform-center-y="-1.1548087" />
    <path
       d="m 638.06364,706.38522 c -10.89194,-1.11839 -19.83709,-9.57806 -22.03903,-20.84286 -0.4404,-2.25312 -0.49811,-6.5189 -0.12008,-8.87939 0.33176,-2.07179 1.34286,-5.39946 2.17235,-7.14963 1.58771,-3.34999 4.72497,-7.17675 7.81388,-9.5312 7.56961,-5.76976 18.0443,-6.56982 26.46479,-2.02143 11.89765,6.42666 16.79869,21.48236 11.00561,33.80872 -3.25708,6.93038 -9.1852,11.98719 -16.3548,13.95104 -1.42966,0.3916 -5.81713,0.97723 -6.69339,0.89344 -0.17816,-0.0169 -1.19033,-0.1199 -2.24933,-0.22869 z m 7.93202,-2.71937 c 4.88691,-1.43224 9.03688,-4.28108 12.03668,-8.26279 3.21196,-4.26336 4.76167,-8.93716 4.75806,-14.34999 -0.006,-9.21409 -4.6397,-17.04452 -12.43737,-21.0184 -3.50753,-1.78752 -5.14352,-2.15434 -9.60823,-2.15434 -4.202,0 -5.69069,0.2958 -9.00628,1.78944 -5.40699,2.43583 -10.40904,8.21714 -12.1086,13.99498 -0.8745,2.97295 -1.01505,4.00492 -1.00507,7.38024 0.008,2.89446 0.0879,3.64764 0.58983,5.6006 1.14389,4.45056 3.02086,7.82883 6.10957,10.99622 2.22338,2.28005 4.25975,3.7127 6.979,4.90997 3.25022,1.43107 5.17031,1.79795 8.87338,1.6955 2.33401,-0.0647 3.56042,-0.21253 4.81903,-0.58143 z"
       id="path4032-6-7-5"
       style="fill:#f4eed7;fill-opacity:1"
       inkscape:connector-curvature="0"
       inkscape:export-filename="/home/sade/Desktop/player3.png"
       inkscape:export-xdpi="90"
       inkscape:export-ydpi="90"
       inkscape:transform-center-x="5.6283245"
       inkscape:transform-center-y="-1.0529704" />
    <path
       d="m 490.6402,802.03519 c -11.07405,-1.13397 -20.16879,-9.71157 -22.40754,-21.13343 -0.44779,-2.28452 -0.50644,-6.60976 -0.12211,-9.00315 0.33733,-2.10068 1.36533,-5.47474 2.20867,-7.24929 1.61428,-3.39671 4.80402,-7.27681 7.94458,-9.66409 7.69618,-5.85018 18.34602,-6.6614 26.9073,-2.04959 12.09662,6.51623 17.0796,21.78183 11.18964,34.28002 -3.31156,7.02698 -9.33879,12.15429 -16.62828,14.14552 -1.45355,0.39707 -5.91439,0.99086 -6.80531,0.90589 -0.1811,-0.0173 -1.21022,-0.12162 -2.28695,-0.23188 z m 8.06466,-2.75725 c 4.96863,-1.45223 9.188,-4.34078 12.23794,-8.37801 3.26568,-4.32279 4.84129,-9.06174 4.83763,-14.55003 -0.006,-9.34253 -4.71726,-17.28213 -12.64532,-21.3114 -3.56619,-1.81244 -5.22953,-2.18436 -9.7689,-2.18436 -4.27224,0 -5.78585,0.29991 -9.15688,1.81438 -5.4974,2.46977 -10.58309,8.33169 -12.31107,14.19006 -0.88914,3.01441 -1.03202,4.06075 -1.02188,7.48314 0.009,2.9348 0.0893,3.69847 0.59969,5.67866 1.16301,4.51261 3.07139,7.93798 6.21173,11.14953 2.26056,2.31182 4.33097,3.76444 7.0957,4.97841 3.30459,1.45101 5.25678,1.82301 9.02177,1.71913 2.37303,-0.0655 3.61995,-0.2155 4.89959,-0.58951 z"
       id="path4032-8-7-6"
       style="fill:#999999;fill-opacity:1"
       inkscape:connector-curvature="0"
       inkscape:export-filename="/home/sade/Desktop/player1.png"
       inkscape:export-xdpi="90"
       inkscape:export-ydpi="90" />
    <path
       d="m 490.25204,803.96494 c -12.12781,-1.22657 -22.088,-10.50445 -24.53979,-22.85878 -0.49037,-2.47103 -0.55463,-7.14937 -0.13372,-9.73818 0.36942,-2.27217 1.49525,-5.9217 2.41885,-7.84113 1.76789,-3.67401 5.26114,-7.87089 8.70056,-10.45306 8.42852,-6.32779 20.09178,-7.20525 29.46773,-2.21693 13.2477,7.04822 18.70485,23.56011 12.25442,37.07866 -3.62668,7.60066 -10.22744,13.14659 -18.21059,15.30037 -1.59186,0.42948 -6.47718,1.07175 -7.45288,0.97986 -0.19835,-0.0187 -1.32538,-0.13155 -2.50458,-0.25081 z m 8.83207,-2.98238 c 5.44143,-1.57078 10.06232,-4.69514 13.40248,-9.06199 3.57643,-4.6757 5.30198,-9.80155 5.29798,-15.7379 -0.007,-10.10526 -5.16615,-18.69305 -13.84863,-23.05127 -3.90555,-1.9604 -5.72717,-2.3627 -10.6985,-2.3627 -4.67877,0 -6.3364,0.32441 -10.0282,1.96252 -6.02054,2.67141 -11.59016,9.01188 -13.48258,15.34855 -0.97373,3.2605 -1.13023,4.39227 -1.11912,8.09405 0.009,3.17441 0.0979,4.00043 0.65677,6.14228 1.27367,4.88101 3.36365,8.58604 6.80283,12.05978 2.47566,2.50056 4.74309,4.07178 7.77088,5.38485 3.61907,1.56946 5.75703,1.97184 9.88026,1.85949 2.59885,-0.0709 3.96442,-0.2331 5.36583,-0.63766 z"
       id="path4032-3-7-4-8"
       style="fill:#999999;fill-opacity:1"
       inkscape:connector-curvature="0"
       inkscape:export-filename="/home/sade/Desktop/player1.png"
       inkscape:export-xdpi="90"
       inkscape:export-ydpi="90"
       inkscape:transform-center-x="6.2669688"
       inkscape:transform-center-y="-1.1548087" />
    <path
       d="m 490.56364,801.74236 c -10.89194,-1.11839 -19.83709,-9.57806 -22.03903,-20.84286 -0.4404,-2.25312 -0.49811,-6.5189 -0.12008,-8.87939 0.33176,-2.07179 1.34286,-5.39946 2.17235,-7.14963 1.58771,-3.34999 4.72497,-7.17675 7.81388,-9.5312 7.56961,-5.76976 18.0443,-6.56982 26.46479,-2.02143 11.89765,6.42666 16.79869,21.48236 11.00561,33.80872 -3.25708,6.93038 -9.1852,11.98719 -16.3548,13.95104 -1.42966,0.3916 -5.81713,0.97723 -6.69339,0.89344 -0.17816,-0.0169 -1.19033,-0.1199 -2.24933,-0.22869 z m 7.93202,-2.71937 c 4.88691,-1.43224 9.03688,-4.28108 12.03668,-8.26279 3.21196,-4.26336 4.76167,-8.93716 4.75806,-14.34999 -0.006,-9.21409 -4.6397,-17.04452 -12.43737,-21.0184 -3.50753,-1.78752 -5.14352,-2.15434 -9.60823,-2.15434 -4.202,0 -5.69069,0.2958 -9.00628,1.78944 -5.40699,2.43583 -10.40904,8.21714 -12.1086,13.99498 -0.8745,2.97295 -1.01505,4.00492 -1.00507,7.38024 0.008,2.89446 0.0879,3.64764 0.58983,5.6006 1.14389,4.45056 3.02086,7.82883 6.10957,10.99622 2.22338,2.28005 4.25975,3.7127 6.979,4.90997 3.25022,1.43107 5.17031,1.79795 8.87338,1.6955 2.33401,-0.0647 3.56042,-0.21253 4.81903,-0.58143 z"
       id="path4032-6-7-5-0"
       style="fill:#999999;fill-opacity:1"
       inkscape:connector-curvature="0"
       inkscape:export-filename="/home/sade/Desktop/player1.png"
       inkscape:export-xdpi="90"
       inkscape:export-ydpi="90"
       inkscape:transform-center-x="5.6283245"
       inkscape:transform-center-y="-1.0529704" />
    <path
       d="m 534.97532,723.73908 c -10.86153,-1.08387 -19.78173,-9.28248 -21.97752,-20.19968 -0.43919,-2.18358 -0.49672,-6.31772 -0.11976,-8.60536 0.33085,-2.00786 1.33912,-5.23285 2.16628,-6.92899 1.5833,-3.24663 4.71182,-6.95529 7.79211,-9.23709 7.54848,-5.5917 17.99394,-6.36708 26.39092,-1.95904 11.86447,6.22832 16.75182,20.81943 10.9749,32.76541 -3.24801,6.7165 -9.15957,11.61727 -16.30917,13.52052 -1.42565,0.37952 -5.80088,0.94708 -6.6747,0.86586 -0.17763,-0.0165 -1.187,-0.11624 -2.24306,-0.22163 z m 7.90989,-2.63543 c 4.87327,-1.38806 9.01167,-4.14899 12.00308,-8.00784 3.203,-4.13179 4.74838,-8.66136 4.74479,-13.90715 -0.006,-8.92975 -4.62673,-16.51855 -12.40265,-20.36979 -3.49775,-1.73236 -5.12917,-2.08785 -9.58142,-2.08785 -4.19025,0 -5.67481,0.28666 -8.98115,1.73422 -5.3919,2.36065 -10.37999,7.96356 -12.07481,13.56309 -0.87207,2.88122 -1.01221,3.88133 -1.00226,7.15251 0.009,2.80513 0.0876,3.53506 0.58818,5.42775 1.14069,4.31323 3.01244,7.58726 6.09252,10.65691 2.21717,2.20967 4.24785,3.59811 6.95952,4.75844 3.24117,1.3869 5.1559,1.74247 8.84863,1.64318 2.32749,-0.0626 3.55048,-0.20598 4.80557,-0.56347 z"
       id="path4032"
       style="fill:#000000;fill-opacity:1"
       inkscape:connector-curvature="0"
       inkscape:export-filename="/home/sade/Desktop/player2.png"
       inkscape:export-xdpi="90"
       inkscape:export-ydpi="90" />
    <path
       d="m 534.5946,725.58356 c -11.89506,-1.17237 -21.6641,-10.04032 -24.06884,-21.84879 -0.48096,-2.36185 -0.54398,-6.83349 -0.13115,-9.30791 0.36233,-2.17178 1.46655,-5.66006 2.37243,-7.49468 1.73396,-3.51168 5.16017,-7.52313 8.53358,-9.99121 8.26677,-6.04821 19.7062,-6.8869 28.90221,-2.11898 12.99347,6.73681 18.34589,22.51914 12.01925,35.44039 -3.55708,7.26484 -10.03117,12.56573 -17.86111,14.62435 -1.56131,0.4105 -6.35288,1.02439 -7.30985,0.93656 -0.19454,-0.0179 -1.29995,-0.12574 -2.45652,-0.23973 z m 8.66258,-2.8506 c 5.337,-1.50138 9.86921,-4.4877 13.14527,-8.6616 3.50779,-4.46911 5.20023,-9.36848 5.1963,-15.04254 -0.007,-9.65878 -5.067,-17.86713 -13.58286,-22.03279 -3.83059,-1.87378 -5.61725,-2.2583 -10.49318,-2.2583 -4.58898,0 -6.2148,0.31007 -9.83575,1.87581 -5.90499,2.55337 -11.36773,8.6137 -13.22383,14.67039 -0.95504,3.11644 -1.10854,4.1982 -1.09764,7.73643 0.009,3.03415 0.096,3.82367 0.64416,5.87089 1.24923,4.66535 3.2991,8.20668 6.67228,11.52693 2.42815,2.39008 4.65206,3.89188 7.62175,5.14693 3.54961,1.50012 5.64654,1.88472 9.69064,1.77733 2.54898,-0.0678 3.88834,-0.2228 5.26286,-0.60948 z"
       id="path4032-3"
       style="fill:#e3dedb;fill-opacity:1"
       inkscape:connector-curvature="0"
       inkscape:export-filename="/home/sade/Desktop/player2.png"
       inkscape:export-xdpi="90"
       inkscape:export-ydpi="90"
       inkscape:transform-center-x="6.1466961"
       inkscape:transform-center-y="-1.1037876" />
    <path
       d="m 534.90022,723.45919 c -10.68291,-1.06898 -19.45639,-9.15487 -21.61607,-19.92195 -0.43195,-2.15357 -0.48855,-6.23087 -0.11778,-8.48707 0.3254,-1.98025 1.31709,-5.16089 2.13066,-6.83373 1.55724,-3.20198 4.6343,-6.85966 7.66393,-9.11008 7.42434,-5.51483 17.69801,-6.27954 25.9569,-1.93211 11.66932,6.1427 16.4763,20.53319 10.7944,32.31492 -3.19458,6.62417 -9.00893,11.45756 -16.04094,13.33464 -1.40222,0.37429 -5.70549,0.93405 -6.56493,0.85396 -0.17474,-0.0162 -1.16749,-0.1146 -2.20617,-0.21858 z m 7.7798,-2.59922 c 4.79312,-1.36896 8.86345,-4.09193 11.80568,-7.89771 3.15032,-4.07499 4.67029,-8.54229 4.66675,-13.71596 -0.006,-8.80698 -4.55066,-16.29143 -12.19868,-20.08973 -3.44022,-1.70854 -5.04481,-2.05915 -9.42384,-2.05915 -4.12136,0 -5.58148,0.28273 -8.83344,1.71037 -5.30322,2.32821 -10.20928,7.85408 -11.87622,13.37663 -0.85772,2.8416 -0.99557,3.82797 -0.98578,7.05416 0.008,2.76657 0.0862,3.48647 0.57851,5.35314 1.12194,4.25392 2.96288,7.48293 5.99232,10.51037 2.18071,2.17931 4.178,3.54866 6.84506,4.69303 3.18785,1.36784 5.07109,1.71851 8.70309,1.62059 2.28922,-0.0618 3.49209,-0.20314 4.72655,-0.55574 z"
       id="path4032-6"
       style="fill:#e3dedb;fill-opacity:1"
       inkscape:connector-curvature="0"
       inkscape:export-filename="/home/sade/Desktop/player2.png"
       inkscape:export-xdpi="90"
       inkscape:export-ydpi="90"
       inkscape:transform-center-x="5.5203096"
       inkscape:transform-center-y="-1.0064467" />
  </g>
</svg>
