<?xml version="1.0" encoding="UTF-8" standalone="no"?>
<!-- Created with Inkscape (http://www.inkscape.org/) -->

<svg
   xmlns:dc="http://purl.org/dc/elements/1.1/"
   xmlns:cc="http://creativecommons.org/ns#"
   xmlns:rdf="http://www.w3.org/1999/02/22-rdf-syntax-ns#"
   xmlns:svg="http://www.w3.org/2000/svg"
   xmlns="http://www.w3.org/2000/svg"
   xmlns:sodipodi="http://sodipodi.sourceforge.net/DTD/sodipodi-0.dtd"
   xmlns:inkscape="http://www.inkscape.org/namespaces/inkscape"
   width="744.09448819"
   height="1052.3622047"
   id="svg3045"
   version="1.1"
   inkscape:version="0.48.3.1 r9886"
   sodipodi:docname="sql.svg">
  <defs
     id="defs3047" />
  <sodipodi:namedview
     id="base"
     pagecolor="#ffffff"
     bordercolor="#666666"
     borderopacity="1.0"
     inkscape:pageopacity="0.0"
     inkscape:pageshadow="2"
     inkscape:zoom="11.2"
     inkscape:cx="388.00934"
     inkscape:cy="520.46228"
     inkscape:document-units="px"
     inkscape:current-layer="layer1"
     showgrid="false"
     inkscape:window-width="1311"
     inkscape:window-height="744"
     inkscape:window-x="55"
     inkscape:window-y="24"
     inkscape:window-maximized="1" />
  <metadata
     id="metadata3050">
    <rdf:RDF>
      <cc:Work
         rdf:about="">
        <dc:format>image/svg+xml</dc:format>
        <dc:type
           rdf:resource="http://purl.org/dc/dcmitype/StillImage" />
        <dc:title></dc:title>
      </cc:Work>
    </rdf:RDF>
  </metadata>
  <g
     inkscape:label="Layer 1"
     inkscape:groupmode="layer"
     id="layer1">
    <path
       style="fill:#ffffff;fill-opacity:1"
       d="m 393.13447,528.95585 c -1.07211,-0.75833 -2.57845,-1.69306 -3.34742,-2.07717 l -1.39814,-0.69838 1.3049,-1.74195 c 0.71768,-0.95808 1.18781,-1.92514 1.0447,-2.14906 -0.1431,-0.2239 -1.76757,-1.2479 -3.60995,-2.27554 -1.84237,-1.02763 -3.81278,-2.34505 -4.3787,-2.92757 -1.12822,-1.16135 -2.66238,-1.37995 -3.42754,-0.48838 -0.4118,0.47982 -1.16214,0.44941 -4.70966,-0.19082 -5.75657,-1.03889 -5.64773,-1.05112 -5.982,0.67191 -0.15692,0.80892 -0.46109,1.57581 -0.67592,1.7042 -0.21484,0.12839 -1.46377,8.8e-4 -2.77541,-0.28265 l -2.38481,-0.5161 0.91291,-0.9397 c 1.56206,-1.60792 5.75341,-3.48682 8.96697,-4.0197 9.55299,-1.58415 18.97243,4.08729 21.81404,13.13421 1.27036,4.0445 1.05093,4.49776 -1.35397,2.7967 z"
       id="path3316"
       inkscape:connector-curvature="0"
       inkscape:export-filename="/home/sade/Desktop/screw-comps/images/troops/sql_injection.png"
       inkscape:export-xdpi="90"
       inkscape:export-ydpi="90" />
    <path
       style="fill:#ffffff;fill-opacity:1"
       d="m 372.06618,551.19797 c -2.75353,-0.52714 -6.70436,-2.6389 -9.40876,-5.02906 -1.78582,-1.57833 -2.92781,-3.10184 -4.23014,-5.6434 -1.58155,-3.08647 -1.80906,-3.90778 -2.00552,-7.23972 -0.18168,-3.0813 -0.0529,-4.29513 0.71449,-6.73849 0.51482,-1.63912 1.00502,-2.98021 1.0893,-2.98021 0.0843,0 0.95541,1.19062 1.93583,2.64581 l 1.78258,2.64581 -1.08194,2.66977 c -1.36164,3.35989 -1.35292,3.59428 0.15249,4.10176 1.0554,0.35578 1.2753,0.70438 1.51611,2.40335 0.15492,1.09297 0.28167,3.2804 0.28167,4.86098 0,2.69994 0.0589,2.874 0.97464,2.87726 0.53606,0.002 4.74294,0.9427 9.34864,2.09064 l 8.374,2.08718 3.69881,-2.54208 c 2.03436,-1.39813 3.97406,-2.6442 4.31046,-2.76902 0.491,-0.18221 0.58748,-1.26179 0.48922,-5.4739 l -0.1224,-5.24692 2.76599,-1.20183 2.76599,-1.20181 -0.21876,2.9566 c -0.43533,5.88371 -5.03276,12.22206 -10.88637,15.00877 -4.17543,1.98778 -8.02097,2.52743 -12.24633,1.71851 z"
       id="path3318"
       inkscape:connector-curvature="0"
       inkscape:export-filename="/home/sade/Desktop/screw-comps/images/troops/sql_injection.png"
       inkscape:export-xdpi="90"
       inkscape:export-ydpi="90" />
    <path
       style="fill:#ffffff;fill-opacity:1"
       d="m 372.06618,551.19797 c -2.75353,-0.52714 -6.70436,-2.6389 -9.40876,-5.02906 -1.78582,-1.57833 -2.92781,-3.10184 -4.23014,-5.6434 -1.58155,-3.08647 -1.80906,-3.90778 -2.00552,-7.23972 -0.18168,-3.0813 -0.0529,-4.29513 0.71449,-6.73849 0.51482,-1.63912 1.00502,-2.98021 1.0893,-2.98021 0.0843,0 0.94851,1.18038 1.92049,2.62305 l 1.76725,2.62306 -1.0666,2.84159 c -0.58663,1.56288 -1.06662,3.00308 -1.06662,3.20046 0,0.19737 0.5555,0.54612 1.23444,0.77499 1.0554,0.35578 1.2753,0.70438 1.51611,2.40335 0.15492,1.09297 0.28167,3.2804 0.28167,4.86098 0,2.69994 0.0589,2.874 0.97464,2.87726 0.53606,0.002 4.74294,0.9427 9.34864,2.09064 l 8.374,2.08718 3.69881,-2.54208 c 2.03436,-1.39813 3.97406,-2.6442 4.31046,-2.76902 0.491,-0.18221 0.58748,-1.26179 0.48922,-5.4739 l -0.1224,-5.24692 2.76599,-1.20183 2.76599,-1.20181 -0.21876,2.9566 c -0.43533,5.88371 -5.03276,12.22206 -10.88637,15.00877 -4.17543,1.98778 -8.02097,2.52743 -12.24633,1.71851 z"
       id="path3320"
       inkscape:connector-curvature="0"
       inkscape:export-filename="/home/sade/Desktop/screw-comps/images/troops/sql_injection.png"
       inkscape:export-xdpi="90"
       inkscape:export-ydpi="90" />
    <path
       style="fill:#ffffff;fill-opacity:1"
       d="m 372.06618,551.19797 c -2.75353,-0.52714 -6.70436,-2.6389 -9.40876,-5.02906 -1.78582,-1.57833 -2.92781,-3.10184 -4.23014,-5.6434 -1.58155,-3.08647 -1.80906,-3.90778 -2.00552,-7.23972 -0.18168,-3.0813 -0.0529,-4.29513 0.71449,-6.73849 0.51482,-1.63912 1.00502,-2.98021 1.0893,-2.98021 0.0843,0 0.94851,1.18038 1.92049,2.62305 l 1.76725,2.62306 -1.0666,2.84159 c -0.58663,1.56288 -1.06662,3.00308 -1.06662,3.20046 0,0.19737 0.5555,0.54612 1.23444,0.77499 1.0554,0.35578 1.2753,0.70438 1.51611,2.40335 0.15492,1.09297 0.28167,3.2804 0.28167,4.86098 0,2.69994 0.0589,2.874 0.97464,2.87726 0.53606,0.002 4.72773,0.93891 9.31485,2.08223 l 8.34019,2.07877 3.75987,-2.54377 c 2.06793,-1.39908 4.02284,-2.64137 4.34425,-2.76063 0.45665,-0.16946 0.55762,-1.36362 0.46197,-5.46378 l -0.1224,-5.24692 2.76599,-1.20183 2.76599,-1.20181 -0.21876,2.9566 c -0.43533,5.88371 -5.03276,12.22206 -10.88637,15.00877 -4.17543,1.98778 -8.02097,2.52743 -12.24633,1.71851 z"
       id="path3322"
       inkscape:connector-curvature="0"
       inkscape:export-filename="/home/sade/Desktop/screw-comps/images/troops/sql_injection.png"
       inkscape:export-xdpi="90"
       inkscape:export-ydpi="90" />
    <path
       style="fill:#ffffff;fill-opacity:1"
       d="m 372.06618,551.19797 c -2.75353,-0.52714 -6.70436,-2.6389 -9.40876,-5.02906 -1.78582,-1.57833 -2.92781,-3.10184 -4.23014,-5.6434 -1.58155,-3.08647 -1.80906,-3.90778 -2.00552,-7.23972 -0.18168,-3.0813 -0.0529,-4.29513 0.71449,-6.73849 0.51482,-1.63912 1.00502,-2.98021 1.0893,-2.98021 0.0843,0 0.94851,1.18038 1.92049,2.62305 l 1.76725,2.62306 -1.0666,2.84159 c -0.58663,1.56288 -1.06662,3.00308 -1.06662,3.20046 0,0.19737 0.5688,0.5506 1.26399,0.78495 1.1295,0.38077 1.29141,0.66369 1.52166,2.65905 0.14171,1.22813 0.30389,3.32987 0.36041,4.67052 l 0.10274,2.43756 9.22117,2.25444 9.22118,2.25445 4.20722,-2.85514 4.20722,-2.85515 0,-5.14575 0,-5.14575 2.76599,-1.20017 2.76599,-1.20017 -0.21876,2.9566 c -0.43533,5.88371 -5.03276,12.22206 -10.88637,15.00877 -4.17543,1.98778 -8.02097,2.52743 -12.24633,1.71851 z"
       id="path3324"
       inkscape:connector-curvature="0"
       inkscape:export-filename="/home/sade/Desktop/screw-comps/images/troops/sql_injection.png"
       inkscape:export-xdpi="90"
       inkscape:export-ydpi="90" />
    <path
       style="fill:#ffffff;fill-opacity:1"
       d="m 374.17618,551.68503 c -2.41428,-0.14326 -4.86357,-0.85327 -7.37149,-2.13688 -3.14842,-1.61142 -6.13006,-4.42185 -8.02822,-7.56723 -1.06914,-1.77163 -1.93572,-3.99749 -2.41549,-6.20432 -0.3397,-1.56251 -0.33046,-5.8323 0.0162,-7.51316 0.76935,-3.7299 2.39471,-6.7711 5.18046,-9.69314 2.37463,-2.49083 5.22262,-4.24642 8.60306,-5.30322 1.53778,-0.48072 2.24364,-0.56507 5.09775,-0.60909 3.45519,-0.0533 4.74978,0.0741 6.53691,0.64346 2.07471,0.66096 4.45895,1.90595 6.35572,3.31882 0.83789,0.62414 2.65618,2.38784 3.30226,3.20315 2.57266,3.24644 3.90954,6.76599 4.20333,11.06586 0.27344,4.002 -0.68983,7.97161 -2.72503,11.22987 -2.7407,4.38776 -6.79576,7.45486 -11.82547,8.94438 -0.52644,0.1559 -1.30177,0.33763 -1.72294,0.40382 -1.24803,0.19618 -3.7833,0.30216 -5.20709,0.21768 z m 1.70626,-5.69324 c 0.38262,-0.15433 0.75968,-0.51963 0.86959,-0.84248 0.10502,-0.30847 0.35266,-0.64287 1.70391,-2.30091 1.70871,-2.09664 3.15103,-3.68574 4.70892,-5.18814 1.99117,-1.92024 3.31591,-2.97095 5.77412,-4.57966 1.36353,-0.89235 1.46298,-1.00268 1.57466,-1.74702 0.0489,-0.32583 0.0887,-0.6348 0.0885,-0.68662 -3.1e-4,-0.0518 -0.28479,-0.2716 -0.63226,-0.48838 -0.34745,-0.21679 -0.68343,-0.45458 -0.7466,-0.52843 -0.33821,-0.39535 -1.02081,-0.48003 -2.64184,-0.32774 -0.68762,0.0646 -5.46333,0.21753 -5.53356,0.1772 -0.10604,-0.0608 -0.39811,-6.6021 -0.40004,-8.95931 -9e-4,-1.3222 -0.1046,-2.31945 -0.27358,-2.63545 -0.2478,-0.46338 -0.83628,-0.80157 -1.39964,-0.80432 -0.38081,-0.002 -3.74661,0.45015 -4.9264,0.6616 -1.41212,0.25308 -2.89287,0.58694 -3.1726,0.71531 -0.35974,0.16508 -1.14705,1.05594 -1.26249,1.42854 -0.0787,0.25442 -0.0535,0.52223 0.18773,1.98323 0.15336,0.929 0.46623,2.92203 0.69526,4.42895 0.22903,1.50693 0.44071,2.88488 0.47039,3.06212 0.0648,0.38683 -0.008,0.45248 -0.50412,0.45422 -0.36821,8.8e-4 -2.40245,0.24257 -3.17263,0.37629 -1.92842,0.33481 -3.48781,0.85559 -4.13808,1.38196 -0.50936,0.41231 -0.71863,0.94473 -0.55348,1.40826 0.0565,0.1584 0.0879,0.40955 0.0699,0.55814 -0.0554,0.45837 0.20668,0.84939 0.99918,1.49103 1.02724,0.83171 2.3077,2.06846 5.67949,5.48564 3.35832,3.40351 3.81321,3.89604 4.17675,4.52241 0.33439,0.57614 0.51218,0.76319 0.88239,0.92842 0.37983,0.16953 1.08862,0.18159 1.47653,0.0252 z"
       id="path3713"
       inkscape:connector-curvature="0"
       inkscape:export-filename="/home/sade/Desktop/screw-comps/images/troops/sql_injection.png"
       inkscape:export-xdpi="90"
       inkscape:export-ydpi="90" />
    <path
       style="fill:#87aade;fill-opacity:1"
       d="m 373.50439,551.64796 c -2.59676,-0.24221 -5.71094,-1.37483 -8.27509,-3.00964 -1.93182,-1.23166 -4.02123,-3.21204 -5.51044,-5.22287 -1.62317,-2.1917 -2.92719,-5.24939 -3.43799,-8.06146 -0.29449,-1.62123 -0.22909,-5.58369 0.11931,-7.22932 0.18351,-0.86678 0.71192,-2.61447 1.01851,-3.36866 0.90877,-2.23555 2.50637,-4.55921 4.48188,-6.51879 2.35738,-2.33839 4.83216,-3.85377 7.94904,-4.86748 1.84916,-0.6014 2.99614,-0.74207 6.04517,-0.74144 3.51682,7.3e-4 4.96473,0.22561 7.11527,1.10513 2.77661,1.13556 4.77558,2.42035 6.80234,4.37203 1.35147,1.30142 1.94175,1.99868 2.77743,3.28086 2.75984,4.23438 3.75523,9.66606 2.71194,14.7986 -0.99811,4.91019 -4.16072,9.44408 -8.59338,12.31934 -2.16085,1.40166 -5.09621,2.60223 -7.22363,2.9545 -1.44117,0.23863 -4.43494,0.33334 -5.98036,0.1892 z"
       id="path3004"
       inkscape:connector-curvature="0"
       inkscape:export-filename="/home/sade/Desktop/screw-comps/images/troops/sql_injection.png"
       inkscape:export-xdpi="90"
       inkscape:export-ydpi="90" />
    <path
       style="fill:#000000"
       id="path4025"
       d="m 369.61969,515.54718 c -0.0909,0.015 -0.1819,0.0299 -0.27285,0.0449 -0.0105,0.0202 -0.009,0.0527 -0.0314,0.0607 -0.13513,0.0477 -0.28229,0.0573 -0.41977,0.0985 -0.49659,0.14873 -0.85533,0.4392 -1.25506,0.74512 -0.14748,0.14361 -0.31298,0.27225 -0.44245,0.43085 -0.27563,0.33766 -0.58949,0.97389 -0.75361,1.3372 -0.63488,1.40545 -1.06396,2.88092 -1.52201,4.34393 -1.29352,4.92266 -1.97792,9.99283 -2.04764,15.06799 -0.0152,1.10517 0.0372,2.21024 0.0557,3.31535 0.28748,2.54904 0.62797,5.30603 2.90741,7.02795 1.36362,1.03008 3.17499,1.44673 4.85349,1.61904 0.98434,0.10105 1.97978,0.0323 2.96967,0.0485 2.83199,-0.36025 5.679,-0.69022 8.45388,-1.3624 1.38972,-0.33665 3.23999,-0.88345 4.51873,-1.58451 0.52841,-0.28971 0.97615,-0.69617 1.46422,-1.04425 0.7863,-0.93945 1.28566,-1.24949 1.43086,-2.49246 0.12883,-1.10285 -0.31999,-2.82633 -0.55698,-3.81947 -0.21466,-0.89954 -0.46031,-1.79212 -0.69047,-2.68818 -0.25698,-1.08907 -0.51396,-2.17815 -0.77094,-3.26723 -0.9131,-3.77043 -1.72908,-7.5667 -2.81603,-11.29718 -0.50202,-1.72301 -1.14732,-4.01777 -2.18455,-5.5965 -0.36216,-0.55122 -0.90681,-0.97216 -1.36022,-1.45823 -0.50626,-0.17624 -0.9835,-0.46843 -1.51874,-0.5287 -1.33855,-0.15072 -2.09469,0.23871 -3.28187,0.63325 -0.74391,0.24722 -1.48544,0.50115 -2.23304,0.73802 -2.23779,0.70897 -1.93667,0.60051 -4.07829,1.13292 -1.585,0.24277 -0.93646,0.31696 -1.95746,0.0868 -0.0692,0.0447 -0.73255,-0.88884 -0.66328,-0.93352 l 0,0 c 0.52549,-0.83604 0.13025,-0.39752 1.44157,-1.05854 3.57518,-1.51438 8.10104,-3.47842 12.08028,-2.58711 0.8261,0.18506 1.57731,0.59717 2.36596,0.89573 0.70707,0.5974 1.50938,1.1059 2.1212,1.79213 1.58406,1.77673 2.52826,3.86054 3.29068,6.05108 1.31434,3.77627 1.83941,7.74413 2.34456,11.67326 0.2105,2.04791 0.47425,4.09121 0.64363,6.14259 0.17708,2.14451 0.33267,4.45184 -0.66053,6.46555 -0.29155,0.59112 -0.74649,1.09565 -1.11974,1.64348 -0.5407,0.50006 -1.03129,1.05458 -1.62212,1.50018 -2.97314,2.24227 -7.54547,3.47304 -11.25521,3.83094 -1.4638,0.14122 -2.93968,0.124 -4.40954,0.18602 -2.83087,-0.30638 -4.02699,-0.19698 -6.62571,-1.41278 -3.09813,-1.44943 -5.0484,-3.82781 -6.0629,-6.94109 -0.35063,-1.07599 -0.46016,-2.21027 -0.69024,-3.31541 -0.0466,-1.18208 -0.15365,-2.36338 -0.13971,-3.54621 0.0634,-5.37672 1.18659,-10.72029 3.47919,-15.63725 0.74947,-1.45931 1.50135,-2.88815 2.41552,-4.2609 0.25747,-0.3866 0.78569,-1.14873 1.12091,-1.50652 0.16798,-0.17929 0.36955,-0.32722 0.55433,-0.49084 0.70058,-0.5091 1.3441,-0.89492 2.24156,-0.94618 0.70182,-0.0401 0.4685,-0.0634 0.91708,0.0174 0.0629,0.0154 -0.16525,0.86166 -0.22805,0.8463 z"
       inkscape:connector-curvature="0"
       inkscape:export-filename="/home/sade/Desktop/screw-comps/images/troops/sql_injection.png"
       inkscape:export-xdpi="90"
       inkscape:export-ydpi="90" />
    <path
       sodipodi:type="arc"
       style="fill:#000000"
       id="path4039"
       sodipodi:cx="370"
       sodipodi:cy="392.36218"
       sodipodi:rx="15.714286"
       sodipodi:ry="17.142857"
       d="m 385.71429,392.36218 a 15.714286,17.142857 0 1 1 -0.17579,-2.557"
       sodipodi:start="0"
       sodipodi:end="6.1334682"
       sodipodi:open="true"
       transform="matrix(0.0941045,0,0,0.08966836,344.32975,486.85884)"
       inkscape:export-filename="/home/sade/Desktop/screw-comps/images/troops/sql_injection.png"
       inkscape:export-xdpi="90"
       inkscape:export-ydpi="90" />
    <path
       sodipodi:type="arc"
       style="fill:#000000"
       id="path4049"
       sodipodi:cx="264.28571"
       sodipodi:cy="615.2193"
       sodipodi:rx="12.857142"
       sodipodi:ry="14.285714"
       d="m 277.14285,615.2193 a 12.857142,14.285714 0 1 1 -0.14383,-2.13084"
       sodipodi:start="0"
       sodipodi:end="6.1334682"
       sodipodi:open="true"
       transform="matrix(0.0941045,0,0,0.08966836,344.32975,486.85884)"
       inkscape:export-filename="/home/sade/Desktop/screw-comps/images/troops/sql_injection.png"
       inkscape:export-xdpi="90"
       inkscape:export-ydpi="90" />
    <path
       sodipodi:type="arc"
       style="fill:#000000"
       id="path4051"
       sodipodi:cx="335.71429"
       sodipodi:cy="546.64789"
       sodipodi:rx="12.857142"
       sodipodi:ry="14.285714"
       d="m 348.57144,546.64789 a 12.857142,14.285714 0 1 1 -0.14383,-2.13084"
       sodipodi:start="0"
       sodipodi:end="6.1334682"
       sodipodi:open="true"
       transform="matrix(0.0941045,0,0,0.08966836,344.32975,486.85884)"
       inkscape:export-filename="/home/sade/Desktop/screw-comps/images/troops/sql_injection.png"
       inkscape:export-xdpi="90"
       inkscape:export-ydpi="90" />
    <path
       sodipodi:type="arc"
       style="fill:#000000"
       id="path4053"
       sodipodi:cx="404.28571"
       sodipodi:cy="610.93359"
       sodipodi:rx="10"
       sodipodi:ry="10"
       d="m 414.28571,610.93359 a 10,10 0 1 1 -0.11187,-1.49158"
       sodipodi:start="0"
       sodipodi:end="6.1334682"
       sodipodi:open="true"
       transform="matrix(0.0941045,0,0,0.08966836,344.32975,486.85884)"
       inkscape:export-filename="/home/sade/Desktop/screw-comps/images/troops/sql_injection.png"
       inkscape:export-xdpi="90"
       inkscape:export-ydpi="90" />
    <path
       sodipodi:type="arc"
       style="fill:#000000"
       id="path4055"
       sodipodi:cx="408.57144"
       sodipodi:cy="509.50504"
       sodipodi:rx="11.428572"
       sodipodi:ry="11.428572"
       d="m 420.00001,509.50504 a 11.428572,11.428572 0 1 1 -0.12784,-1.70467"
       sodipodi:start="0"
       sodipodi:end="6.1334682"
       sodipodi:open="true"
       transform="matrix(0.0941045,0,0,0.08966836,344.32975,486.85884)"
       inkscape:export-filename="/home/sade/Desktop/screw-comps/images/troops/sql_injection.png"
       inkscape:export-xdpi="90"
       inkscape:export-ydpi="90" />
    <path
       sodipodi:type="arc"
       style="fill:#000000"
       id="path4059"
       sodipodi:cx="312.85715"
       sodipodi:cy="659.50507"
       sodipodi:rx="4.2857141"
       sodipodi:ry="7.1428571"
       d="m 317.14286,659.50507 a 4.2857141,7.1428571 0 1 1 -0.0479,-1.06542"
       sodipodi:start="0"
       sodipodi:end="6.1334682"
       sodipodi:open="true"
       transform="matrix(0.0941045,0,0,0.08966836,344.32975,486.85884)"
       inkscape:export-filename="/home/sade/Desktop/screw-comps/images/troops/sql_injection.png"
       inkscape:export-xdpi="90"
       inkscape:export-ydpi="90" />
    <path
       sodipodi:type="arc"
       style="fill:#000000"
       id="path4061"
       sodipodi:cx="401.42856"
       sodipodi:cy="650.93359"
       sodipodi:rx="7.1428571"
       sodipodi:ry="7.1428571"
       d="m 408.57142,650.93359 a 7.1428571,7.1428571 0 1 1 -0.0799,-1.06541"
       sodipodi:start="0"
       sodipodi:end="6.1334682"
       sodipodi:open="true"
       transform="matrix(0.0941045,0,0,0.08966836,344.32975,486.85884)"
       inkscape:export-filename="/home/sade/Desktop/screw-comps/images/troops/sql_injection.png"
       inkscape:export-xdpi="90"
       inkscape:export-ydpi="90" />
    <path
       sodipodi:type="arc"
       style="fill:#000000"
       id="path4063"
       sodipodi:cx="347.14285"
       sodipodi:cy="610.93359"
       sodipodi:rx="18.571428"
       sodipodi:ry="21.428572"
       d="m 365.71428,610.93359 a 18.571428,21.428572 0 1 1 -0.20775,-3.19625"
       sodipodi:start="0"
       sodipodi:end="6.1334682"
       sodipodi:open="true"
       transform="matrix(0.0941045,0,0,0.08966836,344.32975,486.85884)"
       inkscape:export-filename="/home/sade/Desktop/screw-comps/images/troops/sql_injection.png"
       inkscape:export-xdpi="90"
       inkscape:export-ydpi="90" />
    <path
       sodipodi:type="arc"
       style="fill:#000000"
       id="path4065"
       sodipodi:cx="435.71429"
       sodipodi:cy="562.36218"
       sodipodi:rx="7.1428571"
       sodipodi:ry="7.1428571"
       d="m 442.85715,562.36218 a 7.1428571,7.1428571 0 1 1 -0.0799,-1.06541"
       sodipodi:start="0"
       sodipodi:end="6.1334682"
       sodipodi:open="true"
       transform="matrix(0.0941045,0,0,0.08966836,344.32975,486.85884)"
       inkscape:export-filename="/home/sade/Desktop/screw-comps/images/troops/sql_injection.png"
       inkscape:export-xdpi="90"
       inkscape:export-ydpi="90" />
    <path
       sodipodi:type="arc"
       style="fill:#000000"
       id="path4067"
       sodipodi:cx="392.85715"
       sodipodi:cy="553.79077"
       sodipodi:rx="10"
       sodipodi:ry="10"
       d="m 402.85715,553.79077 a 10,10 0 1 1 -0.11187,-1.49158"
       sodipodi:start="0"
       sodipodi:end="6.1334682"
       sodipodi:open="true"
       transform="matrix(0.0941045,0,0,0.08966836,344.32975,486.85884)"
       inkscape:export-filename="/home/sade/Desktop/screw-comps/images/troops/sql_injection.png"
       inkscape:export-xdpi="90"
       inkscape:export-ydpi="90" />
    <path
       sodipodi:type="arc"
       style="fill:#000000"
       id="path4069"
       sodipodi:cx="291.42856"
       sodipodi:cy="453.79074"
       sodipodi:rx="42.857143"
       sodipodi:ry="47.142857"
       d="m 334.2857,453.79074 a 42.857143,47.142857 0 1 1 -0.47943,-7.03175"
       sodipodi:start="0"
       sodipodi:end="6.1334682"
       sodipodi:open="true"
       transform="matrix(0.0941045,0,0,0.08966836,344.59863,486.09026)"
       inkscape:export-filename="/home/sade/Desktop/screw-comps/images/troops/sql_injection.png"
       inkscape:export-xdpi="90"
       inkscape:export-ydpi="90" />
    <path
       sodipodi:type="arc"
       style="fill:#ffffff"
       id="path4071"
       sodipodi:cx="300"
       sodipodi:cy="435.21933"
       sodipodi:rx="11.428572"
       sodipodi:ry="11.428572"
       d="m 311.42857,435.21933 a 11.428572,11.428572 0 1 1 -0.12785,-1.70467"
       sodipodi:start="0"
       sodipodi:end="6.1334682"
       sodipodi:open="true"
       transform="matrix(0.0941045,0,0,0.08966836,343.79201,488.13982)"
       inkscape:export-filename="/home/sade/Desktop/screw-comps/images/troops/sql_injection.png"
       inkscape:export-xdpi="90"
       inkscape:export-ydpi="90" />
    <path
       style="fill:#dedbe3;fill-opacity:1"
       d="m 391.63375,543.86327 c 0.14489,-0.36513 0.23867,-1.83634 0.19211,-3.01349 -0.14067,-3.55632 -1.16894,-11.75977 -1.9096,-15.2346 -1.0156,-4.76475 -2.65563,-8.48004 -4.64229,-10.51657 -0.28304,-0.29015 -0.48659,-0.52754 -0.45232,-0.52754 0.20321,0 1.92234,1.03384 3.01231,1.81151 1.03881,0.74118 3.12371,2.76839 3.91567,3.80731 2.59507,3.40433 3.96166,7.52725 3.96166,11.95215 0,4.00501 -1.1111,7.6142 -3.34084,10.85207 -0.57057,0.82852 -0.85263,1.1613 -0.7367,0.86916 z"
       id="path3085"
       inkscape:connector-curvature="0"
       inkscape:export-filename="/home/sade/Desktop/screw-comps/images/troops/sql_injection.png"
       inkscape:export-xdpi="90"
       inkscape:export-ydpi="90" />
    <path
       style="fill:#dedbe3;fill-opacity:1"
       d="m 359.12964,542.57546 c -1.30403,-2.00585 -2.44261,-4.8806 -2.86977,-7.24577 -0.16975,-0.93989 -0.19425,-5.07942 -0.0368,-6.21555 0.20159,-1.45457 0.83234,-3.59531 1.47882,-5.01898 1.71437,-3.77544 5.2774,-7.49526 9.06766,-9.46669 1.52654,-0.794 3.80814,-1.58373 5.2259,-1.80885 0.42008,-0.0667 1.46928,-0.13694 2.33155,-0.15608 l 1.56777,-0.0349 -0.68338,0.1804 c -1.35328,0.35721 -3.0399,0.94016 -4.42192,1.52834 -0.65679,0.27954 -0.83698,0.32382 -1.28637,0.31621 -1.08011,-0.0183 -1.8781,0.25843 -2.79472,0.96924 -0.91998,0.7134 -2.05761,2.35219 -3.43604,4.94971 -1.93254,3.64168 -3.24048,7.80958 -3.81363,12.15253 -0.29028,2.19955 -0.35271,3.39032 -0.30575,5.83107 0.0396,2.06168 0.0696,2.46648 0.25815,3.48717 0.1173,0.63512 0.20087,1.16677 0.18568,1.18146 -0.0152,0.0147 -0.2254,-0.27754 -0.46715,-0.64939 l 0,0 z"
       id="path3087"
       inkscape:connector-curvature="0"
       inkscape:export-filename="/home/sade/Desktop/screw-comps/images/troops/sql_injection.png"
       inkscape:export-xdpi="90"
       inkscape:export-ydpi="90" />
    <path
       style="fill:#d7e3f4;fill-opacity:1"
       d="m 372.06003,554.88054 c -2.67113,-0.35709 -6.09591,-1.69589 -8.73514,-3.41472 -1.17092,-0.76257 -2.20561,-1.61023 -3.43421,-2.81348 -3.0918,-3.02796 -4.91527,-6.05685 -6.14132,-10.20108 -0.6626,-2.23969 -0.67779,-2.37612 -0.67564,-6.07183 0.002,-3.06453 0.0172,-3.38981 0.2034,-4.27232 0.80801,-3.83093 2.24557,-6.87258 4.65427,-9.84769 0.92295,-1.13997 3.14895,-3.26345 4.34072,-4.14079 1.8083,-1.3312 3.12951,-2.05338 5.26387,-2.87727 2.72492,-1.05184 3.94231,-1.23761 8.10178,-1.23626 4.63535,10e-4 6.30928,0.36131 9.8432,2.11577 5.77248,2.86581 9.85657,7.63529 11.61648,13.56597 1.48633,5.00874 1.26617,10.60048 -0.59806,15.18972 -1.31841,3.24555 -3.61207,6.41969 -6.26012,8.66322 -2.56159,2.17027 -5.39356,3.72294 -8.55951,4.6929 -1.31649,0.40334 -2.15029,0.57092 -3.43295,0.68997 -1.37409,0.12755 -5.1078,0.10214 -6.18677,-0.0421 l 0,0 z m 2.93691,-2.19741 c 2.26625,-0.10521 3.58123,-0.2605 5.27651,-0.62313 5.40237,-1.15557 9.27941,-3.50616 10.7981,-6.54671 0.95389,-1.90977 0.99115,-3.75439 0.21546,-10.66846 -0.95031,-8.47064 -1.99212,-12.96709 -3.84276,-16.58541 -1.59125,-3.11116 -3.6985,-4.97385 -6.45109,-5.7024 -0.86312,-0.22846 -3.3635,-0.23418 -4.59512,-0.0105 -1.14806,0.20849 -3.23003,0.85259 -4.9066,1.51798 -1.26703,0.50286 -1.47233,0.55782 -2.28359,0.61135 -0.77429,0.0511 -0.98051,0.10195 -1.56953,0.38703 -1.15652,0.55976 -1.93968,1.40498 -3.21103,3.46552 -0.80271,1.301 -2.36428,4.47093 -2.88239,5.85115 -0.98529,2.62477 -1.70341,5.5191 -2.12947,8.58265 -0.181,1.30142 -0.20599,1.86721 -0.20791,4.70667 -0.002,2.71049 0.0246,3.38538 0.16479,4.21359 0.55526,3.2794 1.55523,5.37755 3.44212,7.22225 1.03149,1.00842 1.94254,1.63266 3.339,2.28785 1.3317,0.6248 2.35233,0.90335 4.08304,1.11433 2.4626,0.3002 2.25602,0.29255 4.76047,0.17627 z"
       id="path3114"
       inkscape:connector-curvature="0"
       inkscape:export-filename="/home/sade/Desktop/screw-comps/images/troops/sql_injection.png"
       inkscape:export-xdpi="90"
       inkscape:export-ydpi="90" />
  </g>
</svg>
