<?xml version="1.0" encoding="UTF-8" standalone="no"?>
<!-- Created with Inkscape (http://www.inkscape.org/) -->

<svg
   xmlns:dc="http://purl.org/dc/elements/1.1/"
   xmlns:cc="http://creativecommons.org/ns#"
   xmlns:rdf="http://www.w3.org/1999/02/22-rdf-syntax-ns#"
   xmlns:svg="http://www.w3.org/2000/svg"
   xmlns="http://www.w3.org/2000/svg"
   xmlns:sodipodi="http://sodipodi.sourceforge.net/DTD/sodipodi-0.dtd"
   xmlns:inkscape="http://www.inkscape.org/namespaces/inkscape"
   width="29.000095"
   height="28.999996"
   id="svg2992"
   version="1.1"
   inkscape:version="0.48.3.1 r9886"
   sodipodi:docname="research_factory.svg">
  <defs
     id="defs2994" />
  <sodipodi:namedview
     id="base"
     pagecolor="#ffffff"
     bordercolor="#666666"
     borderopacity="1.0"
     inkscape:pageopacity="0.0"
     inkscape:pageshadow="2"
     inkscape:zoom="10.24"
     inkscape:cx="2.0905727"
     inkscape:cy="18.446945"
     inkscape:document-units="px"
     inkscape:current-layer="layer1"
     showgrid="false"
     fit-margin-top="0"
     fit-margin-left="0"
     fit-margin-right="0"
     fit-margin-bottom="0"
     inkscape:window-width="1311"
     inkscape:window-height="744"
     inkscape:window-x="55"
     inkscape:window-y="24"
     inkscape:window-maximized="1" />
  <metadata
     id="metadata2997">
    <rdf:RDF>
      <cc:Work
         rdf:about="">
        <dc:format>image/svg+xml</dc:format>
        <dc:type
           rdf:resource="http://purl.org/dc/dcmitype/StillImage" />
        <dc:title />
      </cc:Work>
    </rdf:RDF>
  </metadata>
  <g
     inkscape:label="Layer 1"
     inkscape:groupmode="layer"
     id="layer1"
     transform="translate(-73.520292,-516.7781)">
    <path
       style="fill:#000000;fill-opacity:1"
       id="path3169"
       d="m 86.367579,517.3531 c 0.113266,1.02884 0.01343,2.0715 -0.04602,3.10137 -0.08091,1.7227 -0.415003,3.41451 -0.749581,5.10296 -0.02152,0.14211 -0.04304,0.28421 -0.06456,0.42631 0,0 -1.01504,7.5e-4 -1.01504,7.5e-4 l 0,0 c -0.0236,-0.145 -0.04721,-0.29001 -0.07081,-0.43501 -0.08714,-1.71696 0.161913,-3.42676 0.483709,-5.11205 0.204622,-1.03766 0.396787,-2.09145 0.776789,-3.08428 0,0 0.685519,0 0.685519,0 z"
       inkscape:connector-curvature="0" />
    <path
       style="fill:#000000;fill-opacity:1"
       id="path3169-3"
       d="m 90.75354,517.64313 c -0.599767,0.28934 -1.229773,0.37641 -1.848004,0.50003 -1.03222,0.22458 -2.07225,0.20055 -3.11034,0.17546 -0.08668,0.004 -0.173362,0.009 -0.260041,0.0128 0,0 -0.105338,-0.97487 -0.105338,-0.97487 l 0,0 c 0.08374,-0.0481 0.167483,-0.0962 0.251225,-0.14435 1.011436,-0.385 2.053371,-0.44581 3.088258,-0.43244 0.637862,0.0145 1.284025,0.0141 1.91338,0.2049 0,0 0.07086,0.65847 0.07086,0.65847 z"
       inkscape:connector-curvature="0"
       inkscape:transform-center-x="2.661862"
       inkscape:transform-center-y="0.77809061" />
    <path
       style="fill:#000000;fill-opacity:1"
       id="path3169-1"
       d="m 90.414663,516.90615 c 0.411746,0.95359 0.623465,1.98022 0.870094,2.98326 0.430303,1.67262 0.609003,3.3867 0.786256,5.09771 0.02128,0.14214 0.04255,0.28427 0.06383,0.42641 0,0 -0.971948,0.2855 -0.971948,0.2855 l 0,0 c -0.06535,-0.13225 -0.130698,-0.26451 -0.196048,-0.39676 -0.589553,-1.61997 -0.85501,-3.32742 -1.043571,-5.03181 -0.109886,-1.05123 -0.236458,-2.11442 -0.165162,-3.17194 0,0 0.656555,-0.19236 0.656555,-0.19236 z"
       inkscape:connector-curvature="0" />
    <path
       style="fill:#000000;fill-opacity:1"
       id="path3169-2"
       d="m 76.528732,524.37509 c 0.764623,0.55968 1.414476,1.27445 2.079173,1.95352 1.122664,1.12316 2.076844,2.40127 3.02847,3.67764 0.08396,0.10285 0.167914,0.20571 0.25187,0.30857 0,0 -0.590866,0.69837 -0.590866,0.69837 l 0,0 c -0.112218,-0.0736 -0.224435,-0.14726 -0.336653,-0.22089 -1.216662,-1.00405 -2.232608,-2.23484 -3.189531,-3.50045 -0.585408,-0.78372 -1.189028,-1.56886 -1.641831,-2.4454 0,0 0.399373,-0.47135 0.399373,-0.47135 z"
       inkscape:connector-curvature="0" />
    <path
       style="fill:#000000;fill-opacity:1"
       id="path3169-3-4"
       d="m 79.280884,521.53908 c -0.152941,0.5917 -0.460851,1.07884 -0.737083,1.58053 -0.448851,0.84892 -1.071081,1.54913 -1.692892,2.24737 -0.0476,0.0622 -0.09521,0.12448 -0.142809,0.18673 0,0 -0.723351,-0.53168 -0.723351,-0.53168 l 0,0 c 0.01611,-0.0874 0.03223,-0.1748 0.04834,-0.2622 0.32782,-0.93402 0.893545,-1.68813 1.505531,-2.39143 0.381429,-0.42962 0.757647,-0.87412 1.253853,-1.18864 0,0 0.488413,0.35933 0.488413,0.35933 z"
       inkscape:connector-curvature="0"
       inkscape:transform-center-x="1.0606666"
       inkscape:transform-center-y="2.363699" />
    <path
       style="fill:#000000;fill-opacity:1"
       id="path3169-1-8"
       d="m 78.583013,521.3154 c 0.887414,0.30781 1.707886,0.79842 2.532684,1.25041 1.38648,0.74063 2.654533,1.67994 3.919658,2.61835 0.108913,0.0735 0.217827,0.14691 0.32674,0.22036 0,0 -0.372375,0.84522 -0.372375,0.84522 l 0,0 c -0.127879,-0.037 -0.255759,-0.074 -0.383638,-0.11107 -1.443503,-0.5985 -2.757599,-1.47405 -4.024816,-2.40059 -0.777856,-0.57587 -1.573552,-1.14768 -2.250127,-1.85204 0,0 0.25188,-0.57064 0.25188,-0.57064 z"
       inkscape:connector-curvature="0" />
    <path
       style="fill:#000000;fill-opacity:1"
       id="path3169-2-0"
       d="m 98.414674,521.8319 c -0.668844,0.67905 -1.46387,1.21288 -2.227759,1.76832 -1.26766,0.94245 -2.651641,1.68486 -4.033507,2.42499 -0.112676,0.0671 -0.22535,0.13412 -0.338025,0.20119 0,0 -0.55479,-0.72955 -0.55479,-0.72955 l 0,0 c 0.0901,-0.1012 0.18019,-0.2024 0.270285,-0.3036 1.171816,-1.05995 2.522138,-1.87398 3.894775,-2.62146 0.848691,-0.45557 1.702037,-0.92946 2.614672,-1.23287 0,0 0.374343,0.49298 0.374343,0.49298 z"
       inkscape:connector-curvature="0" />
    <path
       style="fill:#000000;fill-opacity:1"
       id="path3169-3-4-7"
       d="m 100.60374,525.1545 c -0.53301,-0.26326 -0.938871,-0.66575 -1.364264,-1.03854 -0.723172,-0.61187 -1.274034,-1.37376 -1.82309,-2.13486 -0.05036,-0.0599 -0.100725,-0.11972 -0.151088,-0.17958 0,0 0.634838,-0.642 0.634838,-0.642 l 0,0 c 0.0799,0.0323 0.159806,0.0645 0.239709,0.0968 0.825744,0.50374 1.437905,1.21772 1.993535,1.96972 0.33805,0.46711 0.69114,0.9316 0.89932,1.49501 0,0 -0.42896,0.43343 -0.42896,0.43343 z"
       inkscape:connector-curvature="0"
       inkscape:transform-center-x="2.0690993"
       inkscape:transform-center-y="-1.4950382" />
    <path
       style="fill:#000000;fill-opacity:1"
       id="path3169-1-8-1"
       d="m 100.9421,524.48273 c -0.45241,0.84999 -1.065912,1.59856 -1.643605,2.35853 -0.952937,1.28099 -2.072711,2.40511 -3.191096,3.52642 -0.08933,0.0979 -0.178659,0.19572 -0.267989,0.29358 0,0 -0.733521,-0.53314 -0.733521,-0.53314 l 0,0 c 0.05824,-0.12381 0.116488,-0.24763 0.174731,-0.37145 0.828579,-1.36492 1.896271,-2.54759 3.003779,-3.67318 0.686589,-0.68963 1.372559,-1.3982 2.162561,-1.96119 0,0 0.49514,0.36043 0.49514,0.36043 z"
       inkscape:connector-curvature="0" />
    <path
       style="fill:#000000;fill-opacity:1"
       id="path3169-2-0-8"
       d="m 102.19419,533.86811 c -0.90953,-0.22792 -1.76743,-0.6439 -2.626458,-1.02101 -1.442439,-0.61484 -2.78326,-1.43816 -4.121087,-2.26083 -0.114569,-0.0635 -0.229135,-0.12703 -0.343704,-0.19055 0,0 0.30135,-0.87517 0.30135,-0.87517 l 0,0 c 0.130463,0.0255 0.260926,0.0511 0.391388,0.0766 1.487538,0.46818 2.868978,1.22388 4.207911,2.03453 0.82247,0.50471 1.66237,1.0038 2.39452,1.64552 0,0 -0.20393,0.59091 -0.20393,0.59091 z"
       inkscape:connector-curvature="0" />
    <path
       style="fill:#000000;fill-opacity:1"
       id="path3169-3-4-7-1"
       d="m 100.64255,537.00731 c -0.0679,-0.53762 0.0454,-1.04172 0.12409,-1.54707 0.11587,-0.84884 0.44572,-1.63412 0.77589,-2.41763 0.0221,-0.0672 0.0443,-0.1344 0.0665,-0.2016 0,0 0.86123,0.19229 0.86123,0.19229 l 0,0 c 0.0161,0.0772 0.0321,0.15445 0.0482,0.23167 0.0269,0.87785 -0.23133,1.6883 -0.55057,2.47265 -0.20206,0.48171 -0.39399,0.97386 -0.74362,1.3998 0,0 -0.58162,-0.13011 -0.58162,-0.13011 z"
       inkscape:connector-curvature="0"
       inkscape:transform-center-x="-0.19211944"
       inkscape:transform-center-y="-2.2599088" />
    <path
       style="fill:#000000;fill-opacity:1"
       id="path3169-1-8-1-0"
       d="m 101.36853,537.12631 c -0.99981,0.23457 -2.002469,0.27414 -2.994758,0.34937 -1.660756,0.14297 -3.279181,0.0483 -4.894348,-0.0473 -0.13626,-0.002 -0.272524,-0.004 -0.408785,-0.006 0,0 0.04933,-0.9371 0.04933,-0.9371 l 0,0 c 0.141287,-0.0401 0.282577,-0.0802 0.423866,-0.12034 1.663482,-0.2974 3.303489,-0.28349 4.916225,-0.19931 0.99266,0.0578 2.00152,0.10209 2.94224,0.3275 0,0 -0.0338,0.63294 -0.0338,0.63294 z"
       inkscape:connector-curvature="0" />
    <path
       style="fill:#000000;fill-opacity:1"
       id="path3169-2-0-8-4"
       d="m 93.970912,544.35497 c -0.352128,-0.83791 -0.526943,-1.73746 -0.732831,-2.61678 -0.360122,-1.46652 -0.497802,-2.96651 -0.634245,-4.4638 -0.01711,-0.12446 -0.03422,-0.24891 -0.05134,-0.37337 0,0 0.860753,-0.23884 0.860753,-0.23884 l 0,0 c 0.05611,0.11631 0.11222,0.23261 0.168328,0.34891 0.501221,1.42225 0.715515,2.9174 0.86201,4.40903 0.08469,0.91994 0.183974,1.8505 0.108759,2.77395 0,0 -0.581438,0.1609 -0.581438,0.1609 z"
       inkscape:connector-curvature="0" />
    <path
       style="fill:#000000;fill-opacity:1"
       id="path3169-3-4-7-1-2"
       d="m 90.178674,545.19861 c 0.436697,-0.41218 0.949381,-0.6495 1.442981,-0.91683 0.819607,-0.46274 1.707714,-0.70316 2.594437,-0.94213 0.07246,-0.0257 0.144919,-0.0514 0.217375,-0.0771 0,0 0.331969,0.85297 0.331969,0.85297 l 0,0 c -0.05905,0.0645 -0.118106,0.12902 -0.177154,0.19354 -0.762056,0.60223 -1.630664,0.91967 -2.511755,1.16841 -0.544616,0.1477 -1.092589,0.31084 -1.673872,0.29732 0,0 -0.223979,-0.5762 -0.223979,-0.5762 z"
       inkscape:connector-curvature="0"
       inkscape:transform-center-x="-2.0780938"
       inkscape:transform-center-y="-1.4599641" />
    <path
       style="fill:#000000;fill-opacity:1"
       id="path3169-1-8-1-0-8"
       d="m 90.649518,545.7781 c -0.58656,-0.75655 -1.021638,-1.6294 -1.480458,-2.47217 -0.781251,-1.40058 -1.359416,-2.90196 -1.93559,-4.40093 -0.05342,-0.12287 -0.106842,-0.24575 -0.160262,-0.36862 0,0 0.753326,-0.50251 0.753326,-0.50251 l 0,0 c 0.08834,0.10285 0.176686,0.2057 0.265029,0.30855 0.903216,1.31293 1.553318,2.78647 2.137436,4.27662 0.354832,0.92071 0.726791,1.84801 0.929515,2.82006 0,0 -0.509,0.33899 -0.509,0.33899 z"
       inkscape:connector-curvature="0" />
    <path
       style="fill:#000000;fill-opacity:1"
       id="path3169-2-0-8-4-3"
       d="m 81.768955,545.13479 c 0.481981,-0.93037 1.141917,-1.75331 1.762469,-2.58803 1.023208,-1.40663 2.231522,-2.64577 3.438358,-3.88181 0.09627,-0.10774 0.192531,-0.21547 0.288796,-0.32321 0,0 0.811399,0.56653 0.811399,0.56653 l 0,0 c -0.06183,0.1354 -0.123652,0.27079 -0.185477,0.40618 -0.885746,1.49569 -2.036126,2.7975 -3.230985,4.03802 -0.740878,0.76017 -1.480768,1.54091 -2.336835,2.16532 0,0 -0.547723,-0.38301 -0.547723,-0.38301 z"
       inkscape:connector-curvature="0" />
    <path
       style="fill:#000000;fill-opacity:1"
       id="path3169-3-4-7-1-2-8"
       d="m 78.715786,542.68294 c 0.584709,0.084 1.08869,0.34067 1.602652,0.56285 0.867377,0.35685 1.614102,0.91069 2.358877,1.46435 0.06542,0.0413 0.13084,0.0826 0.196262,0.12389 0,0 -0.418557,0.81089 -0.418557,0.81089 l 0,0 c -0.08556,-0.006 -0.171124,-0.0115 -0.256685,-0.0172 -0.933728,-0.22165 -1.724963,-0.71061 -2.473359,-1.25353 -0.458117,-0.33946 -0.929811,-0.67171 -1.292113,-1.14365 0,0 0.282926,-0.54757 0.282926,-0.54757 z"
       inkscape:connector-curvature="0"
       inkscape:transform-center-x="-2.3770427"
       inkscape:transform-center-y="0.80955035" />
    <path
       style="fill:#000000;fill-opacity:1"
       id="path3169-1-8-1-0-8-1"
       d="m 78.588542,543.42937 c 0.184151,-0.95206 0.551383,-1.85787 0.881154,-2.76334 0.53602,-1.51971 1.276709,-2.94213 2.016894,-4.36143 0.05671,-0.12127 0.113419,-0.24255 0.170127,-0.36382 0,0 0.854349,0.27855 0.854349,0.27855 l 0,0 c -0.01952,0.13628 -0.03905,0.27257 -0.05857,0.40885 -0.393052,1.56079 -1.067064,3.02271 -1.795633,4.44269 -0.454046,0.87251 -0.901993,1.76288 -1.491451,2.54704 0,0 -0.576865,-0.18855 -0.576865,-0.18855 z"
       inkscape:connector-curvature="0" />
    <path
       style="fill:#000000;fill-opacity:1"
       id="path3169-2-0-8-4-5"
       d="m 74.412221,536.37881 c 0.908117,-0.23391 1.854154,-0.27627 2.783891,-0.35363 1.552985,-0.14623 3.10864,-0.0588 4.661354,0.0294 0.129881,10e-4 0.259763,0.003 0.389647,0.004 0,0 0.122291,0.92068 0.122291,0.92068 l 0,0 c -0.127075,0.0399 -0.25415,0.0798 -0.381225,0.11969 -1.527698,0.29793 -3.089281,0.28999 -4.637624,0.21293 -0.954112,-0.0533 -1.921181,-0.0933 -2.856166,-0.31144 0,0 -0.08216,-0.62185 -0.08216,-0.62185 z"
       inkscape:connector-curvature="0" />
    <path
       style="fill:#000000;fill-opacity:1"
       id="path3169-3-4-7-1-2-9"
       d="m 74.146379,532.36324 c 0.331089,0.50717 0.484598,1.06756 0.669437,1.61262 0.324912,0.90771 0.428031,1.85421 0.529974,2.79908 0.01421,0.0781 0.02842,0.15617 0.04263,0.23426 0,0 -0.860713,0.21983 -0.860713,0.21983 l 0,0 c -0.05315,-0.0698 -0.106284,-0.13966 -0.15943,-0.20948 -0.466121,-0.86842 -0.645478,-1.80583 -0.75754,-2.7463 -0.0635,-0.58046 -0.14124,-1.16656 -0.04575,-1.76179 0,0 0.581399,-0.14822 0.581399,-0.14822 z"
       inkscape:connector-curvature="0"
       inkscape:transform-center-x="-1.0829199"
       inkscape:transform-center-y="2.3226181" />
    <path
       style="fill:#000000;fill-opacity:1"
       id="path3169-1-8-1-0-8-2"
       d="m 73.526769,532.76459 c 0.804929,-0.49507 1.69926,-0.818 2.568279,-1.1696 1.446852,-0.60357 2.960998,-0.98419 4.47257,-1.36311 0.124783,-0.0374 0.249569,-0.0748 0.374354,-0.11226 0,0 0.372256,0.84528 0.372256,0.84528 l 0,0 c -0.110647,0.0761 -0.221297,0.15228 -0.331947,0.22842 -1.380593,0.74132 -2.878405,1.19979 -4.382689,1.58813 -0.928579,0.23369 -1.86587,0.48405 -2.821803,0.55419 0,0 -0.251014,-0.57105 -0.251014,-0.57105 z"
       inkscape:connector-curvature="0" />
    <path
       style="fill:#000000;fill-opacity:1"
       id="path3398"
       d="m 84.654979,528.64014 c -0.165915,-0.47618 0.176603,-0.84863 0.475568,-1.14038 0.483963,-0.3916 1.0666,-0.62858 1.674936,-0.62522 2.271801,0.0125 1.619174,-0.119 2.988589,0.29867 0.24044,0.11299 0.489005,0.20715 0.72132,0.33897 0.859255,0.48757 1.761214,1.2816 2.299618,2.17137 0.116609,0.19271 0.200994,0.40662 0.301491,0.60993 0.352983,0.95043 0.331182,1.954 -0.182956,2.83218 -0.101104,0.17269 -0.230196,0.32367 -0.345293,0.48551 -0.862227,0.96556 -2.032287,1.49437 -3.239326,1.70402 -0.287339,0.0499 -0.579032,0.0627 -0.868547,0.0941 -1.635481,0.01 -3.602616,0.31558 -4.948518,-0.99614 -0.410501,-0.40007 -0.491133,-0.62925 -0.769009,-1.13188 -0.396847,-1.12494 -0.330407,-2.16705 0.180275,-3.23798 0.10062,-0.21101 0.227746,-0.40553 0.341619,-0.60829 0.703551,-1.00096 1.62393,-1.81323 2.734192,-2.20064 0.230199,-0.0803 0.46936,-0.12574 0.704039,-0.18861 0,0 1.814288,0.26978 1.814288,0.26978 l 0,0 c -0.236729,0.0535 -0.477231,0.0898 -0.710186,0.16038 -1.131778,0.34298 -2.079954,1.08718 -2.824076,2.06996 -0.127166,0.19299 -0.267226,0.37654 -0.3815,0.57898 -0.413697,0.73287 -0.636015,1.60262 -0.405696,2.45339 0.05601,0.20688 0.158266,0.39523 0.2374,0.59284 0.126554,0.18444 0.235254,0.38535 0.379663,0.55332 0.523489,0.6089 1.204682,0.96207 1.938368,1.15598 0.275961,0.0729 1.087322,0.001 0.839953,0.15401 -0.336732,0.20767 -0.772431,0.0284 -1.158645,0.0425 0.289449,-0.023 0.580376,-0.0297 0.868346,-0.0691 1.079378,-0.14783 2.202148,-0.49371 3.143464,-1.10587 0.187643,-0.12203 0.355465,-0.27738 0.533197,-0.41607 0.269556,-0.3027 0.525545,-0.53629 0.693717,-0.92692 0.316811,-0.73591 0.07603,-1.50851 -0.280213,-2.15823 -0.131942,-0.19104 -0.251406,-0.39324 -0.395824,-0.57313 -0.601305,-0.74899 -1.551607,-1.60726 -2.35251,-2.07981 -0.208534,-0.12303 -0.43136,-0.21448 -0.64704,-0.32172 -1.061987,-0.34738 -0.65673,-0.12615 0.381951,-0.2875 0.203725,-0.0316 -0.412209,7.5e-4 -0.616915,0.0236 -0.34915,0.0389 -0.698076,0.13323 -1.025713,0.2705 -0.131719,0.0552 -0.255736,0.1303 -0.383604,0.19546 -0.36125,0.23931 -0.791812,0.49001 -0.885052,0.98277 0,0 -0.831371,0.0293 -0.831371,0.0293 z"
       inkscape:connector-curvature="0" />
    <path
       style="fill:#808080;fill-opacity:1"
       d="m 90.826889,543.93922 c 0,-0.95175 -2.539287,-5.92296 -3.025438,-5.92296 -0.50241,0 -3.954361,3.56371 -5.044328,5.20765 -0.557087,0.84022 -0.598802,0.84553 -1.662991,0.21167 l -1.091571,-0.65016 0.869615,-1.79684 c 0.478289,-0.98826 1.106527,-2.4937 1.396085,-3.34543 0.663318,-1.95113 0.530769,-2.01793 -3.64911,-1.83874 l -3.112043,0.13342 -0.297461,-1.13369 c -0.357294,-1.36173 -0.219237,-1.70054 0.692936,-1.70054 1.04923,0 5.525614,-1.77116 5.849052,-2.31429 0.329007,-0.55247 -0.599199,-2.02065 -2.750897,-4.3512 l -1.472958,-1.5954 0.75631,-0.98437 0.75631,-0.98436 2.462528,1.71374 c 1.354391,0.94256 2.842528,1.71375 3.306972,1.71375 0.75199,0 0.888401,-0.26198 1.24595,-2.39281 0.220829,-1.31604 0.401507,-3.1016 0.401507,-3.96791 l 0,-1.57511 1.586703,0 1.586701,0 0.233193,2.31544 c 0.321775,3.19498 0.953345,5.1884 1.724285,5.44234 0.402345,0.13253 1.693148,-0.44287 3.386064,-1.5094 l 2.735853,-1.72357 0.850625,0.85524 0.850625,0.85524 -2.310298,2.5807 c -1.270662,1.41939 -2.253801,2.77982 -2.18475,3.02318 0.100797,0.35525 4.164608,2.74355 5.662202,3.32768 0.19454,0.0759 0.27347,0.69063 0.17541,1.36612 l -0.17829,1.22816 -3.737428,0 c -2.55133,0 -3.853972,0.14992 -4.104664,0.47238 -0.245965,0.31638 -0.247561,1.28352 -0.0048,2.92869 0.565076,3.83003 0.57298,3.78213 -0.718449,4.35303 -0.905959,0.40049 -1.183415,0.41417 -1.183415,0.0584 z m -0.91032,-8.60555 c 3.34624,-0.94424 4.494602,-3.91823 2.474863,-6.40932 -1.225264,-1.5112 -2.868085,-2.24499 -5.02616,-2.24499 -1.423188,0 -1.878605,0.2074 -3.142777,1.43119 -1.20389,1.16544 -1.513261,1.75211 -1.666112,3.15947 -0.136546,1.25724 -0.01599,2.00026 0.442351,2.72622 1.002571,1.58798 3.985929,2.16475 6.917835,1.33743 z"
       id="path3400"
       inkscape:connector-curvature="0" />
  </g>
</svg>
