<?xml version="1.0" encoding="UTF-8" standalone="no"?>
<!-- Created with Inkscape (http://www.inkscape.org/) -->

<svg
   xmlns:dc="http://purl.org/dc/elements/1.1/"
   xmlns:cc="http://creativecommons.org/ns#"
   xmlns:rdf="http://www.w3.org/1999/02/22-rdf-syntax-ns#"
   xmlns:svg="http://www.w3.org/2000/svg"
   xmlns="http://www.w3.org/2000/svg"
   xmlns:sodipodi="http://sodipodi.sourceforge.net/DTD/sodipodi-0.dtd"
   xmlns:inkscape="http://www.inkscape.org/namespaces/inkscape"
   width="28.999983"
   height="28.999996"
   id="svg3650"
   version="1.1"
   inkscape:version="0.48.3.1 r9886"
   sodipodi:docname="cpu.svg"
   inkscape:export-filename="/home/sade/Desktop/net-game/images/buildings/trans_cpu.png"
   inkscape:export-xdpi="90"
   inkscape:export-ydpi="90">
  <defs
     id="defs3652" />
  <sodipodi:namedview
     id="base"
     pagecolor="#ffffff"
     bordercolor="#666666"
     borderopacity="1.0"
     inkscape:pageopacity="0.0"
     inkscape:pageshadow="2"
     inkscape:zoom="5.6"
     inkscape:cx="11.148362"
     inkscape:cy="-1.5244292"
     inkscape:document-units="px"
     inkscape:current-layer="layer1"
     showgrid="false"
     fit-margin-top="0"
     fit-margin-left="0"
     fit-margin-right="0"
     fit-margin-bottom="0"
     inkscape:window-width="1311"
     inkscape:window-height="744"
     inkscape:window-x="55"
     inkscape:window-y="24"
     inkscape:window-maximized="1" />
  <metadata
     id="metadata3655">
    <rdf:RDF>
      <cc:Work
         rdf:about="">
        <dc:format>image/svg+xml</dc:format>
        <dc:type
           rdf:resource="http://purl.org/dc/dcmitype/StillImage" />
        <dc:title></dc:title>
      </cc:Work>
    </rdf:RDF>
  </metadata>
  <g
     inkscape:label="Layer 1"
     inkscape:groupmode="layer"
     id="layer1"
     transform="translate(-508.27014,-421.5097)">
    <path
       style="fill:#000000;fill-opacity:1"
       id="path3528"
       d="m 515.02948,423.70654 c 0.23329,0.88622 0.15314,1.82563 0.0751,2.7228 -0.12445,1.43077 -0.2206,1.86544 -0.45317,3.36651 -0.82197,4.51484 -2.41878,8.88816 -4.10558,13.21518 -0.11262,0.3007 -0.22524,0.60139 -0.33786,0.9021 0,0 -1.6548,0.71669 -1.6548,0.71669 l 0,0 c -0.0425,-0.2414 -0.085,-0.4828 -0.12742,-0.7242 0.0458,-0.43543 0.0592,-0.87418 0.13724,-1.30629 0.20759,-1.14872 0.76931,-3.11308 1.09134,-4.17672 0.24039,-0.794 1.40597,-4.37625 1.66268,-5.15256 0.26505,-0.80148 0.53777,-1.60112 0.80664,-2.40169 0.65951,-2.20557 1.32468,-4.41571 1.78011,-6.65942 0,0 1.12571,-0.5024 1.12571,-0.5024 z"
       inkscape:connector-curvature="0"
       inkscape:export-filename="/home/sade/Desktop/net-game/images/buildings/cpu.png"
       inkscape:export-xdpi="90"
       inkscape:export-ydpi="90" />
    <path
       style="fill:#000000;fill-opacity:1"
       id="path3530"
       d="m 513.65221,425.3062 c -0.13312,-0.62665 0.26171,-1.13872 0.70202,-1.54644 0.5369,-0.36532 1.05665,-0.75561 1.6107,-1.09595 0.2508,-0.15406 1.01447,-0.38457 1.25713,-0.45066 0.53539,-0.14582 1.64941,-0.39679 2.15738,-0.46955 0.47198,-0.0676 0.94936,-0.0928 1.42406,-0.1392 2.38784,-0.26605 4.7849,0.0487 7.08511,0.69123 1.39799,0.39052 2.29157,0.76212 3.64149,1.27229 1.9815,0.81509 3.80748,1.91891 5.67686,2.94024 0,0 -1.33815,1.06811 -1.33815,1.06811 l 0,0 c -2.16892,-0.62813 -4.18555,-1.64542 -6.29071,-2.44107 -3.37341,-1.22835 -6.69638,-2.37319 -10.36402,-2.13648 -1.08078,0.0447 -2.14538,0.10168 -3.20581,0.32739 -0.21284,0.0453 -0.42356,0.10189 -0.62943,0.17118 -0.16961,0.0571 -0.59326,0.35261 -0.49449,0.20712 0.18121,-0.26695 0.51035,-0.40426 0.76554,-0.60639 -0.11503,0.0872 -0.23819,0.16523 -0.3451,0.26172 -0.36004,0.32498 -0.54128,0.8163 -0.60343,1.27701 0,0 -1.04915,0.66949 -1.04915,0.66949 z"
       inkscape:connector-curvature="0"
       inkscape:export-filename="/home/sade/Desktop/net-game/images/buildings/cpu.png"
       inkscape:export-xdpi="90"
       inkscape:export-ydpi="90" />
    <path
       style="fill:#000000;fill-opacity:1"
       id="path3538"
       d="m 536.87988,426.19631 c 0.23169,1.4923 0.32537,2.99903 0.37628,4.50741 0.0933,3.66238 -0.28754,7.32185 -0.94492,10.91921 -0.12767,0.69864 -0.28107,1.39213 -0.4216,2.0882 -0.47034,1.64704 -0.83718,3.66708 -1.89297,5.06692 -0.11888,0.15762 -0.27628,0.2807 -0.41443,0.42104 0,0 -1.39846,0.59696 -1.39846,0.59696 l 0,0 c 0.081,-0.10058 0.17964,-0.1888 0.24308,-0.30176 0.2757,-0.49087 0.42313,-1.05922 0.54975,-1.60174 0.20403,-0.87423 0.40847,-2.15725 0.55472,-3.00833 0.61886,-4.37556 1.29222,-8.74571 1.71325,-13.14726 0.19612,-1.65118 0.31991,-3.30859 0.51654,-4.95938 0,0 1.11876,-0.58127 1.11876,-0.58127 z"
       inkscape:connector-curvature="0"
       inkscape:export-filename="/home/sade/Desktop/net-game/images/buildings/cpu.png"
       inkscape:export-xdpi="90"
       inkscape:export-ydpi="90" />
    <path
       style="fill:#000000;fill-opacity:1"
       id="path3540"
       d="m 509.13722,443.60028 c 0.42487,0.62161 1.01585,0.99761 1.58107,1.39746 1.60084,1.00592 3.35719,1.58397 5.08203,2.18743 0.39387,0.11733 0.78677,0.23953 1.1816,0.35199 1.17993,0.33609 1.60761,0.45511 2.84219,0.66799 1.76702,0.30469 3.54664,0.44991 5.32581,0.59909 2.50771,0.19136 5.02847,0.33938 7.53626,0.0814 -0.36683,0.46584 1.16041,-0.51942 0.87706,-0.36867 -0.26235,0.13958 -0.49125,0.38832 -0.77183,0.4585 -0.10739,0.0269 0.14466,-0.20173 0.20111,-0.31576 0.0448,-0.0905 0.0666,-0.19498 0.1,-0.29247 0,0 1.01327,-0.58314 1.01327,-0.58314 l 0,0 c -0.0145,0.10279 -0.0129,0.21091 -0.0435,0.30836 -0.23055,0.73455 -1.02151,1.039 -1.48557,1.38524 -0.4367,0.32582 -0.55594,0.31119 -1.07713,0.48373 -2.69337,0.59047 -5.44103,0.65822 -8.16809,0.41951 -1.45461,-0.14807 -2.11107,-0.18616 -3.54685,-0.44427 -1.4584,-0.26217 -2.86425,-0.68871 -4.28241,-1.16435 -0.38505,-0.12914 -0.77021,-0.25782 -1.15533,-0.38672 -1.62758,-0.67325 -3.28241,-1.36104 -4.71594,-2.54191 -0.51124,-0.45473 -1.11409,-0.90015 -1.36083,-1.64466 0,0 0.86708,-0.59875 0.86708,-0.59875 z"
       inkscape:connector-curvature="0"
       inkscape:export-filename="/home/sade/Desktop/net-game/images/buildings/cpu.png"
       inkscape:export-xdpi="90"
       inkscape:export-ydpi="90" />
    <path
       style="fill:#000000;fill-opacity:1"
       id="path3528-2"
       d="m 517.43605,426.63018 c 0.16569,0.68369 0.10877,1.40842 0.0534,2.10057 -0.0884,1.10381 -0.15669,1.43914 -0.32185,2.59718 -0.58378,3.4831 -1.71789,6.85701 -2.9159,10.19521 -0.08,0.23198 -0.15997,0.46396 -0.23995,0.69595 0,0 -1.17529,0.5529 -1.17529,0.5529 l 0,0 c -0.0302,-0.18622 -0.0603,-0.37247 -0.0905,-0.5587 0.0325,-0.33592 0.042,-0.6744 0.0975,-1.00777 0.14744,-0.88621 0.54639,-2.40167 0.77511,-3.22224 0.17073,-0.61255 0.99855,-3.37618 1.18087,-3.97508 0.18825,-0.61832 0.38194,-1.23523 0.5729,-1.85284 0.4684,-1.70155 0.94083,-3.40663 1.26429,-5.1376 0,0 0.7995,-0.38758 0.7995,-0.38758 z"
       inkscape:connector-curvature="0"
       inkscape:export-filename="/home/sade/Desktop/net-game/images/buildings/cpu.png"
       inkscape:export-xdpi="90"
       inkscape:export-ydpi="90" />
    <path
       style="fill:#000000;fill-opacity:1"
       id="path3530-4"
       d="m 516.45788,427.86427 c -0.0946,-0.48344 0.18587,-0.87849 0.49859,-1.19304 0.38133,-0.28184 0.75046,-0.58293 1.14397,-0.8455 0.17812,-0.11885 0.7205,-0.29668 0.89285,-0.34767 0.38024,-0.1125 1.17145,-0.30612 1.53222,-0.36224 0.33522,-0.0521 0.67427,-0.0716 1.01141,-0.10739 1.69592,-0.20526 3.39837,0.0376 5.03204,0.53326 0.99289,0.30127 1.62754,0.58796 2.58629,0.98154 1.40731,0.62883 2.70418,1.4804 4.03186,2.26833 0,0 -0.95039,0.82402 -0.95039,0.82402 l 0,0 c -1.54043,-0.48459 -2.9727,-1.26941 -4.46783,-1.88323 -2.39589,-0.94765 -4.75596,-1.83086 -7.36082,-1.64824 -0.7676,0.0344 -1.5237,0.0784 -2.27685,0.25257 -0.15116,0.0349 -0.30082,0.0786 -0.44703,0.13206 -0.12048,0.044 -0.42136,0.27204 -0.35121,0.15978 0.1287,-0.20593 0.36246,-0.31186 0.54371,-0.46781 -0.0817,0.0673 -0.16918,0.12748 -0.2451,0.20192 -0.25571,0.25071 -0.38443,0.62976 -0.42857,0.98518 0,0 -0.74514,0.5165 -0.74514,0.5165 z"
       inkscape:connector-curvature="0"
       inkscape:export-filename="/home/sade/Desktop/net-game/images/buildings/cpu.png"
       inkscape:export-xdpi="90"
       inkscape:export-ydpi="90" />
    <path
       style="fill:#000000;fill-opacity:1"
       id="path3538-5"
       d="m 532.95481,428.55098 c 0.16455,1.15127 0.23108,2.31368 0.26724,3.47735 0.0663,2.82544 -0.20422,5.64864 -0.67111,8.42392 -0.0907,0.53899 -0.19961,1.074 -0.29943,1.611 -0.33405,1.27066 -0.59458,2.82906 -1.34444,3.90901 -0.0844,0.1216 -0.19623,0.21656 -0.29434,0.32482 0,0 -0.99322,0.46054 -0.99322,0.46054 l 0,0 c 0.0576,-0.0776 0.12758,-0.14565 0.17265,-0.2328 0.1958,-0.37869 0.30051,-0.81716 0.39043,-1.2357 0.14491,-0.67445 0.29011,-1.66426 0.39399,-2.32086 0.43952,-3.37564 0.91776,-6.74711 1.21679,-10.1428 0.13929,-1.27385 0.22721,-2.5525 0.36686,-3.82605 0,0 0.79458,-0.44843 0.79458,-0.44843 z"
       inkscape:connector-curvature="0"
       inkscape:export-filename="/home/sade/Desktop/net-game/images/buildings/cpu.png"
       inkscape:export-xdpi="90"
       inkscape:export-ydpi="90" />
    <path
       style="fill:#000000;fill-opacity:1"
       id="path3540-5"
       d="m 513.25121,441.97773 c 0.30176,0.47956 0.72149,0.76964 1.12292,1.07811 1.13696,0.77605 2.38437,1.222 3.6094,1.68755 0.27974,0.0905 0.55878,0.18479 0.8392,0.27156 0.83802,0.25927 1.14177,0.3511 2.0186,0.51533 1.25498,0.23507 2.51893,0.34709 3.78254,0.46219 1.78105,0.14762 3.57136,0.26182 5.35246,0.0628 -0.26054,0.35939 0.82415,-0.40072 0.62291,-0.28442 -0.18634,0.1077 -0.34891,0.29959 -0.54818,0.35372 -0.0763,0.0207 0.10275,-0.15562 0.14284,-0.24359 0.0319,-0.0698 0.0473,-0.15043 0.071,-0.22564 0,0 0.71965,-0.44988 0.71965,-0.44988 l 0,0 c -0.0104,0.0793 -0.009,0.16271 -0.0309,0.23789 -0.16375,0.56669 -0.72552,0.80157 -1.0551,1.06869 -0.31015,0.25136 -0.39484,0.24007 -0.76501,0.37318 -1.9129,0.45554 -3.86436,0.50781 -5.8012,0.32364 -1.0331,-0.11422 -1.49934,-0.14361 -2.51907,-0.34274 -1.0358,-0.20225 -2.03426,-0.53132 -3.04148,-0.89826 -0.27348,-0.0996 -0.54703,-0.19891 -0.82055,-0.29836 -1.15594,-0.51939 -2.33126,-1.05001 -3.34939,-1.96102 -0.3631,-0.35082 -0.79126,-0.69443 -0.9665,-1.26881 0,0 0.61583,-0.46193 0.61583,-0.46193 z"
       inkscape:connector-curvature="0"
       inkscape:export-filename="/home/sade/Desktop/net-game/images/buildings/cpu.png"
       inkscape:export-xdpi="90"
       inkscape:export-ydpi="90" />
    <path
       style="fill:#e6e6e6;fill-opacity:1"
       d="m 523.11247,445.75156 c -2.93996,-0.33211 -7.11817,-1.70962 -8.77815,-2.89407 -0.35442,-0.25289 -0.36184,-0.35155 -0.0763,-1.01488 0.17395,-0.40412 0.81885,-2.34616 1.43311,-4.31565 1.17987,-3.78295 1.81276,-6.93473 1.89379,-9.43102 l 0.049,-1.50966 0.89446,-0.18959 c 0.49195,-0.10428 1.85041,-0.1449 3.0188,-0.0903 2.27309,0.1063 4.04825,0.63484 8.38555,2.49677 l 2.01253,0.86395 -0.0689,0.94584 c -0.15843,2.17613 -1.22853,11.09258 -1.57209,13.09915 l -0.37158,2.17023 -2.57157,0.0294 c -1.41436,0.0161 -3.32627,-0.0559 -4.24868,-0.16013 z m 5.46952,-4.21492 c 1.20397,-0.55278 2.30775,-1.45641 1.35073,-1.1058 -1.64051,0.60101 -2.32633,0.64939 -4.05238,0.28586 -1.58604,-0.33404 -1.77958,-0.33582 -2.27461,-0.021 -0.67944,0.43206 -0.45263,0.6754 0.9872,1.05916 1.66153,0.44283 2.66939,0.38771 3.98906,-0.21819 z m -5.63723,-2.04401 c 0.53749,-0.26148 0.61494,-0.4253 0.61494,-1.3008 0,-0.96651 0.0333,-1.01666 0.95036,-1.43007 1.04397,-0.47063 1.44697,-1.18625 1.20184,-2.13414 -0.11133,-0.43051 -0.28893,-0.57304 -0.71407,-0.57304 -1.09807,0 -2.77982,1.07397 -2.77982,1.7752 0,0.53176 -0.9904,0.91067 -1.57995,0.60446 -0.58842,-0.30563 -0.54906,-1.15114 0.11835,-2.54242 0.30061,-0.62666 0.5159,-1.13938 0.47841,-1.13938 -0.0375,0 -0.36888,0.10175 -0.73644,0.22611 -1.30421,0.44124 -2.24933,3.2425 -1.42087,4.21131 0.40808,0.47721 1.63262,0.41792 2.32769,-0.1127 l 0.58919,-0.4498 0,1.66152 c 0,0.91383 0.0755,1.62582 0.16771,1.58221 0.0923,-0.0436 0.44444,-0.21393 0.78266,-0.37846 z m 5.075,-1.09152 c 1.14347,-0.56616 1.80115,-1.41113 1.80115,-2.31407 0,-0.80915 -0.0855,-0.84923 -0.88941,-0.41729 -0.39202,0.21061 -0.56445,0.49944 -0.58976,0.98787 -0.0364,0.70208 -0.41035,1.27809 -0.66767,1.02836 -0.078,-0.0757 -0.19291,-0.57804 -0.25543,-1.11638 l -0.11367,-0.9788 -0.64276,0.32259 c -0.56027,0.28119 -0.64275,0.44519 -0.64275,1.2781 0,0.91174 0.4075,1.63761 0.91934,1.63761 0.1191,0 0.60554,-0.1926 1.08096,-0.42799 z m -3.18431,-6.61904 c -0.0386,-0.12279 -0.46725,-0.41857 -0.95251,-0.6573 -1.23855,-0.60932 -3.96051,-0.60776 -4.90017,0.003 l -0.66367,0.43123 1.78174,0.12061 c 1.17765,0.0797 2.08501,0.27502 2.6762,0.57604 0.84179,0.42861 0.93081,0.43466 1.51155,0.10265 0.33939,-0.19403 0.58548,-0.45324 0.54686,-0.57604 z"
       id="path3014"
       inkscape:connector-curvature="0"
       inkscape:export-filename="/home/sade/Desktop/net-game/images/buildings/cpu.png"
       inkscape:export-xdpi="90"
       inkscape:export-ydpi="90" />
    <path
       style="fill:#e6e6e6;fill-opacity:1"
       d="m 523.5597,448.56562 c -2.94133,-0.2923 -5.51267,-0.80226 -7.71472,-1.53001 -3.43023,-1.13366 -6.31198,-2.63218 -5.73147,-2.98038 0.34536,-0.20715 2.37114,-5.68233 3.36131,-9.08477 1.04425,-3.5883 1.61297,-6.64675 1.722,-9.26045 0.0601,-1.44114 0.16769,-1.98945 0.41689,-2.1248 0.18473,-0.10033 1.36069,-0.26882 2.61324,-0.37441 3.97669,-0.33524 7.16467,0.36885 13.71195,3.02836 1.7666,0.7176 3.31457,1.30473 3.43994,1.30473 0.12839,0 0.1847,0.30802 0.12894,0.70532 -0.0544,0.38793 -0.30606,2.56088 -0.55913,4.82877 -0.56321,5.04731 -1.41805,11.24976 -1.90464,13.81948 l -0.36257,1.91472 -3.61051,-0.0289 c -1.98578,-0.0159 -4.46583,-0.11384 -5.51123,-0.21773 z m 5.25203,-1.51262 c 1.48803,-0.28224 2.08588,-0.69914 2.59063,-1.80659 1.24185,-2.72464 2.25455,-10.97347 1.84004,-14.98773 l -0.17907,-1.73419 -1.89139,-1.05173 c -3.37737,-1.87805 -5.73039,-2.56593 -8.73032,-2.55222 -2.22039,0.0102 -3.82362,0.41847 -5.06224,1.28928 -0.80431,0.56546 -0.9126,0.7596 -1.16487,2.08839 -0.15298,0.80574 -0.83623,3.3339 -1.51834,5.61814 -1.27943,4.28451 -2.08031,7.47853 -2.08876,8.33025 -0.007,0.74553 1.39571,2.08774 3.07176,2.93841 3.77756,1.9173 8.97491,2.65657 13.13256,1.86799 z"
       id="path3022"
       inkscape:connector-curvature="0"
       inkscape:export-filename="/home/sade/Desktop/net-game/images/buildings/cpu.png"
       inkscape:export-xdpi="90"
       inkscape:export-ydpi="90" />
  </g>
</svg>
