<?xml version="1.0" encoding="UTF-8" standalone="no"?>
<!-- Created with Inkscape (http://www.inkscape.org/) -->

<svg
   xmlns:dc="http://purl.org/dc/elements/1.1/"
   xmlns:cc="http://creativecommons.org/ns#"
   xmlns:rdf="http://www.w3.org/1999/02/22-rdf-syntax-ns#"
   xmlns:svg="http://www.w3.org/2000/svg"
   xmlns="http://www.w3.org/2000/svg"
   xmlns:sodipodi="http://sodipodi.sourceforge.net/DTD/sodipodi-0.dtd"
   xmlns:inkscape="http://www.inkscape.org/namespaces/inkscape"
   width="29.000002"
   height="29.000008"
   id="svg3272"
   version="1.1"
   inkscape:version="0.48.3.1 r9886"
   sodipodi:docname="database.svg"
   inkscape:export-filename="/home/sade/Desktop/net-game/images/buildings/database.png"
   inkscape:export-xdpi="90"
   inkscape:export-ydpi="90">
  <defs
     id="defs3274">
    <inkscape:perspective
       sodipodi:type="inkscape:persp3d"
       inkscape:vp_x="0 : 14.500004 : 1"
       inkscape:vp_y="0 : 1000 : 0"
       inkscape:vp_z="29.000002 : 14.500004 : 1"
       inkscape:persp3d-origin="14.500001 : 9.6666692 : 1"
       id="perspective3078" />
  </defs>
  <sodipodi:namedview
     id="base"
     pagecolor="#ffffff"
     bordercolor="#666666"
     borderopacity="1.0"
     inkscape:pageopacity="0.0"
     inkscape:pageshadow="2"
     inkscape:zoom="7.919596"
     inkscape:cx="34.133745"
     inkscape:cy="11.546951"
     inkscape:document-units="px"
     inkscape:current-layer="layer1"
     showgrid="false"
     inkscape:window-width="1311"
     inkscape:window-height="744"
     inkscape:window-x="55"
     inkscape:window-y="24"
     inkscape:window-maximized="1"
     fit-margin-top="0"
     fit-margin-left="0"
     fit-margin-right="0"
     fit-margin-bottom="0" />
  <metadata
     id="metadata3277">
    <rdf:RDF>
      <cc:Work
         rdf:about="">
        <dc:format>image/svg+xml</dc:format>
        <dc:type
           rdf:resource="http://purl.org/dc/dcmitype/StillImage" />
        <dc:title></dc:title>
      </cc:Work>
    </rdf:RDF>
  </metadata>
  <g
     inkscape:label="Layer 1"
     inkscape:groupmode="layer"
     id="layer1"
     transform="translate(-395.68033,-490.50508)">
    <path
       style="fill:#000000;fill-opacity:1"
       id="path3133"
       d="m 397.04963,492.61245 c 0.0138,1.05929 0.26064,2.00844 0.44932,2.99915 0.6476,2.98076 1.15321,6.06774 1.50793,9.20138 0.0914,0.80742 0.15936,1.62266 0.23904,2.43398 0.16132,1.92026 0.27734,3.85538 0.33122,5.79504 0.0211,0.76161 0.0151,1.52341 0.043,2.28452 0,0 -0.80456,0.83306 -0.80456,0.83306 l 0,0 c -0.0547,-0.0672 -0.12608,-0.10482 -0.16418,-0.20168 -0.19327,-0.49152 -0.24585,-1.21861 -0.30934,-1.76282 -0.21398,-1.8347 -0.408,-3.67731 -0.61188,-5.51558 -0.42642,-4.0231 -0.77378,-8.0727 -1.26289,-12.07417 -0.11975,-1.09011 -0.31463,-2.17825 -0.18856,-3.2955 0,0 0.77091,-0.69738 0.77091,-0.69738 z"
       inkscape:connector-curvature="0"
       inkscape:export-filename="/home/sade/Desktop/net-game/images/buildings/database.png"
       inkscape:export-xdpi="90"
       inkscape:export-ydpi="90" />
    <path
       style="fill:#000000;fill-opacity:1"
       id="path3135"
       d="m 421.79208,491.65647 c 0.17663,0.86403 0.32592,1.73684 0.52163,2.59679 0.56691,2.4115 0.88529,4.89427 1.2268,7.3656 0.41406,3.31733 0.63178,6.65898 0.79098,10.00702 0.12562,0.94559 -0.10586,2.19693 0.44776,2.98502 0,0 -0.95595,0.73914 -0.95595,0.73914 l 0,0 c -0.0753,-0.0577 -0.16464,-0.0942 -0.22612,-0.17304 -0.52443,-0.67264 -0.49384,-1.79113 -0.71529,-2.61506 -0.44805,-3.27009 -0.77122,-6.56326 -0.99662,-9.86827 -0.21118,-2.55626 -0.41296,-5.11614 -0.75879,-7.65114 -0.14675,-0.92708 -0.27168,-1.86262 -0.25003,-2.8108 0,0 0.91563,-0.57526 0.91563,-0.57526 z"
       inkscape:connector-curvature="0"
       inkscape:export-filename="/home/sade/Desktop/net-game/images/buildings/database.png"
       inkscape:export-xdpi="90"
       inkscape:export-ydpi="90" />
    <path
       style="fill:#000000;fill-opacity:1"
       id="path3195"
       d="m 399.56383,515.40441 c 0.51756,-0.10421 0.99245,0.10053 1.47785,0.29385 1.66056,0.44886 3.31982,0.94831 5.00544,1.25056 0.54769,0.0982 1.09923,0.16296 1.64886,0.24447 2.65947,0.34343 5.35323,0.33785 8.01541,0.0263 1.53193,-0.1793 2.23203,-0.35588 3.72,-0.66357 1.22382,-0.30128 2.45376,-0.63565 3.62233,-1.17549 0.21095,-0.0974 0.79384,-0.50477 0.61746,-0.33589 -0.2668,0.25542 -0.58211,0.43389 -0.89432,0.60096 -0.11944,0.0638 0.20639,-0.19205 0.30959,-0.28808 0,0 1.21507,-0.59908 1.21507,-0.59908 l 0,0 c -0.53268,0.92058 -0.13212,0.30125 -1.94233,1.5337 -1.51538,1.03169 -3.24399,1.52613 -4.9149,2.05169 -1.59257,0.37552 -2.24543,0.57654 -3.8861,0.76523 -2.5795,0.29668 -5.19563,0.19886 -7.74761,-0.33875 -0.50457,-0.125 -1.01207,-0.23417 -1.51369,-0.37498 -1.5132,-0.42474 -2.99266,-1.03107 -4.41553,-1.77286 -0.41794,-0.25203 -0.74908,-0.447 -1.22262,-0.43445 0,0 0.90509,-0.78359 0.90509,-0.78359 z"
       inkscape:connector-curvature="0"
       inkscape:export-filename="/home/sade/Desktop/net-game/images/buildings/database.png"
       inkscape:export-xdpi="90"
       inkscape:export-ydpi="90" />
    <path
       style="fill:#afe9dd;fill-opacity:1"
       d=""
       id="path2998"
       inkscape:connector-curvature="0"
       transform="translate(395.68033,490.50508)" />
    <path
       style="fill:#afe9dd;fill-opacity:1"
       d=""
       id="path3000"
       inkscape:connector-curvature="0"
       transform="translate(395.68033,490.50508)" />
    <path
       style="fill:#214478;fill-opacity:1"
       d="m 402.98068,516.6778 c -0.71797,-0.20229 -1.86812,-0.60525 -2.55586,-0.89541 l -1.25045,-0.5276 -0.10631,-2.4749 c -0.28828,-6.71021 -0.62824,-10.64039 -1.32708,-15.34172 -0.21444,-1.44258 -0.38989,-2.68441 -0.38989,-2.75961 0,-0.0752 0.21279,0.0359 0.47287,0.24704 0.85592,0.69466 2.01411,0.93744 4.49945,0.94318 3.62255,0.008 7.27105,-0.82871 9.34637,-2.14432 l 1.00374,-0.63629 0.0862,0.66937 c 0.0775,0.60133 0.42895,6.45874 0.67027,11.16939 0.17618,3.439 0.58134,8.79961 0.72413,9.58106 l 0.14388,0.78733 -1.08973,0.51024 c -2.75889,1.29176 -7.34929,1.68325 -10.2276,0.87224 z"
       id="path3108"
       inkscape:connector-curvature="0"
       inkscape:export-filename="/home/sade/Desktop/net-game/images/buildings/database.png"
       inkscape:export-xdpi="90"
       inkscape:export-ydpi="90" />
    <path
       style="fill:#000000;fill-opacity:1"
       id="path3195-5-8"
       d="m 397.92845,499.90709 c 0.53029,-0.0782 1.01689,0.0754 1.51424,0.22042 1.70143,0.3367 3.40154,0.71135 5.12867,0.93808 0.56117,0.0737 1.1263,0.12224 1.68945,0.18337 2.72495,0.25763 5.48503,0.25344 8.21276,0.0197 1.56965,-0.13449 2.28698,-0.26695 3.81159,-0.49775 1.25396,-0.226 2.51417,-0.47681 3.71152,-0.88176 0.21614,-0.0731 0.81338,-0.37863 0.63265,-0.25196 -0.27336,0.1916 -0.59644,0.32547 -0.91633,0.45079 -0.12238,0.0479 0.21147,-0.14406 0.3172,-0.21609 0,0 1.245,-0.44939 1.245,-0.44939 l 0,0 c -0.54581,0.69055 -0.13538,0.22599 -1.99015,1.15046 -1.55269,0.7739 -3.32387,1.14479 -5.03591,1.53902 -1.63179,0.28169 -2.30073,0.43248 -3.98178,0.57402 -2.64302,0.22255 -5.32355,0.14917 -7.93836,-0.25411 -0.51699,-0.0937 -1.03699,-0.17565 -1.55096,-0.28127 -1.55045,-0.31861 -3.06634,-0.77343 -4.52425,-1.32987 -0.42822,-0.18905 -0.76751,-0.3353 -1.25272,-0.32588 0,0 0.92738,-0.5878 0.92738,-0.5878 z"
       inkscape:connector-curvature="0"
       inkscape:export-filename="/home/sade/Desktop/net-game/images/buildings/database.png"
       inkscape:export-xdpi="90"
       inkscape:export-ydpi="90" />
    <path
       style="fill:#000000;fill-opacity:1"
       id="path3195-5-8-8"
       d="m 398.6415,508.57331 c 0.50481,-0.0782 0.96802,0.0754 1.44147,0.22042 1.61966,0.3367 3.23807,0.71135 4.88219,0.93808 0.53421,0.0737 1.07217,0.12224 1.60826,0.18337 2.594,0.25763 5.22143,0.25344 7.81807,0.0197 1.49421,-0.13449 2.17707,-0.26695 3.62841,-0.49775 1.1937,-0.226 2.39335,-0.47681 3.53315,-0.88176 0.20575,-0.0731 0.77429,-0.37863 0.60225,-0.25196 -0.26023,0.1916 -0.56778,0.32547 -0.8723,0.45079 -0.1165,0.0479 0.20132,-0.14406 0.30197,-0.21609 0,0 1.18516,-0.44939 1.18516,-0.44939 l 0,0 c -0.51958,0.69055 -0.12887,0.22599 -1.89451,1.15046 -1.47807,0.7739 -3.16413,1.14479 -4.79389,1.53902 -1.55337,0.28169 -2.19016,0.43248 -3.79042,0.57402 -2.516,0.22255 -5.06771,0.14917 -7.55686,-0.25411 -0.49214,-0.0937 -0.98716,-0.17565 -1.47642,-0.28127 -1.47594,-0.31861 -2.91898,-0.77343 -4.30682,-1.32987 -0.40765,-0.18905 -0.73063,-0.3353 -1.19252,-0.32588 0,0 0.88281,-0.5878 0.88281,-0.5878 z"
       inkscape:connector-curvature="0"
       inkscape:export-filename="/home/sade/Desktop/net-game/images/buildings/database.png"
       inkscape:export-xdpi="90"
       inkscape:export-ydpi="90" />
    <path
       style="fill:#000000;fill-opacity:1"
       id="path3129"
       d="m 412.7897,495.68426 c -1.29198,0.26585 -2.60043,0.37295 -3.90614,0.50666 -1.87351,0.16968 -3.75367,0.23221 -5.63325,0.1657 -0.47263,-0.0168 -0.94604,-0.0206 -1.41755,-0.067 -0.44649,-0.0439 -0.88927,-0.13587 -1.33391,-0.20383 -1.01206,-0.17967 -1.98178,-0.52213 -2.88781,-1.10901 -0.39202,-0.25393 -0.74206,-0.51389 -1.06115,-0.89201 -0.11027,-0.13068 -0.19573,-0.2893 -0.2936,-0.43395 -0.21278,-0.64332 -0.1504,-1.05827 0.39057,-1.36595 1.70794,-0.97146 1.17027,-0.77893 2.48772,-1.05187 0.33075,-0.0386 0.66072,-0.0873 0.9922,-0.11588 0.40641,-0.0351 0.81394,-0.0501 1.22089,-0.0752 0.47733,-0.0393 0.955,-0.0735 1.432,-0.11779 1.91849,-0.17816 3.83714,-0.35088 5.75586,-0.52703 2.71433,-0.20041 5.43907,-0.4032 8.16229,-0.31563 1.08437,0.0349 1.77006,0.12555 2.82771,0.23829 0.51768,0.10583 2.76099,0.34786 2.26296,1.68426 -0.0643,0.1724 -0.18953,0.29944 -0.28431,0.44916 -2.58961,2.21534 -5.76423,2.72566 -8.82484,3.19924 -2.56246,0.34591 -5.13751,0.55953 -7.71065,0.76842 0,0 1.75725,-1.45598 1.75725,-1.45598 l 0,0 c 2.54174,-0.24682 5.08522,-0.46374 7.62676,-0.71186 1.5638,-0.20181 1.70439,-0.18718 3.21063,-0.5039 0.44985,-0.0946 0.89998,-0.1906 1.34433,-0.31698 0.37517,-0.1067 0.7262,-0.38227 1.11217,-0.38166 0.15778,2.3e-4 -0.50649,0.41937 -0.35184,0.38289 0.25338,-0.0598 0.44998,-0.30608 0.67497,-0.45911 0.079,-0.0807 0.58005,-0.42837 0.48827,-0.75662 -0.0888,-0.31775 -0.64829,-0.46463 -0.79867,-0.50057 -0.53898,-0.12885 -1.48638,-0.16441 -1.99262,-0.19852 -3.78977,-0.0607 -7.57259,0.18577 -11.355,0.40795 -1.79752,0.10196 -3.59505,0.17357 -5.39444,0.22323 -0.43978,0.0121 -0.87976,0.0138 -1.31962,0.0208 -0.36744,-0.003 -0.73502,-0.0182 -1.10235,-0.0107 -0.29881,0.006 -0.5969,0.0342 -0.89533,0.0513 -1.46453,0.221 -0.41918,0.21499 -0.1996,-0.38475 0.0633,-0.17259 -0.29036,0.13745 -0.42199,0.23672 -0.0761,0.0574 -0.15544,0.12811 -0.19322,0.22721 -0.0341,0.0894 -0.029,0.20125 -0.007,0.29641 0.0301,0.12663 0.10606,0.23018 0.15909,0.34526 0.11872,0.11984 0.22968,0.25224 0.35617,0.35948 1.26134,1.06938 2.84607,1.36346 4.32401,1.60669 0.45411,0.0536 0.90715,0.12573 1.36234,0.16098 2.29051,0.17734 4.58911,0.0481 6.87954,0.0186 1.11332,-0.0262 2.22729,-0.0198 3.33959,-0.0709 0,0 -0.78305,0.67763 -0.78305,0.67763 z"
       inkscape:connector-curvature="0"
       inkscape:export-filename="/home/sade/Desktop/net-game/images/buildings/database.png"
       inkscape:export-xdpi="90"
       inkscape:export-ydpi="90" />
    <path
       style="fill:#000000;fill-opacity:1"
       d="m 400.92669,496.09472 c -1.31868,-0.2551 -1.9193,-0.44919 -2.68225,-0.86677 -1.03083,-0.56422 -1.64865,-1.10242 -1.88717,-1.64396 -0.26194,-0.59472 -0.15337,-0.94013 0.40509,-1.28887 l 0.38047,-0.23757 0,0.39664 c 0,1.18832 2.57809,2.3022 6.1074,2.63874 1.75659,0.1675 3.23076,0.17275 3.5065,0.0125 0.11657,-0.0677 1.94216,-0.27766 4.05685,-0.46646 4.72689,-0.42201 7.0645,-0.77862 8.61542,-1.31436 0.18333,-0.0633 0.25429,-0.031 0.25429,0.11589 0,0.26393 -1.4756,0.92917 -2.94078,1.32576 -1.27979,0.34642 -5.09021,1.05312 -6.78336,1.25808 -1.90757,0.23091 -7.95884,0.27807 -9.03246,0.0704 z"
       id="path3367"
       inkscape:connector-curvature="0"
       inkscape:export-filename="/home/sade/Desktop/net-game/images/buildings/database.png"
       inkscape:export-xdpi="90"
       inkscape:export-ydpi="90" />
    <path
       style="fill:#000000;fill-opacity:1"
       d="m 403.08637,494.95767 c -2.20297,-0.21061 -4.09118,-0.78518 -5.14328,-1.56507 -0.50399,-0.3736 -0.79387,-0.84488 -0.62894,-1.02256 0.0393,-0.0424 1.7883,-0.12499 3.88655,-0.18352 2.09826,-0.0585 5.51775,-0.20453 7.59888,-0.32443 5.02545,-0.28954 10.53671,-0.30915 11.28991,-0.0402 0.3359,0.11996 0.56483,0.28676 0.59048,0.43026 0.0555,0.31089 -0.31787,0.74081 -0.64348,0.74081 -0.14297,0 -0.56715,0.11634 -0.94261,0.25851 -1.40291,0.53125 -5.73849,1.12233 -11.24438,1.53298 -0.65681,0.0489 -1.22305,0.13937 -1.25832,0.20085 -0.076,0.13244 -1.98819,0.11734 -3.50481,-0.0276 l 0,0 z"
       id="path3369"
       inkscape:connector-curvature="0"
       inkscape:export-filename="/home/sade/Desktop/net-game/images/buildings/database.png"
       inkscape:export-xdpi="90"
       inkscape:export-ydpi="90" />
    <path
       style="fill:#000000;fill-opacity:1"
       id="path3371"
       d="m 409.87404,494.42131 c -0.31085,-0.13124 -0.63071,-0.22672 -0.96021,-0.28271 -0.31534,-0.0449 -0.63444,-0.0385 -0.95182,-0.0383 -0.50123,0.004 -0.0942,4e-5 0.44685,0.003 0.0772,4.7e-4 -0.15443,-0.001 -0.2316,0.001 -0.26086,0.008 -0.51932,0.0377 -0.77807,0.0723 -0.33682,0.0519 -0.17185,0.0264 -0.49491,0.0765 0,0 -0.90184,-0.13849 -0.90184,-0.13849 l 0,0 c 0.3007,-0.0549 0.14582,-0.027 0.46465,-0.0836 0.78042,-0.11769 1.56773,-0.0894 2.35453,-0.0774 0.31264,0.004 0.62646,0.006 0.93642,0.0556 0.31505,0.0578 0.63892,0.13179 0.91002,0.32319 0,0 -0.79402,0.0884 -0.79402,0.0884 z"
       inkscape:connector-curvature="0"
       inkscape:export-filename="/home/sade/Desktop/net-game/images/buildings/database.png"
       inkscape:export-xdpi="90"
       inkscape:export-ydpi="90" />
    <path
       inkscape:export-filename="/home/sade/Desktop/net-game/images/buildings/database.png"
       inkscape:export-xdpi="90"
       inkscape:export-ydpi="90"
       style="fill:#000000;fill-opacity:1"
       id="path3375"
       d="m 410.48719,494.63556 c -0.2891,0.27381 -0.72875,0.31575 -1.09575,0.37177 -0.25077,0.0374 -0.50371,0.0421 -0.7563,0.0467 -0.036,6.4e-4 -0.32399,0.0104 -0.33761,-0.003 -0.0416,-0.0399 -0.033,-0.11463 -0.0495,-0.17196 0.0384,-0.0501 0.0628,-0.11809 0.1152,-0.15035 0.0162,-0.0104 0.3104,-0.0176 0.33165,-0.0182 0.22219,-0.006 0.44448,-0.008 0.66673,-0.011 0.0693,2.9e-4 0.1386,8.3e-4 0.20791,8.7e-4 0.0725,4e-5 0.14494,-3e-4 0.21741,-6e-4 0.0752,-3.3e-4 0.30048,-0.001 0.22536,-0.001 -4.81532,-0.008 -3.37606,0.0745 -2.3427,-0.0376 0.31989,-0.0858 0.64955,-0.11714 0.97191,-0.18588 0.23391,-0.0557 0.46181,-0.13831 0.68627,-0.22788 0.22617,-0.12004 0.47087,-0.18053 0.7069,-0.26836 0.20677,-0.0981 0.42564,-0.14225 0.64893,-0.1656 0.2686,-0.0127 0.5333,-0.063 0.7998,-0.0987 0.26505,-0.0167 0.51075,-0.10019 0.75039,-0.21626 0.26481,-0.12714 0.50557,-0.30276 0.76454,-0.44223 1.00696,-0.46965 2.04848,-0.17555 3.20946,-0.14568 0.0293,7.6e-4 0.0285,0.0568 0.0326,0.0881 0.007,0.055 -0.0212,0.25362 -0.0256,0.28974 -0.0331,0.25544 -0.2506,0.26434 -0.43603,0.35151 -0.24009,0.0686 -0.44683,0.20699 -0.66534,0.32671 -0.27456,0.15361 -0.57063,0.24994 -0.86982,0.32959 -0.26414,0.0674 -0.53501,0.0864 -0.80532,0.0962 -1.15228,0.0203 -2.30485,0.005 -3.45725,0.002 -0.24397,-6.2e-4 -0.48794,-6.6e-4 -0.73191,-7e-4 -1.12916,0.0274 -3.17531,0.0159 1.83189,0.016 -0.35931,-0.002 -0.71866,-0.008 -1.07798,-0.006 -0.32308,-0.003 -0.64112,0.0644 -0.96225,0.0931 -0.30927,0.0218 -0.61925,0.027 -0.92711,0.0669 -0.36817,0.0229 -0.72676,0.10019 -1.08178,0.20297 -0.24941,0.0865 -0.50661,0.14831 -0.74694,0.26159 -0.20317,0.1372 -0.43334,0.19452 -0.6597,0.26648 -1.04845,0.32979 -2.03019,0.0947 -3.21182,0.0826 -0.10543,-0.001 -0.15197,-0.028 -0.25122,-0.0643 -0.31972,-0.0691 -0.63085,-0.17282 -0.95342,-0.2276 -0.25263,-0.10145 -0.49175,-0.21993 -0.7595,-0.27016 -0.23919,-0.0335 -0.48103,-0.0307 -0.72175,-0.0307 0.0809,-1.8e-4 -0.32462,9.9e-4 -0.24347,0.001 0.86663,2.7e-4 3.46033,0.11129 2.59987,1.9e-4 -0.63474,-0.082 -2.15663,0.28348 -3.09956,-0.11395 -0.28124,-0.11776 -0.56944,-0.2123 -0.8423,-0.35466 -0.24417,-0.12308 -0.50418,-0.20304 -0.752,-0.31489 -0.29111,-0.12884 -0.46003,-0.39058 -0.64096,-0.65066 -0.22025,-0.28147 -0.39231,-0.45842 -0.3414,-0.85011 0.0365,-0.30756 0.21271,-0.50085 0.47084,-0.60924 1.02999,-0.19422 2.92755,-0.0722 3.45057,-0.0723 0.24498,0.003 0.48999,0.004 0.73499,0.004 0.33476,0.002 0.6694,-0.009 1.00409,-0.0155 1.02576,-0.004 2.47947,0.003 -2.32009,-0.003 -0.0692,-9e-5 0.13844,-1.5e-4 0.20764,-0.002 0.49573,-0.0116 -0.10909,-0.007 0.46171,-0.008 0.45497,-0.004 0.9097,0.0171 1.36462,0.0181 1.29569,3.8e-4 2.59147,0.017 3.88718,-7.5e-4 0.0586,4e-5 0.11715,7e-5 0.17573,1.2e-4 0,0 -2.8606,0.48814 -2.8606,0.48814 l 0,0 c -0.059,3e-5 -0.11804,7e-5 -0.17706,1.1e-4 -1.03941,-0.0169 -0.35645,-0.005 2.49817,-0.004 0.049,2e-5 -0.0981,0.001 -0.14712,0.002 -0.17436,0.002 -0.34875,0.004 -0.52311,8.9e-4 -0.38424,8.7e-4 -0.76821,0.0242 -1.15254,0.0181 -1.44117,-0.003 -2.88264,-0.0227 -4.32403,-0.0133 -0.2725,-0.006 -0.54488,-0.0193 -0.8175,-0.0173 -0.24594,-0.001 -0.49186,-0.003 -0.73781,-0.003 4.69021,-0.002 3.02204,-0.0158 1.98897,0.004 -0.16209,0.0126 -0.40033,3.2e-4 -0.46473,0.19768 0.10125,0.24836 0.28269,0.44109 0.41447,0.67014 0.15912,0.22532 0.36098,0.39039 0.61176,0.48293 0.27258,0.0972 0.54116,0.20788 0.80657,0.32574 0.25543,0.11072 0.50456,0.24027 0.76934,0.32179 0.0782,0.0142 0.31507,0.0354 0.23572,0.0358 -0.86778,0.005 -3.47117,0.004 -2.60339,-0.001 1.02741,-0.006 2.0586,-0.0125 3.08756,0.003 0.24983,0.008 0.5009,0.0222 0.74416,0.0896 0.27331,0.0805 0.53453,0.20843 0.81752,0.24631 0.30223,0.0613 0.59702,0.14884 0.88945,0.25092 0.93645,0.0929 2.12027,-0.0204 -2.36415,0.0221 -0.0392,3.8e-4 0.0768,0.0202 0.11606,0.0205 0.0437,4e-4 0.19706,-0.0351 0.23888,-0.0441 0.0815,-0.023 0.16051,-0.0561 0.24259,-0.0769 0.14572,-0.0367 0.29994,-0.0378 0.4317,-0.12794 0.0929,-0.0578 0.19609,-0.13365 0.29329,-0.18072 0.11919,-0.0577 0.26072,-0.0692 0.37275,-0.14886 0.31519,-0.10661 0.6183,-0.26571 0.95511,-0.27759 0.34997,-0.0348 0.69676,-0.051 1.0482,-0.0568 0.31162,-0.0222 0.62139,-0.0521 0.9275,-0.12223 0.33597,0.002 0.67198,-0.003 1.00793,-0.006 1.26844,3e-5 2.53381,-0.0184 3.80054,0.0163 0.24386,2e-4 0.48773,5.7e-4 0.73158,0.001 1.77416,0.005 -3.50125,-0.002 -1.99158,0.002 0.24789,-0.001 0.49717,-0.001 0.74247,-0.0448 0.29628,-0.0633 0.58328,-0.1704 0.87073,-0.26455 0.0476,-0.0219 0.0952,-0.0436 0.14276,-0.0655 0.0455,-0.0143 0.0929,-0.0231 0.13668,-0.0429 0.10656,-0.0482 0.19931,-0.13801 0.30335,-0.18939 0.0387,-0.0192 0.0816,-0.0265 0.12245,-0.0397 0.19468,-0.0776 0.45242,-0.2503 0.64248,-0.0813 0.004,0.0863 0.028,0.0957 -0.0575,0.12443 -0.036,0.0121 -0.14915,0.021 -0.11145,0.0209 4.31633,-0.0188 3.29761,-0.33908 2.37961,0.0618 -0.29954,0.13744 -0.60724,0.23803 -0.88034,0.43386 -0.12936,0.0594 -0.25217,0.15084 -0.38161,0.20505 -0.11912,0.0499 -0.26257,0.0389 -0.37937,0.10144 -0.28393,0.0292 -0.56341,0.1055 -0.8476,0.10758 -0.22006,0.003 -0.44504,9.3e-4 -0.65717,0.0724 -0.0647,0.0295 -0.12263,0.0748 -0.18828,0.10144 -0.15688,0.0638 -0.33713,0.0719 -0.48041,0.17974 -0.22947,0.0825 -0.45569,0.17353 -0.68636,0.25057 -0.0727,0.0281 -0.14072,0.0708 -0.21535,0.0923 -0.20021,0.0576 -0.42082,0.0388 -0.6132,0.13525 -1.32288,0.4465 -2.76638,0.0737 -4.14302,0.109 -0.0699,-0.003 -0.61062,-0.0134 -0.63816,-0.0947 -0.0196,-0.0577 -0.0106,-0.12227 -0.0158,-0.1834 -0.0186,-0.0713 -0.0387,-0.14234 -0.0558,-0.21415 -0.005,-0.0188 -0.0155,-0.0393 -0.009,-0.0573 0.0581,-0.15981 0.52559,-0.0989 0.6422,-0.12692 0.50344,-0.046 1.00216,-0.12677 1.49518,-0.2475 0,0 2.65855,0.35964 2.65855,0.35964 z"
       inkscape:connector-curvature="0" />
    <path
       inkscape:export-filename="/home/sade/Desktop/net-game/images/buildings/database.png"
       inkscape:export-xdpi="90"
       inkscape:export-ydpi="90"
       style="fill:#000000;fill-opacity:1"
       id="path3377"
       d="m 404.87242,494.76707 c -0.26738,0.19602 -0.62251,0.21906 -0.93671,0.25429 -1.28756,0.079 -2.5871,0.13065 -3.86919,-0.0347 -0.36748,-0.0862 -0.73937,-0.14013 -1.11393,-0.17111 -0.34705,-0.005 -0.54263,-0.12119 -0.70677,-0.44568 -0.11056,-0.26862 -0.15065,-0.55939 -0.13396,-0.85084 0.0417,-0.28441 0.0777,-0.57882 0.16902,-0.84914 0.11801,-0.26355 0.30256,-0.44447 0.55839,-0.53512 1.13242,-0.39786 2.41047,-0.36442 3.55061,-0.002 0.33713,0.10353 0.66521,0.23371 0.99261,0.36675 0.24402,0.10071 0.48253,0.19299 0.74292,0.2294 0.2791,0.012 0.55836,0.0163 0.83765,0.0176 1.00684,0.002 -0.0388,-1.3e-4 -2.48586,3.8e-4 -0.0427,10e-6 0.0855,2.9e-4 0.12817,3.5e-4 0.12124,1.9e-4 0.23819,0.008 0.35881,-0.006 0.2279,-0.02 0.42027,-0.13015 0.62578,-0.22575 0.2333,-0.13132 0.47024,-0.25102 0.71321,-0.36093 0.23858,-0.11165 0.49308,-0.15843 0.75016,-0.18383 1.151,-0.0549 2.30442,-0.0208 3.45633,-0.0156 0.9746,6.4e-4 2.32942,0.0277 -2.23748,0.002 -0.0815,-4.6e-4 0.16168,-0.0224 0.24208,-0.0366 0.25317,-0.0368 0.48601,-0.15489 0.7268,-0.2396 0.24636,-0.0642 0.48968,-0.1412 0.73877,-0.19286 0.24332,-0.0455 0.49056,-0.0527 0.73686,-0.0575 1.06952,0.0111 2.191,-0.27751 3.21614,0.06 0.0856,0.0282 0.16735,0.0688 0.25217,0.0998 0.23323,0.0802 0.47781,0.0942 0.72055,0.10259 0.93409,0.0163 1.34362,0.0229 -2.48246,-0.003 -0.0401,-2.7e-4 0.08,-0.006 0.11985,-0.0118 0.12464,-0.0165 0.2395,-0.0576 0.359,-0.0974 1.11788,-0.35164 2.31936,-0.18981 3.4696,-0.0512 0.24248,0.0261 0.48634,0.0297 0.72982,0.0322 0.96028,-0.0104 2.19397,0.031 -2.35039,-0.005 -0.0453,-3.6e-4 0.0905,-0.007 0.13501,-0.0171 0.10658,-0.0225 0.16982,-0.0552 0.2712,-0.098 0.26707,-0.1273 0.54355,-0.21441 0.83298,-0.25182 1.18049,-0.0735 2.37994,-0.0257 3.55314,-0.0255 0.24394,0.002 0.4879,0.003 0.73184,0.003 0.25368,0.0532 0.48741,0.16663 0.741,0.22151 0,0 -2.74066,0.39555 -2.74066,0.39555 l 0,0 c -0.23674,-0.0727 -0.4713,-0.17247 -0.72229,-0.15308 -0.24719,-5.4e-4 -0.49438,-0.002 -0.74158,-0.001 4.71877,2.1e-4 3.00352,-0.0163 1.96147,0.008 -0.27697,0.0143 -0.55533,0.0193 -0.80908,0.15652 -0.12018,0.0608 -0.29802,0.20162 -0.43355,0.20537 -1.07343,0.0297 -2.10031,0.0563 -3.15226,0.0194 -0.24556,-0.008 -0.49087,-0.0244 -0.73491,-0.0564 -0.93768,-0.0997 -2.13401,0.019 2.3596,-0.0234 0.0392,-3.7e-4 -0.0767,-0.0204 -0.11588,-0.0208 -0.0458,-4.9e-4 -0.19495,0.0349 -0.23883,0.0446 -0.12785,0.0376 -0.24737,0.0941 -0.37337,0.13539 -0.98641,0.32251 -2.06783,0.10725 -3.09497,0.0384 -0.25349,-0.0281 -0.50335,-0.0783 -0.74417,-0.17083 -0.1273,-0.0403 -0.10786,-0.0396 -0.23607,-0.0597 -0.0399,-0.006 -0.16048,-0.0152 -0.12015,-0.0154 4.49831,-0.0252 3.30177,0.006 2.35981,8e-4 -0.24267,-1.7e-4 -0.48572,-0.002 -0.72787,0.0176 -0.24872,0.027 -0.48432,0.0974 -0.72595,0.15802 -0.2561,0.0608 -0.48905,0.18307 -0.73793,0.26894 -1.13986,0.20936 -2.30599,0.0749 -3.46012,0.0815 -1.0117,-9.6e-4 0.32564,3.5e-4 2.47816,-4.2e-4 0.0407,-10e-6 -0.0813,-4.2e-4 -0.12194,-5.8e-4 -0.12166,-4.8e-4 -0.24333,-9.1e-4 -0.36498,8e-4 -0.24076,0.005 -0.48457,0.0127 -0.71591,0.0931 -0.25326,0.0999 -0.50718,0.20416 -0.73327,0.3658 -0.12175,0.0389 -0.23668,0.0829 -0.3493,0.14738 -0.0422,0.0242 -0.0794,0.0592 -0.12409,0.0774 -0.0653,0.0266 -0.14261,0.002 -0.20638,0.039 -0.0641,0.0209 -0.124,0.0583 -0.19005,0.0704 -0.0808,0.0148 -0.16395,0.002 -0.24593,0.002 -2.70009,0.001 -1.92151,0.004 -3.00152,-1.8e-4 -0.27587,-0.003 -0.55624,-0.001 -0.82592,-0.0715 -0.2833,-0.0701 -0.55614,-0.17727 -0.83584,-0.26183 -0.33497,-0.1127 -0.67132,-0.21913 -1.00047,-0.35054 -0.0412,-0.0124 -0.0815,-0.029 -0.12365,-0.0371 -0.0369,-0.007 -0.14975,-0.008 -0.11224,-0.009 0.8668,-0.006 1.73366,9.9e-4 2.60043,-0.007 0.0391,-3.9e-4 -0.077,-0.0181 -0.11613,-0.0173 -0.0444,8.7e-4 -0.19776,0.041 -0.24,0.0515 -0.18657,0.0583 -0.41529,0.0176 -0.48976,0.25593 -0.0694,0.25979 -0.17106,0.50973 -0.20056,0.78025 -0.0254,0.20949 -0.0183,0.44951 0.11211,0.61864 0.24669,0.18222 0.55524,0.1667 0.84259,0.18908 0.3705,0.0389 0.73608,0.10977 1.10188,0.1818 1.00473,0.12067 2.03137,0.0417 -2.32784,0.0457 -0.0464,5e-5 0.0928,-0.003 0.13916,-0.005 0.13828,-0.006 0.16928,-0.009 0.3104,-0.0189 0.39133,-0.032 0.77913,-0.0888 1.16754,-0.14965 0,0 2.65855,0.35964 2.65855,0.35964 z"
       inkscape:connector-curvature="0" />
    <path
       inkscape:export-filename="/home/sade/Desktop/net-game/images/buildings/database.png"
       inkscape:export-xdpi="90"
       inkscape:export-ydpi="90"
       style="fill:#000000;fill-opacity:1"
       id="path3379"
       d="m 408.40007,492.67642 c -0.29842,0.0208 -0.59692,0.0275 -0.89514,0.0589 -1.16995,0.0684 -2.61517,0.64605 -3.60853,-0.0179 -0.17448,-0.22176 -0.31248,-0.29132 -0.38809,-0.58564 0,0 2.7424,-0.11858 2.7424,-0.11858 l 0,0 c 0.0939,0.14403 0.18572,0.31055 0.3639,0.32072 0.95038,0.007 1.20153,0.008 -2.49567,0.008 -0.0421,1e-5 0.0841,-0.004 0.12609,-0.007 0.0926,-0.007 0.17379,-0.015 0.26612,-0.0271 0.0483,-0.006 0.0966,-0.0138 0.14482,-0.0207 0.36976,-0.0596 0.7349,-0.10954 1.10974,-0.0603 0,0 2.63436,0.44954 2.63436,0.44954 z"
       inkscape:connector-curvature="0" />
    <path
       inkscape:export-filename="/home/sade/Desktop/net-game/images/buildings/database.png"
       inkscape:export-xdpi="90"
       inkscape:export-ydpi="90"
       style="fill:#000000;fill-opacity:1"
       id="path3381"
       d="m 404.02977,494.54647 c -0.0799,-0.40281 0.0877,-0.81153 0.22104,-1.18292 0.11942,-0.31201 0.0684,-0.65813 0.0968,-0.98772 0.009,-0.34688 0.15145,-0.58012 0.31881,-0.85749 0.11877,-0.14996 0.0592,-0.0773 0.1785,-0.21821 0,0 2.76065,0.24477 2.76065,0.24477 l 0,0 c -0.12651,0.10679 -0.0681,0.0525 -0.17628,0.16161 -0.1514,0.19765 -0.28477,0.41261 -0.27278,0.67965 0.0122,0.35397 0.0862,0.70638 0.0155,1.0607 -0.0637,0.42635 -0.16241,0.88756 -0.4643,1.19248 0,0 -2.67803,-0.0929 -2.67803,-0.0929 z"
       inkscape:connector-curvature="0" />
    <path
       inkscape:export-filename="/home/sade/Desktop/net-game/images/buildings/database.png"
       inkscape:export-xdpi="90"
       inkscape:export-ydpi="90"
       style="fill:#000000;fill-opacity:1"
       id="path3383"
       d="m 405.08855,495.01118 c -0.17112,-0.37605 -0.10724,-0.66901 0.0343,-1.03597 0.49748,-1.27557 2.23373,-0.49326 3.18702,-0.45906 0.16631,0.26404 0.23393,0.57654 0.26716,0.88922 0.0265,0.26703 -0.0181,0.52818 -0.0648,0.78895 0,0 -2.78739,-0.0472 -2.78739,-0.0472 l 0,0 c 0.0277,-0.24144 0.0553,-0.48064 0.032,-0.72444 8.4e-4,-0.16951 0.0623,-0.48772 -0.0922,-0.59613 0.85627,0.004 1.71256,0.0209 2.56879,0.0119 0.0464,-4.9e-4 -0.0672,-0.0643 -0.13689,-0.0322 -0.0969,0.0445 -0.13657,0.17687 -0.17976,0.26676 -0.0676,0.29578 -0.0369,0.61304 -0.1582,0.89075 0,0 -2.66996,0.0475 -2.66996,0.0475 z"
       inkscape:connector-curvature="0" />
    <path
       inkscape:export-filename="/home/sade/Desktop/net-game/images/buildings/database.png"
       inkscape:export-xdpi="90"
       inkscape:export-ydpi="90"
       style="fill:#000000;fill-opacity:1"
       id="path3385"
       d="m 413.49207,494.24482 c -0.23666,-0.28682 -0.30008,-0.66423 -0.41451,-1.01559 -0.0634,-0.21031 -0.10969,-0.42539 -0.16647,-0.63782 0,0 2.98219,-0.062 2.98219,-0.062 l 0,0 c 0.0196,0.20205 0.0311,0.40578 0.07,0.60496 0.0851,0.33223 0.27079,0.66557 0.20682,1.0175 0,0 -2.67804,0.0929 -2.67804,0.0929 z"
       inkscape:connector-curvature="0" />
    <path
       inkscape:export-filename="/home/sade/Desktop/net-game/images/buildings/database.png"
       inkscape:export-xdpi="90"
       inkscape:export-ydpi="90"
       style="fill:#000000;fill-opacity:1"
       id="path3387"
       d="m 411.71405,494.69519 c -0.36699,-0.28026 -0.48208,-0.71539 -0.53993,-1.17152 -0.0254,-0.25862 -0.0231,-0.51893 -0.0208,-0.77857 0,0 2.7705,-0.008 2.7705,-0.008 l 0,0 c 0.0154,0.24078 0.0414,0.48113 0.12164,0.70856 0.0664,0.17945 0.1422,0.34924 0.22378,0.52127 0.0414,0.0872 0.13497,0.27381 0.15969,0.37217 0.0124,0.0492 0.009,0.10134 0.0139,0.15201 0,0 -2.72878,0.20458 -2.72878,0.20458 z"
       inkscape:connector-curvature="0" />
    <path
       inkscape:export-filename="/home/sade/Desktop/net-game/images/buildings/database.png"
       inkscape:export-xdpi="90"
       inkscape:export-ydpi="90"
       style="fill:#000000;fill-opacity:1"
       id="path3389"
       d="m 414.86935,493.67235 c -0.13767,-0.32469 -0.12386,-0.70919 -0.1073,-1.06036 -0.002,-0.20748 -0.0189,-0.41432 -0.0317,-0.62123 0,0 2.79811,-0.0399 2.79811,-0.0399 l 0,0 c 0.041,0.21983 0.0905,0.43817 0.11537,0.66108 0.0165,0.35117 0.0304,0.73568 -0.1073,1.06037 0,0 -2.6672,0 -2.6672,0 z"
       inkscape:connector-curvature="0" />
    <path
       inkscape:export-filename="/home/sade/Desktop/net-game/images/buildings/database.png"
       inkscape:export-xdpi="90"
       inkscape:export-ydpi="90"
       style="fill:#000000;fill-opacity:1"
       id="path3391"
       d="m 412.7755,493.91964 c -0.0959,-0.23305 -0.0553,-0.1084 -0.11712,-0.37567 0,0 2.93909,0 2.93909,0 l 0,0 c -0.0619,0.26727 -0.0213,0.14262 -0.11711,0.37567 0,0 -2.70486,0 -2.70486,0 z"
       inkscape:connector-curvature="0" />
    <path
       inkscape:export-filename="/home/sade/Desktop/net-game/images/buildings/database.png"
       inkscape:export-xdpi="90"
       inkscape:export-ydpi="90"
       style="fill:#000000;fill-opacity:1"
       id="path3393"
       d="m 413.37,494.24482 c -0.3336,-0.41466 -0.47388,-0.96497 -0.53819,-1.49941 -0.004,-0.0826 -0.008,-0.16518 -0.0112,-0.24776 0,0 3.03169,-0.0594 3.03169,-0.0594 l 0,0 c 0.0239,0.0793 0.0477,0.15848 0.0716,0.23773 0.10407,0.37904 0.25187,0.91037 0.18379,1.30768 -0.0101,0.0591 -0.0397,0.11218 -0.0596,0.16826 0,0 -2.67805,0.0929 -2.67805,0.0929 z"
       inkscape:connector-curvature="0" />
    <path
       inkscape:export-filename="/home/sade/Desktop/net-game/images/buildings/database.png"
       inkscape:export-xdpi="90"
       inkscape:export-ydpi="90"
       style="fill:#000000;fill-opacity:1"
       id="path3395"
       d="m 416.05534,493.8503 c -0.31017,-0.32192 -0.4336,-0.79662 -0.49437,-1.24361 -0.0472,-0.23826 -0.0753,-0.47982 -0.0976,-0.72199 0,0 2.82842,-0.0651 2.82842,-0.0651 l 0,0 c 0.0766,0.2402 0.17062,0.47272 0.25061,0.71163 0.12255,0.39283 0.23276,0.80777 0.19097,1.22615 0,0 -2.67803,0.0929 -2.67803,0.0929 z"
       inkscape:connector-curvature="0" />
    <path
       inkscape:export-filename="/home/sade/Desktop/net-game/images/buildings/database.png"
       inkscape:export-xdpi="90"
       inkscape:export-ydpi="90"
       style="fill:#000000;fill-opacity:1"
       id="path3397"
       d="m 414.93572,493.87111 c -0.36607,-0.38884 -0.60237,-0.87918 -0.75054,-1.40507 -0.0879,-0.29714 -0.0492,-0.15066 -0.11727,-0.43907 0,0 2.97926,-0.12865 2.97926,-0.12865 l 0,0 c 0.15611,0.28123 0.0779,0.13501 0.23384,0.43915 0.13047,0.27559 0.21032,0.49382 0.28243,0.79283 0.0485,0.20101 0.11884,0.39679 0.0633,0.6063 0,0 -2.69098,0.13451 -2.69098,0.13451 z"
       inkscape:connector-curvature="0" />
    <path
       inkscape:export-filename="/home/sade/Desktop/net-game/images/buildings/database.png"
       inkscape:export-xdpi="90"
       inkscape:export-ydpi="90"
       style="fill:#000000;fill-opacity:1"
       id="path3399"
       d="m 417.25365,493.22385 c 0.2291,0.0633 0.50284,0.0335 0.71844,0.15304 0.12355,0.0684 0.16663,0.154 0.25054,0.26834 0.0339,0.0637 0.0677,0.12743 0.10159,0.19115 0,0 -2.86443,0.17301 -2.86443,0.17301 l 0,0 c -0.0249,-0.0372 -0.0497,-0.0744 -0.0746,-0.11153 -0.24765,-0.15548 -0.5535,-0.13631 -0.79013,-0.31436 0,0 2.65855,-0.35965 2.65855,-0.35965 z"
       inkscape:connector-curvature="0" />
    <path
       inkscape:export-filename="/home/sade/Desktop/net-game/images/buildings/database.png"
       inkscape:export-xdpi="90"
       inkscape:export-ydpi="90"
       style="fill:#000000;fill-opacity:1"
       id="path3401"
       d="m 416.52706,493.96415 c 0.0437,0.0306 0.0541,0.0859 0.0656,0.13697 -8.1e-4,0.0346 0.0187,0.0922 0.006,0.12428 -0.002,0.006 -0.008,0.0109 -0.0115,0.0164 -0.099,0.14811 -0.32996,0.0576 -0.41554,-0.0628 -0.0258,-0.0361 -0.0402,-0.079 -0.057,-0.1201 -0.0309,-0.0967 -0.0299,-0.19662 -0.0199,-0.29665 0.007,-0.0479 0.002,-0.0884 0.0297,-0.12879 0.17463,-0.19559 0.34279,-0.053 0.42079,0.0869 0.0208,0.0446 0.026,0.0942 0.044,0.13993 0.003,0.004 0.004,0.009 0.008,0.0117 0.02,0.0132 0.0947,0.011 0.11969,0.0121 0.12473,0.004 0.2967,0.004 -0.29325,9.4e-4 -0.0139,-8e-5 0.0276,-0.004 0.0415,-0.004 0.12002,5.8e-4 0.24005,0.003 0.36008,0.004 0.0351,0.0218 0.0403,0.0499 0.0307,0.0899 -0.004,0.0129 -0.006,0.0242 -0.0155,0.0346 -0.0258,0.0286 -0.0867,0.0322 -0.12031,0.0375 -0.0191,0.002 -0.0382,0.006 -0.0574,0.006 -0.30063,0.003 -0.61037,0.0115 -0.91271,-0.0123 -0.10187,-0.008 -0.20335,-0.021 -0.30506,-0.0311 -0.24437,-0.0265 -0.48942,-0.0421 -0.73438,-0.0601 -0.16672,-0.0198 -0.47365,-0.006 0.28998,-0.0113 0.0214,-1.4e-4 -0.0427,-9e-4 -0.0641,-7.2e-4 -0.0463,3.8e-4 -0.0495,0.001 -0.093,0.005 -0.069,0.0105 -0.12768,0.0516 -0.18873,0.0846 -0.0663,0.0411 -0.13825,0.0707 -0.20373,0.1135 -0.0455,0.0362 -0.0701,0.0629 -0.0549,0.12506 0.0181,0.0461 0.053,0.0806 0.0896,0.10992 0.006,0.004 0.0118,0.009 0.0182,0.0126 0.0169,0.009 0.0256,0.0104 0.0445,0.0104 0.0116,2.2e-4 0.0463,-7.8e-4 0.0348,-9.1e-4 -0.34692,-0.004 -0.46371,0.0104 -0.3172,-0.006 0.0856,-0.0211 0.16162,-0.073 0.23849,-0.11703 0.0636,-0.0352 0.12789,-0.0835 0.19711,-0.10479 0.002,0.004 0.009,0.008 0.007,0.0131 -0.005,0.009 -0.0345,0.0192 -0.0244,0.02 0.41261,0.0325 0.41816,-0.0331 0.27908,0.0215 -0.0126,0.005 -0.0249,0.0104 -0.0375,0.0152 -0.11792,0.0358 -0.24075,0.0489 -0.36275,0.0556 -0.0198,0.012 -0.47958,0.11981 -0.4587,-0.10529 9.7e-4,-0.0105 0.005,-0.0204 0.008,-0.0306 0.0113,-0.0243 0.0141,-0.0362 0.0342,-0.0545 0.0374,-0.0337 0.0915,-0.0468 0.13728,-0.0596 0.33758,-0.0495 0.71352,-0.002 1.05396,0.0495 0.38349,0.0484 0.76096,0.13821 1.14025,0.21392 0.28211,0.0554 0.56822,0.0763 0.8541,0.0925 0.031,0.002 0.0621,0.004 0.0931,0.005 0.089,0.005 0.057,0.005 0.14688,0.007 0.0243,5.9e-4 0.0969,0.001 0.0728,0.001 -0.54214,0.002 -0.55026,0.003 -0.34691,-0.001 0.1848,-0.012 0.36014,-0.081 0.53639,-0.13634 0.17624,-0.0582 0.35519,-0.10584 0.53278,-0.15892 0.0594,-0.0223 0.12961,-0.0268 0.16675,-0.0868 0.016,-0.0232 0.0206,-0.0517 0.0299,-0.0779 0.007,-0.0194 0.0119,-0.0277 0.0212,-0.0456 0.0236,-0.0442 0.0472,-0.0881 0.0789,-0.12604 0.0295,-0.0485 0.0663,-0.0906 0.10004,-0.13559 0.04,-0.0473 0.088,-0.086 0.13589,-0.12358 0.0435,-0.0314 0.078,-0.0738 0.11785,-0.11009 0.0409,-0.0402 0.0857,-0.0733 0.13467,-0.10092 0.0557,-0.0326 0.11451,-0.0575 0.17315,-0.0829 0.0761,-0.0338 0.15192,-0.0661 0.2312,-0.0907 0.0542,-0.0154 0.10677,-0.0359 0.15819,-0.0598 0.0388,-0.0144 0.0652,-0.0459 0.0945,-0.0751 0.005,-0.006 0.0103,-0.0133 0.0159,-0.0196 0.0214,-0.0243 0.0158,-0.0132 0.0341,-0.0401 0.0156,-0.0231 0.0297,-0.0473 0.0457,-0.0702 0.0258,-0.0371 0.0444,-0.0793 0.0703,-0.11601 0.10419,-0.0913 0.18426,-0.0293 0.36962,-0.0116 0.006,5.7e-4 0.032,0.0666 0.0346,0.0743 0.0173,0.0733 0.0166,0.12857 -0.01,0.1989 -0.026,0.0616 -0.0743,0.0937 -0.12947,0.11949 -0.0401,0.0187 -0.0821,0.0311 -0.12482,0.0404 -0.048,0.0123 -0.0957,0.0268 -0.14253,0.0436 -0.0566,0.0238 -0.11467,0.0412 -0.17352,0.0574 -0.0603,0.0173 -0.11976,0.037 -0.18166,0.0468 -0.0553,0.005 -0.11043,0.0125 -0.16501,0.0236 -0.0749,0.016 -0.15124,0.0194 -0.2273,0.0221 -0.0804,0.002 -0.16088,-9e-4 -0.2413,3.4e-4 -0.15016,0.011 -0.27916,0.005 -0.43872,-0.0214 -0.008,-0.001 -0.002,-0.0179 -0.003,-0.0269 0.002,-0.007 0.002,-0.0154 0.005,-0.0223 0.0202,-0.0448 0.0993,-0.0865 0.13772,-0.11375 0.0939,-0.0641 0.20358,-0.0909 0.31139,-0.11304 0.0576,-0.0118 0.11551,-0.0217 0.17394,-0.027 0.15307,-0.009 0.30658,-0.001 0.45987,-0.003 -0.66123,-0.0392 -0.38533,0.0225 -0.26692,-0.009 0.0161,-0.004 0.0315,-0.0108 0.0473,-0.0159 0.14178,-0.0539 0.25658,-0.0338 0.42907,-0.02 0.008,6.3e-4 0.003,0.0169 0.004,0.0253 0.002,0.0105 0.003,0.0209 0.005,0.0315 -0.008,0.0847 -0.0752,0.12977 -0.13621,0.17151 -0.0835,0.0464 -0.17422,0.0718 -0.26588,0.091 -0.0697,0.0135 -0.14064,0.0178 -0.21138,0.0197 -0.22103,0.005 -0.44221,0.001 -0.66331,0.004 -0.14778,-8.5e-4 -0.39983,-0.004 0.28113,-4.8e-4 0.0147,8e-5 -0.0295,9.5e-4 -0.0442,0.002 -0.0481,0.002 -0.0321,9.6e-4 -0.0762,0.006 -0.006,5.2e-4 -0.0486,0.005 -0.0576,0.003 -0.005,-9.2e-4 -0.0134,-0.002 -0.0141,-0.007 -0.002,-0.0131 0.02,-0.0371 0.008,-0.0387 -0.24809,-0.0341 -0.41645,0.0395 -0.30021,-0.009 0.0706,-0.02 0.14305,-0.0277 0.21573,-0.0326 0.0565,-0.005 0.11405,6e-5 0.17005,-0.0108 0.0304,-0.006 0.0614,-0.0164 0.0926,-0.016 0.28886,0.002 0.36477,-0.12206 0.37894,0.0467 8.9e-4,0.0611 -0.0299,0.0847 -0.074,0.11467 -0.0375,0.0233 -0.0763,0.0435 -0.1178,0.0569 -0.0401,0.0148 -0.0818,0.0231 -0.12347,0.0306 -0.16165,0.0297 -0.18708,-8.5e-4 -0.41586,-0.0361 0.0222,-0.0296 0.0572,-0.039 0.0875,-0.0554 0.0673,-0.0365 1.3e-4,-0.007 0.0864,-0.0409 0.10564,-0.0344 0.21691,-0.0424 0.31991,-0.0858 0.0696,-0.0312 0.13516,-0.0711 0.20515,-0.10155 0.047,-0.0195 0.094,-0.0382 0.14348,-0.0485 0.0553,-0.005 0.10946,-0.0178 0.16388,-0.0289 0.0647,-0.0172 0.12891,-0.036 0.19452,-0.0483 0.0341,-0.004 0.0682,-0.0144 0.10262,-0.0146 0.0389,-2.5e-4 0.32892,-0.0971 0.41392,0.0239 0.0182,0.0368 0.0322,0.0809 0.0219,0.12269 -0.003,0.0104 -0.007,0.0198 -0.0107,0.0298 -0.0312,0.0787 -0.0999,0.11551 -0.17011,0.14472 -0.0562,0.0234 -0.11347,0.0428 -0.17166,0.0592 -0.1356,0.0384 -0.35584,0.1313 -0.43136,-0.0168 -0.003,-0.0258 -0.01,-0.0547 -0.003,-0.0805 0.004,-0.0162 0.0137,-0.0304 0.0205,-0.0456 0.0334,-0.0458 0.0798,-0.0797 0.12667,-0.10801 0.0428,-0.0254 0.0857,-0.0505 0.12959,-0.0738 0.0393,-0.0206 0.076,-0.0456 0.11348,-0.0698 0.0348,-0.0198 0.0702,-0.0382 0.10275,-0.0622 0.11822,-0.0769 0.32209,-0.095 0.42449,-0.0227 0.0301,0.033 0.0274,0.0765 0.0106,0.11608 -0.0291,0.0547 -0.0798,0.0835 -0.13026,0.11084 -0.0533,0.0283 -0.11179,0.0404 -0.16675,0.0637 -0.006,0.003 -0.0131,0.004 -0.019,0.008 -0.0168,0.0104 -0.0301,0.0296 -0.0443,0.0432 -0.006,0.006 -0.0358,0.0324 -0.0413,0.0373 -0.0592,0.043 -0.12637,0.0678 -0.19309,0.093 -0.0652,0.0256 -0.13452,0.0306 -0.20298,0.0367 -0.0613,0.007 -0.12173,0.0204 -0.1822,0.0331 -0.13799,0.0193 -0.42265,0.13307 -0.46498,-0.006 -0.003,-0.009 -0.003,-0.0184 -0.005,-0.0276 1.4e-4,-0.0161 -9.5e-4,-0.0401 0.004,-0.0557 0.007,-0.0199 0.0332,-0.0587 0.0465,-0.0738 0.008,-0.009 0.0172,-0.016 0.0258,-0.0241 0.0536,-0.0412 0.11235,-0.0744 0.1724,-0.10321 0.005,-0.003 0.0483,-0.029 0.0531,-0.0242 0.003,0.003 6.7e-4,0.0106 -0.003,0.0128 -0.009,0.006 -0.0206,0.007 -0.0313,0.008 -0.0189,0.002 -0.0379,0.002 -0.0569,0.003 0.66919,-0.02 0.39329,-0.001 0.24303,0.0286 -0.0938,0.0188 -0.18697,0.041 -0.28051,0.0611 -0.27715,0.062 -0.56031,0.0814 -0.84211,0.10217 -0.11036,0.006 -0.22057,0.0159 -0.33115,0.0172 -0.0112,1.3e-4 -0.0907,2.5e-4 -0.11063,-0.003 -0.10989,-0.0186 -0.21929,-0.0405 -0.32893,-0.0607 0.006,-0.003 0.0117,-0.007 0.018,-0.009 0.0212,-0.007 0.0746,-0.0161 0.0923,-0.0197 0.0812,-0.0159 0.16204,-0.0274 0.24406,-0.0374 0.29647,-0.032 0.59515,-0.0128 0.89219,-0.006 0.0451,0.0495 0.0418,0.11171 0.0254,0.17414 -0.0367,0.0772 -0.0826,0.11205 -0.15953,0.13217 -0.12609,-0.004 -0.25267,4.6e-4 -0.37827,-0.0122 -0.009,-9e-4 -0.007,-0.0178 -0.01,-0.0269 -0.013,-0.0397 -0.0234,-0.0837 -0.0125,-0.12577 0.005,-0.0178 0.0147,-0.0335 0.022,-0.0502 0.0624,-0.10217 0.1552,-0.17583 0.25908,-0.2236 0.0225,-0.0104 0.046,-0.0175 0.069,-0.0263 0.17543,-0.0512 0.30131,-0.02 0.50312,-0.0114 0,0 -0.33156,0.0403 -0.33156,0.0403 l 0,0 c 0.51004,0.007 0.40558,-0.0475 0.28557,0.0282 -0.054,0.035 -0.10904,0.0682 -0.16406,0.10123 -0.0441,0.0264 -0.0909,0.051 -0.13311,0.0811 -0.0172,0.0123 -0.0331,0.0268 -0.0496,0.0401 -0.0258,0.0272 -0.0492,0.0509 -0.0736,0.0796 -0.0101,0.0119 -0.0304,0.0282 -0.0224,0.0419 0.002,0.004 0.0176,0.004 0.013,0.004 -0.11315,0.002 -0.22634,0.002 -0.33951,0.003 0.006,4.9e-4 0.0114,0.003 0.0169,0.001 0.007,-0.002 0.013,-0.006 0.0192,-0.009 0.0389,-0.0214 0.0718,-0.0512 0.10017,-0.0872 0.008,-0.0104 0.0425,-0.0441 0.0346,-0.0632 -0.0101,-0.0243 -0.0569,-0.0273 -0.0743,-0.0283 0.126,8e-5 0.252,-7e-4 0.378,2.3e-4 0.0109,9e-5 -0.0218,0.001 -0.0326,0.002 -0.0163,0.002 -0.0326,0.004 -0.0488,0.006 -0.0806,0.009 -0.16154,0.0146 -0.24232,0.0221 -0.17936,0.0168 -0.35929,0.0395 -0.53953,0.0344 -0.12499,-0.0177 -0.25002,-0.0351 -0.37497,-0.0532 -0.004,-5.7e-4 -0.0104,0.001 -0.0117,-0.003 -9.9e-4,-0.004 0.005,-0.006 0.008,-0.008 0.009,-0.005 0.0193,-0.008 0.0293,-0.0113 0.0465,-0.0142 0.0902,-0.0222 0.13805,-0.0324 0.2792,-0.0405 0.56015,-0.064 0.83989,-0.0999 0.0483,-0.005 0.0968,-0.008 0.14498,-0.0142 0.041,-0.005 0.0819,-0.0115 0.12279,-0.0171 0.0364,-0.005 0.0728,-0.0114 0.10938,-0.0157 0.22458,-0.0265 0.45203,-0.008 0.67684,-0.009 0.005,0.003 0.0113,0.005 0.0149,0.0104 0.006,0.007 0.0176,0.0533 0.0166,0.0633 -9.9e-4,0.0135 -0.0134,0.0218 -0.0213,0.0298 -0.0432,0.0426 -0.0977,0.0698 -0.1471,0.1029 -0.0448,0.0295 -0.089,0.0605 -0.12502,0.10206 0.006,0.004 0.0279,0.003 0.0209,0.003 -0.57568,0.003 -0.40052,0.0276 -0.27007,-0.0137 0.0581,-0.009 0.11483,-0.0268 0.1728,-0.0375 0.0667,-0.009 0.13445,-0.009 0.19988,-0.0281 0.0673,-0.022 0.13001,-0.0558 0.19489,-0.0847 0.0488,-0.02 0.0961,-0.0475 0.13369,-0.0872 0.0174,-0.0117 0.0345,-0.0261 0.0532,-0.0352 0.0277,-0.0133 0.0581,-0.0201 0.0862,-0.0328 0.0543,-0.0247 0.10927,-0.0485 0.15602,-0.0881 0.005,-0.005 0.0106,-0.0104 0.016,-0.0151 0.0198,-0.0176 0.0304,-0.0221 -0.005,-0.029 -0.12218,0.006 -0.004,10e-6 0.31045,-0.002 0.005,-3e-5 -0.009,3.3e-4 -0.014,7.6e-4 -0.013,0.001 -0.0254,0.003 -0.0365,0.0113 -0.009,0.008 -0.0167,0.0171 -0.0262,0.0239 -0.005,0.003 -0.0109,0.005 -0.0156,0.009 -0.005,0.004 -0.008,0.009 -0.013,0.0132 -0.004,0.003 -0.0292,0.0188 -0.0332,0.0213 -0.0382,0.0271 -0.0774,0.0524 -0.1194,0.0721 -0.0391,0.0242 -0.0767,0.0509 -0.11635,0.0742 -0.0449,0.0277 -0.0893,0.0566 -0.12791,0.0942 -0.007,0.005 -0.0152,0.0104 -0.0217,0.0167 -0.003,0.003 -0.0312,0.0382 -0.0328,0.0422 -0.003,0.007 9.9e-4,0.0104 0.005,0.0144 0.006,0.002 0.0254,0.002 0.019,0.002 -0.77788,6.4e-4 -0.37164,0.0272 -0.27912,-0.008 0.0439,-0.0201 0.0877,-0.0398 0.13095,-0.0616 0.0663,-0.0321 0.13584,-0.0614 0.19056,-0.11449 0.0149,-0.0209 0.0572,-0.0735 0.021,-0.0927 -0.10825,-0.0146 -0.46331,-0.005 0.30364,-0.003 0.008,3e-5 -0.0159,7.7e-4 -0.0239,0.002 -0.01,0.001 -0.019,0.004 -0.0286,0.006 -0.0113,0.002 -0.0226,0.004 -0.0339,0.006 -0.0695,0.009 -0.13689,0.0276 -0.20512,0.0447 -0.0588,0.0133 -0.11855,0.0263 -0.17855,0.0296 -0.0467,0.003 -0.0915,0.0111 -0.13272,0.0372 -0.0569,0.0352 -0.11377,0.0702 -0.1694,0.10773 -0.0855,0.0423 -0.17352,0.0783 -0.26583,0.0994 -0.0241,0.005 -0.0481,0.011 -0.0722,0.0166 -0.0241,0.004 -0.0483,0.008 -0.0723,0.0136 -0.0525,0.0118 -0.10304,0.0331 -0.15644,0.0409 -0.0154,-0.002 -0.51295,-0.0199 -0.2866,-0.0594 0.047,-0.009 0.0942,-0.0164 0.14118,-0.0254 0.036,-0.007 0.0663,-0.0254 0.0968,-0.047 0.0345,-0.0237 0.0702,-0.0466 0.10707,-0.0646 -0.12221,0.0105 -0.19785,-7.7e-4 0.31863,0.001 0.006,3e-5 -0.0117,6.9e-4 -0.0175,0.002 -0.0206,0.004 -0.0405,0.011 -0.0611,0.0143 -0.0524,0.007 -0.10462,0.0104 -0.15721,0.0155 -0.0788,0.0105 -0.15776,0.0197 -0.23689,0.0266 -0.12829,0.008 -0.26479,0.0179 -0.38769,0.005 -0.0123,-0.001 -0.002,-0.0267 -0.005,-0.0395 -0.002,-0.007 -0.0132,-0.0161 -0.008,-0.0213 0.004,-0.004 0.009,-0.004 0.014,-0.007 0.0174,-0.004 0.0345,-0.0107 0.0521,-0.0139 0.0121,-0.002 0.0243,-0.003 0.0364,-0.004 0.18649,-0.003 0.37314,-0.003 0.55969,-0.004 0.0293,5.4e-4 0.0586,0.001 0.088,0.002 0.0135,2.2e-4 0.0541,4.9e-4 0.0405,5.5e-4 -0.65321,0.003 -0.42216,-0.001 -0.28063,0.002 0.0654,-4.3e-4 0.13114,-4.6e-4 0.1956,-0.0142 0.0826,-0.0191 0.16459,-0.0446 0.24207,-0.0811 0.0753,-0.0362 0.1475,-0.0798 0.21417,-0.13223 0.005,-0.001 0.009,-0.002 0.0142,-0.003 -0.002,0.002 -0.008,0.006 -0.005,0.006 0.50179,0.008 0.40146,-0.0443 0.27509,0.0217 -0.17106,0.0626 -0.30627,0.035 -0.50896,0.0347 -0.12842,-0.003 -0.0206,-4.1e-4 0.31055,-8.6e-4 0.006,-2e-5 -0.0116,-6e-5 -0.0174,-10e-5 -0.0124,-9e-5 -0.0247,-5.3e-4 -0.037,-4.7e-4 -0.005,3e-5 -0.01,3.2e-4 -0.0147,4.8e-4 -0.0389,0.003 -0.0763,0.0125 -0.1123,0.029 -0.0385,0.0152 -0.078,0.0265 -0.11673,0.0411 -0.057,0.0216 -0.11175,0.0501 -0.17069,0.0656 -0.0166,0.007 -0.0773,0.0318 -0.0967,0.0414 -0.0958,0.0476 0.0269,-0.007 -0.0775,0.038 -0.0115,0.005 -0.0222,0.0124 -0.0339,0.017 -0.01,0.004 -0.0195,0.005 -0.0292,0.008 -0.10977,-0.0274 -0.4429,0.023 -0.33751,-0.0199 0.0174,-0.007 -8.9e-4,-0.005 0.0279,-0.0119 0.009,-0.002 0.018,-0.002 0.027,-0.004 0.071,-0.007 0.1427,-0.003 0.21396,-0.006 0.0856,-0.001 0.17125,-0.002 0.25643,-0.0116 0.0581,-0.008 0.11592,-0.0179 0.1744,-0.0225 0.06,-0.009 0.11864,-0.0237 0.17645,-0.0438 0.0608,-0.015 0.12106,-0.0325 0.18013,-0.0539 0.0519,-0.0158 0.10267,-0.0341 0.15583,-0.0445 0.042,-0.0121 0.0865,-0.0153 0.12716,-0.0323 0.0419,-0.022 0.0823,-0.0475 0.10827,-0.0909 0.0216,-0.0573 0.0177,-0.11661 0.022,-0.17729 9.9e-4,-0.0132 0.005,-0.0261 0.006,-0.0395 9e-5,-0.001 -0.003,-0.004 -0.002,-0.004 0.10681,-9.2e-4 0.21363,6.9e-4 0.32043,0.001 -0.007,-0.007 -0.003,-0.006 -0.011,-0.003 -0.0209,0.0355 -0.0357,0.0753 -0.0489,0.11475 -0.0239,0.0533 -0.0586,0.10331 -0.10113,0.14077 -0.033,0.032 -0.0687,0.0605 -0.10674,0.0852 -0.0395,0.0235 -0.0768,0.0515 -0.1184,0.0709 -0.0335,0.0124 -0.065,0.0288 -0.098,0.0423 -0.0409,0.0167 -0.0831,0.0299 -0.12366,0.0477 -0.068,0.0241 -0.13762,0.0445 -0.20319,0.0758 -0.0493,0.0202 -0.0951,0.0507 -0.13367,0.0897 -0.0399,0.0367 -0.0811,0.0718 -0.11885,0.11123 -0.0425,0.0401 -0.0865,0.0783 -0.12888,0.11859 -0.0167,0.0162 -0.0267,0.0248 -0.0409,0.0431 -0.006,0.007 -0.0102,0.0163 -0.0162,0.0235 -0.0181,0.022 -0.0396,0.0412 -0.0568,0.0643 -0.0261,0.0402 -0.0644,0.0699 -0.0802,0.11771 -0.0179,0.0432 -0.0471,0.0798 -0.0598,0.12559 -0.0221,0.0466 -0.0422,0.0936 -0.0853,0.12229 -0.0267,0.0196 -0.0475,0.0358 -0.0766,0.0528 -0.0995,0.0579 -0.20889,0.0938 -0.31618,0.13052 -0.19912,0.0649 -0.40128,0.12391 -0.60956,0.14072 -0.27857,0.009 -0.0249,0.002 -0.6631,0.003 -0.10162,2.4e-4 -0.20322,0.003 -0.30483,0.005 -0.0448,4.8e-4 -0.0894,3.4e-4 -0.13416,5.1e-4 -0.33135,-0.005 -0.66299,-0.024 -0.9905,-0.0818 -0.22495,-0.0408 -0.14907,-0.0256 -0.37336,-0.0722 -0.17122,-0.0355 -0.3428,-0.0719 -0.51062,-0.12357 -0.0385,-0.0119 -0.0763,-0.0267 -0.11437,-0.04 -0.087,-0.0224 -0.1748,-0.0492 -0.2631,-0.0654 -0.021,-0.004 -0.085,-0.007 -0.0636,-0.008 0.1141,-0.005 0.57414,-0.006 0.32574,-0.005 -0.0612,0.006 -0.11888,0.015 -0.17745,0.0354 -0.011,0.004 -0.0224,0.007 -0.0328,0.0125 -0.008,0.004 -0.0142,0.0107 -0.0213,0.016 -0.004,0.006 -0.0157,0.023 -0.0139,0.0332 0.004,0.0226 0.0438,0.0209 0.0564,0.0223 -0.12001,2.4e-4 -0.24,4.8e-4 -0.36001,7.1e-4 0.0582,-0.0113 0.11525,-0.0283 0.17397,-0.0369 0.0256,-0.004 0.0514,-0.005 0.077,-0.008 0.0234,-0.003 0.0467,-0.007 0.07,-0.0107 0.0513,-0.007 0.11651,-0.0225 0.16806,-0.0234 0.49265,-0.009 0.3158,-0.12189 0.39118,0.0444 8e-4,0.005 0.003,0.0111 0.002,0.0167 -0.003,0.015 -0.0187,0.0272 -0.0274,0.036 -0.0266,0.0269 -0.0522,0.0551 -0.0851,0.0735 -0.0816,0.0647 -0.17412,0.10835 -0.27328,0.13162 -0.17154,0.0269 -0.064,0.0121 -0.45078,0.005 -0.009,-1.5e-4 -0.0398,-0.0132 -0.047,-0.0171 -0.0166,-0.008 -0.0295,-0.0195 -0.0447,-0.0308 -0.0364,-0.0378 -0.0659,-0.0833 -0.084,-0.13447 -0.0161,-0.067 -0.0102,-0.11999 0.0327,-0.17401 0.0555,-0.0545 0.12014,-0.0913 0.18889,-0.12308 0.0657,-0.0337 0.13144,-0.0684 0.20026,-0.0943 0.0283,-0.0116 0.0598,-0.0231 0.0906,-0.0237 0.24564,-0.004 0.49142,-0.002 0.73708,-0.007 0.28078,0.001 0.56205,0.0128 0.84108,0.048 0.12563,0.0171 0.25126,0.0332 0.37707,0.0486 0.0303,0.004 0.12144,0.009 0.0909,0.0116 -0.22264,0.0121 -0.62496,0.003 -0.32898,0.008 0.0626,7.1e-4 0.12484,0.001 0.18736,-0.002 0.0212,-0.001 0.0426,-0.001 0.0637,-0.004 0.004,-5.9e-4 0.009,-0.002 0.0126,-0.003 0.0125,-0.0109 -0.0326,-0.0272 -0.0408,-0.0228 0.10979,-2e-5 0.21959,8e-5 0.32938,-7e-5 0.005,-10e-6 -0.0108,-9.3e-4 -0.0161,-3.4e-4 -0.006,6.5e-4 -0.0117,0.004 -0.0177,0.004 -0.12622,0.002 -0.25247,0.002 -0.37871,0.003 -0.0181,1.2e-4 -0.0333,-0.001 -0.0514,-0.002 -0.0524,-0.006 -0.0835,-0.0164 -0.11506,-0.0643 -0.0263,-0.0437 -0.0375,-0.095 -0.0625,-0.13963 -0.008,-0.0199 -0.0133,-0.0286 -0.0179,-0.0496 -9.9e-4,-0.005 1.6e-4,-0.0109 -0.002,-0.0158 -9.9e-4,-0.003 -0.01,-0.006 -0.007,-0.006 0.32017,-0.008 0.37196,0.0981 0.31432,-0.0125 -0.0142,0.0238 0.0115,0.0766 0.018,0.0996 0.0385,0.0952 0.0844,0.18794 0.10106,0.29149 4.1e-4,0.0208 6e-4,0.0418 9.9e-4,0.0626 5.1e-4,0.017 0.003,0.034 0.002,0.0509 -5.4e-4,0.0128 -0.005,0.0253 -0.006,0.038 -6.9e-4,0.006 0.005,0.0176 -5.4e-4,0.018 -0.32791,0.0245 -0.28889,-0.1049 -0.32222,0.0191 -0.0276,-0.0286 -0.0189,-0.0897 -0.0279,-0.12726 -0.002,-0.0191 -0.003,-0.0284 -0.008,-0.0467 -0.008,-0.0259 -0.023,-0.0499 -0.0215,-0.0785 0,0 0.33211,-0.0194 0.33211,-0.0194 z"
       inkscape:connector-curvature="0" />
    <path
       inkscape:export-filename="/home/sade/Desktop/net-game/images/buildings/database.png"
       inkscape:export-xdpi="90"
       inkscape:export-ydpi="90"
       style="fill:#000000;fill-opacity:1"
       id="path3397-3"
       d="m 415.32234,492.91203 c -0.77557,-0.38885 -1.27623,-0.8792 -1.59014,-1.40509 -0.18602,-0.29713 -0.10424,-0.15066 -0.24848,-0.43907 0,0 6.31217,-0.12865 6.31217,-0.12865 l 0,0 c 0.33073,0.28123 0.16505,0.13502 0.49539,0.43915 0.27645,0.27559 0.44563,0.49382 0.59843,0.79284 0.10254,0.201 0.25176,0.39678 0.1339,0.60629 0,0 -5.70135,0.13453 -5.70135,0.13453 z"
       inkscape:connector-curvature="0" />
    <path
       inkscape:export-filename="/home/sade/Desktop/net-game/images/buildings/database.png"
       inkscape:export-xdpi="90"
       inkscape:export-ydpi="90"
       style="fill:#000000;fill-opacity:1"
       id="path3397-1"
       d="m 416.31868,492.84628 c -0.36606,-0.38885 -0.60238,-0.87919 -0.75054,-1.40508 -0.0878,-0.29714 -0.0492,-0.15067 -0.11727,-0.43908 0,0 2.97927,-0.12865 2.97927,-0.12865 l 0,0 c 0.1561,0.28123 0.0779,0.13502 0.23383,0.43915 0.13048,0.27559 0.21032,0.49383 0.28244,0.79284 0.0484,0.201 0.11884,0.39678 0.0632,0.60629 0,0 -2.69098,0.13453 -2.69098,0.13453 z"
       inkscape:connector-curvature="0" />
    <path
       inkscape:export-filename="/home/sade/Desktop/net-game/images/buildings/database.png"
       inkscape:export-xdpi="90"
       inkscape:export-ydpi="90"
       style="fill:#000000;fill-opacity:1"
       id="path3397-0"
       d="m 414.93445,493.04354 c -0.77559,-0.38885 -1.27626,-0.8792 -1.59016,-1.40509 -0.18602,-0.29713 -0.10424,-0.15066 -0.24846,-0.43907 0,0 6.31213,-0.12865 6.31213,-0.12865 l 0,0 c 0.33075,0.28123 0.16505,0.13502 0.49543,0.43915 0.27643,0.27559 0.44561,0.49382 0.59839,0.79284 0.10254,0.201 0.2518,0.39678 0.13411,0.60629 0,0 -5.70138,0.13453 -5.70138,0.13453 z"
       inkscape:connector-curvature="0" />
    <path
       style="fill:#ffffff;fill-opacity:1"
       id="path3578"
       d="m 415.69748,490.72508 c 0.7344,0.16229 1.49751,0.28366 2.23174,0.44644 0.59001,0.15578 1.22901,0.33324 1.57092,0.63828 0.0574,0.0512 0.0937,0.10793 0.14026,0.16189 0.0222,0.0588 0.0595,0.11676 0.0665,0.17659 0.0436,0.3868 -0.41673,0.6248 -0.94309,0.86054 -0.74324,0.27626 -1.59275,0.46156 -2.45728,0.61493 -0.29431,0.0547 -0.58713,0.11224 -0.89373,0.14639 0,0 -2.07646,-0.11161 -2.07646,-0.11161 l 0,0 c -0.0106,-0.094 0.30564,-0.13958 0.41293,-0.18599 0.71584,-0.20877 1.47787,-0.37598 2.1789,-0.59898 0.44147,-0.13951 1.30302,-0.36982 1.22605,-0.69414 -0.0106,-0.0487 -0.0574,-0.0937 -0.0862,-0.14062 -0.0621,-0.0444 -0.11525,-0.0923 -0.18602,-0.13309 -0.46607,-0.26808 -1.14197,-0.41155 -1.75357,-0.57051 -0.45069,-0.10881 -1.17742,-0.24105 -1.48665,-0.44857 -0.0288,-0.0193 -0.043,-0.0431 -0.0646,-0.0647 0,0 2.12039,-0.0969 2.12039,-0.0969 z"
       inkscape:connector-curvature="0"
       inkscape:export-filename="/home/sade/Desktop/net-game/images/buildings/database.png"
       inkscape:export-xdpi="90"
       inkscape:export-ydpi="90" />
    <path
       style="fill:#ffffff;fill-opacity:1"
       id="path3588"
       d="m 415.62188,490.91265 c 0.5865,0.0897 1.05998,0.28538 1.48433,0.50272 0.24764,0.14107 0.49667,0.28797 0.61512,0.47092 0.0483,0.0745 0.0725,0.16919 0.097,0.24614 0.0148,0.27853 -0.23725,0.51791 -0.57247,0.72822 -0.37247,0.21635 -0.81455,0.39762 -1.23893,0.58653 -0.36636,0.16523 -0.73582,0.32938 -1.13032,0.47714 -0.14958,0.0707 -0.33183,0.10909 -0.51855,0.14603 0,0 -2.2425,-0.14232 -2.2425,-0.14232 l 0,0 c 0.16441,-0.0237 0.31575,-0.0511 0.44939,-0.10873 0.33709,-0.15455 0.66317,-0.31607 0.98924,-0.47637 0.40715,-0.19479 0.83148,-0.38018 1.24257,-0.57293 0.32855,-0.17062 0.64703,-0.3643 0.64506,-0.61506 -0.0148,-0.0352 -0.0227,-0.0716 -0.0453,-0.10569 -0.14259,-0.21394 -0.52491,-0.37312 -0.81708,-0.53228 -0.1464,-0.0728 -0.27526,-0.13947 -0.43147,-0.2068 -0.1875,-0.0808 -0.40274,-0.1447 -0.58942,-0.22524 -0.0381,-0.0166 -0.0684,-0.0374 -0.10254,-0.056 0,0 2.16594,-0.11626 2.16594,-0.11626 z"
       inkscape:connector-curvature="0"
       inkscape:export-filename="/home/sade/Desktop/net-game/images/buildings/database.png"
       inkscape:export-xdpi="90"
       inkscape:export-ydpi="90" />
    <path
       style="fill:#f2f2f2;fill-opacity:1"
       d="m 13.299349,26.760178 c -0.771093,-0.09814 -0.654586,-0.206165 0.349239,-0.323821 1.13205,-0.132685 2.962644,-0.651056 4.042778,-1.144798 0.567731,-0.259517 1.006915,-0.512823 0.975964,-0.562902 -0.03972,-0.06427 -0.443488,-3.685473 -0.443488,-3.977445 0,-0.01387 0.411953,-0.09634 0.915451,-0.183255 2.353634,-0.406306 4.512883,-1.047255 6.269694,-1.861091 0.653051,-0.302523 1.205146,-0.532261 1.226878,-0.510529 0.02173,0.02173 0.157296,1.002648 0.301253,2.179811 0.290408,2.37471 0.555397,3.791533 0.753857,4.030663 0.356507,0.429565 -3.621113,1.640672 -7.092826,2.159627 -1.415294,0.211559 -6.167633,0.337706 -7.2988,0.19374 z"
       id="path3610"
       inkscape:connector-curvature="0"
       transform="translate(395.68033,490.50508)" />
    <path
       style="fill:#f2f2f2;fill-opacity:1"
       d="m 17.989667,17.118444 c -0.08185,-1.267426 -0.184278,-2.904642 -0.22761,-3.638257 l -0.07879,-1.333847 1.37514,-0.221317 c 1.943317,-0.31276 4.610239,-0.982992 5.780746,-1.452776 0.547988,-0.219935 1.027036,-0.369188 1.064551,-0.331672 0.07066,0.07066 0.639364,6.341701 0.648644,7.152546 0.0038,0.330221 -0.05667,0.477547 -0.215721,0.525746 -2.664521,0.807478 -4.0726,1.11441 -6.46752,1.409786 -0.866026,0.106811 -1.609699,0.194201 -1.652606,0.194201 -0.04291,0 -0.144984,-1.036984 -0.226837,-2.30441 z"
       id="path3612"
       inkscape:connector-curvature="0"
       transform="translate(395.68033,490.50508)" />
    <path
       style="fill:#f2f2f2;fill-opacity:1"
       d="m 17.583825,10.463963 c -0.0048,-0.177037 -0.0813,-1.4298963 -0.170073,-2.784132 -0.08877,-1.3542358 -0.155896,-2.4712695 -0.149165,-2.4822974 0.0067,-0.011028 0.66568,-0.1368529 1.464331,-0.2796114 2.667605,-0.4768326 4.694679,-1.1791278 5.973484,-2.0695588 0.19498,-0.1357647 0.375846,-0.2255088 0.401923,-0.1994313 0.02608,0.026077 0.192191,1.2965451 0.369142,2.8232616 0.17695,1.5267164 0.352308,3.0392287 0.389685,3.3611384 l 0.06796,0.5852904 -0.981013,0.2642304 c -1.210035,0.3259161 -3.450931,0.7109581 -5.211026,0.8953831 -2.303107,0.241323 -2.145441,0.249683 -2.155246,-0.114273 z"
       id="path3614"
       inkscape:connector-curvature="0"
       transform="translate(395.68033,490.50508)" />
    <path
       style="fill:#f2f2f2;fill-opacity:1"
       d="M 17.47884,3.406706 C 17.057596,3.3251144 17.073773,3.3118638 18.33773,2.7031853 19.046251,2.3619858 19.680356,1.9811634 19.746853,1.8569133 19.895248,1.5796342 19.581239,1.2518394 18.852378,0.92316874 18.579916,0.8003058 18.387209,0.6508919 18.424139,0.59113784 c 0.03693,-0.0597541 -0.0072,-0.11758405 -0.09814,-0.12851113 -0.09091,-0.0109271 0.232459,-0.0560877 0.718595,-0.100357 1.326937,-0.12083568 4.213378,0.49738568 4.668068,0.99981239 0.561003,0.6199015 -0.294934,1.0949747 -3.02657,1.6798442 -1.954624,0.418504 -2.569075,0.4883891 -3.207249,0.3647797 z"
       id="path3616"
       inkscape:connector-curvature="0"
       transform="translate(395.68033,490.50508)" />
  </g>
</svg>
