<?xml version="1.0" encoding="UTF-8" standalone="no"?>
<!-- Created with Inkscape (http://www.inkscape.org/) -->

<svg
   xmlns:dc="http://purl.org/dc/elements/1.1/"
   xmlns:cc="http://creativecommons.org/ns#"
   xmlns:rdf="http://www.w3.org/1999/02/22-rdf-syntax-ns#"
   xmlns:svg="http://www.w3.org/2000/svg"
   xmlns="http://www.w3.org/2000/svg"
   xmlns:sodipodi="http://sodipodi.sourceforge.net/DTD/sodipodi-0.dtd"
   xmlns:inkscape="http://www.inkscape.org/namespaces/inkscape"
   width="28.999769"
   height="29.000031"
   id="svg3774"
   version="1.1"
   inkscape:version="0.48.3.1 r9886"
   sodipodi:docname="firewall.svg">
  <defs
     id="defs3776">
    <inkscape:perspective
       sodipodi:type="inkscape:persp3d"
       inkscape:vp_x="182.14286 : 106.3316 : 1"
       inkscape:vp_y="0 : 1000 : 0"
       inkscape:vp_z="319.75092 : 106.3316 : 1"
       inkscape:persp3d-origin="250.94689 : 83.982969 : 1"
       id="perspective3834" />
  </defs>
  <sodipodi:namedview
     id="base"
     pagecolor="#ffffff"
     bordercolor="#666666"
     borderopacity="1.0"
     inkscape:pageopacity="0.0"
     inkscape:pageshadow="2"
     inkscape:zoom="1.4"
     inkscape:cx="197.01486"
     inkscape:cy="101.32869"
     inkscape:document-units="px"
     inkscape:current-layer="layer1"
     showgrid="false"
     fit-margin-top="0"
     fit-margin-left="0"
     fit-margin-right="0"
     fit-margin-bottom="0"
     inkscape:window-width="1114"
     inkscape:window-height="611"
     inkscape:window-x="206"
     inkscape:window-y="128"
     inkscape:window-maximized="0" />
  <metadata
     id="metadata3779">
    <rdf:RDF>
      <cc:Work
         rdf:about="">
        <dc:format>image/svg+xml</dc:format>
        <dc:type
           rdf:resource="http://purl.org/dc/dcmitype/StillImage" />
        <dc:title />
      </cc:Work>
    </rdf:RDF>
  </metadata>
  <g
     inkscape:label="Layer 1"
     inkscape:groupmode="layer"
     id="layer1"
     transform="translate(-176.91028,-458.26517)">
    <path
       style="fill:#000000;fill-opacity:1;fill-rule:nonzero;stroke:none"
       id="path3099"
       d="m 178.24606,463.27007 c 0.69697,0.29421 1.41793,0.26656 2.12992,0.23687 2.08088,-0.10395 4.16171,-0.0445 6.24224,0.0431 3.59416,0.16944 7.18181,-0.20825 10.76325,-0.67009 2.03827,-0.35635 4.08096,-0.7163 6.09227,-1.3957 0,0 -1.23091,1.5723 -1.23091,1.5723 l 0,0 c -1.94717,0.44754 -3.90516,0.74969 -5.86033,1.07495 -3.61209,0.44696 -7.22865,0.85911 -10.85306,0.75649 -2.1357,-0.0395 -4.27095,-0.0325 -6.40429,0.17087 -0.74207,0.0395 -1.4774,0.01 -2.21487,-0.14117 0,0 1.33578,-1.64765 1.33578,-1.64765 z"
       inkscape:connector-curvature="0" />
    <path
       style="fill:#000000;fill-opacity:1;fill-rule:nonzero;stroke:none"
       id="path3105"
       d="m 203.46305,461.81485 c -0.0898,2.74835 -0.11893,5.49144 -0.0184,8.23834 0.22561,4.38203 0.47494,8.7596 0.67489,13.14579 0.0756,1.47174 0.0342,0.81627 0.1152,1.96816 0,0 -1.89262,1.75774 -1.89262,1.75774 l 0,0 c -6.4e-4,-1.21686 0.003,-0.53066 -0.0176,-2.05845 -0.10688,-4.41322 -0.31031,-8.81568 -0.60781,-13.20116 -0.14158,-2.68122 -0.14781,-5.3642 -0.21825,-8.05325 0,0 1.96457,-1.79717 1.96457,-1.79717 z"
       inkscape:connector-curvature="0" />
    <path
       style="fill:#000000;fill-opacity:1;fill-rule:nonzero;stroke:none"
       id="path3107"
       d="m 179.24137,463.58461 c -0.0979,1.53199 0.16657,3.05246 0.32957,4.56391 0.44394,3.5405 0.6349,7.11915 0.95087,10.67983 0.14185,1.56106 0.26974,3.12398 0.40094,4.68648 0.0565,0.67301 0.0965,1.36088 0.2168,2.0219 0.0956,-0.95922 0.0236,-0.0796 -1.90984,1.06926 0,0 1.956,-1.24839 1.956,-1.24839 l 0,0 c -1.96492,1.59872 -1.70924,2.50692 -1.96656,1.45724 -0.0103,-2.29783 -0.20623,-4.58906 -0.3676,-6.87496 -0.30073,-3.53902 -0.51571,-7.09889 -1.0646,-10.59403 -0.18208,-1.49509 -0.48418,-2.9714 -0.51015,-4.48864 0,0 1.96457,-1.2726 1.96457,-1.2726 z"
       inkscape:connector-curvature="0" />
    <path
       style="fill:#000000;fill-opacity:1;fill-rule:nonzero;stroke:none"
       id="path3123"
       d="m 180.56085,484.94079 c 0.67981,0.25925 1.39298,0.25413 2.08805,0.29343 2.20229,0.11371 4.40561,-0.0306 6.60797,-0.0825 3.55521,-0.0554 7.11012,-0.0958 10.66526,-0.0206 1.5113,-0.18848 3.04388,0.42824 4.54672,0.0992 0,0 -1.33534,1.5885 -1.33534,1.5885 l 0,0 c -1.44926,0.10195 -2.89333,-0.48339 -4.34712,-0.36761 -3.5609,-0.1516 -7.12241,-0.10974 -10.68317,0.0531 -2.25692,0.1038 -4.51359,0.29142 -6.77182,0.25958 -0.73673,-0.0174 -1.4918,0.0206 -2.21372,-0.25015 0,0 1.44317,-1.57298 1.44317,-1.57298 z"
       inkscape:connector-curvature="0" />
    <path
       style="fill:#000000;fill-opacity:1;fill-rule:nonzero;stroke:none"
       id="path3135"
       d="m 179.80771,468.57934 c 0.065,0.003 0.13045,0.0186 0.19503,0.009 0.27894,-0.0427 0.55097,-0.14162 0.8287,-0.19547 0.69725,-0.13518 1.39277,-0.21175 2.09604,-0.27483 1.67576,-0.12529 3.35457,-0.16401 5.03276,-0.19464 0.8549,-0.0104 0.44524,0.0151 1.22932,-0.0671 0,0 -1.69304,1.58437 -1.69304,1.58437 l 0,0 c -0.76957,0.0408 -0.36704,0.0291 -1.20766,0.0295 -1.66909,0.007 -3.3398,0.0282 -5.00478,0.19263 -1.09478,0.13385 -2.17478,0.37179 -3.26016,0.56447 0,0 1.78379,-1.64765 1.78379,-1.64765 z"
       inkscape:connector-curvature="0" />
    <path
       style="fill:#000000;fill-opacity:1;fill-rule:nonzero;stroke:none"
       id="path3141"
       d="m 187.88825,463.54514 c 0.13093,0.94067 0.36298,1.84716 0.51608,2.78422 0.11113,0.59489 0.21833,1.18896 0.34585,1.77853 0,0 -1.86421,1.28823 -1.86421,1.28823 l 0,0 c -0.12698,-0.59601 -0.23476,-1.1962 -0.34571,-1.79735 -0.15112,-0.92128 -0.39795,-1.7952 -0.5823,-2.70209 0,0 1.93029,-1.35154 1.93029,-1.35154 z"
       inkscape:connector-curvature="0" />
    <path
       style="fill:#000000;fill-opacity:1;fill-rule:nonzero;stroke:none"
       id="path3149"
       d="m 195.92772,463.27149 c -0.22126,0.94868 -0.23343,1.95777 -0.26438,2.94008 -0.0186,0.7842 -0.0358,0.40827 0.0405,1.12852 0,0 -1.88544,1.26234 -1.88544,1.26234 l 0,0 c -0.0824,-0.76661 -0.0644,-0.37456 -0.0485,-1.1765 0.0315,-0.98887 0.0509,-1.983 0.16319,-2.9635 0,0 1.99466,-1.19094 1.99466,-1.19094 z"
       inkscape:connector-curvature="0" />
    <path
       style="fill:#000000;fill-opacity:1;fill-rule:nonzero;stroke:none"
       id="path3151"
       d="m 195.39867,466.45564 c 0.57807,0.0175 1.15635,0.0214 1.73456,0.0262 1.03944,0.0337 2.073,0.0189 3.10838,-0.0991 0.84666,0.0226 1.60265,-0.40465 2.39831,-0.69542 0,0 -1.70294,1.66948 -1.70294,1.66948 l 0,0 c -0.78633,0.2999 -1.55266,0.63722 -2.38848,0.61795 -1.04636,0.10739 -2.09309,0.10292 -3.14241,0.10244 -0.59709,0.005 -1.19425,0.009 -1.7912,0.0262 0,0 1.78378,-1.64764 1.78378,-1.64764 z"
       inkscape:connector-curvature="0" />
    <path
       style="fill:#000000;fill-opacity:1;fill-rule:nonzero;stroke:none"
       id="path3153"
       d="m 186.24357,468.76628 c 0.68214,-0.49892 1.35239,-1.02507 2.04641,-1.49677 0.39462,-0.26822 1.80685,-0.31234 2.27873,-0.34872 1.10166,-0.075 2.20549,-0.0752 3.30843,-0.0797 0.60586,-0.0723 0.31264,-0.0306 0.87989,-0.12286 0,0 -1.71319,1.61967 -1.71319,1.61967 l 0,0 c -0.56106,0.0676 -0.27072,0.0404 -0.87121,0.0784 -1.09863,0.003 -2.198,0.006 -3.29511,0.089 -0.53269,0.051 -1.06754,0.096 -1.59271,0.22862 -0.84746,0.21399 -2.16227,1.26819 1.00785,-0.98694 0,0 -2.04909,1.01929 -2.04909,1.01929 z"
       inkscape:connector-curvature="0" />
    <path
       style="fill:#000000;fill-opacity:1;fill-rule:nonzero;stroke:none"
       id="path3155"
       d="m 183.97434,467.83203 c -0.0324,0.84722 -0.0287,1.69619 -0.0291,2.54425 -0.0234,0.4362 0.0328,0.86625 0.0783,1.29643 0,0 -1.90438,1.27622 -1.90438,1.27622 l 0,0 c -0.0505,-0.4435 -0.10732,-0.88742 -0.0802,-1.33779 -4.3e-4,-0.83546 0.004,-1.67192 -0.0291,-2.50651 0,0 1.96456,-1.2726 1.96456,-1.2726 z"
       inkscape:connector-curvature="0" />
    <path
       style="fill:#000000;fill-opacity:1;fill-rule:nonzero;stroke:none"
       id="path3173"
       d="m 191.20968,466.81467 c -0.0155,1.35128 -0.0582,2.71128 0.007,4.05843 0.0154,0.20766 0.0308,0.41533 0.0463,0.623 0,0 -1.90654,2.02863 -1.90654,2.02863 l 0,0 c -0.0152,-0.21578 -0.0305,-0.43156 -0.0457,-0.64734 -0.0639,-1.34703 -0.0193,-2.7014 -0.0593,-4.05197 0,0 1.95791,-2.01075 1.95791,-2.01075 z"
       inkscape:connector-curvature="0" />
    <path
       style="fill:#000000;fill-opacity:1;fill-rule:nonzero;stroke:none"
       id="path3173-7"
       d="m 198.69996,466.75604 c -0.0155,1.35128 -0.0582,2.71128 0.007,4.05843 0.0154,0.20767 0.0308,0.41534 0.0463,0.623 0,0 -1.90653,2.02863 -1.90653,2.02863 l 0,0 c -0.0152,-0.21578 -0.0305,-0.43156 -0.0457,-0.64733 -0.0639,-1.34703 -0.0193,-2.7014 -0.0593,-4.05198 0,0 1.95791,-2.01075 1.95791,-2.01075 z"
       inkscape:connector-curvature="0" />
    <path
       style="fill:#000000;fill-opacity:1;fill-rule:nonzero;stroke:none"
       id="path3211"
       d="m 180.98191,472.12444 c 1.93349,0.0847 3.86737,-0.0961 5.80017,-0.17248 4.9069,-0.0766 9.81726,-0.40535 14.72332,-0.17133 0.51028,0.0422 1.02056,0.0843 1.53083,0.12645 0,0 -1.541,1.39788 -1.541,1.39788 l 0,0 c -0.48003,-0.0661 -0.96005,-0.13222 -1.44007,-0.19833 -4.89892,-0.37075 -9.8112,-0.0758 -14.70983,0.18562 -2.04526,0.1628 -4.08562,0.4337 -6.13512,0.46868 0,0 1.7717,-1.63649 1.7717,-1.63649 z"
       inkscape:connector-curvature="0" />
    <path
       style="fill:#000000;fill-opacity:1;fill-rule:nonzero;stroke:none"
       id="path3215"
       d="m 186.77461,472.03997 c 0.1415,0.79952 0.17046,1.62646 0.19911,2.44303 0.0162,0.71116 0.0273,1.42241 0.0308,2.13384 0,0 -1.9008,1.23364 -1.9008,1.23364 l 0,0 c -0.005,-0.70718 -0.004,-1.41472 -0.0309,-2.12131 -0.0323,-0.78196 -0.0473,-1.58365 -0.22846,-2.33765 0,0 1.93029,-1.35155 1.93029,-1.35155 z"
       inkscape:connector-curvature="0" />
    <path
       style="fill:#000000;fill-opacity:1;fill-rule:nonzero;stroke:none"
       id="path3215-4"
       d="m 195.25708,471.80719 c 0.14151,0.79951 0.17047,1.62645 0.19911,2.44302 0.0163,0.71116 0.0273,1.42241 0.0308,2.13385 0,0 -1.9008,1.23363 -1.9008,1.23363 l 0,0 c -0.005,-0.70718 -0.004,-1.41472 -0.0309,-2.12131 -0.0323,-0.78196 -0.0473,-1.58365 -0.22846,-2.33765 0,0 1.93028,-1.35154 1.93028,-1.35154 z"
       inkscape:connector-curvature="0" />
    <path
       style="fill:#000000;fill-opacity:1;fill-rule:nonzero;stroke:none"
       id="path3237"
       d="m 181.53873,477.07976 c 1.0113,0.0265 2.02623,-0.0976 3.02929,-0.25436 1.70324,-0.29955 3.42361,-0.34369 5.13678,-0.4821 1.11728,-0.0903 2.23274,-0.21406 3.34943,-0.3155 3.08492,-0.27814 6.17483,-0.46005 9.26528,-0.60344 0.30458,-0.0128 0.60915,-0.0256 0.91372,-0.0384 0,0 -1.63716,1.51845 -1.63716,1.51845 l 0,0 c -0.29232,0.002 -0.58465,0.004 -0.87697,0.006 -3.04892,0.0533 -6.09735,0.18722 -9.13745,0.49955 -2.88361,0.3015 -5.7782,0.47114 -8.64662,0.96479 -1.05005,0.17993 -2.1074,0.32836 -3.168,0.3414 0,0 1.7717,-1.63648 1.7717,-1.63648 z"
       inkscape:connector-curvature="0" />
    <path
       style="fill:#000000;fill-opacity:1;fill-rule:nonzero;stroke:none"
       id="path3173-7-9"
       d="m 184.22264,476.66668 c -0.0155,1.35128 -0.0582,2.71129 0.007,4.05844 0.0154,0.20766 0.0308,0.41533 0.0463,0.623 0,0 -1.90654,2.02862 -1.90654,2.02862 l 0,0 c -0.0152,-0.21578 -0.0305,-0.43155 -0.0457,-0.64733 -0.0639,-1.34703 -0.0193,-2.7014 -0.0593,-4.05198 0,0 1.95791,-2.01075 1.95791,-2.01075 z"
       inkscape:connector-curvature="0" />
    <path
       style="fill:#000000;fill-opacity:1;fill-rule:nonzero;stroke:none"
       id="path3173-7-9-4"
       d="m 191.18289,475.95878 c -0.0155,1.35128 -0.0582,2.71128 0.007,4.05843 0.0154,0.20767 0.0308,0.41534 0.0463,0.623 0,0 -1.90653,2.02863 -1.90653,2.02863 l 0,0 c -0.0152,-0.21578 -0.0305,-0.43156 -0.0457,-0.64733 -0.0639,-1.34703 -0.0193,-2.7014 -0.0593,-4.05198 0,0 1.95792,-2.01075 1.95792,-2.01075 z"
       inkscape:connector-curvature="0" />
    <path
       style="fill:#000000;fill-opacity:1;fill-rule:nonzero;stroke:none"
       id="path3173-7-9-4-8"
       d="m 198.69996,475.60483 c -0.0155,1.35128 -0.0582,2.71128 0.007,4.05843 0.0154,0.20767 0.0308,0.41534 0.0463,0.623 0,0 -1.90653,2.02863 -1.90653,2.02863 l 0,0 c -0.0152,-0.21578 -0.0305,-0.43156 -0.0457,-0.64734 -0.0639,-1.34703 -0.0193,-2.70139 -0.0593,-4.05197 0,0 1.95791,-2.01075 1.95791,-2.01075 z"
       inkscape:connector-curvature="0" />
    <path
       style="fill:#000000;fill-opacity:1;fill-rule:nonzero;stroke:none"
       id="path3328"
       d="m 181.47817,481.3216 c 0.67937,0.0224 1.35906,0.0271 2.03861,0.0357 1.54807,-0.007 3.09403,-0.16052 4.64127,-0.23142 1.72615,-0.31745 3.45482,-0.54632 5.19596,-0.67409 1.84551,-0.17254 3.69196,-0.33647 5.54098,-0.43464 1.30114,-0.12398 2.61677,0.0566 3.90961,-0.17167 0.48986,-0.12246 0.98004,-0.24255 1.47089,-0.35834 0,0 -1.6955,1.62634 -1.6955,1.62634 l 0,0 c -0.48527,0.1107 -0.96913,0.23197 -1.45698,0.32346 -1.29063,0.15488 -2.59229,0.0353 -3.88673,0.12466 -1.83883,0.0809 -3.67565,0.20769 -5.50887,0.41167 -1.74448,0.13839 -3.47326,0.41815 -5.20817,0.67878 -1.57023,0.0838 -3.1381,0.24002 -4.70905,0.28158 -0.70528,0.009 -1.41069,0.0137 -2.11581,0.0357 0,0 1.78379,-1.64765 1.78379,-1.64765 z"
       inkscape:connector-curvature="0" />
    <path
       style="fill:#000000;fill-opacity:1;fill-rule:nonzero;stroke:none"
       id="path3332"
       d="m 187.82261,481.38597 c -0.33117,0.7732 -0.41008,1.63778 -0.48009,2.47651 0.0111,0.46199 -0.0208,0.92458 0.0764,1.3776 0,0 -1.92815,1.10979 -1.92815,1.10979 l 0,0 c -0.0646,-0.48849 -0.0324,-0.9725 -0.0421,-1.46466 0.0521,-0.85172 0.1349,-1.70409 0.37505,-2.52199 0,0 1.99883,-0.97725 1.99883,-0.97725 z"
       inkscape:connector-curvature="0" />
    <path
       style="fill:#000000;fill-opacity:1;fill-rule:nonzero;stroke:none"
       id="path3334"
       d="m 195.38916,480.92823 c -0.0288,0.76453 -0.0283,1.53001 -0.034,2.2951 -0.0109,0.62022 -0.0142,1.24005 -0.007,1.8603 0,0 -1.8821,1.1134 -1.8821,1.1134 l 0,0 c 0.007,-0.6174 0.004,-1.23438 -0.007,-1.85173 -0.006,-0.75169 -0.005,-1.50379 -0.034,-2.25488 0,0 1.96457,-1.16219 1.96457,-1.16219 z"
       inkscape:connector-curvature="0" />
    <path
       style="fill:#000000"
       id="path3470"
       d="m 201.30341,463.66908 c 0.69151,-1.05149 1.22374,-2.25528 1.81003,-3.4088 0.0952,-0.19385 0.19038,-0.3877 0.28557,-0.58154 0,0 2.11849,-1.24797 2.11849,-1.24797 l 0,0 c -0.0951,0.19799 -0.19016,0.39598 -0.28525,0.59396 -0.4485,0.82376 -0.79841,1.74179 -1.26061,2.55253 -0.0916,0.16063 -0.21849,0.28136 -0.30823,0.44383 -0.0731,0.1323 -0.11763,0.2891 -0.17645,0.43365 0,0 -2.18355,1.21434 -2.18355,1.21434 z"
       inkscape:connector-curvature="0" />
    <path
       style="fill:#000000"
       id="path3474"
       d="m 177.04795,464.6058 c 0.65663,-0.85466 1.23052,-1.82073 1.78935,-2.78235 0.0762,-0.12669 0.15235,-0.25338 0.22853,-0.38007 0,0 1.99324,-1.08468 1.99324,-1.08468 l 0,0 c -0.08,0.12498 -0.16,0.24997 -0.24001,0.37495 -0.28438,0.50249 -0.60906,0.95459 -0.90317,1.44596 -0.27333,0.45667 -0.48905,0.97739 -0.8374,1.3569 0,0 -2.03054,1.06929 -2.03054,1.06929 z"
       inkscape:connector-curvature="0" />
    <path
       style="fill:#000000;fill-opacity:1;fill-rule:nonzero;stroke:none"
       id="path3105-2"
       d="m 205.49948,458.26753 c -0.0478,2.72095 -0.0633,5.4367 -0.01,8.15623 0.1201,4.33835 0.25282,8.67228 0.35927,13.01476 0.0402,1.45707 0.0182,0.80813 0.0613,1.94854 0,0 -1.00751,1.74022 -1.00751,1.74022 l 0,0 c -4.3e-4,-1.20473 0.002,-0.52537 -0.009,-2.03794 -0.0569,-4.36923 -0.16519,-8.7278 -0.32356,-13.06957 -0.0754,-2.6545 -0.0787,-5.31073 -0.11618,-7.97298 0,0 1.04581,-1.77926 1.04581,-1.77926 z"
       inkscape:connector-curvature="0" />
    <path
       style="fill:#000000;fill-opacity:1;fill-rule:nonzero;stroke:none"
       id="path3099-4"
       d="m 180.10513,460.05099 c 0.70213,0.29421 1.42843,0.26656 2.1457,0.23687 2.0963,-0.10396 4.19256,-0.0445 6.2885,0.0431 3.62079,0.16944 7.23504,-0.20826 10.84302,-0.67009 2.05338,-0.35635 4.11121,-0.7163 6.13742,-1.3957 0,0 -1.24003,1.5723 -1.24003,1.5723 l 0,0 c -1.96161,0.44754 -3.9341,0.74968 -5.90377,1.07495 -3.63885,0.44695 -7.28222,0.85911 -10.93348,0.75649 -2.15153,-0.0395 -4.30261,-0.0326 -6.45176,0.17087 -0.74757,0.0395 -1.48835,0.01 -2.23128,-0.14117 0,0 1.34568,-1.64765 1.34568,-1.64765 z"
       inkscape:connector-curvature="0" />
    <path
       style="fill:#000000"
       id="path3550"
       d="m 203.5238,485.72179 c 0.22207,-0.78683 0.56287,-1.50774 0.87423,-2.24095 0.0968,-0.2299 0.19358,-0.45979 0.29036,-0.68968 0,0 0.63059,-0.35995 0.63059,-0.35995 l 0,0 c -0.0972,0.23002 -0.19437,0.46005 -0.29155,0.69008 -0.29271,0.70885 -0.60654,1.42059 -0.7979,2.18555 0,0 -0.70573,0.41495 -0.70573,0.41495 z"
       inkscape:connector-curvature="0" />
    <path
       style="fill:#000000"
       id="path3574"
       d="m 186.24907,464.29892 c 0.0547,-0.54784 0.29036,-1.01491 0.4935,-1.49005 0.23563,-0.52724 0.4687,-1.05988 0.73938,-1.5598 0.19448,-0.53811 1.36382,-1.48559 1.11183,-0.57923 -0.1096,0.25114 -0.16029,0.52685 -0.21371,0.80343 -0.11338,0.39054 -0.22078,0.7822 -0.30045,1.18633 -0.0782,0.3431 -0.2281,0.66095 -0.29081,1.01 -0.32247,0.17613 -0.6359,0.38187 -0.96742,0.52837 -0.004,0.002 0.005,-0.12399 0.028,-0.22418 0.0467,-0.20636 0.12537,-0.39824 0.1986,-0.5905 0.11486,-0.26424 0.22316,-0.53259 0.32762,-0.80365 0,0 0.94214,-0.54297 0.94214,-0.54297 l 0,0 c -0.10412,0.26922 -0.21175,0.53598 -0.32376,0.80008 -0.0658,0.17625 -0.1423,0.36074 -0.1883,0.54806 -0.007,0.0304 -0.0222,0.17738 -0.0337,0.18616 -0.31305,0.23781 -0.63951,0.44586 -0.95926,0.66879 0.0495,-0.098 -0.002,0.012 0.057,-0.1669 0.0919,-0.27754 0.17979,-0.55722 0.26604,-0.83813 0.0778,-0.40196 0.16771,-0.80026 0.29495,-1.18201 0.0511,-0.27368 0.0763,-0.56913 0.19802,-0.80941 0.0674,-0.24133 0.075,-0.0756 0.0951,-0.0896 1.32004,-0.91115 0.99168,-0.92774 0.71698,-0.4315 -0.29511,0.48047 -0.52267,1.02755 -0.76315,1.55335 -0.19047,0.45071 -0.42056,0.88859 -0.47503,1.40567 0,0 -0.95347,0.61764 -0.95347,0.61764 z"
       inkscape:connector-curvature="0" />
    <path
       style="fill:#000000"
       id="path3576"
       d="m 186.7462,464.54984 c 0.12313,-0.38466 0.24987,-0.76426 0.41408,-1.12366 0.19312,-0.4325 0.4204,-0.83552 0.66339,-1.22425 0.0284,-0.0489 0.0568,-0.0979 0.0852,-0.14685 0,0 0.9643,-0.53233 0.9643,-0.53233 l 0,0 c -0.028,0.0524 -0.0561,0.10481 -0.0841,0.15722 -0.25575,0.3776 -0.486,0.78012 -0.68248,1.21211 -0.16173,0.34081 -0.27489,0.70211 -0.3933,1.06878 0,0 -0.96709,0.58898 -0.96709,0.58898 z"
       inkscape:connector-curvature="0" />
    <path
       style="fill:#000000"
       id="path3578"
       d="m 188.67407,461.20238 c -0.0875,0.32916 -0.13565,0.66952 -0.22062,0.99979 -0.0932,0.55883 -0.94084,1.65291 -1.18177,0.91422 -0.0229,-0.15153 0.004,-0.30183 0.0384,-0.44674 0,0 0.96497,-0.56607 0.96497,-0.56607 l 0,0 c -0.0499,0.11274 -0.0562,0.22348 -0.0674,0.35087 0.045,0.19405 0.40433,-0.26822 -0.87602,0.67937 -0.0207,0.0153 0.0409,-0.034 0.0554,-0.0584 0.024,-0.0406 0.0408,-0.0875 0.0581,-0.13323 0.0214,-0.0564 0.0387,-0.11519 0.0581,-0.17278 0.0864,-0.32177 0.13963,-0.64863 0.20385,-0.97811 0,0 0.96709,-0.58897 0.96709,-0.58897 z"
       inkscape:connector-curvature="0" />
    <path
       style="fill:#000000"
       id="path3582"
       d="m 193.82952,464.15808 c 0.0686,-0.3681 0.20222,-0.70818 0.33952,-1.04145 0.13903,-0.41776 0.35522,-0.78127 0.54731,-1.16026 0,0 0.9559,-0.5349 0.9559,-0.5349 l 0,0 c -0.18652,0.37849 -0.41596,0.73092 -0.54562,1.14849 -0.13566,0.31466 -0.25493,0.63203 -0.34589,0.97194 0,0 -0.95122,0.61618 -0.95122,0.61618 z"
       inkscape:connector-curvature="0" />
    <path
       style="fill:#000000"
       id="path3586"
       d="m 194.04036,463.52453 c 0.17271,-0.44327 0.36367,-0.87518 0.57124,-1.29364 0.25995,-0.44418 0.48263,-0.92009 0.71605,-1.38658 0,0 0.94781,-0.52859 0.94781,-0.52859 l 0,0 c -0.24343,0.46193 -0.46186,0.94543 -0.72547,1.39013 -0.20205,0.40039 -0.37724,0.81961 -0.53925,1.24813 0,0 -0.97038,0.57055 -0.97038,0.57055 z"
       inkscape:connector-curvature="0" />
    <path
       style="fill:#000000"
       id="path3588"
       d="m 194.13589,464.03554 c 0.26039,-0.48679 0.51532,-0.97704 0.76603,-1.4722 0.32006,-0.57686 0.60617,-1.18239 0.91247,-1.77072 0,0 0.9613,-0.52996 0.9613,-0.52996 l 0,0 c -0.34296,0.56799 -0.6167,1.19949 -0.94435,1.78157 -0.24167,0.47522 -0.46851,0.96175 -0.71927,1.42981 0,0 -0.97618,0.5615 -0.97618,0.5615 z"
       inkscape:connector-curvature="0" />
    <path
       style="fill:#000000"
       id="path3590"
       d="m 196.33995,461.84682 c -0.15589,0.27915 -0.30897,0.56225 -0.44326,0.86023 -0.0691,0.14319 -0.13005,0.29231 -0.19354,0.43956 -0.01,0.0223 -0.0198,0.0443 -0.0286,0.0671 -0.004,0.0105 -0.004,0.0413 -0.01,0.0326 -0.0174,-0.0244 -0.021,-0.0603 -0.0315,-0.0905 -1.24435,0.85986 -1.01579,0.82381 -0.63583,0.0565 0.16814,-0.37214 0.32192,-0.75606 0.4469,-1.15487 0.167,-0.3714 0.36053,-0.7232 0.55519,-1.07189 0,0 0.9608,-0.52722 0.9608,-0.52722 l 0,0 c -0.2034,0.33454 -0.38277,0.69149 -0.57,1.04079 -0.11701,0.40337 -0.26788,0.7929 -0.43195,1.16813 -0.0577,0.14393 -0.12542,0.28365 -0.20136,0.41344 -0.016,0.0274 -0.044,0.043 -0.0564,0.0733 -0.0104,0.0256 0.0109,0.071 -0.009,0.0859 -0.31382,0.23964 -0.64526,0.43984 -0.96789,0.65976 -0.0148,-0.0337 -0.0375,-0.0635 -0.0446,-0.10103 -6.4e-4,-0.004 0.26275,-0.50495 0.25632,-0.54868 0.0518,-0.11024 0.0956,-0.22627 0.14749,-0.33645 0.0872,-0.18525 0.22267,-0.32796 0.26614,-0.54523 0,0 0.99043,-0.52156 0.99043,-0.52156 z"
       inkscape:connector-curvature="0" />
    <path
       style="fill:#000000"
       id="path3606"
       d="m 202.40425,466.66349 c 0.23217,-0.36111 0.48374,-0.70147 0.70992,-1.07 0.35144,-0.57 0.68604,-1.16039 0.96556,-1.79212 0.11514,-0.2774 0.19594,-0.57388 0.28379,-0.86602 0,0 0.9412,-0.5533 0.9412,-0.5533 l 0,0 c -0.0979,0.29704 -0.18258,0.60074 -0.29475,0.88998 -0.27094,0.63723 -0.60232,1.23061 -0.94951,1.80377 -0.20823,0.3594 -0.43125,0.71129 -0.68003,1.0262 0,0 -0.97618,0.56149 -0.97618,0.56149 z"
       inkscape:connector-curvature="0" />
    <path
       style="fill:#000000"
       id="path3608"
       d="m 202.50268,471.9194 c 0.12346,-0.35675 0.2719,-0.69721 0.44237,-1.02067 0.34425,-0.55592 0.63247,-1.16041 0.91848,-1.76617 0.21903,-0.45655 0.44104,-0.90984 0.66946,-1.35894 0,0 0.9356,-0.52143 0.9356,-0.52143 l 0,0 c -0.23431,0.4471 -0.46184,0.898 -0.67967,1.35841 -0.27927,0.60203 -0.55014,1.21198 -0.89227,1.76082 -0.1683,0.3032 -0.32239,0.63593 -0.41779,0.98649 0,0 -0.97618,0.56149 -0.97618,0.56149 z"
       inkscape:connector-curvature="0" />
    <path
       style="fill:#000000"
       id="path3618"
       d="m 202.70804,475.16152 c 0.18956,-0.34236 0.43149,-0.63063 0.65542,-0.93587 0.30405,-0.4113 0.59493,-0.83499 0.85209,-1.29549 0.1654,-0.26505 0.29926,-0.55732 0.45147,-0.834 0,0 0.95697,-0.52571 0.95697,-0.52571 l 0,0 c -0.16358,0.26949 -0.28524,0.57305 -0.45827,0.83436 -0.25255,0.46636 -0.53912,0.89662 -0.84354,1.30919 -0.21045,0.30169 -0.45885,0.57075 -0.6314,0.90911 0,0 -0.98274,0.53841 -0.98274,0.53841 z"
       inkscape:connector-curvature="0" />
    <path
       style="fill:#000000"
       id="path3622"
       d="m 203.0093,480.28943 c 0.24554,-0.29458 0.46768,-0.61996 0.70352,-0.9274 0.32226,-0.34323 0.58993,-0.75112 0.84034,-1.17775 0.1267,-0.21172 0.0691,-0.11158 0.17395,-0.29939 0,0 0.96756,-0.53394 0.96756,-0.53394 l 0,0 c -0.11098,0.19891 -0.0498,0.0956 -0.18529,0.30824 -0.24793,0.43296 -0.50985,0.85747 -0.83847,1.19717 -0.23233,0.29727 -0.46155,0.60376 -0.66725,0.93033 0,0 -0.99436,0.50274 -0.99436,0.50274 z"
       inkscape:connector-curvature="0" />
    <path
       style="fill:#000000"
       id="path3624"
       d="m 203.2948,480.67426 c 0.15868,-0.28995 0.3229,-0.57547 0.48379,-0.86415 0.17868,-0.29495 0.3572,-0.58972 0.54002,-0.88051 0.10688,-0.22763 0.2236,-0.43333 0.37726,-0.61211 0.26488,-0.25171 -0.6556,0.22499 1.00419,-0.5508 0.0262,-0.0122 -0.0236,0.0642 -0.037,0.0953 -0.0453,0.10479 -0.0613,0.12642 -0.11827,0.22784 -0.14836,0.23186 -0.28194,0.47847 -0.42956,0.71119 -0.15272,0.2049 -0.2702,0.44111 -0.39194,0.67531 -0.061,0.11256 -0.11957,0.22641 -0.17389,0.34432 0,0 -0.96795,0.55144 -0.96795,0.55144 l 0,0 c 0.0499,-0.12451 0.10312,-0.24545 0.17447,-0.35293 0.11316,-0.24659 0.23681,-0.47922 0.38294,-0.69707 0.16804,-0.20737 0.28247,-0.4771 0.4317,-0.70466 0.0242,-0.0325 0.052,-0.0612 0.0726,-0.0975 0.006,-0.0112 0.0557,-0.15439 0.0822,-0.17142 0.3265,-0.21012 0.65787,-0.40812 0.99146,-0.59938 0.007,-0.004 0.006,0.0228 6.5e-4,0.0305 -0.008,0.0118 -0.0225,0.0123 -0.0338,0.0184 -0.0613,0.0827 -0.14728,0.13724 -0.20572,0.21988 -0.0771,0.10904 -0.12056,0.26702 -0.19109,0.38256 -0.17315,0.30081 -0.36972,0.57858 -0.54469,0.87908 -0.0616,0.10648 -0.11443,0.22098 -0.17708,0.32648 -0.10262,0.17281 -0.22398,0.33623 -0.27981,0.54662 0,0 -0.99042,0.52156 -0.99042,0.52156 z"
       inkscape:connector-curvature="0" />
    <path
       style="fill:#000000"
       id="path3626"
       d="m 202.91449,475.40251 c 0.21959,-0.28252 0.41985,-0.58917 0.62502,-0.88876 0.22076,-0.35009 0.44794,-0.69319 0.66192,-1.05006 0.0982,-0.17109 0.0472,-0.0886 0.15275,-0.24772 0,0 0.97546,-0.51775 0.97546,-0.51775 l 0,0 c -0.11778,0.14082 -0.0632,0.0619 -0.16177,0.23911 -0.2234,0.35239 -0.44742,0.70411 -0.66651,1.06114 -0.2049,0.28969 -0.39864,0.59238 -0.59975,0.88422 0,0 -0.98712,0.51982 -0.98712,0.51982 z"
       inkscape:connector-curvature="0" />
    <rect
       style="fill:none"
       id="rect3832"
       width="72.85714"
       height="66.428574"
       x="-178.57143"
       y="-73.765373"
       transform="translate(176.91028,361.03058)" />
    <path
       style="fill:#d40000;fill-opacity:1"
       d="m 198.64256,485.08081 -3.27405,-0.0448 0,-1.4535 c 0,-1.62438 0.1483,-1.939 0.91394,-1.939 0.36987,0 0.44084,0.0622 0.44084,0.3862 0,0.48087 0.10568,0.48637 0.46013,0.0239 0.25576,-0.33366 0.42593,-0.37037 2.15732,-0.46536 1.03382,-0.0567 2.08711,-0.1457 2.34066,-0.19774 l 0.46101,-0.0946 0,1.00076 c 0,0.55042 0.0435,1.42805 0.0967,1.95029 0.0778,0.7643 0.0558,0.94262 -0.1129,0.91409 -0.11529,-0.0195 -1.68293,-0.0556 -3.48366,-0.0803 z"
       id="path3860"
       inkscape:connector-curvature="0" />
    <path
       style="fill:#d40000;fill-opacity:1"
       d="m 187.46356,484.88085 c -0.0575,-0.1859 -0.059,-0.77406 -0.003,-1.30702 0.0967,-0.92668 0.12122,-0.97314 0.56134,-1.06347 0.71611,-0.14698 1.1441,-0.11226 1.21598,0.0986 0.0487,0.14271 0.14073,0.12502 0.35293,-0.0678 0.2758,-0.25062 2.18711,-0.58873 3.32804,-0.58873 l 0.49317,0 0,1.54478 0,1.54478 -2.69725,0 c -1.48348,0 -2.79827,0.0398 -2.92175,0.0884 -0.14392,0.0567 -0.26204,-0.0329 -0.32905,-0.2496 z"
       id="path3873"
       inkscape:connector-curvature="0" />
    <path
       style="fill:#d40000;fill-opacity:1"
       d="m 191.30417,479.03978 0,-1.52238 1.0862,-0.0935 c 0.60596,-0.0521 1.12391,-0.0308 1.1715,0.0482 0.0493,0.0818 0.33748,0.0495 0.68254,-0.0767 0.76647,-0.28014 2.92395,-0.31784 2.65952,-0.0465 -0.11148,0.1144 -0.18064,0.67627 -0.18064,1.46754 0,0.92034 -0.0531,1.28345 -0.18816,1.2867 -0.10349,0.002 -1.27199,0.10526 -2.59666,0.22839 -1.32468,0.12312 -2.4593,0.22536 -2.5214,0.22719 -0.0621,0.002 -0.1129,-0.68174 -0.1129,-1.51905 z"
       id="path3875"
       inkscape:connector-curvature="0" />
    <path
       style="fill:#d40000;fill-opacity:1"
       d="m 198.79099,478.59266 c -0.0452,-0.74338 -0.0507,-1.40377 -0.0123,-1.46755 0.0384,-0.0638 0.69581,-0.11595 1.46089,-0.11595 0.83391,0 1.45923,-0.07 1.56127,-0.17468 0.1266,-0.12993 0.18253,0.22598 0.21827,1.38898 0.0367,1.19524 8.6e-4,1.58218 -0.15242,1.64223 -0.11027,0.0432 -0.82891,0.0786 -1.59699,0.0786 l -1.39652,0 -0.0822,-1.35159 z"
       id="path3877"
       inkscape:connector-curvature="0" />
    <path
       style="fill:#d40000;fill-opacity:1"
       d="m 195.51904,474.40292 0,-1.4102 0.60213,0 c 0.43486,0 0.60212,0.0644 0.60212,0.23171 0,0.28237 0.20826,0.30089 0.42129,0.0375 0.12105,-0.14968 0.64913,-0.1674 2.30148,-0.0773 1.17941,0.0644 2.17968,0.15323 2.22282,0.1975 0.0431,0.0443 0.10751,0.49277 0.14302,0.99666 0.0776,1.10131 0.25162,1.02813 -2.75538,1.1588 -1.15909,0.0504 -2.42919,0.13297 -2.82246,0.18355 l -0.71502,0.092 0,-1.41021 z"
       id="path3879"
       inkscape:connector-curvature="0" />
    <path
       style="fill:#d40000;fill-opacity:1"
       d="m 187.08725,475.21388 c -0.001,-0.66938 -0.0404,-1.36372 -0.0873,-1.54299 -0.0798,-0.30495 -0.0142,-0.33124 1.01814,-0.40829 0.87297,-0.0652 1.12982,-0.0351 1.22992,0.14412 0.11026,0.19735 0.15866,0.19784 0.37633,0.004 0.34551,-0.3079 3.63128,-0.51278 3.64872,-0.22751 0.007,0.10771 0.0581,0.76396 0.1144,1.45833 l 0.10243,1.26249 -1.00869,0.10396 c -0.55478,0.0572 -1.0834,0.0566 -1.17471,-0.001 -0.0913,-0.0579 -0.24773,-0.0365 -0.34759,0.0476 -0.0999,0.0841 -1.01138,0.2033 -2.02558,0.26486 l -1.844,0.11193 -0.002,-1.21705 z"
       id="path3881"
       inkscape:connector-curvature="0" />
    <path
       style="fill:#d40000;fill-opacity:1"
       d="m 180.3562,475.89423 c -0.0883,-1.12853 -0.15052,-2.06089 -0.13829,-2.07191 0.0772,-0.0696 4.50902,-0.37033 4.56781,-0.31 0.04,0.0411 0.10985,0.76521 0.15516,1.60921 l 0.0824,1.53453 -0.39703,0.0779 c -0.21837,0.0428 -0.39703,0.01 -0.39703,-0.0741 0,-0.0845 -0.0962,-0.07 -0.21675,0.0326 -0.11921,0.10154 -0.7458,0.22289 -1.39241,0.26968 -1.03258,0.0747 -1.23212,0.13977 -1.6395,0.53451 l -0.46383,0.44944 -0.16053,-2.05189 z"
       id="path3883"
       inkscape:connector-curvature="0" />
    <path
       style="fill:#d40000;fill-opacity:1"
       d="m 184.32994,480.85543 c -0.0531,-0.20378 -0.0975,-0.87024 -0.0987,-1.48101 l -0.002,-1.11051 0.63976,-0.0895 c 1.26014,-0.17631 3.35816,-0.39034 3.83854,-0.39158 l 0.48922,-10e-4 0,1.52676 c 0,1.82189 0.22165,1.67397 -2.72378,1.81775 l -2.0464,0.0999 -0.0966,-0.37051 z"
       id="path3885"
       inkscape:connector-curvature="0" />
    <path
       style="fill:#d40000;fill-opacity:1"
       d="m 180.70655,480.23442 c -0.057,-0.77499 -0.0837,-1.42559 -0.0592,-1.44578 0.0244,-0.0202 0.35819,-0.0788 0.74169,-0.13025 0.68489,-0.0919 0.69892,-0.0851 0.79029,0.38375 0.0512,0.26251 0.093,0.87365 0.093,1.3581 0,0.87733 -0.002,0.88055 -0.42252,0.81716 -0.2645,-0.0398 -0.49658,0.0279 -0.62055,0.18124 -0.10892,0.13468 -0.24776,0.24487 -0.30854,0.24487 -0.0608,0 -0.15714,-0.63409 -0.21415,-1.40909 z"
       id="path3887"
       inkscape:connector-curvature="0" />
    <path
       style="fill:#d40000;fill-opacity:1"
       d="m 181.62367,485.08499 c -0.4773,-0.0736 -0.49913,-0.11795 -0.61106,-1.24016 l -0.0809,-0.81102 0.6703,0 c 0.52648,0 0.67029,0.0555 0.67029,0.25865 0,0.22236 0.0475,0.21312 0.3387,-0.0659 0.28058,-0.26883 0.56707,-0.33309 1.66978,-0.3745 l 1.33108,-0.05 -0.0875,0.54067 c -0.0482,0.29737 -0.0883,0.83612 -0.0892,1.19721 l -0.002,0.65653 -1.69347,-0.0231 c -0.93141,-0.0127 -1.88376,-0.0525 -2.11633,-0.0884 z"
       id="path3889"
       inkscape:connector-curvature="0" />
    <path
       style="fill:#d40000;fill-opacity:1"
       d="m 179.95064,471.35433 c -0.0578,-0.73118 -0.0818,-1.35334 -0.0533,-1.38257 0.0285,-0.0292 0.50678,-0.10099 1.06287,-0.15945 l 1.01107,-0.10631 0,1.17993 0,1.17992 -0.57879,0 c -0.38762,0 -0.66879,0.10204 -0.85125,0.30895 -0.14985,0.16993 -0.32038,0.30896 -0.37896,0.30896 -0.0586,0 -0.1538,-0.59824 -0.21161,-1.32943 z"
       id="path3891"
       inkscape:connector-curvature="0" />
    <path
       style="fill:#d40000;fill-opacity:1"
       d="m 179.64458,468.02688 c -0.0485,-0.28498 -0.14066,-1.04769 -0.20475,-1.6949 l -0.11652,-1.17675 1.21107,-0.0968 c 0.66609,-0.0532 2.1412,-0.0972 3.27801,-0.0977 2.02035,-9.1e-4 2.06869,0.007 2.14496,0.34665 0.38468,1.71362 0.52571,2.37114 0.52761,2.4599 0.003,0.15825 -2.40061,0.2249 -2.45113,0.0679 -0.0242,-0.0753 -0.17648,-0.0631 -0.33831,0.0271 -0.16182,0.0902 -0.93774,0.24099 -1.72427,0.33511 -0.78652,0.0941 -1.61193,0.21084 -1.83424,0.25937 -0.36428,0.0795 -0.41291,0.037 -0.49243,-0.42993 z"
       id="path3893"
       inkscape:connector-curvature="0" />
    <path
       style="fill:#d40000;fill-opacity:1"
       d="m 183.91745,471.86057 c 0.0887,-0.091 0.16124,-0.63818 0.16124,-1.21593 l 0,-1.05045 1.64429,0 c 1.50521,0 1.68028,-0.0307 2.0698,-0.36324 0.23403,-0.19979 0.57347,-0.44309 0.75431,-0.54068 0.68766,-0.37108 0.72806,-0.28566 0.67781,1.43302 l -0.0471,1.61109 -0.93135,0.0837 c -2.07416,0.18643 -4.4924,0.21016 -4.329,0.0425 z"
       id="path3895"
       inkscape:connector-curvature="0" />
    <path
       style="fill:#d40000;fill-opacity:1"
       d="m 191.27623,470.13519 0.0473,-1.62235 0.70534,-9.2e-4 c 0.38794,-4.6e-4 0.89813,-0.10414 1.13376,-0.23025 0.39942,-0.21379 0.43373,-0.20849 0.50679,0.0782 0.0925,0.36322 0.17171,0.37321 0.56124,0.0709 0.38051,-0.29535 2.95964,-0.33532 2.67326,-0.0414 -0.11553,0.11855 -0.18064,0.72244 -0.18064,1.67532 l 0,1.48994 -2.05597,0.10118 c -1.13078,0.0557 -2.36702,0.10134 -2.74719,0.10152 l -0.69122,2.3e-4 0.0473,-1.62235 z"
       id="path3897"
       inkscape:connector-curvature="0" />
    <path
       style="fill:#d40000;fill-opacity:1"
       d="m 188.46089,466.20879 c -0.26467,-1.26648 -0.31367,-1.21022 1.14981,-1.32024 0.72443,-0.0545 1.94975,-0.17038 2.72294,-0.25759 0.77319,-0.0872 1.43504,-0.12858 1.47077,-0.0919 0.0357,0.0367 0.02,0.56344 -0.035,1.1706 l -0.1,1.10392 -1.52133,10e-4 c -0.83673,6.9e-4 -1.971,0.0447 -2.5206,0.098 l -0.99928,0.0969 -0.16734,-0.80072 0,0 z"
       id="path3899"
       inkscape:connector-curvature="0" />
    <path
       style="fill:#d40000;fill-opacity:1"
       d="m 195.72873,466.10579 c 0.0503,-0.13439 0.0914,-0.621 0.0914,-1.08135 0,-0.80808 0.0142,-0.83699 0.40988,-0.83699 0.22544,0 1.41985,-0.18036 2.65425,-0.40079 2.54972,-0.45532 2.49817,-0.47151 2.50527,0.78698 0.002,0.42482 0.0439,0.92367 0.0922,1.10856 0.0748,0.28608 0.002,0.36075 -0.49128,0.50119 -0.31853,0.0908 -1.65328,0.16542 -2.96611,0.16589 -2.11497,6.9e-4 -2.37656,-0.027 -2.2956,-0.24349 l 0,0 z"
       id="path3901"
       inkscape:connector-curvature="0" />
    <path
       style="fill:#d40000;fill-opacity:1"
       d="m 199.62101,471.643 -0.79029,-0.0567 -0.0293,-1.22775 c -0.0592,-2.48271 -0.192,-2.16146 1.05515,-2.55226 0.60562,-0.18978 1.23221,-0.46678 1.39241,-0.61557 0.28633,-0.26592 0.29127,-0.24166 0.29127,1.43114 0,0.9359 0.0431,2.02416 0.0957,2.41836 l 0.0957,0.71671 -0.66021,-0.0286 c -0.36312,-0.0157 -1.01585,-0.0541 -1.45051,-0.0853 z"
       id="path3903"
       inkscape:connector-curvature="0" />
    <path
       style="fill:#d40000;fill-opacity:1"
       d="m 203.50013,467.81769 c -0.002,-1.61046 0.0207,-1.73386 0.42637,-2.36132 l 0.42802,-0.66205 0.0971,1.40324 c 0.0895,1.29461 0.0685,1.45949 -0.2721,2.1296 -0.66952,1.31736 -0.67758,1.31132 -0.67936,-0.50947 z"
       id="path3905"
       inkscape:connector-curvature="0" />
    <path
       style="fill:#d40000;fill-opacity:1"
       d="m 203.5123,463.64677 c -0.009,-0.94252 0.0488,-1.18051 0.44787,-1.85374 l 0.45785,-0.77239 -0.0539,1.00411 c -0.0361,0.67254 -0.18396,1.28466 -0.44787,1.85374 l -0.39401,0.84963 -0.01,-1.08135 0,0 z"
       id="path3907"
       inkscape:connector-curvature="0" />
    <path
       style="fill:#d40000;fill-opacity:1"
       d="m 203.65482,472.25894 c 0.006,-1.0153 0.0736,-1.3263 0.44449,-2.04684 l 0.43739,-0.84963 0.007,1.37674 c 0.006,1.20351 -0.0411,1.46105 -0.37557,2.04684 -0.21047,0.36855 -0.41369,0.6701 -0.4516,0.6701 -0.0379,0 -0.0657,-0.53874 -0.0618,-1.19721 z"
       id="path3909"
       inkscape:connector-curvature="0" />
    <path
       style="fill:#d40000;fill-opacity:1"
       d="m 203.87529,477.03955 -0.10791,-1.84309 0.46703,-0.66161 0.46702,-0.66162 0,1.96235 c 0,1.81356 -0.0272,2.00348 -0.35911,2.5047 l -0.35912,0.54235 -0.10791,-1.84308 z"
       id="path3911"
       inkscape:connector-curvature="0" />
    <path
       style="fill:#d40000;fill-opacity:1"
       d="m 204.19266,483.01076 c -0.0513,-0.26345 -0.0933,-0.96008 -0.0933,-1.54806 0,-0.93436 0.0474,-1.11772 0.37633,-1.45526 l 0.37632,-0.3862 0,1.36467 c 0,1.0306 -0.0693,1.5041 -0.28297,1.93426 l -0.28298,0.56959 -0.0934,-0.479 z"
       id="path3913"
       inkscape:connector-curvature="0" />
    <path
       style="fill:#d40000;fill-opacity:1"
       d="m 195.97063,462.9081 c 0,-0.0399 0.1685,-0.4635 0.37443,-0.94137 0.34568,-0.80212 0.41255,-0.86885 0.87077,-0.86885 0.47217,0 4.73127,-0.67743 5.49362,-0.87379 l 0.3609,-0.0929 -0.38584,0.78139 c -0.21222,0.42977 -0.44578,0.81941 -0.51903,0.86586 -0.35967,0.22812 -6.19485,1.29223 -6.19485,1.12971 z"
       id="path3915"
       inkscape:connector-curvature="0" />
    <path
       style="fill:#d40000;fill-opacity:1"
       d="m 187.99601,463.47357 c 0.002,-0.0747 0.18826,-0.48333 0.41406,-0.90815 l 0.41055,-0.77239 1.88153,-0.0964 c 1.03485,-0.053 2.40501,-0.14793 3.04482,-0.21093 l 1.16328,-0.11454 -0.45039,0.92495 -0.4504,0.92496 -1.50317,0.097 c -0.82675,0.0533 -2.18057,0.1407 -3.00849,0.19412 -0.83733,0.054 -1.50375,0.0369 -1.50179,-0.0386 z"
       id="path3917"
       inkscape:connector-curvature="0" />
    <path
       style="fill:#d40000;fill-opacity:1"
       d="m 179.72756,462.66651 0.45344,-0.74855 2.3628,-0.10057 c 3.14333,-0.13379 4.58138,-0.12762 4.52042,0.0194 -0.0276,0.0666 -0.18566,0.44863 -0.35124,0.84905 l -0.30106,0.72804 -3.5689,4.6e-4 -3.56889,6.9e-4 0.45343,-0.74855 z"
       id="path3919"
       inkscape:connector-curvature="0" />
  </g>
</svg>
