<?xml version="1.0" encoding="UTF-8" standalone="no"?>
<!-- Created with Inkscape (http://www.inkscape.org/) -->

<svg
   xmlns:dc="http://purl.org/dc/elements/1.1/"
   xmlns:cc="http://creativecommons.org/ns#"
   xmlns:rdf="http://www.w3.org/1999/02/22-rdf-syntax-ns#"
   xmlns:svg="http://www.w3.org/2000/svg"
   xmlns="http://www.w3.org/2000/svg"
   xmlns:sodipodi="http://sodipodi.sourceforge.net/DTD/sodipodi-0.dtd"
   xmlns:inkscape="http://www.inkscape.org/namespaces/inkscape"
   width="29.000095"
   height="28.999996"
   id="svg2992"
   version="1.1"
   inkscape:version="0.48.3.1 r9886"
   sodipodi:docname="research_factory.svg">
  <defs
     id="defs2994" />
  <sodipodi:namedview
     id="base"
     pagecolor="#ffffff"
     bordercolor="#666666"
     borderopacity="1.0"
     inkscape:pageopacity="0.0"
     inkscape:pageshadow="2"
     inkscape:zoom="14.481547"
     inkscape:cx="24.284084"
     inkscape:cy="12.172182"
     inkscape:document-units="px"
     inkscape:current-layer="layer1"
     showgrid="false"
     fit-margin-top="0"
     fit-margin-left="0"
     fit-margin-right="0"
     fit-margin-bottom="0"
     inkscape:window-width="1311"
     inkscape:window-height="744"
     inkscape:window-x="55"
     inkscape:window-y="24"
     inkscape:window-maximized="1" />
  <metadata
     id="metadata2997">
    <rdf:RDF>
      <cc:Work
         rdf:about="">
        <dc:format>image/svg+xml</dc:format>
        <dc:type
           rdf:resource="http://purl.org/dc/dcmitype/StillImage" />
        <dc:title />
      </cc:Work>
    </rdf:RDF>
  </metadata>
  <g
     inkscape:label="Layer 1"
     inkscape:groupmode="layer"
     id="layer1"
     transform="translate(-73.520292,-516.7781)">
    <path
       style="fill:#1a1a1a;fill-opacity:1"
       id="path3042"
       d="m 90.247448,537.92302 c 1.010877,0.67679 1.957532,1.42441 2.897311,2.17482 1.638957,1.33059 3.170827,2.75577 4.650754,4.22121 0.483705,0.47755 0.970915,0.95233 1.459795,1.42581 0.43333,0.39627 -0.20599,0.93344 -0.63932,0.53719 l 0,0 c -0.524804,-0.45349 -1.048459,-0.90814 -1.553684,-1.37857 -1.506766,-1.41339 -3.038208,-2.80625 -4.599007,-4.17385 -0.891661,-0.76722 -1.795256,-1.52334 -2.687086,-2.29027 -0.416529,-0.29208 0.05469,-0.80842 0.471237,-0.51634 z"
       inkscape:connector-curvature="0"
       inkscape:export-filename="/home/sade/Desktop/net-game/images/buildings/research_factory.png"
       inkscape:export-xdpi="90"
       inkscape:export-ydpi="90" />
    <path
       style="fill:#1a1a1a;fill-opacity:1"
       id="path3042-7"
       d="m 94.126846,534.64529 c 0.850803,0.66298 1.647552,1.39533 2.438507,2.13043 1.379395,1.30342 2.668675,2.69952 3.914267,4.13506 0.40709,0.4678 0.81715,0.93288 1.2286,1.39671 0.36471,0.38816 -0.17336,0.91438 -0.53807,0.52621 l 0,0 c -0.44169,-0.44423 -0.88242,-0.88959 -1.307632,-1.35043 -1.26817,-1.38453 -2.55709,-2.74897 -3.870711,-4.08865 -0.750472,-0.75156 -1.510973,-1.49226 -2.261572,-2.24353 -0.35056,-0.28613 0.04603,-0.79192 0.396611,-0.5058 z"
       inkscape:connector-curvature="0"
       inkscape:export-filename="/home/sade/Desktop/net-game/images/buildings/research_factory.png"
       inkscape:export-xdpi="90"
       inkscape:export-ydpi="90" />
    <path
       style="fill:#1a1a1a;fill-opacity:1"
       id="path3068"
       d="m 99.101918,545.22748 c 0.47115,-0.22093 0.918882,-0.47665 1.340392,-0.79674 0.12342,-0.0817 0.28809,-0.21393 0.31507,-0.3499 0.008,-0.19725 0.005,-0.39533 -0.001,-0.59301 6e-4,-0.23606 -0.004,-0.47202 0.004,-0.70799 0.0143,-0.40491 0.0267,-0.11113 0.75827,-0.55936 0.62292,0.3331 0.19905,1.31216 -0.42387,0.97903 l 0,0 c 0.68407,-0.55973 0.6237,-0.80695 0.64485,-0.42733 0.0107,0.23515 0.0107,0.47045 0.0159,0.70576 -0.004,0.30602 0.01,0.61617 -0.0538,0.91639 -0.11552,0.40826 -0.35093,0.72607 -0.66998,0.96645 -0.49475,0.39878 -1.01747,0.74173 -1.610132,0.93225 -0.67796,0.25114 -0.99755,-0.81442 -0.31959,-1.06555 z"
       inkscape:connector-curvature="0"
       inkscape:export-filename="/home/sade/Desktop/net-game/images/buildings/research_factory.png"
       inkscape:export-xdpi="90"
       inkscape:export-ydpi="90" />
    <path
       style="fill:#808080;fill-opacity:1"
       d=""
       id="path3070"
       inkscape:connector-curvature="0"
       transform="translate(73.520292,516.7781)" />
    <path
       style="fill:#1a1a1a;fill-opacity:1"
       d="m 84.423975,539.44601 c -1.8954,-0.45176 -3.392192,-1.23169 -5.280792,-2.75167 -2.560375,-2.06064 -4.684443,-4.9768 -5.367299,-7.36886 -0.387489,-1.35738 -0.302219,-2.86132 0.231722,-4.08697 1.342313,-3.08127 4.688875,-5.96271 8.632898,-7.43305 1.206342,-0.44972 1.992125,-0.49498 3.25705,-0.18757 4.073736,0.99003 7.90303,4.28712 9.538796,8.21309 0.657067,1.57701 0.811917,2.29554 0.876848,4.06873 0.07394,2.01889 -0.190242,3.30587 -1.014905,4.94438 -0.421247,0.83697 -0.743576,1.253 -1.638683,2.115 -1.451361,1.3977 -2.745493,2.08882 -4.764002,2.54419 -1.093338,0.24665 -3.315926,0.21819 -4.471633,-0.0573 z m 4.181348,-1.8179 c 3.997413,-0.9468 6.598529,-4.01 6.807885,-8.0173 0.156553,-2.99656 -0.914143,-5.73755 -3.117721,-7.9814 -1.220872,-1.24319 -2.248923,-1.97195 -3.702099,-2.62434 -1.684806,-0.75637 -2.486528,-0.91268 -4.298323,-0.83803 -1.716081,0.0707 -2.815451,0.35609 -3.594718,0.93312 -0.245885,0.18208 -0.8794,0.64704 -1.407808,1.03325 -3.03314,2.21691 -4.659598,5.00894 -4.426257,7.59827 0.380404,4.22126 4.649651,8.80901 9.106508,9.7859 0.531754,0.11656 1.024837,0.2298 1.095737,0.25165 0.417427,0.12866 2.798975,0.0336 3.536796,-0.14112 l 0,0 z"
       id="path3096"
       inkscape:connector-curvature="0"
       inkscape:export-filename="/home/sade/Desktop/net-game/images/buildings/research_factory.png"
       inkscape:export-xdpi="90"
       inkscape:export-ydpi="90" />
    <path
       style="fill:#ececec;fill-opacity:1"
       d="m 83.955785,537.41268 c -3.150401,-0.80974 -6.359081,-3.41835 -7.903822,-6.42569 -1.261731,-2.45638 -1.367749,-4.63872 -0.324304,-6.67567 0.980921,-1.9149 3.966757,-4.70181 5.979459,-5.58108 0.742065,-0.32418 1.215379,-0.38596 2.994645,-0.39091 l 2.113278,-0.006 1.802354,0.8597 c 3.134107,1.49492 5.552611,4.24562 6.352415,7.22496 0.376295,1.40173 0.373941,3.92843 -0.0048,5.15521 -0.686506,2.22364 -2.319856,4.20978 -4.225026,5.13759 -1.993885,0.97101 -4.662625,1.24707 -6.784204,0.70176 z"
       id="path3102"
       inkscape:connector-curvature="0"
       inkscape:export-filename="/home/sade/Desktop/net-game/images/buildings/research_factory.png"
       inkscape:export-xdpi="90"
       inkscape:export-ydpi="90" />
    <path
       style="fill:#1a1a1a;fill-opacity:1"
       d="m 96.628853,543.34241 c -1.383347,-1.30918 -3.202735,-2.905 -4.043082,-3.54623 -0.840349,-0.64124 -1.533936,-1.22434 -1.541303,-1.29579 -0.0074,-0.0716 0.287217,-0.30675 0.654632,-0.52292 0.367418,-0.21618 1.120678,-0.82929 1.673917,-1.36249 l 1.005886,-0.96945 1.475386,1.49238 c 5.039081,5.0971 5.454331,5.58274 5.451011,6.37494 -0.002,0.41392 -0.0711,0.84664 -0.15416,0.96162 -0.16308,0.22576 -1.717472,1.24831 -1.897582,1.24831 -0.0602,0 -1.241356,-1.07118 -2.624705,-2.38037 z"
       id="path3104"
       inkscape:connector-curvature="0"
       inkscape:export-filename="/home/sade/Desktop/net-game/images/buildings/research_factory.png"
       inkscape:export-xdpi="90"
       inkscape:export-ydpi="90" />
    <path
       style="fill:#000000;fill-opacity:1"
       id="path3169"
       d="m 92.333895,518.24524 c 0.07155,0.6467 0.0079,1.30207 -0.02904,1.94941 -0.05109,1.08283 -0.262107,2.14626 -0.47342,3.20754 -0.01399,0.0893 -0.02706,0.17867 -0.04066,0.26798 0,0 -0.641104,4.8e-4 -0.641104,4.8e-4 l 0,0 c -0.01558,-0.0912 -0.02983,-0.18231 -0.04462,-0.27344 -0.05505,-1.07923 0.102303,-2.15394 0.305511,-3.21327 0.129232,-0.65223 0.250609,-1.3146 0.490633,-1.93867 0,0 0.43296,0 0.43296,0 z"
       inkscape:connector-curvature="0"
       inkscape:export-filename="/home/sade/Desktop/net-game/images/buildings/research_factory.png"
       inkscape:export-xdpi="90"
       inkscape:export-ydpi="90" />
    <path
       style="fill:#000000;fill-opacity:1"
       id="path3169-3"
       d="m 95.104041,518.42755 c -0.378799,0.18187 -0.776712,0.23659 -1.16718,0.3143 -0.651956,0.14115 -1.308848,0.1261 -1.964499,0.11024 -0.05478,0.003 -0.109431,0.006 -0.16424,0.008 0,0 -0.06653,-0.61276 -0.06653,-0.61276 l 0,0 c 0.05293,-0.0303 0.105868,-0.0604 0.158682,-0.0907 0.638808,-0.242 1.296888,-0.28022 1.950533,-0.27181 0.402864,0.009 0.810967,0.009 1.208472,0.12875 0,0 0.04475,0.41388 0.04475,0.41388 z"
       inkscape:connector-curvature="0"
       inkscape:transform-center-x="1.6812411"
       inkscape:transform-center-y="0.48906195"
       inkscape:export-filename="/home/sade/Desktop/net-game/images/buildings/research_factory.png"
       inkscape:export-xdpi="90"
       inkscape:export-ydpi="90" />
    <path
       style="fill:#000000;fill-opacity:1"
       id="path3169-1"
       d="m 94.89001,517.96432 c 0.260048,0.59938 0.393781,1.24468 0.549546,1.87517 0.27177,1.05134 0.384647,2.12875 0.496613,3.20424 0.01399,0.0893 0.0268,0.17868 0.04039,0.26802 0,0 -0.613872,0.17944 -0.613872,0.17944 l 0,0 c -0.04145,-0.083 -0.0825,-0.16624 -0.123688,-0.24937 -0.372357,-1.01826 -0.540002,-2.0915 -0.659123,-3.16283 -0.06943,-0.66077 -0.149363,-1.32905 -0.104283,-1.99378 0,0 0.414678,-0.12089 0.414678,-0.12089 z"
       inkscape:connector-curvature="0"
       inkscape:export-filename="/home/sade/Desktop/net-game/images/buildings/research_factory.png"
       inkscape:export-xdpi="90"
       inkscape:export-ydpi="90" />
    <path
       style="fill:#000000;fill-opacity:1"
       id="path3169-2"
       d="m 86.119721,522.65902 c 0.482924,0.3518 0.893365,0.80108 1.313191,1.22793 0.70906,0.70597 1.311711,1.50935 1.912766,2.31163 0.05306,0.0647 0.105999,0.12922 0.159078,0.19395 0,0 -0.373189,0.43897 -0.373189,0.43897 l 0,0 c -0.07089,-0.0463 -0.141706,-0.0926 -0.212632,-0.13878 -0.768436,-0.63111 -1.410108,-1.40475 -2.014502,-2.20025 -0.369717,-0.49263 -0.750985,-0.98614 -1.036958,-1.5371 0,0 0.252246,-0.29628 0.252246,-0.29628 z"
       inkscape:connector-curvature="0"
       inkscape:export-filename="/home/sade/Desktop/net-game/images/buildings/research_factory.png"
       inkscape:export-xdpi="90"
       inkscape:export-ydpi="90" />
    <path
       style="fill:#000000;fill-opacity:1"
       id="path3169-3-4"
       d="m 87.857965,520.87641 c -0.09663,0.37192 -0.291082,0.67811 -0.465552,0.99346 -0.283479,0.53359 -0.676482,0.97373 -1.069221,1.41262 -0.0301,0.0391 -0.06006,0.0781 -0.09016,0.11722 0,0 -0.45688,-0.33419 -0.45688,-0.33419 l 0,0 c 0.01056,-0.0549 0.02033,-0.10999 0.03063,-0.16482 0.207049,-0.58707 0.564357,-1.06107 0.950892,-1.50316 0.240907,-0.27003 0.478528,-0.54945 0.791919,-0.74715 0,0 0.30848,0.22588 0.30848,0.22588 z"
       inkscape:connector-curvature="0"
       inkscape:transform-center-x="0.66984272"
       inkscape:transform-center-y="1.4855837"
       inkscape:export-filename="/home/sade/Desktop/net-game/images/buildings/research_factory.png"
       inkscape:export-xdpi="90"
       inkscape:export-ydpi="90" />
    <path
       style="fill:#000000;fill-opacity:1"
       id="path3169-1-8"
       d="m 87.417177,520.73581 c 0.560489,0.19348 1.078711,0.50186 1.599639,0.78595 0.875702,0.46555 1.676584,1.05597 2.475645,1.64581 0.06891,0.0462 0.137667,0.0924 0.206362,0.13848 0,0 -0.235192,0.53128 -0.235192,0.53128 l 0,0 c -0.08065,-0.0232 -0.161533,-0.0464 -0.242293,-0.0698 -0.911713,-0.37618 -1.741702,-0.92653 -2.54207,-1.50892 -0.49128,-0.36196 -0.993859,-0.72139 -1.42117,-1.16412 0,0 0.159079,-0.3587 0.159079,-0.3587 z"
       inkscape:connector-curvature="0"
       inkscape:export-filename="/home/sade/Desktop/net-game/images/buildings/research_factory.png"
       inkscape:export-xdpi="90"
       inkscape:export-ydpi="90" />
    <path
       style="fill:#000000;fill-opacity:1"
       id="path3169-2-0"
       d="m 99.942768,521.06046 c -0.42241,0.42684 -0.92455,0.76238 -1.40703,1.1115 -0.800643,0.59239 -1.674748,1.05905 -2.547546,1.52428 -0.07115,0.0422 -0.14234,0.0842 -0.213504,0.12635 0,0 -0.350378,-0.45858 -0.350378,-0.45858 l 0,0 c 0.05689,-0.0635 0.113787,-0.12716 0.170694,-0.19082 0.740121,-0.66625 1.592973,-1.17793 2.459923,-1.64775 0.536031,-0.28637 1.075001,-0.58424 1.651441,-0.77495 0,0 0.2364,0.30987 0.2364,0.30987 z"
       inkscape:connector-curvature="0"
       inkscape:export-filename="/home/sade/Desktop/net-game/images/buildings/research_factory.png"
       inkscape:export-xdpi="90"
       inkscape:export-ydpi="90" />
    <path
       style="fill:#000000;fill-opacity:1"
       id="path3169-3-4-7"
       d="m 101.3254,523.14895 c -0.33665,-0.16551 -0.59299,-0.41849 -0.86166,-0.6528 -0.45676,-0.38461 -0.804672,-0.8635 -1.151472,-1.3419 -0.0318,-0.0377 -0.0636,-0.0752 -0.0953,-0.11291 0,0 0.40098,-0.40354 0.40098,-0.40354 l 0,0 c 0.0504,0.0203 0.10098,0.0405 0.15138,0.0609 0.521542,0.31662 0.908192,0.7654 1.259112,1.2381 0.21351,0.29359 0.43652,0.58555 0.56803,0.93971 0,0 -0.27094,0.27243 -0.27094,0.27243 z"
       inkscape:connector-curvature="0"
       inkscape:transform-center-x="1.3067029"
       inkscape:transform-center-y="-0.93973489"
       inkscape:export-filename="/home/sade/Desktop/net-game/images/buildings/research_factory.png"
       inkscape:export-xdpi="90"
       inkscape:export-ydpi="90" />
    <path
       style="fill:#000000;fill-opacity:1"
       id="path3169-1-8-1"
       d="m 101.53911,522.72668 c -0.28575,0.53428 -0.67324,1.0048 -1.0381,1.48249 -0.601882,0.80519 -1.309122,1.51178 -2.015482,2.2166 -0.0564,0.0615 -0.11287,0.12305 -0.16926,0.18453 0,0 -0.463307,-0.33512 -0.463307,-0.33512 l 0,0 c 0.03683,-0.0779 0.07353,-0.15559 0.110356,-0.23347 0.523331,-0.85795 1.197661,-1.60134 1.897161,-2.30885 0.433662,-0.43347 0.866932,-0.87885 1.365882,-1.23273 0,0 0.31274,0.22655 0.31274,0.22655 z"
       inkscape:connector-curvature="0"
       inkscape:export-filename="/home/sade/Desktop/net-game/images/buildings/research_factory.png"
       inkscape:export-xdpi="90"
       inkscape:export-ydpi="90" />
    <path
       style="fill:#000000;fill-opacity:1"
       id="path3169-2-0-8"
       d="m 102.32992,528.62602 c -0.57445,-0.14336 -1.1163,-0.40474 -1.65887,-0.64178 -0.911042,-0.38647 -1.757902,-0.90397 -2.602856,-1.42108 -0.07247,-0.0398 -0.14469,-0.0799 -0.217081,-0.11976 0,0 0.190324,-0.55008 0.190324,-0.55008 l 0,0 c 0.08237,0.016 0.164811,0.032 0.247201,0.0482 0.93952,0.2943 1.812022,0.76929 2.657712,1.27885 0.51946,0.31723 1.04995,0.63094 1.51238,1.03432 0,0 -0.1287,0.37143 -0.1287,0.37143 z"
       inkscape:connector-curvature="0"
       inkscape:export-filename="/home/sade/Desktop/net-game/images/buildings/research_factory.png"
       inkscape:export-xdpi="90"
       inkscape:export-ydpi="90" />
    <path
       style="fill:#000000;fill-opacity:1"
       id="path3169-3-4-7-1"
       d="m 101.34991,530.5992 c -0.0429,-0.33792 0.0286,-0.65479 0.0783,-0.97244 0.0733,-0.53354 0.28151,-1.02714 0.49005,-1.51963 0.014,-0.0422 0.0279,-0.0845 0.0421,-0.12673 0,0 0.54394,0.12089 0.54394,0.12089 l 0,0 c 0.0106,0.0485 0.0203,0.097 0.0305,0.14554 0.017,0.55178 -0.1461,1.06119 -0.34775,1.55422 -0.12765,0.30277 -0.24883,0.61215 -0.46966,0.87986 0,0 -0.36734,-0.0818 -0.36734,-0.0818 z"
       inkscape:connector-curvature="0"
       inkscape:transform-center-x="-0.12137007"
       inkscape:transform-center-y="-1.4205435"
       inkscape:export-filename="/home/sade/Desktop/net-game/images/buildings/research_factory.png"
       inkscape:export-xdpi="90"
       inkscape:export-ydpi="90" />
    <path
       style="fill:#000000;fill-opacity:1"
       id="path3169-1-8-1-0"
       d="m 101.80844,530.674 c -0.63148,0.14742 -1.26476,0.17232 -1.891492,0.21962 -1.04891,0.0898 -2.071115,0.0303 -3.091243,-0.0297 -0.08607,-10e-4 -0.17212,-0.003 -0.258187,-0.003 0,0 0.03115,-0.58903 0.03115,-0.58903 l 0,0 c 0.08937,-0.0253 0.17847,-0.0505 0.267704,-0.0756 1.050648,-0.18694 2.086473,-0.1782 3.105083,-0.12534 0.626955,0.0363 1.264155,0.0642 1.858305,0.20586 0,0 -0.0214,0.39785 -0.0214,0.39785 z"
       inkscape:connector-curvature="0"
       inkscape:export-filename="/home/sade/Desktop/net-game/images/buildings/research_factory.png"
       inkscape:export-xdpi="90"
       inkscape:export-ydpi="90" />
    <path
       style="fill:#000000;fill-opacity:1"
       id="path3169-2-0-8-4"
       d="m 97.136139,535.21767 c -0.222427,-0.52666 -0.332822,-1.09209 -0.462872,-1.6448 -0.227443,-0.9218 -0.314421,-1.86464 -0.40058,-2.8058 -0.01056,-0.0781 -0.02165,-0.15636 -0.03247,-0.23468 0,0 0.543659,-0.1501 0.543659,-0.1501 l 0,0 c 0.03551,0.0731 0.07089,0.14618 0.106263,0.21932 0.316573,0.89398 0.451916,1.83378 0.544438,2.77137 0.05359,0.57824 0.116296,1.16316 0.06864,1.74361 0,0 -0.367235,0.10111 -0.367235,0.10111 z"
       inkscape:connector-curvature="0"
       inkscape:export-filename="/home/sade/Desktop/net-game/images/buildings/research_factory.png"
       inkscape:export-xdpi="90"
       inkscape:export-ydpi="90" />
    <path
       style="fill:#000000;fill-opacity:1"
       id="path3169-3-4-7-1-2"
       d="m 94.740964,535.74797 c 0.275822,-0.25907 0.599615,-0.40824 0.911369,-0.5763 0.517681,-0.29085 1.078593,-0.44197 1.638634,-0.59218 0.04567,-0.0162 0.09161,-0.0324 0.13735,-0.0485 0,0 0.209675,0.53615 0.209675,0.53615 l 0,0 c -0.03736,0.0405 -0.07458,0.0811 -0.111939,0.12166 -0.481327,0.37854 -1.029936,0.57807 -1.586413,0.73444 -0.343976,0.0929 -0.690091,0.19536 -1.057234,0.18687 0,0 -0.141403,-0.36217 -0.141403,-0.36217 z"
       inkscape:connector-curvature="0"
       inkscape:transform-center-x="-1.3125429"
       inkscape:transform-center-y="-0.91771881"
       inkscape:export-filename="/home/sade/Desktop/net-game/images/buildings/research_factory.png"
       inkscape:export-xdpi="90"
       inkscape:export-ydpi="90" />
    <path
       style="fill:#000000;fill-opacity:1"
       id="path3169-1-8-1-0-8"
       d="m 95.038343,536.11221 c -0.370457,-0.47554 -0.645263,-1.02417 -0.935052,-1.55391 -0.493431,-0.88036 -0.858594,-1.82408 -1.222503,-2.76628 -0.03366,-0.0773 -0.06745,-0.15448 -0.101247,-0.2317 0,0 0.475795,-0.31585 0.475795,-0.31585 l 0,0 c 0.05584,0.0647 0.111544,0.12937 0.167395,0.19394 0.570456,0.82526 0.981068,1.75148 1.349993,2.68813 0.224103,0.57873 0.459044,1.16159 0.587075,1.77259 0,0 -0.32147,0.21308 -0.32147,0.21308 z"
       inkscape:connector-curvature="0"
       inkscape:export-filename="/home/sade/Desktop/net-game/images/buildings/research_factory.png"
       inkscape:export-xdpi="90"
       inkscape:export-ydpi="90" />
    <path
       style="fill:#000000;fill-opacity:1"
       id="path3169-2-0-8-4-3"
       d="m 89.429421,535.70785 c 0.304415,-0.58479 0.721218,-1.10208 1.113165,-1.62675 0.646252,-0.88414 1.409421,-1.66303 2.171639,-2.43995 0.06085,-0.0678 0.121576,-0.1355 0.182403,-0.20317 0,0 0.512493,0.35611 0.512493,0.35611 l 0,0 c -0.03907,0.085 -0.07801,0.17021 -0.117219,0.2553 -0.559447,0.94014 -1.286011,1.7584 -2.040679,2.53817 -0.467928,0.47781 -0.935236,0.96857 -1.475938,1.36104 0,0 -0.34593,-0.24075 -0.34593,-0.24075 z"
       inkscape:connector-curvature="0"
       inkscape:export-filename="/home/sade/Desktop/net-game/images/buildings/research_factory.png"
       inkscape:export-xdpi="90"
       inkscape:export-ydpi="90" />
    <path
       style="fill:#000000;fill-opacity:1"
       id="path3169-3-4-7-1-2-8"
       d="m 87.501039,534.1667 c 0.369308,0.0528 0.687609,0.21415 1.012221,0.3538 0.547843,0.22431 1.019468,0.57243 1.489851,0.92042 0.04145,0.0259 0.08277,0.052 0.123952,0.0779 0,0 -0.264351,0.50971 -0.264351,0.50971 l 0,0 c -0.05399,-0.003 -0.108112,-0.008 -0.162115,-0.0114 -0.589755,-0.13925 -1.089483,-0.44666 -1.562163,-0.7879 -0.289353,-0.2134 -0.587286,-0.42222 -0.816102,-0.71889 0,0 0.178694,-0.34417 0.178694,-0.34417 z"
       inkscape:connector-curvature="0"
       inkscape:transform-center-x="-1.5013102"
       inkscape:transform-center-y="0.5085976"
       inkscape:export-filename="/home/sade/Desktop/net-game/images/buildings/research_factory.png"
       inkscape:export-xdpi="90"
       inkscape:export-ydpi="90" />
    <path
       style="fill:#000000;fill-opacity:1"
       id="path3169-1-8-1-0-8-1"
       d="m 87.420675,534.6359 c 0.116295,-0.59844 0.348253,-1.1678 0.556529,-1.73694 0.338551,-0.95525 0.806387,-1.84934 1.273866,-2.74145 0.03577,-0.0764 0.07168,-0.15246 0.107452,-0.22868 0,0 0.539606,0.17507 0.539606,0.17507 l 0,0 c -0.0132,0.0856 -0.02468,0.17133 -0.03696,0.257 -0.248234,0.98106 -0.673947,1.89998 -1.1341,2.79252 -0.286779,0.54843 -0.56969,1.10809 -0.941995,1.60097 0,0 -0.364344,-0.11849 -0.364344,-0.11849 z"
       inkscape:connector-curvature="0"
       inkscape:export-filename="/home/sade/Desktop/net-game/images/buildings/research_factory.png"
       inkscape:export-xdpi="90"
       inkscape:export-ydpi="90" />
    <path
       style="fill:#000000;fill-opacity:1"
       id="path3169-2-0-8-4-5"
       d="m 84.782915,530.20414 c 0.573572,-0.14695 1.171088,-0.17365 1.758322,-0.22226 0.980843,-0.0919 1.96339,-0.037 2.944075,0.0185 0.08197,6.4e-4 0.164054,0.001 0.246108,0.004 0,0 0.07722,0.5787 0.07722,0.5787 l 0,0 c -0.08026,0.0251 -0.160517,0.0501 -0.240776,0.0752 -0.964884,0.18727 -1.951179,0.18227 -2.929119,0.13393 -0.602599,-0.0335 -1.213408,-0.0587 -1.803929,-0.19578 0,0 -0.05201,-0.39088 -0.05201,-0.39088 z"
       inkscape:connector-curvature="0"
       inkscape:export-filename="/home/sade/Desktop/net-game/images/buildings/research_factory.png"
       inkscape:export-xdpi="90"
       inkscape:export-ydpi="90" />
    <path
       style="fill:#000000;fill-opacity:1"
       id="path3169-3-4-7-1-2-9"
       d="m 84.615019,527.68009 c 0.209108,0.3188 0.306078,0.67104 0.42281,1.01366 0.205213,0.57054 0.270344,1.16548 0.334749,1.75939 0.0092,0.0491 0.01795,0.0982 0.0268,0.14726 0,0 -0.543633,0.13817 -0.543633,0.13817 l 0,0 c -0.03353,-0.0438 -0.06719,-0.0877 -0.100719,-0.13172 -0.294396,-0.54587 -0.407682,-1.13509 -0.478462,-1.72622 -0.04,-0.36486 -0.08924,-0.73327 -0.02891,-1.10741 0,0 0.367196,-0.0931 0.367196,-0.0931 z"
       inkscape:connector-curvature="0"
       inkscape:transform-center-x="-0.6838537"
       inkscape:transform-center-y="1.4599139"
       inkscape:export-filename="/home/sade/Desktop/net-game/images/buildings/research_factory.png"
       inkscape:export-xdpi="90"
       inkscape:export-ydpi="90" />
    <path
       style="fill:#000000;fill-opacity:1"
       id="path3169-1-8-1-0-8-2"
       d="m 84.22368,527.93238 c 0.508387,-0.31119 1.073246,-0.51418 1.622119,-0.73517 0.913825,-0.37939 1.870156,-0.61863 2.824849,-0.85681 0.07881,-0.0235 0.157626,-0.0469 0.236446,-0.0707 0,0 0.235113,0.53131 0.235113,0.53131 l 0,0 c -0.06996,0.048 -0.1397,0.0958 -0.209649,0.14365 -0.87198,0.46598 -1.817988,0.75415 -2.768101,0.99825 -0.586481,0.14695 -1.17848,0.30426 -1.782227,0.34834 0,0 -0.15855,-0.35894 -0.15855,-0.35894 z"
       inkscape:connector-curvature="0"
       inkscape:export-filename="/home/sade/Desktop/net-game/images/buildings/research_factory.png"
       inkscape:export-xdpi="90"
       inkscape:export-ydpi="90" />
    <path
       style="fill:#000000;fill-opacity:1"
       id="path3398"
       d="m 91.2522,525.33989 c -0.104811,-0.29931 0.111544,-0.53343 0.300376,-0.71679 0.305695,-0.24616 0.673669,-0.39513 1.057894,-0.39301 1.434858,0.008 1.022662,-0.0747 1.88758,0.18773 0.151871,0.0709 0.30885,0.13016 0.455586,0.21308 0.542695,0.30646 1.112372,0.80557 1.452428,1.36483 0.07366,0.12115 0.126856,0.25559 0.190416,0.38339 0.222942,0.59741 0.209174,1.22823 -0.115504,1.78021 -0.06389,0.10847 -0.145455,0.20345 -0.218084,0.30517 -0.544583,0.60693 -1.283595,0.93933 -2.045958,1.0711 -0.181479,0.0315 -0.365704,0.0393 -0.54857,0.0591 -1.032959,0.006 -2.275381,0.19839 -3.125462,-0.62612 -0.259269,-0.25147 -0.310209,-0.39554 -0.485696,-0.71146 -0.250649,-0.70711 -0.208685,-1.36214 0.113788,-2.03529 0.06349,-0.13268 0.143898,-0.25489 0.215761,-0.38235 0.444365,-0.62917 1.025672,-1.13972 1.726904,-1.38325 0.145469,-0.0505 0.296455,-0.079 0.444669,-0.11849 0,0 1.145902,0.16956 1.145902,0.16956 l 0,0 c -0.149508,0.0336 -0.301418,0.0564 -0.44855,0.10085 -0.714816,0.21558 -1.313679,0.68335 -1.783667,1.30109 -0.08039,0.12141 -0.16878,0.23669 -0.24096,0.36394 -0.261289,0.46064 -0.401715,1.00735 -0.256233,1.54211 0.03538,0.13001 0.100059,0.24843 0.149983,0.37264 0.07986,0.11595 0.148597,0.24222 0.239799,0.3478 0.33063,0.38273 0.760885,0.60471 1.224259,0.7266 0.174311,0.0458 0.686751,6.3e-4 0.530511,0.0969 -0.212685,0.13046 -0.487861,0.0179 -0.731791,0.0266 0.182812,-0.0141 0.366562,-0.0188 0.548438,-0.0435 0.681735,-0.093 1.390874,-0.31033 1.985408,-0.69511 0.118539,-0.0766 0.224512,-0.17435 0.336755,-0.26153 0.170259,-0.19027 0.331938,-0.33708 0.438162,-0.58262 0.200092,-0.46257 0.04805,-0.94821 -0.176991,-1.35661 -0.0833,-0.12014 -0.158775,-0.24716 -0.24999,-0.36023 -0.379802,-0.4708 -0.979985,-1.01027 -1.485838,-1.30729 -0.131741,-0.0774 -0.272457,-0.13487 -0.408685,-0.20225 -0.670726,-0.21834 -0.41477,-0.0793 0.241251,-0.1807 0.128572,-0.02 -0.260352,4.6e-4 -0.389637,0.0141 -0.220526,0.0245 -0.440907,0.0836 -0.647837,0.17004 -0.08316,0.0348 -0.16152,0.082 -0.24228,0.1228 -0.228169,0.1504 -0.500124,0.308 -0.559011,0.61772 0,0 -0.525086,0.0184 -0.525086,0.0184 z"
       inkscape:connector-curvature="0"
       inkscape:export-filename="/home/sade/Desktop/net-game/images/buildings/research_factory.png"
       inkscape:export-xdpi="90"
       inkscape:export-ydpi="90" />
    <path
       style="fill:#808080;fill-opacity:1"
       d="m 95.150375,534.95637 c 0,-0.59824 -1.603798,-3.72298 -1.910853,-3.72298 -0.317324,0 -2.497557,2.24004 -3.185985,3.27336 -0.35187,0.52813 -0.378192,0.53145 -1.050331,0.13297 l -0.689431,-0.40867 0.54923,-1.12942 c 0.302091,-0.6212 0.698896,-1.56747 0.881761,-2.10283 0.418955,-1.2264 0.335251,-1.2684 -2.304753,-1.15577 l -1.965568,0.0839 -0.187881,-0.71259 c -0.225648,-0.85593 -0.138446,-1.0689 0.437673,-1.0689 0.6627,0 3.489951,-1.11329 3.694228,-1.45467 0.207801,-0.34728 -0.378456,-1.27014 -1.737452,-2.73504 l -0.930312,-1.00281 0.477683,-0.61872 0.477684,-0.61874 1.555325,1.0772 c 0.855413,0.59245 1.795336,1.0772 2.088688,1.0772 0.474938,0 0.561084,-0.16468 0.78693,-1.50405 0.139528,-0.82721 0.25358,-1.94955 0.25358,-2.49409 l 0,-0.99005 1.002162,0 1.002136,0 0.147343,1.4554 c 0.20322,2.00824 0.602136,3.26125 1.089047,3.42087 0.254134,0.0833 1.069392,-0.27838 2.138638,-0.94875 l 1.727951,-1.08339 0.537242,0.53758 0.53726,0.53758 -1.459182,1.62213 c -0.80254,0.89219 -1.42349,1.74729 -1.379875,1.90027 0.06363,0.22329 2.630357,1.72452 3.576227,2.09166 0.12277,0.0477 0.17273,0.43411 0.11076,0.8587 l -0.11274,0.77197 -2.360552,0 c -1.611411,0 -2.434153,0.0943 -2.592492,0.29694 -0.155303,0.19885 -0.156359,0.80675 -0.0026,1.84086 0.3569,2.40743 0.36189,2.37733 -0.453764,2.73618 -0.572198,0.25173 -0.747434,0.26033 -0.747434,0.0368 z m -0.574958,-5.40917 c 2.113479,-0.59351 2.838776,-2.46285 1.563114,-4.02866 -0.773887,-0.94991 -1.811466,-1.41113 -3.174514,-1.41113 -0.898883,0 -1.186506,0.13031 -1.98496,0.89959 -0.76037,0.73255 -0.955776,1.10132 -1.052297,1.98594 -0.08633,0.79026 -0.0092,1.2573 0.279373,1.71361 0.633224,0.99815 2.517504,1.36068 4.369284,0.84065 z"
       id="path3400"
       inkscape:connector-curvature="0"
       inkscape:export-filename="/home/sade/Desktop/net-game/images/buildings/research_factory.png"
       inkscape:export-xdpi="90"
       inkscape:export-ydpi="90" />
  </g>
</svg>
