<?xml version="1.0" encoding="UTF-8" standalone="no"?>
<!-- Created with Inkscape (http://www.inkscape.org/) -->

<svg
   xmlns:dc="http://purl.org/dc/elements/1.1/"
   xmlns:cc="http://creativecommons.org/ns#"
   xmlns:rdf="http://www.w3.org/1999/02/22-rdf-syntax-ns#"
   xmlns:svg="http://www.w3.org/2000/svg"
   xmlns="http://www.w3.org/2000/svg"
   xmlns:sodipodi="http://sodipodi.sourceforge.net/DTD/sodipodi-0.dtd"
   xmlns:inkscape="http://www.inkscape.org/namespaces/inkscape"
   width="28.999964"
   height="28.99988"
   id="svg4265"
   version="1.1"
   inkscape:version="0.48.3.1 r9886"
   sodipodi:docname="server.svg"
   inkscape:export-filename="/home/sade/Desktop/net-game/images/buildings/server.png"
   inkscape:export-xdpi="90"
   inkscape:export-ydpi="90">
  <defs
     id="defs4267" />
  <sodipodi:namedview
     id="base"
     pagecolor="#ffffff"
     bordercolor="#666666"
     borderopacity="1.0"
     inkscape:pageopacity="0.0"
     inkscape:pageshadow="2"
     inkscape:zoom="8"
     inkscape:cx="-32.155261"
     inkscape:cy="3.4990504"
     inkscape:document-units="px"
     inkscape:current-layer="layer1"
     showgrid="false"
     fit-margin-top="0"
     fit-margin-left="0"
     fit-margin-right="0"
     fit-margin-bottom="0"
     inkscape:window-width="1311"
     inkscape:window-height="744"
     inkscape:window-x="55"
     inkscape:window-y="24"
     inkscape:window-maximized="1"
     width="372.05px" />
  <metadata
     id="metadata4270">
    <rdf:RDF>
      <cc:Work
         rdf:about="">
        <dc:format>image/svg+xml</dc:format>
        <dc:type
           rdf:resource="http://purl.org/dc/dcmitype/StillImage" />
        <dc:title></dc:title>
      </cc:Work>
    </rdf:RDF>
  </metadata>
  <g
     inkscape:label="Layer 1"
     inkscape:groupmode="layer"
     id="layer1"
     transform="translate(-77.587805,-439.21144)">
    <path
       style="fill:#000000;fill-opacity:1"
       id="path3969"
       d="m 78.194191,442.68031 c 0.206889,0.73842 0.32488,1.50172 0.442847,2.26844 0.237763,1.54532 0.320417,2.05936 0.480147,3.69855 0.07274,0.74644 0.123378,1.496 0.185066,2.24401 0.203135,2.60341 0.249302,5.21848 0.261643,7.83216 0,0 -0.931548,0.60147 -0.931548,0.60147 l 0,0 c -0.170452,-2.5631 -0.331306,-5.12715 -0.462889,-7.69394 -0.05481,-0.89379 -0.211596,-3.45385 -0.269495,-4.38633 -0.06088,-0.98047 -0.110928,-1.96207 -0.181391,-2.94153 -0.02935,-0.408 -0.08017,-0.81328 -0.105131,-1.22188 0,0 0.580751,-0.40095 0.580751,-0.40095 z"
       inkscape:connector-curvature="0"
       inkscape:export-filename="/home/sade/Desktop/net-game/images/buildings/server.png"
       inkscape:export-xdpi="90"
       inkscape:export-ydpi="90" />
    <path
       style="fill:#000000;fill-opacity:1"
       id="path3981"
       d="m 94.901189,448.94878 c 0.01139,0.07 0.01866,0.14115 0.03417,0.20986 0.03271,0.14522 0.07839,0.28556 0.110162,0.4311 0.354978,1.62647 0.56178,3.30205 0.766689,4.96516 0.411812,3.69151 0.685182,7.40677 0.823181,11.12986 0.03288,1.43498 0.01093,0.75992 0.06155,2.02538 0,0 -0.765885,0.50118 -0.765885,0.50118 l 0,0 c -0.144535,-1.20778 -0.07465,-0.56305 -0.203664,-1.93517 -0.333721,-3.68111 -0.652612,-7.36433 -0.932198,-11.05258 -0.146115,-2.18382 -0.08112,-1.3619 -0.24713,-3.33256 -0.05221,-0.61984 -0.100101,-1.2403 -0.15838,-1.8593 -0.01513,-0.16067 -0.04003,-0.31985 -0.05265,-0.48087 -0.0066,-0.084 -0.0036,-0.16882 -0.005,-0.25324 0,0 0.569171,-0.34882 0.569171,-0.34882 z"
       inkscape:connector-curvature="0"
       inkscape:export-filename="/home/sade/Desktop/net-game/images/buildings/server.png"
       inkscape:export-xdpi="90"
       inkscape:export-ydpi="90" />
    <path
       style="fill:#000000;fill-opacity:1"
       id="path3985"
       d="m 79.149357,458.65518 c 0.07909,0.0382 0.160109,0.0695 0.237247,0.11441 0.581372,0.33857 1.136955,0.75456 1.718966,1.09388 0.918947,0.53575 1.428968,0.78207 2.402881,1.28689 3.358974,1.53936 6.697003,3.16019 10.020429,4.83628 1.115781,0.47065 2.181554,1.16719 3.318999,1.54026 0,0 -0.617481,0.58693 -0.617481,0.58693 l 0,0 c -1.234387,-0.26431 -2.416914,-0.8579 -3.625672,-1.27299 -3.394959,-1.41128 -6.77394,-2.93555 -10.041924,-4.83045 -0.770313,-0.49077 -1.47708,-0.92137 -2.222708,-1.46138 -0.529087,-0.38318 -1.023434,-0.83078 -1.534067,-1.25404 -0.0679,-0.0563 -0.138733,-0.10567 -0.208105,-0.15851 0,0 0.551435,-0.48128 0.551435,-0.48128 z"
       inkscape:connector-curvature="0"
       inkscape:export-filename="/home/sade/Desktop/net-game/images/buildings/server.png"
       inkscape:export-xdpi="90"
       inkscape:export-ydpi="90" />
    <path
       style="fill:#000000;fill-opacity:1"
       id="path3987"
       d="m 78.019504,443.04844 c 0.0675,-0.0281 0.133158,-0.0736 0.202498,-0.0843 0.521804,-0.0806 1.38024,0.25223 1.857267,0.43573 0.755277,0.29053 2.074903,0.89924 2.77278,1.21333 2.864992,1.29349 5.743183,2.52979 8.655169,3.51116 0.44577,0.15023 0.893905,0.2811 1.340857,0.42164 1.411114,0.40813 0.743648,0.20933 2.002779,0.59303 0,0 -0.709388,0.81694 -0.709388,0.81694 l 0,0 c -1.352976,-0.26894 -0.638676,-0.12417 -2.142746,-0.43628 -0.466318,-0.12034 -0.933825,-0.22894 -1.398952,-0.36103 -2.933168,-0.833 -5.834419,-1.99217 -8.660202,-3.52754 -0.217737,-0.12367 -2.190175,-1.24786 -2.557991,-1.44379 -0.267006,-0.14223 -0.535844,-0.27561 -0.806264,-0.39935 -0.323937,-0.14822 -0.652734,-0.32618 -0.987506,-0.18116 0,0 0.431699,-0.55838 0.431699,-0.55838 z"
       inkscape:connector-curvature="0"
       inkscape:export-filename="/home/sade/Desktop/net-game/images/buildings/server.png"
       inkscape:export-xdpi="90"
       inkscape:export-ydpi="90" />
    <path
       style="fill:#000000;fill-opacity:1"
       id="path3987-5"
       d="m 78.446434,442.58686 c 0.06749,-0.0281 0.133153,-0.0736 0.202499,-0.0843 0.5218,-0.0806 1.380236,0.25222 1.857263,0.43572 0.755278,0.29053 2.074903,0.89925 2.77278,1.21333 2.864994,1.29349 5.743184,2.52979 8.65517,3.51116 0.445771,0.15023 0.893905,0.2811 1.340854,0.42165 1.411114,0.40813 0.743647,0.20932 2.002779,0.59303 0,0 -0.709387,0.81693 -0.709387,0.81693 l 0,0 c -1.352977,-0.26894 -0.638677,-0.12417 -2.142747,-0.43627 -0.466315,-0.12035 -0.933821,-0.22894 -1.398945,-0.36104 -2.933179,-0.833 -5.834423,-1.99217 -8.660207,-3.52754 -0.217737,-0.12366 -2.190175,-1.24786 -2.557991,-1.44379 -0.267009,-0.14223 -0.535843,-0.2756 -0.806264,-0.39935 -0.323933,-0.14822 -0.652731,-0.32617 -0.987506,-0.18116 0,0 0.431702,-0.55838 0.431702,-0.55838 z"
       inkscape:connector-curvature="0"
       inkscape:export-filename="/home/sade/Desktop/net-game/images/buildings/server.png"
       inkscape:export-xdpi="90"
       inkscape:export-ydpi="90" />
    <path
       style="fill:#000000;fill-opacity:1"
       id="path3987-5-7"
       d="m 84.467466,439.59577 c 0.06888,-0.0278 0.13588,-0.0727 0.206643,-0.0832 0.532486,-0.0796 1.408508,0.24905 1.895301,0.43023 0.770744,0.28686 2.117396,0.8879 2.829565,1.19801 2.923675,1.27717 5.860812,2.49787 8.832437,3.46686 0.454904,0.14833 0.912214,0.27755 1.368317,0.41632 1.440021,0.40298 0.758881,0.20669 2.043801,0.58555 0,0 -0.72392,0.80662 -0.72392,0.80662 l 0,0 c -1.380687,-0.26554 -0.65176,-0.1226 -2.186634,-0.43076 -0.475864,-0.11882 -0.952945,-0.22605 -1.427596,-0.35648 -2.993248,-0.82249 -5.953914,-1.96703 -8.837573,-3.48302 -0.222197,-0.12211 -2.235032,-1.23211 -2.610378,-1.42558 -0.272478,-0.14044 -0.546819,-0.27212 -0.822777,-0.39431 -0.330569,-0.14635 -0.666098,-0.32206 -1.007729,-0.17887 0,0 0.440543,-0.55133 0.440543,-0.55133 z"
       inkscape:connector-curvature="0"
       inkscape:export-filename="/home/sade/Desktop/net-game/images/buildings/server.png"
       inkscape:export-xdpi="90"
       inkscape:export-ydpi="90" />
    <path
       style="fill:#000000;fill-opacity:1"
       id="path3981-1"
       d="m 101.59368,445.60765 c 0.0114,0.07 0.0186,0.14115 0.0342,0.20986 0.0327,0.14523 0.0784,0.28557 0.11016,0.43111 0.35499,1.62647 0.56178,3.30205 0.76668,4.96516 0.41182,3.69151 0.68519,7.40677 0.82319,11.12986 0.0329,1.43498 0.0109,0.75992 0.0615,2.02538 0,0 -0.76589,0.50118 -0.76589,0.50118 l 0,0 c -0.14453,-1.20778 -0.0747,-0.56306 -0.20365,-1.93517 -0.33373,-3.68111 -0.65262,-7.36433 -0.9322,-11.05258 -0.14613,-2.18383 -0.0811,-1.3619 -0.24713,-3.33256 -0.0522,-0.61984 -0.10011,-1.2403 -0.15839,-1.8593 -0.0152,-0.16068 -0.04,-0.31986 -0.0526,-0.48087 -0.006,-0.084 -0.004,-0.16883 -0.005,-0.25324 0,0 0.56916,-0.34883 0.56916,-0.34883 z"
       inkscape:connector-curvature="0"
       inkscape:export-filename="/home/sade/Desktop/net-game/images/buildings/server.png"
       inkscape:export-xdpi="90"
       inkscape:export-ydpi="90" />
    <path
       style="fill:#000000;fill-opacity:1"
       id="path4104"
       d="m 94.865699,448.91265 c 0.496619,-0.0263 0.962585,-0.20198 1.415623,-0.4221 0.712658,-0.40706 1.431025,-0.80565 2.161706,-1.16911 0.742843,-0.3673 1.469014,-0.78467 2.243212,-1.06198 0.30683,-0.12204 0.64651,-0.15329 0.94283,-0.30809 -0.40167,0.26417 -0.80333,0.52835 -1.20498,0.79253 0.006,0.0345 0.0409,0.0758 0.021,0.103 -0.0242,0.0336 -0.0755,0.0141 -0.11298,0.0233 -0.20612,0.0506 -0.40968,0.0961 -0.618266,0.13325 -0.437437,0.0551 -0.841468,0.22463 -1.247256,0.40524 -0.308735,0.11342 -0.62049,0.24386 -0.895297,0.44134 -0.440784,0.23014 -0.894532,0.42917 -1.331258,0.66955 -0.191294,0.11704 -0.407207,0.14604 -0.611815,0.21376 -0.184566,0.0611 -0.369153,0.14607 -0.550651,0.2188 -0.166928,0.0457 -0.319223,0.13487 -0.481897,0.19487 -0.04706,0.0175 -0.097,0.0252 -0.142416,0.0475 -0.07693,0.0378 -0.143292,0.0988 -0.215306,0.14743 -0.638179,0.3749 1.43402,-0.95487 1.077787,-0.71179 -0.448419,0.30603 -0.905858,0.59463 -1.358759,0.89198 -0.02215,0.0145 -0.08852,0.0584 -0.06642,0.0437 1.202231,-0.79526 1.639302,-0.66764 1.15703,-0.79779 -0.0066,-0.023 -0.02731,-0.0467 -0.01946,-0.0693 0.0071,-0.0207 0.03415,-0.023 0.05322,-0.0274 0.06839,-0.0156 0.140552,0.004 0.209015,-0.0108 0.08005,-0.0177 0.153656,-0.0622 0.231164,-0.091 0.313075,-0.14913 0.631812,-0.27252 0.925505,-0.46881 0.352314,-0.20301 0.705989,-0.41471 1.081708,-0.55646 0.05559,-0.0149 0.112678,-0.0242 0.166945,-0.0445 0.148879,-0.0559 0.290489,-0.14852 0.438055,-0.20982 0.243595,-0.0874 0.126337,-0.041 0.352158,-0.13799 0.328988,-0.0871 0.627334,-0.26425 0.953871,-0.36094 0.320976,-0.11202 0.639581,-0.23686 0.951181,-0.38024 0.185,-0.0704 0.36336,-0.14002 0.53485,-0.24639 0,0 -1.189425,1.07762 -1.189425,1.07762 l 0,0 c -0.18005,0.0829 -0.364456,0.15177 -0.543318,0.23818 -0.315303,0.1353 -0.632039,0.26515 -0.95732,0.36646 -0.322525,0.11958 -0.632828,0.27888 -0.960545,0.38167 -0.316693,0.12871 -0.629102,0.27023 -0.949404,0.38678 -0.373281,0.1772 -0.735038,0.38635 -1.094382,0.59706 -0.289441,0.15634 -0.592993,0.28062 -0.897242,0.39462 -0.210754,0.0522 -0.447298,0.0884 -0.566747,-0.1579 -0.165738,-0.60247 -0.03551,-0.0551 1.259095,-0.92881 0.36053,-0.24329 1.724191,-0.99469 -1.086397,0.72057 0.964588,-0.65299 0.930834,-0.63054 1.459791,-0.96681 0.285898,-0.17508 0.601719,-0.27891 0.904969,-0.40781 0.390579,-0.1475 0.790432,-0.26845 1.165634,-0.46191 0.425529,-0.22983 0.865209,-0.42256 1.292295,-0.64856 0.294575,-0.16619 0.602683,-0.29837 0.911187,-0.42714 0.418109,-0.19672 0.845099,-0.35509 1.299729,-0.39637 0.17679,-0.024 0.3923,-0.0841 0.56995,-0.0292 0.0183,0.005 0.27533,0.15641 0.20089,0.22136 -0.39119,0.34123 -0.84618,0.5757 -1.26926,0.86356 -0.35681,0.16414 -0.735684,0.26541 -1.093629,0.4276 -0.78738,0.34207 -1.542199,0.77097 -2.316882,1.14768 -0.690182,0.35234 -1.378887,0.70805 -2.064409,1.07206 -0.419639,0.17418 -0.85902,0.33555 -1.311265,0.24945 0,0 1.176529,-0.9721 1.176529,-0.9721 z"
       inkscape:connector-curvature="0"
       inkscape:export-filename="/home/sade/Desktop/net-game/images/buildings/server.png"
       inkscape:export-xdpi="90"
       inkscape:export-ydpi="90" />
    <path
       style="fill:#000000;fill-opacity:1"
       id="path4104-5"
       d="m 97.085873,466.93754 c 0.468487,-0.0273 0.908051,-0.21003 1.335429,-0.43894 0.672279,-0.42328 1.349964,-0.83775 2.039238,-1.2157 0.70077,-0.38194 1.38579,-0.81595 2.11613,-1.10432 0.28946,-0.1269 0.60989,-0.1594 0.88942,-0.32037 -0.3789,0.27471 -0.7578,0.54942 -1.13671,0.82413 0.006,0.0357 0.0386,0.0789 0.0198,0.10714 -0.023,0.0349 -0.0713,0.0147 -0.10659,0.0243 -0.19446,0.0526 -0.38647,0.0999 -0.58324,0.13858 -0.41266,0.0573 -0.7938,0.23357 -1.1766,0.42138 -0.29124,0.11793 -0.585331,0.25358 -0.844578,0.45893 -0.415812,0.23932 -0.843861,0.44628 -1.255845,0.69624 -0.180448,0.1217 -0.384136,0.15186 -0.577155,0.22227 -0.174112,0.0635 -0.34824,0.1519 -0.51946,0.22752 -0.157467,0.0476 -0.301134,0.14026 -0.454596,0.20266 -0.04438,0.0181 -0.0915,0.0261 -0.134344,0.0493 -0.07257,0.0392 -0.135179,0.10269 -0.203107,0.15332 -0.602028,0.38983 1.352776,-0.99295 1.016735,-0.74015 -0.423019,0.31822 -0.854545,0.61832 -1.281793,0.92753 -0.02093,0.0151 -0.08352,0.0607 -0.06266,0.0455 1.134127,-0.82695 1.546441,-0.69425 1.091486,-0.82959 -0.0062,-0.024 -0.02577,-0.0486 -0.01836,-0.0721 0.0068,-0.0214 0.03221,-0.0239 0.05021,-0.0284 0.06451,-0.0162 0.132586,0.005 0.197174,-0.0112 0.07552,-0.0184 0.144949,-0.0647 0.218064,-0.0947 0.295342,-0.15506 0.596027,-0.28337 0.873079,-0.48749 0.332361,-0.2111 0.665995,-0.43124 1.020429,-0.57864 0.05245,-0.0154 0.106295,-0.0251 0.157497,-0.0462 0.140436,-0.0581 0.274024,-0.15446 0.413224,-0.2182 0.2298,-0.0909 0.11918,-0.0426 0.33221,-0.1435 0.31036,-0.0906 0.5918,-0.27478 0.89984,-0.37532 0.30278,-0.11647 0.60334,-0.24629 0.89729,-0.3954 0.17451,-0.0731 0.34278,-0.1456 0.50455,-0.25621 0,0 -1.12203,1.12058 -1.12203,1.12058 l 0,0 c -0.16986,0.0861 -0.34382,0.15782 -0.51255,0.24766 -0.29745,0.1407 -0.59624,0.27573 -0.90308,0.38107 -0.30426,0.12434 -0.596985,0.29001 -0.906133,0.39689 -0.298749,0.13384 -0.593464,0.28099 -0.89562,0.4022 -0.352138,0.18426 -0.693393,0.40175 -1.032387,0.62086 -0.273047,0.16257 -0.559403,0.2918 -0.84642,0.41034 -0.198808,0.0545 -0.421956,0.0919 -0.534637,-0.16419 -0.156349,-0.62648 -0.0335,-0.0573 1.187773,-0.96584 0.3401,-0.253 1.62652,-1.03433 -1.024859,0.74931 0.909944,-0.67902 0.878103,-0.65568 1.377092,-1.00536 0.2697,-0.18206 0.567643,-0.29002 0.853705,-0.42407 0.368456,-0.15338 0.745662,-0.27915 1.099603,-0.48031 0.401431,-0.23899 0.816203,-0.43941 1.219093,-0.67443 0.27788,-0.1728 0.56854,-0.31025 0.85957,-0.44415 0.39439,-0.20456 0.79722,-0.36924 1.22608,-0.41217 0.16679,-0.025 0.37008,-0.0874 0.53767,-0.0303 0.0173,0.006 0.25975,0.16266 0.18952,0.23019 -0.36904,0.35484 -0.79825,0.59866 -1.19735,0.89799 -0.33662,0.17068 -0.69403,0.27599 -1.03169,0.44464 -0.74277,0.35571 -1.454834,0.8017 -2.185622,1.19343 -0.651085,0.36639 -1.30078,0.73626 -1.947472,1.11478 -0.395861,0.18112 -0.81035,0.34895 -1.236976,0.25942 0,0 1.109875,-1.01085 1.109875,-1.01085 z"
       inkscape:connector-curvature="0"
       inkscape:transform-center-x="2.2230329"
       inkscape:transform-center-y="-7.8532333"
       inkscape:export-filename="/home/sade/Desktop/net-game/images/buildings/server.png"
       inkscape:export-xdpi="90"
       inkscape:export-ydpi="90" />
    <path
       style="fill:#000000;fill-opacity:1"
       id="path4104-5-2"
       d="m 79.199106,442.42987 c 0.424969,-0.0256 0.823702,-0.19674 1.211372,-0.41115 0.609836,-0.39649 1.224557,-0.78472 1.84981,-1.13875 0.635662,-0.35776 1.257056,-0.7643 1.919543,-1.0344 0.262568,-0.11888 0.553235,-0.14932 0.806801,-0.3001 -0.343711,0.25732 -0.687411,0.51464 -1.031116,0.77196 0.006,0.0334 0.03495,0.0739 0.01801,0.10036 -0.02087,0.0327 -0.06467,0.0138 -0.09668,0.0228 -0.176394,0.0493 -0.350577,0.0936 -0.529062,0.12981 -0.374322,0.0537 -0.72006,0.21877 -1.067299,0.39469 -0.264192,0.11048 -0.530957,0.23754 -0.766121,0.42989 -0.377186,0.22417 -0.765466,0.41803 -1.139182,0.65216 -0.16369,0.114 -0.34845,0.14225 -0.523537,0.2082 -0.157937,0.0595 -0.315892,0.14229 -0.471204,0.21311 -0.142841,0.0446 -0.273164,0.13139 -0.412367,0.18984 -0.04027,0.017 -0.083,0.0245 -0.121865,0.0462 -0.06583,0.0367 -0.122621,0.0962 -0.184237,0.1436 -0.546103,0.36517 1.227109,-0.93008 0.922276,-0.69328 -0.383719,0.29807 -0.775159,0.57918 -1.162712,0.86881 -0.01899,0.0142 -0.07576,0.0569 -0.05684,0.0426 1.028771,-0.7746 1.402781,-0.6503 0.990092,-0.77707 -0.0056,-0.0225 -0.02338,-0.0455 -0.01666,-0.0675 0.0062,-0.02 0.02922,-0.0224 0.04555,-0.0266 0.05853,-0.0152 0.120273,0.005 0.178857,-0.0105 0.06851,-0.0172 0.131489,-0.0606 0.197809,-0.0887 0.267905,-0.14523 0.540653,-0.26542 0.791976,-0.45663 0.301481,-0.19773 0.604123,-0.40393 0.925631,-0.542 0.04761,-0.0144 0.09642,-0.0234 0.142863,-0.0433 0.127389,-0.0544 0.248575,-0.14468 0.374848,-0.20439 0.208444,-0.0851 0.108106,-0.0399 0.301342,-0.1344 0.281525,-0.0849 0.536832,-0.25739 0.816249,-0.35157 0.274659,-0.10909 0.547298,-0.2307 0.813932,-0.37036 0.158308,-0.0685 0.310936,-0.1364 0.457685,-0.24 0,0 -1.017806,1.04965 -1.017806,1.04965 l 0,0 c -0.154073,0.0806 -0.311871,0.14783 -0.464928,0.23198 -0.269815,0.13179 -0.540847,0.25826 -0.819195,0.35694 -0.275995,0.11647 -0.54152,0.27166 -0.821958,0.37177 -0.270995,0.12536 -0.538329,0.2632 -0.812417,0.37673 -0.319423,0.17261 -0.628984,0.37632 -0.936476,0.58157 -0.247685,0.15227 -0.507439,0.27331 -0.767792,0.38435 -0.180345,0.0511 -0.38276,0.0861 -0.484975,-0.15379 -0.141825,-0.58683 -0.03039,-0.0537 1.077436,-0.90469 0.308506,-0.237 1.475412,-0.96887 -0.929656,0.70187 0.825414,-0.63604 0.796531,-0.61417 1.249169,-0.94171 0.244647,-0.17055 0.514901,-0.27167 0.774398,-0.39723 0.334224,-0.14367 0.676392,-0.26149 0.997452,-0.44991 0.364136,-0.22386 0.740378,-0.41159 1.105844,-0.63173 0.252068,-0.16186 0.515721,-0.29062 0.779719,-0.41603 0.35776,-0.19162 0.723162,-0.34587 1.112184,-0.38608 0.15129,-0.0234 0.335708,-0.0819 0.487718,-0.0283 0.01568,0.006 0.235617,0.15236 0.171914,0.21562 -0.334754,0.33238 -0.724085,0.56076 -1.086123,0.84114 -0.305333,0.15988 -0.629547,0.25852 -0.935846,0.4165 -0.673769,0.33319 -1.319685,0.75094 -1.982592,1.11788 -0.590601,0.34319 -1.179937,0.68965 -1.766549,1.0442 -0.359088,0.16966 -0.735075,0.32686 -1.122071,0.24301 0,0 1.006774,-0.94687 1.006774,-0.94687 z"
       inkscape:connector-curvature="0"
       inkscape:transform-center-x="2.0164676"
       inkscape:transform-center-y="-7.3559718"
       inkscape:export-filename="/home/sade/Desktop/net-game/images/buildings/server.png"
       inkscape:export-xdpi="90"
       inkscape:export-ydpi="90" />
    <path
       style="fill:#0044aa;fill-opacity:1"
       d=""
       id="path3010"
       inkscape:connector-curvature="0"
       transform="translate(77.587805,439.21144)"
       inkscape:export-filename="/home/sade/Desktop/net-game/images/buildings/server.png"
       inkscape:export-xdpi="90"
       inkscape:export-ydpi="90" />
    <path
       style="fill:#2c5aa0;fill-opacity:1"
       d="m 19.088929,26.999117 c -0.0031,-0.35323 -0.03829,-1.289112 -0.07813,-2.079737 l -0.07242,-1.4375 0.75,-0.0018 c 0.65615,-0.0016 0.812566,-0.0236 1.25,-0.175828 0.881378,-0.306716 2.740155,-1.667945 3.30664,-2.421536 0.167827,-0.22326 0.28711,-0.336815 0.28711,-0.273324 0,0.186936 0.31007,3.611843 0.346424,3.826459 0.02703,0.159565 0.0101,0.212445 -0.07781,0.243023 -0.426655,0.148403 -1.238928,0.542207 -2.053961,0.995796 -0.524494,0.291896 -1.300636,0.678775 -1.724762,0.859731 -0.424125,0.180956 -1.031293,0.504055 -1.349262,0.717997 l -0.578125,0.388986 -0.0057,-0.642237 z"
       id="path3014"
       inkscape:connector-curvature="0"
       transform="translate(77.587805,439.21144)"
       inkscape:export-filename="/home/sade/Desktop/net-game/images/buildings/server.png"
       inkscape:export-xdpi="90"
       inkscape:export-ydpi="90" />
    <path
       style="fill:#2c5aa0;fill-opacity:1"
       d="m 14.50088,26.022363 c -1.99375,-0.985124 -3.990625,-1.967407 -4.4375,-2.182851 -0.5199662,-0.250683 -0.7337409,-0.379051 -0.5937501,-0.356538 0.9155061,0.147229 1.3448411,0.163117 3.4785461,0.128722 1.266487,-0.02042 2.870568,-0.05304 3.564625,-0.07249 l 1.261921,-0.03537 0.03295,0.207772 c 0.05572,0.351353 0.359906,3.989308 0.338413,4.047335 -0.01111,0.03001 -1.651457,-0.751456 -3.645207,-1.73658 z"
       id="path3016"
       inkscape:connector-curvature="0"
       transform="translate(77.587805,439.21144)"
       inkscape:export-filename="/home/sade/Desktop/net-game/images/buildings/server.png"
       inkscape:export-xdpi="90"
       inkscape:export-ydpi="90" />
    <path
       style="fill:#000000;fill-opacity:1"
       d="m 10.545172,23.584216 c -0.236365,-0.01354 -0.5778064,-0.04661 -0.7587583,-0.07349 -0.3985659,-0.05921 -0.3690153,-0.05922 -0.3462765,3.1e-5 0.024832,0.06471 -0.049988,0.04113 -0.3570078,-0.112543 C 8.9535781,23.333368 8.2363906,22.996009 7.4893794,22.648524 5.2592565,21.611152 4.10401,21.00892 3.0530522,20.335867 1.8877271,19.589571 1.8958468,19.595291 1.9444905,19.55492 c 0.031771,-0.02637 0.046062,-0.10006 0.046062,-0.237526 0,-0.109615 0.00592,-0.199299 0.01316,-0.199299 0.00724,0 0.1373163,0.07181 0.2890625,0.159573 0.6673811,0.385992 1.3691001,0.713013 2.5727771,1.198987 2.1710175,0.876529 4.0144975,1.484279 4.78125,1.57626 0.9447288,0.113331 2.8737338,0.184607 5.6857798,0.210089 2.017228,0.01828 2.37672,0.02822 2.37672,0.06572 0,0.0243 0.02228,0.290351 0.04951,0.591225 0.02723,0.300875 0.04471,0.551849 0.03883,0.557721 -0.02356,0.02356 -5.692452,0.143294 -6.416469,0.135524 -0.223437,-0.0024 -0.59964,-0.01544 -0.836005,-0.02898 z"
       id="path3134"
       inkscape:connector-curvature="0"
       transform="translate(77.587805,439.21144)"
       inkscape:export-filename="/home/sade/Desktop/net-game/images/buildings/server.png"
       inkscape:export-xdpi="90"
       inkscape:export-ydpi="90" />
    <path
       style="fill:#000000;fill-opacity:1"
       d="m 18.915493,23.332534 c -0.03507,-0.274144 -0.08533,-1.251965 -0.06538,-1.271968 0.0113,-0.01133 0.437754,-0.029 0.947679,-0.03926 1.010224,-0.02034 1.273529,-0.05264 1.761464,-0.216118 0.595507,-0.199513 1.09632,-0.521542 1.676043,-1.077715 0.382752,-0.367203 0.915372,-0.96724 1.074854,-1.210904 0.05342,-0.08162 0.103366,-0.142171 0.110985,-0.134552 0.0076,0.0076 0.03736,0.281823 0.0661,0.609342 0.03786,0.431539 0.04255,0.595489 0.01704,0.595489 -0.01936,0 -0.129226,0.111411 -0.244137,0.24758 -0.711931,0.843636 -2.208275,1.968469 -3.175738,2.387268 -0.447842,0.193864 -0.578433,0.215564 -1.396097,0.231985 l -0.755373,0.01517 -0.01744,-0.136314 0,0 z"
       id="path3136"
       inkscape:connector-curvature="0"
       transform="translate(77.587805,439.21144)"
       inkscape:export-filename="/home/sade/Desktop/net-game/images/buildings/server.png"
       inkscape:export-xdpi="90"
       inkscape:export-ydpi="90" />
    <path
       style="fill:#000000;fill-opacity:1"
       id="path3158"
       d="m 95.319493,461.44663 c -0.0246,-0.5996 -0.02235,-1.20186 -0.02504,-1.80271 -0.002,-0.73028 -0.0012,-0.35805 -0.0025,-1.11668 -7.33e-4,-0.42924 0.343016,-0.43107 0.343749,-0.002 l 0,0 c 0.0013,0.75688 4.5e-4,0.38564 0.0025,1.11373 0.0026,0.5801 6.74e-4,1.16143 0.02295,1.74046 0.02684,0.42661 -0.314805,0.49365 -0.341648,0.067 z"
       inkscape:connector-curvature="0"
       inkscape:export-filename="/home/sade/Desktop/net-game/images/buildings/server.png"
       inkscape:export-xdpi="90"
       inkscape:export-ydpi="90" />
    <path
       style="fill:#f2f2f2;fill-opacity:1"
       d="M 13.357612,22.168472 C 10.407766,22.089813 9.7648607,22.037553 8.9201114,21.807759 7.5336998,21.430621 4.7891473,20.394666 3.2963169,19.685011 L 2.0353945,19.085599 1.953632,15.974464 C 1.8605626,12.433098 1.6093561,9.1339633 1.2456046,6.6758294 1.1082619,5.7477044 0.99563148,4.9129133 0.99531485,4.8207381 0.99494548,4.7132103 1.3867315,4.86572 2.0884892,5.2462759 c 0.6015625,0.326221 1.7540545,0.9501325 2.5610932,1.3864699 1.8903421,1.0220415 4.5014864,2.136394 6.6813586,2.8513895 1.867721,0.6126107 4.988943,1.3625727 5.251497,1.2618207 0.08927,-0.03425 0.162654,0.0063 0.163084,0.09005 3.75e-4,0.08378 0.168836,2.219299 0.374233,4.7456 0.205399,2.5263 0.41022,5.071613 0.455159,5.656249 l 0.08171,1.062977 -0.42469,-0.02019 c -0.23358,-0.0111 -1.977023,-0.06158 -3.874318,-0.112171 l 0,0 z"
       id="path3164"
       inkscape:connector-curvature="0"
       transform="translate(77.587805,439.21144)" />
    <path
       style="fill:#f2f2f2;fill-opacity:1"
       d="M 15.669362,8.7994472 C 13.34153,8.0647951 10.991908,7.1544683 7.3697392,5.5838808 5.5478642,4.7939082 3.7759892,4.0319749 3.4322392,3.8906957 3.0884892,3.7494166 2.7638393,3.5970633 2.7107951,3.5521329 2.6178448,3.4734007 4.349378,2.4528686 6.1984204,1.496594 L 7.0896015,1.0356993 7.6984204,1.3372472 c 0.3348503,0.1658513 1.7056938,0.8686735 3.0463186,1.561827 3.550379,1.8356789 6.79382,3.0845089 9.856901,3.7952255 0.696974,0.1617164 1.267422,0.326169 1.267662,0.3654502 5e-4,0.087886 -2.437873,1.2607582 -3.3605,1.6163963 -0.370392,0.1427716 -0.79072,0.341732 -0.934064,0.442134 -0.143344,0.1004021 -0.290296,0.177166 -0.326563,0.1705865 -0.03627,-0.00658 -0.746731,-0.2268183 -1.578813,-0.4894195 l 0,0 z"
       id="path3166"
       inkscape:connector-curvature="0"
       transform="translate(77.587805,439.21144)" />
    <path
       style="fill:#f2f2f2;fill-opacity:1"
       d="m 18.869739,21.831912 c 0,-0.08607 -0.140117,-1.669574 -0.311372,-3.5189 -0.319307,-3.4481 -0.560018,-5.396566 -0.863359,-6.988562 L 17.52252,10.4192 19.85238,9.2601218 c 1.281422,-0.6374932 2.582984,-1.2647953 2.892359,-1.3940047 0.309375,-0.1292093 0.595624,-0.2546736 0.636108,-0.2788096 0.04049,-0.024136 0.139388,0.8437203 0.219786,1.9285692 0.0804,1.0848493 0.29168,3.7301393 0.469516,5.8784233 l 0.323338,3.90597 -0.520321,0.621466 c -0.627297,0.749237 -1.377512,1.359331 -2.060527,1.67567 -0.637219,0.295128 -2.9429,0.478858 -2.9429,0.234506 z"
       id="path3168"
       inkscape:connector-curvature="0"
       transform="translate(77.587805,439.21144)" />
    <path
       style="fill:#000000;fill-opacity:1"
       id="path3174"
       d="m 19.907705,13.245451 c 0.394447,-0.210532 0.812751,-0.376035 1.200663,-0.597944 0.30642,-0.181744 0.596101,-0.387452 0.910881,-0.555719 0.625081,-0.330566 1.092572,0.553432 0.467491,0.883998 l 0,0 c -0.309043,0.160819 -0.584624,0.373526 -0.8883,0.543403 -0.422165,0.234349 -0.867009,0.425199 -1.296815,0.645407 -0.649934,0.278543 -1.043853,-0.640602 -0.39392,-0.919145 z"
       inkscape:connector-curvature="0"
       transform="translate(77.587805,439.21144)" />
    <path
       style="fill:#000000;fill-opacity:1"
       id="path3174-4"
       d="m 98.066945,453.96399 c 0.394447,-0.21053 0.81275,-0.37604 1.200662,-0.59794 0.30642,-0.18175 0.596101,-0.38746 0.910883,-0.55572 0.62508,-0.33057 1.09257,0.55343 0.46749,0.88399 l 0,0 c -0.30904,0.16082 -0.58462,0.37353 -0.8883,0.54341 -0.422165,0.23435 -0.86701,0.4252 -1.296815,0.6454 -0.649934,0.27855 -1.043853,-0.6406 -0.39392,-0.91914 z"
       inkscape:connector-curvature="0" />
  </g>
</svg>
