<?xml version="1.0" encoding="UTF-8" standalone="no"?>
<!-- Created with Inkscape (http://www.inkscape.org/) -->

<svg
   xmlns:dc="http://purl.org/dc/elements/1.1/"
   xmlns:cc="http://creativecommons.org/ns#"
   xmlns:rdf="http://www.w3.org/1999/02/22-rdf-syntax-ns#"
   xmlns:svg="http://www.w3.org/2000/svg"
   xmlns="http://www.w3.org/2000/svg"
   xmlns:sodipodi="http://sodipodi.sourceforge.net/DTD/sodipodi-0.dtd"
   xmlns:inkscape="http://www.inkscape.org/namespaces/inkscape"
   width="24.554003"
   height="24.556408"
   id="svg3045"
   version="1.1"
   inkscape:version="0.48.3.1 r9886"
   sodipodi:docname="sinkhole.svg">
  <defs
     id="defs3047" />
  <sodipodi:namedview
     id="base"
     pagecolor="#ffffff"
     bordercolor="#666666"
     borderopacity="1.0"
     inkscape:pageopacity="0.0"
     inkscape:pageshadow="2"
     inkscape:zoom="11.2"
     inkscape:cx="10.737026"
     inkscape:cy="15.117613"
     inkscape:document-units="px"
     inkscape:current-layer="layer1"
     showgrid="false"
     inkscape:window-width="1311"
     inkscape:window-height="744"
     inkscape:window-x="55"
     inkscape:window-y="24"
     inkscape:window-maximized="1"
     fit-margin-top="0"
     fit-margin-left="0"
     fit-margin-right="0"
     fit-margin-bottom="0" />
  <metadata
     id="metadata3050">
    <rdf:RDF>
      <cc:Work
         rdf:about="">
        <dc:format>image/svg+xml</dc:format>
        <dc:type
           rdf:resource="http://purl.org/dc/dcmitype/StillImage" />
        <dc:title />
      </cc:Work>
    </rdf:RDF>
  </metadata>
  <g
     inkscape:label="Layer 1"
     inkscape:groupmode="layer"
     id="layer1"
     transform="translate(-455.84902,-559.6911)">
    <path
       style="fill:#ffffff;fill-opacity:1"
       d="m 431.43999,570.25672 c -1.19061,-0.87087 -2.86346,-1.94431 -3.71744,-2.38543 l -1.55268,-0.80202 1.44913,-2.00047 c 0.79702,-1.10025 1.31911,-2.21084 1.16019,-2.46798 -0.15892,-0.25713 -1.96296,-1.43309 -4.00899,-2.61323 -2.04603,-1.18015 -4.23425,-2.69307 -4.86272,-3.36204 -1.25294,-1.3337 -2.95668,-1.58474 -3.80642,-0.56086 -0.45731,0.55102 -1.2906,0.51611 -5.23026,-0.21913 -6.3929,-1.19307 -6.27203,-1.20711 -6.64325,0.77162 -0.17427,0.92896 -0.51206,1.80966 -0.75064,1.95711 -0.23858,0.14745 -1.62557,10e-4 -3.0822,-0.3246 l -2.64842,-0.59269 1.01382,-1.07916 c 1.73473,-1.84654 6.38939,-4.00427 9.95817,-4.61624 10.60897,-1.81924 21.06963,4.69386 24.22535,15.08337 1.41079,4.64473 1.1671,5.16525 -1.50364,3.21175 z"
       id="path3316"
       inkscape:connector-curvature="0"
       inkscape:export-filename="/home/sade/Desktop/comps/images/buildings/sinkhole.png"
       inkscape:export-xdpi="90"
       inkscape:export-ydpi="90" />
    <path
       style="fill:#ffffff;fill-opacity:1"
       d="m 425.88888,577.02265 c -1.92133,-0.39503 -4.6781,-1.97755 -6.56514,-3.7687 -1.2461,-1.18275 -2.04295,-2.32444 -2.95168,-4.22905 -1.10355,-2.31294 -1.2623,-2.92843 -1.39938,-5.42532 -0.12676,-2.30907 -0.037,-3.2187 0.49853,-5.04971 0.35924,-1.22833 0.70127,-2.23331 0.7601,-2.23331 0.0588,0 0.66664,0.89222 1.35075,1.98272 l 1.24384,1.98273 -0.75495,2.00067 c -0.9501,2.51784 -0.94402,2.69348 0.1064,3.07379 0.73643,0.26661 0.88986,0.52784 1.05791,1.80103 0.10809,0.81905 0.19653,2.45827 0.19653,3.64274 0,2.02327 0.0411,2.15369 0.68007,2.15614 0.37404,8.7e-4 3.3095,0.70645 6.5232,1.5667 l 5.84313,1.5641 2.58092,-1.90499 c 1.41951,-1.04774 2.77297,-1.98151 3.0077,-2.07506 0.3426,-0.13654 0.40994,-0.94557 0.34137,-4.10204 l -0.0854,-3.93194 1.93002,-0.90064 1.93003,-0.90061 -0.15264,2.21562 c -0.30376,4.40914 -3.51171,9.15899 -7.59619,11.24731 -2.91349,1.4896 -5.59679,1.894 -8.54511,1.28782 z"
       id="path3318"
       inkscape:connector-curvature="0"
       inkscape:export-filename="/home/sade/Desktop/comps/images/buildings/sinkhole.png"
       inkscape:export-xdpi="90"
       inkscape:export-ydpi="90" />
    <path
       style="fill:#ffffff;fill-opacity:1"
       d="m 425.88888,577.02265 c -1.92133,-0.39503 -4.6781,-1.97755 -6.56514,-3.7687 -1.2461,-1.18275 -2.04295,-2.32444 -2.95168,-4.22905 -1.10355,-2.31294 -1.2623,-2.92843 -1.39938,-5.42532 -0.12676,-2.30907 -0.037,-3.2187 0.49853,-5.04971 0.35924,-1.22833 0.70127,-2.23331 0.7601,-2.23331 0.0588,0 0.66183,0.88454 1.34005,1.96567 l 1.23314,1.96566 -0.74424,2.12944 c -0.40935,1.17121 -0.74427,2.25045 -0.74427,2.39836 0,0.14791 0.38762,0.40926 0.86136,0.58078 0.73643,0.26661 0.88986,0.52784 1.05791,1.80103 0.10809,0.81905 0.19653,2.45827 0.19653,3.64274 0,2.02327 0.0411,2.15369 0.68007,2.15614 0.37404,8.7e-4 3.3095,0.70645 6.5232,1.5667 l 5.84313,1.5641 2.58092,-1.90499 c 1.41951,-1.04774 2.77297,-1.98151 3.0077,-2.07506 0.3426,-0.13654 0.40994,-0.94557 0.34137,-4.10204 l -0.0854,-3.93194 1.93002,-0.90064 1.93003,-0.90061 -0.15264,2.21562 c -0.30376,4.40914 -3.51171,9.15899 -7.59619,11.24731 -2.91349,1.4896 -5.59679,1.894 -8.54511,1.28782 z"
       id="path3320"
       inkscape:connector-curvature="0"
       inkscape:export-filename="/home/sade/Desktop/comps/images/buildings/sinkhole.png"
       inkscape:export-xdpi="90"
       inkscape:export-ydpi="90" />
    <path
       style="fill:#ffffff;fill-opacity:1"
       d="m 425.88888,577.02265 c -1.92133,-0.39503 -4.6781,-1.97755 -6.56514,-3.7687 -1.2461,-1.18275 -2.04295,-2.32444 -2.95168,-4.22905 -1.10355,-2.31294 -1.2623,-2.92843 -1.39938,-5.42532 -0.12676,-2.30907 -0.037,-3.2187 0.49853,-5.04971 0.35924,-1.22833 0.70127,-2.23331 0.7601,-2.23331 0.0588,0 0.66183,0.88454 1.34005,1.96567 l 1.23314,1.96566 -0.74424,2.12944 c -0.40935,1.17121 -0.74427,2.25045 -0.74427,2.39836 0,0.14791 0.38762,0.40926 0.86136,0.58078 0.73643,0.26661 0.88986,0.52784 1.05791,1.80103 0.10809,0.81905 0.19653,2.45827 0.19653,3.64274 0,2.02327 0.0411,2.15369 0.68007,2.15614 0.37404,8.7e-4 3.29888,0.70361 6.49961,1.56041 l 5.81955,1.55778 2.62353,-1.90625 c 1.44294,-1.04845 2.807,-1.97938 3.03128,-2.06877 0.31864,-0.12698 0.3891,-1.02187 0.32235,-4.09446 l -0.0854,-3.93194 1.93002,-0.90064 1.93003,-0.90061 -0.15264,2.21562 c -0.30376,4.40914 -3.51171,9.15899 -7.59619,11.24731 -2.91349,1.4896 -5.59679,1.894 -8.54511,1.28782 z"
       id="path3322"
       inkscape:connector-curvature="0"
       inkscape:export-filename="/home/sade/Desktop/comps/images/buildings/sinkhole.png"
       inkscape:export-xdpi="90"
       inkscape:export-ydpi="90" />
    <path
       sodipodi:type="arc"
       style="fill:#000000;fill-opacity:1"
       id="path3002"
       sodipodi:cx="430.84821"
       sodipodi:cy="569.05859"
       sodipodi:rx="19.598215"
       sodipodi:ry="19.375"
       d="m 450.44642,569.05859 a 19.598215,19.375 0 1 1 -0.21924,-2.88994"
       sodipodi:start="0"
       sodipodi:end="6.1334682"
       sodipodi:open="true"
       transform="matrix(0.72449939,0,0,0.72806801,157.89641,159.4863)"
       inkscape:export-filename="/home/sade/Desktop/screw-comps/images/buildings/sinkhole.png"
       inkscape:export-xdpi="90"
       inkscape:export-ydpi="90" />
    <path
       sodipodi:type="spiral"
       style="fill:#ececec;stroke:#000000;stroke-width:1px;stroke-linecap:butt;stroke-linejoin:miter;stroke-opacity:1"
       id="path2994"
       sodipodi:cx="358.57144"
       sodipodi:cy="517.54077"
       sodipodi:expansion="0.72000003"
       sodipodi:revolution="3.7"
       sodipodi:radius="10.103498"
       sodipodi:argument="-22.267443"
       sodipodi:t0="0"
       d="m 358.57144,517.54077 c -0.94763,0.2687 -0.90052,-0.96645 -0.39602,-1.39666 0.88734,-0.75667 2.19728,-0.16617 2.69658,0.74435 0.76617,1.39719 -0.0514,3.10537 -1.4271,3.73279 -1.81761,0.829 -3.92824,-0.22073 -4.66289,-2.006 -0.90441,-2.19778 0.36598,-4.69161 2.52768,-5.52437 2.55207,-0.98314 5.41072,0.49656 6.33587,3.01115 1.06227,2.88733 -0.61708,6.09513 -3.46649,7.10847 -3.20765,1.14073 -6.75129,-0.73012 -7.84952,-3.89986 -1.21809,-3.51573 0.83733,-7.38382 4.31539,-8.56419 3.81347,-1.2942 7.99611,0.93983 9.25629,4.71599 1.36903,4.10233 -1.03841,8.59083 -5.10382,9.92877 -4.38342,1.44261 -9.17005,-1.13363 -10.58396,-5.48056 -1.51496,-4.6576 1.22598,-9.73544 5.84752,-11.2237 4.92561,-1.58616 10.28841,1.31578 11.84954,6.20576 1.29361,4.05202 -0.26842,8.57368 -3.71407,11.04092"
       transform="matrix(-1.1156108,0.80124583,-0.81428682,-1.0582518,1291.9603,833.93556)"
       inkscape:export-filename="/home/sade/Desktop/screw-comps/images/buildings/sinkhole.png"
       inkscape:export-xdpi="90"
       inkscape:export-ydpi="90" />
  </g>
</svg>
