<?xml version="1.0" encoding="UTF-8" standalone="no"?>
<!-- Created with Inkscape (http://www.inkscape.org/) -->

<svg
   xmlns:dc="http://purl.org/dc/elements/1.1/"
   xmlns:cc="http://creativecommons.org/ns#"
   xmlns:rdf="http://www.w3.org/1999/02/22-rdf-syntax-ns#"
   xmlns:svg="http://www.w3.org/2000/svg"
   xmlns="http://www.w3.org/2000/svg"
   xmlns:sodipodi="http://sodipodi.sourceforge.net/DTD/sodipodi-0.dtd"
   xmlns:inkscape="http://www.inkscape.org/namespaces/inkscape"
   width="22.042395"
   height="18.228434"
   id="svg3342"
   version="1.1"
   inkscape:version="0.48.3.1 r9886"
   sodipodi:docname="softwate_updater.svg">
  <defs
     id="defs3344" />
  <sodipodi:namedview
     id="base"
     pagecolor="#ffffff"
     bordercolor="#666666"
     borderopacity="1.0"
     inkscape:pageopacity="0.0"
     inkscape:pageshadow="2"
     inkscape:zoom="8.9386616"
     inkscape:cx="-10.382403"
     inkscape:cy="-0.48813713"
     inkscape:document-units="px"
     inkscape:current-layer="layer1"
     showgrid="false"
     fit-margin-top="0"
     fit-margin-left="0"
     fit-margin-right="0"
     fit-margin-bottom="0"
     inkscape:window-width="1311"
     inkscape:window-height="744"
     inkscape:window-x="55"
     inkscape:window-y="24"
     inkscape:window-maximized="1" />
  <metadata
     id="metadata3347">
    <rdf:RDF>
      <cc:Work
         rdf:about="">
        <dc:format>image/svg+xml</dc:format>
        <dc:type
           rdf:resource="http://purl.org/dc/dcmitype/StillImage" />
        <dc:title></dc:title>
      </cc:Work>
    </rdf:RDF>
  </metadata>
  <g
     inkscape:label="Layer 1"
     inkscape:groupmode="layer"
     id="layer1"
     transform="translate(-563.26452,-463.24797)">
    <path
       style="fill:#000000;fill-opacity:1"
       id="path3169-4"
       d="m 572.70384,463.60943 c 0.0716,0.6467 0.008,1.30207 -0.029,1.94941 -0.0511,1.08283 -0.2621,2.14626 -0.47342,3.20754 -0.014,0.0893 -0.0271,0.17867 -0.0407,0.26798 0,0 -0.6411,4.8e-4 -0.6411,4.8e-4 l 0,0 c -0.0156,-0.0912 -0.0298,-0.18231 -0.0446,-0.27344 -0.0551,-1.07923 0.1023,-2.15394 0.30551,-3.21327 0.12923,-0.65223 0.25061,-1.3146 0.49063,-1.93867 0,0 0.43296,0 0.43296,0 z"
       inkscape:connector-curvature="0"
       inkscape:export-filename="/home/sade/Desktop/net-game/images/buildings/research_factory.png"
       inkscape:export-xdpi="90"
       inkscape:export-ydpi="90" />
    <path
       style="fill:#000000;fill-opacity:1"
       id="path3169-3-3"
       d="m 575.47399,463.79174 c -0.3788,0.18187 -0.77671,0.23659 -1.16718,0.3143 -0.65196,0.14115 -1.30885,0.1261 -1.9645,0.11024 -0.0548,0.003 -0.10943,0.006 -0.16424,0.008 0,0 -0.0665,-0.61276 -0.0665,-0.61276 l 0,0 c 0.0529,-0.0303 0.10587,-0.0604 0.15868,-0.0907 0.63881,-0.242 1.29689,-0.28022 1.95054,-0.27181 0.40286,0.009 0.81096,0.009 1.20847,0.12875 0,0 0.0448,0.41388 0.0448,0.41388 z"
       inkscape:connector-curvature="0"
       inkscape:transform-center-x="1.6812411"
       inkscape:transform-center-y="0.48906195"
       inkscape:export-filename="/home/sade/Desktop/net-game/images/buildings/research_factory.png"
       inkscape:export-xdpi="90"
       inkscape:export-ydpi="90" />
    <path
       style="fill:#000000;fill-opacity:1"
       id="path3169-1-1"
       d="m 575.25996,463.32851 c 0.26005,0.59938 0.39378,1.24468 0.54954,1.87517 0.27177,1.05134 0.38465,2.12875 0.49662,3.20424 0.014,0.0893 0.0268,0.17868 0.0404,0.26802 0,0 -0.61387,0.17944 -0.61387,0.17944 l 0,0 c -0.0414,-0.083 -0.0825,-0.16624 -0.12369,-0.24937 -0.37236,-1.01826 -0.54,-2.0915 -0.65913,-3.16283 -0.0694,-0.66077 -0.14936,-1.32905 -0.10428,-1.99378 0,0 0.41468,-0.12089 0.41468,-0.12089 z"
       inkscape:connector-curvature="0"
       inkscape:export-filename="/home/sade/Desktop/net-game/images/buildings/research_factory.png"
       inkscape:export-xdpi="90"
       inkscape:export-ydpi="90" />
    <path
       style="fill:#000000;fill-opacity:1"
       id="path3169-2-8"
       d="m 566.48967,468.02321 c 0.48292,0.3518 0.89336,0.80108 1.31319,1.22793 0.70906,0.70597 1.31171,1.50935 1.91277,2.31163 0.0531,0.0647 0.106,0.12922 0.15907,0.19395 0,0 -0.37318,0.43897 -0.37318,0.43897 l 0,0 c -0.0709,-0.0463 -0.14171,-0.0926 -0.21264,-0.13878 -0.76843,-0.63111 -1.4101,-1.40475 -2.0145,-2.20025 -0.36972,-0.49263 -0.75098,-0.98614 -1.03696,-1.5371 0,0 0.25225,-0.29628 0.25225,-0.29628 z"
       inkscape:connector-curvature="0"
       inkscape:export-filename="/home/sade/Desktop/net-game/images/buildings/research_factory.png"
       inkscape:export-xdpi="90"
       inkscape:export-ydpi="90" />
    <path
       style="fill:#000000;fill-opacity:1"
       id="path3169-3-4-1"
       d="m 568.22791,466.2406 c -0.0966,0.37192 -0.29108,0.67811 -0.46555,0.99346 -0.28348,0.53359 -0.67648,0.97373 -1.06922,1.41262 -0.0301,0.0391 -0.0601,0.0781 -0.0902,0.11722 0,0 -0.45688,-0.33419 -0.45688,-0.33419 l 0,0 c 0.0106,-0.0549 0.0203,-0.10999 0.0306,-0.16482 0.20705,-0.58707 0.56436,-1.06107 0.95089,-1.50316 0.24091,-0.27003 0.47853,-0.54945 0.79192,-0.74715 0,0 0.30848,0.22588 0.30848,0.22588 z"
       inkscape:connector-curvature="0"
       inkscape:transform-center-x="0.66984272"
       inkscape:transform-center-y="1.4855837"
       inkscape:export-filename="/home/sade/Desktop/net-game/images/buildings/research_factory.png"
       inkscape:export-xdpi="90"
       inkscape:export-ydpi="90" />
    <path
       style="fill:#000000;fill-opacity:1"
       id="path3169-1-8-3"
       d="m 567.78713,466.1 c 0.56048,0.19348 1.07871,0.50186 1.59963,0.78595 0.87571,0.46555 1.67659,1.05597 2.47565,1.64581 0.0689,0.0462 0.13767,0.0924 0.20636,0.13848 0,0 -0.23519,0.53128 -0.23519,0.53128 l 0,0 c -0.0807,-0.0232 -0.16153,-0.0464 -0.24229,-0.0698 -0.91172,-0.37618 -1.74171,-0.92653 -2.54207,-1.50892 -0.49128,-0.36196 -0.99386,-0.72139 -1.42117,-1.16412 0,0 0.15908,-0.3587 0.15908,-0.3587 z"
       inkscape:connector-curvature="0"
       inkscape:export-filename="/home/sade/Desktop/net-game/images/buildings/research_factory.png"
       inkscape:export-xdpi="90"
       inkscape:export-ydpi="90" />
    <path
       style="fill:#000000;fill-opacity:1"
       id="path3169-2-0-83"
       d="m 580.31272,466.42465 c -0.42241,0.42684 -0.92455,0.76238 -1.40703,1.1115 -0.80065,0.59239 -1.67475,1.05905 -2.54755,1.52428 -0.0712,0.0422 -0.14234,0.0842 -0.2135,0.12635 0,0 -0.35038,-0.45858 -0.35038,-0.45858 l 0,0 c 0.0569,-0.0635 0.11379,-0.12716 0.17069,-0.19082 0.74012,-0.66625 1.59298,-1.17793 2.45993,-1.64775 0.53603,-0.28637 1.075,-0.58424 1.65144,-0.77495 0,0 0.2364,0.30987 0.2364,0.30987 z"
       inkscape:connector-curvature="0"
       inkscape:export-filename="/home/sade/Desktop/net-game/images/buildings/research_factory.png"
       inkscape:export-xdpi="90"
       inkscape:export-ydpi="90" />
    <path
       style="fill:#000000;fill-opacity:1"
       id="path3169-3-4-7-6"
       d="m 581.69535,468.51314 c -0.33665,-0.16551 -0.59299,-0.41849 -0.86166,-0.6528 -0.45676,-0.38461 -0.80467,-0.8635 -1.15147,-1.3419 -0.0318,-0.0377 -0.0636,-0.0752 -0.0953,-0.11291 0,0 0.40098,-0.40354 0.40098,-0.40354 l 0,0 c 0.0504,0.0203 0.10098,0.0405 0.15138,0.0609 0.52154,0.31662 0.90819,0.7654 1.25911,1.2381 0.21351,0.29359 0.43652,0.58555 0.56803,0.93971 0,0 -0.27094,0.27243 -0.27094,0.27243 z"
       inkscape:connector-curvature="0"
       inkscape:transform-center-x="1.3067029"
       inkscape:transform-center-y="-0.93973489"
       inkscape:export-filename="/home/sade/Desktop/net-game/images/buildings/research_factory.png"
       inkscape:export-xdpi="90"
       inkscape:export-ydpi="90" />
    <path
       style="fill:#000000;fill-opacity:1"
       id="path3169-1-8-1-4"
       d="m 581.90906,468.09087 c -0.28575,0.53428 -0.67324,1.0048 -1.0381,1.48249 -0.60188,0.80519 -1.30912,1.51178 -2.01548,2.2166 -0.0564,0.0615 -0.11287,0.12305 -0.16926,0.18453 0,0 -0.46331,-0.33512 -0.46331,-0.33512 l 0,0 c 0.0368,-0.0779 0.0735,-0.15559 0.11036,-0.23347 0.52333,-0.85795 1.19766,-1.60134 1.89716,-2.30885 0.43366,-0.43347 0.86693,-0.87885 1.36588,-1.23273 0,0 0.31274,0.22655 0.31274,0.22655 z"
       inkscape:connector-curvature="0"
       inkscape:export-filename="/home/sade/Desktop/net-game/images/buildings/research_factory.png"
       inkscape:export-xdpi="90"
       inkscape:export-ydpi="90" />
    <path
       style="fill:#000000;fill-opacity:1"
       id="path3169-2-0-8-2"
       d="m 582.69987,473.99021 c -0.57445,-0.14336 -1.1163,-0.40474 -1.65887,-0.64178 -0.91104,-0.38647 -1.7579,-0.90397 -2.60286,-1.42108 -0.0725,-0.0398 -0.14469,-0.0799 -0.21708,-0.11976 0,0 0.19033,-0.55008 0.19033,-0.55008 l 0,0 c 0.0824,0.016 0.16481,0.032 0.2472,0.0482 0.93952,0.2943 1.81202,0.76929 2.65771,1.27885 0.51946,0.31723 1.04995,0.63094 1.51238,1.03432 0,0 -0.1287,0.37143 -0.1287,0.37143 z"
       inkscape:connector-curvature="0"
       inkscape:export-filename="/home/sade/Desktop/net-game/images/buildings/research_factory.png"
       inkscape:export-xdpi="90"
       inkscape:export-ydpi="90" />
    <path
       style="fill:#000000;fill-opacity:1"
       id="path3169-3-4-7-1-3"
       d="m 581.71986,475.96339 c -0.0429,-0.33792 0.0286,-0.65479 0.0783,-0.97244 0.0733,-0.53354 0.28151,-1.02714 0.49005,-1.51963 0.014,-0.0422 0.0279,-0.0845 0.0421,-0.12673 0,0 0.54394,0.12089 0.54394,0.12089 l 0,0 c 0.0106,0.0485 0.0203,0.097 0.0305,0.14554 0.017,0.55178 -0.1461,1.06119 -0.34775,1.55422 -0.12765,0.30277 -0.24883,0.61215 -0.46966,0.87986 0,0 -0.36734,-0.0818 -0.36734,-0.0818 z"
       inkscape:connector-curvature="0"
       inkscape:transform-center-x="-0.12137007"
       inkscape:transform-center-y="-1.4205435"
       inkscape:export-filename="/home/sade/Desktop/net-game/images/buildings/research_factory.png"
       inkscape:export-xdpi="90"
       inkscape:export-ydpi="90" />
    <path
       style="fill:#000000;fill-opacity:1"
       id="path3169-1-8-1-0-2"
       d="m 582.17839,476.03819 c -0.63148,0.14742 -1.26476,0.17232 -1.89149,0.21962 -1.04891,0.0898 -2.07112,0.0303 -3.09125,-0.0297 -0.0861,-0.001 -0.17212,-0.003 -0.25818,-0.003 0,0 0.0311,-0.58903 0.0311,-0.58903 l 0,0 c 0.0894,-0.0253 0.17847,-0.0505 0.2677,-0.0756 1.05065,-0.18694 2.08647,-0.1782 3.10508,-0.12534 0.62696,0.0363 1.26416,0.0642 1.85831,0.20586 0,0 -0.0214,0.39785 -0.0214,0.39785 z"
       inkscape:connector-curvature="0"
       inkscape:export-filename="/home/sade/Desktop/net-game/images/buildings/research_factory.png"
       inkscape:export-xdpi="90"
       inkscape:export-ydpi="90" />
    <path
       style="fill:#000000;fill-opacity:1"
       id="path3169-2-0-8-4-9"
       d="m 577.50609,480.58186 c -0.22243,-0.52666 -0.33282,-1.09209 -0.46287,-1.6448 -0.22745,-0.9218 -0.31443,-1.86464 -0.40058,-2.8058 -0.0106,-0.0781 -0.0216,-0.15636 -0.0325,-0.23468 0,0 0.54365,-0.1501 0.54365,-0.1501 l 0,0 c 0.0355,0.0731 0.0709,0.14618 0.10627,0.21932 0.31657,0.89398 0.45191,1.83378 0.54444,2.77137 0.0536,0.57824 0.11629,1.16316 0.0686,1.74361 0,0 -0.36724,0.10111 -0.36724,0.10111 z"
       inkscape:connector-curvature="0"
       inkscape:export-filename="/home/sade/Desktop/net-game/images/buildings/research_factory.png"
       inkscape:export-xdpi="90"
       inkscape:export-ydpi="90" />
    <path
       style="fill:#000000;fill-opacity:1"
       id="path3169-3-4-7-1-2-5"
       d="m 575.11091,481.11216 c 0.27582,-0.25907 0.59962,-0.40824 0.91137,-0.5763 0.51768,-0.29085 1.07859,-0.44197 1.63864,-0.59218 0.0457,-0.0162 0.0916,-0.0324 0.13735,-0.0485 0,0 0.20967,0.53615 0.20967,0.53615 l 0,0 c -0.0374,0.0405 -0.0746,0.0811 -0.11194,0.12166 -0.48133,0.37854 -1.02993,0.57807 -1.58641,0.73444 -0.34398,0.0929 -0.69009,0.19536 -1.05724,0.18687 0,0 -0.1414,-0.36217 -0.1414,-0.36217 z"
       inkscape:connector-curvature="0"
       inkscape:transform-center-x="-1.3125429"
       inkscape:transform-center-y="-0.91771881"
       inkscape:export-filename="/home/sade/Desktop/net-game/images/buildings/research_factory.png"
       inkscape:export-xdpi="90"
       inkscape:export-ydpi="90" />
    <path
       style="fill:#000000;fill-opacity:1"
       id="path3169-1-8-1-0-8-0"
       d="m 575.40829,481.4764 c -0.37046,-0.47554 -0.64526,-1.02417 -0.93505,-1.55391 -0.49343,-0.88036 -0.85859,-1.82408 -1.2225,-2.76628 -0.0337,-0.0773 -0.0674,-0.15448 -0.10125,-0.2317 0,0 0.47579,-0.31585 0.47579,-0.31585 l 0,0 c 0.0558,0.0647 0.11155,0.12937 0.1674,0.19394 0.57046,0.82526 0.98107,1.75148 1.34999,2.68813 0.22411,0.57873 0.45905,1.16159 0.58708,1.77259 0,0 -0.32147,0.21308 -0.32147,0.21308 z"
       inkscape:connector-curvature="0"
       inkscape:export-filename="/home/sade/Desktop/net-game/images/buildings/research_factory.png"
       inkscape:export-xdpi="90"
       inkscape:export-ydpi="90" />
    <path
       style="fill:#000000;fill-opacity:1"
       id="path3169-2-0-8-4-3-3"
       d="m 569.79937,481.07204 c 0.30441,-0.58479 0.72122,-1.10208 1.11316,-1.62675 0.64626,-0.88414 1.40943,-1.66303 2.17164,-2.43995 0.0609,-0.0678 0.12158,-0.1355 0.18241,-0.20317 0,0 0.51249,0.35611 0.51249,0.35611 l 0,0 c -0.0391,0.085 -0.078,0.17021 -0.11722,0.2553 -0.55945,0.94014 -1.28601,1.7584 -2.04068,2.53817 -0.46793,0.47781 -0.93523,0.96857 -1.47594,1.36104 0,0 -0.34593,-0.24075 -0.34593,-0.24075 z"
       inkscape:connector-curvature="0"
       inkscape:export-filename="/home/sade/Desktop/net-game/images/buildings/research_factory.png"
       inkscape:export-xdpi="90"
       inkscape:export-ydpi="90" />
    <path
       style="fill:#000000;fill-opacity:1"
       id="path3169-3-4-7-1-2-8-2"
       d="m 567.87099,479.53089 c 0.36931,0.0528 0.68761,0.21415 1.01222,0.3538 0.54784,0.22431 1.01947,0.57243 1.48985,0.92042 0.0414,0.0259 0.0828,0.052 0.12395,0.0779 0,0 -0.26435,0.50971 -0.26435,0.50971 l 0,0 c -0.054,-0.003 -0.10811,-0.008 -0.16211,-0.0114 -0.58976,-0.13925 -1.08949,-0.44666 -1.56217,-0.7879 -0.28935,-0.2134 -0.58728,-0.42222 -0.8161,-0.71889 0,0 0.17869,-0.34417 0.17869,-0.34417 z"
       inkscape:connector-curvature="0"
       inkscape:transform-center-x="-1.5013102"
       inkscape:transform-center-y="0.5085976"
       inkscape:export-filename="/home/sade/Desktop/net-game/images/buildings/research_factory.png"
       inkscape:export-xdpi="90"
       inkscape:export-ydpi="90" />
    <path
       style="fill:#000000;fill-opacity:1"
       id="path3169-1-8-1-0-8-1-8"
       d="m 567.79062,480.00009 c 0.1163,-0.59844 0.34826,-1.1678 0.55653,-1.73694 0.33855,-0.95525 0.80639,-1.84934 1.27387,-2.74145 0.0358,-0.0764 0.0717,-0.15246 0.10745,-0.22868 0,0 0.53961,0.17507 0.53961,0.17507 l 0,0 c -0.0132,0.0856 -0.0247,0.17133 -0.037,0.257 -0.24824,0.98106 -0.67395,1.89998 -1.1341,2.79252 -0.28678,0.54843 -0.56969,1.10809 -0.942,1.60097 0,0 -0.36434,-0.11849 -0.36434,-0.11849 z"
       inkscape:connector-curvature="0"
       inkscape:export-filename="/home/sade/Desktop/net-game/images/buildings/research_factory.png"
       inkscape:export-xdpi="90"
       inkscape:export-ydpi="90" />
    <path
       style="fill:#000000;fill-opacity:1"
       id="path3169-2-0-8-4-5-0"
       d="m 565.15286,475.56833 c 0.57358,-0.14695 1.17109,-0.17365 1.75833,-0.22226 0.98084,-0.0919 1.96339,-0.037 2.94407,0.0185 0.082,6.4e-4 0.16405,10e-4 0.24611,0.004 0,0 0.0772,0.5787 0.0772,0.5787 l 0,0 c -0.0803,0.0251 -0.16052,0.0501 -0.24078,0.0752 -0.96488,0.18727 -1.95118,0.18227 -2.92912,0.13393 -0.6026,-0.0335 -1.2134,-0.0587 -1.80393,-0.19578 0,0 -0.052,-0.39088 -0.052,-0.39088 z"
       inkscape:connector-curvature="0"
       inkscape:export-filename="/home/sade/Desktop/net-game/images/buildings/research_factory.png"
       inkscape:export-xdpi="90"
       inkscape:export-ydpi="90" />
    <path
       style="fill:#000000;fill-opacity:1"
       id="path3169-3-4-7-1-2-9-0"
       d="m 564.98497,473.04428 c 0.20911,0.3188 0.30608,0.67104 0.42281,1.01366 0.20521,0.57054 0.27034,1.16548 0.33475,1.75939 0.009,0.0491 0.0179,0.0982 0.0268,0.14726 0,0 -0.54364,0.13817 -0.54364,0.13817 l 0,0 c -0.0335,-0.0438 -0.0672,-0.0877 -0.10072,-0.13172 -0.29439,-0.54587 -0.40768,-1.13509 -0.47846,-1.72622 -0.04,-0.36486 -0.0892,-0.73327 -0.0289,-1.10741 0,0 0.3672,-0.0931 0.3672,-0.0931 z"
       inkscape:connector-curvature="0"
       inkscape:transform-center-x="-0.6838537"
       inkscape:transform-center-y="1.4599139"
       inkscape:export-filename="/home/sade/Desktop/net-game/images/buildings/research_factory.png"
       inkscape:export-xdpi="90"
       inkscape:export-ydpi="90" />
    <path
       style="fill:#000000;fill-opacity:1"
       id="path3169-1-8-1-0-8-2-3"
       d="m 564.59363,473.29657 c 0.50839,-0.31119 1.07324,-0.51418 1.62212,-0.73517 0.91382,-0.37939 1.87015,-0.61863 2.82485,-0.85681 0.0788,-0.0235 0.15762,-0.0469 0.23644,-0.0707 0,0 0.23512,0.53131 0.23512,0.53131 l 0,0 c -0.07,0.048 -0.1397,0.0958 -0.20965,0.14365 -0.87198,0.46598 -1.81799,0.75415 -2.7681,0.99825 -0.58649,0.14695 -1.17848,0.30426 -1.78223,0.34834 0,0 -0.15855,-0.35894 -0.15855,-0.35894 z"
       inkscape:connector-curvature="0"
       inkscape:export-filename="/home/sade/Desktop/net-game/images/buildings/research_factory.png"
       inkscape:export-xdpi="90"
       inkscape:export-ydpi="90" />
    <path
       style="fill:#000000;fill-opacity:1"
       id="path3398-9"
       d="m 571.62215,470.70408 c -0.10481,-0.29931 0.11154,-0.53343 0.30037,-0.71679 0.3057,-0.24616 0.67367,-0.39513 1.0579,-0.39301 1.43486,0.008 1.02266,-0.0747 1.88758,0.18773 0.15187,0.0709 0.30885,0.13016 0.45558,0.21308 0.5427,0.30646 1.11238,0.80557 1.45243,1.36483 0.0737,0.12115 0.12686,0.25559 0.19042,0.38339 0.22294,0.59741 0.20917,1.22823 -0.11551,1.78021 -0.0639,0.10847 -0.14545,0.20345 -0.21808,0.30517 -0.54458,0.60693 -1.28359,0.93933 -2.04596,1.0711 -0.18148,0.0315 -0.3657,0.0393 -0.54857,0.0591 -1.03296,0.006 -2.27538,0.19839 -3.12546,-0.62612 -0.25927,-0.25147 -0.31021,-0.39554 -0.4857,-0.71146 -0.25064,-0.70711 -0.20868,-1.36214 0.11379,-2.03529 0.0635,-0.13268 0.1439,-0.25489 0.21576,-0.38235 0.44437,-0.62917 1.02568,-1.13972 1.72691,-1.38325 0.14547,-0.0505 0.29645,-0.079 0.44467,-0.11849 0,0 1.1459,0.16956 1.1459,0.16956 l 0,0 c -0.14951,0.0336 -0.30142,0.0564 -0.44855,0.10085 -0.71482,0.21558 -1.31368,0.68335 -1.78367,1.30109 -0.0804,0.12141 -0.16878,0.23669 -0.24096,0.36394 -0.26129,0.46064 -0.40171,1.00735 -0.25623,1.54211 0.0354,0.13001 0.10006,0.24843 0.14998,0.37264 0.0799,0.11595 0.1486,0.24222 0.2398,0.3478 0.33063,0.38273 0.76089,0.60471 1.22426,0.7266 0.17431,0.0458 0.68675,6.3e-4 0.53051,0.0969 -0.21268,0.13046 -0.48786,0.0179 -0.73179,0.0266 0.18281,-0.0141 0.36656,-0.0188 0.54844,-0.0435 0.68173,-0.093 1.39087,-0.31033 1.98541,-0.69511 0.11853,-0.0766 0.22451,-0.17435 0.33675,-0.26153 0.17026,-0.19027 0.33194,-0.33708 0.43816,-0.58262 0.20009,-0.46257 0.0481,-0.94821 -0.17699,-1.35661 -0.0833,-0.12014 -0.15877,-0.24716 -0.24999,-0.36023 -0.3798,-0.4708 -0.97998,-1.01027 -1.48584,-1.30729 -0.13174,-0.0774 -0.27245,-0.13487 -0.40868,-0.20225 -0.67073,-0.21834 -0.41477,-0.0793 0.24125,-0.1807 0.12857,-0.02 -0.26035,4.6e-4 -0.38964,0.0141 -0.22052,0.0245 -0.4409,0.0836 -0.64783,0.17004 -0.0832,0.0348 -0.16152,0.082 -0.24228,0.1228 -0.22817,0.1504 -0.50013,0.308 -0.55902,0.61772 0,0 -0.52508,0.0184 -0.52508,0.0184 z"
       inkscape:connector-curvature="0"
       inkscape:export-filename="/home/sade/Desktop/net-game/images/buildings/research_factory.png"
       inkscape:export-xdpi="90"
       inkscape:export-ydpi="90" />
    <path
       style="fill:#808080;fill-opacity:1"
       d="m 575.52032,480.32056 c 0,-0.59824 -1.60379,-3.72298 -1.91085,-3.72298 -0.31732,0 -2.49756,2.24004 -3.18598,3.27336 -0.35187,0.52813 -0.3782,0.53145 -1.05034,0.13297 l -0.68943,-0.40867 0.54923,-1.12942 c 0.30209,-0.6212 0.6989,-1.56747 0.88176,-2.10283 0.41896,-1.2264 0.33526,-1.2684 -2.30475,-1.15577 l -1.96557,0.0839 -0.18788,-0.71259 c -0.22565,-0.85593 -0.13844,-1.0689 0.43768,-1.0689 0.6627,0 3.48995,-1.11329 3.69422,-1.45467 0.2078,-0.34728 -0.37845,-1.27014 -1.73745,-2.73504 l -0.93031,-1.00281 0.47768,-0.61872 0.47769,-0.61874 1.55532,1.0772 c 0.85541,0.59245 1.79534,1.0772 2.08869,1.0772 0.47494,0 0.56108,-0.16468 0.78693,-1.50405 0.13953,-0.82721 0.25358,-1.94955 0.25358,-2.49409 l 0,-0.99005 1.00216,0 1.00214,0 0.14734,1.4554 c 0.20322,2.00824 0.60214,3.26125 1.08905,3.42087 0.25413,0.0833 1.06939,-0.27838 2.13864,-0.94875 l 1.72795,-1.08339 0.53724,0.53758 0.53726,0.53758 -1.45918,1.62213 c -0.80254,0.89219 -1.42349,1.74729 -1.37988,1.90027 0.0636,0.22329 2.63036,1.72452 3.57623,2.09166 0.12277,0.0477 0.17273,0.43411 0.11076,0.8587 l -0.11274,0.77197 -2.36055,0 c -1.61141,0 -2.43416,0.0943 -2.5925,0.29694 -0.1553,0.19885 -0.15635,0.80675 -0.003,1.84086 0.3569,2.40743 0.36189,2.37733 -0.45376,2.73618 -0.5722,0.25173 -0.74743,0.26033 -0.74743,0.0368 z m -0.57495,-5.40917 c 2.11347,-0.59351 2.83877,-2.46285 1.56311,-4.02866 -0.77389,-0.94991 -1.81147,-1.41113 -3.17451,-1.41113 -0.89889,0 -1.18651,0.13031 -1.98496,0.89959 -0.76037,0.73255 -0.95578,1.10132 -1.0523,1.98594 -0.0863,0.79026 -0.009,1.2573 0.27937,1.71361 0.63323,0.99815 2.51751,1.36068 4.36929,0.84065 z"
       id="path3400-0"
       inkscape:connector-curvature="0"
       inkscape:export-filename="/home/sade/Desktop/net-game/images/buildings/research_factory.png"
       inkscape:export-xdpi="90"
       inkscape:export-ydpi="90" />
    <path
       style="fill:#f9f9f9;fill-opacity:1"
       id="path3117"
       d="m 575.05183,465.3169 c -0.0401,-0.086 -0.12852,-0.12339 -0.1649,-0.21186 -0.0441,-0.10699 -0.029,-0.18456 -0.0312,-0.30578 0.7794,-0.14485 1.55536,-0.31051 2.33816,-0.43483 0.0306,-0.005 0.0594,0.0335 0.0891,0.0496 0.0442,0.0243 0.0891,0.0462 0.13296,0.0718 0.23259,0.13554 0.4456,0.30053 0.66339,0.47838 0.64271,0.56028 1.18074,1.30318 1.6611,2.09646 0.11918,0.19689 0.23147,0.4007 0.3472,0.60105 0.56823,1.04188 1.09086,2.13307 1.4806,3.29944 0.0735,0.21995 0.13687,0.44457 0.20533,0.66686 0.22526,0.79666 0.39421,1.61503 0.50846,2.43975 0.0471,0.33506 0.0705,0.59173 0.10486,0.92379 0.0419,0.44802 0.0247,0.23508 0.0545,0.6385 0,0 -2.20161,0.28343 -2.20161,0.28343 l 0,0 c 0.0236,-0.39437 0.0152,-0.18488 0.0222,-0.62897 -0.002,-0.13962 9e-5,-0.27911 -0.005,-0.4191 -0.0378,-0.97185 -0.20349,-1.94076 -0.45314,-2.87999 -0.16671,-0.56023 -0.21631,-0.76129 -0.42039,-1.3074 -0.33997,-0.90984 -0.76326,-1.7695 -1.23365,-2.58013 -0.12005,-0.19397 -0.23577,-0.39266 -0.36016,-0.58192 -0.5117,-0.77845 -1.09945,-1.47598 -1.78832,-1.95154 -0.24665,-0.15134 -0.48746,-0.30127 -0.75115,-0.37176 -0.0531,-0.0143 -0.10692,-0.0242 -0.16036,-0.0272 -0.0345,-0.002 -0.0681,0.009 -0.10192,0.0138 0.74276,-0.14319 1.48553,-0.28638 2.22829,-0.42957 -0.0133,-0.0527 -0.0282,-0.10509 -0.0416,-0.15773 -0.003,-0.0101 -0.0165,-0.0301 -0.008,-0.0319 9.6e-4,-2.9e-4 0.14452,0.18914 0.16501,0.18717 0,0 -2.2795,0.57001 -2.2795,0.57001 z"
       inkscape:connector-curvature="0"
       inkscape:export-filename="/home/sade/Desktop/net-game/images/buildings/research_factory.png"
       inkscape:export-xdpi="90"
       inkscape:export-ydpi="90" />
    <path
       style="fill:#f9f9f9;fill-opacity:1"
       id="path3119"
       d="m 578.03127,471.68933 c 0.10117,0.0616 0.0843,0.0539 0.20661,0.11319 0.19769,0.0959 0.17896,0.0741 0.38985,0.20021 0.21408,0.12793 0.32644,0.21278 0.53907,0.36171 0.64926,0.47836 1.26277,1.04327 1.8803,1.59515 0.43544,0.38048 0.88302,0.73263 1.33254,1.07927 0.18323,0.13377 0.0948,0.0696 0.26518,0.19284 0,0 -2.20062,0.61856 -2.20062,0.61856 l 0,0 c -0.15069,-0.13255 -0.0722,-0.063 -0.23541,-0.20882 -0.40832,-0.37306 -0.82198,-0.73527 -1.22366,-1.12205 -0.6058,-0.56394 -1.21489,-1.13247 -1.88338,-1.54412 -0.41624,-0.23924 -0.85127,-0.47752 -1.29667,-0.51862 0,0 2.2262,-0.76728 2.2262,-0.76728 z"
       inkscape:connector-curvature="0"
       inkscape:export-filename="/home/sade/Desktop/net-game/images/buildings/research_factory.png"
       inkscape:export-xdpi="90"
       inkscape:export-ydpi="90" />
    <path
       style="fill:#f9f9f9;fill-opacity:1"
       id="path3121"
       d="m 585.30691,470.489 c -0.27886,0.43684 -0.56447,0.86587 -0.84583,1.29984 -0.46275,0.68814 -0.90083,1.40454 -1.31934,2.1422 -0.30727,0.54962 -0.59747,1.11665 -0.85186,1.71527 0,0 -2.17945,0.0977 -2.17945,0.0977 l 0,0 c 0.29131,-0.5959 0.60568,-1.16997 0.92004,-1.74338 0.40896,-0.73303 0.83856,-1.44385 1.27122,-2.15131 0.23447,-0.40855 0.48117,-0.80902 0.67366,-1.25822 0,0 2.33156,-0.10209 2.33156,-0.10209 z"
       inkscape:connector-curvature="0"
       inkscape:export-filename="/home/sade/Desktop/net-game/images/buildings/research_factory.png"
       inkscape:export-xdpi="90"
       inkscape:export-ydpi="90" />
    <path
       style="fill:#f2f2f2;fill-opacity:1"
       id="path3117-5"
       d="m 574.29169,478.29039 c 0.0611,0.0726 0.15618,0.0857 0.21432,0.16169 0.0704,0.0919 0.0761,0.17065 0.10963,0.28715 -0.71493,0.34252 -1.42113,0.70424 -2.14468,1.02782 -0.0282,0.0128 -0.0661,-0.0169 -0.0989,-0.0247 -0.049,-0.012 -0.0981,-0.0215 -0.14706,-0.0348 -0.25983,-0.0704 -0.50842,-0.17433 -0.76496,-0.28944 -0.76628,-0.3739 -1.47897,-0.95136 -2.14907,-1.59245 -0.16627,-0.15913 -0.32769,-0.32674 -0.49153,-0.49011 -0.81959,-0.8583 -1.60796,-1.77607 -2.28757,-2.80098 -0.12816,-0.19328 -0.24775,-0.3937 -0.37166,-0.59054 -0.42465,-0.71069 -0.80057,-1.45698 -1.12533,-2.22363 -0.1326,-0.31129 -0.22193,-0.55305 -0.34144,-0.86475 -0.15695,-0.42172 -0.085,-0.22058 -0.21865,-0.60237 0,0 2.0522,-0.84613 2.0522,-0.84613 l 0,0 c 0.0798,0.38695 0.0334,0.18248 0.1421,0.61311 0.0382,0.1343 0.0725,0.26954 0.1138,0.40339 0.28919,0.92859 0.7011,1.8211 1.18638,2.66311 0.30664,0.49762 0.40681,0.67887 0.74587,1.15313 0.56484,0.79015 1.19709,1.51019 1.86208,2.17063 0.16635,0.15608 0.32975,0.31785 0.49907,0.46826 0.69651,0.61863 1.44541,1.13935 2.23424,1.41944 0.27751,0.082 0.54902,0.16416 0.82197,0.16366 0.055,0 0.10954,-0.004 0.16192,-0.0154 0.0338,-0.007 0.0634,-0.0264 0.0948,-0.0398 -0.67999,0.33139 -1.35997,0.66278 -2.03995,0.99417 0.0265,0.0474 0.0546,0.0941 0.0812,0.14149 0.006,0.009 0.0238,0.0248 0.016,0.0287 -8.6e-4,5.3e-4 -0.18873,-0.14506 -0.20801,-0.13782 0,0 2.0529,-1.1431 2.0529,-1.1431 z"
       inkscape:connector-curvature="0"
       inkscape:export-filename="/home/sade/Desktop/net-game/images/buildings/research_factory.png"
       inkscape:export-xdpi="90"
       inkscape:export-ydpi="90" />
    <path
       style="fill:#f9f9f9;fill-opacity:1"
       id="path3121-2"
       d="m 563.65429,469.10234 c 0.51743,0.0292 1.03137,0.0681 1.54752,0.10093 0.8266,0.0665 1.66575,0.0976 2.51385,0.10127 0.62968,-10e-4 1.26617,-0.0259 1.91268,-0.0973 0,0 1.15247,1.85239 1.15247,1.85239 l 0,0 c -0.66222,0.0378 -1.3167,0.0449 -1.97058,0.0516 -0.83939,0.002 -1.66952,-0.0241 -2.49823,-0.0549 -0.47103,-0.004 -0.94101,-0.0233 -1.42692,0.0288 0,0 -1.23079,-1.98287 -1.23079,-1.98287 z"
       inkscape:connector-curvature="0"
       inkscape:export-filename="/home/sade/Desktop/net-game/images/buildings/research_factory.png"
       inkscape:export-xdpi="90"
       inkscape:export-ydpi="90" />
    <path
       style="fill:#f9f9f9;fill-opacity:1"
       id="path3119-5"
       d="m 563.31075,475.019 c -6e-4,-0.11845 0.002,-0.10002 -0.0119,-0.23528 -0.022,-0.21862 -0.0307,-0.19124 -0.0339,-0.43694 -0.003,-0.24938 0.01,-0.38954 0.0254,-0.64868 0.0669,-0.80368 0.22627,-1.62229 0.37242,-2.43749 0.0957,-0.57028 0.16086,-1.13604 0.22034,-1.70057 0.0178,-0.22616 0.009,-0.11724 0.0252,-0.32691 0,0 1.68055,1.54954 1.68055,1.54954 l 0,0 c -0.0339,0.19781 -0.0158,0.0945 -0.0544,0.30995 -0.10358,0.5433 -0.19512,1.08545 -0.31386,1.63028 -0.16257,0.81154 -0.32733,1.62829 -0.32736,2.41335 0.0145,0.47988 0.0397,0.97525 0.23826,1.37607 0,0 -1.8206,-1.49335 -1.8206,-1.49335 z"
       inkscape:connector-curvature="0"
       inkscape:export-filename="/home/sade/Desktop/net-game/images/buildings/research_factory.png"
       inkscape:export-xdpi="90"
       inkscape:export-ydpi="90" />
  </g>
</svg>
