<?xml version="1.0" encoding="UTF-8" standalone="no"?>
<!-- Created with Inkscape (http://www.inkscape.org/) -->

<svg
   xmlns:dc="http://purl.org/dc/elements/1.1/"
   xmlns:cc="http://creativecommons.org/ns#"
   xmlns:rdf="http://www.w3.org/1999/02/22-rdf-syntax-ns#"
   xmlns:svg="http://www.w3.org/2000/svg"
   xmlns="http://www.w3.org/2000/svg"
   xmlns:sodipodi="http://sodipodi.sourceforge.net/DTD/sodipodi-0.dtd"
   xmlns:inkscape="http://www.inkscape.org/namespaces/inkscape"
   id="svg2"
   version="1.1"
   inkscape:version="0.48.2 r9819"
   width="1024"
   height="768"
   sodipodi:docname="resource_panel.svg"
   inkscape:export-filename="C:\Users\Sade\Desktop\resource_panel.png"
   inkscape:export-xdpi="90"
   inkscape:export-ydpi="90">
  <metadata
     id="metadata8">
    <rdf:RDF>
      <cc:Work
         rdf:about="">
        <dc:format>image/svg+xml</dc:format>
        <dc:type
           rdf:resource="http://purl.org/dc/dcmitype/StillImage" />
        <dc:title></dc:title>
      </cc:Work>
    </rdf:RDF>
  </metadata>
  <defs
     id="defs6" />
  <sodipodi:namedview
     pagecolor="#ffffff"
     bordercolor="#666666"
     borderopacity="1"
     objecttolerance="10"
     gridtolerance="10"
     guidetolerance="10"
     inkscape:pageopacity="0"
     inkscape:pageshadow="2"
     inkscape:window-width="1303"
     inkscape:window-height="746"
     id="namedview4"
     showgrid="false"
     inkscape:zoom="0.28515625"
     inkscape:cx="587.02234"
     inkscape:cy="384"
     inkscape:window-x="55"
     inkscape:window-y="-8"
     inkscape:window-maximized="1"
     inkscape:current-layer="svg2" />
  <path
     style="fill:#000000;fill-opacity:1"
     id="path3528"
     d="m 280.13528,301.24032 c 1.33353,5.70873 0.87511,11.76009 0.42867,17.53936 -0.71106,9.21654 -1.26096,12.01654 -2.59054,21.68592 -4.69822,29.08308 -13.82585,57.25454 -23.46792,85.12774 -0.64419,1.937 -1.28783,3.87395 -1.93148,5.81103 0,0 -9.45921,4.61667 -9.45921,4.61667 l 0,0 c -0.2458,-1.55501 -0.48591,-3.11004 -0.72821,-4.66505 0.26295,-2.80489 0.33719,-5.63117 0.78423,-8.41468 1.18672,-7.39967 4.39746,-20.05342 6.23868,-26.90502 1.37361,-5.11469 8.03641,-28.19034 9.50377,-33.19106 1.51534,-5.16287 3.07417,-10.31388 4.61122,-15.47088 3.7699,-14.20754 7.57228,-28.44452 10.17543,-42.89774 0,0 6.43475,-3.23629 6.43475,-3.23629 z"
     inkscape:connector-curvature="0"
     inkscape:export-filename="/home/sade/Desktop/net-game/images/buildings/cpu.png"
     inkscape:export-xdpi="90"
     inkscape:export-ydpi="90" />
  <path
     style="fill:#000000;fill-opacity:1"
     id="path3530"
     d="m 272.26231,311.54479 c -0.76085,-4.03668 1.49591,-7.33526 4.01335,-9.96165 3.06901,-2.35327 6.03979,-4.86738 9.20711,-7.05974 1.43365,-0.9924 5.79854,-2.47728 7.18581,-2.90299 3.06052,-0.93933 9.42832,-2.556 12.33214,-3.02469 2.6975,-0.43546 5.42644,-0.5978 8.13988,-0.89668 13.6498,-1.71381 27.35153,0.3137 40.49994,4.45266 7.99124,2.5156 13.09922,4.90932 20.81559,8.19567 11.32661,5.25054 21.76447,12.36097 32.45032,18.94004 0,0 -7.6494,6.88041 -7.6494,6.88041 l 0,0 c -12.39789,-4.04621 -23.92522,-10.59925 -35.95895,-15.72456 -19.28309,-7.91262 -38.27802,-15.28729 -59.24278,-13.76248 -6.1781,0.28794 -12.26359,0.65498 -18.32501,2.10893 -1.21648,0.29181 -2.42141,0.65634 -3.59781,1.10269 -0.96946,0.36781 -3.3914,2.27139 -2.8267,1.33419 1.0358,-1.7196 2.91704,-2.6041 4.37582,-3.90616 -0.65739,0.56172 -1.36162,1.06436 -1.9727,1.68592 -2.0578,2.0934 -3.09422,5.25833 -3.44918,8.22607 0,0 -5.99743,4.31262 -5.99743,4.31262 z"
     inkscape:connector-curvature="0"
     inkscape:export-filename="/home/sade/Desktop/net-game/images/buildings/cpu.png"
     inkscape:export-xdpi="90"
     inkscape:export-ydpi="90" />
  <path
     style="fill:#000000;fill-opacity:1"
     id="path3538"
     d="m 405.03669,317.27857 c 1.32442,9.6129 1.86005,19.31874 2.15101,29.03523 0.53161,23.59182 -1.644,47.16488 -5.4013,70.33787 -0.72996,4.5004 -1.60681,8.96763 -2.40995,13.45148 -2.68884,10.60967 -4.78559,23.6221 -10.82075,32.6394 -0.67963,1.01533 -1.57941,1.80817 -2.36881,2.71219 0,0 -7.99412,3.84542 -7.99412,3.84542 l 0,0 c 0.46306,-0.64791 1.02662,-1.21619 1.38963,-1.94384 1.57599,-3.16202 2.41853,-6.82314 3.14219,-10.31786 1.16668,-5.6315 2.3351,-13.89629 3.17134,-19.37866 3.53722,-28.18589 7.38653,-56.33692 9.79306,-84.69023 1.1209,-10.63634 1.82855,-21.31282 2.95241,-31.94665 0,0 6.39529,-3.74435 6.39529,-3.74435 z"
     inkscape:connector-curvature="0"
     inkscape:export-filename="/home/sade/Desktop/net-game/images/buildings/cpu.png"
     inkscape:export-xdpi="90"
     inkscape:export-ydpi="90" />
  <path
     style="fill:#000000;fill-opacity:1"
     id="path3540"
     d="m 246.45367,429.38909 c 2.42878,4.00421 5.80705,6.42626 9.0379,9.00197 9.15101,6.4798 19.19041,10.2034 29.04974,14.09069 2.2516,0.7558 4.49751,1.54297 6.75427,2.2674 6.74516,2.16497 9.18995,2.93166 16.24657,4.30296 10.10111,1.96272 20.27373,2.89817 30.4434,3.85913 14.33512,1.23269 28.74396,2.18618 43.07909,0.52436 -2.09674,3.00079 6.63304,-3.34592 5.01363,-2.37485 -1.49993,0.89913 -2.80834,2.50144 -4.41234,2.95351 -0.61389,0.17328 0.82713,-1.29948 1.14953,-2.03402 0.25726,-0.58297 0.38304,-1.256 0.57168,-1.88399 0,0 5.79217,-3.7564 5.79217,-3.7564 l 0,0 c -0.08,0.66214 -0.0744,1.35862 -0.2458,1.98635 -1.31759,4.73172 -5.83908,6.69289 -8.49195,8.92325 -2.49626,2.09883 -3.17763,2.00459 -6.15692,3.11603 -15.39606,3.80361 -31.10192,4.24002 -46.69057,2.70234 -8.31477,-0.95382 -12.0669,-1.19918 -20.27426,-2.86184 -8.33649,-1.68881 -16.37289,-4.43644 -24.47905,-7.50035 -2.20136,-0.83188 -4.40262,-1.66078 -6.6045,-2.49111 -9.30314,-4.33686 -18.76288,-8.76737 -26.9571,-16.37413 -2.92212,-2.92922 -6.36841,-5.79847 -7.77861,-10.59436 0,0 4.95593,-3.85694 4.95593,-3.85694 z"
     inkscape:connector-curvature="0"
     inkscape:export-filename="/home/sade/Desktop/net-game/images/buildings/cpu.png"
     inkscape:export-xdpi="90"
     inkscape:export-ydpi="90" />
  <path
     style="fill:#000000;fill-opacity:1"
     id="path3528-2"
     d="m 293.89189,320.07342 c 0.94715,4.4041 0.62134,9.07256 0.30297,13.53117 -0.50307,7.11036 -0.89575,9.27045 -1.84009,16.73015 -3.33713,22.43697 -9.81987,44.17056 -16.66788,65.67411 -0.45729,1.49435 -0.91404,2.98868 -1.37134,4.48308 0,0 -6.7182,3.5616 -6.7182,3.5616 l 0,0 c -0.17148,-1.19957 -0.34297,-2.39933 -0.52022,-3.59896 0.18864,-2.16388 0.2401,-4.34426 0.56022,-6.49172 0.84254,-5.70866 3.12329,-15.47075 4.43063,-20.75658 0.97576,-3.94584 5.7076,-21.74822 6.75024,-25.60613 1.07582,-3.98301 2.18306,-7.95693 3.27481,-11.93538 2.67746,-10.9608 5.37784,-21.94436 7.22704,-33.09468 0,0 4.57008,-2.49666 4.57008,-2.49666 z"
     inkscape:connector-curvature="0"
     inkscape:export-filename="/home/sade/Desktop/net-game/images/buildings/cpu.png"
     inkscape:export-xdpi="90"
     inkscape:export-ydpi="90" />
  <path
     style="fill:#000000;fill-opacity:1"
     id="path3530-4"
     d="m 288.30028,328.02302 c -0.54307,-3.11417 1.06268,-5.65895 2.85008,-7.68517 2.17964,-1.81552 4.29005,-3.75504 6.53937,-5.44643 1.01804,-0.76559 4.11855,-1.91111 5.10343,-2.23957 2.17386,-0.72469 6.69657,-1.97192 8.75839,-2.33343 1.9166,-0.33561 3.85439,-0.46122 5.78132,-0.69177 9.69475,-1.32222 19.42602,0.2422 28.76453,3.43509 5.67565,1.94067 9.30314,3.78743 14.78384,6.32274 8.04445,4.05071 15.45778,9.53624 23.04662,14.61183 0,0 -5.43266,5.30805 -5.43266,5.30805 l 0,0 c -8.80531,-3.12156 -16.99262,-8.17711 -25.53892,-12.13114 -13.69543,-6.10444 -27.18567,-11.79378 -42.07586,-10.6174 -4.38774,0.22159 -8.70974,0.50503 -13.01519,1.62697 -0.86371,0.22482 -1.71946,0.50632 -2.55516,0.85068 -0.68882,0.28344 -2.40821,1.75239 -2.00755,1.02926 0.73573,-1.32654 2.07214,-2.0089 3.10795,-3.01348 -0.46875,0.43352 -0.96718,0.82119 -1.40109,1.30071 -1.46159,1.61498 -2.19732,4.05669 -2.44996,6.34619 0,0 -4.25914,3.32712 -4.25914,3.32712 z"
     inkscape:connector-curvature="0"
     inkscape:export-filename="/home/sade/Desktop/net-game/images/buildings/cpu.png"
     inkscape:export-xdpi="90"
     inkscape:export-ydpi="90" />
  <path
     style="fill:#000000;fill-opacity:1"
     id="path3538-5"
     d="m 382.60002,332.44656 c 0.94084,7.4161 1.321,14.90396 1.52794,22.39992 0.3772,18.20054 -1.16729,36.38664 -3.83617,54.26406 -0.52022,3.47199 -1.14094,6.91835 -1.71202,10.37752 -1.90925,8.18517 -3.39831,18.22385 -7.68487,25.18053 -0.48013,0.78331 -1.1215,1.395 -1.68226,2.09238 0,0 -5.67792,2.96664 -5.67792,2.96664 l 0,0 c 0.3315,-0.49987 0.72935,-0.93822 0.98722,-1.49962 1.11923,-2.43939 1.71772,-5.26387 2.23156,-7.95996 0.82827,-4.34458 1.65828,-10.7206 2.2522,-14.95019 2.51229,-21.74475 5.2463,-43.46262 6.95551,-65.33651 0.79624,-8.20571 1.29869,-16.44234 2.09727,-24.64613 0,0 4.54154,-2.88864 4.54154,-2.88864 z"
     inkscape:connector-curvature="0"
     inkscape:export-filename="/home/sade/Desktop/net-game/images/buildings/cpu.png"
     inkscape:export-xdpi="90"
     inkscape:export-ydpi="90" />
  <path
     style="fill:#000000;fill-opacity:1"
     id="path3540-5"
     d="m 269.9701,418.93717 c 1.72516,3.08917 4.12425,4.95776 6.41935,6.94482 6.49875,4.99906 13.62916,7.87171 20.63203,10.87063 1.59884,0.58298 3.19366,1.19035 4.79705,1.7493 4.79022,1.67013 6.52623,2.26167 11.53871,3.31958 7.1733,1.51425 14.3986,2.23584 21.62162,2.97727 10.18051,0.95092 20.41485,1.68656 30.59597,0.40454 -1.4896,2.31507 4.71074,-2.58131 3.56061,-1.83214 -1.06549,0.69377 -1.99434,1.92986 -3.13361,2.27855 -0.43444,0.13334 0.58709,-1.00246 0.81627,-1.56913 0.18295,-0.44963 0.26865,-0.96901 0.40582,-1.4535 0,0 4.114,-2.89797 4.114,-2.89797 l 0,0 c -0.0569,0.51083 -0.0569,1.04812 -0.17717,1.53241 -0.93637,3.65043 -4.14718,5.16345 -6.03122,6.88414 -1.77313,1.61918 -2.25729,1.54645 -4.37286,2.4039 -10.93454,2.93444 -22.08975,3.27114 -33.16093,2.08478 -5.90535,-0.73577 -8.57082,-0.92509 -14.39965,-2.20782 -5.92084,-1.30282 -11.62852,-3.42258 -17.38585,-5.78628 -1.56338,-0.6416 -3.12678,-1.28131 -4.69017,-1.92194 -6.60791,-3.34574 -13.32619,-6.76381 -19.14584,-12.63223 -2.07556,-2.25987 -4.52324,-4.47328 -5.52474,-8.17325 0,0 3.52008,-2.97559 3.52008,-2.97559 z"
     inkscape:connector-curvature="0"
     inkscape:export-filename="/home/sade/Desktop/net-game/images/buildings/cpu.png"
     inkscape:export-xdpi="90"
     inkscape:export-ydpi="90" />
  <flowRoot
     xml:space="preserve"
     id="flowRoot2987"
     style="font-size:28px;font-style:normal;font-weight:normal;line-height:125%;letter-spacing:0px;word-spacing:0px;fill:#000000;fill-opacity:1;stroke:none;font-family:Sans"
     transform="translate(1332.8037,61.80228)"
     inkscape:export-filename="C:\Users\Sade\Desktop\overview_text.png"
     inkscape:export-xdpi="90"
     inkscape:export-ydpi="90"><flowRegion
       id="flowRegion2989"><rect
         id="rect2991"
         width="1483.3972"
         height="596.16437"
         x="-981.91779"
         y="42.082191" /></flowRegion><flowPara
       id="flowPara2993"
       style="font-size:56px;font-style:normal;font-variant:normal;font-weight:normal;font-stretch:normal;font-family:Hand Of Sean;-inkscape-font-specification:Hand Of Sean">Resources</flowPara></flowRoot>  <flowRoot
     xml:space="preserve"
     id="flowRoot2987-9-2-3-3-5-8"
     style="font-size:28px;font-style:normal;font-weight:normal;line-height:125%;letter-spacing:0px;word-spacing:0px;fill:#00000a;fill-opacity:1;stroke:none;font-family:Sans"
     transform="matrix(1.0133026,0,0,1.2148972,1424.2485,318.94216)"
     inkscape:export-filename="C:\Users\Sade\Desktop\utility_troop_panel.png"
     inkscape:export-xdpi="90"
     inkscape:export-ydpi="90"><flowRegion
       id="flowRegion2989-4-79-1-4-2-5"><rect
         id="rect2991-8-5-2-1-7-7"
         width="350.92526"
         height="143.22664"
         x="-981.91779"
         y="42.082191"
         style="fill:#00000a;fill-opacity:1" /></flowRegion><flowPara
       style="font-size:14.42051029px;font-style:normal;font-variant:normal;font-weight:normal;font-stretch:normal;line-height:127.99999714%;fill:#00000a;fill-opacity:1;font-family:Hand Of Sean;-inkscape-font-specification:Hand Of Sean"
       id="flowPara3210">A CPU is a part of a computer that executes actions of a computer program. Use CPUs to enable cores. Cores will allow you to do more work and build more troops in an allotted amount of time.</flowPara></flowRoot>  <flowRoot
     xml:space="preserve"
     id="flowRoot2987-9"
     style="font-size:28px;font-style:normal;font-weight:normal;line-height:125%;letter-spacing:0px;word-spacing:0px;fill:#000000;fill-opacity:1;stroke:none;font-family:Sans"
     transform="matrix(1.1633586,0,0,1.3375709,1580.2821,253.07971)"
     inkscape:export-filename="C:\Users\Sade\Desktop\utility_troop_panel.png"
     inkscape:export-xdpi="90"
     inkscape:export-ydpi="90"><flowRegion
       id="flowRegion2989-4"><rect
         id="rect2991-8"
         width="1483.3972"
         height="596.16437"
         x="-981.91779"
         y="42.082191" /></flowRegion><flowPara
       id="flowPara2993-8"
       style="font-size:28px;font-style:normal;font-variant:normal;font-weight:normal;font-stretch:normal;font-family:Hand Of Sean;-inkscape-font-specification:Hand Of Sean">CPU</flowPara></flowRoot></svg>
