<?xml version="1.0" encoding="UTF-8" standalone="no"?>
<!-- Created with Inkscape (http://www.inkscape.org/) -->

<svg
   xmlns:dc="http://purl.org/dc/elements/1.1/"
   xmlns:cc="http://creativecommons.org/ns#"
   xmlns:rdf="http://www.w3.org/1999/02/22-rdf-syntax-ns#"
   xmlns:svg="http://www.w3.org/2000/svg"
   xmlns="http://www.w3.org/2000/svg"
   xmlns:sodipodi="http://sodipodi.sourceforge.net/DTD/sodipodi-0.dtd"
   xmlns:inkscape="http://www.inkscape.org/namespaces/inkscape"
   width="28.999964"
   height="28.99988"
   id="svg4265"
   version="1.1"
   inkscape:version="0.48.3.1 r9886"
   sodipodi:docname="server.svg"
   inkscape:export-filename="/home/sade/Desktop/net-game/images/buildings/server.png"
   inkscape:export-xdpi="90"
   inkscape:export-ydpi="90">
  <defs
     id="defs4267" />
  <sodipodi:namedview
     id="base"
     pagecolor="#ffffff"
     bordercolor="#666666"
     borderopacity="1.0"
     inkscape:pageopacity="0.0"
     inkscape:pageshadow="2"
     inkscape:zoom="8"
     inkscape:cx="1.3670285"
     inkscape:cy="3.4990504"
     inkscape:document-units="px"
     inkscape:current-layer="layer1"
     showgrid="false"
     fit-margin-top="0"
     fit-margin-left="0"
     fit-margin-right="0"
     fit-margin-bottom="0"
     inkscape:window-width="1311"
     inkscape:window-height="744"
     inkscape:window-x="55"
     inkscape:window-y="24"
     inkscape:window-maximized="1"
     width="372.05px" />
  <metadata
     id="metadata4270">
    <rdf:RDF>
      <cc:Work
         rdf:about="">
        <dc:format>image/svg+xml</dc:format>
        <dc:type
           rdf:resource="http://purl.org/dc/dcmitype/StillImage" />
        <dc:title />
      </cc:Work>
    </rdf:RDF>
  </metadata>
  <g
     inkscape:label="Layer 1"
     inkscape:groupmode="layer"
     id="layer1"
     transform="translate(-77.587805,-439.21144)">
    <path
       style="fill:#0044aa;fill-opacity:1"
       d=""
       id="path3010"
       inkscape:connector-curvature="0"
       transform="translate(77.587805,439.21144)"
       inkscape:export-filename="/home/sade/Desktop/net-game/images/buildings/server.png"
       inkscape:export-xdpi="90"
       inkscape:export-ydpi="90" />
    <path
       sodipodi:type="arc"
       style="fill:#000000;fill-opacity:1"
       id="path3003"
       sodipodi:cx="14.6875"
       sodipodi:cy="16.12488"
       sodipodi:rx="14.1875"
       sodipodi:ry="14.625"
       d="M 28.875,16.12488 A 14.1875,14.625 0 1 1 28.716289,13.943438"
       transform="matrix(0.92070484,0,0,0.91025641,78.689953,438.90854)"
       sodipodi:start="0"
       sodipodi:end="6.1334682"
       sodipodi:open="true" />
    <path
       sodipodi:type="arc"
       style="fill:#ffffff;fill-opacity:1"
       id="path3848"
       sodipodi:cx="-45.4375"
       sodipodi:cy="19.81238"
       sodipodi:rx="9.8125"
       sodipodi:ry="11.6875"
       d="m -35.625,19.81238 a 9.8125,11.6875 0 1 1 -0.109769,-1.743289"
       transform="matrix(1.2383351,0,0,1.0510209,148.54041,432.70257)"
       sodipodi:start="0"
       sodipodi:end="6.1334682"
       sodipodi:open="true" />
    <path
       style="fill:#000000;fill-opacity:1"
       id="path3969"
       d="m 83.683511,446.71741 c 0.139252,0.47502 0.218668,0.96604 0.29807,1.45927 0.160032,0.99409 0.215665,1.32477 0.323175,2.37924 0.04896,0.48018 0.08305,0.96236 0.124563,1.44354 0.136726,1.67475 0.167799,3.35699 0.176106,5.03835 0,0 -0.627003,0.38692 -0.627003,0.38692 l 0,0 c -0.114726,-1.64882 -0.222994,-3.29825 -0.311559,-4.94943 -0.03689,-0.57497 -0.14242,-2.22183 -0.181391,-2.82168 -0.04097,-0.63073 -0.07466,-1.26218 -0.12209,-1.89225 -0.01975,-0.26247 -0.05396,-0.52318 -0.07076,-0.78603 0,0 0.390891,-0.25793 0.390891,-0.25793 z"
       inkscape:connector-curvature="0"
       inkscape:export-filename="/home/sade/Desktop/net-game/images/buildings/server.png"
       inkscape:export-xdpi="90"
       inkscape:export-ydpi="90" />
    <path
       style="fill:#000000;fill-opacity:1"
       id="path3981"
       d="m 94.92859,450.74986 c 0.0077,0.045 0.01256,0.0908 0.023,0.135 0.02202,0.0934 0.05276,0.1837 0.07415,0.27732 0.238927,1.04629 0.37812,2.12417 0.516039,3.19403 0.277181,2.37471 0.461179,4.7647 0.554064,7.15972 0.02213,0.92311 0.0073,0.48885 0.04143,1.3029 0,0 -0.515498,0.32241 -0.515498,0.32241 l 0,0 c -0.09728,-0.77695 -0.05025,-0.3622 -0.137082,-1.24488 -0.224619,-2.36802 -0.439257,-4.73739 -0.62744,-7.11001 -0.09835,-1.40481 -0.0546,-0.87609 -0.166337,-2.14379 -0.03514,-0.39873 -0.06738,-0.79787 -0.106602,-1.19607 -0.01018,-0.10335 -0.02695,-0.20575 -0.03544,-0.30933 -0.0045,-0.0541 -0.0024,-0.1086 -0.0034,-0.16291 0,0 0.383095,-0.22439 0.383095,-0.22439 z"
       inkscape:connector-curvature="0"
       inkscape:export-filename="/home/sade/Desktop/net-game/images/buildings/server.png"
       inkscape:export-xdpi="90"
       inkscape:export-ydpi="90" />
    <path
       style="fill:#000000;fill-opacity:1"
       id="path3985"
       d="m 84.32641,456.99388 c 0.05324,0.0246 0.107765,0.0447 0.159686,0.0736 0.391307,0.21779 0.765256,0.4854 1.156994,0.70368 0.618521,0.34464 0.961804,0.5031 1.617322,0.82784 2.260844,0.99025 4.507591,2.03292 6.744509,3.11113 0.751006,0.30277 1.468352,0.75084 2.233939,0.99083 0,0 -0.415612,0.37757 -0.415612,0.37757 l 0,0 c -0.830836,-0.17003 -1.626767,-0.55188 -2.440352,-0.8189 -2.285066,-0.90786 -4.559376,-1.88841 -6.758978,-3.10738 -0.518479,-0.31571 -0.994187,-0.59271 -1.496051,-0.94009 -0.356116,-0.2465 -0.68885,-0.53443 -1.032544,-0.80671 -0.0457,-0.0362 -0.09338,-0.068 -0.14007,-0.10197 0,0 0.371157,-0.3096 0.371157,-0.3096 z"
       inkscape:connector-curvature="0"
       inkscape:export-filename="/home/sade/Desktop/net-game/images/buildings/server.png"
       inkscape:export-xdpi="90"
       inkscape:export-ydpi="90" />
    <path
       style="fill:#000000;fill-opacity:1"
       id="path3987"
       d="m 83.565934,446.95423 c 0.04543,-0.0181 0.08963,-0.0473 0.136295,-0.0543 0.351215,-0.0519 0.929007,0.16226 1.250082,0.28031 0.50836,0.18689 1.396568,0.57847 1.866293,0.78051 1.928356,0.8321 3.865598,1.6274 5.825585,2.2587 0.300037,0.0966 0.601666,0.18083 0.902499,0.27124 0.949787,0.26255 0.500531,0.13465 1.348023,0.38149 0,0 -0.477473,0.52553 -0.477473,0.52553 l 0,0 c -0.910656,-0.17301 -0.429877,-0.0799 -1.442231,-0.28066 -0.313867,-0.0774 -0.628535,-0.14727 -0.941601,-0.23225 -1.974244,-0.53586 -3.927007,-1.28154 -5.828973,-2.26923 -0.146554,-0.0795 -1.474154,-0.80273 -1.721722,-0.92877 -0.179715,-0.0915 -0.360664,-0.1773 -0.542677,-0.2569 -0.218034,-0.0953 -0.43934,-0.20982 -0.664667,-0.11654 0,0 0.290567,-0.3592 0.290567,-0.3592 z"
       inkscape:connector-curvature="0"
       inkscape:export-filename="/home/sade/Desktop/net-game/images/buildings/server.png"
       inkscape:export-xdpi="90"
       inkscape:export-ydpi="90" />
    <path
       style="fill:#000000;fill-opacity:1"
       id="path3987-5"
       d="m 83.853289,446.6573 c 0.04542,-0.0181 0.08962,-0.0473 0.136298,-0.0543 0.351211,-0.0519 0.929003,0.16226 1.250079,0.28029 0.508359,0.18691 1.396568,0.57849 1.866291,0.78053 1.928359,0.83209 3.865599,1.62739 5.825587,2.2587 0.300038,0.0966 0.601666,0.18082 0.902497,0.27123 0.949787,0.26255 0.500531,0.13466 1.348023,0.3815 0,0 -0.477472,0.52552 -0.477472,0.52552 l 0,0 c -0.910657,-0.17301 -0.429878,-0.0799 -1.442232,-0.28065 -0.313865,-0.0774 -0.628532,-0.14727 -0.941596,-0.23225 -1.974252,-0.53586 -3.927009,-1.28155 -5.828977,-2.26923 -0.146553,-0.0795 -1.474154,-0.80273 -1.721722,-0.92878 -0.179717,-0.0915 -0.360663,-0.17729 -0.542677,-0.25689 -0.218032,-0.0954 -0.439338,-0.20983 -0.664666,-0.11654 0,0 0.290567,-0.3592 0.290567,-0.3592 z"
       inkscape:connector-curvature="0"
       inkscape:export-filename="/home/sade/Desktop/net-game/images/buildings/server.png"
       inkscape:export-xdpi="90"
       inkscape:export-ydpi="90" />
    <path
       style="fill:#000000;fill-opacity:1"
       id="path3987-5-7"
       d="m 87.905901,444.73316 c 0.04636,-0.0179 0.09146,-0.0468 0.139087,-0.0535 0.358403,-0.0512 0.948033,0.16021 1.275682,0.27676 0.518769,0.18453 1.425167,0.57118 1.904512,0.77067 1.967855,0.82158 3.944771,1.60685 5.944898,2.23019 0.306189,0.0954 0.613994,0.17855 0.920983,0.26781 0.969243,0.25924 0.510784,0.13296 1.375632,0.37668 0,0 -0.487252,0.51889 -0.487252,0.51889 l 0,0 c -0.92931,-0.17081 -0.438684,-0.0788 -1.471768,-0.2771 -0.320297,-0.0765 -0.641406,-0.14541 -0.960882,-0.22932 -2.014684,-0.5291 -4.007437,-1.26537 -5.948359,-2.24059 -0.149554,-0.0786 -1.504346,-0.7926 -1.756982,-0.91706 -0.183398,-0.0903 -0.368051,-0.17505 -0.553791,-0.25365 -0.222499,-0.0942 -0.448334,-0.20718 -0.678278,-0.11507 0,0 0.296518,-0.35467 0.296518,-0.35467 z"
       inkscape:connector-curvature="0"
       inkscape:export-filename="/home/sade/Desktop/net-game/images/buildings/server.png"
       inkscape:export-xdpi="90"
       inkscape:export-ydpi="90" />
    <path
       style="fill:#000000;fill-opacity:1"
       id="path3981-1"
       d="m 99.433139,448.60054 c 0.008,0.045 0.01249,0.0908 0.02301,0.135 0.02202,0.0934 0.05279,0.18371 0.07419,0.27734 0.238936,1.04628 0.378124,2.12416 0.516041,3.19403 0.27718,2.3747 0.46119,4.76469 0.55407,7.15972 0.0221,0.9231 0.007,0.48884 0.0414,1.3029 0,0 -0.51551,0.3224 -0.51551,0.3224 l 0,0 c -0.0973,-0.77695 -0.0503,-0.36221 -0.137072,-1.24487 -0.224624,-2.36802 -0.439261,-4.7374 -0.62744,-7.11 -0.09836,-1.40484 -0.05459,-0.8761 -0.166336,-2.1438 -0.03513,-0.39874 -0.06738,-0.79788 -0.106608,-1.19608 -0.01023,-0.10336 -0.02692,-0.20576 -0.0354,-0.30933 -0.004,-0.0541 -0.0027,-0.10861 -0.0034,-0.16291 0,0 0.383088,-0.2244 0.383088,-0.2244 z"
       inkscape:connector-curvature="0"
       inkscape:export-filename="/home/sade/Desktop/net-game/images/buildings/server.png"
       inkscape:export-xdpi="90"
       inkscape:export-ydpi="90" />
    <path
       style="fill:#000000;fill-opacity:1"
       id="path4104"
       d="m 94.904702,450.72661 c 0.334262,-0.0169 0.647893,-0.12993 0.952822,-0.27153 0.479673,-0.26185 0.963188,-0.51826 1.454993,-0.75207 0.499987,-0.23629 0.988755,-0.50477 1.50985,-0.68317 0.20652,-0.0785 0.43515,-0.0986 0.634599,-0.19818 -0.270357,0.16993 -0.540705,0.33988 -0.811046,0.50982 0.004,0.0222 0.02753,0.0487 0.01413,0.0663 -0.01629,0.0216 -0.05082,0.009 -0.07605,0.015 -0.138734,0.0325 -0.275746,0.0618 -0.416136,0.0857 -0.29443,0.0354 -0.566373,0.14451 -0.839501,0.26069 -0.207799,0.0729 -0.417636,0.15687 -0.602603,0.28391 -0.296681,0.14804 -0.602087,0.27608 -0.896037,0.43071 -0.128756,0.0753 -0.274082,0.094 -0.411798,0.13752 -0.124227,0.0393 -0.248469,0.094 -0.37063,0.14074 -0.112355,0.0294 -0.214862,0.0868 -0.324353,0.12536 -0.03167,0.0113 -0.06529,0.0162 -0.09586,0.0306 -0.05178,0.0243 -0.09645,0.0636 -0.144916,0.0949 -0.429543,0.24117 0.965203,-0.61426 0.725432,-0.45789 -0.30182,0.19687 -0.609711,0.38252 -0.914548,0.5738 -0.01491,0.009 -0.05958,0.0375 -0.0447,0.0281 0.809192,-0.51159 1.103375,-0.42949 0.778769,-0.51321 -0.0045,-0.0148 -0.01838,-0.03 -0.0131,-0.0446 0.0048,-0.0133 0.02299,-0.0148 0.03582,-0.0176 0.04603,-0.01 0.0946,0.003 0.140682,-0.007 0.05388,-0.0114 0.103422,-0.04 0.155591,-0.0586 0.210723,-0.0959 0.425257,-0.17531 0.622935,-0.30157 0.237134,-0.1306 0.475184,-0.26678 0.728072,-0.35797 0.03742,-0.01 0.07584,-0.0156 0.112366,-0.0286 0.100207,-0.0359 0.195521,-0.0955 0.294845,-0.13498 0.163955,-0.0562 0.08503,-0.0263 0.23703,-0.0888 0.221435,-0.056 0.422241,-0.16998 0.642027,-0.23218 0.216044,-0.0721 0.430486,-0.15238 0.640217,-0.24461 0.124519,-0.0453 0.244569,-0.0901 0.359994,-0.1585 0,0 -0.800569,0.69322 -0.800569,0.69322 l 0,0 c -0.121195,0.0533 -0.245309,0.0976 -0.365696,0.15322 -0.212228,0.087 -0.425411,0.17057 -0.644349,0.23574 -0.217086,0.0769 -0.425944,0.1794 -0.646522,0.24552 -0.213158,0.0828 -0.423434,0.17384 -0.639021,0.24882 -0.251246,0.11398 -0.494737,0.24853 -0.736602,0.38408 -0.194816,0.10057 -0.39913,0.18052 -0.603912,0.25385 -0.141854,0.0336 -0.301066,0.0569 -0.381464,-0.10157 -0.111554,-0.38756 -0.0239,-0.0354 0.847466,-0.59749 0.242665,-0.15652 1.160512,-0.63988 -0.731227,0.46353 0.649241,-0.42006 0.626522,-0.40562 0.98255,-0.62194 0.192431,-0.11263 0.405002,-0.17942 0.609113,-0.26234 0.26289,-0.0949 0.53202,-0.17269 0.78456,-0.29714 0.286413,-0.14785 0.582353,-0.27183 0.86981,-0.41722 0.198274,-0.1069 0.405656,-0.19193 0.6133,-0.27477 0.28142,-0.12655 0.568817,-0.22842 0.874817,-0.25498 0.118993,-0.0154 0.264048,-0.0541 0.383616,-0.0188 0.01231,0.004 0.185317,0.10061 0.13522,0.14239 -0.263303,0.21951 -0.569545,0.37034 -0.85431,0.55552 -0.240161,0.10559 -0.495169,0.17074 -0.736096,0.27508 -0.529967,0.22005 -1.038017,0.49595 -1.559438,0.73829 -0.464544,0.22665 -0.928095,0.45548 -1.389504,0.68964 -0.282448,0.11204 -0.578185,0.21585 -0.88258,0.16046 0,0 0.791893,-0.62533 0.791893,-0.62533 z"
       inkscape:connector-curvature="0"
       inkscape:export-filename="/home/sade/Desktop/net-game/images/buildings/server.png"
       inkscape:export-xdpi="90"
       inkscape:export-ydpi="90" />
    <path
       style="fill:#000000;fill-opacity:1"
       id="path4104-5"
       d="m 96.399048,462.32183 c 0.315328,-0.0175 0.611188,-0.13511 0.898843,-0.28236 0.452495,-0.2723 0.908632,-0.53892 1.372563,-0.78205 0.471671,-0.2457 0.932745,-0.52489 1.424316,-0.7104 0.19483,-0.0816 0.4105,-0.10254 0.59864,-0.20609 -0.25502,0.17672 -0.51005,0.35344 -0.765081,0.53016 0.0036,0.023 0.02595,0.0507 0.01329,0.0689 -0.01552,0.0225 -0.04797,0.009 -0.07178,0.0156 -0.130886,0.0338 -0.260123,0.0642 -0.39257,0.0892 -0.277749,0.0369 -0.534286,0.15024 -0.791939,0.27106 -0.196027,0.0759 -0.393972,0.16313 -0.568467,0.29523 -0.279871,0.15396 -0.567982,0.28709 -0.845275,0.44788 -0.121457,0.0783 -0.258554,0.0977 -0.388471,0.14299 -0.11719,0.0409 -0.234392,0.0977 -0.349636,0.14636 -0.105987,0.0306 -0.202686,0.0902 -0.305977,0.13037 -0.02987,0.0116 -0.06159,0.0168 -0.09042,0.0317 -0.04885,0.0252 -0.09098,0.0661 -0.136707,0.0986 -0.40521,0.25077 0.910521,-0.63875 0.68434,-0.47613 -0.284724,0.20471 -0.575174,0.39776 -0.862743,0.59667 -0.01409,0.01 -0.05621,0.039 -0.04218,0.0292 0.763354,-0.53196 1.040872,-0.4466 0.734653,-0.53366 -0.0042,-0.0154 -0.01734,-0.0313 -0.01236,-0.0463 0.0045,-0.0137 0.02168,-0.0154 0.0338,-0.0183 0.04342,-0.0104 0.08924,0.004 0.132713,-0.007 0.05083,-0.0118 0.09756,-0.0416 0.146773,-0.061 0.198787,-0.0997 0.401172,-0.1823 0.587647,-0.3136 0.223704,-0.1358 0.448269,-0.27741 0.686827,-0.37223 0.03527,-0.01 0.07155,-0.0161 0.10601,-0.0297 0.09452,-0.0373 0.184436,-0.0994 0.278129,-0.14037 0.154672,-0.0585 0.08022,-0.0274 0.223602,-0.0923 0.208896,-0.0583 0.398326,-0.17677 0.605661,-0.24145 0.20379,-0.075 0.406095,-0.15843 0.60394,-0.25435 0.117461,-0.047 0.230721,-0.0937 0.339601,-0.16482 0,0 -0.755213,0.72086 -0.755213,0.72086 l 0,0 c -0.114327,0.0554 -0.231412,0.10152 -0.34498,0.15931 -0.200206,0.0905 -0.401315,0.17738 -0.607841,0.24514 -0.204791,0.08 -0.401813,0.18657 -0.609895,0.25532 -0.201081,0.0861 -0.399444,0.18075 -0.60282,0.25873 -0.237017,0.11854 -0.466707,0.25844 -0.694876,0.39939 -0.183781,0.10458 -0.376521,0.18772 -0.569705,0.26397 -0.133813,0.0351 -0.284009,0.0591 -0.359851,-0.10562 -0.105235,-0.40301 -0.02255,-0.0368 0.799462,-0.62131 0.228913,-0.16276 1.094772,-0.66538 -0.689808,0.48202 0.612461,-0.43681 0.591029,-0.4218 0.926887,-0.64674 0.181528,-0.11712 0.382064,-0.18656 0.574611,-0.2728 0.247995,-0.0987 0.501886,-0.17958 0.740114,-0.30897 0.270193,-0.15375 0.549365,-0.28268 0.82054,-0.43386 0.187035,-0.11116 0.382671,-0.19959 0.578552,-0.28572 0.265456,-0.13159 0.536592,-0.23753 0.825253,-0.26515 0.11226,-0.0161 0.24909,-0.0562 0.36189,-0.0195 0.0117,0.004 0.17483,0.10463 0.12756,0.14808 -0.2484,0.22827 -0.53729,0.38511 -0.805906,0.57766 -0.226568,0.1098 -0.467136,0.17755 -0.694407,0.28604 -0.49994,0.22882 -0.979211,0.51573 -1.471088,0.76772 -0.438227,0.23569 -0.875524,0.47363 -1.310797,0.71713 -0.266445,0.11651 -0.545427,0.22447 -0.832578,0.16688 0,0 0.747029,-0.65027 0.747029,-0.65027 z"
       inkscape:connector-curvature="0"
       inkscape:transform-center-x="1.4962701"
       inkscape:transform-center-y="-5.0518171"
       inkscape:export-filename="/home/sade/Desktop/net-game/images/buildings/server.png"
       inkscape:export-xdpi="90"
       inkscape:export-ydpi="90" />
    <path
       style="fill:#000000;fill-opacity:1"
       id="path4104-5-2"
       d="m 84.359895,446.55631 c 0.286036,-0.0165 0.554414,-0.12656 0.815345,-0.26449 0.410467,-0.25505 0.824221,-0.5048 1.245063,-0.73254 0.427849,-0.23015 0.846094,-0.49167 1.291998,-0.66542 0.176728,-0.0765 0.37237,-0.0961 0.543038,-0.19305 -0.231343,0.16552 -0.46268,0.33106 -0.694019,0.49659 0.004,0.0215 0.02352,0.0476 0.01212,0.0646 -0.01404,0.0211 -0.04352,0.009 -0.06507,0.0146 -0.118727,0.0317 -0.235965,0.0602 -0.3561,0.0835 -0.251947,0.0345 -0.484655,0.14074 -0.718373,0.25391 -0.177821,0.0711 -0.357374,0.15281 -0.515658,0.27654 -0.253875,0.14421 -0.515216,0.26891 -0.766756,0.41953 -0.110175,0.0734 -0.234533,0.0915 -0.35238,0.13393 -0.106303,0.0383 -0.212619,0.0915 -0.317155,0.13709 -0.09614,0.0287 -0.183861,0.0846 -0.277555,0.12212 -0.02711,0.0109 -0.05587,0.0158 -0.08203,0.0297 -0.04431,0.0236 -0.08253,0.0618 -0.124006,0.0924 -0.367568,0.23491 0.825938,-0.59832 0.620763,-0.44599 -0.258272,0.19175 -0.521742,0.37258 -0.782594,0.5589 -0.01278,0.009 -0.05099,0.0366 -0.03825,0.0274 0.692441,-0.4983 0.944178,-0.41833 0.666407,-0.49988 -0.0037,-0.0145 -0.01574,-0.0292 -0.01122,-0.0434 0.0042,-0.0129 0.01967,-0.0145 0.03066,-0.0171 0.0394,-0.01 0.08095,0.004 0.120385,-0.007 0.04611,-0.0111 0.0885,-0.039 0.133139,-0.0571 0.180321,-0.0934 0.363901,-0.17074 0.53306,-0.29375 0.20292,-0.1272 0.406621,-0.25984 0.62302,-0.34865 0.03205,-0.009 0.0649,-0.0151 0.09616,-0.0278 0.08575,-0.035 0.16731,-0.0931 0.252301,-0.13148 0.140299,-0.0547 0.07276,-0.0256 0.202827,-0.0864 0.189488,-0.0546 0.361328,-0.16558 0.549397,-0.22616 0.184867,-0.0702 0.368373,-0.14841 0.547838,-0.23825 0.106553,-0.044 0.209284,-0.0877 0.308057,-0.15439 0,0 -0.68506,0.67523 -0.68506,0.67523 l 0,0 c -0.103704,0.0519 -0.209914,0.0951 -0.312932,0.14922 -0.181607,0.0847 -0.364032,0.16615 -0.551381,0.22962 -0.185766,0.075 -0.364484,0.17476 -0.553241,0.23916 -0.1824,0.0807 -0.362335,0.16932 -0.546818,0.24235 -0.214996,0.11103 -0.423354,0.24208 -0.630319,0.37411 -0.166711,0.0979 -0.341545,0.17582 -0.516783,0.24725 -0.121385,0.0329 -0.257626,0.0554 -0.326424,-0.0989 -0.09546,-0.3775 -0.02046,-0.0345 0.725196,-0.58198 0.207648,-0.15246 0.993064,-0.62326 -0.625729,0.45151 0.555566,-0.40916 0.536125,-0.39509 0.840785,-0.60579 0.164666,-0.10971 0.346568,-0.17477 0.521229,-0.25554 0.224958,-0.0924 0.455263,-0.16821 0.671361,-0.28942 0.245091,-0.14401 0.498331,-0.26477 0.744317,-0.40639 0.169661,-0.10412 0.347119,-0.18695 0.52481,-0.26762 0.2408,-0.12327 0.486743,-0.2225 0.748584,-0.24836 0.10183,-0.0151 0.225957,-0.0527 0.328271,-0.0182 0.01056,0.004 0.158589,0.098 0.115712,0.13871 -0.225315,0.21382 -0.487364,0.36073 -0.731043,0.54109 -0.205513,0.10285 -0.423734,0.16631 -0.629896,0.26794 -0.453497,0.21433 -0.888248,0.48307 -1.334435,0.71912 -0.397519,0.22077 -0.794187,0.44364 -1.189021,0.67172 -0.241694,0.10914 -0.494762,0.21027 -0.75524,0.15632 0,0 0.677636,-0.60911 0.677636,-0.60911 z"
       inkscape:connector-curvature="0"
       inkscape:transform-center-x="1.357237"
       inkscape:transform-center-y="-4.7321564"
       inkscape:export-filename="/home/sade/Desktop/net-game/images/buildings/server.png"
       inkscape:export-xdpi="90"
       inkscape:export-ydpi="90" />
    <path
       style="fill:#2c5aa0;fill-opacity:1"
       d="m 96.123666,461.85417 c -0.0021,-0.22723 -0.02577,-0.82928 -0.05258,-1.33787 l -0.04874,-0.92474 0.504807,-8.8e-4 c 0.441639,-8.8e-4 0.546917,-0.0152 0.841347,-0.11309 0.59323,-0.19732 1.844329,-1.07299 2.22561,-1.55776 0.112963,-0.14361 0.193253,-0.21667 0.193253,-0.17583 0,0.12025 0.208698,2.32346 0.233167,2.46152 0.0182,0.10266 0.007,0.13667 -0.05234,0.15634 -0.287178,0.0955 -0.833898,0.34879 -1.382476,0.64058 -0.353022,0.18778 -0.875429,0.43665 -1.160894,0.55306 -0.285471,0.11641 -0.694141,0.32426 -0.908158,0.46188 l -0.389122,0.25022 -0.0038,-0.41313 z"
       id="path3014"
       inkscape:connector-curvature="0"
       inkscape:export-filename="/home/sade/Desktop/net-game/images/buildings/server.png"
       inkscape:export-xdpi="90"
       inkscape:export-ydpi="90" />
    <path
       style="fill:#2c5aa0;fill-opacity:1"
       d="m 93.03556,461.22583 c -1.341945,-0.63371 -2.685993,-1.2656 -2.986774,-1.4042 -0.349977,-0.16126 -0.493863,-0.24384 -0.399639,-0.22936 0.616205,0.0947 0.90518,0.10494 2.341326,0.0828 0.852442,-0.0131 1.932111,-0.0341 2.399263,-0.0466 l 0.849369,-0.0228 0.02218,0.13365 c 0.03751,0.22602 0.242245,2.56629 0.227778,2.60361 -0.0075,0.0193 -1.111556,-0.48339 -2.453501,-1.11713 z"
       id="path3016"
       inkscape:connector-curvature="0"
       inkscape:export-filename="/home/sade/Desktop/net-game/images/buildings/server.png"
       inkscape:export-xdpi="90"
       inkscape:export-ydpi="90" />
    <path
       style="fill:#000000;fill-opacity:1"
       d="m 90.373069,459.6574 c -0.159092,-0.009 -0.388908,-0.0299 -0.510702,-0.0473 -0.268265,-0.0381 -0.248376,-0.0381 -0.233071,2e-5 0.01671,0.0417 -0.03364,0.0264 -0.240293,-0.0724 -0.0872,-0.0417 -0.569919,-0.25873 -1.072715,-0.48227 -1.501042,-0.66733 -2.27861,-1.05473 -2.985985,-1.4877 -0.784352,-0.48009 -0.778887,-0.47641 -0.746146,-0.50238 0.02138,-0.017 0.03101,-0.0644 0.03101,-0.1528 0,-0.0705 0.004,-0.12821 0.0088,-0.12821 0.0048,0 0.09242,0.0462 0.194561,0.10266 0.449198,0.2483 0.921508,0.45868 1.731674,0.77129 1.46126,0.56387 2.702062,0.95482 3.218145,1.01399 0.635874,0.0729 1.934241,0.11876 3.826962,0.13515 1.357747,0.0118 1.599712,0.0181 1.599712,0.0423 0,0.0156 0.015,0.18678 0.03332,0.38034 0.01833,0.19354 0.0301,0.35499 0.02614,0.35877 -0.01585,0.0152 -3.831452,0.0922 -4.318771,0.0872 -0.15039,-8.8e-4 -0.403603,-0.01 -0.562695,-0.0187 z"
       id="path3134"
       inkscape:connector-curvature="0"
       inkscape:export-filename="/home/sade/Desktop/net-game/images/buildings/server.png"
       inkscape:export-xdpi="90"
       inkscape:export-ydpi="90" />
    <path
       style="fill:#000000;fill-opacity:1"
       d="m 96.00693,459.49549 c -0.0236,-0.17635 -0.05743,-0.80537 -0.04401,-0.81824 0.0076,-0.007 0.294642,-0.0187 0.63786,-0.0253 0.679955,-0.013 0.857183,-0.0338 1.185598,-0.13903 0.400823,-0.12834 0.737906,-0.33549 1.128102,-0.69328 0.257626,-0.23622 0.61612,-0.62221 0.723466,-0.77896 0.03594,-0.0525 0.06955,-0.0915 0.07473,-0.0866 0.0053,0.005 0.02515,0.18129 0.0445,0.39198 0.0255,0.27761 0.02871,0.38307 0.01141,0.38307 -0.01302,0 -0.08694,0.0717 -0.164317,0.15927 -0.479187,0.5427 -1.486345,1.26629 -2.137519,1.53571 -0.30143,0.1247 -0.389327,0.13866 -0.939679,0.14923 l -0.508423,0.01 -0.01174,-0.0877 0,0 z"
       id="path3136"
       inkscape:connector-curvature="0"
       inkscape:export-filename="/home/sade/Desktop/net-game/images/buildings/server.png"
       inkscape:export-xdpi="90"
       inkscape:export-ydpi="90" />
    <path
       style="fill:#000000;fill-opacity:1"
       id="path3158"
       d="m 95.21014,458.78959 c -0.01656,-0.38573 -0.01504,-0.77315 -0.01685,-1.15967 -0.0013,-0.46978 -8.07e-4,-0.23032 -0.0017,-0.71835 -4.94e-4,-0.27613 0.230875,-0.2773 0.231369,-8.8e-4 l 0,0 c 8.75e-4,0.4869 3.03e-4,0.24808 0.0017,0.71645 0.0018,0.37317 4.53e-4,0.74714 0.01544,1.11962 0.01807,0.27443 -0.211887,0.31756 -0.229955,0.0431 z"
       inkscape:connector-curvature="0"
       inkscape:export-filename="/home/sade/Desktop/net-game/images/buildings/server.png"
       inkscape:export-xdpi="90"
       inkscape:export-ydpi="90" />
    <path
       style="fill:#f2f2f2;fill-opacity:1"
       d="m 92.266054,458.74666 c -1.98547,-0.0507 -2.418194,-0.0842 -2.986775,-0.23204 -0.93316,-0.2426 -2.780452,-0.90902 -3.78524,-1.36554 l -0.848696,-0.38559 -0.05503,-2.00137 c -0.06264,-2.27811 -0.231724,-4.40041 -0.476556,-5.9817 -0.09244,-0.59706 -0.168252,-1.13407 -0.168465,-1.19336 -2.49e-4,-0.0692 0.263454,0.029 0.73579,0.27375 0.404897,0.20985 1.180611,0.6112 1.723809,0.8919 1.272344,0.65746 3.029844,1.37431 4.497063,1.83427 1.257118,0.39408 3.357937,0.87652 3.534656,0.81172 0.06008,-0.022 0.109478,0.004 0.109768,0.058 2.53e-4,0.0539 0.113639,1.42765 0.251888,3.05278 0.138248,1.62515 0.276109,3.26253 0.306356,3.63861 l 0.05499,0.6838 -0.285848,-0.0129 c -0.157217,-0.007 -1.330687,-0.0396 -2.60771,-0.0721 l 0,0 z"
       id="path3164"
       inkscape:connector-curvature="0" />
    <path
       style="fill:#f2f2f2;fill-opacity:1"
       d="m 93.822038,450.14653 c -1.566807,-0.4726 -3.148282,-1.05821 -5.586277,-2.06855 -1.22626,-0.50818 -2.418866,-0.99833 -2.650236,-1.08921 -0.23137,-0.0909 -0.449884,-0.18889 -0.485587,-0.21779 -0.06256,-0.0507 1.102891,-0.70714 2.347436,-1.32231 l 0.599834,-0.29649 0.40978,0.19399 c 0.22538,0.10669 1.148062,0.5588 2.050405,1.0047 2.389675,1.18087 4.572757,1.98423 6.634445,2.44143 0.469114,0.10404 0.853069,0.20982 0.853232,0.23509 3.36e-4,0.0565 -1.640875,0.81103 -2.261873,1.03981 -0.249303,0.0918 -0.532215,0.21983 -0.628696,0.28443 -0.09648,0.0646 -0.195392,0.11396 -0.219802,0.10973 -0.02442,-0.004 -0.502606,-0.14591 -1.062661,-0.31483 l 0,0 z"
       id="path3166"
       inkscape:connector-curvature="0" />
    <path
       style="fill:#f2f2f2;fill-opacity:1"
       d="m 95.976135,458.53016 c 0,-0.0554 -0.09431,-1.07402 -0.209577,-2.26368 -0.214918,-2.21812 -0.376935,-3.47154 -0.581107,-4.49565 l -0.116097,-0.58234 1.568172,-0.74562 c 0.862496,-0.41009 1.738545,-0.81363 1.946774,-0.89675 0.208237,-0.0832 0.400904,-0.16384 0.428151,-0.17936 0.02726,-0.0155 0.09382,0.54276 0.147935,1.24063 0.05412,0.69788 0.196322,2.39957 0.31602,3.78152 l 0.217624,2.51267 -0.35021,0.39979 c -0.422221,0.48197 -0.92717,0.87444 -1.386887,1.07794 -0.428898,0.18985 -1.980798,0.30804 -1.980798,0.15085 z"
       id="path3168"
       inkscape:connector-curvature="0" />
    <path
       style="fill:#000000;fill-opacity:1"
       id="path3174"
       d="m 96.674765,453.00659 c 0.265493,-0.13544 0.547041,-0.2419 0.80814,-0.38465 0.206238,-0.11692 0.401221,-0.24925 0.613092,-0.35749 0.420726,-0.21265 0.735383,0.35602 0.314656,0.56867 l 0,0 c -0.208013,0.10345 -0.3935,0.24028 -0.597894,0.34956 -0.284152,0.15075 -0.583563,0.27353 -0.872856,0.41518 -0.437455,0.17918 -0.702593,-0.41209 -0.265138,-0.59127 z"
       inkscape:connector-curvature="0" />
    <path
       style="fill:#000000;fill-opacity:1"
       id="path3174-4"
       d="m 97.059386,453.97608 c 0.265488,-0.13543 0.547042,-0.24191 0.808136,-0.38465 0.206244,-0.11692 0.40122,-0.24924 0.61309,-0.35748 0.420727,-0.21265 0.735383,0.35601 0.314657,0.56865 l 0,0 c -0.208007,0.10346 -0.393493,0.24029 -0.597893,0.34957 -0.284146,0.15076 -0.583564,0.27353 -0.872852,0.41518 -0.437457,0.17919 -0.702595,-0.41209 -0.265138,-0.59127 z"
       inkscape:connector-curvature="0" />
  </g>
</svg>
