<?xml version="1.0" encoding="UTF-8" standalone="no"?>
<!-- Created with Inkscape (http://www.inkscape.org/) -->

<svg
   xmlns:dc="http://purl.org/dc/elements/1.1/"
   xmlns:cc="http://creativecommons.org/ns#"
   xmlns:rdf="http://www.w3.org/1999/02/22-rdf-syntax-ns#"
   xmlns:svg="http://www.w3.org/2000/svg"
   xmlns="http://www.w3.org/2000/svg"
   xmlns:sodipodi="http://sodipodi.sourceforge.net/DTD/sodipodi-0.dtd"
   xmlns:inkscape="http://www.inkscape.org/namespaces/inkscape"
   version="1.1"
   width="50"
   height="50"
   id="svg2"
   inkscape:version="0.48.3.1 r9886"
   sodipodi:docname="vertex_highlighted.svg">
  <sodipodi:namedview
     pagecolor="#ffffff"
     bordercolor="#666666"
     borderopacity="1"
     objecttolerance="10"
     gridtolerance="10"
     guidetolerance="10"
     inkscape:pageopacity="0"
     inkscape:pageshadow="2"
     inkscape:window-width="1084"
     inkscape:window-height="603"
     id="namedview9"
     showgrid="false"
     fit-margin-top="0"
     fit-margin-left="0"
     fit-margin-right="0"
     fit-margin-bottom="0"
     inkscape:zoom="2.8727323"
     inkscape:cx="3.322315"
     inkscape:cy="-59.09563"
     inkscape:window-x="204"
     inkscape:window-y="66"
     inkscape:window-maximized="0"
     inkscape:current-layer="svg2" />
  <defs
     id="defs4">
    <filter
       inkscape:collect="always"
       id="filter3799"
       x="-0.12645355"
       width="1.2529071"
       y="-0.12618734"
       height="1.2523747">
      <feGaussianBlur
         inkscape:collect="always"
         stdDeviation="4.3193796"
         id="feGaussianBlur3801" />
    </filter>
  </defs>
  <metadata
     id="metadata7">
    <rdf:RDF>
      <cc:Work
         rdf:about="">
        <dc:format>image/svg+xml</dc:format>
        <dc:type
           rdf:resource="http://purl.org/dc/dcmitype/StillImage" />
        <dc:title></dc:title>
      </cc:Work>
    </rdf:RDF>
  </metadata>
  <g
     transform="matrix(1.8752486,0,0,1.8379937,-350.89677,-211.40855)"
     id="layer1"
     inkscape:export-filename="/home/sade/Desktop/fuck-the-cs-department/images/tutorial/vertex_highlighted.png"
     inkscape:export-xdpi="90"
     inkscape:export-ydpi="90"
     style="opacity:0.61316872;fill:#d5f6ff;filter:url(#filter3799)">
    <path
       d="m 355.57368,344.24524 a 33.335033,29.294424 0 1 1 -0.37291,-4.36951"
       transform="translate(-131.41924,-203.5147)"
       id="path8545"
       style="fill:#d5f6ff;fill-opacity:1"
       inkscape:connector-curvature="0" />
    <path
       d="m 165.3781,123.91752 c 0.51433,-6.10505 8.05185,-9.72358 11.75142,-12.18298 8.17119,-4.28893 17.40443,-5.95814 26.23362,-3.32223 1.89578,0.56599 3.69079,1.49947 5.53619,2.24919 1.70081,1.10359 3.49591,2.03879 5.10243,3.31075 4.56928,3.61773 8.34057,8.63686 10.5535,14.45322 1.78864,4.70117 1.56908,5.97106 1.99988,10.91362 -0.18788,1.76268 -0.20384,3.55995 -0.56364,5.28803 -1.15342,5.5397 -4.04865,10.4062 -7.74683,14.18635 -4.37231,4.46923 -9.56461,7.13007 -14.68433,10.42102 -2.06975,0.88526 -4.09137,1.93111 -6.20926,2.65578 -8.33321,2.85136 -17.72485,3.58812 -25.97266,-0.0863 -1.89332,-0.84348 -3.60161,-2.14457 -5.40242,-3.21686 -1.50075,-1.45459 -3.16618,-2.71606 -4.50227,-4.3638 -3.85218,-4.75072 -6.07951,-10.96576 -6.17757,-17.41164 -0.0838,-5.5056 0.78921,-7.0212 2.29505,-12.16571 0.97482,-1.86092 1.78772,-3.84362 2.92444,-5.58275 3.70835,-5.67359 8.89339,-9.82944 14.30794,-13.15521 10.93208,-6.71477 8.15879,-5.27953 17.0357,-8.72729 0,0 -4.61376,4.07266 -4.61376,4.07266 l 0,0 c -2.0134,0.81858 -3.984,1.78738 -6.04019,2.45574 -0.27504,0.0894 -0.5779,-0.36043 -0.83604,-0.22062 -5.55601,3.00929 -11.06561,7.58155 -14.89497,13.09226 -1.19035,1.71299 -2.06016,3.68279 -3.09024,5.5242 -1.62319,5.06533 -2.54763,6.49213 -2.47914,11.95804 0.079,6.30399 2.37046,12.33352 6.24409,16.8482 1.35855,1.58337 3.03523,2.7715 4.55285,4.15725 1.8237,0.99904 3.56264,2.2275 5.47112,2.99714 8.24545,3.32516 17.61831,2.49997 25.86298,-0.33143 2.03939,-0.70037 3.98544,-1.71097 5.97816,-2.56646 2.43928,-0.73988 1.57865,-0.38421 5.46799,-4.10733 3.86206,-3.69702 7.08129,-8.46306 8.34014,-14.09945 0.37441,-1.6764 0.37634,-3.43201 0.56451,-5.14803 -0.56338,-4.83361 -0.36684,-5.93523 -2.26405,-10.49253 -2.34558,-5.63434 -6.19043,-10.4612 -10.71542,-13.96393 -1.59468,-1.23442 -3.36611,-2.14687 -5.04917,-3.2203 -1.82142,-0.72609 -3.59663,-1.62282 -5.46427,-2.17829 -8.34732,-2.48261 -17.13515,-1.24515 -24.94617,2.69376 -1.02703,-0.67337 -0.20544,-0.16552 -2.7755,2.17082 -1.82831,1.66207 -3.47258,3.68898 -4.23658,6.23975 0,0 -1.55753,0.85534 -1.55753,0.85534 z"
       id="path3081"
       style="fill:#d5f6ff"
       inkscape:connector-curvature="0" />
    <path
       d="m 159.1861,120.37243 c 0.59167,-7.46876 9.26241,-11.89557 13.51819,-14.90435 9.39969,-5.24697 20.02111,-7.289032 30.17773,-4.06432 2.18079,0.69241 4.24568,1.83441 6.36853,2.7516 1.95651,1.35009 4.0215,2.4942 5.86956,4.05028 5.25624,4.42584 9.59452,10.56612 12.14016,17.68171 2.05755,5.75129 1.80498,7.30483 2.30056,13.35145 -0.21614,2.15641 -0.2345,4.35514 -0.64839,6.46923 -1.32683,6.77714 -4.65734,12.73069 -8.91153,17.35522 -5.02966,5.46755 -11.00261,8.72275 -16.89205,12.74882 -2.38092,1.083 -4.70648,2.36247 -7.14279,3.24901 -9.58607,3.48828 -20.3897,4.38962 -29.87753,-0.10557 -2.17798,-1.0319 -4.14309,-2.62362 -6.21465,-3.93543 -1.72637,-1.77951 -3.6422,-3.32276 -5.17917,-5.33857 -4.43133,-5.8119 -6.99353,-13.41523 -7.10633,-21.30095 -0.0964,-6.73541 0.90787,-8.58956 2.6401,-14.88322 1.12138,-2.2766 2.0565,-4.70219 3.36411,-6.8298 4.26589,-6.94092 10.23048,-12.02508 16.45907,-16.09375 12.57567,-8.21468 9.38543,-6.45885 19.59695,-10.676752 0,0 -5.30742,4.982402 -5.30742,4.982402 l 0,0 c -2.31611,1.00142 -4.58297,2.18663 -6.94831,3.00428 -0.31639,0.10937 -0.66478,-0.44094 -0.96173,-0.26989 -6.39133,3.68148 -12.72928,9.27506 -17.13437,16.01673 -1.36931,2.09563 -2.36989,4.50543 -3.55483,6.75817 -1.86723,6.1968 -2.93065,7.9423 -2.85187,14.62916 0.0909,7.71214 2.72685,15.08852 7.18286,20.61167 1.5628,1.93704 3.49156,3.39057 5.23735,5.08586 2.09788,1.22221 4.09827,2.72508 6.29367,3.66663 9.48512,4.06792 20.26714,3.05839 29.75136,-0.40546 2.346,-0.85681 4.58464,-2.09316 6.87695,-3.13974 2.80602,-0.90515 1.816,-0.47004 6.29008,-5.02481 4.4427,-4.52283 8.14592,-10.35349 9.59404,-17.24891 0.4307,-2.05086 0.43293,-4.19864 0.64938,-6.29797 -0.64808,-5.91331 -0.42199,-7.26101 -2.60444,-12.83629 -2.69822,-6.89291 -7.12113,-12.79797 -12.32643,-17.08312 -1.83443,-1.51016 -3.87219,-2.62643 -5.80829,-3.93964 -2.09526,-0.88827 -4.13736,-1.98531 -6.2858,-2.66486 -9.6023,-3.03716 -19.71134,-1.52328 -28.69671,3.29548 -1.18144,-0.82378 -0.23632,-0.20249 -3.19279,2.65572 -2.10318,2.03334 -3.99466,4.51301 -4.87352,7.63356 0,0 -1.7917,1.0464 -1.7917,1.0464 z"
       id="path3081-5"
       style="fill:#d5f6ff"
       inkscape:connector-curvature="0" />
  </g>
</svg>
